// array size is 4083
static const char bytes[]  = {
  0x4d, 0x54, 0x68, 0x64, 0x00, 0x00, 0x00, 0x06, 0x00, 0x01, 0x00, 0x20, 0x03, 0xc0, 0x4d, 0x54, 
  0x72, 0x6b, 0x00, 0x00, 0x09, 0x3b, 0x00, 0xff, 0x03, 0x01, 0x00, 0x00, 0x90, 0x39, 0x50, 0x00, 
  0xff, 0x51, 0x03, 0x09, 0xf3, 0x8d, 0x00, 0xff, 0x58, 0x04, 0x03, 0x02, 0x18, 0x08, 0x81, 0x70, 
  0xb0, 0x40, 0x00, 0x78, 0xb0, 0x40, 0x3f, 0x78, 0xb0, 0x40, 0x7f, 0x83, 0x60, 0x80, 0x39, 0x40, 
  0x00, 0x90, 0x40, 0x34, 0x0a, 0x90, 0x44, 0x34, 0x14, 0x90, 0x49, 0x34, 0x8c, 0x72, 0xb0, 0x40, 
  0x7f, 0x78, 0xb0, 0x40, 0x3f, 0x64, 0x80, 0x40, 0x40, 0x00, 0x80, 0x44, 0x40, 0x00, 0x80, 0x49, 
  0x40, 0x14, 0xb0, 0x40, 0x00, 0x00, 0x90, 0x37, 0x50, 0x81, 0x70, 0xb0, 0x40, 0x00, 0x78, 0xb0, 
  0x40, 0x3f, 0x78, 0xb0, 0x40, 0x7f, 0x83, 0x4c, 0x80, 0x37, 0x40, 0x14, 0x90, 0x3e, 0x34, 0x0a, 
  0x90, 0x42, 0x34, 0x1e, 0x90, 0x47, 0x34, 0x8c, 0x68, 0xb0, 0x40, 0x7f, 0x78, 0xb0, 0x40, 0x3f, 
  0x64, 0x80, 0x3e, 0x40, 0x00, 0x80, 0x42, 0x40, 0x00, 0x80, 0x47, 0x40, 0x14, 0xb0, 0x40, 0x00, 
  0x00, 0x90, 0x39, 0x50, 0x81, 0x70, 0xb0, 0x40, 0x00, 0x78, 0xb0, 0x40, 0x3f, 0x78, 0xb0, 0x40, 
  0x7f, 0x83, 0x60, 0x80, 0x39, 0x40, 0x00, 0x90, 0x40, 0x34, 0x14, 0x90, 0x44, 0x34, 0x28, 0x90, 
  0x49, 0x34, 0x8c, 0x54, 0xb0, 0x40, 0x7f, 0x78, 0xb0, 0x40, 0x3f, 0x64, 0x80, 0x40, 0x40, 0x00, 
  0x80, 0x44, 0x40, 0x00, 0x80, 0x49, 0x40, 0x14, 0xb0, 0x40, 0x00, 0x00, 0x90, 0x37, 0x50, 0x81, 
  0x70, 0xb0, 0x40, 0x00, 0x78, 0xb0, 0x40, 0x3f, 0x78, 0xb0, 0x40, 0x7f, 0x83, 0x60, 0x80, 0x37, 
  0x40, 0x00, 0x90, 0x3e, 0x34, 0x14, 0x90, 0x42, 0x34, 0x00, 0x90, 0x47, 0x34, 0x8c, 0x7c, 0xb0, 
  0x40, 0x7f, 0x78, 0xb0, 0x40, 0x3f, 0x64, 0x80, 0x3e, 0x40, 0x00, 0x80, 0x42, 0x40, 0x00, 0x80, 
  0x47, 0x40, 0x14, 0xb0, 0x40, 0x00, 0x00, 0x90, 0x39, 0x50, 0x87, 0x40, 0x90, 0x44, 0x34, 0x8e, 
  0x6c, 0x80, 0x39, 0x40, 0x00, 0x80, 0x44, 0x40, 0x14, 0x90, 0x37, 0x50, 0x87, 0x40, 0x90, 0x42, 
  0x34, 0x8e, 0x6c, 0x80, 0x37, 0x40, 0x00, 0x80, 0x42, 0x40, 0x14, 0x90, 0x39, 0x50, 0x87, 0x40, 
  0x90, 0x44, 0x24, 0x8e, 0x6c, 0x80, 0x39, 0x40, 0x00, 0x80, 0x44, 0x40, 0x14, 0x90, 0x37, 0x50, 
  0x87, 0x40, 0x90, 0x42, 0x34, 0x8e, 0x6c, 0x80, 0x37, 0x40, 0x00, 0x80, 0x42, 0x40, 0x14, 0x90, 
  0x36, 0x50, 0x87, 0x40, 0x90, 0x3d, 0x34, 0x0a, 0x90, 0x40, 0x34, 0x8e, 0x62, 0x80, 0x36, 0x40, 
  0x00, 0x80, 0x3d, 0x40, 0x00, 0x80, 0x40, 0x40, 0x14, 0x90, 0x3b, 0x50, 0x87, 0x40, 0x90, 0x3f, 
  0x34, 0x8e, 0x6c, 0x80, 0x3b, 0x40, 0x00, 0x80, 0x3f, 0x40, 0x14, 0x90, 0x34, 0x50, 0x87, 0x40, 
  0x90, 0x39, 0x34, 0x14, 0x90, 0x3e, 0x34, 0x8e, 0x58, 0x80, 0x39, 0x40, 0x14, 0x90, 0x38, 0x34, 
  0x96, 0x2c, 0x80, 0x34, 0x40, 0x00, 0x80, 0x38, 0x40, 0x00, 0x80, 0x3e, 0x40, 0x14, 0x90, 0x32, 
  0x50, 0x00, 0x90, 0x3d, 0x34, 0x96, 0x2c, 0x80, 0x32, 0x40, 0x00, 0x80, 0x3d, 0x40, 0x14, 0xb0, 
  0x40, 0x00, 0x00, 0x90, 0x31, 0x50, 0x00, 0x90, 0x3b, 0x34, 0x78, 0xb0, 0x40, 0x1f, 0x78, 0xb0, 
  0x40, 0x3f, 0x78, 0xb0, 0x40, 0x5f, 0x78, 0xb0, 0x40, 0x7f, 0x83, 0x60, 0x80, 0x31, 0x40, 0x00, 
  0x80, 0x3b, 0x40, 0x00, 0x90, 0x41, 0x3c, 0x8d, 0x10, 0xb0, 0x40, 0x7f, 0x78, 0xb0, 0x40, 0x3f, 
  0x64, 0x80, 0x41, 0x40, 0x14, 0xb0, 0x40, 0x00, 0x00, 0x90, 0x3b, 0x34, 0x00, 0x90, 0x31, 0x50, 
  0x96, 0x2c, 0x80, 0x3b, 0x40, 0x14, 0x80, 0x31, 0x40, 0x00, 0x90, 0x3a, 0x34, 0x87, 0x40, 0x90, 
  0x40, 0x34, 0x8e, 0x6c, 0x80, 0x3a, 0x40, 0x00, 0x80, 0x40, 0x40, 0x14, 0xb0, 0x40, 0x00, 0x00, 
  0x90, 0x2f, 0x50, 0x78, 0xb0, 0x40, 0x1f, 0x78, 0xb0, 0x40, 0x3f, 0x78, 0xb0, 0x40, 0x5f, 0x78, 
  0xb0, 0x40, 0x7f, 0x83, 0x60, 0x80, 0x2f, 0x40, 0x00, 0x90, 0x36, 0x34, 0x00, 0x90, 0x3e, 0x34, 
  0x8d, 0x10, 0xb0, 0x40, 0x7f, 0x78, 0xb0, 0x40, 0x3f, 0x64, 0x80, 0x36, 0x40, 0x00, 0x80, 0x3e, 
  0x40, 0x14, 0xb0, 0x40, 0x00, 0x00, 0x90, 0x34, 0x30, 0x87, 0x40, 0x90, 0x3b, 0x34, 0x0a, 0x90, 
  0x3e, 0x34, 0x8e, 0x62, 0x80, 0x34, 0x40, 0x00, 0x80, 0x3b, 0x40, 0x00, 0x80, 0x3e, 0x40, 0x14, 
  0x90, 0x3c, 0x34, 0x0a, 0x90, 0x3f, 0x34, 0x96, 0x22, 0x80, 0x3c, 0x40, 0x00, 0x80, 0x3f, 0x40, 
  0x14, 0x90, 0x3d, 0x34, 0x14, 0x90, 0x40, 0x34, 0x96, 0x18, 0x80, 0x3d, 0x40, 0x00, 0x80, 0x40, 
  0x40, 0x14, 0x90, 0x36, 0x54, 0x87, 0x40, 0x90, 0x3d, 0x34, 0x0a, 0x90, 0x40, 0x34, 0x8e, 0x62, 
  0x80, 0x36, 0x40, 0x00, 0x80, 0x3d, 0x40, 0x00, 0x80, 0x40, 0x40, 0x14, 0x90, 0x2f, 0x50, 0x87, 
  0x40, 0x80, 0x2f, 0x40, 0x00, 0x90, 0x39, 0x34, 0x14, 0x90, 0x3f, 0x34, 0x8e, 0x58, 0x80, 0x39, 
  0x40, 0x00, 0x80, 0x3f, 0x40, 0x14, 0x90, 0x34, 0x50, 0x87, 0x40, 0x90, 0x38, 0x34, 0x1e, 0x90, 
  0x3f, 0x34, 0x8e, 0x4e, 0x80, 0x34, 0x40, 0x00, 0x80, 0x38, 0x40, 0x00, 0x80, 0x3f, 0x40, 0x14, 
  0xb0, 0x40, 0x00, 0x00, 0x90, 0x2f, 0x50, 0x78, 0xb0, 0x40, 0x1f, 0x78, 0xb0, 0x40, 0x3f, 0x78, 
  0xb0, 0x40, 0x5f, 0x78, 0xb0, 0x40, 0x7f, 0x83, 0x60, 0x80, 0x2f, 0x40, 0x00, 0x90, 0x38, 0x34, 
  0x1e, 0x90, 0x3d, 0x34, 0x8c, 0x72, 0xb0, 0x40, 0x7f, 0x78, 0xb0, 0x40, 0x3f, 0x64, 0x80, 0x38, 
  0x40, 0x00, 0x80, 0x3d, 0x40, 0x14, 0xb0, 0x40, 0x00, 0x00, 0x90, 0x31, 0x50, 0x87, 0x40, 0x90, 
  0x34, 0x34, 0x14, 0x90, 0x3b, 0x34, 0x8e, 0x58, 0x80, 0x31, 0x40, 0x00, 0x80, 0x34, 0x40, 0x00, 
  0x80, 0x3b, 0x40, 0x14, 0x90, 0x36, 0x50, 0x87, 0x40, 0x90, 0x3a, 0x34, 0x8e, 0x6c, 0x80, 0x36, 
  0x40, 0x00, 0x80, 0x3a, 0x40, 0x14, 0xb0, 0x40, 0x00, 0x00, 0x90, 0x2f, 0x50, 0x78, 0xb0, 0x40, 
  0x1f, 0x78, 0xb0, 0x40, 0x3f, 0x78, 0xb0, 0x40, 0x5f, 0x78, 0xb0, 0x40, 0x7f, 0x83, 0x60, 0x80, 
  0x2f, 0x40, 0x00, 0x90, 0x39, 0x34, 0x1e, 0x90, 0x3d, 0x34, 0x8c, 0x72, 0xb0, 0x40, 0x7f, 0x78, 
  0xb0, 0x40, 0x3f, 0x64, 0x80, 0x39, 0x40, 0x00, 0x80, 0x3d, 0x40, 0x14, 0xb0, 0x40, 0x00, 0x00, 
  0x90, 0x34, 0x50, 0x87, 0x40, 0x90, 0x39, 0x34, 0x3c, 0x90, 0x3e, 0x34, 0x8e, 0x30, 0x80, 0x34, 
  0x40, 0x00, 0x80, 0x39, 0x40, 0x00, 0x80, 0x3e, 0x40, 0x14, 0xb0, 0x40, 0x00, 0x00, 0x90, 0x39, 
  0x54, 0x78, 0xb0, 0x40, 0x1f, 0x78, 0xb0, 0x40, 0x3f, 0x78, 0xb0, 0x40, 0x5f, 0x78, 0xb0, 0x40, 
  0x7f, 0x83, 0x4c, 0x80, 0x39, 0x40, 0x14, 0x90, 0x3e, 0x34, 0x1e, 0x90, 0x43, 0x34, 0x14, 0x90, 
  0x47, 0x34, 0x8c, 0x5e, 0xb0, 0x40, 0x7f, 0x78, 0xb0, 0x40, 0x3f, 0x64, 0x80, 0x3e, 0x40, 0x00, 
  0x80, 0x43, 0x40, 0x00, 0x80, 0x47, 0x40, 0x14, 0xb0, 0x40, 0x00, 0x00, 0xb0, 0x40, 0x7f, 0x00, 
  0x90, 0x32, 0x50, 0x1e, 0x90, 0x3d, 0x34, 0x5a, 0x80, 0x32, 0x40, 0x00, 0x90, 0x42, 0x34, 0x50, 
  0x90, 0x45, 0x34, 0x50, 0x80, 0x3d, 0x40, 0x81, 0x16, 0x80, 0x42, 0x40, 0x81, 0x3e, 0x80, 0x45, 
  0x40, 0x8f, 0x64, 0xb0, 0x40, 0x7f, 0x78, 0xb0, 0x40, 0x3f, 0x78, 0xb0, 0x40, 0x00, 0x00, 0x90, 
  0x3d, 0x34, 0x3c, 0x90, 0x42, 0x34, 0x95, 0x70, 0x80, 0x3d, 0x40, 0x00, 0x80, 0x42, 0x40, 0x14, 
  0xb0, 0x40, 0x00, 0x00, 0xb0, 0x40, 0x7f, 0x00, 0x90, 0x31, 0x50, 0x1e, 0x90, 0x3b, 0x34, 0x6e, 
  0x80, 0x31, 0x40, 0x00, 0x90, 0x40, 0x34, 0x50, 0x80, 0x3b, 0x40, 0x1e, 0x90, 0x44, 0x34, 0x81, 
  0x2a, 0x80, 0x40, 0x40, 0x81, 0x66, 0x80, 0x44, 0x40, 0x8f, 0x46, 0xb0, 0x40, 0x7f, 0x78, 0xb0, 
  0x40, 0x3f, 0x78, 0xb0, 0x40, 0x00, 0x00, 0x90, 0x3b, 0x34, 0x3c, 0x90, 0x40, 0x34, 0x95, 0x70, 
  0x80, 0x3b, 0x40, 0x00, 0x80, 0x40, 0x40, 0x14, 0xb0, 0x40, 0x00, 0x00, 0xb0, 0x40, 0x7f, 0x00, 
  0x90, 0x2f, 0x50, 0x46, 0x90, 0x39, 0x34, 0x3c, 0x80, 0x2f, 0x40, 0x1e, 0x90, 0x3e, 0x34, 0x32, 
  0x90, 0x42, 0x34, 0x1e, 0x80, 0x39, 0x40, 0x78, 0x80, 0x3e, 0x40, 0x64, 0x80, 0x42, 0x40, 0x92, 
  0x56, 0x90, 0x34, 0x50, 0x50, 0x90, 0x39, 0x34, 0x6e, 0x90, 0x3e, 0x34, 0x93, 0x30, 0xb0, 0x40, 
  0x7f, 0x78, 0xb0, 0x40, 0x3f, 0x64, 0x80, 0x34, 0x40, 0x00, 0x80, 0x39, 0x40, 0x00, 0x80, 0x3e, 
  0x40, 0x14, 0xb0, 0x40, 0x00, 0x00, 0xb0, 0x40, 0x00, 0x00, 0x90, 0x39, 0x50, 0x00, 0xff, 0x58, 
  0x04, 0x03, 0x02, 0x18, 0x08, 0x81, 0x70, 0xb0, 0x40, 0x00, 0x78, 0xb0, 0x40, 0x3f, 0x78, 0xb0, 
  0x40, 0x7f, 0x83, 0x60, 0x80, 0x39, 0x40, 0x00, 0x90, 0x40, 0x34, 0x0a, 0x90, 0x44, 0x34, 0x14, 
  0x90, 0x49, 0x34, 0x8c, 0x72, 0xb0, 0x40, 0x7f, 0x78, 0xb0, 0x40, 0x3f, 0x64, 0x80, 0x40, 0x40, 
  0x00, 0x80, 0x44, 0x40, 0x00, 0x80, 0x49, 0x40, 0x14, 0xb0, 0x40, 0x00, 0x00, 0x90, 0x37, 0x50, 
  0x81, 0x70, 0xb0, 0x40, 0x00, 0x78, 0xb0, 0x40, 0x3f, 0x78, 0xb0, 0x40, 0x7f, 0x83, 0x4c, 0x80, 
  0x37, 0x40, 0x14, 0x90, 0x3e, 0x34, 0x0a, 0x90, 0x42, 0x34, 0x1e, 0x90, 0x47, 0x34, 0x8c, 0x68, 
  0xb0, 0x40, 0x7f, 0x78, 0xb0, 0x40, 0x3f, 0x64, 0x80, 0x3e, 0x40, 0x00, 0x80, 0x42, 0x40, 0x00, 
  0x80, 0x47, 0x40, 0x14, 0xb0, 0x40, 0x00, 0x00, 0x90, 0x39, 0x50, 0x81, 0x70, 0xb0, 0x40, 0x00, 
  0x78, 0xb0, 0x40, 0x3f, 0x78, 0xb0, 0x40, 0x7f, 0x83, 0x60, 0x80, 0x39, 0x40, 0x00, 0x90, 0x40, 
  0x34, 0x14, 0x90, 0x44, 0x34, 0x28, 0x90, 0x49, 0x34, 0x8c, 0x54, 0xb0, 0x40, 0x7f, 0x78, 0xb0, 
  0x40, 0x3f, 0x64, 0x80, 0x40, 0x40, 0x00, 0x80, 0x44, 0x40, 0x00, 0x80, 0x49, 0x40, 0x14, 0xb0, 
  0x40, 0x00, 0x00, 0x90, 0x37, 0x50, 0x81, 0x70, 0xb0, 0x40, 0x00, 0x78, 0xb0, 0x40, 0x3f, 0x78, 
  0xb0, 0x40, 0x7f, 0x83, 0x60, 0x80, 0x37, 0x40, 0x00, 0x90, 0x3e, 0x34, 0x14, 0x90, 0x42, 0x34, 
  0x00, 0x90, 0x47, 0x34, 0x8c, 0x7c, 0xb0, 0x40, 0x7f, 0x78, 0xb0, 0x40, 0x3f, 0x64, 0x80, 0x3e, 
  0x40, 0x00, 0x80, 0x42, 0x40, 0x00, 0x80, 0x47, 0x40, 0x14, 0xb0, 0x40, 0x00, 0x00, 0x90, 0x39, 
  0x50, 0x87, 0x40, 0x90, 0x44, 0x34, 0x8e, 0x6c, 0x80, 0x39, 0x40, 0x00, 0x80, 0x44, 0x40, 0x14, 
  0x90, 0x37, 0x50, 0x87, 0x40, 0x90, 0x42, 0x34, 0x8e, 0x6c, 0x80, 0x37, 0x40, 0x00, 0x80, 0x42, 
  0x40, 0x14, 0x90, 0x39, 0x50, 0x87, 0x40, 0x90, 0x44, 0x24, 0x8e, 0x6c, 0x80, 0x39, 0x40, 0x00, 
  0x80, 0x44, 0x40, 0x14, 0x90, 0x37, 0x50, 0x87, 0x40, 0x90, 0x42, 0x34, 0x8e, 0x6c, 0x80, 0x37, 
  0x40, 0x00, 0x80, 0x42, 0x40, 0x14, 0x90, 0x36, 0x50, 0x87, 0x40, 0x90, 0x3d, 0x34, 0x0a, 0x90, 
  0x40, 0x34, 0x8e, 0x62, 0x80, 0x36, 0x40, 0x00, 0x80, 0x3d, 0x40, 0x00, 0x80, 0x40, 0x40, 0x14, 
  0x90, 0x3b, 0x50, 0x87, 0x40, 0x90, 0x3f, 0x34, 0x8e, 0x6c, 0x80, 0x3b, 0x40, 0x00, 0x80, 0x3f, 
  0x40, 0x14, 0x90, 0x34, 0x50, 0x87, 0x40, 0x90, 0x39, 0x34, 0x14, 0x90, 0x3e, 0x34, 0x8e, 0x58, 
  0x80, 0x39, 0x40, 0x14, 0x90, 0x38, 0x34, 0x96, 0x2c, 0x80, 0x34, 0x40, 0x00, 0x80, 0x38, 0x40, 
  0x00, 0x80, 0x3e, 0x40, 0x14, 0x90, 0x32, 0x50, 0x00, 0x90, 0x3d, 0x34, 0x96, 0x2c, 0x80, 0x32, 
  0x40, 0x00, 0x80, 0x3d, 0x40, 0x14, 0xb0, 0x40, 0x00, 0x00, 0x90, 0x31, 0x50, 0x00, 0x90, 0x3b, 
  0x34, 0x78, 0xb0, 0x40, 0x1f, 0x78, 0xb0, 0x40, 0x3f, 0x78, 0xb0, 0x40, 0x5f, 0x78, 0xb0, 0x40, 
  0x7f, 0x83, 0x60, 0x80, 0x31, 0x40, 0x00, 0x80, 0x3b, 0x40, 0x00, 0x90, 0x41, 0x3c, 0x8d, 0x10, 
  0xb0, 0x40, 0x7f, 0x78, 0xb0, 0x40, 0x3f, 0x64, 0x80, 0x41, 0x40, 0x14, 0xb0, 0x40, 0x00, 0x00, 
  0x90, 0x3b, 0x34, 0x00, 0x90, 0x31, 0x50, 0x96, 0x2c, 0x80, 0x3b, 0x40, 0x14, 0x80, 0x31, 0x40, 
  0x00, 0x90, 0x3a, 0x34, 0x87, 0x40, 0x90, 0x40, 0x34, 0x8e, 0x6c, 0x80, 0x3a, 0x40, 0x00, 0x80, 
  0x40, 0x40, 0x14, 0xb0, 0x40, 0x00, 0x00, 0x90, 0x2f, 0x50, 0x78, 0xb0, 0x40, 0x1f, 0x78, 0xb0, 
  0x40, 0x3f, 0x78, 0xb0, 0x40, 0x5f, 0x78, 0xb0, 0x40, 0x7f, 0x83, 0x60, 0x80, 0x2f, 0x40, 0x00, 
  0x90, 0x36, 0x34, 0x00, 0x90, 0x3e, 0x34, 0x8d, 0x10, 0xb0, 0x40, 0x7f, 0x78, 0xb0, 0x40, 0x3f, 
  0x64, 0x80, 0x36, 0x40, 0x00, 0x80, 0x3e, 0x40, 0x14, 0xb0, 0x40, 0x00, 0x00, 0x90, 0x34, 0x30, 
  0x87, 0x40, 0x90, 0x3b, 0x34, 0x0a, 0x90, 0x3e, 0x34, 0x8e, 0x62, 0x80, 0x34, 0x40, 0x00, 0x80, 
  0x3b, 0x40, 0x00, 0x80, 0x3e, 0x40, 0x14, 0x90, 0x3c, 0x34, 0x0a, 0x90, 0x3f, 0x34, 0x96, 0x22, 
  0x80, 0x3c, 0x40, 0x00, 0x80, 0x3f, 0x40, 0x14, 0x90, 0x3d, 0x34, 0x14, 0x90, 0x40, 0x34, 0x96, 
  0x18, 0x80, 0x3d, 0x40, 0x00, 0x80, 0x40, 0x40, 0x14, 0x90, 0x36, 0x54, 0x87, 0x40, 0x90, 0x3d, 
  0x34, 0x0a, 0x90, 0x40, 0x34, 0x8e, 0x62, 0x80, 0x36, 0x40, 0x00, 0x80, 0x3d, 0x40, 0x00, 0x80, 
  0x40, 0x40, 0x14, 0x90, 0x2f, 0x50, 0x87, 0x40, 0x80, 0x2f, 0x40, 0x00, 0x90, 0x39, 0x34, 0x14, 
  0x90, 0x3f, 0x34, 0x8e, 0x58, 0x80, 0x39, 0x40, 0x00, 0x80, 0x3f, 0x40, 0x14, 0x90, 0x34, 0x50, 
  0x87, 0x40, 0x90, 0x38, 0x34, 0x1e, 0x90, 0x3f, 0x34, 0x8e, 0x4e, 0x80, 0x34, 0x40, 0x00, 0x80, 
  0x38, 0x40, 0x00, 0x80, 0x3f, 0x40, 0x14, 0xb0, 0x40, 0x00, 0x00, 0x90, 0x2f, 0x50, 0x78, 0xb0, 
  0x40, 0x1f, 0x78, 0xb0, 0x40, 0x3f, 0x78, 0xb0, 0x40, 0x5f, 0x78, 0xb0, 0x40, 0x7f, 0x83, 0x60, 
  0x80, 0x2f, 0x40, 0x00, 0x90, 0x38, 0x34, 0x1e, 0x90, 0x3d, 0x34, 0x8c, 0x72, 0xb0, 0x40, 0x7f, 
  0x78, 0xb0, 0x40, 0x3f, 0x64, 0x80, 0x38, 0x40, 0x00, 0x80, 0x3d, 0x40, 0x14, 0xb0, 0x40, 0x00, 
  0x00, 0x90, 0x31, 0x50, 0x87, 0x40, 0x90, 0x34, 0x34, 0x14, 0x90, 0x3b, 0x34, 0x8e, 0x58, 0x80, 
  0x31, 0x40, 0x00, 0x80, 0x34, 0x40, 0x00, 0x80, 0x3b, 0x40, 0x14, 0x90, 0x36, 0x50, 0x87, 0x40, 
  0x90, 0x3a, 0x34, 0x8e, 0x6c, 0x80, 0x36, 0x40, 0x00, 0x80, 0x3a, 0x40, 0x14, 0xb0, 0x40, 0x00, 
  0x00, 0x90, 0x2f, 0x50, 0x78, 0xb0, 0x40, 0x1f, 0x78, 0xb0, 0x40, 0x3f, 0x78, 0xb0, 0x40, 0x5f, 
  0x78, 0xb0, 0x40, 0x7f, 0x83, 0x60, 0x80, 0x2f, 0x40, 0x00, 0x90, 0x39, 0x34, 0x1e, 0x90, 0x3d, 
  0x34, 0x8c, 0x72, 0xb0, 0x40, 0x7f, 0x78, 0xb0, 0x40, 0x3f, 0x64, 0x80, 0x39, 0x40, 0x00, 0x80, 
  0x3d, 0x40, 0x14, 0xb0, 0x40, 0x00, 0x00, 0x90, 0x34, 0x50, 0x87, 0x40, 0x90, 0x39, 0x34, 0x3c, 
  0x90, 0x3e, 0x34, 0x8e, 0x30, 0x80, 0x34, 0x40, 0x00, 0x80, 0x39, 0x40, 0x00, 0x80, 0x3e, 0x40, 
  0x14, 0xb0, 0x40, 0x00, 0x00, 0x90, 0x39, 0x54, 0x78, 0xb0, 0x40, 0x1f, 0x78, 0xb0, 0x40, 0x3f, 
  0x78, 0xb0, 0x40, 0x5f, 0x78, 0xb0, 0x40, 0x7f, 0x83, 0x4c, 0x80, 0x39, 0x40, 0x14, 0x90, 0x3e, 
  0x34, 0x1e, 0x90, 0x43, 0x34, 0x14, 0x90, 0x47, 0x34, 0x8c, 0x5e, 0xb0, 0x40, 0x7f, 0x78, 0xb0, 
  0x40, 0x3f, 0x64, 0x80, 0x3e, 0x40, 0x00, 0x80, 0x43, 0x40, 0x00, 0x80, 0x47, 0x40, 0x14, 0xb0, 
  0x40, 0x00, 0x00, 0xb0, 0x40, 0x7f, 0x00, 0x90, 0x32, 0x50, 0x1e, 0x90, 0x3d, 0x34, 0x5a, 0x80, 
  0x32, 0x40, 0x00, 0x90, 0x42, 0x34, 0x50, 0x90, 0x45, 0x34, 0x50, 0x80, 0x3d, 0x40, 0x81, 0x16, 
  0x80, 0x42, 0x40, 0x81, 0x3e, 0x80, 0x45, 0x40, 0x8f, 0x64, 0xb0, 0x40, 0x7f, 0x78, 0xb0, 0x40, 
  0x3f, 0x78, 0xb0, 0x40, 0x00, 0x00, 0x90, 0x3d, 0x34, 0x3c, 0x90, 0x42, 0x34, 0x95, 0x70, 0x80, 
  0x3d, 0x40, 0x00, 0x80, 0x42, 0x40, 0x14, 0xb0, 0x40, 0x00, 0x00, 0xb0, 0x40, 0x7f, 0x00, 0x90, 
  0x31, 0x50, 0x1e, 0x90, 0x3b, 0x34, 0x6e, 0x80, 0x31, 0x40, 0x00, 0x90, 0x40, 0x34, 0x50, 0x80, 
  0x3b, 0x40, 0x1e, 0x90, 0x44, 0x34, 0x81, 0x2a, 0x80, 0x40, 0x40, 0x81, 0x66, 0x80, 0x44, 0x40, 
  0x8f, 0x46, 0xb0, 0x40, 0x7f, 0x78, 0xb0, 0x40, 0x3f, 0x78, 0xb0, 0x40, 0x00, 0x00, 0x90, 0x3b, 
  0x34, 0x3c, 0x90, 0x40, 0x34, 0x95, 0x70, 0x80, 0x3b, 0x40, 0x00, 0x80, 0x40, 0x40, 0x14, 0xb0, 
  0x40, 0x00, 0x00, 0xb0, 0x40, 0x7f, 0x00, 0x90, 0x2f, 0x50, 0x46, 0x90, 0x39, 0x34, 0x3c, 0x80, 
  0x2f, 0x40, 0x1e, 0x90, 0x3e, 0x34, 0x32, 0x90, 0x42, 0x34, 0x1e, 0x80, 0x39, 0x40, 0x78, 0x80, 
  0x3e, 0x40, 0x64, 0x80, 0x42, 0x40, 0x92, 0x56, 0x90, 0x34, 0x50, 0x50, 0x90, 0x39, 0x34, 0x6e, 
  0x90, 0x3e, 0x34, 0x93, 0x30, 0xb0, 0x40, 0x7f, 0x78, 0xb0, 0x40, 0x3f, 0x64, 0x80, 0x34, 0x40, 
  0x00, 0x80, 0x39, 0x40, 0x00, 0x80, 0x3e, 0x40, 0x14, 0xb0, 0x40, 0x00, 0xad, 0x00, 0xff, 0x2f, 
  0x00, 0x4d, 0x54, 0x72, 0x6b, 0x00, 0x00, 0x00, 0x06, 0x8c, 0xd4, 0x00, 0xff, 0x2f, 0x00, 0x4d, 
  0x54, 0x72, 0x6b, 0x00, 0x00, 0x00, 0x06, 0x8c, 0xd4, 0x00, 0xff, 0x2f, 0x00, 0x4d, 0x54, 0x72, 
  0x6b, 0x00, 0x00, 0x00, 0x06, 0x8c, 0xd4, 0x00, 0xff, 0x2f, 0x00, 0x4d, 0x54, 0x72, 0x6b, 0x00, 
  0x00, 0x00, 0x06, 0x8c, 0xd4, 0x00, 0xff, 0x2f, 0x00, 0x4d, 0x54, 0x72, 0x6b, 0x00, 0x00, 0x00, 
  0x06, 0x8c, 0xd4, 0x00, 0xff, 0x2f, 0x00, 0x4d, 0x54, 0x72, 0x6b, 0x00, 0x00, 0x00, 0x06, 0x8c, 
  0xd4, 0x00, 0xff, 0x2f, 0x00, 0x4d, 0x54, 0x72, 0x6b, 0x00, 0x00, 0x00, 0x06, 0x8c, 0xd4, 0x00, 
  0xff, 0x2f, 0x00, 0x4d, 0x54, 0x72, 0x6b, 0x00, 0x00, 0x00, 0x06, 0x8c, 0xd4, 0x00, 0xff, 0x2f, 
  0x00, 0x4d, 0x54, 0x72, 0x6b, 0x00, 0x00, 0x00, 0x06, 0x8c, 0xd4, 0x00, 0xff, 0x2f, 0x00, 0x4d, 
  0x54, 0x72, 0x6b, 0x00, 0x00, 0x00, 0x06, 0x8c, 0xd4, 0x00, 0xff, 0x2f, 0x00, 0x4d, 0x54, 0x72, 
  0x6b, 0x00, 0x00, 0x00, 0x06, 0x8c, 0xd4, 0x00, 0xff, 0x2f, 0x00, 0x4d, 0x54, 0x72, 0x6b, 0x00, 
  0x00, 0x00, 0x06, 0x8c, 0xd4, 0x00, 0xff, 0x2f, 0x00, 0x4d, 0x54, 0x72, 0x6b, 0x00, 0x00, 0x00, 
  0x06, 0x8c, 0xd4, 0x00, 0xff, 0x2f, 0x00, 0x4d, 0x54, 0x72, 0x6b, 0x00, 0x00, 0x00, 0x06, 0x8c, 
  0xd4, 0x00, 0xff, 0x2f, 0x00, 0x4d, 0x54, 0x72, 0x6b, 0x00, 0x00, 0x00, 0x06, 0x8c, 0xd4, 0x00, 
  0xff, 0x2f, 0x00, 0x4d, 0x54, 0x72, 0x6b, 0x00, 0x00, 0x04, 0xf6, 0x00, 0xff, 0x03, 0x01, 0x00, 
  0x85, 0x00, 0x90, 0x58, 0x3b, 0x82, 0x40, 0x90, 0x64, 0x2d, 0xa5, 0x2c, 0x80, 0x58, 0x40, 0x00, 
  0x80, 0x64, 0x40, 0x85, 0x14, 0x90, 0x58, 0x3b, 0x82, 0x40, 0x90, 0x64, 0x2d, 0xa5, 0x2c, 0x80, 
  0x58, 0x40, 0x00, 0x80, 0x64, 0x40, 0x14, 0x90, 0x49, 0x54, 0x82, 0x2c, 0x80, 0x49, 0x40, 0x82, 
  0x54, 0x90, 0x4c, 0x54, 0x91, 0x2c, 0x80, 0x4c, 0x40, 0x14, 0x90, 0x4a, 0x54, 0x82, 0x2c, 0x80, 
  0x4a, 0x40, 0x82, 0x54, 0x90, 0x47, 0x54, 0x91, 0x2c, 0x80, 0x47, 0x40, 0x14, 0x90, 0x49, 0x54, 
  0x84, 0x6c, 0x80, 0x49, 0x40, 0x82, 0x54, 0x90, 0x45, 0x54, 0x84, 0x6c, 0x80, 0x45, 0x40, 0x82, 
  0x54, 0x90, 0x49, 0x54, 0x84, 0x6c, 0x80, 0x49, 0x40, 0x82, 0x54, 0x90, 0x47, 0x54, 0x93, 0x6c, 
  0x80, 0x47, 0x40, 0x82, 0x54, 0x90, 0x45, 0x54, 0x87, 0x2c, 0x80, 0x45, 0x40, 0x14, 0x90, 0x47, 
  0x54, 0x87, 0x2c, 0x80, 0x47, 0x40, 0x14, 0x90, 0x49, 0x54, 0x87, 0x2c, 0x80, 0x49, 0x40, 0x14, 
  0x90, 0x50, 0x54, 0x8e, 0x6c, 0x80, 0x50, 0x40, 0x14, 0x90, 0x51, 0x54, 0x84, 0x6c, 0x80, 0x51, 
  0x40, 0x82, 0x54, 0x90, 0x4c, 0x54, 0xa6, 0x4c, 0x80, 0x4c, 0x40, 0x86, 0x34, 0x90, 0x4e, 0x54, 
  0x83, 0x4c, 0x80, 0x4e, 0x40, 0x83, 0x74, 0x90, 0x50, 0x54, 0x83, 0x4c, 0x80, 0x50, 0x40, 0x83, 
  0x74, 0x90, 0x51, 0x54, 0x83, 0x4c, 0x80, 0x51, 0x40, 0x83, 0x74, 0x90, 0x50, 0x54, 0x90, 0x0c, 
  0x80, 0x50, 0x40, 0x86, 0x34, 0x90, 0x4c, 0x54, 0x83, 0x4c, 0x80, 0x4c, 0x40, 0x83, 0x74, 0x90, 
  0x4e, 0x54, 0x83, 0x4c, 0x80, 0x4e, 0x40, 0x83, 0x74, 0x90, 0x50, 0x54, 0x83, 0x4c, 0x80, 0x50, 
  0x40, 0x83, 0x74, 0x90, 0x4e, 0x54, 0x90, 0x0c, 0x80, 0x4e, 0x40, 0x86, 0x34, 0x90, 0x42, 0x54, 
  0x84, 0x6c, 0x80, 0x42, 0x40, 0x82, 0x54, 0x90, 0x45, 0x54, 0x84, 0x6c, 0x80, 0x45, 0x40, 0x82, 
  0x54, 0x90, 0x49, 0x54, 0x84, 0x6c, 0x80, 0x49, 0x40, 0x82, 0x54, 0x90, 0x4c, 0x54, 0x8c, 0x2c, 
  0x80, 0x4c, 0x40, 0x82, 0x54, 0x90, 0x44, 0x54, 0x87, 0x2c, 0x80, 0x44, 0x40, 0x14, 0x90, 0x45, 
  0x54, 0xa6, 0x4c, 0x80, 0x45, 0x40, 0x86, 0x34, 0x90, 0x45, 0x50, 0x00, 0x90, 0x4c, 0x46, 0x87, 
  0x2c, 0x80, 0x45, 0x40, 0x14, 0x90, 0x45, 0x50, 0x87, 0x2c, 0x80, 0x45, 0x40, 0x14, 0x90, 0x45, 
  0x50, 0x87, 0x2c, 0x80, 0x45, 0x40, 0x00, 0x80, 0x4c, 0x40, 0x14, 0x90, 0x45, 0x50, 0x00, 0x90, 
  0x4b, 0x46, 0x87, 0x2c, 0x80, 0x45, 0x40, 0x14, 0x90, 0x44, 0x50, 0x87, 0x2c, 0x80, 0x44, 0x40, 
  0x14, 0x90, 0x42, 0x54, 0x87, 0x2c, 0x80, 0x42, 0x40, 0x00, 0x80, 0x4b, 0x40, 0x14, 0x90, 0x4b, 
  0x46, 0x00, 0x90, 0x44, 0x50, 0x96, 0x2c, 0x80, 0x4b, 0x40, 0x14, 0x90, 0x49, 0x46, 0x90, 0x0c, 
  0x80, 0x44, 0x40, 0x86, 0x20, 0x80, 0x49, 0x40, 0x14, 0x90, 0x44, 0x50, 0x00, 0x90, 0x47, 0x46, 
  0x87, 0x2c, 0x80, 0x44, 0x40, 0x14, 0x90, 0x44, 0x50, 0x87, 0x2c, 0x80, 0x44, 0x40, 0x14, 0x90, 
  0x44, 0x50, 0x87, 0x2c, 0x80, 0x44, 0x40, 0x00, 0x80, 0x47, 0x40, 0x14, 0x90, 0x44, 0x50, 0x00, 
  0x90, 0x46, 0x46, 0x87, 0x2c, 0x80, 0x44, 0x40, 0x14, 0x90, 0x42, 0x54, 0x87, 0x2c, 0x80, 0x42, 
  0x40, 0x14, 0x90, 0x40, 0x54, 0x87, 0x2c, 0x80, 0x40, 0x40, 0x00, 0x80, 0x46, 0x40, 0x14, 0x90, 
  0x42, 0x54, 0x00, 0x90, 0x47, 0x46, 0xad, 0x00, 0x80, 0x42, 0x40, 0x00, 0x80, 0x47, 0x40, 0x00, 
  0x90, 0x43, 0x46, 0x00, 0x90, 0x47, 0x46, 0x87, 0x2c, 0x80, 0x43, 0x40, 0x14, 0x80, 0x47, 0x40, 
  0x8f, 0x00, 0x90, 0x49, 0x4b, 0x87, 0x04, 0x80, 0x49, 0x40, 0x3c, 0x90, 0x49, 0x4b, 0x87, 0x04, 
  0x80, 0x49, 0x40, 0x3c, 0x90, 0x49, 0x4b, 0x87, 0x04, 0x80, 0x49, 0x40, 0x3c, 0x90, 0x49, 0x4b, 
  0x87, 0x2c, 0x80, 0x49, 0x40, 0x14, 0x90, 0x47, 0x4b, 0x87, 0x2c, 0x80, 0x47, 0x40, 0x14, 0x90, 
  0x45, 0x4b, 0x87, 0x2c, 0x80, 0x45, 0x40, 0x14, 0x90, 0x47, 0x4b, 0x87, 0x04, 0x80, 0x47, 0x40, 
  0x3c, 0x90, 0x47, 0x4b, 0x87, 0x04, 0x80, 0x47, 0x40, 0x3c, 0x90, 0x47, 0x4b, 0x87, 0x04, 0x80, 
  0x47, 0x40, 0x3c, 0x90, 0x47, 0x4b, 0x87, 0x2c, 0x80, 0x47, 0x40, 0x14, 0x90, 0x45, 0x4b, 0x87, 
  0x2c, 0x80, 0x45, 0x40, 0x14, 0x90, 0x44, 0x4b, 0x87, 0x2c, 0x80, 0x44, 0x40, 0x14, 0x90, 0x45, 
  0x4b, 0xad, 0x00, 0x80, 0x45, 0x40, 0x85, 0x00, 0x90, 0x58, 0x3b, 0x82, 0x40, 0x90, 0x64, 0x2d, 
  0xa5, 0x2c, 0x80, 0x58, 0x40, 0x00, 0x80, 0x64, 0x40, 0x85, 0x14, 0x90, 0x58, 0x3b, 0x82, 0x40, 
  0x90, 0x64, 0x2d, 0xa5, 0x2c, 0x80, 0x58, 0x40, 0x00, 0x80, 0x64, 0x40, 0x14, 0x90, 0x49, 0x54, 
  0x82, 0x2c, 0x80, 0x49, 0x40, 0x82, 0x54, 0x90, 0x4c, 0x54, 0x91, 0x2c, 0x80, 0x4c, 0x40, 0x14, 
  0x90, 0x4a, 0x54, 0x82, 0x2c, 0x80, 0x4a, 0x40, 0x82, 0x54, 0x90, 0x47, 0x54, 0x91, 0x2c, 0x80, 
  0x47, 0x40, 0x14, 0x90, 0x49, 0x54, 0x84, 0x6c, 0x80, 0x49, 0x40, 0x82, 0x54, 0x90, 0x45, 0x54, 
  0x84, 0x6c, 0x80, 0x45, 0x40, 0x82, 0x54, 0x90, 0x49, 0x54, 0x84, 0x6c, 0x80, 0x49, 0x40, 0x82, 
  0x54, 0x90, 0x47, 0x54, 0x93, 0x6c, 0x80, 0x47, 0x40, 0x82, 0x54, 0x90, 0x45, 0x54, 0x87, 0x2c, 
  0x80, 0x45, 0x40, 0x14, 0x90, 0x47, 0x54, 0x87, 0x2c, 0x80, 0x47, 0x40, 0x14, 0x90, 0x49, 0x54, 
  0x87, 0x2c, 0x80, 0x49, 0x40, 0x14, 0x90, 0x50, 0x54, 0x8e, 0x6c, 0x80, 0x50, 0x40, 0x14, 0x90, 
  0x51, 0x54, 0x84, 0x6c, 0x80, 0x51, 0x40, 0x82, 0x54, 0x90, 0x4c, 0x54, 0xa6, 0x4c, 0x80, 0x4c, 
  0x40, 0x86, 0x34, 0x90, 0x4e, 0x54, 0x83, 0x4c, 0x80, 0x4e, 0x40, 0x83, 0x74, 0x90, 0x50, 0x54, 
  0x83, 0x4c, 0x80, 0x50, 0x40, 0x83, 0x74, 0x90, 0x51, 0x54, 0x83, 0x4c, 0x80, 0x51, 0x40, 0x83, 
  0x74, 0x90, 0x50, 0x54, 0x90, 0x0c, 0x80, 0x50, 0x40, 0x86, 0x34, 0x90, 0x4c, 0x54, 0x83, 0x4c, 
  0x80, 0x4c, 0x40, 0x83, 0x74, 0x90, 0x4e, 0x54, 0x83, 0x4c, 0x80, 0x4e, 0x40, 0x83, 0x74, 0x90, 
  0x50, 0x54, 0x83, 0x4c, 0x80, 0x50, 0x40, 0x83, 0x74, 0x90, 0x4e, 0x54, 0x90, 0x0c, 0x80, 0x4e, 
  0x40, 0x86, 0x34, 0x90, 0x42, 0x54, 0x84, 0x6c, 0x80, 0x42, 0x40, 0x82, 0x54, 0x90, 0x45, 0x54, 
  0x84, 0x6c, 0x80, 0x45, 0x40, 0x82, 0x54, 0x90, 0x49, 0x54, 0x84, 0x6c, 0x80, 0x49, 0x40, 0x82, 
  0x54, 0x90, 0x4c, 0x54, 0x8c, 0x2c, 0x80, 0x4c, 0x40, 0x82, 0x54, 0x90, 0x44, 0x54, 0x87, 0x2c, 
  0x80, 0x44, 0x40, 0x14, 0x90, 0x45, 0x54, 0xa6, 0x4c, 0x80, 0x45, 0x40, 0x86, 0x34, 0x90, 0x45, 
  0x50, 0x00, 0x90, 0x4c, 0x46, 0x87, 0x2c, 0x80, 0x45, 0x40, 0x14, 0x90, 0x45, 0x50, 0x87, 0x2c, 
  0x80, 0x45, 0x40, 0x14, 0x90, 0x45, 0x50, 0x87, 0x2c, 0x80, 0x45, 0x40, 0x00, 0x80, 0x4c, 0x40, 
  0x14, 0x90, 0x45, 0x50, 0x00, 0x90, 0x4b, 0x46, 0x87, 0x2c, 0x80, 0x45, 0x40, 0x14, 0x90, 0x44, 
  0x50, 0x87, 0x2c, 0x80, 0x44, 0x40, 0x14, 0x90, 0x42, 0x54, 0x87, 0x2c, 0x80, 0x42, 0x40, 0x00, 
  0x80, 0x4b, 0x40, 0x14, 0x90, 0x4b, 0x46, 0x00, 0x90, 0x44, 0x50, 0x96, 0x2c, 0x80, 0x4b, 0x40, 
  0x14, 0x90, 0x49, 0x46, 0x90, 0x0c, 0x80, 0x44, 0x40, 0x86, 0x20, 0x80, 0x49, 0x40, 0x14, 0x90, 
  0x44, 0x50, 0x00, 0x90, 0x47, 0x46, 0x87, 0x2c, 0x80, 0x44, 0x40, 0x14, 0x90, 0x44, 0x50, 0x87, 
  0x2c, 0x80, 0x44, 0x40, 0x14, 0x90, 0x44, 0x50, 0x87, 0x2c, 0x80, 0x44, 0x40, 0x00, 0x80, 0x47, 
  0x40, 0x14, 0x90, 0x44, 0x50, 0x00, 0x90, 0x46, 0x46, 0x87, 0x2c, 0x80, 0x44, 0x40, 0x14, 0x90, 
  0x42, 0x54, 0x87, 0x2c, 0x80, 0x42, 0x40, 0x14, 0x90, 0x40, 0x54, 0x87, 0x2c, 0x80, 0x40, 0x40, 
  0x00, 0x80, 0x46, 0x40, 0x14, 0x90, 0x42, 0x54, 0x00, 0x90, 0x47, 0x46, 0xad, 0x00, 0x80, 0x42, 
  0x40, 0x00, 0x80, 0x47, 0x40, 0x00, 0x90, 0x43, 0x46, 0x00, 0x90, 0x47, 0x46, 0x87, 0x2c, 0x80, 
  0x43, 0x40, 0x14, 0x80, 0x47, 0x40, 0x8f, 0x00, 0x90, 0x49, 0x4b, 0x87, 0x04, 0x80, 0x49, 0x40, 
  0x3c, 0x90, 0x49, 0x4b, 0x87, 0x04, 0x80, 0x49, 0x40, 0x3c, 0x90, 0x49, 0x4b, 0x87, 0x04, 0x80, 
  0x49, 0x40, 0x3c, 0x90, 0x49, 0x4b, 0x87, 0x2c, 0x80, 0x49, 0x40, 0x14, 0x90, 0x47, 0x4b, 0x87, 
  0x2c, 0x80, 0x47, 0x40, 0x14, 0x90, 0x45, 0x4b, 0x87, 0x2c, 0x80, 0x45, 0x40, 0x14, 0x90, 0x47, 
  0x4b, 0x87, 0x04, 0x80, 0x47, 0x40, 0x3c, 0x90, 0x47, 0x4b, 0x87, 0x04, 0x80, 0x47, 0x40, 0x3c, 
  0x90, 0x47, 0x4b, 0x87, 0x04, 0x80, 0x47, 0x40, 0x3c, 0x90, 0x47, 0x4b, 0x87, 0x2c, 0x80, 0x47, 
  0x40, 0x14, 0x90, 0x45, 0x4b, 0x87, 0x2c, 0x80, 0x45, 0x40, 0x14, 0x90, 0x44, 0x4b, 0x87, 0x2c, 
  0x80, 0x44, 0x40, 0x14, 0x90, 0x45, 0x4b, 0xad, 0x00, 0x80, 0x45, 0x40, 0xad, 0x00, 0xff, 0x2f, 
  0x00, 0x4d, 0x54, 0x72, 0x6b, 0x00, 0x00, 0x00, 0x06, 0x8c, 0xd4, 0x00, 0xff, 0x2f, 0x00, 0x4d, 
  0x54, 0x72, 0x6b, 0x00, 0x00, 0x00, 0x06, 0x8c, 0xd4, 0x00, 0xff, 0x2f, 0x00, 0x4d, 0x54, 0x72, 
  0x6b, 0x00, 0x00, 0x00, 0x06, 0x8c, 0xd4, 0x00, 0xff, 0x2f, 0x00, 0x4d, 0x54, 0x72, 0x6b, 0x00, 
  0x00, 0x00, 0x06, 0x8c, 0xd4, 0x00, 0xff, 0x2f, 0x00, 0x4d, 0x54, 0x72, 0x6b, 0x00, 0x00, 0x00, 
  0x06, 0x8c, 0xd4, 0x00, 0xff, 0x2f, 0x00, 0x4d, 0x54, 0x72, 0x6b, 0x00, 0x00, 0x00, 0x06, 0x8c, 
  0xd4, 0x00, 0xff, 0x2f, 0x00, 0x4d, 0x54, 0x72, 0x6b, 0x00, 0x00, 0x00, 0x06, 0x8c, 0xd4, 0x00, 
  0xff, 0x2f, 0x00, 0x4d, 0x54, 0x72, 0x6b, 0x00, 0x00, 0x00, 0x06, 0x8c, 0xd4, 0x00, 0xff, 0x2f, 
  0x00, 0x4d, 0x54, 0x72, 0x6b, 0x00, 0x00, 0x00, 0x06, 0x8c, 0xd4, 0x00, 0xff, 0x2f, 0x00, 0x4d, 
  0x54, 0x72, 0x6b, 0x00, 0x00, 0x00, 0x06, 0x8c, 0xd4, 0x00, 0xff, 0x2f, 0x00, 0x4d, 0x54, 0x72, 
  0x6b, 0x00, 0x00, 0x00, 0x06, 0x8c, 0xd4, 0x00, 0xff, 0x2f, 0x00, 0x4d, 0x54, 0x72, 0x6b, 0x00, 
  0x00, 0x00, 0x06, 0x8c, 0xd4, 0x00, 0xff, 0x2f, 0x00, 0x4d, 0x54, 0x72, 0x6b, 0x00, 0x00, 0x00, 
  0x06, 0x8c, 0xd4, 0x00, 0xff, 0x2f, 0x00, 0x4d, 0x54, 0x72, 0x6b, 0x00, 0x00, 0x00, 0x06, 0x8c, 
  0xd4, 0x00, 0xff, 0x2f, 0x00, 0x4d, 0x54, 0x72, 0x6b, 0x00, 0x00, 0x00, 0x06, 0x8c, 0xd4, 0x00, 
  0xff, 0x2f, 0x00
};