// array size is 5230
static const char bytes[]  = {
  0x4d, 0x54, 0x68, 0x64, 0x00, 0x00, 0x00, 0x06, 0x00, 0x01, 0x00, 0x02, 0x01, 0xe0, 0x4d, 0x54, 
  0x72, 0x6b, 0x00, 0x00, 0x06, 0x0a, 0x00, 0xff, 0x58, 0x04, 0x04, 0x02, 0x18, 0x08, 0x00, 0xff, 
  0x59, 0x02, 0x01, 0x00, 0x00, 0xff, 0x59, 0x02, 0x00, 0x00, 0x00, 0xff, 0x59, 0x02, 0x00, 0x00, 
  0x00, 0xff, 0x59, 0x02, 0x00, 0x00, 0x00, 0xff, 0x59, 0x02, 0x00, 0x00, 0x00, 0xff, 0x51, 0x03, 
  0x09, 0x27, 0xbf, 0x00, 0xb0, 0x79, 0x00, 0x00, 0xc0, 0x00, 0x00, 0xb0, 0x07, 0x64, 0x00, 0x0a, 
  0x40, 0x00, 0x5b, 0x00, 0x00, 0x5d, 0x00, 0x00, 0xff, 0x21, 0x01, 0x00, 0xbd, 0x70, 0x90, 0x43, 
  0x50, 0x71, 0x43, 0x00, 0x07, 0x42, 0x50, 0x71, 0x42, 0x00, 0x07, 0x43, 0x50, 0x81, 0x63, 0x43, 
  0x00, 0x0d, 0x47, 0x50, 0x71, 0x47, 0x00, 0x07, 0x48, 0x50, 0x71, 0x48, 0x00, 0x07, 0x47, 0x50, 
  0x87, 0x0f, 0x47, 0x00, 0x82, 0x21, 0x42, 0x50, 0x71, 0x42, 0x00, 0x07, 0x43, 0x50, 0x71, 0x43, 
  0x00, 0x07, 0x42, 0x50, 0x81, 0x63, 0x42, 0x00, 0x0d, 0x43, 0x50, 0x71, 0x43, 0x00, 0x07, 0x45, 
  0x50, 0x71, 0x45, 0x00, 0x07, 0x43, 0x50, 0x87, 0x0f, 0x43, 0x00, 0x82, 0x21, 0x42, 0x50, 0x71, 
  0x42, 0x00, 0x07, 0x40, 0x50, 0x71, 0x40, 0x00, 0x07, 0x42, 0x50, 0x81, 0x63, 0x42, 0x00, 0x0d, 
  0x47, 0x50, 0x71, 0x47, 0x00, 0x07, 0x48, 0x50, 0x71, 0x48, 0x00, 0x07, 0x47, 0x50, 0x87, 0x0f, 
  0x47, 0x00, 0x82, 0x21, 0x42, 0x50, 0x71, 0x42, 0x00, 0x07, 0x40, 0x50, 0x71, 0x40, 0x00, 0x07, 
  0x42, 0x50, 0x87, 0x0f, 0x42, 0x00, 0x86, 0x01, 0x43, 0x50, 0x71, 0x43, 0x00, 0x07, 0x42, 0x50, 
  0x71, 0x42, 0x00, 0x07, 0x43, 0x50, 0x81, 0x63, 0x43, 0x00, 0x0d, 0x47, 0x50, 0x71, 0x47, 0x00, 
  0x07, 0x48, 0x50, 0x71, 0x48, 0x00, 0x07, 0x47, 0x50, 0x87, 0x0f, 0x47, 0x00, 0x82, 0x21, 0x42, 
  0x50, 0x71, 0x42, 0x00, 0x07, 0x43, 0x50, 0x71, 0x43, 0x00, 0x07, 0x42, 0x50, 0x81, 0x63, 0x42, 
  0x00, 0x0d, 0x43, 0x50, 0x71, 0x43, 0x00, 0x07, 0x45, 0x50, 0x71, 0x45, 0x00, 0x07, 0x43, 0x50, 
  0x87, 0x0f, 0x43, 0x00, 0x82, 0x21, 0x42, 0x50, 0x71, 0x42, 0x00, 0x07, 0x40, 0x50, 0x71, 0x40, 
  0x00, 0x07, 0x42, 0x50, 0x81, 0x63, 0x42, 0x00, 0x0d, 0x47, 0x50, 0x71, 0x47, 0x00, 0x07, 0x48, 
  0x50, 0x71, 0x48, 0x00, 0x07, 0x47, 0x50, 0x87, 0x0f, 0x47, 0x00, 0x82, 0x21, 0x42, 0x50, 0x71, 
  0x42, 0x00, 0x07, 0x40, 0x50, 0x71, 0x40, 0x00, 0x07, 0x42, 0x50, 0x87, 0x0f, 0x42, 0x00, 0x84, 
  0x11, 0x4c, 0x50, 0x85, 0x2b, 0x4c, 0x00, 0x25, 0x47, 0x50, 0x87, 0x0f, 0x47, 0x00, 0x82, 0x21, 
  0x4a, 0x50, 0x85, 0x2b, 0x4a, 0x00, 0x25, 0x47, 0x50, 0x87, 0x0f, 0x47, 0x00, 0x82, 0x21, 0x4e, 
  0x50, 0x85, 0x2b, 0x4e, 0x00, 0x25, 0x47, 0x50, 0x87, 0x0f, 0x47, 0x00, 0x82, 0x21, 0x4e, 0x50, 
  0x85, 0x2b, 0x4e, 0x00, 0x25, 0x45, 0x50, 0x87, 0x0f, 0x45, 0x00, 0x82, 0x21, 0x47, 0x50, 0x00, 
  0x4f, 0x50, 0x85, 0x2b, 0x47, 0x00, 0x00, 0x4f, 0x00, 0x25, 0x43, 0x50, 0x00, 0x4c, 0x50, 0x87, 
  0x0f, 0x43, 0x00, 0x00, 0x4c, 0x00, 0x82, 0x21, 0x47, 0x50, 0x00, 0x4f, 0x50, 0x85, 0x2b, 0x47, 
  0x00, 0x00, 0x4f, 0x00, 0x25, 0x43, 0x50, 0x00, 0x4a, 0x50, 0x87, 0x0f, 0x43, 0x00, 0x00, 0x4a, 
  0x00, 0x82, 0x21, 0x47, 0x50, 0x00, 0x4e, 0x50, 0x85, 0x2b, 0x47, 0x00, 0x00, 0x4e, 0x00, 0x25, 
  0x42, 0x50, 0x00, 0x4a, 0x50, 0x87, 0x0f, 0x42, 0x00, 0x00, 0x4a, 0x00, 0x82, 0x21, 0x45, 0x50, 
  0x00, 0x4e, 0x50, 0x85, 0x2b, 0x45, 0x00, 0x00, 0x4e, 0x00, 0x25, 0x42, 0x50, 0x00, 0x4a, 0x50, 
  0x87, 0x0f, 0x42, 0x00, 0x00, 0x4a, 0x00, 0x82, 0x21, 0x47, 0x50, 0x82, 0x55, 0x47, 0x00, 0x13, 
  0x4c, 0x50, 0x82, 0x55, 0x4c, 0x00, 0x13, 0x53, 0x50, 0x82, 0x55, 0x53, 0x00, 0x13, 0x4c, 0x50, 
  0x82, 0x55, 0x4c, 0x00, 0x13, 0x47, 0x50, 0x83, 0x47, 0x47, 0x00, 0x19, 0x47, 0x50, 0x82, 0x55, 
  0x47, 0x00, 0x13, 0x4a, 0x50, 0x82, 0x55, 0x4a, 0x00, 0x13, 0x53, 0x50, 0x82, 0x55, 0x53, 0x00, 
  0x13, 0x4a, 0x50, 0x82, 0x55, 0x4a, 0x00, 0x13, 0x47, 0x50, 0x83, 0x47, 0x47, 0x00, 0x19, 0x42, 
  0x50, 0x82, 0x55, 0x42, 0x00, 0x13, 0x47, 0x50, 0x82, 0x55, 0x47, 0x00, 0x13, 0x4e, 0x50, 0x82, 
  0x55, 0x4e, 0x00, 0x13, 0x47, 0x50, 0x82, 0x55, 0x47, 0x00, 0x13, 0x42, 0x50, 0x83, 0x47, 0x42, 
  0x00, 0x19, 0x45, 0x50, 0x82, 0x55, 0x45, 0x00, 0x13, 0x4a, 0x50, 0x82, 0x55, 0x4a, 0x00, 0x13, 
  0x51, 0x50, 0x82, 0x55, 0x51, 0x00, 0x13, 0x4a, 0x50, 0x82, 0x55, 0x4a, 0x00, 0x13, 0x45, 0x50, 
  0x83, 0x47, 0x45, 0x00, 0x19, 0x47, 0x50, 0x82, 0x55, 0x47, 0x00, 0x13, 0x4c, 0x50, 0x82, 0x55, 
  0x4c, 0x00, 0x13, 0x53, 0x50, 0x82, 0x55, 0x53, 0x00, 0x13, 0x4c, 0x50, 0x82, 0x55, 0x4c, 0x00, 
  0x13, 0x47, 0x50, 0x83, 0x47, 0x47, 0x00, 0x19, 0x47, 0x50, 0x82, 0x55, 0x47, 0x00, 0x13, 0x4a, 
  0x50, 0x82, 0x55, 0x4a, 0x00, 0x13, 0x53, 0x50, 0x82, 0x55, 0x53, 0x00, 0x13, 0x4a, 0x50, 0x82, 
  0x55, 0x4a, 0x00, 0x13, 0x47, 0x50, 0x83, 0x47, 0x47, 0x00, 0x19, 0x42, 0x50, 0x82, 0x55, 0x42, 
  0x00, 0x13, 0x47, 0x50, 0x82, 0x55, 0x47, 0x00, 0x13, 0x4e, 0x50, 0x82, 0x55, 0x4e, 0x00, 0x13, 
  0x47, 0x50, 0x82, 0x55, 0x47, 0x00, 0x13, 0x42, 0x50, 0x83, 0x47, 0x42, 0x00, 0x19, 0x45, 0x50, 
  0x82, 0x55, 0x45, 0x00, 0x13, 0x4a, 0x50, 0x82, 0x55, 0x4a, 0x00, 0x13, 0x51, 0x50, 0x82, 0x55, 
  0x51, 0x00, 0x13, 0x4a, 0x50, 0x82, 0x55, 0x4a, 0x00, 0x13, 0x45, 0x50, 0x83, 0x47, 0x45, 0x00, 
  0x82, 0x09, 0x4f, 0x50, 0x71, 0x4f, 0x00, 0x07, 0x4e, 0x50, 0x71, 0x4e, 0x00, 0x07, 0x4f, 0x50, 
  0x81, 0x63, 0x4f, 0x00, 0x0d, 0x53, 0x50, 0x71, 0x53, 0x00, 0x07, 0x54, 0x50, 0x71, 0x54, 0x00, 
  0x07, 0x53, 0x50, 0x87, 0x0f, 0x53, 0x00, 0x82, 0x21, 0x4e, 0x50, 0x71, 0x4e, 0x00, 0x07, 0x4f, 
  0x50, 0x71, 0x4f, 0x00, 0x07, 0x4e, 0x50, 0x81, 0x63, 0x4e, 0x00, 0x0d, 0x4f, 0x50, 0x71, 0x4f, 
  0x00, 0x07, 0x51, 0x50, 0x71, 0x51, 0x00, 0x07, 0x4f, 0x50, 0x87, 0x0f, 0x4f, 0x00, 0x82, 0x21, 
  0x4e, 0x50, 0x71, 0x4e, 0x00, 0x07, 0x4c, 0x50, 0x71, 0x4c, 0x00, 0x07, 0x4e, 0x50, 0x81, 0x63, 
  0x4e, 0x00, 0x0d, 0x53, 0x50, 0x71, 0x53, 0x00, 0x07, 0x54, 0x50, 0x71, 0x54, 0x00, 0x07, 0x53, 
  0x50, 0x87, 0x0f, 0x53, 0x00, 0x82, 0x21, 0x4e, 0x50, 0x71, 0x4e, 0x00, 0x07, 0x4c, 0x50, 0x71, 
  0x4c, 0x00, 0x07, 0x4e, 0x50, 0x87, 0x0f, 0x4e, 0x00, 0x86, 0x01, 0x4f, 0x50, 0x71, 0x4f, 0x00, 
  0x07, 0x4e, 0x50, 0x71, 0x4e, 0x00, 0x07, 0x4f, 0x50, 0x81, 0x63, 0x4f, 0x00, 0x0d, 0x53, 0x50, 
  0x71, 0x53, 0x00, 0x07, 0x54, 0x50, 0x71, 0x54, 0x00, 0x07, 0x53, 0x50, 0x87, 0x0f, 0x53, 0x00, 
  0x82, 0x21, 0x4e, 0x50, 0x71, 0x4e, 0x00, 0x07, 0x4f, 0x50, 0x71, 0x4f, 0x00, 0x07, 0x4e, 0x50, 
  0x81, 0x63, 0x4e, 0x00, 0x0d, 0x4f, 0x50, 0x71, 0x4f, 0x00, 0x07, 0x51, 0x50, 0x71, 0x51, 0x00, 
  0x07, 0x4f, 0x50, 0x87, 0x0f, 0x4f, 0x00, 0x82, 0x21, 0x4e, 0x50, 0x71, 0x4e, 0x00, 0x07, 0x4c, 
  0x50, 0x71, 0x4c, 0x00, 0x07, 0x4e, 0x50, 0x81, 0x63, 0x4e, 0x00, 0x0d, 0x53, 0x50, 0x71, 0x53, 
  0x00, 0x07, 0x54, 0x50, 0x71, 0x54, 0x00, 0x07, 0x53, 0x50, 0x87, 0x0f, 0x53, 0x00, 0x82, 0x21, 
  0x4e, 0x50, 0x71, 0x4e, 0x00, 0x07, 0x4c, 0x50, 0x71, 0x4c, 0x00, 0x07, 0x4e, 0x50, 0x87, 0x0f, 
  0x4e, 0x00, 0x84, 0x11, 0x58, 0x50, 0x85, 0x2b, 0x58, 0x00, 0x25, 0x53, 0x50, 0x87, 0x0f, 0x53, 
  0x00, 0x82, 0x21, 0x56, 0x50, 0x85, 0x2b, 0x56, 0x00, 0x25, 0x53, 0x50, 0x87, 0x0f, 0x53, 0x00, 
  0x82, 0x21, 0x5a, 0x50, 0x85, 0x2b, 0x5a, 0x00, 0x25, 0x53, 0x50, 0x87, 0x0f, 0x53, 0x00, 0x82, 
  0x21, 0x5a, 0x50, 0x85, 0x2b, 0x5a, 0x00, 0x25, 0x51, 0x50, 0x87, 0x0f, 0x51, 0x00, 0x82, 0x21, 
  0x53, 0x50, 0x00, 0x5b, 0x50, 0x85, 0x2b, 0x53, 0x00, 0x00, 0x5b, 0x00, 0x25, 0x4f, 0x50, 0x00, 
  0x58, 0x50, 0x87, 0x0f, 0x4f, 0x00, 0x00, 0x58, 0x00, 0x82, 0x21, 0x53, 0x50, 0x00, 0x5b, 0x50, 
  0x85, 0x2b, 0x53, 0x00, 0x00, 0x5b, 0x00, 0x25, 0x4f, 0x50, 0x00, 0x56, 0x50, 0x87, 0x0f, 0x4f, 
  0x00, 0x00, 0x56, 0x00, 0x82, 0x21, 0x53, 0x50, 0x00, 0x5a, 0x50, 0x85, 0x2b, 0x53, 0x00, 0x00, 
  0x5a, 0x00, 0x25, 0x4e, 0x50, 0x00, 0x56, 0x50, 0x87, 0x0f, 0x4e, 0x00, 0x00, 0x56, 0x00, 0x82, 
  0x21, 0x51, 0x50, 0x00, 0x5a, 0x50, 0x85, 0x2b, 0x51, 0x00, 0x00, 0x5a, 0x00, 0x25, 0x4e, 0x50, 
  0x00, 0x56, 0x50, 0x87, 0x0f, 0x4e, 0x00, 0x00, 0x56, 0x00, 0x82, 0x21, 0x53, 0x50, 0x82, 0x55, 
  0x53, 0x00, 0x13, 0x58, 0x50, 0x82, 0x55, 0x58, 0x00, 0x13, 0x5f, 0x50, 0x82, 0x55, 0x5f, 0x00, 
  0x13, 0x58, 0x50, 0x82, 0x55, 0x58, 0x00, 0x13, 0x53, 0x50, 0x83, 0x47, 0x53, 0x00, 0x19, 0x53, 
  0x50, 0x82, 0x55, 0x53, 0x00, 0x13, 0x56, 0x50, 0x82, 0x55, 0x56, 0x00, 0x13, 0x5f, 0x50, 0x82, 
  0x55, 0x5f, 0x00, 0x13, 0x56, 0x50, 0x82, 0x55, 0x56, 0x00, 0x13, 0x53, 0x50, 0x83, 0x47, 0x53, 
  0x00, 0x19, 0x4e, 0x50, 0x82, 0x55, 0x4e, 0x00, 0x13, 0x53, 0x50, 0x82, 0x55, 0x53, 0x00, 0x13, 
  0x5a, 0x50, 0x82, 0x55, 0x5a, 0x00, 0x13, 0x53, 0x50, 0x82, 0x55, 0x53, 0x00, 0x13, 0x4e, 0x50, 
  0x83, 0x47, 0x4e, 0x00, 0x19, 0x51, 0x50, 0x82, 0x55, 0x51, 0x00, 0x13, 0x56, 0x50, 0x82, 0x55, 
  0x56, 0x00, 0x13, 0x5d, 0x50, 0x82, 0x55, 0x5d, 0x00, 0x13, 0x56, 0x50, 0x82, 0x55, 0x56, 0x00, 
  0x13, 0x51, 0x50, 0x83, 0x47, 0x51, 0x00, 0x19, 0x53, 0x50, 0x82, 0x55, 0x53, 0x00, 0x13, 0x58, 
  0x50, 0x82, 0x55, 0x58, 0x00, 0x13, 0x5f, 0x50, 0x82, 0x55, 0x5f, 0x00, 0x13, 0x58, 0x50, 0x82, 
  0x55, 0x58, 0x00, 0x13, 0x53, 0x50, 0x83, 0x47, 0x53, 0x00, 0x19, 0x53, 0x50, 0x82, 0x55, 0x53, 
  0x00, 0x13, 0x56, 0x50, 0x82, 0x55, 0x56, 0x00, 0x13, 0x5f, 0x50, 0x82, 0x55, 0x5f, 0x00, 0x13, 
  0x56, 0x50, 0x82, 0x55, 0x56, 0x00, 0x13, 0x53, 0x50, 0x83, 0x47, 0x53, 0x00, 0x19, 0x4e, 0x50, 
  0x82, 0x55, 0x4e, 0x00, 0x13, 0x53, 0x50, 0x82, 0x55, 0x53, 0x00, 0x13, 0x5a, 0x50, 0x82, 0x55, 
  0x5a, 0x00, 0x13, 0x53, 0x50, 0x82, 0x55, 0x53, 0x00, 0x13, 0x4e, 0x50, 0x83, 0x47, 0x4e, 0x00, 
  0x19, 0x51, 0x50, 0x82, 0x55, 0x51, 0x00, 0x13, 0x56, 0x50, 0x82, 0x55, 0x56, 0x00, 0x13, 0x5d, 
  0x50, 0x82, 0x55, 0x5d, 0x00, 0x13, 0x56, 0x50, 0x82, 0x55, 0x56, 0x00, 0x13, 0x51, 0x50, 0x83, 
  0x47, 0x51, 0x00, 0x19, 0x4c, 0x50, 0x00, 0x4f, 0x50, 0x00, 0x53, 0x50, 0x00, 0x58, 0x50, 0x8e, 
  0x1f, 0x4c, 0x00, 0x00, 0x4f, 0x00, 0x00, 0x53, 0x00, 0x00, 0x58, 0x00, 0x01, 0xff, 0x2f, 0x00, 
  0x4d, 0x54, 0x72, 0x6b, 0x00, 0x00, 0x0e, 0x46, 0x00, 0xff, 0x59, 0x02, 0x01, 0x00, 0x00, 0xff, 
  0x59, 0x02, 0x00, 0x00, 0x00, 0xff, 0x59, 0x02, 0x00, 0x00, 0x00, 0xff, 0x59, 0x02, 0x00, 0x00, 
  0x00, 0xff, 0x59, 0x02, 0x00, 0x00, 0x00, 0xff, 0x21, 0x01, 0x00, 0x00, 0x90, 0x34, 0x50, 0x02, 
  0xb0, 0x40, 0x7f, 0x81, 0x61, 0x90, 0x34, 0x00, 0x0d, 0x3b, 0x50, 0x81, 0x63, 0x3b, 0x00, 0x0d, 
  0x37, 0x50, 0x81, 0x63, 0x37, 0x00, 0x0d, 0x3b, 0x50, 0x81, 0x63, 0x3b, 0x00, 0x0d, 0x34, 0x50, 
  0x81, 0x63, 0x34, 0x00, 0x0d, 0x3b, 0x50, 0x81, 0x63, 0x3b, 0x00, 0x0d, 0x37, 0x50, 0x81, 0x63, 
  0x37, 0x00, 0x0d, 0x3b, 0x50, 0x81, 0x63, 0x3b, 0x00, 0x0d, 0x32, 0x50, 0x01, 0xb0, 0x40, 0x00, 
  0x01, 0x40, 0x7f, 0x81, 0x61, 0x90, 0x32, 0x00, 0x0d, 0x3b, 0x50, 0x81, 0x63, 0x3b, 0x00, 0x0d, 
  0x37, 0x50, 0x81, 0x63, 0x37, 0x00, 0x0d, 0x3b, 0x50, 0x81, 0x63, 0x3b, 0x00, 0x0d, 0x32, 0x50, 
  0x81, 0x63, 0x32, 0x00, 0x0d, 0x3b, 0x50, 0x81, 0x63, 0x3b, 0x00, 0x0d, 0x37, 0x50, 0x81, 0x63, 
  0x37, 0x00, 0x0d, 0x3b, 0x50, 0x81, 0x63, 0x3b, 0x00, 0x0d, 0x32, 0x50, 0x01, 0xb0, 0x40, 0x00, 
  0x01, 0x40, 0x7f, 0x81, 0x61, 0x90, 0x32, 0x00, 0x0d, 0x3b, 0x50, 0x81, 0x63, 0x3b, 0x00, 0x0d, 
  0x36, 0x50, 0x81, 0x63, 0x36, 0x00, 0x0d, 0x3b, 0x50, 0x81, 0x63, 0x3b, 0x00, 0x0d, 0x32, 0x50, 
  0x81, 0x63, 0x32, 0x00, 0x0d, 0x3b, 0x50, 0x81, 0x63, 0x3b, 0x00, 0x0d, 0x36, 0x50, 0x81, 0x63, 
  0x36, 0x00, 0x0d, 0x3b, 0x50, 0x81, 0x63, 0x3b, 0x00, 0x0d, 0x32, 0x50, 0x01, 0xb0, 0x40, 0x00, 
  0x01, 0x40, 0x7f, 0x81, 0x61, 0x90, 0x32, 0x00, 0x0d, 0x39, 0x50, 0x81, 0x63, 0x39, 0x00, 0x0d, 
  0x36, 0x50, 0x81, 0x63, 0x36, 0x00, 0x0d, 0x39, 0x50, 0x81, 0x63, 0x39, 0x00, 0x0d, 0x32, 0x50, 
  0x81, 0x63, 0x32, 0x00, 0x0d, 0x39, 0x50, 0x81, 0x63, 0x39, 0x00, 0x0d, 0x36, 0x50, 0x81, 0x63, 
  0x36, 0x00, 0x0d, 0x39, 0x50, 0x81, 0x63, 0x39, 0x00, 0x0d, 0x34, 0x50, 0x01, 0xb0, 0x40, 0x00, 
  0x01, 0x40, 0x7f, 0x81, 0x61, 0x90, 0x34, 0x00, 0x0d, 0x3b, 0x50, 0x81, 0x63, 0x3b, 0x00, 0x0d, 
  0x37, 0x50, 0x81, 0x63, 0x37, 0x00, 0x0d, 0x3b, 0x50, 0x81, 0x63, 0x3b, 0x00, 0x0d, 0x34, 0x50, 
  0x81, 0x63, 0x34, 0x00, 0x0d, 0x3b, 0x50, 0x81, 0x63, 0x3b, 0x00, 0x0d, 0x37, 0x50, 0x81, 0x63, 
  0x37, 0x00, 0x0d, 0x3b, 0x50, 0x81, 0x63, 0x3b, 0x00, 0x0d, 0x32, 0x50, 0x01, 0xb0, 0x40, 0x00, 
  0x01, 0x40, 0x7f, 0x81, 0x61, 0x90, 0x32, 0x00, 0x0d, 0x3b, 0x50, 0x81, 0x63, 0x3b, 0x00, 0x0d, 
  0x37, 0x50, 0x81, 0x63, 0x37, 0x00, 0x0d, 0x3b, 0x50, 0x81, 0x63, 0x3b, 0x00, 0x0d, 0x32, 0x50, 
  0x81, 0x63, 0x32, 0x00, 0x0d, 0x3b, 0x50, 0x81, 0x63, 0x3b, 0x00, 0x0d, 0x37, 0x50, 0x81, 0x63, 
  0x37, 0x00, 0x0d, 0x3b, 0x50, 0x81, 0x63, 0x3b, 0x00, 0x0d, 0x32, 0x50, 0x01, 0xb0, 0x40, 0x00, 
  0x01, 0x40, 0x7f, 0x81, 0x61, 0x90, 0x32, 0x00, 0x0d, 0x3b, 0x50, 0x81, 0x63, 0x3b, 0x00, 0x0d, 
  0x36, 0x50, 0x81, 0x63, 0x36, 0x00, 0x0d, 0x3b, 0x50, 0x81, 0x63, 0x3b, 0x00, 0x0d, 0x32, 0x50, 
  0x81, 0x63, 0x32, 0x00, 0x0d, 0x3b, 0x50, 0x81, 0x63, 0x3b, 0x00, 0x0d, 0x36, 0x50, 0x81, 0x63, 
  0x36, 0x00, 0x0d, 0x3b, 0x50, 0x81, 0x63, 0x3b, 0x00, 0x0d, 0x32, 0x50, 0x01, 0xb0, 0x40, 0x00, 
  0x00, 0x40, 0x00, 0x01, 0x40, 0x7f, 0x00, 0x40, 0x7f, 0x81, 0x61, 0x90, 0x32, 0x00, 0x0d, 0x39, 
  0x50, 0x81, 0x63, 0x39, 0x00, 0x0d, 0x36, 0x50, 0x81, 0x63, 0x36, 0x00, 0x0d, 0x39, 0x50, 0x81, 
  0x63, 0x39, 0x00, 0x0d, 0x32, 0x50, 0x81, 0x63, 0x32, 0x00, 0x0d, 0x39, 0x50, 0x81, 0x63, 0x39, 
  0x00, 0x0d, 0x36, 0x50, 0x81, 0x63, 0x36, 0x00, 0x0d, 0x39, 0x50, 0x81, 0x63, 0x39, 0x00, 0x0d, 
  0x34, 0x50, 0x01, 0xb0, 0x40, 0x00, 0x00, 0x40, 0x00, 0x01, 0x40, 0x7f, 0x81, 0x61, 0x90, 0x34, 
  0x00, 0x0d, 0x3b, 0x50, 0x81, 0x63, 0x3b, 0x00, 0x0d, 0x37, 0x50, 0x81, 0x63, 0x37, 0x00, 0x0d, 
  0x3b, 0x50, 0x81, 0x63, 0x3b, 0x00, 0x0d, 0x34, 0x50, 0x81, 0x63, 0x34, 0x00, 0x0d, 0x3b, 0x50, 
  0x81, 0x63, 0x3b, 0x00, 0x0d, 0x37, 0x50, 0x81, 0x63, 0x37, 0x00, 0x0d, 0x3b, 0x50, 0x81, 0x63, 
  0x3b, 0x00, 0x0d, 0x32, 0x50, 0x01, 0xb0, 0x40, 0x00, 0x01, 0x40, 0x7f, 0x81, 0x61, 0x90, 0x32, 
  0x00, 0x0d, 0x3b, 0x50, 0x81, 0x63, 0x3b, 0x00, 0x0d, 0x37, 0x50, 0x81, 0x63, 0x37, 0x00, 0x0d, 
  0x3b, 0x50, 0x81, 0x63, 0x3b, 0x00, 0x0d, 0x32, 0x50, 0x81, 0x63, 0x32, 0x00, 0x0d, 0x3b, 0x50, 
  0x81, 0x63, 0x3b, 0x00, 0x0d, 0x37, 0x50, 0x81, 0x63, 0x37, 0x00, 0x0d, 0x3b, 0x50, 0x81, 0x63, 
  0x3b, 0x00, 0x0d, 0x32, 0x50, 0x01, 0xb0, 0x40, 0x00, 0x01, 0x40, 0x7f, 0x81, 0x61, 0x90, 0x32, 
  0x00, 0x0d, 0x3b, 0x50, 0x81, 0x63, 0x3b, 0x00, 0x0d, 0x36, 0x50, 0x81, 0x63, 0x36, 0x00, 0x0d, 
  0x3b, 0x50, 0x81, 0x63, 0x3b, 0x00, 0x0d, 0x32, 0x50, 0x81, 0x63, 0x32, 0x00, 0x0d, 0x3b, 0x50, 
  0x81, 0x63, 0x3b, 0x00, 0x0d, 0x36, 0x50, 0x81, 0x63, 0x36, 0x00, 0x0d, 0x3b, 0x50, 0x81, 0x63, 
  0x3b, 0x00, 0x0d, 0x32, 0x50, 0x01, 0xb0, 0x40, 0x00, 0x00, 0x40, 0x00, 0x01, 0x40, 0x7f, 0x00, 
  0x40, 0x7f, 0x81, 0x61, 0x90, 0x32, 0x00, 0x0d, 0x39, 0x50, 0x81, 0x63, 0x39, 0x00, 0x0d, 0x36, 
  0x50, 0x81, 0x63, 0x36, 0x00, 0x0d, 0x39, 0x50, 0x81, 0x63, 0x39, 0x00, 0x0d, 0x32, 0x50, 0x81, 
  0x63, 0x32, 0x00, 0x0d, 0x39, 0x50, 0x81, 0x63, 0x39, 0x00, 0x0d, 0x36, 0x50, 0x81, 0x63, 0x36, 
  0x00, 0x0d, 0x39, 0x50, 0x81, 0x63, 0x39, 0x00, 0x0d, 0x34, 0x50, 0x01, 0xb0, 0x40, 0x00, 0x01, 
  0x40, 0x7f, 0x81, 0x61, 0x90, 0x34, 0x00, 0x0d, 0x3b, 0x50, 0x81, 0x63, 0x3b, 0x00, 0x0d, 0x37, 
  0x50, 0x81, 0x63, 0x37, 0x00, 0x0d, 0x3b, 0x50, 0x81, 0x63, 0x3b, 0x00, 0x0d, 0x34, 0x50, 0x81, 
  0x63, 0x34, 0x00, 0x0d, 0x3b, 0x50, 0x81, 0x63, 0x3b, 0x00, 0x0d, 0x37, 0x50, 0x81, 0x63, 0x37, 
  0x00, 0x0d, 0x3b, 0x50, 0x81, 0x63, 0x3b, 0x00, 0x0d, 0x32, 0x50, 0x01, 0xb0, 0x40, 0x00, 0x01, 
  0x40, 0x7f, 0x81, 0x61, 0x90, 0x32, 0x00, 0x0d, 0x3b, 0x50, 0x81, 0x63, 0x3b, 0x00, 0x0d, 0x37, 
  0x50, 0x81, 0x63, 0x37, 0x00, 0x0d, 0x3b, 0x50, 0x81, 0x63, 0x3b, 0x00, 0x0d, 0x32, 0x50, 0x81, 
  0x63, 0x32, 0x00, 0x0d, 0x3b, 0x50, 0x81, 0x63, 0x3b, 0x00, 0x0d, 0x37, 0x50, 0x81, 0x63, 0x37, 
  0x00, 0x0d, 0x3b, 0x50, 0x81, 0x63, 0x3b, 0x00, 0x0d, 0x32, 0x50, 0x01, 0xb0, 0x40, 0x00, 0x01, 
  0x40, 0x7f, 0x81, 0x61, 0x90, 0x32, 0x00, 0x0d, 0x3b, 0x50, 0x81, 0x63, 0x3b, 0x00, 0x0d, 0x36, 
  0x50, 0x81, 0x63, 0x36, 0x00, 0x0d, 0x3b, 0x50, 0x81, 0x63, 0x3b, 0x00, 0x0d, 0x32, 0x50, 0x81, 
  0x63, 0x32, 0x00, 0x0d, 0x3b, 0x50, 0x81, 0x63, 0x3b, 0x00, 0x0d, 0x36, 0x50, 0x81, 0x63, 0x36, 
  0x00, 0x0d, 0x3b, 0x50, 0x81, 0x63, 0x3b, 0x00, 0x0d, 0x32, 0x50, 0x01, 0xb0, 0x40, 0x00, 0x01, 
  0x40, 0x7f, 0x81, 0x61, 0x90, 0x32, 0x00, 0x0d, 0x39, 0x50, 0x81, 0x63, 0x39, 0x00, 0x0d, 0x36, 
  0x50, 0x81, 0x63, 0x36, 0x00, 0x0d, 0x39, 0x50, 0x81, 0x63, 0x39, 0x00, 0x0d, 0x32, 0x50, 0x81, 
  0x63, 0x32, 0x00, 0x0d, 0x39, 0x50, 0x81, 0x63, 0x39, 0x00, 0x0d, 0x36, 0x50, 0x81, 0x63, 0x36, 
  0x00, 0x0d, 0x39, 0x50, 0x81, 0x63, 0x39, 0x00, 0x0d, 0x34, 0x50, 0x01, 0xb0, 0x40, 0x00, 0x00, 
  0x40, 0x00, 0x01, 0x40, 0x7f, 0x00, 0x40, 0x7f, 0x81, 0x61, 0x90, 0x34, 0x00, 0x0d, 0x3b, 0x50, 
  0x81, 0x63, 0x3b, 0x00, 0x0d, 0x37, 0x50, 0x81, 0x63, 0x37, 0x00, 0x0d, 0x3b, 0x50, 0x81, 0x63, 
  0x3b, 0x00, 0x0d, 0x34, 0x50, 0x81, 0x63, 0x34, 0x00, 0x0d, 0x3b, 0x50, 0x81, 0x63, 0x3b, 0x00, 
  0x0d, 0x37, 0x50, 0x81, 0x63, 0x37, 0x00, 0x0d, 0x3b, 0x50, 0x81, 0x63, 0x3b, 0x00, 0x0d, 0x32, 
  0x50, 0x01, 0xb0, 0x40, 0x00, 0x00, 0x40, 0x00, 0x01, 0x40, 0x7f, 0x00, 0x40, 0x7f, 0x81, 0x61, 
  0x90, 0x32, 0x00, 0x0d, 0x3b, 0x50, 0x81, 0x63, 0x3b, 0x00, 0x0d, 0x37, 0x50, 0x81, 0x63, 0x37, 
  0x00, 0x0d, 0x3b, 0x50, 0x81, 0x63, 0x3b, 0x00, 0x0d, 0x32, 0x50, 0x81, 0x63, 0x32, 0x00, 0x0d, 
  0x3b, 0x50, 0x81, 0x63, 0x3b, 0x00, 0x0d, 0x37, 0x50, 0x81, 0x63, 0x37, 0x00, 0x0d, 0x3b, 0x50, 
  0x81, 0x63, 0x3b, 0x00, 0x0d, 0x32, 0x50, 0x01, 0xb0, 0x40, 0x00, 0x00, 0x40, 0x00, 0x01, 0x40, 
  0x7f, 0x00, 0x40, 0x7f, 0x81, 0x61, 0x90, 0x32, 0x00, 0x0d, 0x3b, 0x50, 0x81, 0x63, 0x3b, 0x00, 
  0x0d, 0x36, 0x50, 0x81, 0x63, 0x36, 0x00, 0x0d, 0x3b, 0x50, 0x81, 0x63, 0x3b, 0x00, 0x0d, 0x32, 
  0x50, 0x81, 0x63, 0x32, 0x00, 0x0d, 0x3b, 0x50, 0x81, 0x63, 0x3b, 0x00, 0x0d, 0x36, 0x50, 0x81, 
  0x63, 0x36, 0x00, 0x0d, 0x3b, 0x50, 0x81, 0x63, 0x3b, 0x00, 0x0d, 0x32, 0x50, 0x01, 0xb0, 0x40, 
  0x00, 0x00, 0x40, 0x00, 0x01, 0x40, 0x7f, 0x00, 0x40, 0x7f, 0x81, 0x61, 0x90, 0x32, 0x00, 0x0d, 
  0x39, 0x50, 0x81, 0x63, 0x39, 0x00, 0x0d, 0x36, 0x50, 0x81, 0x63, 0x36, 0x00, 0x0d, 0x39, 0x50, 
  0x81, 0x63, 0x39, 0x00, 0x0d, 0x32, 0x50, 0x81, 0x63, 0x32, 0x00, 0x0d, 0x39, 0x50, 0x81, 0x63, 
  0x39, 0x00, 0x0d, 0x36, 0x50, 0x81, 0x63, 0x36, 0x00, 0x0d, 0x39, 0x50, 0x81, 0x63, 0x39, 0x00, 
  0x0d, 0x34, 0x50, 0x01, 0xb0, 0x40, 0x00, 0x00, 0x40, 0x00, 0x01, 0x40, 0x7f, 0x00, 0x40, 0x7f, 
  0x81, 0x61, 0x90, 0x34, 0x00, 0x0d, 0x3b, 0x50, 0x81, 0x63, 0x3b, 0x00, 0x0d, 0x37, 0x50, 0x81, 
  0x63, 0x37, 0x00, 0x0d, 0x3b, 0x50, 0x81, 0x63, 0x3b, 0x00, 0x0d, 0x34, 0x50, 0x81, 0x63, 0x34, 
  0x00, 0x0d, 0x3b, 0x50, 0x81, 0x63, 0x3b, 0x00, 0x0d, 0x37, 0x50, 0x81, 0x63, 0x37, 0x00, 0x0d, 
  0x3b, 0x50, 0x81, 0x63, 0x3b, 0x00, 0x0d, 0x32, 0x50, 0x01, 0xb0, 0x40, 0x00, 0x00, 0x40, 0x00, 
  0x01, 0x40, 0x7f, 0x00, 0x40, 0x7f, 0x81, 0x61, 0x90, 0x32, 0x00, 0x0d, 0x3b, 0x50, 0x81, 0x63, 
  0x3b, 0x00, 0x0d, 0x37, 0x50, 0x81, 0x63, 0x37, 0x00, 0x0d, 0x3b, 0x50, 0x81, 0x63, 0x3b, 0x00, 
  0x0d, 0x32, 0x50, 0x81, 0x63, 0x32, 0x00, 0x0d, 0x3b, 0x50, 0x81, 0x63, 0x3b, 0x00, 0x0d, 0x37, 
  0x50, 0x81, 0x63, 0x37, 0x00, 0x0d, 0x3b, 0x50, 0x81, 0x63, 0x3b, 0x00, 0x0d, 0x32, 0x50, 0x01, 
  0xb0, 0x40, 0x00, 0x00, 0x40, 0x00, 0x01, 0x40, 0x7f, 0x00, 0x40, 0x7f, 0x81, 0x61, 0x90, 0x32, 
  0x00, 0x0d, 0x3b, 0x50, 0x81, 0x63, 0x3b, 0x00, 0x0d, 0x36, 0x50, 0x81, 0x63, 0x36, 0x00, 0x0d, 
  0x3b, 0x50, 0x81, 0x63, 0x3b, 0x00, 0x0d, 0x32, 0x50, 0x81, 0x63, 0x32, 0x00, 0x0d, 0x3b, 0x50, 
  0x81, 0x63, 0x3b, 0x00, 0x0d, 0x36, 0x50, 0x81, 0x63, 0x36, 0x00, 0x0d, 0x3b, 0x50, 0x81, 0x63, 
  0x3b, 0x00, 0x0d, 0x32, 0x50, 0x01, 0xb0, 0x40, 0x00, 0x00, 0x40, 0x00, 0x01, 0x40, 0x7f, 0x00, 
  0x40, 0x7f, 0x81, 0x61, 0x90, 0x32, 0x00, 0x0d, 0x39, 0x50, 0x81, 0x63, 0x39, 0x00, 0x0d, 0x36, 
  0x50, 0x81, 0x63, 0x36, 0x00, 0x0d, 0x39, 0x50, 0x81, 0x63, 0x39, 0x00, 0x0d, 0x32, 0x50, 0x81, 
  0x63, 0x32, 0x00, 0x0d, 0x39, 0x50, 0x81, 0x63, 0x39, 0x00, 0x0d, 0x36, 0x50, 0x81, 0x63, 0x36, 
  0x00, 0x0d, 0x39, 0x50, 0x81, 0x63, 0x39, 0x00, 0x0d, 0x34, 0x50, 0x01, 0xb0, 0x40, 0x00, 0x00, 
  0x40, 0x00, 0x00, 0x40, 0x00, 0x00, 0x40, 0x00, 0x01, 0x40, 0x7f, 0x00, 0x40, 0x7f, 0x81, 0x61, 
  0x90, 0x34, 0x00, 0x0d, 0x3b, 0x50, 0x81, 0x63, 0x3b, 0x00, 0x0d, 0x37, 0x50, 0x81, 0x63, 0x37, 
  0x00, 0x0d, 0x3b, 0x50, 0x81, 0x63, 0x3b, 0x00, 0x0d, 0x34, 0x50, 0x81, 0x63, 0x34, 0x00, 0x0d, 
  0x3b, 0x50, 0x81, 0x63, 0x3b, 0x00, 0x0d, 0x37, 0x50, 0x81, 0x63, 0x37, 0x00, 0x0d, 0x3b, 0x50, 
  0x81, 0x63, 0x3b, 0x00, 0x0d, 0x32, 0x50, 0x01, 0xb0, 0x40, 0x00, 0x00, 0x40, 0x00, 0x01, 0x40, 
  0x7f, 0x00, 0x40, 0x7f, 0x81, 0x61, 0x90, 0x32, 0x00, 0x0d, 0x3b, 0x50, 0x81, 0x63, 0x3b, 0x00, 
  0x0d, 0x37, 0x50, 0x81, 0x63, 0x37, 0x00, 0x0d, 0x3b, 0x50, 0x81, 0x63, 0x3b, 0x00, 0x0d, 0x32, 
  0x50, 0x81, 0x63, 0x32, 0x00, 0x0d, 0x3b, 0x50, 0x81, 0x63, 0x3b, 0x00, 0x0d, 0x37, 0x50, 0x81, 
  0x63, 0x37, 0x00, 0x0d, 0x3b, 0x50, 0x81, 0x63, 0x3b, 0x00, 0x0d, 0x32, 0x50, 0x01, 0xb0, 0x40, 
  0x00, 0x00, 0x40, 0x00, 0x01, 0x40, 0x7f, 0x00, 0x40, 0x7f, 0x81, 0x61, 0x90, 0x32, 0x00, 0x0d, 
  0x3b, 0x50, 0x81, 0x63, 0x3b, 0x00, 0x0d, 0x36, 0x50, 0x81, 0x63, 0x36, 0x00, 0x0d, 0x3b, 0x50, 
  0x81, 0x63, 0x3b, 0x00, 0x0d, 0x32, 0x50, 0x81, 0x63, 0x32, 0x00, 0x0d, 0x3b, 0x50, 0x81, 0x63, 
  0x3b, 0x00, 0x0d, 0x36, 0x50, 0x81, 0x63, 0x36, 0x00, 0x0d, 0x3b, 0x50, 0x81, 0x63, 0x3b, 0x00, 
  0x0d, 0x32, 0x50, 0x01, 0xb0, 0x40, 0x00, 0x00, 0x40, 0x00, 0x01, 0x40, 0x7f, 0x00, 0x40, 0x7f, 
  0x81, 0x61, 0x90, 0x32, 0x00, 0x0d, 0x39, 0x50, 0x81, 0x63, 0x39, 0x00, 0x0d, 0x36, 0x50, 0x81, 
  0x63, 0x36, 0x00, 0x0d, 0x39, 0x50, 0x81, 0x63, 0x39, 0x00, 0x0d, 0x32, 0x50, 0x81, 0x63, 0x32, 
  0x00, 0x0d, 0x39, 0x50, 0x81, 0x63, 0x39, 0x00, 0x0d, 0x36, 0x50, 0x81, 0x63, 0x36, 0x00, 0x0d, 
  0x39, 0x50, 0x81, 0x63, 0x39, 0x00, 0x0d, 0x34, 0x50, 0x01, 0xb0, 0x40, 0x00, 0x00, 0x40, 0x00, 
  0x01, 0x40, 0x7f, 0x00, 0x40, 0x7f, 0x81, 0x61, 0x90, 0x34, 0x00, 0x0d, 0x3b, 0x50, 0x81, 0x63, 
  0x3b, 0x00, 0x0d, 0x37, 0x50, 0x81, 0x63, 0x37, 0x00, 0x0d, 0x3b, 0x50, 0x81, 0x63, 0x3b, 0x00, 
  0x0d, 0x34, 0x50, 0x81, 0x63, 0x34, 0x00, 0x0d, 0x3b, 0x50, 0x81, 0x63, 0x3b, 0x00, 0x0d, 0x37, 
  0x50, 0x81, 0x63, 0x37, 0x00, 0x0d, 0x3b, 0x50, 0x81, 0x63, 0x3b, 0x00, 0x0d, 0x32, 0x50, 0x01, 
  0xb0, 0x40, 0x00, 0x00, 0x40, 0x00, 0x01, 0x40, 0x7f, 0x00, 0x40, 0x7f, 0x81, 0x61, 0x90, 0x32, 
  0x00, 0x0d, 0x3b, 0x50, 0x81, 0x63, 0x3b, 0x00, 0x0d, 0x37, 0x50, 0x81, 0x63, 0x37, 0x00, 0x0d, 
  0x3b, 0x50, 0x81, 0x63, 0x3b, 0x00, 0x0d, 0x32, 0x50, 0x81, 0x63, 0x32, 0x00, 0x0d, 0x3b, 0x50, 
  0x81, 0x63, 0x3b, 0x00, 0x0d, 0x37, 0x50, 0x81, 0x63, 0x37, 0x00, 0x0d, 0x3b, 0x50, 0x81, 0x63, 
  0x3b, 0x00, 0x0d, 0x32, 0x50, 0x01, 0xb0, 0x40, 0x00, 0x00, 0x40, 0x00, 0x01, 0x40, 0x7f, 0x00, 
  0x40, 0x7f, 0x81, 0x61, 0x90, 0x32, 0x00, 0x0d, 0x3b, 0x50, 0x81, 0x63, 0x3b, 0x00, 0x0d, 0x36, 
  0x50, 0x81, 0x63, 0x36, 0x00, 0x0d, 0x3b, 0x50, 0x81, 0x63, 0x3b, 0x00, 0x0d, 0x32, 0x50, 0x81, 
  0x63, 0x32, 0x00, 0x0d, 0x3b, 0x50, 0x81, 0x63, 0x3b, 0x00, 0x0d, 0x36, 0x50, 0x81, 0x63, 0x36, 
  0x00, 0x0d, 0x3b, 0x50, 0x81, 0x63, 0x3b, 0x00, 0x0d, 0x32, 0x50, 0x01, 0xb0, 0x40, 0x00, 0x00, 
  0x40, 0x00, 0x01, 0x40, 0x7f, 0x00, 0x40, 0x7f, 0x81, 0x61, 0x90, 0x32, 0x00, 0x0d, 0x39, 0x50, 
  0x81, 0x63, 0x39, 0x00, 0x0d, 0x36, 0x50, 0x81, 0x63, 0x36, 0x00, 0x0d, 0x39, 0x50, 0x81, 0x63, 
  0x39, 0x00, 0x0d, 0x32, 0x50, 0x81, 0x63, 0x32, 0x00, 0x0d, 0x39, 0x50, 0x81, 0x63, 0x39, 0x00, 
  0x0d, 0x36, 0x50, 0x81, 0x63, 0x36, 0x00, 0x0d, 0x39, 0x50, 0x81, 0x63, 0x39, 0x00, 0x0d, 0x34, 
  0x50, 0x01, 0xb0, 0x40, 0x00, 0x00, 0x40, 0x00, 0x00, 0x40, 0x00, 0x00, 0x40, 0x00, 0x01, 0x40, 
  0x7f, 0x00, 0x40, 0x7f, 0x81, 0x61, 0x90, 0x34, 0x00, 0x0d, 0x3b, 0x50, 0x81, 0x63, 0x3b, 0x00, 
  0x0d, 0x37, 0x50, 0x81, 0x63, 0x37, 0x00, 0x0d, 0x3b, 0x50, 0x81, 0x63, 0x3b, 0x00, 0x0d, 0x34, 
  0x50, 0x81, 0x63, 0x34, 0x00, 0x0d, 0x3b, 0x50, 0x81, 0x63, 0x3b, 0x00, 0x0d, 0x37, 0x50, 0x81, 
  0x63, 0x37, 0x00, 0x0d, 0x3b, 0x50, 0x81, 0x63, 0x3b, 0x00, 0x0d, 0x32, 0x50, 0x01, 0xb0, 0x40, 
  0x00, 0x00, 0x40, 0x00, 0x01, 0x40, 0x7f, 0x00, 0x40, 0x7f, 0x81, 0x61, 0x90, 0x32, 0x00, 0x0d, 
  0x3b, 0x50, 0x81, 0x63, 0x3b, 0x00, 0x0d, 0x37, 0x50, 0x81, 0x63, 0x37, 0x00, 0x0d, 0x3b, 0x50, 
  0x81, 0x63, 0x3b, 0x00, 0x0d, 0x32, 0x50, 0x81, 0x63, 0x32, 0x00, 0x0d, 0x3b, 0x50, 0x81, 0x63, 
  0x3b, 0x00, 0x0d, 0x37, 0x50, 0x81, 0x63, 0x37, 0x00, 0x0d, 0x3b, 0x50, 0x81, 0x63, 0x3b, 0x00, 
  0x0d, 0x32, 0x50, 0x01, 0xb0, 0x40, 0x00, 0x00, 0x40, 0x00, 0x01, 0x40, 0x7f, 0x00, 0x40, 0x7f, 
  0x81, 0x61, 0x90, 0x32, 0x00, 0x0d, 0x3b, 0x50, 0x81, 0x63, 0x3b, 0x00, 0x0d, 0x36, 0x50, 0x81, 
  0x63, 0x36, 0x00, 0x0d, 0x3b, 0x50, 0x81, 0x63, 0x3b, 0x00, 0x0d, 0x32, 0x50, 0x81, 0x63, 0x32, 
  0x00, 0x0d, 0x3b, 0x50, 0x81, 0x63, 0x3b, 0x00, 0x0d, 0x36, 0x50, 0x81, 0x63, 0x36, 0x00, 0x0d, 
  0x3b, 0x50, 0x81, 0x63, 0x3b, 0x00, 0x0d, 0x32, 0x50, 0x01, 0xb0, 0x40, 0x00, 0x00, 0x40, 0x00, 
  0x01, 0x40, 0x7f, 0x00, 0x40, 0x7f, 0x81, 0x61, 0x90, 0x32, 0x00, 0x0d, 0x39, 0x50, 0x81, 0x63, 
  0x39, 0x00, 0x0d, 0x36, 0x50, 0x81, 0x63, 0x36, 0x00, 0x0d, 0x39, 0x50, 0x81, 0x63, 0x39, 0x00, 
  0x0d, 0x32, 0x50, 0x81, 0x63, 0x32, 0x00, 0x0d, 0x39, 0x50, 0x81, 0x63, 0x39, 0x00, 0x0d, 0x36, 
  0x50, 0x81, 0x63, 0x36, 0x00, 0x0d, 0x39, 0x50, 0x81, 0x63, 0x39, 0x00, 0x0d, 0x34, 0x50, 0x01, 
  0xb0, 0x40, 0x00, 0x00, 0x40, 0x00, 0x01, 0x40, 0x7f, 0x00, 0x40, 0x7f, 0x81, 0x61, 0x90, 0x34, 
  0x00, 0x0d, 0x3b, 0x50, 0x81, 0x63, 0x3b, 0x00, 0x0d, 0x37, 0x50, 0x81, 0x63, 0x37, 0x00, 0x0d, 
  0x3b, 0x50, 0x81, 0x63, 0x3b, 0x00, 0x0d, 0x34, 0x50, 0x81, 0x63, 0x34, 0x00, 0x0d, 0x3b, 0x50, 
  0x81, 0x63, 0x3b, 0x00, 0x0d, 0x37, 0x50, 0x81, 0x63, 0x37, 0x00, 0x0d, 0x3b, 0x50, 0x81, 0x63, 
  0x3b, 0x00, 0x0d, 0x32, 0x50, 0x01, 0xb0, 0x40, 0x00, 0x00, 0x40, 0x00, 0x01, 0x40, 0x7f, 0x00, 
  0x40, 0x7f, 0x81, 0x61, 0x90, 0x32, 0x00, 0x0d, 0x3b, 0x50, 0x81, 0x63, 0x3b, 0x00, 0x0d, 0x37, 
  0x50, 0x81, 0x63, 0x37, 0x00, 0x0d, 0x3b, 0x50, 0x81, 0x63, 0x3b, 0x00, 0x0d, 0x32, 0x50, 0x81, 
  0x63, 0x32, 0x00, 0x0d, 0x3b, 0x50, 0x81, 0x63, 0x3b, 0x00, 0x0d, 0x37, 0x50, 0x81, 0x63, 0x37, 
  0x00, 0x0d, 0x3b, 0x50, 0x81, 0x63, 0x3b, 0x00, 0x0d, 0x32, 0x50, 0x01, 0xb0, 0x40, 0x00, 0x00, 
  0x40, 0x00, 0x01, 0x40, 0x7f, 0x00, 0x40, 0x7f, 0x81, 0x61, 0x90, 0x32, 0x00, 0x0d, 0x3b, 0x50, 
  0x81, 0x63, 0x3b, 0x00, 0x0d, 0x36, 0x50, 0x81, 0x63, 0x36, 0x00, 0x0d, 0x3b, 0x50, 0x81, 0x63, 
  0x3b, 0x00, 0x0d, 0x32, 0x50, 0x81, 0x63, 0x32, 0x00, 0x0d, 0x3b, 0x50, 0x81, 0x63, 0x3b, 0x00, 
  0x0d, 0x36, 0x50, 0x81, 0x63, 0x36, 0x00, 0x0d, 0x3b, 0x50, 0x81, 0x63, 0x3b, 0x00, 0x0d, 0x32, 
  0x50, 0x01, 0xb0, 0x40, 0x00, 0x00, 0x40, 0x00, 0x01, 0x40, 0x7f, 0x00, 0x40, 0x7f, 0x81, 0x61, 
  0x90, 0x32, 0x00, 0x0d, 0x39, 0x50, 0x81, 0x63, 0x39, 0x00, 0x0d, 0x36, 0x50, 0x81, 0x63, 0x36, 
  0x00, 0x0d, 0x39, 0x50, 0x81, 0x63, 0x39, 0x00, 0x0d, 0x32, 0x50, 0x81, 0x63, 0x32, 0x00, 0x0d, 
  0x39, 0x50, 0x81, 0x63, 0x39, 0x00, 0x0d, 0x36, 0x50, 0x81, 0x63, 0x36, 0x00, 0x0d, 0x39, 0x50, 
  0x81, 0x63, 0x39, 0x00, 0x0d, 0x34, 0x50, 0x01, 0xb0, 0x40, 0x00, 0x00, 0x40, 0x00, 0x01, 0x40, 
  0x7f, 0x00, 0x40, 0x7f, 0x81, 0x61, 0x90, 0x34, 0x00, 0x0d, 0x3b, 0x50, 0x81, 0x63, 0x3b, 0x00, 
  0x0d, 0x37, 0x50, 0x81, 0x63, 0x37, 0x00, 0x0d, 0x3b, 0x50, 0x81, 0x63, 0x3b, 0x00, 0x0d, 0x34, 
  0x50, 0x81, 0x63, 0x34, 0x00, 0x0d, 0x3b, 0x50, 0x81, 0x63, 0x3b, 0x00, 0x0d, 0x37, 0x50, 0x81, 
  0x63, 0x37, 0x00, 0x0d, 0x3b, 0x50, 0x81, 0x63, 0x3b, 0x00, 0x0d, 0x32, 0x50, 0x01, 0xb0, 0x40, 
  0x00, 0x00, 0x40, 0x00, 0x01, 0x40, 0x7f, 0x00, 0x40, 0x7f, 0x81, 0x61, 0x90, 0x32, 0x00, 0x0d, 
  0x3b, 0x50, 0x81, 0x63, 0x3b, 0x00, 0x0d, 0x37, 0x50, 0x81, 0x63, 0x37, 0x00, 0x0d, 0x3b, 0x50, 
  0x81, 0x63, 0x3b, 0x00, 0x0d, 0x32, 0x50, 0x81, 0x63, 0x32, 0x00, 0x0d, 0x3b, 0x50, 0x81, 0x63, 
  0x3b, 0x00, 0x0d, 0x37, 0x50, 0x81, 0x63, 0x37, 0x00, 0x0d, 0x3b, 0x50, 0x81, 0x63, 0x3b, 0x00, 
  0x0d, 0x32, 0x50, 0x01, 0xb0, 0x40, 0x00, 0x00, 0x40, 0x00, 0x01, 0x40, 0x7f, 0x00, 0x40, 0x7f, 
  0x81, 0x61, 0x90, 0x32, 0x00, 0x0d, 0x3b, 0x50, 0x81, 0x63, 0x3b, 0x00, 0x0d, 0x36, 0x50, 0x81, 
  0x63, 0x36, 0x00, 0x0d, 0x3b, 0x50, 0x81, 0x63, 0x3b, 0x00, 0x0d, 0x32, 0x50, 0x81, 0x63, 0x32, 
  0x00, 0x0d, 0x3b, 0x50, 0x81, 0x63, 0x3b, 0x00, 0x0d, 0x36, 0x50, 0x81, 0x63, 0x36, 0x00, 0x0d, 
  0x3b, 0x50, 0x81, 0x63, 0x3b, 0x00, 0x0d, 0x32, 0x50, 0x01, 0xb0, 0x40, 0x00, 0x00, 0x40, 0x00, 
  0x00, 0x40, 0x00, 0x01, 0x40, 0x7f, 0x00, 0x40, 0x7f, 0x00, 0x40, 0x7f, 0x81, 0x61, 0x90, 0x32, 
  0x00, 0x0d, 0x39, 0x50, 0x81, 0x63, 0x39, 0x00, 0x0d, 0x36, 0x50, 0x81, 0x63, 0x36, 0x00, 0x0d, 
  0x39, 0x50, 0x81, 0x63, 0x39, 0x00, 0x0d, 0x32, 0x50, 0x81, 0x63, 0x32, 0x00, 0x0d, 0x39, 0x50, 
  0x81, 0x63, 0x39, 0x00, 0x0d, 0x36, 0x50, 0x81, 0x63, 0x36, 0x00, 0x0d, 0x39, 0x50, 0x81, 0x63, 
  0x39, 0x00, 0x0d, 0x34, 0x50, 0x01, 0xb0, 0x40, 0x00, 0x00, 0x40, 0x00, 0x01, 0x40, 0x7f, 0x00, 
  0x40, 0x7f, 0x81, 0x61, 0x90, 0x34, 0x00, 0x0d, 0x3b, 0x50, 0x81, 0x63, 0x3b, 0x00, 0x0d, 0x37, 
  0x50, 0x81, 0x63, 0x37, 0x00, 0x0d, 0x3b, 0x50, 0x81, 0x63, 0x3b, 0x00, 0x0d, 0x34, 0x50, 0x81, 
  0x63, 0x34, 0x00, 0x0d, 0x3b, 0x50, 0x81, 0x63, 0x3b, 0x00, 0x0d, 0x37, 0x50, 0x81, 0x63, 0x37, 
  0x00, 0x0d, 0x3b, 0x50, 0x81, 0x63, 0x3b, 0x00, 0x0d, 0x32, 0x50, 0x01, 0xb0, 0x40, 0x00, 0x00, 
  0x40, 0x00, 0x01, 0x40, 0x7f, 0x00, 0x40, 0x7f, 0x81, 0x61, 0x90, 0x32, 0x00, 0x0d, 0x3b, 0x50, 
  0x81, 0x63, 0x3b, 0x00, 0x0d, 0x37, 0x50, 0x81, 0x63, 0x37, 0x00, 0x0d, 0x3b, 0x50, 0x81, 0x63, 
  0x3b, 0x00, 0x0d, 0x32, 0x50, 0x81, 0x63, 0x32, 0x00, 0x0d, 0x3b, 0x50, 0x81, 0x63, 0x3b, 0x00, 
  0x0d, 0x37, 0x50, 0x81, 0x63, 0x37, 0x00, 0x0d, 0x3b, 0x50, 0x81, 0x63, 0x3b, 0x00, 0x0d, 0x32, 
  0x50, 0x01, 0xb0, 0x40, 0x00, 0x00, 0x40, 0x00, 0x01, 0x40, 0x7f, 0x00, 0x40, 0x7f, 0x81, 0x61, 
  0x90, 0x32, 0x00, 0x0d, 0x3b, 0x50, 0x81, 0x63, 0x3b, 0x00, 0x0d, 0x36, 0x50, 0x81, 0x63, 0x36, 
  0x00, 0x0d, 0x3b, 0x50, 0x81, 0x63, 0x3b, 0x00, 0x0d, 0x32, 0x50, 0x81, 0x63, 0x32, 0x00, 0x0d, 
  0x3b, 0x50, 0x81, 0x63, 0x3b, 0x00, 0x0d, 0x36, 0x50, 0x81, 0x63, 0x36, 0x00, 0x0d, 0x3b, 0x50, 
  0x81, 0x63, 0x3b, 0x00, 0x0d, 0x32, 0x50, 0x01, 0xb0, 0x40, 0x00, 0x00, 0x40, 0x00, 0x01, 0x40, 
  0x7f, 0x00, 0x40, 0x7f, 0x81, 0x61, 0x90, 0x32, 0x00, 0x0d, 0x39, 0x50, 0x81, 0x63, 0x39, 0x00, 
  0x0d, 0x36, 0x50, 0x81, 0x63, 0x36, 0x00, 0x0d, 0x39, 0x50, 0x81, 0x63, 0x39, 0x00, 0x0d, 0x32, 
  0x50, 0x81, 0x63, 0x32, 0x00, 0x0d, 0x39, 0x50, 0x81, 0x63, 0x39, 0x00, 0x0d, 0x36, 0x50, 0x81, 
  0x63, 0x36, 0x00, 0x0d, 0x39, 0x50, 0x81, 0x63, 0x39, 0x00, 0x0d, 0x34, 0x50, 0x01, 0xb0, 0x40, 
  0x00, 0x00, 0x40, 0x00, 0x00, 0x40, 0x00, 0x00, 0x40, 0x00, 0x00, 0x40, 0x00, 0x01, 0x40, 0x7f, 
  0x00, 0x40, 0x7f, 0x81, 0x61, 0x90, 0x34, 0x00, 0x0d, 0x3b, 0x50, 0x81, 0x63, 0x3b, 0x00, 0x0d, 
  0x37, 0x50, 0x81, 0x63, 0x37, 0x00, 0x0d, 0x3b, 0x50, 0x81, 0x63, 0x3b, 0x00, 0x0d, 0x34, 0x50, 
  0x81, 0x63, 0x34, 0x00, 0x0d, 0x3b, 0x50, 0x81, 0x63, 0x3b, 0x00, 0x0d, 0x37, 0x50, 0x81, 0x63, 
  0x37, 0x00, 0x0d, 0x3b, 0x50, 0x81, 0x63, 0x3b, 0x00, 0x0d, 0x32, 0x50, 0x01, 0xb0, 0x40, 0x00, 
  0x00, 0x40, 0x00, 0x01, 0x40, 0x7f, 0x00, 0x40, 0x7f, 0x81, 0x61, 0x90, 0x32, 0x00, 0x0d, 0x3b, 
  0x50, 0x81, 0x63, 0x3b, 0x00, 0x0d, 0x37, 0x50, 0x81, 0x63, 0x37, 0x00, 0x0d, 0x3b, 0x50, 0x81, 
  0x63, 0x3b, 0x00, 0x0d, 0x32, 0x50, 0x81, 0x63, 0x32, 0x00, 0x0d, 0x3b, 0x50, 0x81, 0x63, 0x3b, 
  0x00, 0x0d, 0x37, 0x50, 0x81, 0x63, 0x37, 0x00, 0x0d, 0x3b, 0x50, 0x81, 0x63, 0x3b, 0x00, 0x0d, 
  0x32, 0x50, 0x01, 0xb0, 0x40, 0x00, 0x00, 0x40, 0x00, 0x01, 0x40, 0x7f, 0x00, 0x40, 0x7f, 0x81, 
  0x61, 0x90, 0x32, 0x00, 0x0d, 0x3b, 0x50, 0x81, 0x63, 0x3b, 0x00, 0x0d, 0x36, 0x50, 0x81, 0x63, 
  0x36, 0x00, 0x0d, 0x3b, 0x50, 0x81, 0x63, 0x3b, 0x00, 0x0d, 0x32, 0x50, 0x81, 0x63, 0x32, 0x00, 
  0x0d, 0x3b, 0x50, 0x81, 0x63, 0x3b, 0x00, 0x0d, 0x36, 0x50, 0x81, 0x63, 0x36, 0x00, 0x0d, 0x3b, 
  0x50, 0x81, 0x63, 0x3b, 0x00, 0x0d, 0x32, 0x50, 0x01, 0xb0, 0x40, 0x00, 0x00, 0x40, 0x00, 0x01, 
  0x40, 0x7f, 0x00, 0x40, 0x7f, 0x81, 0x61, 0x90, 0x32, 0x00, 0x0d, 0x39, 0x50, 0x81, 0x63, 0x39, 
  0x00, 0x0d, 0x36, 0x50, 0x81, 0x63, 0x36, 0x00, 0x0d, 0x39, 0x50, 0x81, 0x63, 0x39, 0x00, 0x0d, 
  0x32, 0x50, 0x81, 0x63, 0x32, 0x00, 0x0d, 0x39, 0x50, 0x81, 0x63, 0x39, 0x00, 0x0d, 0x36, 0x50, 
  0x81, 0x63, 0x36, 0x00, 0x0d, 0x39, 0x50, 0x81, 0x63, 0x39, 0x00, 0x0d, 0x28, 0x50, 0x00, 0x2f, 
  0x50, 0x00, 0x34, 0x50, 0x01, 0xb0, 0x40, 0x00, 0x01, 0x40, 0x7f, 0x8e, 0x1d, 0x90, 0x28, 0x00, 
  0x00, 0x2f, 0x00, 0x00, 0x34, 0x00, 0x61, 0xb0, 0x40, 0x00, 0x01, 0xff, 0x2f, 0x00
};