// array size is 3250
static const char bytes[]  = {
  0x4d, 0x54, 0x68, 0x64, 0x00, 0x00, 0x00, 0x06, 0x00, 0x01, 0x00, 0x02, 0x01, 0xe0, 0x4d, 0x54, 
  0x72, 0x6b, 0x00, 0x00, 0x07, 0x46, 0x00, 0xff, 0x58, 0x04, 0x04, 0x02, 0x18, 0x08, 0x00, 0xff, 
  0x59, 0x02, 0x00, 0x00, 0x00, 0xff, 0x51, 0x03, 0x0d, 0x76, 0xb4, 0x00, 0xb0, 0x79, 0x00, 0x00, 
  0xc0, 0x00, 0x00, 0xb0, 0x07, 0x64, 0x00, 0x0a, 0x40, 0x00, 0x5b, 0x00, 0x00, 0x5d, 0x00, 0x00, 
  0xff, 0x21, 0x01, 0x00, 0x00, 0x90, 0x45, 0x40, 0x00, 0x48, 0x40, 0x00, 0x4c, 0x40, 0x8e, 0x1f, 
  0x45, 0x00, 0x00, 0x48, 0x00, 0x00, 0x4c, 0x00, 0x61, 0x3c, 0x21, 0x00, 0x40, 0x21, 0x83, 0x47, 
  0x3c, 0x00, 0x00, 0x40, 0x00, 0x19, 0x3c, 0x21, 0x00, 0x40, 0x21, 0x81, 0x63, 0x3c, 0x00, 0x00, 
  0x40, 0x00, 0x0d, 0x3c, 0x21, 0x00, 0x40, 0x21, 0x81, 0x63, 0x3c, 0x00, 0x00, 0x40, 0x00, 0x0d, 
  0x3b, 0x21, 0x00, 0x40, 0x21, 0x83, 0x47, 0x3b, 0x00, 0x00, 0x40, 0x00, 0x19, 0x3b, 0x21, 0x00, 
  0x40, 0x21, 0x83, 0x47, 0x3b, 0x00, 0x00, 0x40, 0x00, 0x19, 0x3b, 0x21, 0x00, 0x40, 0x21, 0x83, 
  0x47, 0x3b, 0x00, 0x00, 0x40, 0x00, 0x19, 0x3b, 0x21, 0x00, 0x40, 0x21, 0x81, 0x63, 0x3b, 0x00, 
  0x00, 0x40, 0x00, 0x0d, 0x3b, 0x21, 0x00, 0x40, 0x21, 0x81, 0x63, 0x3b, 0x00, 0x00, 0x40, 0x00, 
  0x0d, 0x3c, 0x21, 0x00, 0x40, 0x21, 0x83, 0x47, 0x3c, 0x00, 0x00, 0x40, 0x00, 0x19, 0x3c, 0x21, 
  0x00, 0x40, 0x21, 0x83, 0x47, 0x3c, 0x00, 0x00, 0x40, 0x00, 0x19, 0x3c, 0x21, 0x00, 0x40, 0x21, 
  0x83, 0x47, 0x3c, 0x00, 0x00, 0x40, 0x00, 0x19, 0x3c, 0x21, 0x00, 0x40, 0x21, 0x81, 0x63, 0x3c, 
  0x00, 0x00, 0x40, 0x00, 0x0d, 0x3c, 0x21, 0x00, 0x3e, 0x21, 0x00, 0x42, 0x21, 0x81, 0x63, 0x3c, 
  0x00, 0x00, 0x3e, 0x00, 0x00, 0x42, 0x00, 0x0d, 0x3c, 0x21, 0x00, 0x40, 0x21, 0x00, 0x43, 0x21, 
  0x83, 0x47, 0x3c, 0x00, 0x00, 0x40, 0x00, 0x00, 0x43, 0x00, 0x19, 0x3c, 0x21, 0x00, 0x40, 0x21, 
  0x00, 0x43, 0x21, 0x83, 0x47, 0x3c, 0x00, 0x00, 0x40, 0x00, 0x00, 0x43, 0x00, 0x19, 0x3b, 0x21, 
  0x00, 0x3e, 0x21, 0x00, 0x43, 0x21, 0x83, 0x47, 0x3b, 0x00, 0x00, 0x3e, 0x00, 0x00, 0x43, 0x00, 
  0x19, 0x39, 0x21, 0x00, 0x3c, 0x21, 0x00, 0x43, 0x21, 0x81, 0x63, 0x39, 0x00, 0x00, 0x3c, 0x00, 
  0x00, 0x43, 0x00, 0x0d, 0x3b, 0x21, 0x00, 0x3e, 0x21, 0x00, 0x43, 0x21, 0x81, 0x63, 0x3b, 0x00, 
  0x00, 0x3e, 0x00, 0x00, 0x43, 0x00, 0x0d, 0x3c, 0x21, 0x00, 0x40, 0x21, 0x00, 0x43, 0x21, 0x87, 
  0x0f, 0x3c, 0x00, 0x00, 0x40, 0x00, 0x00, 0x43, 0x00, 0x31, 0x40, 0x21, 0x00, 0x43, 0x21, 0x83, 
  0x47, 0x40, 0x00, 0x00, 0x43, 0x00, 0x19, 0x40, 0x21, 0x00, 0x43, 0x21, 0x81, 0x63, 0x40, 0x00, 
  0x00, 0x43, 0x00, 0x0d, 0x40, 0x21, 0x00, 0x45, 0x21, 0x81, 0x63, 0x40, 0x00, 0x00, 0x45, 0x00, 
  0x0d, 0x3f, 0x21, 0x00, 0x47, 0x21, 0x83, 0x47, 0x3f, 0x00, 0x00, 0x47, 0x00, 0x19, 0x3f, 0x21, 
  0x00, 0x47, 0x21, 0x83, 0x47, 0x3f, 0x00, 0x00, 0x47, 0x00, 0x19, 0x3e, 0x21, 0x00, 0x42, 0x21, 
  0x83, 0x47, 0x3e, 0x00, 0x00, 0x42, 0x00, 0x19, 0x3e, 0x21, 0x00, 0x42, 0x21, 0x81, 0x63, 0x3e, 
  0x00, 0x00, 0x42, 0x00, 0x0d, 0x3e, 0x21, 0x00, 0x44, 0x21, 0x81, 0x63, 0x3e, 0x00, 0x00, 0x44, 
  0x00, 0x0d, 0x3d, 0x21, 0x00, 0x45, 0x21, 0x83, 0x47, 0x3d, 0x00, 0x00, 0x45, 0x00, 0x19, 0x3c, 
  0x21, 0x00, 0x45, 0x21, 0x83, 0x47, 0x3c, 0x00, 0x00, 0x45, 0x00, 0x19, 0x3c, 0x21, 0x00, 0x40, 
  0x21, 0x83, 0x47, 0x3c, 0x00, 0x00, 0x40, 0x00, 0x19, 0x3c, 0x21, 0x00, 0x40, 0x21, 0x81, 0x63, 
  0x3c, 0x00, 0x00, 0x40, 0x00, 0x0d, 0x3c, 0x21, 0x00, 0x40, 0x21, 0x81, 0x63, 0x3c, 0x00, 0x00, 
  0x40, 0x00, 0x0d, 0x3b, 0x21, 0x00, 0x40, 0x21, 0x83, 0x47, 0x3b, 0x00, 0x00, 0x40, 0x00, 0x19, 
  0x3c, 0x21, 0x00, 0x40, 0x21, 0x83, 0x47, 0x3c, 0x00, 0x00, 0x40, 0x00, 0x19, 0x3b, 0x21, 0x00, 
  0x40, 0x21, 0x83, 0x47, 0x3b, 0x00, 0x00, 0x40, 0x00, 0x19, 0x3b, 0x21, 0x00, 0x42, 0x21, 0x81, 
  0x63, 0x3b, 0x00, 0x00, 0x42, 0x00, 0x0d, 0x3b, 0x21, 0x00, 0x44, 0x21, 0x81, 0x63, 0x3b, 0x00, 
  0x00, 0x44, 0x00, 0x0d, 0x3c, 0x21, 0x00, 0x45, 0x21, 0x87, 0x0f, 0x3c, 0x00, 0x00, 0x45, 0x00, 
  0x31, 0x40, 0x31, 0x00, 0x43, 0x31, 0x83, 0x47, 0x40, 0x00, 0x00, 0x43, 0x00, 0x19, 0x40, 0x31, 
  0x00, 0x43, 0x31, 0x81, 0x63, 0x40, 0x00, 0x00, 0x43, 0x00, 0x0d, 0x40, 0x31, 0x00, 0x45, 0x31, 
  0x81, 0x63, 0x40, 0x00, 0x00, 0x45, 0x00, 0x0d, 0x3f, 0x31, 0x00, 0x47, 0x31, 0x83, 0x47, 0x3f, 
  0x00, 0x00, 0x47, 0x00, 0x19, 0x3f, 0x31, 0x00, 0x47, 0x31, 0x83, 0x47, 0x3f, 0x00, 0x00, 0x47, 
  0x00, 0x19, 0x3e, 0x31, 0x00, 0x42, 0x31, 0x83, 0x47, 0x3e, 0x00, 0x00, 0x42, 0x00, 0x19, 0x3e, 
  0x31, 0x00, 0x42, 0x31, 0x81, 0x63, 0x3e, 0x00, 0x00, 0x42, 0x00, 0x0d, 0x3e, 0x31, 0x00, 0x44, 
  0x31, 0x81, 0x63, 0x3e, 0x00, 0x00, 0x44, 0x00, 0x0d, 0x3d, 0x31, 0x00, 0x45, 0x31, 0x83, 0x47, 
  0x3d, 0x00, 0x00, 0x45, 0x00, 0x19, 0x3c, 0x31, 0x00, 0x45, 0x31, 0x83, 0x47, 0x3c, 0x00, 0x00, 
  0x45, 0x00, 0x19, 0x3c, 0x31, 0x00, 0x40, 0x31, 0x83, 0x47, 0x3c, 0x00, 0x00, 0x40, 0x00, 0x19, 
  0x3c, 0x31, 0x00, 0x40, 0x31, 0x81, 0x63, 0x3c, 0x00, 0x00, 0x40, 0x00, 0x0d, 0x3c, 0x31, 0x00, 
  0x40, 0x31, 0x81, 0x63, 0x3c, 0x00, 0x00, 0x40, 0x00, 0x0d, 0x3b, 0x31, 0x00, 0x40, 0x31, 0x83, 
  0x47, 0x3b, 0x00, 0x00, 0x40, 0x00, 0x19, 0x3c, 0x31, 0x00, 0x40, 0x31, 0x83, 0x47, 0x3c, 0x00, 
  0x00, 0x40, 0x00, 0x19, 0x3b, 0x31, 0x00, 0x40, 0x31, 0x83, 0x47, 0x3b, 0x00, 0x00, 0x40, 0x00, 
  0x19, 0x3b, 0x31, 0x00, 0x42, 0x31, 0x81, 0x63, 0x3b, 0x00, 0x00, 0x42, 0x00, 0x0d, 0x3b, 0x31, 
  0x00, 0x44, 0x31, 0x81, 0x63, 0x3b, 0x00, 0x00, 0x44, 0x00, 0x0d, 0x3c, 0x31, 0x00, 0x45, 0x31, 
  0x87, 0x0f, 0x3c, 0x00, 0x00, 0x45, 0x00, 0x31, 0x48, 0x40, 0x00, 0x4c, 0x40, 0x83, 0x47, 0x48, 
  0x00, 0x00, 0x4c, 0x00, 0x19, 0x4c, 0x40, 0x81, 0x63, 0x4c, 0x00, 0x0d, 0x4c, 0x40, 0x81, 0x63, 
  0x4c, 0x00, 0x0d, 0x47, 0x40, 0x00, 0x4c, 0x40, 0x83, 0x47, 0x47, 0x00, 0x00, 0x4c, 0x00, 0x19, 
  0x4c, 0x40, 0x83, 0x47, 0x4c, 0x00, 0x19, 0x47, 0x40, 0x00, 0x4c, 0x40, 0x71, 0x47, 0x00, 0x07, 
  0x48, 0x40, 0x71, 0x48, 0x00, 0x07, 0x4a, 0x40, 0x81, 0x57, 0x4c, 0x00, 0x19, 0x4c, 0x40, 0x81, 
  0x57, 0x4a, 0x00, 0x19, 0x48, 0x40, 0x71, 0x48, 0x00, 0x07, 0x47, 0x40, 0x5f, 0x4c, 0x00, 0x12, 
  0x47, 0x00, 0x07, 0x47, 0x40, 0x00, 0x4c, 0x40, 0x81, 0x63, 0x47, 0x00, 0x0d, 0x48, 0x40, 0x81, 
  0x57, 0x4c, 0x00, 0x0c, 0x48, 0x00, 0x0d, 0x48, 0x40, 0x00, 0x4c, 0x40, 0x83, 0x47, 0x48, 0x00, 
  0x00, 0x4c, 0x00, 0x19, 0x4c, 0x40, 0x00, 0x48, 0x40, 0x83, 0x47, 0x4c, 0x00, 0x00, 0x48, 0x00, 
  0x19, 0x4c, 0x40, 0x81, 0x63, 0x4c, 0x00, 0x0d, 0x4e, 0x40, 0x00, 0x48, 0x40, 0x71, 0x48, 0x00, 
  0x07, 0x4a, 0x40, 0x6b, 0x4e, 0x00, 0x06, 0x4a, 0x00, 0x07, 0x4f, 0x40, 0x00, 0x4b, 0x40, 0x81, 
  0x63, 0x4b, 0x00, 0x0d, 0x4c, 0x40, 0x81, 0x57, 0x4f, 0x00, 0x0c, 0x4c, 0x00, 0x0d, 0x4f, 0x40, 
  0x00, 0x4c, 0x40, 0x81, 0x63, 0x4c, 0x00, 0x0d, 0x4c, 0x40, 0x81, 0x57, 0x4f, 0x00, 0x0c, 0x4c, 
  0x00, 0x0d, 0x4f, 0x40, 0x00, 0x4a, 0x40, 0x71, 0x4a, 0x00, 0x07, 0x4c, 0x40, 0x71, 0x4c, 0x00, 
  0x07, 0x4d, 0x40, 0x81, 0x57, 0x4f, 0x00, 0x19, 0x4f, 0x40, 0x81, 0x57, 0x4d, 0x00, 0x19, 0x4c, 
  0x40, 0x71, 0x4c, 0x00, 0x07, 0x4a, 0x40, 0x5f, 0x4f, 0x00, 0x12, 0x4a, 0x00, 0x07, 0x4f, 0x40, 
  0x00, 0x4a, 0x40, 0x81, 0x63, 0x4a, 0x00, 0x0d, 0x4c, 0x40, 0x81, 0x57, 0x4f, 0x00, 0x0c, 0x4c, 
  0x00, 0x0d, 0x4c, 0x40, 0x83, 0x47, 0x4c, 0x00, 0x19, 0x4c, 0x50, 0x00, 0x4f, 0x50, 0x83, 0x47, 
  0x4c, 0x00, 0x00, 0x4f, 0x00, 0x19, 0x4f, 0x50, 0x81, 0x63, 0x4f, 0x00, 0x0d, 0x51, 0x50, 0x81, 
  0x63, 0x51, 0x00, 0x0d, 0x4b, 0x50, 0x00, 0x53, 0x50, 0x83, 0x47, 0x4b, 0x00, 0x00, 0x53, 0x00, 
  0x19, 0x53, 0x50, 0x83, 0x47, 0x53, 0x00, 0x19, 0x4e, 0x50, 0x00, 0x4a, 0x50, 0x81, 0x63, 0x4a, 
  0x00, 0x0d, 0x47, 0x50, 0x71, 0x47, 0x00, 0x07, 0x49, 0x50, 0x5f, 0x4e, 0x00, 0x12, 0x49, 0x00, 
  0x07, 0x4e, 0x50, 0x00, 0x4a, 0x50, 0x81, 0x63, 0x4e, 0x00, 0x00, 0x4a, 0x00, 0x0d, 0x50, 0x50, 
  0x00, 0x4c, 0x50, 0x71, 0x4c, 0x00, 0x07, 0x4a, 0x50, 0x6b, 0x50, 0x00, 0x06, 0x4a, 0x00, 0x07, 
  0x51, 0x50, 0x00, 0x4a, 0x50, 0x81, 0x63, 0x4a, 0x00, 0x0d, 0x49, 0x50, 0x81, 0x57, 0x51, 0x00, 
  0x0c, 0x49, 0x00, 0x0d, 0x51, 0x50, 0x00, 0x48, 0x50, 0x83, 0x47, 0x51, 0x00, 0x00, 0x48, 0x00, 
  0x19, 0x48, 0x50, 0x00, 0x4c, 0x50, 0x83, 0x47, 0x48, 0x00, 0x00, 0x4c, 0x00, 0x19, 0x4c, 0x50, 
  0x81, 0x63, 0x4c, 0x00, 0x0d, 0x4c, 0x50, 0x81, 0x63, 0x4c, 0x00, 0x0d, 0x47, 0x50, 0x00, 0x4c, 
  0x50, 0x83, 0x47, 0x47, 0x00, 0x00, 0x4c, 0x00, 0x19, 0x48, 0x50, 0x00, 0x4c, 0x50, 0x83, 0x47, 
  0x48, 0x00, 0x00, 0x4c, 0x00, 0x19, 0x4c, 0x50, 0x00, 0x47, 0x50, 0x71, 0x47, 0x00, 0x07, 0x48, 
  0x50, 0x71, 0x48, 0x00, 0x07, 0x4a, 0x50, 0x81, 0x57, 0x4c, 0x00, 0x19, 0x4e, 0x50, 0x81, 0x57, 
  0x4a, 0x00, 0x0c, 0x4e, 0x00, 0x0d, 0x50, 0x50, 0x00, 0x48, 0x50, 0x71, 0x48, 0x00, 0x07, 0x47, 
  0x50, 0x6b, 0x50, 0x00, 0x06, 0x47, 0x00, 0x07, 0x51, 0x50, 0x00, 0x45, 0x50, 0x81, 0x63, 0x45, 
  0x00, 0x0d, 0x45, 0x50, 0x71, 0x45, 0x00, 0x07, 0x47, 0x50, 0x5f, 0x51, 0x00, 0x12, 0x47, 0x00, 
  0x07, 0x48, 0x50, 0x81, 0x63, 0x48, 0x00, 0x0d, 0x48, 0x50, 0x71, 0x48, 0x00, 0x07, 0x4a, 0x50, 
  0x71, 0x4a, 0x00, 0x07, 0x4c, 0x60, 0x00, 0x4f, 0x60, 0x83, 0x47, 0x4c, 0x00, 0x00, 0x4f, 0x00, 
  0x19, 0x4f, 0x60, 0x81, 0x63, 0x4f, 0x00, 0x0d, 0x51, 0x60, 0x81, 0x63, 0x51, 0x00, 0x0d, 0x4b, 
  0x60, 0x00, 0x53, 0x60, 0x83, 0x47, 0x4b, 0x00, 0x00, 0x53, 0x00, 0x19, 0x53, 0x60, 0x83, 0x47, 
  0x53, 0x00, 0x19, 0x4e, 0x60, 0x00, 0x4a, 0x60, 0x81, 0x63, 0x4a, 0x00, 0x0d, 0x47, 0x60, 0x71, 
  0x47, 0x00, 0x07, 0x49, 0x60, 0x5f, 0x4e, 0x00, 0x12, 0x49, 0x00, 0x07, 0x4e, 0x60, 0x00, 0x4a, 
  0x60, 0x81, 0x63, 0x4e, 0x00, 0x00, 0x4a, 0x00, 0x0d, 0x50, 0x60, 0x00, 0x4c, 0x60, 0x71, 0x4c, 
  0x00, 0x07, 0x4a, 0x60, 0x6b, 0x50, 0x00, 0x06, 0x4a, 0x00, 0x07, 0x51, 0x60, 0x00, 0x4a, 0x60, 
  0x81, 0x63, 0x4a, 0x00, 0x0d, 0x49, 0x60, 0x81, 0x57, 0x51, 0x00, 0x0c, 0x49, 0x00, 0x0d, 0x51, 
  0x60, 0x00, 0x48, 0x60, 0x83, 0x47, 0x51, 0x00, 0x00, 0x48, 0x00, 0x19, 0x48, 0x60, 0x00, 0x4c, 
  0x60, 0x83, 0x47, 0x48, 0x00, 0x00, 0x4c, 0x00, 0x19, 0x4c, 0x60, 0x81, 0x63, 0x4c, 0x00, 0x0d, 
  0x4c, 0x60, 0x81, 0x63, 0x4c, 0x00, 0x0d, 0x47, 0x60, 0x00, 0x4c, 0x60, 0x83, 0x47, 0x47, 0x00, 
  0x00, 0x4c, 0x00, 0x19, 0x48, 0x60, 0x00, 0x4c, 0x60, 0x83, 0x47, 0x48, 0x00, 0x00, 0x4c, 0x00, 
  0x19, 0x4c, 0x60, 0x00, 0x47, 0x60, 0x71, 0x47, 0x00, 0x07, 0x48, 0x60, 0x71, 0x48, 0x00, 0x07, 
  0x4a, 0x60, 0x81, 0x57, 0x4c, 0x00, 0x19, 0x4e, 0x60, 0x81, 0x57, 0x4a, 0x00, 0x0c, 0x4e, 0x00, 
  0x0d, 0x50, 0x60, 0x00, 0x48, 0x60, 0x71, 0x48, 0x00, 0x07, 0x47, 0x60, 0x6b, 0x50, 0x00, 0x06, 
  0x47, 0x00, 0x07, 0x51, 0x40, 0x00, 0x45, 0x40, 0x87, 0x0f, 0x51, 0x00, 0x00, 0x45, 0x00, 0x31, 
  0x4c, 0x31, 0x83, 0x47, 0x4c, 0x00, 0x19, 0x4c, 0x31, 0x00, 0x4e, 0x31, 0x81, 0x63, 0x4c, 0x00, 
  0x00, 0x4e, 0x00, 0x0d, 0x4c, 0x31, 0x00, 0x50, 0x31, 0x81, 0x63, 0x4c, 0x00, 0x00, 0x50, 0x00, 
  0x0d, 0x4c, 0x31, 0x00, 0x51, 0x31, 0x87, 0x0f, 0x4c, 0x00, 0x00, 0x51, 0x00, 0x31, 0x40, 0x21, 
  0x00, 0x47, 0x21, 0x00, 0x4a, 0x21, 0x83, 0x47, 0x40, 0x00, 0x00, 0x47, 0x00, 0x00, 0x4a, 0x00, 
  0x19, 0x40, 0x21, 0x00, 0x47, 0x21, 0x00, 0x4a, 0x21, 0x81, 0x63, 0x40, 0x00, 0x00, 0x47, 0x00, 
  0x00, 0x4a, 0x00, 0x0d, 0x40, 0x21, 0x00, 0x47, 0x21, 0x00, 0x4a, 0x21, 0x81, 0x63, 0x40, 0x00, 
  0x00, 0x47, 0x00, 0x00, 0x4a, 0x00, 0x0d, 0x40, 0x21, 0x00, 0x45, 0x21, 0x00, 0x48, 0x21, 0x83, 
  0x47, 0x40, 0x00, 0x00, 0x45, 0x00, 0x00, 0x48, 0x00, 0x83, 0x79, 0x45, 0x21, 0x00, 0x48, 0x21, 
  0x00, 0x4c, 0x21, 0x83, 0x47, 0x45, 0x00, 0x00, 0x48, 0x00, 0x00, 0x4c, 0x00, 0x19, 0x42, 0x21, 
  0x81, 0x63, 0x42, 0x00, 0x0d, 0x44, 0x21, 0x81, 0x63, 0x44, 0x00, 0x0d, 0x45, 0x40, 0x00, 0x4c, 
  0x40, 0x00, 0x4e, 0x40, 0x81, 0x63, 0x45, 0x00, 0x00, 0x4c, 0x00, 0x00, 0x4e, 0x00, 0x0d, 0x50, 
  0x40, 0x81, 0x63, 0x50, 0x00, 0x0d, 0x48, 0x40, 0x00, 0x4c, 0x40, 0x00, 0x51, 0x40, 0x8a, 0x57, 
  0x48, 0x00, 0x00, 0x4c, 0x00, 0x00, 0x51, 0x00, 0x01, 0xff, 0x2f, 0x00, 0x4d, 0x54, 0x72, 0x6b, 
  0x00, 0x00, 0x05, 0x4e, 0x00, 0xff, 0x59, 0x02, 0x00, 0x00, 0x00, 0xff, 0x21, 0x01, 0x00, 0x00, 
  0x90, 0x34, 0x40, 0x00, 0x39, 0x40, 0x00, 0x3c, 0x40, 0x02, 0xb0, 0x40, 0x7f, 0x8e, 0x1d, 0x90, 
  0x34, 0x00, 0x00, 0x39, 0x00, 0x00, 0x3c, 0x00, 0x61, 0x2d, 0x21, 0x01, 0xb0, 0x40, 0x00, 0x01, 
  0x40, 0x7f, 0x83, 0x45, 0x90, 0x2d, 0x00, 0x19, 0x2d, 0x21, 0x81, 0x63, 0x2d, 0x00, 0x0d, 0x2d, 
  0x21, 0x81, 0x63, 0x2d, 0x00, 0x0d, 0x2c, 0x21, 0x01, 0xb0, 0x40, 0x00, 0x01, 0x40, 0x7f, 0x83, 
  0x45, 0x90, 0x2c, 0x00, 0x19, 0x2c, 0x21, 0x83, 0x47, 0x2c, 0x00, 0x19, 0x28, 0x21, 0x01, 0xb0, 
  0x40, 0x00, 0x01, 0x40, 0x7f, 0x83, 0x45, 0x90, 0x28, 0x00, 0x19, 0x28, 0x21, 0x81, 0x63, 0x28, 
  0x00, 0x0d, 0x28, 0x21, 0x81, 0x63, 0x28, 0x00, 0x0d, 0x2d, 0x21, 0x01, 0xb0, 0x40, 0x00, 0x01, 
  0x40, 0x7f, 0x83, 0x45, 0x90, 0x2d, 0x00, 0x19, 0x2d, 0x21, 0x83, 0x47, 0x2d, 0x00, 0x19, 0x2d, 
  0x21, 0x01, 0xb0, 0x40, 0x00, 0x01, 0x40, 0x7f, 0x83, 0x45, 0x90, 0x2d, 0x00, 0x19, 0x2d, 0x21, 
  0x81, 0x63, 0x2d, 0x00, 0x0d, 0x2d, 0x21, 0x81, 0x63, 0x2d, 0x00, 0x0d, 0x2b, 0x21, 0x01, 0xb0, 
  0x40, 0x00, 0x01, 0x40, 0x7f, 0x83, 0x45, 0x90, 0x2b, 0x00, 0x19, 0x2b, 0x21, 0x83, 0x47, 0x2b, 
  0x00, 0x19, 0x2b, 0x21, 0x01, 0xb0, 0x40, 0x00, 0x01, 0x40, 0x7f, 0x83, 0x45, 0x90, 0x2b, 0x00, 
  0x19, 0x2b, 0x21, 0x81, 0x63, 0x2b, 0x00, 0x0d, 0x2b, 0x21, 0x81, 0x63, 0x2b, 0x00, 0x0d, 0x30, 
  0x21, 0x01, 0xb0, 0x40, 0x00, 0x01, 0x40, 0x7f, 0x87, 0x0d, 0x90, 0x30, 0x00, 0x31, 0x30, 0x21, 
  0x01, 0xb0, 0x40, 0x00, 0x01, 0x40, 0x7f, 0x83, 0x45, 0x90, 0x30, 0x00, 0x19, 0x30, 0x21, 0x81, 
  0x63, 0x30, 0x00, 0x0d, 0x30, 0x21, 0x81, 0x63, 0x30, 0x00, 0x0d, 0x2f, 0x21, 0x01, 0xb0, 0x40, 
  0x00, 0x01, 0x40, 0x7f, 0x83, 0x45, 0x90, 0x2f, 0x00, 0x19, 0x2f, 0x21, 0x83, 0x47, 0x2f, 0x00, 
  0x19, 0x2f, 0x21, 0x01, 0xb0, 0x40, 0x00, 0x01, 0x40, 0x7f, 0x83, 0x45, 0x90, 0x2f, 0x00, 0x19, 
  0x2f, 0x21, 0x81, 0x63, 0x2f, 0x00, 0x0d, 0x2f, 0x21, 0x81, 0x63, 0x2f, 0x00, 0x0d, 0x2d, 0x21, 
  0x01, 0xb0, 0x40, 0x00, 0x01, 0x40, 0x7f, 0x83, 0x45, 0x90, 0x2d, 0x00, 0x19, 0x2d, 0x21, 0x83, 
  0x47, 0x2d, 0x00, 0x19, 0x2d, 0x21, 0x01, 0xb0, 0x40, 0x00, 0x01, 0x40, 0x7f, 0x83, 0x45, 0x90, 
  0x2d, 0x00, 0x19, 0x2d, 0x21, 0x81, 0x63, 0x2d, 0x00, 0x0d, 0x2d, 0x21, 0x81, 0x63, 0x2d, 0x00, 
  0x0d, 0x2c, 0x21, 0x01, 0xb0, 0x40, 0x00, 0x01, 0x40, 0x7f, 0x83, 0x45, 0x90, 0x2c, 0x00, 0x19, 
  0x2d, 0x21, 0x83, 0x47, 0x2d, 0x00, 0x19, 0x28, 0x21, 0x01, 0xb0, 0x40, 0x00, 0x01, 0x40, 0x7f, 
  0x83, 0x45, 0x90, 0x28, 0x00, 0x19, 0x28, 0x21, 0x81, 0x63, 0x28, 0x00, 0x0d, 0x28, 0x21, 0x81, 
  0x63, 0x28, 0x00, 0x0d, 0x2d, 0x21, 0x01, 0xb0, 0x40, 0x00, 0x01, 0x40, 0x7f, 0x87, 0x0d, 0x90, 
  0x2d, 0x00, 0x31, 0x30, 0x31, 0x01, 0xb0, 0x40, 0x00, 0x01, 0x40, 0x7f, 0x83, 0x45, 0x90, 0x30, 
  0x00, 0x19, 0x30, 0x31, 0x81, 0x63, 0x30, 0x00, 0x0d, 0x30, 0x31, 0x81, 0x63, 0x30, 0x00, 0x0d, 
  0x2f, 0x31, 0x01, 0xb0, 0x40, 0x00, 0x01, 0x40, 0x7f, 0x83, 0x45, 0x90, 0x2f, 0x00, 0x19, 0x2f, 
  0x31, 0x83, 0x47, 0x2f, 0x00, 0x19, 0x2f, 0x31, 0x01, 0xb0, 0x40, 0x00, 0x01, 0x40, 0x7f, 0x83, 
  0x45, 0x90, 0x2f, 0x00, 0x19, 0x2f, 0x31, 0x81, 0x63, 0x2f, 0x00, 0x0d, 0x2f, 0x31, 0x81, 0x63, 
  0x2f, 0x00, 0x0d, 0x2d, 0x31, 0x01, 0xb0, 0x40, 0x00, 0x01, 0x40, 0x7f, 0x83, 0x45, 0x90, 0x2d, 
  0x00, 0x19, 0x2d, 0x31, 0x83, 0x47, 0x2d, 0x00, 0x19, 0x2d, 0x31, 0x01, 0xb0, 0x40, 0x00, 0x01, 
  0x40, 0x7f, 0x83, 0x45, 0x90, 0x2d, 0x00, 0x19, 0x2d, 0x31, 0x81, 0x63, 0x2d, 0x00, 0x0d, 0x2d, 
  0x31, 0x81, 0x63, 0x2d, 0x00, 0x0d, 0x2c, 0x31, 0x01, 0xb0, 0x40, 0x00, 0x01, 0x40, 0x7f, 0x83, 
  0x45, 0x90, 0x2c, 0x00, 0x19, 0x2d, 0x31, 0x83, 0x47, 0x2d, 0x00, 0x19, 0x28, 0x31, 0x01, 0xb0, 
  0x40, 0x00, 0x01, 0x40, 0x7f, 0x83, 0x45, 0x90, 0x28, 0x00, 0x19, 0x28, 0x31, 0x81, 0x63, 0x28, 
  0x00, 0x0d, 0x28, 0x31, 0x81, 0x63, 0x28, 0x00, 0x0d, 0x2d, 0x31, 0x01, 0xb0, 0x40, 0x00, 0x01, 
  0x40, 0x7f, 0x87, 0x0d, 0x90, 0x2d, 0x00, 0x32, 0xb0, 0x40, 0x00, 0x01, 0x40, 0x7f, 0x83, 0x5e, 
  0x90, 0x2d, 0x40, 0x81, 0x63, 0x2d, 0x00, 0x0d, 0x2d, 0x40, 0x81, 0x63, 0x2d, 0x00, 0x0d, 0x2c, 
  0x40, 0x01, 0xb0, 0x40, 0x00, 0x01, 0x40, 0x7f, 0x83, 0x45, 0x90, 0x2c, 0x00, 0x19, 0x38, 0x40, 
  0x83, 0x47, 0x38, 0x00, 0x1a, 0xb0, 0x40, 0x00, 0x01, 0x40, 0x7f, 0x83, 0x5e, 0x90, 0x28, 0x40, 
  0x81, 0x63, 0x28, 0x00, 0x0d, 0x28, 0x40, 0x81, 0x63, 0x28, 0x00, 0x0d, 0x2d, 0x40, 0x01, 0xb0, 
  0x40, 0x00, 0x01, 0x40, 0x7f, 0x83, 0x45, 0x90, 0x2d, 0x00, 0x19, 0x39, 0x40, 0x83, 0x47, 0x39, 
  0x00, 0x1a, 0xb0, 0x40, 0x00, 0x01, 0x40, 0x7f, 0x83, 0x5e, 0x90, 0x2d, 0x40, 0x81, 0x63, 0x2d, 
  0x00, 0x0d, 0x2d, 0x40, 0x81, 0x63, 0x2d, 0x00, 0x0d, 0x2b, 0x40, 0x01, 0xb0, 0x40, 0x00, 0x01, 
  0x40, 0x7f, 0x83, 0x45, 0x90, 0x2b, 0x00, 0x19, 0x37, 0x40, 0x83, 0x47, 0x37, 0x00, 0x1a, 0xb0, 
  0x40, 0x00, 0x01, 0x40, 0x7f, 0x83, 0x5e, 0x90, 0x37, 0x40, 0x81, 0x63, 0x37, 0x00, 0x0d, 0x37, 
  0x40, 0x81, 0x63, 0x37, 0x00, 0x0d, 0x30, 0x40, 0x01, 0xb0, 0x40, 0x00, 0x01, 0x40, 0x7f, 0x83, 
  0x45, 0x90, 0x30, 0x00, 0x19, 0x3c, 0x40, 0x83, 0x47, 0x3c, 0x00, 0x1a, 0xb0, 0x40, 0x00, 0x01, 
  0x40, 0x7f, 0x83, 0x5e, 0x90, 0x30, 0x50, 0x81, 0x63, 0x30, 0x00, 0x0d, 0x30, 0x50, 0x81, 0x63, 
  0x30, 0x00, 0x0d, 0x2f, 0x50, 0x01, 0xb0, 0x40, 0x00, 0x01, 0x40, 0x7f, 0x83, 0x45, 0x90, 0x2f, 
  0x00, 0x19, 0x3b, 0x50, 0x83, 0x47, 0x3b, 0x00, 0x1a, 0xb0, 0x40, 0x00, 0x01, 0x40, 0x7f, 0x83, 
  0x5e, 0x90, 0x34, 0x50, 0x81, 0x63, 0x34, 0x00, 0x0d, 0x34, 0x50, 0x81, 0x63, 0x34, 0x00, 0x0d, 
  0x2d, 0x50, 0x01, 0xb0, 0x40, 0x00, 0x01, 0x40, 0x7f, 0x83, 0x45, 0x90, 0x2d, 0x00, 0x19, 0x39, 
  0x50, 0x83, 0x47, 0x39, 0x00, 0x1a, 0xb0, 0x40, 0x00, 0x01, 0x40, 0x7f, 0x83, 0x5e, 0x90, 0x2d, 
  0x50, 0x81, 0x63, 0x2d, 0x00, 0x0d, 0x2d, 0x50, 0x81, 0x63, 0x2d, 0x00, 0x0d, 0x2c, 0x50, 0x01, 
  0xb0, 0x40, 0x00, 0x01, 0x40, 0x7f, 0x83, 0x45, 0x90, 0x2c, 0x00, 0x19, 0x2d, 0x50, 0x83, 0x47, 
  0x2d, 0x00, 0x1a, 0xb0, 0x40, 0x00, 0x01, 0x40, 0x7f, 0x83, 0x5e, 0x90, 0x28, 0x50, 0x81, 0x63, 
  0x28, 0x00, 0x0d, 0x28, 0x50, 0x81, 0x63, 0x28, 0x00, 0x0d, 0x2d, 0x50, 0x01, 0xb0, 0x40, 0x00, 
  0x01, 0x40, 0x7f, 0x83, 0x45, 0x90, 0x2d, 0x00, 0x19, 0x39, 0x50, 0x83, 0x47, 0x39, 0x00, 0x1a, 
  0xb0, 0x40, 0x00, 0x01, 0x40, 0x7f, 0x83, 0x5e, 0x90, 0x30, 0x60, 0x81, 0x63, 0x30, 0x00, 0x0d, 
  0x30, 0x60, 0x81, 0x63, 0x30, 0x00, 0x0d, 0x2f, 0x60, 0x01, 0xb0, 0x40, 0x00, 0x01, 0x40, 0x7f, 
  0x83, 0x45, 0x90, 0x2f, 0x00, 0x19, 0x3b, 0x60, 0x83, 0x47, 0x3b, 0x00, 0x1a, 0xb0, 0x40, 0x00, 
  0x01, 0x40, 0x7f, 0x83, 0x5e, 0x90, 0x34, 0x60, 0x81, 0x63, 0x34, 0x00, 0x0d, 0x34, 0x60, 0x81, 
  0x63, 0x34, 0x00, 0x0d, 0x2d, 0x60, 0x01, 0xb0, 0x40, 0x00, 0x01, 0x40, 0x7f, 0x83, 0x45, 0x90, 
  0x2d, 0x00, 0x19, 0x39, 0x60, 0x83, 0x47, 0x39, 0x00, 0x1a, 0xb0, 0x40, 0x00, 0x01, 0x40, 0x7f, 
  0x83, 0x5e, 0x90, 0x2d, 0x60, 0x81, 0x63, 0x2d, 0x00, 0x0d, 0x2d, 0x60, 0x81, 0x63, 0x2d, 0x00, 
  0x0d, 0x2c, 0x60, 0x01, 0xb0, 0x40, 0x00, 0x01, 0x40, 0x7f, 0x83, 0x45, 0x90, 0x2c, 0x00, 0x19, 
  0x2d, 0x60, 0x83, 0x47, 0x2d, 0x00, 0x1a, 0xb0, 0x40, 0x00, 0x01, 0x40, 0x7f, 0x83, 0x5e, 0x90, 
  0x28, 0x60, 0x81, 0x63, 0x28, 0x00, 0x0d, 0x28, 0x60, 0x81, 0x63, 0x28, 0x00, 0x0d, 0x2d, 0x40, 
  0x01, 0xb0, 0x40, 0x00, 0x01, 0x40, 0x7f, 0x83, 0x45, 0x90, 0x2d, 0x00, 0x19, 0x39, 0x40, 0x83, 
  0x47, 0x39, 0x00, 0x19, 0x34, 0x31, 0x00, 0x3b, 0x31, 0x00, 0x3e, 0x31, 0x01, 0xb0, 0x40, 0x00, 
  0x01, 0x40, 0x7f, 0x83, 0x45, 0x90, 0x34, 0x00, 0x00, 0x3b, 0x00, 0x00, 0x3e, 0x00, 0x19, 0x34, 
  0x31, 0x00, 0x3b, 0x31, 0x00, 0x3e, 0x31, 0x81, 0x63, 0x34, 0x00, 0x00, 0x3b, 0x00, 0x00, 0x3e, 
  0x00, 0x0d, 0x34, 0x31, 0x00, 0x3b, 0x31, 0x00, 0x3e, 0x31, 0x81, 0x63, 0x34, 0x00, 0x00, 0x3b, 
  0x00, 0x00, 0x3e, 0x00, 0x0d, 0x39, 0x31, 0x00, 0x3c, 0x31, 0x00, 0x40, 0x31, 0x01, 0xb0, 0x40, 
  0x00, 0x01, 0x40, 0x7f, 0x87, 0x0d, 0x90, 0x39, 0x00, 0x00, 0x3c, 0x00, 0x00, 0x40, 0x00, 0x31, 
  0x28, 0x21, 0x01, 0xb0, 0x40, 0x00, 0x01, 0x40, 0x7f, 0x83, 0x45, 0x90, 0x28, 0x00, 0x19, 0x2a, 
  0x21, 0x81, 0x63, 0x2a, 0x00, 0x0d, 0x2c, 0x21, 0x81, 0x63, 0x2c, 0x00, 0x0d, 0x2d, 0x21, 0x83, 
  0x47, 0x2d, 0x00, 0x19, 0x36, 0x21, 0x81, 0x63, 0x36, 0x00, 0x0d, 0x38, 0x21, 0x81, 0x63, 0x38, 
  0x00, 0x0d, 0x2d, 0x21, 0x00, 0x39, 0x21, 0x01, 0xb0, 0x40, 0x00, 0x01, 0x40, 0x7f, 0x83, 0x45, 
  0x90, 0x2d, 0x00, 0x00, 0x39, 0x00, 0x83, 0x79, 0x2d, 0x40, 0x00, 0x34, 0x40, 0x00, 0x39, 0x40, 
  0x8e, 0x1f, 0x2d, 0x00, 0x00, 0x34, 0x00, 0x00, 0x39, 0x00, 0x62, 0xb0, 0x40, 0x00, 0x01, 0xff, 
  0x2f, 0x00
};