// array size is 1478
static const char bytes[]  = {
  0x4d, 0x54, 0x68, 0x64, 0x00, 0x00, 0x00, 0x06, 0x00, 0x01, 0x00, 0x02, 0x01, 0x00, 0x4d, 0x54, 
  0x72, 0x6b, 0x00, 0x00, 0x00, 0x3e, 0x00, 0xff, 0x58, 0x04, 0x04, 0x02, 0x18, 0x08, 0x00, 0xff, 
  0x59, 0x02, 0x00, 0x00, 0x00, 0xff, 0x51, 0x03, 0x0b, 0x71, 0xb0, 0x00, 0xff, 0x03, 0x05, 0x43, 
  0x61, 0x6e, 0x6f, 0x6e, 0x00, 0xff, 0x01, 0x09, 0x50, 0x61, 0x63, 0x68, 0x65, 0x6c, 0x62, 0x65, 
  0x6c, 0xa0, 0x00, 0xff, 0x51, 0x03, 0x0b, 0x71, 0xb0, 0x00, 0xff, 0x51, 0x03, 0x0b, 0x71, 0xb0, 
  0x01, 0xff, 0x2f, 0x00, 0x4d, 0x54, 0x72, 0x6b, 0x00, 0x00, 0x05, 0x6a, 0x00, 0xc0, 0x00, 0x00, 
  0xb0, 0x79, 0x00, 0x00, 0xb0, 0x40, 0x00, 0x00, 0xb0, 0x5b, 0x30, 0x00, 0xb0, 0x0a, 0x33, 0x00, 
  0xb0, 0x07, 0x64, 0x00, 0x90, 0x40, 0x30, 0x00, 0xb0, 0x79, 0x00, 0x00, 0xb0, 0x40, 0x00, 0x00, 
  0xb0, 0x5b, 0x30, 0x00, 0xb0, 0x0a, 0x33, 0x00, 0xb0, 0x07, 0x64, 0x00, 0xff, 0x03, 0x05, 0x50, 
  0x69, 0x61, 0x6e, 0x6f, 0x00, 0x90, 0x3c, 0x30, 0x84, 0x00, 0x80, 0x40, 0x00, 0x00, 0x90, 0x3e, 
  0x30, 0x00, 0x80, 0x3c, 0x00, 0x00, 0x90, 0x37, 0x2f, 0x84, 0x00, 0x80, 0x3e, 0x00, 0x00, 0x90, 
  0x3c, 0x27, 0x00, 0x80, 0x37, 0x00, 0x00, 0x90, 0x39, 0x2f, 0x84, 0x00, 0x80, 0x3c, 0x00, 0x00, 
  0x90, 0x3b, 0x2d, 0x00, 0x80, 0x39, 0x00, 0x00, 0x90, 0x34, 0x2d, 0x84, 0x00, 0x80, 0x3b, 0x00, 
  0x00, 0x90, 0x39, 0x2b, 0x00, 0x80, 0x34, 0x00, 0x00, 0x90, 0x35, 0x2f, 0x84, 0x00, 0x80, 0x39, 
  0x00, 0x00, 0x90, 0x37, 0x30, 0x00, 0x80, 0x35, 0x00, 0x00, 0x90, 0x30, 0x29, 0x84, 0x00, 0x80, 
  0x37, 0x00, 0x00, 0x90, 0x39, 0x30, 0x00, 0x80, 0x30, 0x00, 0x00, 0x90, 0x35, 0x34, 0x84, 0x00, 
  0x80, 0x39, 0x00, 0x00, 0x90, 0x3b, 0x33, 0x00, 0x80, 0x35, 0x00, 0x00, 0x90, 0x37, 0x35, 0x84, 
  0x00, 0x80, 0x3b, 0x00, 0x00, 0x90, 0x40, 0x2f, 0x00, 0x80, 0x37, 0x00, 0x00, 0x90, 0x3c, 0x36, 
  0x84, 0x00, 0x80, 0x40, 0x00, 0x00, 0x90, 0x3e, 0x2d, 0x00, 0x80, 0x3c, 0x00, 0x00, 0x90, 0x37, 
  0x31, 0x84, 0x00, 0x80, 0x3e, 0x00, 0x00, 0x90, 0x3c, 0x2b, 0x00, 0x80, 0x37, 0x00, 0x00, 0x90, 
  0x39, 0x33, 0x84, 0x00, 0x80, 0x3c, 0x00, 0x00, 0x90, 0x3b, 0x2c, 0x00, 0x80, 0x39, 0x00, 0x00, 
  0x90, 0x34, 0x2d, 0x84, 0x00, 0x80, 0x3b, 0x00, 0x00, 0x90, 0x39, 0x30, 0x00, 0x80, 0x34, 0x00, 
  0x00, 0x90, 0x35, 0x2c, 0x84, 0x00, 0x80, 0x39, 0x00, 0x00, 0x90, 0x37, 0x2d, 0x00, 0x80, 0x35, 
  0x00, 0x00, 0x90, 0x30, 0x2a, 0x84, 0x00, 0x80, 0x37, 0x00, 0x00, 0x90, 0x39, 0x37, 0x00, 0x80, 
  0x30, 0x00, 0x00, 0x90, 0x35, 0x34, 0x84, 0x00, 0x80, 0x39, 0x00, 0x00, 0x90, 0x3b, 0x38, 0x00, 
  0x80, 0x35, 0x00, 0x00, 0x90, 0x37, 0x35, 0x84, 0x00, 0x80, 0x3b, 0x00, 0x00, 0x90, 0x43, 0x3d, 
  0x00, 0x90, 0x4c, 0x3d, 0x00, 0x80, 0x37, 0x00, 0x00, 0x90, 0x3c, 0x3b, 0x84, 0x00, 0x80, 0x43, 
  0x00, 0x00, 0x80, 0x4c, 0x00, 0x00, 0x90, 0x47, 0x2f, 0x00, 0x90, 0x4a, 0x2f, 0x00, 0x80, 0x3c, 
  0x00, 0x00, 0x90, 0x37, 0x2e, 0x84, 0x00, 0x80, 0x47, 0x00, 0x00, 0x80, 0x4a, 0x00, 0x00, 0x90, 
  0x48, 0x2b, 0x00, 0x80, 0x37, 0x00, 0x00, 0x90, 0x39, 0x2f, 0x84, 0x00, 0x80, 0x48, 0x00, 0x00, 
  0x90, 0x43, 0x2c, 0x00, 0x90, 0x47, 0x2c, 0x00, 0x80, 0x39, 0x00, 0x00, 0x90, 0x34, 0x2c, 0x84, 
  0x00, 0x80, 0x43, 0x00, 0x00, 0x80, 0x47, 0x00, 0x00, 0x90, 0x3c, 0x2e, 0x00, 0x90, 0x45, 0x2e, 
  0x00, 0x80, 0x34, 0x00, 0x00, 0x90, 0x35, 0x31, 0x84, 0x00, 0x80, 0x3c, 0x00, 0x00, 0x80, 0x45, 
  0x00, 0x00, 0x90, 0x40, 0x2e, 0x00, 0x90, 0x43, 0x2e, 0x00, 0x80, 0x35, 0x00, 0x00, 0x90, 0x30, 
  0x32, 0x84, 0x00, 0x80, 0x40, 0x00, 0x00, 0x80, 0x43, 0x00, 0x00, 0x90, 0x41, 0x2e, 0x00, 0x90, 
  0x45, 0x2e, 0x00, 0x80, 0x30, 0x00, 0x00, 0x90, 0x35, 0x35, 0x84, 0x00, 0x80, 0x41, 0x00, 0x00, 
  0x80, 0x45, 0x00, 0x00, 0x90, 0x3e, 0x34, 0x00, 0x90, 0x47, 0x34, 0x00, 0x80, 0x35, 0x00, 0x00, 
  0x90, 0x37, 0x30, 0x84, 0x00, 0x80, 0x3e, 0x00, 0x00, 0x80, 0x47, 0x00, 0x00, 0x90, 0x48, 0x3f, 
  0x00, 0x80, 0x37, 0x00, 0x00, 0x90, 0x3c, 0x4e, 0x00, 0x90, 0x40, 0x4e, 0x82, 0x00, 0x80, 0x48, 
  0x00, 0x00, 0x90, 0x48, 0x42, 0x82, 0x00, 0x90, 0x4a, 0x46, 0x00, 0x80, 0x3c, 0x00, 0x00, 0x80, 
  0x40, 0x00, 0x00, 0x90, 0x37, 0x41, 0x00, 0x90, 0x3e, 0x41, 0x05, 0x80, 0x48, 0x00, 0x81, 0x7b, 
  0x90, 0x47, 0x41, 0x05, 0x80, 0x4a, 0x00, 0x81, 0x7b, 0x90, 0x48, 0x45, 0x00, 0x80, 0x37, 0x00, 
  0x00, 0x80, 0x3e, 0x00, 0x00, 0x90, 0x39, 0x38, 0x00, 0x90, 0x3c, 0x38, 0x05, 0x80, 0x47, 0x00, 
  0x81, 0x7b, 0x90, 0x4c, 0x46, 0x05, 0x80, 0x48, 0x00, 0x81, 0x7b, 0x90, 0x4f, 0x4b, 0x00, 0x80, 
  0x39, 0x00, 0x00, 0x80, 0x3c, 0x00, 0x00, 0x90, 0x34, 0x3b, 0x05, 0x80, 0x4c, 0x00, 0x81, 0x7b, 
  0x90, 0x43, 0x32, 0x05, 0x80, 0x4f, 0x00, 0x81, 0x7b, 0x90, 0x45, 0x33, 0x00, 0x80, 0x34, 0x00, 
  0x00, 0x90, 0x35, 0x44, 0x00, 0x90, 0x39, 0x44, 0x05, 0x80, 0x43, 0x00, 0x81, 0x7b, 0x90, 0x41, 
  0x3c, 0x05, 0x80, 0x45, 0x00, 0x81, 0x7b, 0x90, 0x40, 0x37, 0x00, 0x80, 0x35, 0x00, 0x00, 0x80, 
  0x39, 0x00, 0x00, 0x90, 0x30, 0x36, 0x05, 0x80, 0x41, 0x00, 0x81, 0x7b, 0x90, 0x43, 0x42, 0x05, 
  0x80, 0x40, 0x00, 0x81, 0x7b, 0x90, 0x41, 0x42, 0x00, 0x80, 0x30, 0x00, 0x00, 0x90, 0x35, 0x45, 
  0x00, 0x90, 0x39, 0x45, 0x05, 0x80, 0x43, 0x00, 0x81, 0x7b, 0x90, 0x48, 0x4b, 0x05, 0x80, 0x41, 
  0x00, 0x81, 0x7b, 0x90, 0x47, 0x4b, 0x00, 0x80, 0x35, 0x00, 0x00, 0x80, 0x39, 0x00, 0x00, 0x90, 
  0x37, 0x41, 0x00, 0x90, 0x3b, 0x41, 0x05, 0x80, 0x48, 0x00, 0x81, 0x7b, 0x90, 0x43, 0x36, 0x05, 
  0x80, 0x47, 0x00, 0x81, 0x7b, 0x90, 0x48, 0x3e, 0x00, 0x80, 0x37, 0x00, 0x00, 0x80, 0x3b, 0x00, 
  0x00, 0x90, 0x3c, 0x4b, 0x00, 0x90, 0x40, 0x4b, 0x05, 0x80, 0x43, 0x00, 0x81, 0x6e, 0x80, 0x48, 
  0x00, 0x0d, 0x90, 0x4c, 0x58, 0x81, 0x00, 0x90, 0x4f, 0x61, 0x02, 0x80, 0x4c, 0x00, 0x7e, 0x80, 
  0x4f, 0x00, 0x00, 0x90, 0x4f, 0x56, 0x00, 0x80, 0x3c, 0x00, 0x00, 0x80, 0x40, 0x00, 0x00, 0x90, 
  0x37, 0x47, 0x81, 0x00, 0x90, 0x51, 0x58, 0x02, 0x80, 0x4f, 0x00, 0x7e, 0x90, 0x4f, 0x48, 0x02, 
  0x80, 0x51, 0x00, 0x7e, 0x90, 0x4d, 0x44, 0x02, 0x80, 0x4f, 0x00, 0x7e, 0x90, 0x4c, 0x4b, 0x00, 
  0x80, 0x37, 0x00, 0x00, 0x90, 0x39, 0x5a, 0x00, 0x90, 0x3c, 0x5a, 0x02, 0x80, 0x4d, 0x00, 0x82, 
  0x6a, 0x80, 0x4c, 0x00, 0x14, 0x90, 0x4c, 0x55, 0x81, 0x00, 0x80, 0x4c, 0x00, 0x00, 0x90, 0x4c, 
  0x4f, 0x00, 0x80, 0x39, 0x00, 0x00, 0x80, 0x3c, 0x00, 0x00, 0x90, 0x34, 0x4e, 0x00, 0x90, 0x37, 
  0x4e, 0x81, 0x00, 0x90, 0x4d, 0x50, 0x02, 0x80, 0x4c, 0x00, 0x7e, 0x90, 0x4c, 0x4e, 0x02, 0x80, 
  0x4d, 0x00, 0x7e, 0x90, 0x4a, 0x4c, 0x02, 0x80, 0x4c, 0x00, 0x7e, 0x90, 0x48, 0x4c, 0x00, 0x80, 
  0x34, 0x00, 0x00, 0x80, 0x37, 0x00, 0x00, 0x90, 0x35, 0x55, 0x00, 0x90, 0x39, 0x55, 0x02, 0x80, 
  0x4a, 0x00, 0x7e, 0x90, 0x46, 0x49, 0x02, 0x80, 0x48, 0x00, 0x7e, 0x90, 0x45, 0x4b, 0x02, 0x80, 
  0x46, 0x00, 0x7e, 0x90, 0x46, 0x49, 0x02, 0x80, 0x45, 0x00, 0x7e, 0x90, 0x43, 0x49, 0x00, 0x80, 
  0x35, 0x00, 0x00, 0x80, 0x39, 0x00, 0x00, 0x90, 0x30, 0x46, 0x00, 0x90, 0x34, 0x46, 0x02, 0x80, 
  0x46, 0x00, 0x81, 0x7e, 0x90, 0x40, 0x41, 0x05, 0x80, 0x43, 0x00, 0x81, 0x7b, 0x90, 0x3c, 0x48, 
  0x00, 0x80, 0x30, 0x00, 0x00, 0x80, 0x34, 0x00, 0x00, 0x90, 0x35, 0x54, 0x00, 0x90, 0x39, 0x54, 
  0x05, 0x80, 0x40, 0x00, 0x81, 0x7b, 0x90, 0x41, 0x4e, 0x05, 0x80, 0x3c, 0x00, 0x7b, 0x90, 0x40, 
  0x4e, 0x02, 0x80, 0x41, 0x00, 0x7e, 0x90, 0x3e, 0x48, 0x00, 0x80, 0x35, 0x00, 0x00, 0x80, 0x39, 
  0x00, 0x00, 0x90, 0x37, 0x53, 0x00, 0x90, 0x3b, 0x53, 0x02, 0x80, 0x40, 0x00, 0x81, 0x7e, 0x90, 
  0x43, 0x5c, 0x05, 0x80, 0x3e, 0x00, 0x7b, 0x90, 0x41, 0x5a, 0x02, 0x80, 0x43, 0x00, 0x77, 0x80, 
  0x41, 0x00, 0x07, 0x80, 0x37, 0x00, 0x00, 0x80, 0x3b, 0x00, 0x00, 0x90, 0x3c, 0x57, 0x00, 0x90, 
  0x40, 0x57, 0x82, 0x00, 0x90, 0x48, 0x32, 0x82, 0x00, 0x90, 0x4a, 0x36, 0x00, 0x80, 0x3c, 0x00, 
  0x00, 0x80, 0x40, 0x00, 0x00, 0x90, 0x37, 0x34, 0x05, 0x80, 0x48, 0x00, 0x81, 0x7b, 0x90, 0x47, 
  0x3e, 0x05, 0x80, 0x4a, 0x00, 0x81, 0x7b, 0x90, 0x48, 0x42, 0x00, 0x80, 0x37, 0x00, 0x00, 0x90, 
  0x39, 0x46, 0x00, 0x90, 0x3c, 0x46, 0x05, 0x80, 0x47, 0x00, 0x81, 0x7b, 0x90, 0x40, 0x32, 0x05, 
  0x80, 0x48, 0x00, 0x81, 0x7b, 0x90, 0x43, 0x3b, 0x00, 0x80, 0x39, 0x00, 0x00, 0x80, 0x3c, 0x00, 
  0x00, 0x90, 0x34, 0x40, 0x00, 0x90, 0x3b, 0x40, 0x05, 0x80, 0x40, 0x00, 0x82, 0x7b, 0x90, 0x45, 
  0x49, 0x07, 0x80, 0x43, 0x00, 0x79, 0x90, 0x41, 0x40, 0x00, 0x80, 0x34, 0x00, 0x00, 0x80, 0x3b, 
  0x00, 0x00, 0x90, 0x35, 0x39, 0x00, 0x90, 0x39, 0x39, 0x02, 0x80, 0x45, 0x00, 0x81, 0x7e, 0x90, 
  0x3c, 0x34, 0x05, 0x80, 0x41, 0x00, 0x81, 0x7b, 0x90, 0x40, 0x39, 0x00, 0x80, 0x35, 0x00, 0x00, 
  0x80, 0x39, 0x00, 0x00, 0x90, 0x30, 0x42, 0x00, 0x90, 0x37, 0x42, 0x05, 0x80, 0x3c, 0x00, 0x81, 
  0x7b, 0x90, 0x43, 0x44, 0x05, 0x80, 0x40, 0x00, 0x81, 0x7b, 0x90, 0x41, 0x38, 0x00, 0x80, 0x30, 
  0x00, 0x00, 0x80, 0x37, 0x00, 0x00, 0x90, 0x35, 0x3a, 0x00, 0x90, 0x39, 0x3a, 0x05, 0x80, 0x43, 
  0x00, 0x81, 0x7b, 0x90, 0x40, 0x36, 0x05, 0x80, 0x41, 0x00, 0x81, 0x7b, 0x90, 0x3e, 0x34, 0x00, 
  0x80, 0x35, 0x00, 0x00, 0x80, 0x39, 0x00, 0x00, 0x90, 0x37, 0x3c, 0x00, 0x90, 0x3b, 0x3c, 0x05, 
  0x80, 0x40, 0x00, 0x81, 0x7b, 0x90, 0x43, 0x3f, 0x05, 0x80, 0x3e, 0x00, 0x81, 0x7b, 0x90, 0x3c, 
  0x35, 0x00, 0x90, 0x40, 0x35, 0x00, 0x80, 0x37, 0x00, 0x00, 0x80, 0x3b, 0x00, 0x00, 0x90, 0x30, 
  0x33, 0x05, 0x80, 0x43, 0x00, 0x87, 0x47, 0x80, 0x3c, 0x00, 0x00, 0x80, 0x40, 0x00, 0x34, 0x80, 
  0x30, 0x00, 0x01, 0xff, 0x2f, 0x00
};