// array size is 2631
static const char bytes[]  = {
  0x4d, 0x54, 0x68, 0x64, 0x00, 0x00, 0x00, 0x06, 0x00, 0x01, 0x00, 0x02, 0x01, 0xe0, 0x4d, 0x54, 
  0x72, 0x6b, 0x00, 0x00, 0x04, 0xf1, 0x00, 0xff, 0x58, 0x04, 0x04, 0x02, 0x18, 0x08, 0x00, 0xff, 
  0x59, 0x02, 0xfe, 0x00, 0x00, 0xff, 0x51, 0x03, 0x07, 0xa1, 0x20, 0x00, 0xb0, 0x79, 0x00, 0x00, 
  0xc0, 0x00, 0x00, 0xb0, 0x07, 0x64, 0x00, 0x0a, 0x40, 0x00, 0x5b, 0x00, 0x00, 0x5d, 0x00, 0x00, 
  0xff, 0x21, 0x01, 0x00, 0x00, 0x90, 0x43, 0x31, 0x81, 0x63, 0x43, 0x00, 0x0d, 0x43, 0x31, 0x81, 
  0x63, 0x43, 0x00, 0x0d, 0x43, 0x31, 0x81, 0x63, 0x43, 0x00, 0x0d, 0x43, 0x21, 0x00, 0xb0, 0x02, 
  0x21, 0x1e, 0x02, 0x22, 0x0f, 0x02, 0x23, 0x0f, 0x02, 0x24, 0x0f, 0x02, 0x25, 0x0f, 0x02, 0x26, 
  0x0f, 0x02, 0x27, 0x0f, 0x02, 0x28, 0x0f, 0x02, 0x29, 0x0f, 0x02, 0x2a, 0x0f, 0x02, 0x2b, 0x0f, 
  0x02, 0x2c, 0x0f, 0x02, 0x2d, 0x0f, 0x02, 0x2e, 0x0f, 0x02, 0x2f, 0x02, 0x90, 0x43, 0x00, 0x0d, 
  0x43, 0x30, 0x00, 0xb0, 0x02, 0x30, 0x0f, 0x02, 0x31, 0x0f, 0x02, 0x32, 0x0f, 0x02, 0x33, 0x0f, 
  0x02, 0x34, 0x0f, 0x02, 0x35, 0x0f, 0x02, 0x36, 0x0f, 0x02, 0x37, 0x0f, 0x02, 0x38, 0x0f, 0x02, 
  0x39, 0x0f, 0x02, 0x3a, 0x0f, 0x02, 0x3b, 0x0f, 0x02, 0x3c, 0x0f, 0x02, 0x3d, 0x0f, 0x02, 0x3e, 
  0x0f, 0x02, 0x3f, 0x02, 0x90, 0x43, 0x00, 0x0d, 0x43, 0x40, 0x00, 0xb0, 0x02, 0x40, 0x0f, 0x02, 
  0x41, 0x0f, 0x02, 0x42, 0x0f, 0x02, 0x43, 0x0f, 0x02, 0x44, 0x0f, 0x02, 0x45, 0x0f, 0x02, 0x46, 
  0x0f, 0x02, 0x47, 0x0f, 0x02, 0x48, 0x0f, 0x02, 0x49, 0x0f, 0x02, 0x4a, 0x0f, 0x02, 0x4b, 0x0f, 
  0x02, 0x4c, 0x0f, 0x02, 0x4d, 0x0f, 0x02, 0x4e, 0x0f, 0x02, 0x4f, 0x02, 0x90, 0x43, 0x00, 0x0d, 
  0x43, 0x50, 0x00, 0xb0, 0x02, 0x50, 0x0f, 0x02, 0x51, 0x0f, 0x02, 0x52, 0x0f, 0x02, 0x53, 0x0f, 
  0x02, 0x54, 0x0f, 0x02, 0x55, 0x0f, 0x02, 0x56, 0x0f, 0x02, 0x57, 0x0f, 0x02, 0x58, 0x0f, 0x02, 
  0x59, 0x0f, 0x02, 0x5a, 0x0f, 0x02, 0x5b, 0x0f, 0x02, 0x5c, 0x0f, 0x02, 0x5d, 0x0f, 0x02, 0x5e, 
  0x0f, 0x02, 0x5f, 0x02, 0x90, 0x43, 0x00, 0x0d, 0x43, 0x60, 0x00, 0xb0, 0x02, 0x60, 0x0f, 0x02, 
  0x61, 0x0f, 0x02, 0x62, 0x0f, 0x02, 0x63, 0x0f, 0x02, 0x64, 0x0f, 0x02, 0x65, 0x0f, 0x02, 0x66, 
  0x0f, 0x02, 0x67, 0x0f, 0x02, 0x68, 0x0f, 0x02, 0x69, 0x0f, 0x02, 0x6a, 0x0f, 0x02, 0x6b, 0x0f, 
  0x02, 0x6c, 0x0f, 0x02, 0x6d, 0x0f, 0x02, 0x6e, 0x0f, 0x02, 0x6f, 0x02, 0x90, 0x43, 0x00, 0x0d, 
  0x46, 0x70, 0x81, 0x63, 0x46, 0x00, 0x0d, 0x46, 0x70, 0x81, 0x63, 0x46, 0x00, 0x0d, 0x46, 0x70, 
  0x81, 0x63, 0x46, 0x00, 0x0d, 0x46, 0x70, 0x81, 0x63, 0x46, 0x00, 0x0d, 0x46, 0x70, 0x81, 0x63, 
  0x46, 0x00, 0x0d, 0x46, 0x70, 0x81, 0x63, 0x46, 0x00, 0x0d, 0x46, 0x70, 0x81, 0x63, 0x46, 0x00, 
  0x0d, 0x46, 0x70, 0x81, 0x63, 0x46, 0x00, 0x0d, 0x4a, 0x70, 0x81, 0x63, 0x4a, 0x00, 0x0d, 0x4a, 
  0x70, 0x81, 0x63, 0x4a, 0x00, 0x0d, 0x4a, 0x70, 0x81, 0x63, 0x4a, 0x00, 0x0d, 0x4a, 0x70, 0x81, 
  0x63, 0x4a, 0x00, 0x0d, 0x48, 0x70, 0x81, 0x63, 0x48, 0x00, 0x0d, 0x48, 0x70, 0x81, 0x63, 0x48, 
  0x00, 0x0d, 0x48, 0x70, 0x81, 0x63, 0x48, 0x00, 0x0d, 0x48, 0x70, 0x81, 0x63, 0x48, 0x00, 0x0d, 
  0x4d, 0x70, 0x81, 0x63, 0x4d, 0x00, 0x0d, 0x4d, 0x70, 0x81, 0x63, 0x4d, 0x00, 0x0d, 0x4d, 0x70, 
  0x81, 0x63, 0x4d, 0x00, 0x0d, 0x4d, 0x70, 0x81, 0x63, 0x4d, 0x00, 0x0d, 0x4d, 0x70, 0x81, 0x63, 
  0x4d, 0x00, 0x0d, 0x4d, 0x70, 0x81, 0x63, 0x4d, 0x00, 0x0d, 0x4d, 0x70, 0x81, 0x63, 0x4d, 0x00, 
  0x0d, 0x4d, 0x70, 0x81, 0x63, 0x4d, 0x00, 0x0d, 0x48, 0x70, 0x81, 0x63, 0x48, 0x00, 0x0d, 0x46, 
  0x70, 0x81, 0x63, 0x46, 0x00, 0x0d, 0x45, 0x70, 0x81, 0x63, 0x45, 0x00, 0x0d, 0x41, 0x70, 0x81, 
  0x63, 0x41, 0x00, 0x0d, 0x43, 0x70, 0x83, 0x47, 0x43, 0x00, 0x19, 0x43, 0x70, 0x81, 0x63, 0x43, 
  0x00, 0x0d, 0x4a, 0x70, 0x81, 0x63, 0x4a, 0x00, 0x0d, 0x48, 0x70, 0x83, 0x47, 0x48, 0x00, 0x19, 
  0x46, 0x70, 0x83, 0x47, 0x46, 0x00, 0x19, 0x45, 0x70, 0x83, 0x47, 0x45, 0x00, 0x19, 0x45, 0x70, 
  0x81, 0x63, 0x45, 0x00, 0x0d, 0x45, 0x70, 0x81, 0x63, 0x45, 0x00, 0x0d, 0x48, 0x70, 0x83, 0x47, 
  0x48, 0x00, 0x19, 0x46, 0x70, 0x81, 0x63, 0x46, 0x00, 0x0d, 0x45, 0x70, 0x81, 0x63, 0x45, 0x00, 
  0x0d, 0x43, 0x70, 0x83, 0x47, 0x43, 0x00, 0x19, 0x43, 0x70, 0x81, 0x63, 0x43, 0x00, 0x0d, 0x52, 
  0x70, 0x81, 0x63, 0x52, 0x00, 0x0d, 0x51, 0x70, 0x81, 0x63, 0x51, 0x00, 0x0d, 0x52, 0x70, 0x81, 
  0x63, 0x52, 0x00, 0x0d, 0x51, 0x70, 0x81, 0x63, 0x51, 0x00, 0x0d, 0x52, 0x70, 0x81, 0x63, 0x52, 
  0x00, 0x0d, 0x43, 0x70, 0x83, 0x47, 0x43, 0x00, 0x19, 0x43, 0x70, 0x81, 0x63, 0x43, 0x00, 0x0d, 
  0x52, 0x70, 0x81, 0x63, 0x52, 0x00, 0x0d, 0x51, 0x70, 0x81, 0x63, 0x51, 0x00, 0x0d, 0x52, 0x70, 
  0x81, 0x63, 0x52, 0x00, 0x0d, 0x51, 0x70, 0x81, 0x63, 0x51, 0x00, 0x0d, 0x52, 0x70, 0x81, 0x63, 
  0x52, 0x00, 0x0d, 0x43, 0x70, 0x83, 0x47, 0x43, 0x00, 0x19, 0x43, 0x70, 0x81, 0x63, 0x43, 0x00, 
  0x0d, 0x4a, 0x70, 0x81, 0x63, 0x4a, 0x00, 0x0d, 0x48, 0x70, 0x83, 0x47, 0x48, 0x00, 0x19, 0x46, 
  0x70, 0x83, 0x47, 0x46, 0x00, 0x19, 0x45, 0x70, 0x83, 0x47, 0x45, 0x00, 0x19, 0x45, 0x70, 0x81, 
  0x63, 0x45, 0x00, 0x0d, 0x45, 0x70, 0x81, 0x63, 0x45, 0x00, 0x0d, 0x48, 0x70, 0x83, 0x47, 0x48, 
  0x00, 0x19, 0x46, 0x70, 0x81, 0x63, 0x46, 0x00, 0x0d, 0x45, 0x70, 0x81, 0x63, 0x45, 0x00, 0x0d, 
  0x43, 0x70, 0x83, 0x47, 0x43, 0x00, 0x19, 0x43, 0x70, 0x81, 0x63, 0x43, 0x00, 0x0d, 0x52, 0x70, 
  0x81, 0x63, 0x52, 0x00, 0x0d, 0x51, 0x70, 0x81, 0x63, 0x51, 0x00, 0x0d, 0x52, 0x70, 0x81, 0x63, 
  0x52, 0x00, 0x0d, 0x51, 0x70, 0x81, 0x63, 0x51, 0x00, 0x0d, 0x52, 0x70, 0x81, 0x63, 0x52, 0x00, 
  0x0d, 0x43, 0x70, 0x83, 0x47, 0x43, 0x00, 0x19, 0x43, 0x70, 0x81, 0x63, 0x43, 0x00, 0x0d, 0x52, 
  0x70, 0x81, 0x63, 0x52, 0x00, 0x0d, 0x51, 0x70, 0x81, 0x63, 0x51, 0x00, 0x0d, 0x52, 0x70, 0x81, 
  0x63, 0x52, 0x00, 0x0d, 0x51, 0x70, 0x81, 0x63, 0x51, 0x00, 0x0d, 0x52, 0x70, 0x81, 0x63, 0x52, 
  0x00, 0x0d, 0x43, 0x70, 0x83, 0x47, 0x43, 0x00, 0x19, 0x43, 0x70, 0x81, 0x63, 0x43, 0x00, 0x0d, 
  0x4a, 0x70, 0x81, 0x63, 0x4a, 0x00, 0x0c, 0xff, 0x51, 0x03, 0x07, 0xa1, 0x20, 0x01, 0x90, 0x48, 
  0x70, 0x83, 0x47, 0x48, 0x00, 0x19, 0x46, 0x70, 0x83, 0x47, 0x46, 0x00, 0x19, 0x45, 0x70, 0x83, 
  0x47, 0x45, 0x00, 0x19, 0x45, 0x70, 0x81, 0x63, 0x45, 0x00, 0x0d, 0x45, 0x70, 0x81, 0x63, 0x45, 
  0x00, 0x0d, 0x48, 0x70, 0x83, 0x47, 0x48, 0x00, 0x19, 0x46, 0x70, 0x81, 0x63, 0x46, 0x00, 0x0d, 
  0x45, 0x70, 0x81, 0x63, 0x45, 0x00, 0x0d, 0x43, 0x70, 0x83, 0x47, 0x43, 0x00, 0x19, 0x43, 0x70, 
  0x81, 0x63, 0x43, 0x00, 0x0d, 0x52, 0x70, 0x81, 0x63, 0x52, 0x00, 0x0d, 0x51, 0x70, 0x81, 0x63, 
  0x51, 0x00, 0x0d, 0x52, 0x70, 0x81, 0x63, 0x52, 0x00, 0x0d, 0x51, 0x70, 0x81, 0x63, 0x51, 0x00, 
  0x0d, 0x52, 0x70, 0x81, 0x63, 0x52, 0x00, 0x0d, 0x43, 0x70, 0x83, 0x47, 0x43, 0x00, 0x19, 0x43, 
  0x70, 0x81, 0x63, 0x43, 0x00, 0x0d, 0x52, 0x70, 0x81, 0x63, 0x52, 0x00, 0x0d, 0x51, 0x70, 0x00, 
  0xb0, 0x02, 0x70, 0x3c, 0x02, 0x6f, 0x3c, 0x02, 0x6e, 0x3c, 0x02, 0x6d, 0x2f, 0x90, 0x51, 0x00, 
  0x0d, 0x52, 0x70, 0x00, 0xb0, 0x02, 0x6c, 0x3c, 0x02, 0x6b, 0x3c, 0x02, 0x6a, 0x3c, 0x02, 0x69, 
  0x2f, 0x90, 0x52, 0x00, 0x0d, 0x51, 0x70, 0x00, 0xb0, 0x02, 0x70, 0x2d, 0x02, 0x6f, 0x0f, 0x02, 
  0x67, 0x1e, 0x02, 0x6e, 0x1e, 0x02, 0x66, 0x0f, 0x02, 0x6d, 0x2d, 0x02, 0x6c, 0x2d, 0x02, 0x6b, 
  0x02, 0x90, 0x51, 0x00, 0x0d, 0x52, 0x6b, 0x00, 0xb0, 0x02, 0x64, 0x1e, 0x02, 0x6a, 0x1e, 0x02, 
  0x63, 0x0f, 0x02, 0x69, 0x2d, 0x02, 0x68, 0x2d, 0x02, 0x67, 0x0f, 0x02, 0x61, 0x1e, 0x02, 0x66, 
  0x11, 0x90, 0x52, 0x00, 0x0d, 0x43, 0x66, 0x00, 0xb0, 0x02, 0x60, 0x0f, 0x02, 0x65, 0x2d, 0x02, 
  0x64, 0x2d, 0x02, 0x63, 0x0f, 0x02, 0x5e, 0x1e, 0x02, 0x62, 0x1e, 0x02, 0x5d, 0x0f, 0x02, 0x61, 
  0x2d, 0x02, 0x60, 0x2d, 0x02, 0x5f, 0x0f, 0x02, 0x5b, 0x1e, 0x02, 0x5e, 0x1e, 0x02, 0x5a, 0x0f, 
  0x02, 0x5d, 0x2d, 0x02, 0x5c, 0x2d, 0x02, 0x5b, 0x0f, 0x02, 0x58, 0x1e, 0x02, 0x5a, 0x1e, 0x02, 
  0x57, 0x0f, 0x02, 0x59, 0x2d, 0x02, 0x58, 0x2d, 0x02, 0x57, 0x0f, 0x02, 0x55, 0x1e, 0x02, 0x56, 
  0x1e, 0x02, 0x54, 0x0f, 0x02, 0x55, 0x2d, 0x02, 0x54, 0x2d, 0x02, 0x53, 0x0f, 0x02, 0x52, 0x1e, 
  0x02, 0x52, 0x1e, 0x02, 0x51, 0x0f, 0x02, 0x51, 0x2c, 0x90, 0x43, 0x00, 0x01, 0x43, 0x50, 0x8e, 
  0x1f, 0x43, 0x00, 0x01, 0xff, 0x2f, 0x00, 0x4d, 0x54, 0x72, 0x6b, 0x00, 0x00, 0x05, 0x38, 0x00, 
  0xff, 0x59, 0x02, 0xfe, 0x00, 0x00, 0xff, 0x21, 0x01, 0x00, 0x00, 0x90, 0x37, 0x31, 0x00, 0x33, 
  0x31, 0x81, 0x63, 0x33, 0x00, 0x0d, 0x33, 0x31, 0x81, 0x63, 0x33, 0x00, 0x0d, 0x33, 0x31, 0x81, 
  0x63, 0x33, 0x00, 0x0d, 0x33, 0x21, 0x00, 0xb0, 0x02, 0x21, 0x1e, 0x02, 0x22, 0x0f, 0x02, 0x23, 
  0x0f, 0x02, 0x24, 0x0f, 0x02, 0x25, 0x0f, 0x02, 0x26, 0x0f, 0x02, 0x27, 0x0f, 0x02, 0x28, 0x0f, 
  0x02, 0x29, 0x0f, 0x02, 0x2a, 0x0f, 0x02, 0x2b, 0x0f, 0x02, 0x2c, 0x0f, 0x02, 0x2d, 0x0f, 0x02, 
  0x2e, 0x0f, 0x02, 0x2f, 0x02, 0x90, 0x33, 0x00, 0x0d, 0x33, 0x30, 0x00, 0xb0, 0x02, 0x30, 0x0f, 
  0x02, 0x31, 0x0f, 0x02, 0x32, 0x0f, 0x02, 0x33, 0x0f, 0x02, 0x34, 0x0f, 0x02, 0x35, 0x0f, 0x02, 
  0x36, 0x0f, 0x02, 0x37, 0x0f, 0x02, 0x38, 0x0f, 0x02, 0x39, 0x0f, 0x02, 0x3a, 0x0f, 0x02, 0x3b, 
  0x0f, 0x02, 0x3c, 0x0f, 0x02, 0x3d, 0x0f, 0x02, 0x3e, 0x0f, 0x02, 0x3f, 0x02, 0x90, 0x33, 0x00, 
  0x0d, 0x33, 0x40, 0x00, 0xb0, 0x02, 0x40, 0x0f, 0x02, 0x41, 0x0f, 0x02, 0x42, 0x0f, 0x02, 0x43, 
  0x0f, 0x02, 0x44, 0x0f, 0x02, 0x45, 0x0f, 0x02, 0x46, 0x0f, 0x02, 0x47, 0x0f, 0x02, 0x48, 0x0f, 
  0x02, 0x49, 0x0f, 0x02, 0x4a, 0x0f, 0x02, 0x4b, 0x0f, 0x02, 0x4c, 0x0f, 0x02, 0x4d, 0x0f, 0x02, 
  0x4e, 0x0f, 0x02, 0x4f, 0x02, 0x90, 0x33, 0x00, 0x0d, 0x33, 0x50, 0x00, 0xb0, 0x02, 0x50, 0x0f, 
  0x02, 0x51, 0x0f, 0x02, 0x52, 0x0f, 0x02, 0x53, 0x0f, 0x02, 0x54, 0x0f, 0x02, 0x55, 0x0f, 0x02, 
  0x56, 0x0f, 0x02, 0x57, 0x0f, 0x02, 0x58, 0x0f, 0x02, 0x59, 0x0f, 0x02, 0x5a, 0x0f, 0x02, 0x5b, 
  0x0f, 0x02, 0x5c, 0x0f, 0x02, 0x5d, 0x0f, 0x02, 0x5e, 0x0f, 0x02, 0x5f, 0x02, 0x90, 0x33, 0x00, 
  0x0d, 0x33, 0x60, 0x00, 0xb0, 0x02, 0x60, 0x0f, 0x02, 0x61, 0x0f, 0x02, 0x62, 0x0f, 0x02, 0x63, 
  0x0f, 0x02, 0x64, 0x0f, 0x02, 0x65, 0x0f, 0x02, 0x66, 0x0f, 0x02, 0x67, 0x0f, 0x02, 0x68, 0x0f, 
  0x02, 0x69, 0x08, 0x90, 0x37, 0x00, 0x07, 0xb0, 0x02, 0x6a, 0x0f, 0x02, 0x6b, 0x0f, 0x02, 0x6c, 
  0x0f, 0x02, 0x6d, 0x0f, 0x02, 0x6e, 0x0f, 0x02, 0x6f, 0x02, 0x90, 0x33, 0x00, 0x0d, 0x37, 0x70, 
  0x00, 0x33, 0x70, 0x81, 0x63, 0x33, 0x00, 0x0d, 0x33, 0x70, 0x81, 0x63, 0x33, 0x00, 0x0d, 0x33, 
  0x70, 0x81, 0x63, 0x33, 0x00, 0x0d, 0x33, 0x70, 0x81, 0x63, 0x33, 0x00, 0x0d, 0x33, 0x70, 0x81, 
  0x63, 0x33, 0x00, 0x0d, 0x33, 0x70, 0x81, 0x63, 0x33, 0x00, 0x0d, 0x33, 0x70, 0x81, 0x63, 0x33, 
  0x00, 0x0d, 0x33, 0x70, 0x81, 0x0f, 0x37, 0x00, 0x54, 0x33, 0x00, 0x0d, 0x37, 0x70, 0x00, 0x33, 
  0x70, 0x81, 0x63, 0x33, 0x00, 0x0d, 0x33, 0x70, 0x81, 0x63, 0x33, 0x00, 0x0d, 0x33, 0x70, 0x81, 
  0x63, 0x33, 0x00, 0x0d, 0x33, 0x70, 0x81, 0x63, 0x33, 0x00, 0x0d, 0x33, 0x70, 0x81, 0x63, 0x33, 
  0x00, 0x0d, 0x33, 0x70, 0x81, 0x63, 0x33, 0x00, 0x0d, 0x33, 0x70, 0x81, 0x63, 0x33, 0x00, 0x0d, 
  0x33, 0x70, 0x81, 0x0f, 0x37, 0x00, 0x54, 0x33, 0x00, 0x0d, 0x37, 0x70, 0x00, 0x33, 0x70, 0x81, 
  0x63, 0x33, 0x00, 0x0d, 0x33, 0x70, 0x81, 0x63, 0x33, 0x00, 0x0d, 0x33, 0x70, 0x81, 0x63, 0x33, 
  0x00, 0x0d, 0x33, 0x70, 0x81, 0x63, 0x33, 0x00, 0x0d, 0x33, 0x70, 0x81, 0x63, 0x33, 0x00, 0x0d, 
  0x33, 0x70, 0x81, 0x63, 0x33, 0x00, 0x0d, 0x33, 0x70, 0x81, 0x63, 0x33, 0x00, 0x0d, 0x33, 0x70, 
  0x81, 0x0f, 0x37, 0x00, 0x54, 0x33, 0x00, 0x87, 0x4d, 0x33, 0x70, 0x81, 0x63, 0x33, 0x00, 0x81, 
  0x05, 0x33, 0x70, 0x71, 0x33, 0x00, 0x07, 0x33, 0x70, 0x81, 0x63, 0x33, 0x00, 0x0d, 0x33, 0x70, 
  0x81, 0x63, 0x33, 0x00, 0x0d, 0x33, 0x70, 0x81, 0x63, 0x33, 0x00, 0x81, 0x05, 0x33, 0x70, 0x71, 
  0x33, 0x00, 0x07, 0x33, 0x70, 0x81, 0x63, 0x33, 0x00, 0x0d, 0x33, 0x70, 0x81, 0x63, 0x33, 0x00, 
  0x0d, 0x35, 0x70, 0x81, 0x63, 0x35, 0x00, 0x81, 0x05, 0x35, 0x70, 0x71, 0x35, 0x00, 0x07, 0x35, 
  0x70, 0x81, 0x63, 0x35, 0x00, 0x0d, 0x35, 0x70, 0x81, 0x63, 0x35, 0x00, 0x0d, 0x35, 0x70, 0x81, 
  0x63, 0x35, 0x00, 0x81, 0x05, 0x35, 0x70, 0x71, 0x35, 0x00, 0x07, 0x35, 0x70, 0x81, 0x63, 0x35, 
  0x00, 0x0d, 0x35, 0x70, 0x81, 0x63, 0x35, 0x00, 0x0d, 0x37, 0x70, 0x81, 0x63, 0x37, 0x00, 0x81, 
  0x05, 0x37, 0x70, 0x71, 0x37, 0x00, 0x07, 0x37, 0x70, 0x81, 0x63, 0x37, 0x00, 0x0d, 0x37, 0x70, 
  0x81, 0x63, 0x37, 0x00, 0x0d, 0x37, 0x70, 0x81, 0x63, 0x37, 0x00, 0x81, 0x05, 0x37, 0x70, 0x71, 
  0x37, 0x00, 0x07, 0x37, 0x70, 0x81, 0x63, 0x37, 0x00, 0x0d, 0x37, 0x70, 0x81, 0x63, 0x37, 0x00, 
  0x0d, 0x37, 0x70, 0x81, 0x63, 0x37, 0x00, 0x81, 0x05, 0x37, 0x70, 0x71, 0x37, 0x00, 0x07, 0x37, 
  0x70, 0x81, 0x63, 0x37, 0x00, 0x0d, 0x37, 0x70, 0x81, 0x63, 0x37, 0x00, 0x0d, 0x37, 0x70, 0x81, 
  0x63, 0x37, 0x00, 0x81, 0x05, 0x37, 0x70, 0x71, 0x37, 0x00, 0x07, 0x37, 0x70, 0x81, 0x63, 0x37, 
  0x00, 0x0d, 0x37, 0x70, 0x81, 0x63, 0x37, 0x00, 0x0d, 0x33, 0x70, 0x81, 0x63, 0x33, 0x00, 0x81, 
  0x05, 0x33, 0x70, 0x71, 0x33, 0x00, 0x07, 0x33, 0x70, 0x81, 0x63, 0x33, 0x00, 0x0d, 0x33, 0x70, 
  0x81, 0x63, 0x33, 0x00, 0x0d, 0x33, 0x70, 0x81, 0x63, 0x33, 0x00, 0x81, 0x05, 0x33, 0x70, 0x71, 
  0x33, 0x00, 0x07, 0x33, 0x70, 0x81, 0x63, 0x33, 0x00, 0x0d, 0x33, 0x70, 0x81, 0x63, 0x33, 0x00, 
  0x0d, 0x35, 0x70, 0x81, 0x63, 0x35, 0x00, 0x81, 0x05, 0x35, 0x70, 0x71, 0x35, 0x00, 0x07, 0x35, 
  0x70, 0x81, 0x63, 0x35, 0x00, 0x0d, 0x35, 0x70, 0x81, 0x63, 0x35, 0x00, 0x0d, 0x35, 0x70, 0x81, 
  0x63, 0x35, 0x00, 0x81, 0x05, 0x35, 0x70, 0x71, 0x35, 0x00, 0x07, 0x35, 0x70, 0x81, 0x63, 0x35, 
  0x00, 0x0d, 0x35, 0x70, 0x81, 0x63, 0x35, 0x00, 0x0d, 0x37, 0x70, 0x81, 0x63, 0x37, 0x00, 0x81, 
  0x05, 0x37, 0x70, 0x71, 0x37, 0x00, 0x07, 0x37, 0x70, 0x81, 0x63, 0x37, 0x00, 0x0d, 0x37, 0x70, 
  0x81, 0x63, 0x37, 0x00, 0x0d, 0x37, 0x70, 0x81, 0x63, 0x37, 0x00, 0x81, 0x05, 0x37, 0x70, 0x71, 
  0x37, 0x00, 0x07, 0x37, 0x70, 0x81, 0x63, 0x37, 0x00, 0x0d, 0x37, 0x70, 0x81, 0x63, 0x37, 0x00, 
  0x0d, 0x37, 0x70, 0x81, 0x63, 0x37, 0x00, 0x81, 0x05, 0x37, 0x70, 0x71, 0x37, 0x00, 0x07, 0x37, 
  0x70, 0x81, 0x63, 0x37, 0x00, 0x0d, 0x37, 0x70, 0x81, 0x63, 0x37, 0x00, 0x0d, 0x37, 0x70, 0x81, 
  0x63, 0x37, 0x00, 0x81, 0x05, 0x37, 0x70, 0x71, 0x37, 0x00, 0x07, 0x37, 0x70, 0x81, 0x63, 0x37, 
  0x00, 0x0d, 0x37, 0x70, 0x81, 0x63, 0x37, 0x00, 0x0d, 0x33, 0x70, 0x81, 0x63, 0x33, 0x00, 0x81, 
  0x05, 0x33, 0x70, 0x71, 0x33, 0x00, 0x07, 0x33, 0x70, 0x81, 0x63, 0x33, 0x00, 0x0d, 0x33, 0x70, 
  0x81, 0x63, 0x33, 0x00, 0x0d, 0x33, 0x70, 0x81, 0x63, 0x33, 0x00, 0x81, 0x05, 0x33, 0x70, 0x71, 
  0x33, 0x00, 0x07, 0x33, 0x70, 0x81, 0x63, 0x33, 0x00, 0x0d, 0x33, 0x70, 0x81, 0x63, 0x33, 0x00, 
  0x0d, 0x35, 0x70, 0x81, 0x63, 0x35, 0x00, 0x81, 0x05, 0x35, 0x70, 0x71, 0x35, 0x00, 0x07, 0x35, 
  0x70, 0x81, 0x63, 0x35, 0x00, 0x0d, 0x35, 0x70, 0x81, 0x63, 0x35, 0x00, 0x0d, 0x35, 0x70, 0x81, 
  0x63, 0x35, 0x00, 0x81, 0x05, 0x35, 0x70, 0x71, 0x35, 0x00, 0x07, 0x35, 0x70, 0x81, 0x63, 0x35, 
  0x00, 0x0d, 0x35, 0x70, 0x81, 0x63, 0x35, 0x00, 0x0d, 0x37, 0x70, 0x81, 0x63, 0x37, 0x00, 0x81, 
  0x05, 0x37, 0x70, 0x71, 0x37, 0x00, 0x07, 0x37, 0x70, 0x81, 0x63, 0x37, 0x00, 0x0d, 0x37, 0x70, 
  0x81, 0x63, 0x37, 0x00, 0x0d, 0x37, 0x70, 0x81, 0x63, 0x37, 0x00, 0x81, 0x05, 0x37, 0x70, 0x71, 
  0x37, 0x00, 0x07, 0x37, 0x70, 0x81, 0x63, 0x37, 0x00, 0x0d, 0x37, 0x70, 0x81, 0x63, 0x37, 0x00, 
  0x0d, 0x37, 0x70, 0x81, 0x63, 0x37, 0x00, 0x81, 0x05, 0x37, 0x70, 0x71, 0x37, 0x00, 0x07, 0x37, 
  0x70, 0x81, 0x63, 0x37, 0x00, 0x0d, 0x37, 0x70, 0x81, 0x63, 0x37, 0x00, 0x0d, 0x33, 0x70, 0x00, 
  0xb0, 0x02, 0x70, 0x3c, 0x02, 0x6f, 0x3c, 0x02, 0x6e, 0x3c, 0x02, 0x6d, 0x3c, 0x02, 0x6c, 0x3c, 
  0x02, 0x6b, 0x3c, 0x02, 0x6a, 0x3c, 0x02, 0x69, 0x3c, 0x02, 0x70, 0x2d, 0x02, 0x6f, 0x0f, 0x02, 
  0x67, 0x1e, 0x02, 0x6e, 0x1e, 0x02, 0x66, 0x0f, 0x02, 0x6d, 0x2d, 0x02, 0x6c, 0x2d, 0x02, 0x6b, 
  0x0f, 0x02, 0x64, 0x1e, 0x02, 0x6a, 0x1e, 0x02, 0x63, 0x0f, 0x02, 0x69, 0x2d, 0x02, 0x68, 0x2d, 
  0x02, 0x67, 0x0f, 0x02, 0x61, 0x1e, 0x02, 0x66, 0x1e, 0x02, 0x60, 0x0f, 0x02, 0x65, 0x2d, 0x02, 
  0x64, 0x2d, 0x02, 0x63, 0x0f, 0x02, 0x5e, 0x1e, 0x02, 0x62, 0x1e, 0x02, 0x5d, 0x0f, 0x02, 0x61, 
  0x2d, 0x02, 0x60, 0x2d, 0x02, 0x5f, 0x0f, 0x02, 0x5b, 0x1e, 0x02, 0x5e, 0x1e, 0x02, 0x5a, 0x0f, 
  0x02, 0x5d, 0x2d, 0x02, 0x5c, 0x2d, 0x02, 0x5b, 0x0f, 0x02, 0x58, 0x1e, 0x02, 0x5a, 0x1e, 0x02, 
  0x57, 0x0f, 0x02, 0x59, 0x2d, 0x02, 0x58, 0x2d, 0x02, 0x57, 0x0f, 0x02, 0x55, 0x1e, 0x02, 0x56, 
  0x1e, 0x02, 0x54, 0x0f, 0x02, 0x55, 0x2d, 0x02, 0x54, 0x2d, 0x02, 0x53, 0x0f, 0x02, 0x52, 0x1e, 
  0x02, 0x52, 0x1e, 0x02, 0x51, 0x0f, 0x02, 0x51, 0x2c, 0x90, 0x33, 0x00, 0x01, 0x33, 0x50, 0x8e, 
  0x1f, 0x33, 0x00, 0x01, 0xff, 0x2f, 0x00
};