// array size is 9994
static const char bytes[]  = {
        0x4d, 0x54, 0x68, 0x64, 0x00, 0x00, 0x00, 0x06, 0x00, 0x01, 0x00, 0x04, 0x00, 0xc0, 0x4d, 0x54,
        0x72, 0x6b, 0x00, 0x00, 0x00, 0x13, 0x00, 0xff, 0x58, 0x04, 0x04, 0x02, 0x18, 0x08, 0x00, 0xff,
        0x51, 0x03, 0x09, 0x89, 0x68, 0x00, 0xff, 0x2f, 0x00, 0x4d, 0x54, 0x72, 0x6b, 0x00, 0x00, 0x12,
        0x20, 0x00, 0xff, 0x03, 0x14, 0x54, 0x61, 0x62, 0x49, 0x74, 0x20, 0x4d, 0x49, 0x44, 0x49, 0x20,
        0x2d, 0x20, 0x54, 0x72, 0x61, 0x63, 0x6b, 0x20, 0x31, 0x00, 0xc0, 0x1c, 0x00, 0x90, 0x48, 0x7f,
        0x00, 0x90, 0x51, 0x7f, 0x60, 0x80, 0x48, 0x00, 0x00, 0x90, 0x48, 0x7f, 0x00, 0x80, 0x51, 0x00,
        0x00, 0x90, 0x51, 0x7f, 0x60, 0x80, 0x48, 0x00, 0x00, 0x90, 0x48, 0x7f, 0x00, 0x80, 0x51, 0x00,
        0x00, 0x90, 0x51, 0x7f, 0x60, 0x80, 0x48, 0x00, 0x00, 0x90, 0x48, 0x7f, 0x00, 0x80, 0x51, 0x00,
        0x00, 0x90, 0x51, 0x7f, 0x60, 0x80, 0x48, 0x00, 0x00, 0x90, 0x48, 0x7f, 0x00, 0x80, 0x51, 0x00,
        0x00, 0x90, 0x51, 0x7f, 0x60, 0x80, 0x48, 0x00, 0x00, 0x90, 0x48, 0x7f, 0x00, 0x80, 0x51, 0x00,
        0x00, 0x90, 0x51, 0x7f, 0x60, 0x80, 0x48, 0x00, 0x00, 0x90, 0x48, 0x7f, 0x00, 0x80, 0x51, 0x00,
        0x00, 0x90, 0x51, 0x7f, 0x60, 0x80, 0x48, 0x00, 0x00, 0x90, 0x48, 0x7f, 0x00, 0x80, 0x51, 0x00,
        0x00, 0x90, 0x51, 0x7f, 0x60, 0x80, 0x48, 0x00, 0x00, 0x90, 0x48, 0x7f, 0x00, 0x80, 0x51, 0x00,
        0x00, 0x90, 0x51, 0x7f, 0x60, 0x80, 0x48, 0x00, 0x00, 0x90, 0x48, 0x7f, 0x00, 0x80, 0x51, 0x00,
        0x00, 0x90, 0x51, 0x7f, 0x60, 0x80, 0x48, 0x00, 0x00, 0x90, 0x48, 0x7f, 0x00, 0x80, 0x51, 0x00,
        0x00, 0x90, 0x51, 0x7f, 0x60, 0x80, 0x48, 0x00, 0x00, 0x90, 0x47, 0x7f, 0x00, 0x80, 0x51, 0x00,
        0x00, 0x90, 0x4f, 0x7f, 0x60, 0x80, 0x47, 0x00, 0x00, 0x90, 0x47, 0x7f, 0x00, 0x80, 0x4f, 0x00,
        0x00, 0x90, 0x4f, 0x7f, 0x60, 0x80, 0x47, 0x00, 0x00, 0x90, 0x47, 0x7f, 0x00, 0x80, 0x4f, 0x00,
        0x00, 0x90, 0x4f, 0x7f, 0x60, 0x80, 0x47, 0x00, 0x00, 0x90, 0x47, 0x7f, 0x00, 0x80, 0x4f, 0x00,
        0x00, 0x90, 0x4f, 0x7f, 0x60, 0x80, 0x47, 0x00, 0x00, 0x90, 0x47, 0x7f, 0x00, 0x80, 0x4f, 0x00,
        0x00, 0x90, 0x4f, 0x7f, 0x60, 0x80, 0x47, 0x00, 0x00, 0x90, 0x48, 0x7f, 0x00, 0x80, 0x4f, 0x00,
        0x00, 0x90, 0x51, 0x7f, 0x60, 0x80, 0x48, 0x00, 0x00, 0x90, 0x48, 0x7f, 0x00, 0x80, 0x51, 0x00,
        0x00, 0x90, 0x51, 0x7f, 0x60, 0x80, 0x48, 0x00, 0x00, 0x90, 0x48, 0x7f, 0x00, 0x80, 0x51, 0x00,
        0x00, 0x90, 0x51, 0x7f, 0x60, 0x80, 0x48, 0x00, 0x00, 0x90, 0x48, 0x7f, 0x00, 0x80, 0x51, 0x00,
        0x00, 0x90, 0x51, 0x7f, 0x60, 0x80, 0x48, 0x00, 0x00, 0x90, 0x48, 0x7f, 0x00, 0x80, 0x51, 0x00,
        0x00, 0x90, 0x51, 0x7f, 0x60, 0x80, 0x48, 0x00, 0x00, 0x90, 0x48, 0x7f, 0x00, 0x80, 0x51, 0x00,
        0x00, 0x90, 0x51, 0x7f, 0x60, 0x80, 0x48, 0x00, 0x00, 0x90, 0x48, 0x7f, 0x00, 0x80, 0x51, 0x00,
        0x00, 0x90, 0x51, 0x7f, 0x60, 0x80, 0x48, 0x00, 0x00, 0x90, 0x48, 0x7f, 0x00, 0x80, 0x51, 0x00,
        0x00, 0x90, 0x51, 0x7f, 0x60, 0x80, 0x48, 0x00, 0x00, 0x90, 0x48, 0x7f, 0x00, 0x80, 0x51, 0x00,
        0x00, 0x90, 0x51, 0x7f, 0x60, 0x80, 0x48, 0x00, 0x00, 0x90, 0x48, 0x7f, 0x00, 0x80, 0x51, 0x00,
        0x00, 0x90, 0x51, 0x7f, 0x60, 0x80, 0x48, 0x00, 0x00, 0x90, 0x48, 0x7f, 0x00, 0x80, 0x51, 0x00,
        0x00, 0x90, 0x51, 0x7f, 0x60, 0x80, 0x48, 0x00, 0x00, 0x90, 0x47, 0x7f, 0x00, 0x80, 0x51, 0x00,
        0x00, 0x90, 0x4f, 0x7f, 0x60, 0x80, 0x47, 0x00, 0x00, 0x90, 0x47, 0x7f, 0x00, 0x80, 0x4f, 0x00,
        0x00, 0x90, 0x4f, 0x7f, 0x60, 0x80, 0x47, 0x00, 0x00, 0x90, 0x47, 0x7f, 0x00, 0x80, 0x4f, 0x00,
        0x00, 0x90, 0x4f, 0x7f, 0x60, 0x80, 0x47, 0x00, 0x00, 0x90, 0x47, 0x7f, 0x00, 0x80, 0x4f, 0x00,
        0x00, 0x90, 0x4f, 0x7f, 0x60, 0x80, 0x47, 0x00, 0x00, 0x90, 0x47, 0x7f, 0x00, 0x80, 0x4f, 0x00,
        0x00, 0x90, 0x4f, 0x7f, 0x60, 0x80, 0x47, 0x00, 0x00, 0x90, 0x48, 0x7f, 0x00, 0x80, 0x4f, 0x00,
        0x00, 0x90, 0x51, 0x7f, 0x60, 0x80, 0x48, 0x00, 0x00, 0x90, 0x48, 0x7f, 0x00, 0x80, 0x51, 0x00,
        0x00, 0x90, 0x51, 0x7f, 0x60, 0x80, 0x48, 0x00, 0x00, 0x90, 0x48, 0x7f, 0x00, 0x80, 0x51, 0x00,
        0x00, 0x90, 0x51, 0x7f, 0x60, 0x80, 0x48, 0x00, 0x00, 0x90, 0x48, 0x7f, 0x00, 0x80, 0x51, 0x00,
        0x00, 0x90, 0x51, 0x7f, 0x60, 0x80, 0x48, 0x00, 0x00, 0x90, 0x48, 0x7f, 0x00, 0x80, 0x51, 0x00,
        0x00, 0x90, 0x51, 0x7f, 0x60, 0x80, 0x48, 0x00, 0x00, 0x90, 0x48, 0x7f, 0x00, 0x80, 0x51, 0x00,
        0x00, 0x90, 0x51, 0x7f, 0x60, 0x80, 0x48, 0x00, 0x00, 0x90, 0x48, 0x7f, 0x00, 0x80, 0x51, 0x00,
        0x00, 0x90, 0x51, 0x7f, 0x60, 0x80, 0x48, 0x00, 0x00, 0x90, 0x48, 0x7f, 0x00, 0x80, 0x51, 0x00,
        0x00, 0x90, 0x51, 0x7f, 0x60, 0x80, 0x48, 0x00, 0x00, 0x90, 0x48, 0x7f, 0x00, 0x80, 0x51, 0x00,
        0x00, 0x90, 0x51, 0x7f, 0x60, 0x80, 0x48, 0x00, 0x00, 0x90, 0x48, 0x7f, 0x00, 0x80, 0x51, 0x00,
        0x00, 0x90, 0x51, 0x7f, 0x60, 0x80, 0x48, 0x00, 0x00, 0x90, 0x48, 0x7f, 0x00, 0x80, 0x51, 0x00,
        0x00, 0x90, 0x51, 0x7f, 0x60, 0x80, 0x48, 0x00, 0x00, 0x90, 0x47, 0x7f, 0x00, 0x80, 0x51, 0x00,
        0x00, 0x90, 0x4f, 0x7f, 0x60, 0x80, 0x47, 0x00, 0x00, 0x90, 0x47, 0x7f, 0x00, 0x80, 0x4f, 0x00,
        0x00, 0x90, 0x4f, 0x7f, 0x60, 0x80, 0x47, 0x00, 0x00, 0x90, 0x47, 0x7f, 0x00, 0x80, 0x4f, 0x00,
        0x00, 0x90, 0x4f, 0x7f, 0x60, 0x80, 0x47, 0x00, 0x00, 0x90, 0x47, 0x7f, 0x00, 0x80, 0x4f, 0x00,
        0x00, 0x90, 0x4f, 0x7f, 0x60, 0x80, 0x47, 0x00, 0x00, 0x90, 0x47, 0x7f, 0x00, 0x80, 0x4f, 0x00,
        0x00, 0x90, 0x4f, 0x7f, 0x60, 0x80, 0x47, 0x00, 0x00, 0x90, 0x48, 0x7f, 0x00, 0x80, 0x4f, 0x00,
        0x00, 0x90, 0x51, 0x7f, 0x60, 0x80, 0x48, 0x00, 0x00, 0x90, 0x48, 0x7f, 0x00, 0x80, 0x51, 0x00,
        0x00, 0x90, 0x51, 0x7f, 0x60, 0x80, 0x48, 0x00, 0x00, 0x90, 0x48, 0x7f, 0x00, 0x80, 0x51, 0x00,
        0x00, 0x90, 0x51, 0x7f, 0x60, 0x80, 0x48, 0x00, 0x00, 0x90, 0x48, 0x7f, 0x00, 0x80, 0x51, 0x00,
        0x00, 0x90, 0x51, 0x7f, 0x60, 0x80, 0x48, 0x00, 0x00, 0x90, 0x48, 0x7f, 0x00, 0x80, 0x51, 0x00,
        0x00, 0x90, 0x51, 0x7f, 0x60, 0x80, 0x48, 0x00, 0x00, 0x90, 0x48, 0x7f, 0x00, 0x80, 0x51, 0x00,
        0x00, 0x90, 0x51, 0x7f, 0x60, 0x80, 0x48, 0x00, 0x00, 0x90, 0x48, 0x7f, 0x00, 0x80, 0x51, 0x00,
        0x00, 0x90, 0x51, 0x7f, 0x60, 0x80, 0x48, 0x00, 0x00, 0x90, 0x48, 0x7f, 0x00, 0x80, 0x51, 0x00,
        0x00, 0x90, 0x51, 0x7f, 0x60, 0x80, 0x48, 0x00, 0x00, 0x90, 0x48, 0x7f, 0x00, 0x80, 0x51, 0x00,
        0x00, 0x90, 0x51, 0x7f, 0x60, 0x80, 0x48, 0x00, 0x00, 0x90, 0x48, 0x7f, 0x00, 0x80, 0x51, 0x00,
        0x00, 0x90, 0x51, 0x7f, 0x60, 0x80, 0x48, 0x00, 0x00, 0x90, 0x48, 0x7f, 0x00, 0x80, 0x51, 0x00,
        0x00, 0x90, 0x51, 0x7f, 0x60, 0x80, 0x48, 0x00, 0x00, 0x90, 0x47, 0x7f, 0x00, 0x80, 0x51, 0x00,
        0x00, 0x90, 0x4f, 0x7f, 0x60, 0x80, 0x47, 0x00, 0x00, 0x90, 0x47, 0x7f, 0x00, 0x80, 0x4f, 0x00,
        0x00, 0x90, 0x4f, 0x7f, 0x60, 0x80, 0x47, 0x00, 0x00, 0x90, 0x47, 0x7f, 0x00, 0x80, 0x4f, 0x00,
        0x00, 0x90, 0x4f, 0x7f, 0x60, 0x80, 0x47, 0x00, 0x00, 0x90, 0x47, 0x7f, 0x00, 0x80, 0x4f, 0x00,
        0x00, 0x90, 0x4f, 0x7f, 0x60, 0x80, 0x47, 0x00, 0x00, 0x90, 0x47, 0x7f, 0x00, 0x80, 0x4f, 0x00,
        0x00, 0x90, 0x4f, 0x7f, 0x60, 0x80, 0x47, 0x00, 0x00, 0x90, 0x48, 0x7f, 0x00, 0x80, 0x4f, 0x00,
        0x00, 0x90, 0x51, 0x7f, 0x60, 0x80, 0x48, 0x00, 0x00, 0x90, 0x48, 0x7f, 0x00, 0x80, 0x51, 0x00,
        0x00, 0x90, 0x51, 0x7f, 0x60, 0x80, 0x48, 0x00, 0x00, 0x90, 0x48, 0x7f, 0x00, 0x80, 0x51, 0x00,
        0x00, 0x90, 0x51, 0x7f, 0x60, 0x80, 0x48, 0x00, 0x00, 0x90, 0x48, 0x7f, 0x00, 0x80, 0x51, 0x00,
        0x00, 0x90, 0x51, 0x7f, 0x60, 0x80, 0x48, 0x00, 0x00, 0x90, 0x48, 0x7f, 0x00, 0x80, 0x51, 0x00,
        0x00, 0x90, 0x51, 0x7f, 0x60, 0x80, 0x48, 0x00, 0x00, 0x90, 0x48, 0x7f, 0x00, 0x80, 0x51, 0x00,
        0x00, 0x90, 0x51, 0x7f, 0x60, 0x80, 0x48, 0x00, 0x00, 0x90, 0x48, 0x7f, 0x00, 0x80, 0x51, 0x00,
        0x00, 0x90, 0x51, 0x7f, 0x60, 0x80, 0x48, 0x00, 0x00, 0x90, 0x48, 0x7f, 0x00, 0x80, 0x51, 0x00,
        0x00, 0x90, 0x51, 0x7f, 0x60, 0x80, 0x48, 0x00, 0x00, 0x90, 0x48, 0x7f, 0x00, 0x80, 0x51, 0x00,
        0x00, 0x90, 0x51, 0x7f, 0x60, 0x80, 0x48, 0x00, 0x00, 0x90, 0x48, 0x7f, 0x00, 0x80, 0x51, 0x00,
        0x00, 0x90, 0x51, 0x7f, 0x60, 0x80, 0x48, 0x00, 0x00, 0x90, 0x48, 0x7f, 0x00, 0x80, 0x51, 0x00,
        0x00, 0x90, 0x51, 0x7f, 0x60, 0x80, 0x48, 0x00, 0x00, 0x90, 0x47, 0x7f, 0x00, 0x80, 0x51, 0x00,
        0x00, 0x90, 0x4f, 0x7f, 0x60, 0x80, 0x47, 0x00, 0x00, 0x90, 0x47, 0x7f, 0x00, 0x80, 0x4f, 0x00,
        0x00, 0x90, 0x4f, 0x7f, 0x60, 0x80, 0x47, 0x00, 0x00, 0x90, 0x47, 0x7f, 0x00, 0x80, 0x4f, 0x00,
        0x00, 0x90, 0x4f, 0x7f, 0x60, 0x80, 0x47, 0x00, 0x00, 0x90, 0x47, 0x7f, 0x00, 0x80, 0x4f, 0x00,
        0x00, 0x90, 0x4f, 0x7f, 0x60, 0x80, 0x47, 0x00, 0x00, 0x90, 0x47, 0x7f, 0x00, 0x80, 0x4f, 0x00,
        0x00, 0x90, 0x4f, 0x7f, 0x60, 0x80, 0x47, 0x00, 0x00, 0x90, 0x48, 0x7f, 0x00, 0x80, 0x4f, 0x00,
        0x00, 0x90, 0x51, 0x7f, 0x60, 0x80, 0x48, 0x00, 0x00, 0x90, 0x48, 0x7f, 0x00, 0x80, 0x51, 0x00,
        0x00, 0x90, 0x51, 0x7f, 0x60, 0x80, 0x48, 0x00, 0x00, 0x90, 0x48, 0x7f, 0x00, 0x80, 0x51, 0x00,
        0x00, 0x90, 0x51, 0x7f, 0x60, 0x80, 0x48, 0x00, 0x00, 0x90, 0x48, 0x7f, 0x00, 0x80, 0x51, 0x00,
        0x00, 0x90, 0x51, 0x7f, 0x60, 0x80, 0x48, 0x00, 0x00, 0x90, 0x48, 0x7f, 0x00, 0x80, 0x51, 0x00,
        0x00, 0x90, 0x51, 0x7f, 0x60, 0x80, 0x48, 0x00, 0x00, 0x90, 0x48, 0x7f, 0x00, 0x80, 0x51, 0x00,
        0x00, 0x90, 0x51, 0x7f, 0x60, 0x80, 0x48, 0x00, 0x00, 0x90, 0x48, 0x7f, 0x00, 0x80, 0x51, 0x00,
        0x00, 0x90, 0x51, 0x7f, 0x60, 0x80, 0x48, 0x00, 0x00, 0x90, 0x48, 0x7f, 0x00, 0x80, 0x51, 0x00,
        0x00, 0x90, 0x51, 0x7f, 0x60, 0x80, 0x48, 0x00, 0x00, 0x90, 0x48, 0x7f, 0x00, 0x80, 0x51, 0x00,
        0x00, 0x90, 0x51, 0x7f, 0x60, 0x80, 0x48, 0x00, 0x00, 0x90, 0x48, 0x7f, 0x00, 0x80, 0x51, 0x00,
        0x00, 0x90, 0x51, 0x7f, 0x60, 0x80, 0x48, 0x00, 0x00, 0x90, 0x48, 0x7f, 0x00, 0x80, 0x51, 0x00,
        0x00, 0x90, 0x51, 0x7f, 0x60, 0x80, 0x48, 0x00, 0x00, 0x90, 0x47, 0x7f, 0x00, 0x80, 0x51, 0x00,
        0x00, 0x90, 0x4f, 0x7f, 0x60, 0x80, 0x47, 0x00, 0x00, 0x90, 0x47, 0x7f, 0x00, 0x80, 0x4f, 0x00,
        0x00, 0x90, 0x4f, 0x7f, 0x60, 0x80, 0x47, 0x00, 0x00, 0x90, 0x47, 0x7f, 0x00, 0x80, 0x4f, 0x00,
        0x00, 0x90, 0x4f, 0x7f, 0x60, 0x80, 0x47, 0x00, 0x00, 0x90, 0x47, 0x7f, 0x00, 0x80, 0x4f, 0x00,
        0x00, 0x90, 0x4f, 0x7f, 0x60, 0x80, 0x47, 0x00, 0x00, 0x90, 0x47, 0x7f, 0x00, 0x80, 0x4f, 0x00,
        0x00, 0x90, 0x4f, 0x7f, 0x60, 0x80, 0x47, 0x00, 0x00, 0x90, 0x48, 0x7f, 0x00, 0x80, 0x4f, 0x00,
        0x00, 0x90, 0x51, 0x7f, 0x60, 0x80, 0x48, 0x00, 0x00, 0x90, 0x48, 0x7f, 0x00, 0x80, 0x51, 0x00,
        0x00, 0x90, 0x51, 0x7f, 0x60, 0x80, 0x48, 0x00, 0x00, 0x90, 0x48, 0x7f, 0x00, 0x80, 0x51, 0x00,
        0x00, 0x90, 0x51, 0x7f, 0x60, 0x80, 0x48, 0x00, 0x00, 0x90, 0x48, 0x7f, 0x00, 0x80, 0x51, 0x00,
        0x00, 0x90, 0x51, 0x7f, 0x60, 0x80, 0x48, 0x00, 0x00, 0x90, 0x48, 0x7f, 0x00, 0x80, 0x51, 0x00,
        0x00, 0x90, 0x51, 0x7f, 0x60, 0x80, 0x48, 0x00, 0x00, 0x90, 0x48, 0x7f, 0x00, 0x80, 0x51, 0x00,
        0x00, 0x90, 0x51, 0x7f, 0x60, 0x80, 0x48, 0x00, 0x00, 0x90, 0x48, 0x7f, 0x00, 0x80, 0x51, 0x00,
        0x00, 0x90, 0x51, 0x7f, 0x60, 0x80, 0x48, 0x00, 0x00, 0x90, 0x48, 0x7f, 0x00, 0x80, 0x51, 0x00,
        0x00, 0x90, 0x51, 0x7f, 0x60, 0x80, 0x48, 0x00, 0x00, 0x90, 0x48, 0x7f, 0x00, 0x80, 0x51, 0x00,
        0x00, 0x90, 0x51, 0x7f, 0x60, 0x80, 0x48, 0x00, 0x00, 0x90, 0x48, 0x7f, 0x00, 0x80, 0x51, 0x00,
        0x00, 0x90, 0x51, 0x7f, 0x60, 0x80, 0x48, 0x00, 0x00, 0x90, 0x48, 0x7f, 0x00, 0x80, 0x51, 0x00,
        0x00, 0x90, 0x51, 0x7f, 0x60, 0x80, 0x48, 0x00, 0x00, 0x90, 0x47, 0x7f, 0x00, 0x80, 0x51, 0x00,
        0x00, 0x90, 0x4f, 0x7f, 0x60, 0x80, 0x47, 0x00, 0x00, 0x90, 0x47, 0x7f, 0x00, 0x80, 0x4f, 0x00,
        0x00, 0x90, 0x4f, 0x7f, 0x60, 0x80, 0x47, 0x00, 0x00, 0x90, 0x47, 0x7f, 0x00, 0x80, 0x4f, 0x00,
        0x00, 0x90, 0x4f, 0x7f, 0x60, 0x80, 0x47, 0x00, 0x00, 0x90, 0x47, 0x7f, 0x00, 0x80, 0x4f, 0x00,
        0x00, 0x90, 0x4f, 0x7f, 0x60, 0x80, 0x47, 0x00, 0x00, 0x90, 0x47, 0x7f, 0x00, 0x80, 0x4f, 0x00,
        0x00, 0x90, 0x4f, 0x7f, 0x60, 0x80, 0x47, 0x00, 0x00, 0x90, 0x48, 0x7f, 0x00, 0x80, 0x4f, 0x00,
        0x00, 0x90, 0x51, 0x7f, 0x60, 0x80, 0x48, 0x00, 0x00, 0x90, 0x48, 0x7f, 0x00, 0x80, 0x51, 0x00,
        0x00, 0x90, 0x51, 0x7f, 0x60, 0x80, 0x48, 0x00, 0x00, 0x90, 0x48, 0x7f, 0x00, 0x80, 0x51, 0x00,
        0x00, 0x90, 0x51, 0x7f, 0x60, 0x80, 0x48, 0x00, 0x00, 0x90, 0x48, 0x7f, 0x00, 0x80, 0x51, 0x00,
        0x00, 0x90, 0x51, 0x7f, 0x60, 0x80, 0x48, 0x00, 0x00, 0x90, 0x48, 0x7f, 0x00, 0x80, 0x51, 0x00,
        0x00, 0x90, 0x51, 0x7f, 0x60, 0x80, 0x48, 0x00, 0x00, 0x90, 0x48, 0x7f, 0x00, 0x80, 0x51, 0x00,
        0x00, 0x90, 0x51, 0x7f, 0x60, 0x80, 0x48, 0x00, 0x00, 0x90, 0x48, 0x7f, 0x00, 0x80, 0x51, 0x00,
        0x00, 0x90, 0x51, 0x7f, 0x60, 0x80, 0x48, 0x00, 0x00, 0x90, 0x48, 0x7f, 0x00, 0x80, 0x51, 0x00,
        0x00, 0x90, 0x51, 0x7f, 0x60, 0x80, 0x48, 0x00, 0x00, 0x90, 0x48, 0x7f, 0x00, 0x80, 0x51, 0x00,
        0x00, 0x90, 0x51, 0x7f, 0x60, 0x80, 0x48, 0x00, 0x00, 0x90, 0x48, 0x7f, 0x00, 0x80, 0x51, 0x00,
        0x00, 0x90, 0x51, 0x7f, 0x60, 0x80, 0x48, 0x00, 0x00, 0x90, 0x48, 0x7f, 0x00, 0x80, 0x51, 0x00,
        0x00, 0x90, 0x51, 0x7f, 0x60, 0x80, 0x48, 0x00, 0x00, 0x90, 0x47, 0x7f, 0x00, 0x80, 0x51, 0x00,
        0x00, 0x90, 0x4f, 0x7f, 0x60, 0x80, 0x47, 0x00, 0x00, 0x90, 0x47, 0x7f, 0x00, 0x80, 0x4f, 0x00,
        0x00, 0x90, 0x4f, 0x7f, 0x60, 0x80, 0x47, 0x00, 0x00, 0x90, 0x47, 0x7f, 0x00, 0x80, 0x4f, 0x00,
        0x00, 0x90, 0x4f, 0x7f, 0x60, 0x80, 0x47, 0x00, 0x00, 0x90, 0x47, 0x7f, 0x00, 0x80, 0x4f, 0x00,
        0x00, 0x90, 0x4f, 0x7f, 0x60, 0x80, 0x47, 0x00, 0x00, 0x90, 0x47, 0x7f, 0x00, 0x80, 0x4f, 0x00,
        0x00, 0x90, 0x4f, 0x7f, 0x60, 0x80, 0x47, 0x00, 0x00, 0x90, 0x48, 0x7f, 0x00, 0x80, 0x4f, 0x00,
        0x00, 0x90, 0x51, 0x7f, 0x60, 0x80, 0x48, 0x00, 0x00, 0x90, 0x48, 0x7f, 0x00, 0x80, 0x51, 0x00,
        0x00, 0x90, 0x51, 0x7f, 0x60, 0x80, 0x48, 0x00, 0x00, 0x90, 0x48, 0x7f, 0x00, 0x80, 0x51, 0x00,
        0x00, 0x90, 0x51, 0x7f, 0x60, 0x80, 0x48, 0x00, 0x00, 0x90, 0x48, 0x7f, 0x00, 0x80, 0x51, 0x00,
        0x00, 0x90, 0x51, 0x7f, 0x60, 0x80, 0x48, 0x00, 0x00, 0x90, 0x48, 0x7f, 0x00, 0x80, 0x51, 0x00,
        0x00, 0x90, 0x51, 0x7f, 0x60, 0x80, 0x48, 0x00, 0x00, 0x90, 0x48, 0x7f, 0x00, 0x80, 0x51, 0x00,
        0x00, 0x90, 0x51, 0x7f, 0x60, 0x80, 0x48, 0x00, 0x00, 0x90, 0x48, 0x7f, 0x00, 0x80, 0x51, 0x00,
        0x00, 0x90, 0x51, 0x7f, 0x60, 0x80, 0x48, 0x00, 0x00, 0x90, 0x48, 0x7f, 0x00, 0x80, 0x51, 0x00,
        0x00, 0x90, 0x51, 0x7f, 0x60, 0x80, 0x48, 0x00, 0x00, 0x90, 0x48, 0x7f, 0x00, 0x80, 0x51, 0x00,
        0x00, 0x90, 0x51, 0x7f, 0x60, 0x80, 0x48, 0x00, 0x00, 0x90, 0x48, 0x7f, 0x00, 0x80, 0x51, 0x00,
        0x00, 0x90, 0x51, 0x7f, 0x60, 0x80, 0x48, 0x00, 0x00, 0x90, 0x48, 0x7f, 0x00, 0x80, 0x51, 0x00,
        0x00, 0x90, 0x51, 0x7f, 0x60, 0x80, 0x48, 0x00, 0x00, 0x90, 0x47, 0x7f, 0x00, 0x80, 0x51, 0x00,
        0x00, 0x90, 0x4f, 0x7f, 0x60, 0x80, 0x47, 0x00, 0x00, 0x90, 0x47, 0x7f, 0x00, 0x80, 0x4f, 0x00,
        0x00, 0x90, 0x4f, 0x7f, 0x60, 0x80, 0x47, 0x00, 0x00, 0x90, 0x47, 0x7f, 0x00, 0x80, 0x4f, 0x00,
        0x00, 0x90, 0x4f, 0x7f, 0x60, 0x80, 0x47, 0x00, 0x00, 0x90, 0x47, 0x7f, 0x00, 0x80, 0x4f, 0x00,
        0x00, 0x90, 0x4f, 0x7f, 0x60, 0x80, 0x47, 0x00, 0x00, 0x90, 0x47, 0x7f, 0x00, 0x80, 0x4f, 0x00,
        0x00, 0x90, 0x4f, 0x7f, 0x60, 0x80, 0x47, 0x00, 0x00, 0x90, 0x48, 0x7f, 0x00, 0x80, 0x4f, 0x00,
        0x00, 0x90, 0x51, 0x7f, 0x60, 0x80, 0x48, 0x00, 0x00, 0x90, 0x48, 0x7f, 0x00, 0x80, 0x51, 0x00,
        0x00, 0x90, 0x51, 0x7f, 0x60, 0x80, 0x48, 0x00, 0x00, 0x90, 0x48, 0x7f, 0x00, 0x80, 0x51, 0x00,
        0x00, 0x90, 0x51, 0x7f, 0x60, 0x80, 0x48, 0x00, 0x00, 0x90, 0x48, 0x7f, 0x00, 0x80, 0x51, 0x00,
        0x00, 0x90, 0x51, 0x7f, 0x60, 0x80, 0x48, 0x00, 0x00, 0x90, 0x48, 0x7f, 0x00, 0x80, 0x51, 0x00,
        0x00, 0x90, 0x51, 0x7f, 0x60, 0x80, 0x48, 0x00, 0x00, 0x90, 0x48, 0x7f, 0x00, 0x80, 0x51, 0x00,
        0x00, 0x90, 0x51, 0x7f, 0x60, 0x80, 0x48, 0x00, 0x00, 0x90, 0x48, 0x7f, 0x00, 0x80, 0x51, 0x00,
        0x00, 0x90, 0x51, 0x7f, 0x60, 0x80, 0x48, 0x00, 0x00, 0x90, 0x48, 0x7f, 0x00, 0x80, 0x51, 0x00,
        0x00, 0x90, 0x51, 0x7f, 0x60, 0x80, 0x48, 0x00, 0x00, 0x90, 0x48, 0x7f, 0x00, 0x80, 0x51, 0x00,
        0x00, 0x90, 0x51, 0x7f, 0x60, 0x80, 0x48, 0x00, 0x00, 0x90, 0x48, 0x7f, 0x00, 0x80, 0x51, 0x00,
        0x00, 0x90, 0x51, 0x7f, 0x60, 0x80, 0x48, 0x00, 0x00, 0x90, 0x48, 0x7f, 0x00, 0x80, 0x51, 0x00,
        0x00, 0x90, 0x51, 0x7f, 0x60, 0x80, 0x48, 0x00, 0x00, 0x90, 0x47, 0x7f, 0x00, 0x80, 0x51, 0x00,
        0x00, 0x90, 0x4f, 0x7f, 0x60, 0x80, 0x47, 0x00, 0x00, 0x90, 0x47, 0x7f, 0x00, 0x80, 0x4f, 0x00,
        0x00, 0x90, 0x4f, 0x7f, 0x60, 0x80, 0x47, 0x00, 0x00, 0x90, 0x47, 0x7f, 0x00, 0x80, 0x4f, 0x00,
        0x00, 0x90, 0x4f, 0x7f, 0x60, 0x80, 0x47, 0x00, 0x00, 0x90, 0x47, 0x7f, 0x00, 0x80, 0x4f, 0x00,
        0x00, 0x90, 0x4f, 0x7f, 0x60, 0x80, 0x47, 0x00, 0x00, 0x90, 0x47, 0x7f, 0x00, 0x80, 0x4f, 0x00,
        0x00, 0x90, 0x4f, 0x7f, 0x60, 0x80, 0x47, 0x00, 0x00, 0x90, 0x48, 0x7f, 0x00, 0x80, 0x4f, 0x00,
        0x00, 0x90, 0x51, 0x7f, 0x60, 0x80, 0x48, 0x00, 0x00, 0x90, 0x48, 0x7f, 0x00, 0x80, 0x51, 0x00,
        0x00, 0x90, 0x51, 0x7f, 0x60, 0x80, 0x48, 0x00, 0x00, 0x90, 0x48, 0x7f, 0x00, 0x80, 0x51, 0x00,
        0x00, 0x90, 0x51, 0x7f, 0x60, 0x80, 0x48, 0x00, 0x00, 0x90, 0x48, 0x7f, 0x00, 0x80, 0x51, 0x00,
        0x00, 0x90, 0x51, 0x7f, 0x60, 0x80, 0x48, 0x00, 0x00, 0x90, 0x48, 0x7f, 0x00, 0x80, 0x51, 0x00,
        0x00, 0x90, 0x51, 0x7f, 0x60, 0x80, 0x48, 0x00, 0x00, 0x90, 0x48, 0x7f, 0x00, 0x80, 0x51, 0x00,
        0x00, 0x90, 0x51, 0x7f, 0x60, 0x80, 0x48, 0x00, 0x00, 0x90, 0x48, 0x7f, 0x00, 0x80, 0x51, 0x00,
        0x00, 0x90, 0x51, 0x7f, 0x60, 0x80, 0x48, 0x00, 0x00, 0x90, 0x48, 0x7f, 0x00, 0x80, 0x51, 0x00,
        0x00, 0x90, 0x51, 0x7f, 0x60, 0x80, 0x48, 0x00, 0x00, 0x90, 0x48, 0x7f, 0x00, 0x80, 0x51, 0x00,
        0x00, 0x90, 0x51, 0x7f, 0x60, 0x80, 0x48, 0x00, 0x00, 0x90, 0x48, 0x7f, 0x00, 0x80, 0x51, 0x00,
        0x00, 0x90, 0x51, 0x7f, 0x60, 0x80, 0x48, 0x00, 0x00, 0x90, 0x48, 0x7f, 0x00, 0x80, 0x51, 0x00,
        0x00, 0x90, 0x51, 0x7f, 0x60, 0x80, 0x48, 0x00, 0x00, 0x90, 0x47, 0x7f, 0x00, 0x80, 0x51, 0x00,
        0x00, 0x90, 0x4f, 0x7f, 0x60, 0x80, 0x47, 0x00, 0x00, 0x90, 0x47, 0x7f, 0x00, 0x80, 0x4f, 0x00,
        0x00, 0x90, 0x4f, 0x7f, 0x60, 0x80, 0x47, 0x00, 0x00, 0x90, 0x47, 0x7f, 0x00, 0x80, 0x4f, 0x00,
        0x00, 0x90, 0x4f, 0x7f, 0x60, 0x80, 0x47, 0x00, 0x00, 0x90, 0x47, 0x7f, 0x00, 0x80, 0x4f, 0x00,
        0x00, 0x90, 0x4f, 0x7f, 0x60, 0x80, 0x47, 0x00, 0x00, 0x90, 0x47, 0x7f, 0x00, 0x80, 0x4f, 0x00,
        0x00, 0x90, 0x4f, 0x7f, 0x60, 0x80, 0x47, 0x00, 0x00, 0x90, 0x48, 0x7f, 0x00, 0x80, 0x4f, 0x00,
        0x00, 0x90, 0x51, 0x7f, 0x60, 0x80, 0x48, 0x00, 0x00, 0x90, 0x48, 0x7f, 0x00, 0x80, 0x51, 0x00,
        0x00, 0x90, 0x51, 0x7f, 0x60, 0x80, 0x48, 0x00, 0x00, 0x90, 0x48, 0x7f, 0x00, 0x80, 0x51, 0x00,
        0x00, 0x90, 0x51, 0x7f, 0x60, 0x80, 0x48, 0x00, 0x00, 0x90, 0x48, 0x7f, 0x00, 0x80, 0x51, 0x00,
        0x00, 0x90, 0x51, 0x7f, 0x60, 0x80, 0x48, 0x00, 0x00, 0x90, 0x48, 0x7f, 0x00, 0x80, 0x51, 0x00,
        0x00, 0x90, 0x51, 0x7f, 0x60, 0x80, 0x48, 0x00, 0x00, 0x90, 0x48, 0x7f, 0x00, 0x80, 0x51, 0x00,
        0x00, 0x90, 0x51, 0x7f, 0x60, 0x80, 0x48, 0x00, 0x00, 0x90, 0x48, 0x7f, 0x00, 0x80, 0x51, 0x00,
        0x00, 0x90, 0x51, 0x7f, 0x60, 0x80, 0x48, 0x00, 0x00, 0x90, 0x48, 0x7f, 0x00, 0x80, 0x51, 0x00,
        0x00, 0x90, 0x51, 0x7f, 0x60, 0x80, 0x48, 0x00, 0x00, 0x90, 0x48, 0x7f, 0x00, 0x80, 0x51, 0x00,
        0x00, 0x90, 0x51, 0x7f, 0x60, 0x80, 0x48, 0x00, 0x00, 0x90, 0x48, 0x7f, 0x00, 0x80, 0x51, 0x00,
        0x00, 0x90, 0x51, 0x7f, 0x60, 0x80, 0x48, 0x00, 0x00, 0x90, 0x48, 0x7f, 0x00, 0x80, 0x51, 0x00,
        0x00, 0x90, 0x51, 0x7f, 0x60, 0x80, 0x48, 0x00, 0x00, 0x90, 0x47, 0x7f, 0x00, 0x80, 0x51, 0x00,
        0x00, 0x90, 0x4f, 0x7f, 0x60, 0x80, 0x47, 0x00, 0x00, 0x90, 0x47, 0x7f, 0x00, 0x80, 0x4f, 0x00,
        0x00, 0x90, 0x4f, 0x7f, 0x60, 0x80, 0x47, 0x00, 0x00, 0x90, 0x47, 0x7f, 0x00, 0x80, 0x4f, 0x00,
        0x00, 0x90, 0x4f, 0x7f, 0x60, 0x80, 0x47, 0x00, 0x00, 0x90, 0x47, 0x7f, 0x00, 0x80, 0x4f, 0x00,
        0x00, 0x90, 0x4f, 0x7f, 0x60, 0x80, 0x47, 0x00, 0x00, 0x90, 0x47, 0x7f, 0x00, 0x80, 0x4f, 0x00,
        0x00, 0x90, 0x4f, 0x7f, 0x60, 0x80, 0x47, 0x00, 0x00, 0x90, 0x48, 0x7f, 0x00, 0x80, 0x4f, 0x00,
        0x00, 0x90, 0x51, 0x7f, 0x60, 0x80, 0x48, 0x00, 0x00, 0x90, 0x48, 0x7f, 0x00, 0x80, 0x51, 0x00,
        0x00, 0x90, 0x51, 0x7f, 0x60, 0x80, 0x48, 0x00, 0x00, 0x90, 0x48, 0x7f, 0x00, 0x80, 0x51, 0x00,
        0x00, 0x90, 0x51, 0x7f, 0x60, 0x80, 0x48, 0x00, 0x00, 0x90, 0x48, 0x7f, 0x00, 0x80, 0x51, 0x00,
        0x00, 0x90, 0x51, 0x7f, 0x60, 0x80, 0x48, 0x00, 0x00, 0x90, 0x48, 0x7f, 0x00, 0x80, 0x51, 0x00,
        0x00, 0x90, 0x51, 0x7f, 0x60, 0x80, 0x48, 0x00, 0x00, 0x90, 0x48, 0x7f, 0x00, 0x80, 0x51, 0x00,
        0x00, 0x90, 0x51, 0x7f, 0x60, 0x80, 0x48, 0x00, 0x00, 0x90, 0x48, 0x7f, 0x00, 0x80, 0x51, 0x00,
        0x00, 0x90, 0x51, 0x7f, 0x60, 0x80, 0x48, 0x00, 0x00, 0x90, 0x48, 0x7f, 0x00, 0x80, 0x51, 0x00,
        0x00, 0x90, 0x51, 0x7f, 0x60, 0x80, 0x48, 0x00, 0x00, 0x90, 0x48, 0x7f, 0x00, 0x80, 0x51, 0x00,
        0x00, 0x90, 0x51, 0x7f, 0x60, 0x80, 0x48, 0x00, 0x00, 0x90, 0x48, 0x7f, 0x00, 0x80, 0x51, 0x00,
        0x00, 0x90, 0x51, 0x7f, 0x60, 0x80, 0x48, 0x00, 0x00, 0x90, 0x48, 0x7f, 0x00, 0x80, 0x51, 0x00,
        0x00, 0x90, 0x51, 0x7f, 0x60, 0x80, 0x48, 0x00, 0x00, 0x90, 0x47, 0x7f, 0x00, 0x80, 0x51, 0x00,
        0x00, 0x90, 0x4f, 0x7f, 0x60, 0x80, 0x47, 0x00, 0x00, 0x90, 0x47, 0x7f, 0x00, 0x80, 0x4f, 0x00,
        0x00, 0x90, 0x4f, 0x7f, 0x60, 0x80, 0x47, 0x00, 0x00, 0x90, 0x47, 0x7f, 0x00, 0x80, 0x4f, 0x00,
        0x00, 0x90, 0x4f, 0x7f, 0x60, 0x80, 0x47, 0x00, 0x00, 0x90, 0x47, 0x7f, 0x00, 0x80, 0x4f, 0x00,
        0x00, 0x90, 0x4f, 0x7f, 0x60, 0x80, 0x47, 0x00, 0x00, 0x90, 0x47, 0x7f, 0x00, 0x80, 0x4f, 0x00,
        0x00, 0x90, 0x4f, 0x7f, 0x60, 0x80, 0x47, 0x00, 0x00, 0x90, 0x48, 0x7f, 0x00, 0x80, 0x4f, 0x00,
        0x00, 0x90, 0x51, 0x7f, 0x60, 0x80, 0x48, 0x00, 0x00, 0x90, 0x48, 0x7f, 0x00, 0x80, 0x51, 0x00,
        0x00, 0x90, 0x51, 0x7f, 0x60, 0x80, 0x48, 0x00, 0x00, 0x90, 0x48, 0x7f, 0x00, 0x80, 0x51, 0x00,
        0x00, 0x90, 0x51, 0x7f, 0x60, 0x80, 0x48, 0x00, 0x00, 0x90, 0x48, 0x7f, 0x00, 0x80, 0x51, 0x00,
        0x00, 0x90, 0x51, 0x7f, 0x60, 0x80, 0x48, 0x00, 0x00, 0x90, 0x48, 0x7f, 0x00, 0x80, 0x51, 0x00,
        0x00, 0x90, 0x51, 0x7f, 0x60, 0x80, 0x48, 0x00, 0x00, 0x90, 0x48, 0x7f, 0x00, 0x80, 0x51, 0x00,
        0x00, 0x90, 0x51, 0x7f, 0x60, 0x80, 0x48, 0x00, 0x00, 0x90, 0x48, 0x7f, 0x00, 0x80, 0x51, 0x00,
        0x00, 0x90, 0x51, 0x7f, 0x60, 0x80, 0x48, 0x00, 0x00, 0x90, 0x48, 0x7f, 0x00, 0x80, 0x51, 0x00,
        0x00, 0x90, 0x51, 0x7f, 0x60, 0x80, 0x48, 0x00, 0x00, 0x90, 0x48, 0x7f, 0x00, 0x80, 0x51, 0x00,
        0x00, 0x90, 0x51, 0x7f, 0x60, 0x80, 0x48, 0x00, 0x00, 0x90, 0x48, 0x7f, 0x00, 0x80, 0x51, 0x00,
        0x00, 0x90, 0x51, 0x7f, 0x60, 0x80, 0x48, 0x00, 0x00, 0x90, 0x48, 0x7f, 0x00, 0x80, 0x51, 0x00,
        0x00, 0x90, 0x51, 0x7f, 0x60, 0x80, 0x48, 0x00, 0x00, 0x90, 0x47, 0x7f, 0x00, 0x80, 0x51, 0x00,
        0x00, 0x90, 0x4f, 0x7f, 0x60, 0x80, 0x47, 0x00, 0x00, 0x90, 0x47, 0x7f, 0x00, 0x80, 0x4f, 0x00,
        0x00, 0x90, 0x4f, 0x7f, 0x60, 0x80, 0x47, 0x00, 0x00, 0x90, 0x47, 0x7f, 0x00, 0x80, 0x4f, 0x00,
        0x00, 0x90, 0x4f, 0x7f, 0x60, 0x80, 0x47, 0x00, 0x00, 0x90, 0x47, 0x7f, 0x00, 0x80, 0x4f, 0x00,
        0x00, 0x90, 0x4f, 0x7f, 0x60, 0x80, 0x47, 0x00, 0x00, 0x90, 0x47, 0x7f, 0x00, 0x80, 0x4f, 0x00,
        0x00, 0x90, 0x4f, 0x7f, 0x60, 0x80, 0x47, 0x00, 0x00, 0x90, 0x48, 0x7f, 0x00, 0x80, 0x4f, 0x00,
        0x00, 0x90, 0x51, 0x7f, 0x60, 0x80, 0x48, 0x00, 0x00, 0x90, 0x48, 0x7f, 0x00, 0x80, 0x51, 0x00,
        0x00, 0x90, 0x51, 0x7f, 0x60, 0x80, 0x48, 0x00, 0x00, 0x90, 0x48, 0x7f, 0x00, 0x80, 0x51, 0x00,
        0x00, 0x90, 0x51, 0x7f, 0x60, 0x80, 0x48, 0x00, 0x00, 0x90, 0x48, 0x7f, 0x00, 0x80, 0x51, 0x00,
        0x00, 0x90, 0x51, 0x7f, 0x60, 0x80, 0x48, 0x00, 0x00, 0x90, 0x48, 0x7f, 0x00, 0x80, 0x51, 0x00,
        0x00, 0x90, 0x51, 0x7f, 0x60, 0x80, 0x48, 0x00, 0x00, 0x90, 0x48, 0x7f, 0x00, 0x80, 0x51, 0x00,
        0x00, 0x90, 0x51, 0x7f, 0x60, 0x80, 0x48, 0x00, 0x00, 0x90, 0x48, 0x7f, 0x00, 0x80, 0x51, 0x00,
        0x00, 0x90, 0x51, 0x7f, 0x60, 0x80, 0x48, 0x00, 0x00, 0x90, 0x48, 0x7f, 0x00, 0x80, 0x51, 0x00,
        0x00, 0x90, 0x51, 0x7f, 0x60, 0x80, 0x48, 0x00, 0x00, 0x90, 0x48, 0x7f, 0x00, 0x80, 0x51, 0x00,
        0x00, 0x90, 0x51, 0x7f, 0x60, 0x80, 0x48, 0x00, 0x00, 0x90, 0x48, 0x7f, 0x00, 0x80, 0x51, 0x00,
        0x00, 0x90, 0x51, 0x7f, 0x60, 0x80, 0x48, 0x00, 0x00, 0x90, 0x48, 0x7f, 0x00, 0x80, 0x51, 0x00,
        0x00, 0x90, 0x51, 0x7f, 0x60, 0x80, 0x48, 0x00, 0x00, 0x90, 0x47, 0x7f, 0x00, 0x80, 0x51, 0x00,
        0x00, 0x90, 0x4f, 0x7f, 0x60, 0x80, 0x47, 0x00, 0x00, 0x90, 0x47, 0x7f, 0x00, 0x80, 0x4f, 0x00,
        0x00, 0x90, 0x4f, 0x7f, 0x60, 0x80, 0x47, 0x00, 0x00, 0x90, 0x47, 0x7f, 0x00, 0x80, 0x4f, 0x00,
        0x00, 0x90, 0x4f, 0x7f, 0x60, 0x80, 0x47, 0x00, 0x00, 0x90, 0x47, 0x7f, 0x00, 0x80, 0x4f, 0x00,
        0x00, 0x90, 0x4f, 0x7f, 0x60, 0x80, 0x47, 0x00, 0x00, 0x90, 0x47, 0x7f, 0x00, 0x80, 0x4f, 0x00,
        0x00, 0x90, 0x4f, 0x7f, 0x60, 0x80, 0x47, 0x00, 0x00, 0x90, 0x48, 0x7f, 0x00, 0x80, 0x4f, 0x00,
        0x00, 0x90, 0x51, 0x7f, 0x60, 0x80, 0x48, 0x00, 0x00, 0x90, 0x48, 0x7f, 0x00, 0x80, 0x51, 0x00,
        0x00, 0x90, 0x51, 0x7f, 0x60, 0x80, 0x48, 0x00, 0x00, 0x90, 0x48, 0x7f, 0x00, 0x80, 0x51, 0x00,
        0x00, 0x90, 0x51, 0x7f, 0x60, 0x80, 0x48, 0x00, 0x00, 0x90, 0x48, 0x7f, 0x00, 0x80, 0x51, 0x00,
        0x00, 0x90, 0x51, 0x7f, 0x60, 0x80, 0x48, 0x00, 0x00, 0x90, 0x48, 0x7f, 0x00, 0x80, 0x51, 0x00,
        0x00, 0x90, 0x51, 0x7f, 0x60, 0x80, 0x48, 0x00, 0x00, 0x90, 0x48, 0x7f, 0x00, 0x80, 0x51, 0x00,
        0x00, 0x90, 0x51, 0x7f, 0x60, 0x80, 0x48, 0x00, 0x00, 0x90, 0x48, 0x7f, 0x00, 0x80, 0x51, 0x00,
        0x00, 0x90, 0x51, 0x7f, 0x60, 0x80, 0x48, 0x00, 0x00, 0x90, 0x48, 0x7f, 0x00, 0x80, 0x51, 0x00,
        0x00, 0x90, 0x51, 0x7f, 0x60, 0x80, 0x48, 0x00, 0x00, 0x90, 0x48, 0x7f, 0x00, 0x80, 0x51, 0x00,
        0x00, 0x90, 0x51, 0x7f, 0x60, 0x80, 0x48, 0x00, 0x00, 0x90, 0x48, 0x7f, 0x00, 0x80, 0x51, 0x00,
        0x00, 0x90, 0x51, 0x7f, 0x60, 0x80, 0x48, 0x00, 0x00, 0x90, 0x48, 0x7f, 0x00, 0x80, 0x51, 0x00,
        0x00, 0x90, 0x51, 0x7f, 0x60, 0x80, 0x48, 0x00, 0x00, 0x90, 0x47, 0x7f, 0x00, 0x80, 0x51, 0x00,
        0x00, 0x90, 0x4f, 0x7f, 0x60, 0x80, 0x47, 0x00, 0x00, 0x90, 0x47, 0x7f, 0x00, 0x80, 0x4f, 0x00,
        0x00, 0x90, 0x4f, 0x7f, 0x60, 0x80, 0x47, 0x00, 0x00, 0x90, 0x47, 0x7f, 0x00, 0x80, 0x4f, 0x00,
        0x00, 0x90, 0x4f, 0x7f, 0x60, 0x80, 0x47, 0x00, 0x00, 0x90, 0x47, 0x7f, 0x00, 0x80, 0x4f, 0x00,
        0x00, 0x90, 0x4f, 0x7f, 0x60, 0x80, 0x47, 0x00, 0x00, 0x90, 0x47, 0x7f, 0x00, 0x80, 0x4f, 0x00,
        0x00, 0x90, 0x4f, 0x7f, 0x60, 0x80, 0x47, 0x00, 0x00, 0x90, 0x48, 0x7f, 0x00, 0x80, 0x4f, 0x00,
        0x00, 0x90, 0x51, 0x7f, 0x60, 0x80, 0x48, 0x00, 0x00, 0x90, 0x48, 0x7f, 0x00, 0x80, 0x51, 0x00,
        0x00, 0x90, 0x51, 0x7f, 0x60, 0x80, 0x48, 0x00, 0x00, 0x90, 0x48, 0x7f, 0x00, 0x80, 0x51, 0x00,
        0x00, 0x90, 0x51, 0x7f, 0x60, 0x80, 0x48, 0x00, 0x00, 0x90, 0x48, 0x7f, 0x00, 0x80, 0x51, 0x00,
        0x00, 0x90, 0x51, 0x7f, 0x60, 0x80, 0x48, 0x00, 0x00, 0x90, 0x48, 0x7f, 0x00, 0x80, 0x51, 0x00,
        0x00, 0x90, 0x51, 0x7f, 0x60, 0x80, 0x48, 0x00, 0x00, 0x90, 0x48, 0x7f, 0x00, 0x80, 0x51, 0x00,
        0x00, 0x90, 0x51, 0x7f, 0x60, 0x80, 0x48, 0x00, 0x00, 0x90, 0x48, 0x7f, 0x00, 0x80, 0x51, 0x00,
        0x00, 0x90, 0x51, 0x7f, 0x60, 0x80, 0x48, 0x00, 0x00, 0x90, 0x48, 0x7f, 0x00, 0x80, 0x51, 0x00,
        0x00, 0x90, 0x51, 0x7f, 0x60, 0x80, 0x48, 0x00, 0x00, 0x90, 0x48, 0x7f, 0x00, 0x80, 0x51, 0x00,
        0x00, 0x90, 0x51, 0x7f, 0x60, 0x80, 0x48, 0x00, 0x00, 0x90, 0x48, 0x7f, 0x00, 0x80, 0x51, 0x00,
        0x00, 0x90, 0x51, 0x7f, 0x60, 0x80, 0x48, 0x00, 0x00, 0x90, 0x48, 0x7f, 0x00, 0x80, 0x51, 0x00,
        0x00, 0x90, 0x51, 0x7f, 0x60, 0x80, 0x48, 0x00, 0x00, 0x90, 0x47, 0x7f, 0x00, 0x80, 0x51, 0x00,
        0x00, 0x90, 0x4f, 0x7f, 0x60, 0x80, 0x47, 0x00, 0x00, 0x90, 0x47, 0x7f, 0x00, 0x80, 0x4f, 0x00,
        0x00, 0x90, 0x4f, 0x7f, 0x60, 0x80, 0x47, 0x00, 0x00, 0x90, 0x47, 0x7f, 0x00, 0x80, 0x4f, 0x00,
        0x00, 0x90, 0x4f, 0x7f, 0x60, 0x80, 0x47, 0x00, 0x00, 0x90, 0x47, 0x7f, 0x00, 0x80, 0x4f, 0x00,
        0x00, 0x90, 0x4f, 0x7f, 0x60, 0x80, 0x47, 0x00, 0x00, 0x90, 0x47, 0x7f, 0x00, 0x80, 0x4f, 0x00,
        0x00, 0x90, 0x4f, 0x7f, 0x60, 0x80, 0x47, 0x00, 0x00, 0x90, 0x48, 0x7f, 0x00, 0x80, 0x4f, 0x00,
        0x00, 0x90, 0x51, 0x7f, 0x60, 0x80, 0x48, 0x00, 0x00, 0x90, 0x48, 0x7f, 0x00, 0x80, 0x51, 0x00,
        0x00, 0x90, 0x51, 0x7f, 0x60, 0x80, 0x48, 0x00, 0x00, 0x90, 0x48, 0x7f, 0x00, 0x80, 0x51, 0x00,
        0x00, 0x90, 0x51, 0x7f, 0x60, 0x80, 0x48, 0x00, 0x00, 0x90, 0x48, 0x7f, 0x00, 0x80, 0x51, 0x00,
        0x00, 0x90, 0x51, 0x7f, 0x60, 0x80, 0x48, 0x00, 0x00, 0x90, 0x48, 0x7f, 0x00, 0x80, 0x51, 0x00,
        0x00, 0x90, 0x51, 0x7f, 0x60, 0x80, 0x48, 0x00, 0x00, 0x90, 0x48, 0x7f, 0x00, 0x80, 0x51, 0x00,
        0x00, 0x90, 0x51, 0x7f, 0x60, 0x80, 0x48, 0x00, 0x00, 0x90, 0x48, 0x7f, 0x00, 0x80, 0x51, 0x00,
        0x00, 0x90, 0x51, 0x7f, 0x60, 0x80, 0x48, 0x00, 0x00, 0x90, 0x48, 0x7f, 0x00, 0x80, 0x51, 0x00,
        0x00, 0x90, 0x51, 0x7f, 0x60, 0x80, 0x48, 0x00, 0x00, 0x90, 0x48, 0x7f, 0x00, 0x80, 0x51, 0x00,
        0x00, 0x90, 0x51, 0x7f, 0x60, 0x80, 0x48, 0x00, 0x00, 0x90, 0x48, 0x7f, 0x00, 0x80, 0x51, 0x00,
        0x00, 0x90, 0x51, 0x7f, 0x60, 0x80, 0x48, 0x00, 0x00, 0x90, 0x48, 0x7f, 0x00, 0x80, 0x51, 0x00,
        0x00, 0x90, 0x51, 0x7f, 0x60, 0x80, 0x48, 0x00, 0x00, 0x90, 0x47, 0x7f, 0x00, 0x80, 0x51, 0x00,
        0x00, 0x90, 0x4f, 0x7f, 0x60, 0x80, 0x47, 0x00, 0x00, 0x90, 0x47, 0x7f, 0x00, 0x80, 0x4f, 0x00,
        0x00, 0x90, 0x4f, 0x7f, 0x60, 0x80, 0x47, 0x00, 0x00, 0x90, 0x47, 0x7f, 0x00, 0x80, 0x4f, 0x00,
        0x00, 0x90, 0x4f, 0x7f, 0x60, 0x80, 0x47, 0x00, 0x00, 0x90, 0x47, 0x7f, 0x00, 0x80, 0x4f, 0x00,
        0x00, 0x90, 0x4f, 0x7f, 0x60, 0x80, 0x47, 0x00, 0x00, 0x90, 0x47, 0x7f, 0x00, 0x80, 0x4f, 0x00,
        0x00, 0x90, 0x4f, 0x7f, 0x86, 0x00, 0x80, 0x4f, 0x00, 0x00, 0x80, 0x47, 0x00, 0x00, 0xff, 0x2f,
        0x00, 0x4d, 0x54, 0x72, 0x6b, 0x00, 0x00, 0x02, 0x89, 0x00, 0xff, 0x03, 0x14, 0x54, 0x61, 0x62,
        0x49, 0x74, 0x20, 0x4d, 0x49, 0x44, 0x49, 0x20, 0x2d, 0x20, 0x54, 0x72, 0x61, 0x63, 0x6b, 0x20,
        0x32, 0x00, 0xc1, 0x21, 0x96, 0x40, 0x91, 0x1f, 0x60, 0x81, 0x40, 0x81, 0x1f, 0x00, 0x00, 0x91,
        0x21, 0x60, 0x81, 0x10, 0x81, 0x21, 0x00, 0x83, 0x30, 0x91, 0x23, 0x60, 0x81, 0x40, 0x81, 0x23,
        0x00, 0x00, 0x91, 0x28, 0x60, 0x81, 0x10, 0x81, 0x28, 0x00, 0x83, 0x30, 0x91, 0x1f, 0x60, 0x81,
        0x40, 0x81, 0x1f, 0x00, 0x00, 0x91, 0x21, 0x60, 0x81, 0x10, 0x81, 0x21, 0x00, 0x83, 0x30, 0x91,
        0x23, 0x60, 0x81, 0x40, 0x81, 0x23, 0x00, 0x00, 0x91, 0x28, 0x60, 0x81, 0x10, 0x81, 0x28, 0x00,
        0x83, 0x30, 0x91, 0x1f, 0x60, 0x81, 0x40, 0x81, 0x1f, 0x00, 0x00, 0x91, 0x21, 0x60, 0x81, 0x10,
        0x81, 0x21, 0x00, 0x83, 0x30, 0x91, 0x23, 0x60, 0x81, 0x40, 0x81, 0x23, 0x00, 0x00, 0x91, 0x28,
        0x60, 0x81, 0x10, 0x81, 0x28, 0x00, 0x83, 0x30, 0x91, 0x1f, 0x60, 0x81, 0x40, 0x81, 0x1f, 0x00,
        0x00, 0x91, 0x21, 0x60, 0x81, 0x10, 0x81, 0x21, 0x00, 0x83, 0x30, 0x91, 0x23, 0x60, 0x81, 0x40,
        0x81, 0x23, 0x00, 0x00, 0x91, 0x28, 0x60, 0x81, 0x10, 0x81, 0x28, 0x00, 0x83, 0x30, 0x91, 0x1f,
        0x60, 0x81, 0x40, 0x81, 0x1f, 0x00, 0x00, 0x91, 0x21, 0x60, 0x81, 0x10, 0x81, 0x21, 0x00, 0x83,
        0x30, 0x91, 0x23, 0x60, 0x81, 0x40, 0x81, 0x23, 0x00, 0x00, 0x91, 0x28, 0x60, 0x81, 0x10, 0x81,
        0x28, 0x00, 0x83, 0x30, 0x91, 0x1f, 0x60, 0x81, 0x40, 0x81, 0x1f, 0x00, 0x00, 0x91, 0x21, 0x60,
        0x81, 0x10, 0x81, 0x21, 0x00, 0x83, 0x30, 0x91, 0x23, 0x60, 0x81, 0x40, 0x81, 0x23, 0x00, 0x00,
        0x91, 0x28, 0x60, 0x81, 0x10, 0x81, 0x28, 0x00, 0x83, 0x30, 0x91, 0x1f, 0x60, 0x81, 0x40, 0x81,
        0x1f, 0x00, 0x00, 0x91, 0x21, 0x60, 0x81, 0x10, 0x81, 0x21, 0x00, 0x83, 0x30, 0x91, 0x23, 0x60,
        0x81, 0x40, 0x81, 0x23, 0x00, 0x00, 0x91, 0x28, 0x60, 0x81, 0x10, 0x81, 0x28, 0x00, 0x83, 0x30,
        0x91, 0x1f, 0x60, 0x81, 0x40, 0x81, 0x1f, 0x00, 0x00, 0x91, 0x21, 0x60, 0x81, 0x10, 0x81, 0x21,
        0x00, 0x83, 0x30, 0x91, 0x23, 0x60, 0x81, 0x40, 0x81, 0x23, 0x00, 0x00, 0x91, 0x28, 0x60, 0x81,
        0x10, 0x81, 0x28, 0x00, 0x83, 0x30, 0x91, 0x1f, 0x60, 0x81, 0x40, 0x81, 0x1f, 0x00, 0x00, 0x91,
        0x21, 0x60, 0x81, 0x10, 0x81, 0x21, 0x00, 0x83, 0x30, 0x91, 0x23, 0x60, 0x81, 0x40, 0x81, 0x23,
        0x00, 0x00, 0x91, 0x28, 0x60, 0x81, 0x10, 0x81, 0x28, 0x00, 0x83, 0x30, 0x91, 0x1f, 0x60, 0x81,
        0x40, 0x81, 0x1f, 0x00, 0x00, 0x91, 0x21, 0x60, 0x81, 0x10, 0x81, 0x21, 0x00, 0x83, 0x30, 0x91,
        0x23, 0x60, 0x81, 0x40, 0x81, 0x23, 0x00, 0x00, 0x91, 0x28, 0x60, 0x81, 0x10, 0x81, 0x28, 0x00,
        0x83, 0x30, 0x91, 0x1f, 0x60, 0x81, 0x40, 0x81, 0x1f, 0x00, 0x00, 0x91, 0x21, 0x60, 0x81, 0x10,
        0x81, 0x21, 0x00, 0x83, 0x30, 0x91, 0x23, 0x60, 0x81, 0x40, 0x81, 0x23, 0x00, 0x00, 0x91, 0x28,
        0x60, 0x81, 0x10, 0x81, 0x28, 0x00, 0x83, 0x30, 0x91, 0x1f, 0x60, 0x81, 0x40, 0x81, 0x1f, 0x00,
        0x00, 0x91, 0x21, 0x60, 0x81, 0x10, 0x81, 0x21, 0x00, 0x83, 0x30, 0x91, 0x23, 0x60, 0x81, 0x40,
        0x81, 0x23, 0x00, 0x00, 0x91, 0x28, 0x60, 0x81, 0x10, 0x81, 0x28, 0x00, 0x83, 0x30, 0x91, 0x1f,
        0x60, 0x81, 0x40, 0x81, 0x1f, 0x00, 0x00, 0x91, 0x21, 0x60, 0x81, 0x10, 0x81, 0x21, 0x00, 0x83,
        0x30, 0x91, 0x23, 0x60, 0x81, 0x40, 0x81, 0x23, 0x00, 0x00, 0x91, 0x28, 0x60, 0x81, 0x10, 0x81,
        0x28, 0x00, 0x83, 0x30, 0x91, 0x1f, 0x60, 0x81, 0x40, 0x81, 0x1f, 0x00, 0x00, 0x91, 0x21, 0x60,
        0x81, 0x10, 0x81, 0x21, 0x00, 0x83, 0x30, 0x91, 0x23, 0x60, 0x81, 0x40, 0x81, 0x23, 0x00, 0x00,
        0x91, 0x28, 0x60, 0x81, 0x10, 0x81, 0x28, 0x00, 0x83, 0x30, 0x91, 0x1f, 0x60, 0x81, 0x40, 0x81,
        0x1f, 0x00, 0x00, 0x91, 0x21, 0x60, 0x81, 0x10, 0x81, 0x21, 0x00, 0x83, 0x30, 0x91, 0x23, 0x60,
        0x81, 0x40, 0x81, 0x23, 0x00, 0x00, 0x91, 0x28, 0x60, 0x81, 0x10, 0x81, 0x28, 0x00, 0x83, 0x30,
        0x91, 0x1f, 0x60, 0x81, 0x40, 0x81, 0x1f, 0x00, 0x00, 0x91, 0x21, 0x60, 0x81, 0x10, 0x81, 0x21,
        0x00, 0x83, 0x30, 0x91, 0x23, 0x60, 0x81, 0x40, 0x81, 0x23, 0x00, 0x00, 0x91, 0x28, 0x60, 0x81,
        0x10, 0x81, 0x28, 0x00, 0x83, 0x30, 0x91, 0x1f, 0x60, 0x86, 0x00, 0x81, 0x1f, 0x00, 0x00, 0xff,
        0x2f, 0x00, 0x4d, 0x54, 0x72, 0x6b, 0x00, 0x00, 0x12, 0x20, 0x00, 0xff, 0x03, 0x14, 0x54, 0x61,
        0x62, 0x49, 0x74, 0x20, 0x4d, 0x49, 0x44, 0x49, 0x20, 0x2d, 0x20, 0x54, 0x72, 0x61, 0x63, 0x6b,
        0x20, 0x33, 0x00, 0xc2, 0x1c, 0x00, 0x92, 0x48, 0x60, 0x00, 0x92, 0x51, 0x60, 0x60, 0x82, 0x48,
        0x00, 0x00, 0x92, 0x48, 0x60, 0x00, 0x82, 0x51, 0x00, 0x00, 0x92, 0x51, 0x60, 0x60, 0x82, 0x48,
        0x00, 0x00, 0x92, 0x48, 0x60, 0x00, 0x82, 0x51, 0x00, 0x00, 0x92, 0x51, 0x60, 0x60, 0x82, 0x48,
        0x00, 0x00, 0x92, 0x48, 0x60, 0x00, 0x82, 0x51, 0x00, 0x00, 0x92, 0x51, 0x60, 0x60, 0x82, 0x48,
        0x00, 0x00, 0x92, 0x48, 0x60, 0x00, 0x82, 0x51, 0x00, 0x00, 0x92, 0x51, 0x60, 0x60, 0x82, 0x48,
        0x00, 0x00, 0x92, 0x48, 0x60, 0x00, 0x82, 0x51, 0x00, 0x00, 0x92, 0x51, 0x60, 0x60, 0x82, 0x48,
        0x00, 0x00, 0x92, 0x48, 0x60, 0x00, 0x82, 0x51, 0x00, 0x00, 0x92, 0x51, 0x60, 0x60, 0x82, 0x48,
        0x00, 0x00, 0x92, 0x48, 0x60, 0x00, 0x82, 0x51, 0x00, 0x00, 0x92, 0x51, 0x60, 0x60, 0x82, 0x48,
        0x00, 0x00, 0x92, 0x48, 0x60, 0x00, 0x82, 0x51, 0x00, 0x00, 0x92, 0x51, 0x60, 0x60, 0x82, 0x48,
        0x00, 0x00, 0x92, 0x48, 0x60, 0x00, 0x82, 0x51, 0x00, 0x00, 0x92, 0x51, 0x60, 0x60, 0x82, 0x48,
        0x00, 0x00, 0x92, 0x48, 0x60, 0x00, 0x82, 0x51, 0x00, 0x00, 0x92, 0x51, 0x60, 0x60, 0x82, 0x48,
        0x00, 0x00, 0x92, 0x47, 0x60, 0x00, 0x82, 0x51, 0x00, 0x00, 0x92, 0x4f, 0x60, 0x60, 0x82, 0x47,
        0x00, 0x00, 0x92, 0x47, 0x60, 0x00, 0x82, 0x4f, 0x00, 0x00, 0x92, 0x4f, 0x60, 0x60, 0x82, 0x47,
        0x00, 0x00, 0x92, 0x47, 0x60, 0x00, 0x82, 0x4f, 0x00, 0x00, 0x92, 0x4f, 0x60, 0x60, 0x82, 0x47,
        0x00, 0x00, 0x92, 0x47, 0x60, 0x00, 0x82, 0x4f, 0x00, 0x00, 0x92, 0x4f, 0x60, 0x60, 0x82, 0x47,
        0x00, 0x00, 0x92, 0x47, 0x60, 0x00, 0x82, 0x4f, 0x00, 0x00, 0x92, 0x4f, 0x60, 0x60, 0x82, 0x47,
        0x00, 0x00, 0x92, 0x48, 0x60, 0x00, 0x82, 0x4f, 0x00, 0x00, 0x92, 0x51, 0x60, 0x60, 0x82, 0x48,
        0x00, 0x00, 0x92, 0x48, 0x60, 0x00, 0x82, 0x51, 0x00, 0x00, 0x92, 0x51, 0x60, 0x60, 0x82, 0x48,
        0x00, 0x00, 0x92, 0x48, 0x60, 0x00, 0x82, 0x51, 0x00, 0x00, 0x92, 0x51, 0x60, 0x60, 0x82, 0x48,
        0x00, 0x00, 0x92, 0x48, 0x60, 0x00, 0x82, 0x51, 0x00, 0x00, 0x92, 0x51, 0x60, 0x60, 0x82, 0x48,
        0x00, 0x00, 0x92, 0x48, 0x60, 0x00, 0x82, 0x51, 0x00, 0x00, 0x92, 0x51, 0x60, 0x60, 0x82, 0x48,
        0x00, 0x00, 0x92, 0x48, 0x60, 0x00, 0x82, 0x51, 0x00, 0x00, 0x92, 0x51, 0x60, 0x60, 0x82, 0x48,
        0x00, 0x00, 0x92, 0x48, 0x60, 0x00, 0x82, 0x51, 0x00, 0x00, 0x92, 0x51, 0x60, 0x60, 0x82, 0x48,
        0x00, 0x00, 0x92, 0x48, 0x60, 0x00, 0x82, 0x51, 0x00, 0x00, 0x92, 0x51, 0x60, 0x60, 0x82, 0x48,
        0x00, 0x00, 0x92, 0x48, 0x60, 0x00, 0x82, 0x51, 0x00, 0x00, 0x92, 0x51, 0x60, 0x60, 0x82, 0x48,
        0x00, 0x00, 0x92, 0x48, 0x60, 0x00, 0x82, 0x51, 0x00, 0x00, 0x92, 0x51, 0x60, 0x60, 0x82, 0x48,
        0x00, 0x00, 0x92, 0x48, 0x60, 0x00, 0x82, 0x51, 0x00, 0x00, 0x92, 0x51, 0x60, 0x60, 0x82, 0x48,
        0x00, 0x00, 0x92, 0x47, 0x60, 0x00, 0x82, 0x51, 0x00, 0x00, 0x92, 0x4f, 0x60, 0x60, 0x82, 0x47,
        0x00, 0x00, 0x92, 0x47, 0x60, 0x00, 0x82, 0x4f, 0x00, 0x00, 0x92, 0x4f, 0x60, 0x60, 0x82, 0x47,
        0x00, 0x00, 0x92, 0x47, 0x60, 0x00, 0x82, 0x4f, 0x00, 0x00, 0x92, 0x4f, 0x60, 0x60, 0x82, 0x47,
        0x00, 0x00, 0x92, 0x47, 0x60, 0x00, 0x82, 0x4f, 0x00, 0x00, 0x92, 0x4f, 0x60, 0x60, 0x82, 0x47,
        0x00, 0x00, 0x92, 0x47, 0x60, 0x00, 0x82, 0x4f, 0x00, 0x00, 0x92, 0x4f, 0x60, 0x60, 0x82, 0x47,
        0x00, 0x00, 0x92, 0x48, 0x60, 0x00, 0x82, 0x4f, 0x00, 0x00, 0x92, 0x51, 0x60, 0x60, 0x82, 0x48,
        0x00, 0x00, 0x92, 0x48, 0x60, 0x00, 0x82, 0x51, 0x00, 0x00, 0x92, 0x51, 0x60, 0x60, 0x82, 0x48,
        0x00, 0x00, 0x92, 0x48, 0x60, 0x00, 0x82, 0x51, 0x00, 0x00, 0x92, 0x51, 0x60, 0x60, 0x82, 0x48,
        0x00, 0x00, 0x92, 0x48, 0x60, 0x00, 0x82, 0x51, 0x00, 0x00, 0x92, 0x51, 0x60, 0x60, 0x82, 0x48,
        0x00, 0x00, 0x92, 0x48, 0x60, 0x00, 0x82, 0x51, 0x00, 0x00, 0x92, 0x51, 0x60, 0x60, 0x82, 0x48,
        0x00, 0x00, 0x92, 0x48, 0x60, 0x00, 0x82, 0x51, 0x00, 0x00, 0x92, 0x51, 0x60, 0x60, 0x82, 0x48,
        0x00, 0x00, 0x92, 0x48, 0x60, 0x00, 0x82, 0x51, 0x00, 0x00, 0x92, 0x51, 0x60, 0x60, 0x82, 0x48,
        0x00, 0x00, 0x92, 0x48, 0x60, 0x00, 0x82, 0x51, 0x00, 0x00, 0x92, 0x51, 0x60, 0x60, 0x82, 0x48,
        0x00, 0x00, 0x92, 0x48, 0x60, 0x00, 0x82, 0x51, 0x00, 0x00, 0x92, 0x51, 0x60, 0x60, 0x82, 0x48,
        0x00, 0x00, 0x92, 0x48, 0x60, 0x00, 0x82, 0x51, 0x00, 0x00, 0x92, 0x51, 0x60, 0x60, 0x82, 0x48,
        0x00, 0x00, 0x92, 0x48, 0x60, 0x00, 0x82, 0x51, 0x00, 0x00, 0x92, 0x51, 0x60, 0x60, 0x82, 0x48,
        0x00, 0x00, 0x92, 0x47, 0x60, 0x00, 0x82, 0x51, 0x00, 0x00, 0x92, 0x4f, 0x60, 0x60, 0x82, 0x47,
        0x00, 0x00, 0x92, 0x47, 0x60, 0x00, 0x82, 0x4f, 0x00, 0x00, 0x92, 0x4f, 0x60, 0x60, 0x82, 0x47,
        0x00, 0x00, 0x92, 0x47, 0x60, 0x00, 0x82, 0x4f, 0x00, 0x00, 0x92, 0x4f, 0x60, 0x60, 0x82, 0x47,
        0x00, 0x00, 0x92, 0x47, 0x60, 0x00, 0x82, 0x4f, 0x00, 0x00, 0x92, 0x4f, 0x60, 0x60, 0x82, 0x47,
        0x00, 0x00, 0x92, 0x47, 0x60, 0x00, 0x82, 0x4f, 0x00, 0x00, 0x92, 0x4f, 0x60, 0x60, 0x82, 0x47,
        0x00, 0x00, 0x92, 0x48, 0x60, 0x00, 0x82, 0x4f, 0x00, 0x00, 0x92, 0x51, 0x60, 0x60, 0x82, 0x48,
        0x00, 0x00, 0x92, 0x48, 0x60, 0x00, 0x82, 0x51, 0x00, 0x00, 0x92, 0x51, 0x60, 0x60, 0x82, 0x48,
        0x00, 0x00, 0x92, 0x48, 0x60, 0x00, 0x82, 0x51, 0x00, 0x00, 0x92, 0x51, 0x60, 0x60, 0x82, 0x48,
        0x00, 0x00, 0x92, 0x48, 0x60, 0x00, 0x82, 0x51, 0x00, 0x00, 0x92, 0x51, 0x60, 0x60, 0x82, 0x48,
        0x00, 0x00, 0x92, 0x48, 0x60, 0x00, 0x82, 0x51, 0x00, 0x00, 0x92, 0x51, 0x60, 0x60, 0x82, 0x48,
        0x00, 0x00, 0x92, 0x48, 0x60, 0x00, 0x82, 0x51, 0x00, 0x00, 0x92, 0x51, 0x60, 0x60, 0x82, 0x48,
        0x00, 0x00, 0x92, 0x48, 0x60, 0x00, 0x82, 0x51, 0x00, 0x00, 0x92, 0x51, 0x60, 0x60, 0x82, 0x48,
        0x00, 0x00, 0x92, 0x48, 0x60, 0x00, 0x82, 0x51, 0x00, 0x00, 0x92, 0x51, 0x60, 0x60, 0x82, 0x48,
        0x00, 0x00, 0x92, 0x48, 0x60, 0x00, 0x82, 0x51, 0x00, 0x00, 0x92, 0x51, 0x60, 0x60, 0x82, 0x48,
        0x00, 0x00, 0x92, 0x48, 0x60, 0x00, 0x82, 0x51, 0x00, 0x00, 0x92, 0x51, 0x60, 0x60, 0x82, 0x48,
        0x00, 0x00, 0x92, 0x48, 0x60, 0x00, 0x82, 0x51, 0x00, 0x00, 0x92, 0x51, 0x60, 0x60, 0x82, 0x48,
        0x00, 0x00, 0x92, 0x47, 0x60, 0x00, 0x82, 0x51, 0x00, 0x00, 0x92, 0x4f, 0x60, 0x60, 0x82, 0x47,
        0x00, 0x00, 0x92, 0x47, 0x60, 0x00, 0x82, 0x4f, 0x00, 0x00, 0x92, 0x4f, 0x60, 0x60, 0x82, 0x47,
        0x00, 0x00, 0x92, 0x47, 0x60, 0x00, 0x82, 0x4f, 0x00, 0x00, 0x92, 0x4f, 0x60, 0x60, 0x82, 0x47,
        0x00, 0x00, 0x92, 0x47, 0x60, 0x00, 0x82, 0x4f, 0x00, 0x00, 0x92, 0x4f, 0x60, 0x60, 0x82, 0x47,
        0x00, 0x00, 0x92, 0x47, 0x60, 0x00, 0x82, 0x4f, 0x00, 0x00, 0x92, 0x4f, 0x60, 0x60, 0x82, 0x47,
        0x00, 0x00, 0x92, 0x48, 0x60, 0x00, 0x82, 0x4f, 0x00, 0x00, 0x92, 0x51, 0x60, 0x60, 0x82, 0x48,
        0x00, 0x00, 0x92, 0x48, 0x60, 0x00, 0x82, 0x51, 0x00, 0x00, 0x92, 0x51, 0x60, 0x60, 0x82, 0x48,
        0x00, 0x00, 0x92, 0x48, 0x60, 0x00, 0x82, 0x51, 0x00, 0x00, 0x92, 0x51, 0x60, 0x60, 0x82, 0x48,
        0x00, 0x00, 0x92, 0x48, 0x60, 0x00, 0x82, 0x51, 0x00, 0x00, 0x92, 0x51, 0x60, 0x60, 0x82, 0x48,
        0x00, 0x00, 0x92, 0x48, 0x60, 0x00, 0x82, 0x51, 0x00, 0x00, 0x92, 0x51, 0x60, 0x60, 0x82, 0x48,
        0x00, 0x00, 0x92, 0x48, 0x60, 0x00, 0x82, 0x51, 0x00, 0x00, 0x92, 0x51, 0x60, 0x60, 0x82, 0x48,
        0x00, 0x00, 0x92, 0x48, 0x60, 0x00, 0x82, 0x51, 0x00, 0x00, 0x92, 0x51, 0x60, 0x60, 0x82, 0x48,
        0x00, 0x00, 0x92, 0x48, 0x60, 0x00, 0x82, 0x51, 0x00, 0x00, 0x92, 0x51, 0x60, 0x60, 0x82, 0x48,
        0x00, 0x00, 0x92, 0x48, 0x60, 0x00, 0x82, 0x51, 0x00, 0x00, 0x92, 0x51, 0x60, 0x60, 0x82, 0x48,
        0x00, 0x00, 0x92, 0x48, 0x60, 0x00, 0x82, 0x51, 0x00, 0x00, 0x92, 0x51, 0x60, 0x60, 0x82, 0x48,
        0x00, 0x00, 0x92, 0x48, 0x60, 0x00, 0x82, 0x51, 0x00, 0x00, 0x92, 0x51, 0x60, 0x60, 0x82, 0x48,
        0x00, 0x00, 0x92, 0x47, 0x60, 0x00, 0x82, 0x51, 0x00, 0x00, 0x92, 0x4f, 0x60, 0x60, 0x82, 0x47,
        0x00, 0x00, 0x92, 0x47, 0x60, 0x00, 0x82, 0x4f, 0x00, 0x00, 0x92, 0x4f, 0x60, 0x60, 0x82, 0x47,
        0x00, 0x00, 0x92, 0x47, 0x60, 0x00, 0x82, 0x4f, 0x00, 0x00, 0x92, 0x4f, 0x60, 0x60, 0x82, 0x47,
        0x00, 0x00, 0x92, 0x47, 0x60, 0x00, 0x82, 0x4f, 0x00, 0x00, 0x92, 0x4f, 0x60, 0x60, 0x82, 0x47,
        0x00, 0x00, 0x92, 0x47, 0x60, 0x00, 0x82, 0x4f, 0x00, 0x00, 0x92, 0x4f, 0x60, 0x60, 0x82, 0x47,
        0x00, 0x00, 0x92, 0x48, 0x60, 0x00, 0x82, 0x4f, 0x00, 0x00, 0x92, 0x51, 0x60, 0x60, 0x82, 0x48,
        0x00, 0x00, 0x92, 0x48, 0x60, 0x00, 0x82, 0x51, 0x00, 0x00, 0x92, 0x51, 0x60, 0x60, 0x82, 0x48,
        0x00, 0x00, 0x92, 0x48, 0x60, 0x00, 0x82, 0x51, 0x00, 0x00, 0x92, 0x51, 0x60, 0x60, 0x82, 0x48,
        0x00, 0x00, 0x92, 0x48, 0x60, 0x00, 0x82, 0x51, 0x00, 0x00, 0x92, 0x51, 0x60, 0x60, 0x82, 0x48,
        0x00, 0x00, 0x92, 0x48, 0x60, 0x00, 0x82, 0x51, 0x00, 0x00, 0x92, 0x51, 0x60, 0x60, 0x82, 0x48,
        0x00, 0x00, 0x92, 0x48, 0x60, 0x00, 0x82, 0x51, 0x00, 0x00, 0x92, 0x51, 0x60, 0x60, 0x82, 0x48,
        0x00, 0x00, 0x92, 0x48, 0x60, 0x00, 0x82, 0x51, 0x00, 0x00, 0x92, 0x51, 0x60, 0x60, 0x82, 0x48,
        0x00, 0x00, 0x92, 0x48, 0x60, 0x00, 0x82, 0x51, 0x00, 0x00, 0x92, 0x51, 0x60, 0x60, 0x82, 0x48,
        0x00, 0x00, 0x92, 0x48, 0x60, 0x00, 0x82, 0x51, 0x00, 0x00, 0x92, 0x51, 0x60, 0x60, 0x82, 0x48,
        0x00, 0x00, 0x92, 0x48, 0x60, 0x00, 0x82, 0x51, 0x00, 0x00, 0x92, 0x51, 0x60, 0x60, 0x82, 0x48,
        0x00, 0x00, 0x92, 0x48, 0x60, 0x00, 0x82, 0x51, 0x00, 0x00, 0x92, 0x51, 0x60, 0x60, 0x82, 0x48,
        0x00, 0x00, 0x92, 0x47, 0x60, 0x00, 0x82, 0x51, 0x00, 0x00, 0x92, 0x4f, 0x60, 0x60, 0x82, 0x47,
        0x00, 0x00, 0x92, 0x47, 0x60, 0x00, 0x82, 0x4f, 0x00, 0x00, 0x92, 0x4f, 0x60, 0x60, 0x82, 0x47,
        0x00, 0x00, 0x92, 0x47, 0x60, 0x00, 0x82, 0x4f, 0x00, 0x00, 0x92, 0x4f, 0x60, 0x60, 0x82, 0x47,
        0x00, 0x00, 0x92, 0x47, 0x60, 0x00, 0x82, 0x4f, 0x00, 0x00, 0x92, 0x4f, 0x60, 0x60, 0x82, 0x47,
        0x00, 0x00, 0x92, 0x47, 0x60, 0x00, 0x82, 0x4f, 0x00, 0x00, 0x92, 0x4f, 0x60, 0x60, 0x82, 0x47,
        0x00, 0x00, 0x92, 0x48, 0x60, 0x00, 0x82, 0x4f, 0x00, 0x00, 0x92, 0x51, 0x60, 0x60, 0x82, 0x48,
        0x00, 0x00, 0x92, 0x48, 0x60, 0x00, 0x82, 0x51, 0x00, 0x00, 0x92, 0x51, 0x60, 0x60, 0x82, 0x48,
        0x00, 0x00, 0x92, 0x48, 0x60, 0x00, 0x82, 0x51, 0x00, 0x00, 0x92, 0x51, 0x60, 0x60, 0x82, 0x48,
        0x00, 0x00, 0x92, 0x48, 0x60, 0x00, 0x82, 0x51, 0x00, 0x00, 0x92, 0x51, 0x60, 0x60, 0x82, 0x48,
        0x00, 0x00, 0x92, 0x48, 0x60, 0x00, 0x82, 0x51, 0x00, 0x00, 0x92, 0x51, 0x60, 0x60, 0x82, 0x48,
        0x00, 0x00, 0x92, 0x48, 0x60, 0x00, 0x82, 0x51, 0x00, 0x00, 0x92, 0x51, 0x60, 0x60, 0x82, 0x48,
        0x00, 0x00, 0x92, 0x48, 0x60, 0x00, 0x82, 0x51, 0x00, 0x00, 0x92, 0x51, 0x60, 0x60, 0x82, 0x48,
        0x00, 0x00, 0x92, 0x48, 0x60, 0x00, 0x82, 0x51, 0x00, 0x00, 0x92, 0x51, 0x60, 0x60, 0x82, 0x48,
        0x00, 0x00, 0x92, 0x48, 0x60, 0x00, 0x82, 0x51, 0x00, 0x00, 0x92, 0x51, 0x60, 0x60, 0x82, 0x48,
        0x00, 0x00, 0x92, 0x48, 0x60, 0x00, 0x82, 0x51, 0x00, 0x00, 0x92, 0x51, 0x60, 0x60, 0x82, 0x48,
        0x00, 0x00, 0x92, 0x48, 0x60, 0x00, 0x82, 0x51, 0x00, 0x00, 0x92, 0x51, 0x60, 0x60, 0x82, 0x48,
        0x00, 0x00, 0x92, 0x47, 0x60, 0x00, 0x82, 0x51, 0x00, 0x00, 0x92, 0x4f, 0x60, 0x60, 0x82, 0x47,
        0x00, 0x00, 0x92, 0x47, 0x60, 0x00, 0x82, 0x4f, 0x00, 0x00, 0x92, 0x4f, 0x60, 0x60, 0x82, 0x47,
        0x00, 0x00, 0x92, 0x47, 0x60, 0x00, 0x82, 0x4f, 0x00, 0x00, 0x92, 0x4f, 0x60, 0x60, 0x82, 0x47,
        0x00, 0x00, 0x92, 0x47, 0x60, 0x00, 0x82, 0x4f, 0x00, 0x00, 0x92, 0x4f, 0x60, 0x60, 0x82, 0x47,
        0x00, 0x00, 0x92, 0x47, 0x60, 0x00, 0x82, 0x4f, 0x00, 0x00, 0x92, 0x4f, 0x60, 0x60, 0x82, 0x47,
        0x00, 0x00, 0x92, 0x48, 0x60, 0x00, 0x82, 0x4f, 0x00, 0x00, 0x92, 0x51, 0x60, 0x60, 0x82, 0x48,
        0x00, 0x00, 0x92, 0x48, 0x60, 0x00, 0x82, 0x51, 0x00, 0x00, 0x92, 0x51, 0x60, 0x60, 0x82, 0x48,
        0x00, 0x00, 0x92, 0x48, 0x60, 0x00, 0x82, 0x51, 0x00, 0x00, 0x92, 0x51, 0x60, 0x60, 0x82, 0x48,
        0x00, 0x00, 0x92, 0x48, 0x60, 0x00, 0x82, 0x51, 0x00, 0x00, 0x92, 0x51, 0x60, 0x60, 0x82, 0x48,
        0x00, 0x00, 0x92, 0x48, 0x60, 0x00, 0x82, 0x51, 0x00, 0x00, 0x92, 0x51, 0x60, 0x60, 0x82, 0x48,
        0x00, 0x00, 0x92, 0x48, 0x60, 0x00, 0x82, 0x51, 0x00, 0x00, 0x92, 0x51, 0x60, 0x60, 0x82, 0x48,
        0x00, 0x00, 0x92, 0x48, 0x60, 0x00, 0x82, 0x51, 0x00, 0x00, 0x92, 0x51, 0x60, 0x60, 0x82, 0x48,
        0x00, 0x00, 0x92, 0x48, 0x60, 0x00, 0x82, 0x51, 0x00, 0x00, 0x92, 0x51, 0x60, 0x60, 0x82, 0x48,
        0x00, 0x00, 0x92, 0x48, 0x60, 0x00, 0x82, 0x51, 0x00, 0x00, 0x92, 0x51, 0x60, 0x60, 0x82, 0x48,
        0x00, 0x00, 0x92, 0x48, 0x60, 0x00, 0x82, 0x51, 0x00, 0x00, 0x92, 0x51, 0x60, 0x60, 0x82, 0x48,
        0x00, 0x00, 0x92, 0x48, 0x60, 0x00, 0x82, 0x51, 0x00, 0x00, 0x92, 0x51, 0x60, 0x60, 0x82, 0x48,
        0x00, 0x00, 0x92, 0x47, 0x60, 0x00, 0x82, 0x51, 0x00, 0x00, 0x92, 0x4f, 0x60, 0x60, 0x82, 0x47,
        0x00, 0x00, 0x92, 0x47, 0x60, 0x00, 0x82, 0x4f, 0x00, 0x00, 0x92, 0x4f, 0x60, 0x60, 0x82, 0x47,
        0x00, 0x00, 0x92, 0x47, 0x60, 0x00, 0x82, 0x4f, 0x00, 0x00, 0x92, 0x4f, 0x60, 0x60, 0x82, 0x47,
        0x00, 0x00, 0x92, 0x47, 0x60, 0x00, 0x82, 0x4f, 0x00, 0x00, 0x92, 0x4f, 0x60, 0x60, 0x82, 0x47,
        0x00, 0x00, 0x92, 0x47, 0x60, 0x00, 0x82, 0x4f, 0x00, 0x00, 0x92, 0x4f, 0x60, 0x60, 0x82, 0x47,
        0x00, 0x00, 0x92, 0x48, 0x60, 0x00, 0x82, 0x4f, 0x00, 0x00, 0x92, 0x51, 0x60, 0x60, 0x82, 0x48,
        0x00, 0x00, 0x92, 0x48, 0x60, 0x00, 0x82, 0x51, 0x00, 0x00, 0x92, 0x51, 0x60, 0x60, 0x82, 0x48,
        0x00, 0x00, 0x92, 0x48, 0x60, 0x00, 0x82, 0x51, 0x00, 0x00, 0x92, 0x51, 0x60, 0x60, 0x82, 0x48,
        0x00, 0x00, 0x92, 0x48, 0x60, 0x00, 0x82, 0x51, 0x00, 0x00, 0x92, 0x51, 0x60, 0x60, 0x82, 0x48,
        0x00, 0x00, 0x92, 0x48, 0x60, 0x00, 0x82, 0x51, 0x00, 0x00, 0x92, 0x51, 0x60, 0x60, 0x82, 0x48,
        0x00, 0x00, 0x92, 0x48, 0x60, 0x00, 0x82, 0x51, 0x00, 0x00, 0x92, 0x51, 0x60, 0x60, 0x82, 0x48,
        0x00, 0x00, 0x92, 0x48, 0x60, 0x00, 0x82, 0x51, 0x00, 0x00, 0x92, 0x51, 0x60, 0x60, 0x82, 0x48,
        0x00, 0x00, 0x92, 0x48, 0x60, 0x00, 0x82, 0x51, 0x00, 0x00, 0x92, 0x51, 0x60, 0x60, 0x82, 0x48,
        0x00, 0x00, 0x92, 0x48, 0x60, 0x00, 0x82, 0x51, 0x00, 0x00, 0x92, 0x51, 0x60, 0x60, 0x82, 0x48,
        0x00, 0x00, 0x92, 0x48, 0x60, 0x00, 0x82, 0x51, 0x00, 0x00, 0x92, 0x51, 0x60, 0x60, 0x82, 0x48,
        0x00, 0x00, 0x92, 0x48, 0x60, 0x00, 0x82, 0x51, 0x00, 0x00, 0x92, 0x51, 0x60, 0x60, 0x82, 0x48,
        0x00, 0x00, 0x92, 0x47, 0x60, 0x00, 0x82, 0x51, 0x00, 0x00, 0x92, 0x4f, 0x60, 0x60, 0x82, 0x47,
        0x00, 0x00, 0x92, 0x47, 0x60, 0x00, 0x82, 0x4f, 0x00, 0x00, 0x92, 0x4f, 0x60, 0x60, 0x82, 0x47,
        0x00, 0x00, 0x92, 0x47, 0x60, 0x00, 0x82, 0x4f, 0x00, 0x00, 0x92, 0x4f, 0x60, 0x60, 0x82, 0x47,
        0x00, 0x00, 0x92, 0x47, 0x60, 0x00, 0x82, 0x4f, 0x00, 0x00, 0x92, 0x4f, 0x60, 0x60, 0x82, 0x47,
        0x00, 0x00, 0x92, 0x47, 0x60, 0x00, 0x82, 0x4f, 0x00, 0x00, 0x92, 0x4f, 0x60, 0x60, 0x82, 0x47,
        0x00, 0x00, 0x92, 0x48, 0x60, 0x00, 0x82, 0x4f, 0x00, 0x00, 0x92, 0x51, 0x60, 0x60, 0x82, 0x48,
        0x00, 0x00, 0x92, 0x48, 0x60, 0x00, 0x82, 0x51, 0x00, 0x00, 0x92, 0x51, 0x60, 0x60, 0x82, 0x48,
        0x00, 0x00, 0x92, 0x48, 0x60, 0x00, 0x82, 0x51, 0x00, 0x00, 0x92, 0x51, 0x60, 0x60, 0x82, 0x48,
        0x00, 0x00, 0x92, 0x48, 0x60, 0x00, 0x82, 0x51, 0x00, 0x00, 0x92, 0x51, 0x60, 0x60, 0x82, 0x48,
        0x00, 0x00, 0x92, 0x48, 0x60, 0x00, 0x82, 0x51, 0x00, 0x00, 0x92, 0x51, 0x60, 0x60, 0x82, 0x48,
        0x00, 0x00, 0x92, 0x48, 0x60, 0x00, 0x82, 0x51, 0x00, 0x00, 0x92, 0x51, 0x60, 0x60, 0x82, 0x48,
        0x00, 0x00, 0x92, 0x48, 0x60, 0x00, 0x82, 0x51, 0x00, 0x00, 0x92, 0x51, 0x60, 0x60, 0x82, 0x48,
        0x00, 0x00, 0x92, 0x48, 0x60, 0x00, 0x82, 0x51, 0x00, 0x00, 0x92, 0x51, 0x60, 0x60, 0x82, 0x48,
        0x00, 0x00, 0x92, 0x48, 0x60, 0x00, 0x82, 0x51, 0x00, 0x00, 0x92, 0x51, 0x60, 0x60, 0x82, 0x48,
        0x00, 0x00, 0x92, 0x48, 0x60, 0x00, 0x82, 0x51, 0x00, 0x00, 0x92, 0x51, 0x60, 0x60, 0x82, 0x48,
        0x00, 0x00, 0x92, 0x48, 0x60, 0x00, 0x82, 0x51, 0x00, 0x00, 0x92, 0x51, 0x60, 0x60, 0x82, 0x48,
        0x00, 0x00, 0x92, 0x47, 0x60, 0x00, 0x82, 0x51, 0x00, 0x00, 0x92, 0x4f, 0x60, 0x60, 0x82, 0x47,
        0x00, 0x00, 0x92, 0x47, 0x60, 0x00, 0x82, 0x4f, 0x00, 0x00, 0x92, 0x4f, 0x60, 0x60, 0x82, 0x47,
        0x00, 0x00, 0x92, 0x47, 0x60, 0x00, 0x82, 0x4f, 0x00, 0x00, 0x92, 0x4f, 0x60, 0x60, 0x82, 0x47,
        0x00, 0x00, 0x92, 0x47, 0x60, 0x00, 0x82, 0x4f, 0x00, 0x00, 0x92, 0x4f, 0x60, 0x60, 0x82, 0x47,
        0x00, 0x00, 0x92, 0x47, 0x60, 0x00, 0x82, 0x4f, 0x00, 0x00, 0x92, 0x4f, 0x60, 0x60, 0x82, 0x47,
        0x00, 0x00, 0x92, 0x48, 0x60, 0x00, 0x82, 0x4f, 0x00, 0x00, 0x92, 0x51, 0x60, 0x60, 0x82, 0x48,
        0x00, 0x00, 0x92, 0x48, 0x60, 0x00, 0x82, 0x51, 0x00, 0x00, 0x92, 0x51, 0x60, 0x60, 0x82, 0x48,
        0x00, 0x00, 0x92, 0x48, 0x60, 0x00, 0x82, 0x51, 0x00, 0x00, 0x92, 0x51, 0x60, 0x60, 0x82, 0x48,
        0x00, 0x00, 0x92, 0x48, 0x60, 0x00, 0x82, 0x51, 0x00, 0x00, 0x92, 0x51, 0x60, 0x60, 0x82, 0x48,
        0x00, 0x00, 0x92, 0x48, 0x60, 0x00, 0x82, 0x51, 0x00, 0x00, 0x92, 0x51, 0x60, 0x60, 0x82, 0x48,
        0x00, 0x00, 0x92, 0x48, 0x60, 0x00, 0x82, 0x51, 0x00, 0x00, 0x92, 0x51, 0x60, 0x60, 0x82, 0x48,
        0x00, 0x00, 0x92, 0x48, 0x60, 0x00, 0x82, 0x51, 0x00, 0x00, 0x92, 0x51, 0x60, 0x60, 0x82, 0x48,
        0x00, 0x00, 0x92, 0x48, 0x60, 0x00, 0x82, 0x51, 0x00, 0x00, 0x92, 0x51, 0x60, 0x60, 0x82, 0x48,
        0x00, 0x00, 0x92, 0x48, 0x60, 0x00, 0x82, 0x51, 0x00, 0x00, 0x92, 0x51, 0x60, 0x60, 0x82, 0x48,
        0x00, 0x00, 0x92, 0x48, 0x60, 0x00, 0x82, 0x51, 0x00, 0x00, 0x92, 0x51, 0x60, 0x60, 0x82, 0x48,
        0x00, 0x00, 0x92, 0x48, 0x60, 0x00, 0x82, 0x51, 0x00, 0x00, 0x92, 0x51, 0x60, 0x60, 0x82, 0x48,
        0x00, 0x00, 0x92, 0x47, 0x60, 0x00, 0x82, 0x51, 0x00, 0x00, 0x92, 0x4f, 0x60, 0x60, 0x82, 0x47,
        0x00, 0x00, 0x92, 0x47, 0x60, 0x00, 0x82, 0x4f, 0x00, 0x00, 0x92, 0x4f, 0x60, 0x60, 0x82, 0x47,
        0x00, 0x00, 0x92, 0x47, 0x60, 0x00, 0x82, 0x4f, 0x00, 0x00, 0x92, 0x4f, 0x60, 0x60, 0x82, 0x47,
        0x00, 0x00, 0x92, 0x47, 0x60, 0x00, 0x82, 0x4f, 0x00, 0x00, 0x92, 0x4f, 0x60, 0x60, 0x82, 0x47,
        0x00, 0x00, 0x92, 0x47, 0x60, 0x00, 0x82, 0x4f, 0x00, 0x00, 0x92, 0x4f, 0x60, 0x60, 0x82, 0x47,
        0x00, 0x00, 0x92, 0x48, 0x60, 0x00, 0x82, 0x4f, 0x00, 0x00, 0x92, 0x51, 0x60, 0x60, 0x82, 0x48,
        0x00, 0x00, 0x92, 0x48, 0x60, 0x00, 0x82, 0x51, 0x00, 0x00, 0x92, 0x51, 0x60, 0x60, 0x82, 0x48,
        0x00, 0x00, 0x92, 0x48, 0x60, 0x00, 0x82, 0x51, 0x00, 0x00, 0x92, 0x51, 0x60, 0x60, 0x82, 0x48,
        0x00, 0x00, 0x92, 0x48, 0x60, 0x00, 0x82, 0x51, 0x00, 0x00, 0x92, 0x51, 0x60, 0x60, 0x82, 0x48,
        0x00, 0x00, 0x92, 0x48, 0x60, 0x00, 0x82, 0x51, 0x00, 0x00, 0x92, 0x51, 0x60, 0x60, 0x82, 0x48,
        0x00, 0x00, 0x92, 0x48, 0x60, 0x00, 0x82, 0x51, 0x00, 0x00, 0x92, 0x51, 0x60, 0x60, 0x82, 0x48,
        0x00, 0x00, 0x92, 0x48, 0x60, 0x00, 0x82, 0x51, 0x00, 0x00, 0x92, 0x51, 0x60, 0x60, 0x82, 0x48,
        0x00, 0x00, 0x92, 0x48, 0x60, 0x00, 0x82, 0x51, 0x00, 0x00, 0x92, 0x51, 0x60, 0x60, 0x82, 0x48,
        0x00, 0x00, 0x92, 0x48, 0x60, 0x00, 0x82, 0x51, 0x00, 0x00, 0x92, 0x51, 0x60, 0x60, 0x82, 0x48,
        0x00, 0x00, 0x92, 0x48, 0x60, 0x00, 0x82, 0x51, 0x00, 0x00, 0x92, 0x51, 0x60, 0x60, 0x82, 0x48,
        0x00, 0x00, 0x92, 0x48, 0x60, 0x00, 0x82, 0x51, 0x00, 0x00, 0x92, 0x51, 0x60, 0x60, 0x82, 0x48,
        0x00, 0x00, 0x92, 0x47, 0x60, 0x00, 0x82, 0x51, 0x00, 0x00, 0x92, 0x4f, 0x60, 0x60, 0x82, 0x47,
        0x00, 0x00, 0x92, 0x47, 0x60, 0x00, 0x82, 0x4f, 0x00, 0x00, 0x92, 0x4f, 0x60, 0x60, 0x82, 0x47,
        0x00, 0x00, 0x92, 0x47, 0x60, 0x00, 0x82, 0x4f, 0x00, 0x00, 0x92, 0x4f, 0x60, 0x60, 0x82, 0x47,
        0x00, 0x00, 0x92, 0x47, 0x60, 0x00, 0x82, 0x4f, 0x00, 0x00, 0x92, 0x4f, 0x60, 0x60, 0x82, 0x47,
        0x00, 0x00, 0x92, 0x47, 0x60, 0x00, 0x82, 0x4f, 0x00, 0x00, 0x92, 0x4f, 0x60, 0x60, 0x82, 0x47,
        0x00, 0x00, 0x92, 0x48, 0x60, 0x00, 0x82, 0x4f, 0x00, 0x00, 0x92, 0x51, 0x60, 0x60, 0x82, 0x48,
        0x00, 0x00, 0x92, 0x48, 0x60, 0x00, 0x82, 0x51, 0x00, 0x00, 0x92, 0x51, 0x60, 0x60, 0x82, 0x48,
        0x00, 0x00, 0x92, 0x48, 0x60, 0x00, 0x82, 0x51, 0x00, 0x00, 0x92, 0x51, 0x60, 0x60, 0x82, 0x48,
        0x00, 0x00, 0x92, 0x48, 0x60, 0x00, 0x82, 0x51, 0x00, 0x00, 0x92, 0x51, 0x60, 0x60, 0x82, 0x48,
        0x00, 0x00, 0x92, 0x48, 0x60, 0x00, 0x82, 0x51, 0x00, 0x00, 0x92, 0x51, 0x60, 0x60, 0x82, 0x48,
        0x00, 0x00, 0x92, 0x48, 0x60, 0x00, 0x82, 0x51, 0x00, 0x00, 0x92, 0x51, 0x60, 0x60, 0x82, 0x48,
        0x00, 0x00, 0x92, 0x48, 0x60, 0x00, 0x82, 0x51, 0x00, 0x00, 0x92, 0x51, 0x60, 0x60, 0x82, 0x48,
        0x00, 0x00, 0x92, 0x48, 0x60, 0x00, 0x82, 0x51, 0x00, 0x00, 0x92, 0x51, 0x60, 0x60, 0x82, 0x48,
        0x00, 0x00, 0x92, 0x48, 0x60, 0x00, 0x82, 0x51, 0x00, 0x00, 0x92, 0x51, 0x60, 0x60, 0x82, 0x48,
        0x00, 0x00, 0x92, 0x48, 0x60, 0x00, 0x82, 0x51, 0x00, 0x00, 0x92, 0x51, 0x60, 0x60, 0x82, 0x48,
        0x00, 0x00, 0x92, 0x48, 0x60, 0x00, 0x82, 0x51, 0x00, 0x00, 0x92, 0x51, 0x60, 0x60, 0x82, 0x48,
        0x00, 0x00, 0x92, 0x47, 0x60, 0x00, 0x82, 0x51, 0x00, 0x00, 0x92, 0x4f, 0x60, 0x60, 0x82, 0x47,
        0x00, 0x00, 0x92, 0x47, 0x60, 0x00, 0x82, 0x4f, 0x00, 0x00, 0x92, 0x4f, 0x60, 0x60, 0x82, 0x47,
        0x00, 0x00, 0x92, 0x47, 0x60, 0x00, 0x82, 0x4f, 0x00, 0x00, 0x92, 0x4f, 0x60, 0x60, 0x82, 0x47,
        0x00, 0x00, 0x92, 0x47, 0x60, 0x00, 0x82, 0x4f, 0x00, 0x00, 0x92, 0x4f, 0x60, 0x60, 0x82, 0x47,
        0x00, 0x00, 0x92, 0x47, 0x60, 0x00, 0x82, 0x4f, 0x00, 0x00, 0x92, 0x4f, 0x60, 0x60, 0x82, 0x47,
        0x00, 0x00, 0x92, 0x48, 0x60, 0x00, 0x82, 0x4f, 0x00, 0x00, 0x92, 0x51, 0x60, 0x60, 0x82, 0x48,
        0x00, 0x00, 0x92, 0x48, 0x60, 0x00, 0x82, 0x51, 0x00, 0x00, 0x92, 0x51, 0x60, 0x60, 0x82, 0x48,
        0x00, 0x00, 0x92, 0x48, 0x60, 0x00, 0x82, 0x51, 0x00, 0x00, 0x92, 0x51, 0x60, 0x60, 0x82, 0x48,
        0x00, 0x00, 0x92, 0x48, 0x60, 0x00, 0x82, 0x51, 0x00, 0x00, 0x92, 0x51, 0x60, 0x60, 0x82, 0x48,
        0x00, 0x00, 0x92, 0x48, 0x60, 0x00, 0x82, 0x51, 0x00, 0x00, 0x92, 0x51, 0x60, 0x60, 0x82, 0x48,
        0x00, 0x00, 0x92, 0x48, 0x60, 0x00, 0x82, 0x51, 0x00, 0x00, 0x92, 0x51, 0x60, 0x60, 0x82, 0x48,
        0x00, 0x00, 0x92, 0x48, 0x60, 0x00, 0x82, 0x51, 0x00, 0x00, 0x92, 0x51, 0x60, 0x60, 0x82, 0x48,
        0x00, 0x00, 0x92, 0x48, 0x60, 0x00, 0x82, 0x51, 0x00, 0x00, 0x92, 0x51, 0x60, 0x60, 0x82, 0x48,
        0x00, 0x00, 0x92, 0x48, 0x60, 0x00, 0x82, 0x51, 0x00, 0x00, 0x92, 0x51, 0x60, 0x60, 0x82, 0x48,
        0x00, 0x00, 0x92, 0x48, 0x60, 0x00, 0x82, 0x51, 0x00, 0x00, 0x92, 0x51, 0x60, 0x60, 0x82, 0x48,
        0x00, 0x00, 0x92, 0x48, 0x60, 0x00, 0x82, 0x51, 0x00, 0x00, 0x92, 0x51, 0x60, 0x60, 0x82, 0x48,
        0x00, 0x00, 0x92, 0x47, 0x60, 0x00, 0x82, 0x51, 0x00, 0x00, 0x92, 0x4f, 0x60, 0x60, 0x82, 0x47,
        0x00, 0x00, 0x92, 0x47, 0x60, 0x00, 0x82, 0x4f, 0x00, 0x00, 0x92, 0x4f, 0x60, 0x60, 0x82, 0x47,
        0x00, 0x00, 0x92, 0x47, 0x60, 0x00, 0x82, 0x4f, 0x00, 0x00, 0x92, 0x4f, 0x60, 0x60, 0x82, 0x47,
        0x00, 0x00, 0x92, 0x47, 0x60, 0x00, 0x82, 0x4f, 0x00, 0x00, 0x92, 0x4f, 0x60, 0x60, 0x82, 0x47,
        0x00, 0x00, 0x92, 0x47, 0x60, 0x00, 0x82, 0x4f, 0x00, 0x00, 0x92, 0x4f, 0x60, 0x60, 0x82, 0x47,
        0x00, 0x00, 0x92, 0x48, 0x60, 0x00, 0x82, 0x4f, 0x00, 0x00, 0x92, 0x51, 0x60, 0x60, 0x82, 0x48,
        0x00, 0x00, 0x92, 0x48, 0x60, 0x00, 0x82, 0x51, 0x00, 0x00, 0x92, 0x51, 0x60, 0x60, 0x82, 0x48,
        0x00, 0x00, 0x92, 0x48, 0x60, 0x00, 0x82, 0x51, 0x00, 0x00, 0x92, 0x51, 0x60, 0x60, 0x82, 0x48,
        0x00, 0x00, 0x92, 0x48, 0x60, 0x00, 0x82, 0x51, 0x00, 0x00, 0x92, 0x51, 0x60, 0x60, 0x82, 0x48,
        0x00, 0x00, 0x92, 0x48, 0x60, 0x00, 0x82, 0x51, 0x00, 0x00, 0x92, 0x51, 0x60, 0x60, 0x82, 0x48,
        0x00, 0x00, 0x92, 0x48, 0x60, 0x00, 0x82, 0x51, 0x00, 0x00, 0x92, 0x51, 0x60, 0x60, 0x82, 0x48,
        0x00, 0x00, 0x92, 0x48, 0x60, 0x00, 0x82, 0x51, 0x00, 0x00, 0x92, 0x51, 0x60, 0x60, 0x82, 0x48,
        0x00, 0x00, 0x92, 0x48, 0x60, 0x00, 0x82, 0x51, 0x00, 0x00, 0x92, 0x51, 0x60, 0x60, 0x82, 0x48,
        0x00, 0x00, 0x92, 0x48, 0x60, 0x00, 0x82, 0x51, 0x00, 0x00, 0x92, 0x51, 0x60, 0x60, 0x82, 0x48,
        0x00, 0x00, 0x92, 0x48, 0x60, 0x00, 0x82, 0x51, 0x00, 0x00, 0x92, 0x51, 0x60, 0x60, 0x82, 0x48,
        0x00, 0x00, 0x92, 0x48, 0x60, 0x00, 0x82, 0x51, 0x00, 0x00, 0x92, 0x51, 0x60, 0x60, 0x82, 0x48,
        0x00, 0x00, 0x92, 0x47, 0x60, 0x00, 0x82, 0x51, 0x00, 0x00, 0x92, 0x4f, 0x60, 0x60, 0x82, 0x47,
        0x00, 0x00, 0x92, 0x47, 0x60, 0x00, 0x82, 0x4f, 0x00, 0x00, 0x92, 0x4f, 0x60, 0x60, 0x82, 0x47,
        0x00, 0x00, 0x92, 0x47, 0x60, 0x00, 0x82, 0x4f, 0x00, 0x00, 0x92, 0x4f, 0x60, 0x60, 0x82, 0x47,
        0x00, 0x00, 0x92, 0x47, 0x60, 0x00, 0x82, 0x4f, 0x00, 0x00, 0x92, 0x4f, 0x60, 0x60, 0x82, 0x47,
        0x00, 0x00, 0x92, 0x47, 0x60, 0x00, 0x82, 0x4f, 0x00, 0x00, 0x92, 0x4f, 0x60, 0x60, 0x82, 0x47,
        0x00, 0x00, 0x92, 0x48, 0x60, 0x00, 0x82, 0x4f, 0x00, 0x00, 0x92, 0x51, 0x60, 0x60, 0x82, 0x48,
        0x00, 0x00, 0x92, 0x48, 0x60, 0x00, 0x82, 0x51, 0x00, 0x00, 0x92, 0x51, 0x60, 0x60, 0x82, 0x48,
        0x00, 0x00, 0x92, 0x48, 0x60, 0x00, 0x82, 0x51, 0x00, 0x00, 0x92, 0x51, 0x60, 0x60, 0x82, 0x48,
        0x00, 0x00, 0x92, 0x48, 0x60, 0x00, 0x82, 0x51, 0x00, 0x00, 0x92, 0x51, 0x60, 0x60, 0x82, 0x48,
        0x00, 0x00, 0x92, 0x48, 0x60, 0x00, 0x82, 0x51, 0x00, 0x00, 0x92, 0x51, 0x60, 0x60, 0x82, 0x48,
        0x00, 0x00, 0x92, 0x48, 0x60, 0x00, 0x82, 0x51, 0x00, 0x00, 0x92, 0x51, 0x60, 0x60, 0x82, 0x48,
        0x00, 0x00, 0x92, 0x48, 0x60, 0x00, 0x82, 0x51, 0x00, 0x00, 0x92, 0x51, 0x60, 0x60, 0x82, 0x48,
        0x00, 0x00, 0x92, 0x48, 0x60, 0x00, 0x82, 0x51, 0x00, 0x00, 0x92, 0x51, 0x60, 0x60, 0x82, 0x48,
        0x00, 0x00, 0x92, 0x48, 0x60, 0x00, 0x82, 0x51, 0x00, 0x00, 0x92, 0x51, 0x60, 0x60, 0x82, 0x48,
        0x00, 0x00, 0x92, 0x48, 0x60, 0x00, 0x82, 0x51, 0x00, 0x00, 0x92, 0x51, 0x60, 0x60, 0x82, 0x48,
        0x00, 0x00, 0x92, 0x48, 0x60, 0x00, 0x82, 0x51, 0x00, 0x00, 0x92, 0x51, 0x60, 0x60, 0x82, 0x48,
        0x00, 0x00, 0x92, 0x47, 0x60, 0x00, 0x82, 0x51, 0x00, 0x00, 0x92, 0x4f, 0x60, 0x60, 0x82, 0x47,
        0x00, 0x00, 0x92, 0x47, 0x60, 0x00, 0x82, 0x4f, 0x00, 0x00, 0x92, 0x4f, 0x60, 0x60, 0x82, 0x47,
        0x00, 0x00, 0x92, 0x47, 0x60, 0x00, 0x82, 0x4f, 0x00, 0x00, 0x92, 0x4f, 0x60, 0x60, 0x82, 0x47,
        0x00, 0x00, 0x92, 0x47, 0x60, 0x00, 0x82, 0x4f, 0x00, 0x00, 0x92, 0x4f, 0x60, 0x60, 0x82, 0x47,
        0x00, 0x00, 0x92, 0x47, 0x60, 0x00, 0x82, 0x4f, 0x00, 0x00, 0x92, 0x4f, 0x60, 0x60, 0x82, 0x47,
        0x00, 0x00, 0x92, 0x48, 0x60, 0x00, 0x82, 0x4f, 0x00, 0x00, 0x92, 0x51, 0x60, 0x60, 0x82, 0x48,
        0x00, 0x00, 0x92, 0x48, 0x60, 0x00, 0x82, 0x51, 0x00, 0x00, 0x92, 0x51, 0x60, 0x60, 0x82, 0x48,
        0x00, 0x00, 0x92, 0x48, 0x60, 0x00, 0x82, 0x51, 0x00, 0x00, 0x92, 0x51, 0x60, 0x60, 0x82, 0x48,
        0x00, 0x00, 0x92, 0x48, 0x60, 0x00, 0x82, 0x51, 0x00, 0x00, 0x92, 0x51, 0x60, 0x60, 0x82, 0x48,
        0x00, 0x00, 0x92, 0x48, 0x60, 0x00, 0x82, 0x51, 0x00, 0x00, 0x92, 0x51, 0x60, 0x60, 0x82, 0x48,
        0x00, 0x00, 0x92, 0x48, 0x60, 0x00, 0x82, 0x51, 0x00, 0x00, 0x92, 0x51, 0x60, 0x60, 0x82, 0x48,
        0x00, 0x00, 0x92, 0x48, 0x60, 0x00, 0x82, 0x51, 0x00, 0x00, 0x92, 0x51, 0x60, 0x60, 0x82, 0x48,
        0x00, 0x00, 0x92, 0x48, 0x60, 0x00, 0x82, 0x51, 0x00, 0x00, 0x92, 0x51, 0x60, 0x60, 0x82, 0x48,
        0x00, 0x00, 0x92, 0x48, 0x60, 0x00, 0x82, 0x51, 0x00, 0x00, 0x92, 0x51, 0x60, 0x60, 0x82, 0x48,
        0x00, 0x00, 0x92, 0x48, 0x60, 0x00, 0x82, 0x51, 0x00, 0x00, 0x92, 0x51, 0x60, 0x60, 0x82, 0x48,
        0x00, 0x00, 0x92, 0x48, 0x60, 0x00, 0x82, 0x51, 0x00, 0x00, 0x92, 0x51, 0x60, 0x60, 0x82, 0x48,
        0x00, 0x00, 0x92, 0x47, 0x60, 0x00, 0x82, 0x51, 0x00, 0x00, 0x92, 0x4f, 0x60, 0x60, 0x82, 0x47,
        0x00, 0x00, 0x92, 0x47, 0x60, 0x00, 0x82, 0x4f, 0x00, 0x00, 0x92, 0x4f, 0x60, 0x60, 0x82, 0x47,
        0x00, 0x00, 0x92, 0x47, 0x60, 0x00, 0x82, 0x4f, 0x00, 0x00, 0x92, 0x4f, 0x60, 0x60, 0x82, 0x47,
        0x00, 0x00, 0x92, 0x47, 0x60, 0x00, 0x82, 0x4f, 0x00, 0x00, 0x92, 0x4f, 0x60, 0x60, 0x82, 0x47,
        0x00, 0x00, 0x92, 0x47, 0x60, 0x00, 0x82, 0x4f, 0x00, 0x00, 0x92, 0x4f, 0x60, 0x60, 0x82, 0x47,
        0x00, 0x00, 0x92, 0x48, 0x60, 0x00, 0x82, 0x4f, 0x00, 0x00, 0x92, 0x51, 0x60, 0x60, 0x82, 0x48,
        0x00, 0x00, 0x92, 0x48, 0x60, 0x00, 0x82, 0x51, 0x00, 0x00, 0x92, 0x51, 0x60, 0x60, 0x82, 0x48,
        0x00, 0x00, 0x92, 0x48, 0x60, 0x00, 0x82, 0x51, 0x00, 0x00, 0x92, 0x51, 0x60, 0x60, 0x82, 0x48,
        0x00, 0x00, 0x92, 0x48, 0x60, 0x00, 0x82, 0x51, 0x00, 0x00, 0x92, 0x51, 0x60, 0x60, 0x82, 0x48,
        0x00, 0x00, 0x92, 0x48, 0x60, 0x00, 0x82, 0x51, 0x00, 0x00, 0x92, 0x51, 0x60, 0x60, 0x82, 0x48,
        0x00, 0x00, 0x92, 0x48, 0x60, 0x00, 0x82, 0x51, 0x00, 0x00, 0x92, 0x51, 0x60, 0x60, 0x82, 0x48,
        0x00, 0x00, 0x92, 0x48, 0x60, 0x00, 0x82, 0x51, 0x00, 0x00, 0x92, 0x51, 0x60, 0x60, 0x82, 0x48,
        0x00, 0x00, 0x92, 0x48, 0x60, 0x00, 0x82, 0x51, 0x00, 0x00, 0x92, 0x51, 0x60, 0x60, 0x82, 0x48,
        0x00, 0x00, 0x92, 0x48, 0x60, 0x00, 0x82, 0x51, 0x00, 0x00, 0x92, 0x51, 0x60, 0x60, 0x82, 0x48,
        0x00, 0x00, 0x92, 0x48, 0x60, 0x00, 0x82, 0x51, 0x00, 0x00, 0x92, 0x51, 0x60, 0x60, 0x82, 0x48,
        0x00, 0x00, 0x92, 0x48, 0x60, 0x00, 0x82, 0x51, 0x00, 0x00, 0x92, 0x51, 0x60, 0x60, 0x82, 0x48,
        0x00, 0x00, 0x92, 0x47, 0x60, 0x00, 0x82, 0x51, 0x00, 0x00, 0x92, 0x4f, 0x60, 0x60, 0x82, 0x47,
        0x00, 0x00, 0x92, 0x47, 0x60, 0x00, 0x82, 0x4f, 0x00, 0x00, 0x92, 0x4f, 0x60, 0x60, 0x82, 0x47,
        0x00, 0x00, 0x92, 0x47, 0x60, 0x00, 0x82, 0x4f, 0x00, 0x00, 0x92, 0x4f, 0x60, 0x60, 0x82, 0x47,
        0x00, 0x00, 0x92, 0x47, 0x60, 0x00, 0x82, 0x4f, 0x00, 0x00, 0x92, 0x4f, 0x60, 0x60, 0x82, 0x47,
        0x00, 0x00, 0x92, 0x47, 0x60, 0x00, 0x82, 0x4f, 0x00, 0x00, 0x92, 0x4f, 0x60, 0x86, 0x00, 0x82,
        0x4f, 0x00, 0x00, 0x82, 0x47, 0x00, 0x00, 0xff, 0x2f, 0x00
};