// array size is 9267
static const char bytes[]  = {
        0x4d, 0x54, 0x68, 0x64, 0x00, 0x00, 0x00, 0x06, 0x00, 0x01, 0x00, 0x02, 0x01, 0x00, 0x4d, 0x54,
        0x72, 0x6b, 0x00, 0x00, 0x01, 0x6e, 0x00, 0xff, 0x58, 0x04, 0x01, 0x03, 0x0c, 0x08, 0x00, 0xff,
        0x59, 0x02, 0x00, 0x00, 0x00, 0xff, 0x51, 0x03, 0x0c, 0x35, 0x00, 0x00, 0xff, 0x03, 0x09, 0x46,
        0x75, 0x72, 0x20, 0x45, 0x6c, 0x69, 0x73, 0x65, 0x00, 0xff, 0x01, 0x14, 0x4c, 0x75, 0x64, 0x77,
        0x69, 0x67, 0x20, 0x76, 0x61, 0x6e, 0x20, 0x42, 0x65, 0x65, 0x74, 0x68, 0x6f, 0x76, 0x65, 0x6e,
        0x81, 0x00, 0xff, 0x58, 0x04, 0x03, 0x03, 0x24, 0x08, 0x95, 0x00, 0xff, 0x58, 0x04, 0x01, 0x02,
        0x18, 0x08, 0x82, 0x00, 0xff, 0x51, 0x03, 0x0c, 0x35, 0x00, 0x00, 0xff, 0x51, 0x03, 0x0c, 0x35,
        0x00, 0x00, 0xff, 0x58, 0x04, 0x03, 0x03, 0x24, 0x08, 0x00, 0xff, 0x58, 0x04, 0x01, 0x03, 0x0c,
        0x08, 0x81, 0x00, 0xff, 0x58, 0x04, 0x03, 0x03, 0x24, 0x08, 0xa4, 0x00, 0xff, 0x51, 0x03, 0x0d,
        0x76, 0xaf, 0x87, 0x40, 0xff, 0x51, 0x03, 0x0c, 0x35, 0x00, 0xa2, 0x40, 0xff, 0x51, 0x03, 0x0d,
        0x76, 0xaf, 0x87, 0x40, 0xff, 0x51, 0x03, 0x0c, 0x35, 0x00, 0xb8, 0x20, 0xff, 0x51, 0x03, 0x0d,
        0x14, 0x36, 0x81, 0x20, 0xff, 0x51, 0x03, 0x0e, 0x15, 0xc3, 0x84, 0x00, 0xff, 0x58, 0x04, 0x0d,
        0x05, 0x03, 0x08, 0x82, 0x00, 0xff, 0x51, 0x03, 0x1e, 0x84, 0x80, 0x60, 0xff, 0x51, 0x03, 0x0f,
        0x42, 0x40, 0x40, 0xff, 0x58, 0x04, 0x03, 0x03, 0x24, 0x08, 0x81, 0x40, 0xff, 0x51, 0x03, 0x0d,
        0x14, 0x36, 0x83, 0x00, 0xff, 0x51, 0x03, 0x0c, 0x35, 0x00, 0xa2, 0x00, 0xff, 0x51, 0x03, 0x0d,
        0x14, 0x36, 0x82, 0x40, 0xff, 0x51, 0x03, 0x0e, 0x15, 0xc3, 0x82, 0x00, 0xff, 0x51, 0x03, 0x0d,
        0x14, 0x36, 0x83, 0x40, 0xff, 0x51, 0x03, 0x0c, 0x35, 0x00, 0xd6, 0x29, 0xff, 0x51, 0x03, 0x0d,
        0x14, 0x36, 0x81, 0x6c, 0xff, 0x51, 0x03, 0x0e, 0x15, 0xc3, 0x81, 0x6b, 0xff, 0x51, 0x03, 0x0d,
        0x14, 0x36, 0x81, 0x00, 0xff, 0x51, 0x03, 0x0c, 0x35, 0x00, 0x9f, 0x40, 0xff, 0x51, 0x03, 0x0d,
        0x14, 0x36, 0x83, 0x1e, 0xff, 0x51, 0x03, 0x0e, 0x15, 0xc3, 0x82, 0x22, 0xff, 0x51, 0x03, 0x0d,
        0x14, 0x36, 0x84, 0x00, 0xff, 0x51, 0x03, 0x0c, 0x35, 0x00, 0x8a, 0x00, 0xff, 0x51, 0x03, 0x0d,
        0x14, 0x36, 0x84, 0x40, 0xff, 0x51, 0x03, 0x0e, 0x15, 0xc3, 0x82, 0x40, 0xff, 0x51, 0x03, 0x0f,
        0x42, 0x40, 0x81, 0x1b, 0xff, 0x51, 0x03, 0x10, 0xa5, 0x5d, 0x65, 0xff, 0x51, 0x03, 0x13, 0x12,
        0xd0, 0x40, 0xff, 0x51, 0x03, 0x1e, 0x84, 0x80, 0x00, 0xff, 0x58, 0x04, 0x01, 0x02, 0x18, 0x08,
        0x01, 0xff, 0x2f, 0x00, 0x4d, 0x54, 0x72, 0x6b, 0x00, 0x00, 0x22, 0xa7, 0x00, 0xc0, 0x00, 0x00,
        0xb0, 0x79, 0x00, 0x00, 0xb0, 0x40, 0x00, 0x00, 0xb0, 0x0a, 0x4c, 0x00, 0xb0, 0x07, 0x55, 0x00,
        0x90, 0x4c, 0x24, 0x00, 0xb0, 0x79, 0x00, 0x00, 0xb0, 0x40, 0x00, 0x00, 0xb0, 0x0a, 0x33, 0x00,
        0xb0, 0x07, 0x55, 0x00, 0xff, 0x03, 0x05, 0x50, 0x69, 0x61, 0x6e, 0x6f, 0x40, 0x90, 0x4b, 0x21,
        0x01, 0x80, 0x4c, 0x00, 0x3f, 0x90, 0x4c, 0x2d, 0x01, 0x80, 0x4b, 0x00, 0x3f, 0x90, 0x4b, 0x2b,
        0x01, 0x80, 0x4c, 0x00, 0x3f, 0x90, 0x4c, 0x32, 0x01, 0x80, 0x4b, 0x00, 0x3f, 0x90, 0x47, 0x27,
        0x01, 0x80, 0x4c, 0x00, 0x3f, 0x90, 0x4a, 0x2e, 0x01, 0x80, 0x47, 0x00, 0x3f, 0x90, 0x48, 0x2c,
        0x01, 0x80, 0x4a, 0x00, 0x3f, 0x90, 0x45, 0x27, 0x00, 0xb0, 0x40, 0x7f, 0x00, 0x90, 0x2d, 0x27,
        0x01, 0x80, 0x48, 0x00, 0x3f, 0x90, 0x34, 0x27, 0x01, 0x80, 0x2d, 0x00, 0x38, 0x80, 0x45, 0x00,
        0x07, 0x90, 0x39, 0x2f, 0x01, 0x80, 0x34, 0x00, 0x3b, 0x80, 0x39, 0x00, 0x04, 0x90, 0x3c, 0x2d,
        0x40, 0x90, 0x40, 0x33, 0x00, 0xb0, 0x40, 0x00, 0x01, 0x80, 0x3c, 0x00, 0x3f, 0x90, 0x45, 0x2e,
        0x01, 0x80, 0x40, 0x00, 0x3f, 0x90, 0x47, 0x36, 0x00, 0xb0, 0x40, 0x7f, 0x00, 0x90, 0x28, 0x28,
        0x01, 0x80, 0x45, 0x00, 0x3f, 0x90, 0x34, 0x2b, 0x01, 0x80, 0x28, 0x00, 0x38, 0x80, 0x47, 0x00,
        0x07, 0x90, 0x38, 0x30, 0x01, 0x80, 0x34, 0x00, 0x3b, 0x80, 0x38, 0x00, 0x04, 0x90, 0x40, 0x24,
        0x40, 0x90, 0x44, 0x2a, 0x00, 0xb0, 0x40, 0x00, 0x01, 0x80, 0x40, 0x00, 0x3f, 0x90, 0x47, 0x2b,
        0x01, 0x80, 0x44, 0x00, 0x3f, 0x90, 0x48, 0x2e, 0x00, 0xb0, 0x40, 0x7f, 0x00, 0x90, 0x2d, 0x29,
        0x01, 0x80, 0x47, 0x00, 0x3f, 0x90, 0x34, 0x2a, 0x01, 0x80, 0x2d, 0x00, 0x38, 0x80, 0x48, 0x00,
        0x07, 0x90, 0x39, 0x2d, 0x01, 0x80, 0x34, 0x00, 0x3b, 0x80, 0x39, 0x00, 0x04, 0x90, 0x40, 0x23,
        0x40, 0x90, 0x4c, 0x28, 0x00, 0xb0, 0x40, 0x00, 0x01, 0x80, 0x40, 0x00, 0x3f, 0x90, 0x4b, 0x26,
        0x01, 0x80, 0x4c, 0x00, 0x3f, 0x90, 0x4c, 0x26, 0x01, 0x80, 0x4b, 0x00, 0x3f, 0x90, 0x4b, 0x28,
        0x01, 0x80, 0x4c, 0x00, 0x3f, 0x90, 0x4c, 0x2b, 0x01, 0x80, 0x4b, 0x00, 0x3f, 0x90, 0x47, 0x2a,
        0x01, 0x80, 0x4c, 0x00, 0x3f, 0x90, 0x4a, 0x2d, 0x01, 0x80, 0x47, 0x00, 0x3f, 0x90, 0x48, 0x27,
        0x01, 0x80, 0x4a, 0x00, 0x3f, 0x90, 0x45, 0x26, 0x00, 0xb0, 0x40, 0x7f, 0x00, 0x90, 0x2d, 0x27,
        0x01, 0x80, 0x48, 0x00, 0x3f, 0x90, 0x34, 0x2a, 0x01, 0x80, 0x2d, 0x00, 0x38, 0x80, 0x45, 0x00,
        0x07, 0x90, 0x39, 0x34, 0x01, 0x80, 0x34, 0x00, 0x3b, 0x80, 0x39, 0x00, 0x04, 0x90, 0x3c, 0x24,
        0x40, 0x90, 0x40, 0x28, 0x00, 0xb0, 0x40, 0x00, 0x01, 0x80, 0x3c, 0x00, 0x3f, 0x90, 0x45, 0x33,
        0x01, 0x80, 0x40, 0x00, 0x3f, 0x90, 0x47, 0x3d, 0x00, 0xb0, 0x40, 0x7f, 0x00, 0x90, 0x28, 0x26,
        0x01, 0x80, 0x45, 0x00, 0x3f, 0x90, 0x34, 0x2b, 0x01, 0x80, 0x28, 0x00, 0x38, 0x80, 0x47, 0x00,
        0x07, 0x90, 0x38, 0x2e, 0x01, 0x80, 0x34, 0x00, 0x3b, 0x80, 0x38, 0x00, 0x04, 0x90, 0x3e, 0x2c,
        0x40, 0x90, 0x48, 0x39, 0x00, 0xb0, 0x40, 0x00, 0x01, 0x80, 0x3e, 0x00, 0x3f, 0x90, 0x47, 0x2b,
        0x01, 0x80, 0x48, 0x00, 0x3f, 0x90, 0x45, 0x2a, 0x00, 0xb0, 0x40, 0x7f, 0x00, 0x90, 0x2d, 0x27,
        0x01, 0x80, 0x47, 0x00, 0x3f, 0x90, 0x34, 0x29, 0x01, 0x80, 0x2d, 0x00, 0x3f, 0x90, 0x39, 0x33,
        0x01, 0x80, 0x34, 0x00, 0x3b, 0x80, 0x39, 0x00, 0x04, 0xb0, 0x40, 0x00, 0x33, 0x80, 0x45, 0x00,
        0x0d, 0x90, 0x4c, 0x2c, 0x40, 0x90, 0x4b, 0x2b, 0x01, 0x80, 0x4c, 0x00, 0x3f, 0x90, 0x4c, 0x32,
        0x01, 0x80, 0x4b, 0x00, 0x3f, 0x90, 0x4b, 0x32, 0x01, 0x80, 0x4c, 0x00, 0x3f, 0x90, 0x4c, 0x2c,
        0x01, 0x80, 0x4b, 0x00, 0x3f, 0x90, 0x47, 0x24, 0x01, 0x80, 0x4c, 0x00, 0x3f, 0x90, 0x4a, 0x2f,
        0x01, 0x80, 0x47, 0x00, 0x3f, 0x90, 0x48, 0x2b, 0x01, 0x80, 0x4a, 0x00, 0x3f, 0x90, 0x45, 0x2b,
        0x00, 0xb0, 0x40, 0x7f, 0x00, 0x90, 0x2d, 0x25, 0x01, 0x80, 0x48, 0x00, 0x3f, 0x90, 0x34, 0x2c,
        0x01, 0x80, 0x2d, 0x00, 0x38, 0x80, 0x45, 0x00, 0x07, 0x90, 0x39, 0x31, 0x01, 0x80, 0x34, 0x00,
        0x3b, 0x80, 0x39, 0x00, 0x04, 0x90, 0x3c, 0x26, 0x40, 0x90, 0x40, 0x29, 0x00, 0xb0, 0x40, 0x00,
        0x01, 0x80, 0x3c, 0x00, 0x3f, 0x90, 0x45, 0x32, 0x01, 0x80, 0x40, 0x00, 0x3f, 0x90, 0x47, 0x3c,
        0x00, 0xb0, 0x40, 0x7f, 0x00, 0x90, 0x28, 0x2b, 0x01, 0x80, 0x45, 0x00, 0x3f, 0x90, 0x34, 0x30,
        0x01, 0x80, 0x28, 0x00, 0x38, 0x80, 0x47, 0x00, 0x07, 0x90, 0x38, 0x35, 0x01, 0x80, 0x34, 0x00,
        0x3b, 0x80, 0x38, 0x00, 0x04, 0x90, 0x40, 0x24, 0x40, 0x90, 0x44, 0x23, 0x00, 0xb0, 0x40, 0x00,
        0x01, 0x80, 0x40, 0x00, 0x3f, 0x90, 0x47, 0x33, 0x01, 0x80, 0x44, 0x00, 0x3f, 0x90, 0x48, 0x31,
        0x00, 0xb0, 0x40, 0x7f, 0x00, 0x90, 0x2d, 0x24, 0x01, 0x80, 0x47, 0x00, 0x3f, 0x90, 0x34, 0x25,
        0x01, 0x80, 0x2d, 0x00, 0x38, 0x80, 0x48, 0x00, 0x07, 0x90, 0x39, 0x2f, 0x01, 0x80, 0x34, 0x00,
        0x3b, 0x80, 0x39, 0x00, 0x04, 0x90, 0x40, 0x28, 0x40, 0x90, 0x4c, 0x32, 0x00, 0xb0, 0x40, 0x00,
        0x01, 0x80, 0x40, 0x00, 0x3f, 0x90, 0x4b, 0x2b, 0x01, 0x80, 0x4c, 0x00, 0x3f, 0x90, 0x4c, 0x32,
        0x01, 0x80, 0x4b, 0x00, 0x3f, 0x90, 0x4b, 0x23, 0x01, 0x80, 0x4c, 0x00, 0x3f, 0x90, 0x4c, 0x28,
        0x01, 0x80, 0x4b, 0x00, 0x3f, 0x90, 0x47, 0x28, 0x01, 0x80, 0x4c, 0x00, 0x3f, 0x90, 0x4a, 0x2b,
        0x01, 0x80, 0x47, 0x00, 0x3f, 0x90, 0x48, 0x26, 0x01, 0x80, 0x4a, 0x00, 0x3f, 0x90, 0x45, 0x1d,
        0x00, 0xb0, 0x40, 0x7f, 0x00, 0x90, 0x2d, 0x27, 0x01, 0x80, 0x48, 0x00, 0x3f, 0x90, 0x34, 0x2d,
        0x01, 0x80, 0x2d, 0x00, 0x38, 0x80, 0x45, 0x00, 0x07, 0x90, 0x39, 0x2b, 0x01, 0x80, 0x34, 0x00,
        0x3b, 0x80, 0x39, 0x00, 0x04, 0x90, 0x3c, 0x29, 0x40, 0x90, 0x40, 0x2d, 0x00, 0xb0, 0x40, 0x00,
        0x01, 0x80, 0x3c, 0x00, 0x3f, 0x90, 0x45, 0x31, 0x01, 0x80, 0x40, 0x00, 0x3f, 0x90, 0x47, 0x35,
        0x00, 0xb0, 0x40, 0x7f, 0x00, 0x90, 0x28, 0x27, 0x01, 0x80, 0x45, 0x00, 0x3f, 0x90, 0x34, 0x2f,
        0x01, 0x80, 0x28, 0x00, 0x38, 0x80, 0x47, 0x00, 0x07, 0x90, 0x38, 0x2d, 0x01, 0x80, 0x34, 0x00,
        0x3b, 0x80, 0x38, 0x00, 0x04, 0x90, 0x3e, 0x23, 0x40, 0x90, 0x48, 0x28, 0x00, 0xb0, 0x40, 0x00,
        0x01, 0x80, 0x3e, 0x00, 0x3f, 0x90, 0x47, 0x2f, 0x01, 0x80, 0x48, 0x00, 0x3f, 0x90, 0x45, 0x27,
        0x00, 0xb0, 0x40, 0x7f, 0x00, 0x90, 0x2d, 0x29, 0x01, 0x80, 0x47, 0x00, 0x3f, 0x90, 0x34, 0x2e,
        0x01, 0x80, 0x2d, 0x00, 0x38, 0x80, 0x45, 0x00, 0x07, 0x90, 0x39, 0x31, 0x01, 0x80, 0x34, 0x00,
        0x3b, 0x80, 0x39, 0x00, 0x04, 0x90, 0x47, 0x35, 0x40, 0x90, 0x48, 0x43, 0x00, 0xb0, 0x40, 0x00,
        0x01, 0x80, 0x47, 0x00, 0x3f, 0x90, 0x4a, 0x55, 0x01, 0x80, 0x48, 0x00, 0x3f, 0x90, 0x4c, 0x52,
        0x00, 0xb0, 0x40, 0x7f, 0x00, 0x90, 0x30, 0x4b, 0x01, 0x80, 0x4a, 0x00, 0x3f, 0x90, 0x37, 0x4f,
        0x01, 0x80, 0x30, 0x00, 0x3f, 0x90, 0x3c, 0x58, 0x01, 0x80, 0x37, 0x00, 0x35, 0x80, 0x4c, 0x00,
        0x06, 0x80, 0x3c, 0x00, 0x04, 0x90, 0x43, 0x40, 0x40, 0x90, 0x4d, 0x4d, 0x00, 0xb0, 0x40, 0x00,
        0x01, 0x80, 0x43, 0x00, 0x3f, 0x90, 0x4c, 0x55, 0x01, 0x80, 0x4d, 0x00, 0x3f, 0x90, 0x4a, 0x50,
        0x00, 0xb0, 0x40, 0x7f, 0x00, 0x90, 0x2b, 0x4a, 0x01, 0x80, 0x4c, 0x00, 0x3f, 0x90, 0x37, 0x55,
        0x01, 0x80, 0x2b, 0x00, 0x3f, 0x90, 0x3b, 0x5a, 0x01, 0x80, 0x37, 0x00, 0x35, 0x80, 0x4a, 0x00,
        0x06, 0x80, 0x3b, 0x00, 0x04, 0x90, 0x41, 0x40, 0x40, 0x90, 0x4c, 0x50, 0x00, 0xb0, 0x40, 0x00,
        0x01, 0x80, 0x41, 0x00, 0x3f, 0x90, 0x4a, 0x4c, 0x01, 0x80, 0x4c, 0x00, 0x3f, 0x90, 0x48, 0x46,
        0x00, 0xb0, 0x40, 0x7f, 0x00, 0x90, 0x2d, 0x44, 0x01, 0x80, 0x4a, 0x00, 0x3f, 0x90, 0x34, 0x48,
        0x01, 0x80, 0x2d, 0x00, 0x3f, 0x90, 0x39, 0x4d, 0x01, 0x80, 0x34, 0x00, 0x35, 0x80, 0x48, 0x00,
        0x06, 0x80, 0x39, 0x00, 0x04, 0x90, 0x40, 0x36, 0x00, 0xb0, 0x40, 0x00, 0x40, 0x90, 0x4a, 0x44,
        0x01, 0x80, 0x40, 0x00, 0x3f, 0x90, 0x48, 0x47, 0x01, 0x80, 0x4a, 0x00, 0x3f, 0x90, 0x47, 0x3a,
        0x00, 0x90, 0x28, 0x30, 0x01, 0x80, 0x48, 0x00, 0x1f, 0x80, 0x28, 0x00, 0x20, 0x90, 0x34, 0x45,
        0x39, 0x80, 0x47, 0x00, 0x07, 0x90, 0x40, 0x57, 0x01, 0x80, 0x34, 0x00, 0x3b, 0x80, 0x40, 0x00,
        0x04, 0x90, 0x40, 0x35, 0x40, 0x90, 0x4c, 0x40, 0x01, 0x80, 0x40, 0x00, 0x3b, 0x80, 0x4c, 0x00,
        0x04, 0x90, 0x40, 0x36, 0x40, 0x90, 0x4c, 0x43, 0x01, 0x80, 0x40, 0x00, 0x3b, 0x80, 0x4c, 0x00,
        0x04, 0x90, 0x4c, 0x31, 0x40, 0x90, 0x58, 0x3c, 0x01, 0x80, 0x4c, 0x00, 0x3b, 0x80, 0x58, 0x00,
        0x04, 0x90, 0x4b, 0x30, 0x40, 0x90, 0x4c, 0x37, 0x01, 0x80, 0x4b, 0x00, 0x3b, 0x80, 0x4c, 0x00,
        0x04, 0x90, 0x4b, 0x2c, 0x40, 0x90, 0x4c, 0x31, 0x01, 0x80, 0x4b, 0x00, 0x3b, 0x80, 0x4c, 0x00,
        0x04, 0x90, 0x4b, 0x2d, 0x40, 0x90, 0x4c, 0x2b, 0x01, 0x80, 0x4b, 0x00, 0x3b, 0x80, 0x4c, 0x00,
        0x04, 0x90, 0x4b, 0x23, 0x40, 0x90, 0x4c, 0x21, 0x01, 0x80, 0x4b, 0x00, 0x3f, 0x90, 0x4b, 0x24,
        0x01, 0x80, 0x4c, 0x00, 0x3f, 0x90, 0x4c, 0x26, 0x01, 0x80, 0x4b, 0x00, 0x3f, 0x90, 0x4b, 0x2a,
        0x01, 0x80, 0x4c, 0x00, 0x3f, 0x90, 0x4c, 0x2a, 0x01, 0x80, 0x4b, 0x00, 0x3f, 0x90, 0x47, 0x29,
        0x01, 0x80, 0x4c, 0x00, 0x3f, 0x90, 0x4a, 0x2b, 0x01, 0x80, 0x47, 0x00, 0x3f, 0x90, 0x48, 0x29,
        0x01, 0x80, 0x4a, 0x00, 0x3f, 0x90, 0x45, 0x24, 0x00, 0x90, 0x2d, 0x25, 0x01, 0x80, 0x48, 0x00,
        0x3f, 0xb0, 0x40, 0x7f, 0x00, 0x90, 0x34, 0x28, 0x01, 0x80, 0x2d, 0x00, 0x38, 0x80, 0x45, 0x00,
        0x07, 0x90, 0x39, 0x29, 0x01, 0x80, 0x34, 0x00, 0x3b, 0x80, 0x39, 0x00, 0x04, 0x90, 0x3c, 0x25,
        0x40, 0x90, 0x40, 0x29, 0x00, 0xb0, 0x40, 0x00, 0x01, 0x80, 0x3c, 0x00, 0x3f, 0x90, 0x45, 0x2f,
        0x01, 0x80, 0x40, 0x00, 0x3f, 0x90, 0x47, 0x33, 0x00, 0x90, 0x28, 0x25, 0x01, 0x80, 0x45, 0x00,
        0x3f, 0xb0, 0x40, 0x7f, 0x00, 0x90, 0x34, 0x27, 0x01, 0x80, 0x28, 0x00, 0x38, 0x80, 0x47, 0x00,
        0x07, 0x90, 0x38, 0x30, 0x01, 0x80, 0x34, 0x00, 0x3b, 0x80, 0x38, 0x00, 0x04, 0x90, 0x40, 0x22,
        0x40, 0x90, 0x44, 0x25, 0x00, 0xb0, 0x40, 0x00, 0x01, 0x80, 0x40, 0x00, 0x3f, 0x90, 0x47, 0x2e,
        0x01, 0x80, 0x44, 0x00, 0x3f, 0x90, 0x48, 0x30, 0x00, 0xb0, 0x40, 0x7f, 0x00, 0x90, 0x2d, 0x26,
        0x01, 0x80, 0x47, 0x00, 0x3f, 0x90, 0x34, 0x29, 0x01, 0x80, 0x2d, 0x00, 0x38, 0x80, 0x48, 0x00,
        0x07, 0x90, 0x39, 0x2b, 0x01, 0x80, 0x34, 0x00, 0x3b, 0x80, 0x39, 0x00, 0x04, 0x90, 0x40, 0x27,
        0x40, 0x90, 0x4c, 0x30, 0x00, 0xb0, 0x40, 0x00, 0x01, 0x80, 0x40, 0x00, 0x3f, 0x90, 0x4b, 0x2a,
        0x01, 0x80, 0x4c, 0x00, 0x3f, 0x90, 0x4c, 0x2b, 0x01, 0x80, 0x4b, 0x00, 0x3f, 0x90, 0x4b, 0x2c,
        0x01, 0x80, 0x4c, 0x00, 0x3f, 0x90, 0x4c, 0x30, 0x01, 0x80, 0x4b, 0x00, 0x3f, 0x90, 0x47, 0x2a,
        0x01, 0x80, 0x4c, 0x00, 0x3f, 0x90, 0x4a, 0x2d, 0x01, 0x80, 0x47, 0x00, 0x3f, 0x90, 0x48, 0x29,
        0x01, 0x80, 0x4a, 0x00, 0x3f, 0x90, 0x45, 0x26, 0x00, 0xb0, 0x40, 0x7f, 0x00, 0x90, 0x2d, 0x23,
        0x01, 0x80, 0x48, 0x00, 0x3f, 0x90, 0x34, 0x26, 0x01, 0x80, 0x2d, 0x00, 0x38, 0x80, 0x45, 0x00,
        0x07, 0x90, 0x39, 0x30, 0x01, 0x80, 0x34, 0x00, 0x3b, 0x80, 0x39, 0x00, 0x04, 0x90, 0x3c, 0x2a,
        0x40, 0x90, 0x40, 0x2a, 0x00, 0xb0, 0x40, 0x00, 0x01, 0x80, 0x3c, 0x00, 0x3f, 0x90, 0x45, 0x32,
        0x01, 0x80, 0x40, 0x00, 0x3f, 0x90, 0x47, 0x34, 0x00, 0xb0, 0x40, 0x7f, 0x00, 0x90, 0x28, 0x25,
        0x01, 0x80, 0x45, 0x00, 0x3f, 0x90, 0x34, 0x27, 0x01, 0x80, 0x28, 0x00, 0x38, 0x80, 0x47, 0x00,
        0x07, 0x90, 0x38, 0x2d, 0x01, 0x80, 0x34, 0x00, 0x3b, 0x80, 0x38, 0x00, 0x04, 0x90, 0x3e, 0x29,
        0x40, 0x90, 0x48, 0x2e, 0x00, 0xb0, 0x40, 0x00, 0x01, 0x80, 0x3e, 0x00, 0x3f, 0x90, 0x47, 0x27,
        0x01, 0x80, 0x48, 0x00, 0x3f, 0x90, 0x45, 0x24, 0x00, 0xb0, 0x40, 0x7f, 0x00, 0x90, 0x2d, 0x27,
        0x01, 0x80, 0x47, 0x00, 0x3f, 0x90, 0x34, 0x2d, 0x01, 0x80, 0x2d, 0x00, 0x38, 0x80, 0x45, 0x00,
        0x07, 0x90, 0x39, 0x2f, 0x01, 0x80, 0x34, 0x00, 0x3b, 0x80, 0x39, 0x00, 0x04, 0x90, 0x47, 0x31,
        0x40, 0x90, 0x48, 0x48, 0x00, 0xb0, 0x40, 0x00, 0x01, 0x80, 0x47, 0x00, 0x3f, 0x90, 0x4a, 0x52,
        0x01, 0x80, 0x48, 0x00, 0x3f, 0x90, 0x4c, 0x5c, 0x00, 0xb0, 0x40, 0x7f, 0x00, 0x90, 0x30, 0x4c,
        0x01, 0x80, 0x4a, 0x00, 0x3f, 0x90, 0x37, 0x53, 0x01, 0x80, 0x30, 0x00, 0x3f, 0x90, 0x3c, 0x5d,
        0x01, 0x80, 0x37, 0x00, 0x35, 0x80, 0x4c, 0x00, 0x06, 0x80, 0x3c, 0x00, 0x04, 0x90, 0x43, 0x42,
        0x40, 0x90, 0x4d, 0x52, 0x00, 0xb0, 0x40, 0x00, 0x01, 0x80, 0x43, 0x00, 0x3f, 0x90, 0x4c, 0x52,
        0x01, 0x80, 0x4d, 0x00, 0x3f, 0x90, 0x4a, 0x4f, 0x00, 0xb0, 0x40, 0x7f, 0x00, 0x90, 0x2b, 0x4c,
        0x01, 0x80, 0x4c, 0x00, 0x3f, 0x90, 0x37, 0x54, 0x01, 0x80, 0x2b, 0x00, 0x3f, 0x90, 0x3b, 0x59,
        0x01, 0x80, 0x37, 0x00, 0x35, 0x80, 0x4a, 0x00, 0x06, 0x80, 0x3b, 0x00, 0x04, 0x90, 0x41, 0x44,
        0x40, 0x90, 0x4c, 0x50, 0x00, 0xb0, 0x40, 0x00, 0x01, 0x80, 0x41, 0x00, 0x3f, 0x90, 0x4a, 0x51,
        0x01, 0x80, 0x4c, 0x00, 0x3f, 0x90, 0x48, 0x46, 0x00, 0xb0, 0x40, 0x7f, 0x00, 0x90, 0x2d, 0x42,
        0x01, 0x80, 0x4a, 0x00, 0x3f, 0x90, 0x34, 0x46, 0x01, 0x80, 0x2d, 0x00, 0x3f, 0x90, 0x39, 0x4b,
        0x01, 0x80, 0x34, 0x00, 0x35, 0x80, 0x48, 0x00, 0x06, 0x80, 0x39, 0x00, 0x04, 0x90, 0x40, 0x3c,
        0x00, 0xb0, 0x40, 0x00, 0x40, 0x90, 0x4a, 0x48, 0x01, 0x80, 0x40, 0x00, 0x3f, 0x90, 0x48, 0x47,
        0x01, 0x80, 0x4a, 0x00, 0x3f, 0x90, 0x47, 0x33, 0x00, 0x90, 0x28, 0x31, 0x01, 0x80, 0x48, 0x00,
        0x1f, 0x80, 0x28, 0x00, 0x20, 0x90, 0x34, 0x3d, 0x39, 0x80, 0x47, 0x00, 0x07, 0x90, 0x40, 0x50,
        0x01, 0x80, 0x34, 0x00, 0x3b, 0x80, 0x40, 0x00, 0x04, 0x90, 0x40, 0x31, 0x40, 0x90, 0x4c, 0x3f,
        0x01, 0x80, 0x40, 0x00, 0x3b, 0x80, 0x4c, 0x00, 0x04, 0x90, 0x40, 0x32, 0x40, 0x90, 0x4c, 0x3f,
        0x01, 0x80, 0x40, 0x00, 0x3b, 0x80, 0x4c, 0x00, 0x04, 0x90, 0x4c, 0x38, 0x40, 0x90, 0x58, 0x3c,
        0x01, 0x80, 0x4c, 0x00, 0x3b, 0x80, 0x58, 0x00, 0x04, 0x90, 0x4b, 0x2d, 0x40, 0x90, 0x4c, 0x2c,
        0x01, 0x80, 0x4b, 0x00, 0x3b, 0x80, 0x4c, 0x00, 0x04, 0x90, 0x4b, 0x2d, 0x40, 0x90, 0x4c, 0x2b,
        0x01, 0x80, 0x4b, 0x00, 0x3b, 0x80, 0x4c, 0x00, 0x04, 0x90, 0x4b, 0x2f, 0x40, 0x90, 0x4c, 0x29,
        0x01, 0x80, 0x4b, 0x00, 0x3b, 0x80, 0x4c, 0x00, 0x04, 0x90, 0x4b, 0x26, 0x40, 0x90, 0x4c, 0x23,
        0x01, 0x80, 0x4b, 0x00, 0x3f, 0x90, 0x4b, 0x2a, 0x01, 0x80, 0x4c, 0x00, 0x3f, 0x90, 0x4c, 0x29,
        0x01, 0x80, 0x4b, 0x00, 0x3f, 0x90, 0x4b, 0x2c, 0x01, 0x80, 0x4c, 0x00, 0x3f, 0x90, 0x4c, 0x30,
        0x01, 0x80, 0x4b, 0x00, 0x3f, 0x90, 0x47, 0x28, 0x01, 0x80, 0x4c, 0x00, 0x3f, 0x90, 0x4a, 0x2a,
        0x01, 0x80, 0x47, 0x00, 0x3f, 0x90, 0x48, 0x2a, 0x01, 0x80, 0x4a, 0x00, 0x3f, 0x90, 0x45, 0x29,
        0x00, 0x90, 0x2d, 0x2d, 0x01, 0x80, 0x48, 0x00, 0x3f, 0xb0, 0x40, 0x7f, 0x00, 0x90, 0x34, 0x2f,
        0x01, 0x80, 0x2d, 0x00, 0x38, 0x80, 0x45, 0x00, 0x07, 0x90, 0x39, 0x31, 0x01, 0x80, 0x34, 0x00,
        0x3b, 0x80, 0x39, 0x00, 0x04, 0x90, 0x3c, 0x23, 0x40, 0x90, 0x40, 0x23, 0x00, 0xb0, 0x40, 0x00,
        0x01, 0x80, 0x3c, 0x00, 0x3f, 0x90, 0x45, 0x33, 0x01, 0x80, 0x40, 0x00, 0x3f, 0x90, 0x47, 0x37,
        0x00, 0x90, 0x28, 0x25, 0x01, 0x80, 0x45, 0x00, 0x3f, 0xb0, 0x40, 0x7f, 0x00, 0x90, 0x34, 0x2a,
        0x01, 0x80, 0x28, 0x00, 0x38, 0x80, 0x47, 0x00, 0x07, 0x90, 0x38, 0x2e, 0x01, 0x80, 0x34, 0x00,
        0x3b, 0x80, 0x38, 0x00, 0x04, 0x90, 0x40, 0x25, 0x40, 0x90, 0x44, 0x26, 0x00, 0xb0, 0x40, 0x00,
        0x01, 0x80, 0x40, 0x00, 0x3f, 0x90, 0x47, 0x2f, 0x01, 0x80, 0x44, 0x00, 0x3f, 0x90, 0x48, 0x32,
        0x00, 0xb0, 0x40, 0x7f, 0x00, 0x90, 0x2d, 0x29, 0x01, 0x80, 0x47, 0x00, 0x3f, 0x90, 0x34, 0x2d,
        0x01, 0x80, 0x2d, 0x00, 0x38, 0x80, 0x48, 0x00, 0x07, 0x90, 0x39, 0x2e, 0x01, 0x80, 0x34, 0x00,
        0x3b, 0x80, 0x39, 0x00, 0x04, 0x90, 0x40, 0x25, 0x40, 0x90, 0x4c, 0x2f, 0x00, 0xb0, 0x40, 0x00,
        0x01, 0x80, 0x40, 0x00, 0x3f, 0x90, 0x4b, 0x2b, 0x01, 0x80, 0x4c, 0x00, 0x3f, 0x90, 0x4c, 0x2b,
        0x01, 0x80, 0x4b, 0x00, 0x3f, 0x90, 0x4b, 0x2d, 0x01, 0x80, 0x4c, 0x00, 0x3f, 0x90, 0x4c, 0x2e,
        0x01, 0x80, 0x4b, 0x00, 0x3f, 0x90, 0x47, 0x28, 0x01, 0x80, 0x4c, 0x00, 0x3f, 0x90, 0x4a, 0x26,
        0x01, 0x80, 0x47, 0x00, 0x3f, 0x90, 0x48, 0x27, 0x01, 0x80, 0x4a, 0x00, 0x3f, 0x90, 0x45, 0x25,
        0x00, 0xb0, 0x40, 0x7f, 0x00, 0x90, 0x2d, 0x24, 0x01, 0x80, 0x48, 0x00, 0x3f, 0x90, 0x34, 0x22,
        0x01, 0x80, 0x2d, 0x00, 0x38, 0x80, 0x45, 0x00, 0x07, 0x90, 0x39, 0x30, 0x01, 0x80, 0x34, 0x00,
        0x3b, 0x80, 0x39, 0x00, 0x04, 0x90, 0x3c, 0x29, 0x40, 0x90, 0x40, 0x2a, 0x00, 0xb0, 0x40, 0x00,
        0x01, 0x80, 0x3c, 0x00, 0x3f, 0x90, 0x45, 0x35, 0x01, 0x80, 0x40, 0x00, 0x3f, 0x90, 0x47, 0x3a,
        0x00, 0xb0, 0x40, 0x7f, 0x00, 0x90, 0x28, 0x26, 0x01, 0x80, 0x45, 0x00, 0x3f, 0x90, 0x34, 0x2a,
        0x01, 0x80, 0x28, 0x00, 0x38, 0x80, 0x47, 0x00, 0x07, 0x90, 0x38, 0x32, 0x01, 0x80, 0x34, 0x00,
        0x3b, 0x80, 0x38, 0x00, 0x04, 0x90, 0x3e, 0x21, 0x40, 0x90, 0x48, 0x2b, 0x00, 0xb0, 0x40, 0x00,
        0x01, 0x80, 0x3e, 0x00, 0x3f, 0x90, 0x47, 0x28, 0x01, 0x80, 0x48, 0x00, 0x3f, 0x90, 0x45, 0x24,
        0x00, 0x90, 0x2d, 0x21, 0x01, 0x80, 0x47, 0x00, 0x3f, 0x90, 0x34, 0x23, 0x01, 0x80, 0x2d, 0x00,
        0x38, 0x80, 0x45, 0x00, 0x07, 0x90, 0x39, 0x2c, 0x01, 0x80, 0x34, 0x00, 0x3b, 0x80, 0x39, 0x00,
        0x04, 0x90, 0x40, 0x25, 0x00, 0x90, 0x48, 0x25, 0x00, 0x90, 0x3a, 0x34, 0x00, 0x90, 0x3c, 0x34,
        0x20, 0x80, 0x40, 0x00, 0x00, 0x80, 0x48, 0x00, 0x00, 0x80, 0x3a, 0x00, 0x00, 0x80, 0x3c, 0x00,
        0x20, 0x90, 0x41, 0x36, 0x00, 0x90, 0x48, 0x36, 0x00, 0x90, 0x39, 0x38, 0x00, 0x90, 0x3c, 0x38,
        0x20, 0x80, 0x41, 0x00, 0x00, 0x80, 0x48, 0x00, 0x00, 0x80, 0x39, 0x00, 0x00, 0x80, 0x3c, 0x00,
        0x20, 0x90, 0x40, 0x40, 0x00, 0x90, 0x43, 0x40, 0x00, 0x90, 0x48, 0x40, 0x00, 0x90, 0x37, 0x43,
        0x00, 0x90, 0x3a, 0x43, 0x00, 0x90, 0x3c, 0x43, 0x20, 0x80, 0x40, 0x00, 0x00, 0x80, 0x43, 0x00,
        0x00, 0x80, 0x48, 0x00, 0x00, 0x80, 0x37, 0x00, 0x00, 0x80, 0x3a, 0x00, 0x00, 0x80, 0x3c, 0x00,
        0x20, 0x90, 0x48, 0x37, 0x00, 0x90, 0x35, 0x32, 0x40, 0x80, 0x35, 0x00, 0x00, 0x90, 0x39, 0x37,
        0x40, 0x80, 0x39, 0x00, 0x00, 0x90, 0x3c, 0x32, 0x40, 0x80, 0x3c, 0x00, 0x00, 0x90, 0x39, 0x2e,
        0x40, 0x90, 0x4d, 0x38, 0x00, 0x80, 0x39, 0x00, 0x00, 0x90, 0x3c, 0x37, 0x05, 0x80, 0x48, 0x00,
        0x3b, 0x80, 0x3c, 0x00, 0x00, 0x90, 0x39, 0x32, 0x20, 0x90, 0x4c, 0x33, 0x01, 0x80, 0x4d, 0x00,
        0x1f, 0x80, 0x4c, 0x00, 0x00, 0x90, 0x4c, 0x30, 0x00, 0x80, 0x39, 0x00, 0x00, 0x90, 0x35, 0x2b,
        0x40, 0x80, 0x35, 0x00, 0x00, 0x90, 0x3a, 0x36, 0x40, 0x90, 0x4a, 0x2b, 0x00, 0x80, 0x3a, 0x00,
        0x00, 0x90, 0x3e, 0x36, 0x02, 0x80, 0x4c, 0x00, 0x3e, 0x80, 0x3e, 0x00, 0x00, 0x90, 0x3a, 0x2b,
        0x39, 0x80, 0x4a, 0x00, 0x07, 0x90, 0x52, 0x3b, 0x00, 0x80, 0x3a, 0x00, 0x00, 0x90, 0x3e, 0x33,
        0x40, 0x80, 0x3e, 0x00, 0x00, 0x90, 0x3a, 0x2e, 0x20, 0x90, 0x51, 0x3d, 0x01, 0x80, 0x52, 0x00,
        0x1f, 0x80, 0x51, 0x00, 0x00, 0x90, 0x51, 0x2f, 0x00, 0x80, 0x3a, 0x00, 0x00, 0x90, 0x35, 0x2b,
        0x40, 0x90, 0x4f, 0x29, 0x00, 0x80, 0x35, 0x00, 0x00, 0x90, 0x40, 0x3e, 0x01, 0x80, 0x51, 0x00,
        0x3f, 0x90, 0x4d, 0x2b, 0x00, 0x80, 0x40, 0x00, 0x00, 0x90, 0x35, 0x2d, 0x00, 0x90, 0x37, 0x2d,
        0x00, 0x90, 0x3a, 0x2d, 0x01, 0x80, 0x4f, 0x00, 0x3f, 0x90, 0x4c, 0x26, 0x00, 0x80, 0x35, 0x00,
        0x00, 0x80, 0x37, 0x00, 0x00, 0x80, 0x3a, 0x00, 0x00, 0x90, 0x40, 0x35, 0x01, 0x80, 0x4d, 0x00,
        0x3f, 0x90, 0x4a, 0x2f, 0x00, 0x80, 0x40, 0x00, 0x00, 0x90, 0x35, 0x30, 0x00, 0x90, 0x37, 0x30,
        0x00, 0x90, 0x3a, 0x30, 0x01, 0x80, 0x4c, 0x00, 0x3f, 0x90, 0x48, 0x2d, 0x00, 0x80, 0x35, 0x00,
        0x00, 0x80, 0x37, 0x00, 0x00, 0x80, 0x3a, 0x00, 0x00, 0x90, 0x40, 0x39, 0x01, 0x80, 0x4a, 0x00,
        0x3f, 0x90, 0x46, 0x30, 0x00, 0x80, 0x40, 0x00, 0x00, 0x90, 0x35, 0x2a, 0x01, 0x80, 0x48, 0x00,
        0x3f, 0x80, 0x35, 0x00, 0x00, 0x90, 0x39, 0x34, 0x40, 0x90, 0x45, 0x28, 0x00, 0x80, 0x39, 0x00,
        0x00, 0x90, 0x3c, 0x34, 0x02, 0x80, 0x46, 0x00, 0x3e, 0x80, 0x3c, 0x00, 0x00, 0x90, 0x39, 0x2f,
        0x33, 0x80, 0x45, 0x00, 0x00, 0x90, 0x46, 0x2b, 0x0d, 0x90, 0x45, 0x2b, 0x00, 0x80, 0x46, 0x00,
        0x00, 0x80, 0x39, 0x00, 0x00, 0x90, 0x3c, 0x35, 0x20, 0x80, 0x45, 0x00, 0x00, 0x90, 0x43, 0x2e,
        0x20, 0x80, 0x43, 0x00, 0x00, 0x90, 0x45, 0x34, 0x00, 0x80, 0x3c, 0x00, 0x00, 0x90, 0x39, 0x2f,
        0x20, 0x80, 0x45, 0x00, 0x00, 0x90, 0x46, 0x36, 0x20, 0x80, 0x46, 0x00, 0x00, 0x90, 0x48, 0x39,
        0x00, 0x80, 0x39, 0x00, 0x00, 0x90, 0x35, 0x2f, 0x40, 0x80, 0x35, 0x00, 0x00, 0x90, 0x39, 0x33,
        0x40, 0x80, 0x39, 0x00, 0x00, 0x90, 0x3c, 0x3b, 0x40, 0x80, 0x3c, 0x00, 0x00, 0x90, 0x39, 0x2c,
        0x40, 0x90, 0x4a, 0x3e, 0x00, 0x80, 0x39, 0x00, 0x00, 0x90, 0x3c, 0x32, 0x05, 0x80, 0x48, 0x00,
        0x3b, 0x90, 0x4b, 0x35, 0x00, 0x80, 0x3c, 0x00, 0x00, 0x90, 0x39, 0x30, 0x01, 0x80, 0x4a, 0x00,
        0x3f, 0x90, 0x4c, 0x3b, 0x00, 0x80, 0x39, 0x00, 0x00, 0x90, 0x34, 0x30, 0x01, 0x80, 0x4b, 0x00,
        0x3f, 0x80, 0x34, 0x00, 0x00, 0x90, 0x39, 0x2f, 0x40, 0x80, 0x39, 0x00, 0x00, 0x90, 0x3c, 0x36,
        0x36, 0x80, 0x4c, 0x00, 0x0a, 0x90, 0x4c, 0x2e, 0x00, 0x80, 0x3c, 0x00, 0x00, 0x90, 0x39, 0x2e,
        0x40, 0x90, 0x4d, 0x33, 0x00, 0x80, 0x39, 0x00, 0x00, 0x90, 0x32, 0x3a, 0x00, 0x90, 0x3e, 0x3a,
        0x01, 0x80, 0x4c, 0x00, 0x3f, 0x90, 0x45, 0x23, 0x00, 0x80, 0x32, 0x00, 0x00, 0x80, 0x3e, 0x00,
        0x00, 0x90, 0x35, 0x2a, 0x01, 0x80, 0x4d, 0x00, 0x3f, 0x90, 0x48, 0x33, 0x00, 0x80, 0x35, 0x00,
        0x00, 0x90, 0x37, 0x35, 0x01, 0x80, 0x45, 0x00, 0x3f, 0x80, 0x37, 0x00, 0x00, 0x90, 0x40, 0x39,
        0x40, 0x80, 0x40, 0x00, 0x00, 0x90, 0x37, 0x30, 0x40, 0x90, 0x4a, 0x35, 0x00, 0x80, 0x37, 0x00,
        0x00, 0x90, 0x40, 0x38, 0x03, 0x80, 0x48, 0x00, 0x0d, 0x80, 0x4a, 0x00, 0x00, 0x90, 0x48, 0x38,
        0x10, 0x80, 0x48, 0x00, 0x00, 0x90, 0x47, 0x38, 0x10, 0x80, 0x47, 0x00, 0x00, 0x90, 0x48, 0x3b,
        0x10, 0x80, 0x48, 0x00, 0x00, 0x90, 0x4a, 0x36, 0x00, 0x80, 0x40, 0x00, 0x00, 0x90, 0x37, 0x29,
        0x40, 0x80, 0x37, 0x00, 0x00, 0x90, 0x41, 0x3b, 0x20, 0x90, 0x47, 0x34, 0x01, 0x80, 0x4a, 0x00,
        0x1f, 0x80, 0x47, 0x00, 0x00, 0x90, 0x48, 0x33, 0x00, 0x80, 0x41, 0x00, 0x00, 0x90, 0x3c, 0x33,
        0x00, 0x90, 0x40, 0x33, 0x1e, 0x80, 0x48, 0x00, 0x02, 0x90, 0x4f, 0x38, 0x20, 0x80, 0x4f, 0x00,
        0x00, 0x90, 0x43, 0x25, 0x20, 0x80, 0x43, 0x00, 0x00, 0x90, 0x4f, 0x3e, 0x20, 0x80, 0x4f, 0x00,
        0x00, 0x90, 0x45, 0x28, 0x00, 0x80, 0x3c, 0x00, 0x00, 0x80, 0x40, 0x00, 0x20, 0x80, 0x45, 0x00,
        0x00, 0x90, 0x4f, 0x3a, 0x20, 0x80, 0x4f, 0x00, 0x00, 0x90, 0x47, 0x26, 0x00, 0x90, 0x41, 0x2a,
        0x00, 0x90, 0x43, 0x2a, 0x20, 0x80, 0x47, 0x00, 0x00, 0x90, 0x4f, 0x3a, 0x00, 0x80, 0x41, 0x00,
        0x00, 0x80, 0x43, 0x00, 0x20, 0x80, 0x4f, 0x00, 0x00, 0x90, 0x48, 0x2a, 0x00, 0x90, 0x40, 0x32,
        0x00, 0x90, 0x43, 0x32, 0x20, 0x80, 0x48, 0x00, 0x00, 0x90, 0x4f, 0x3a, 0x00, 0x80, 0x40, 0x00,
        0x00, 0x80, 0x43, 0x00, 0x20, 0x80, 0x4f, 0x00, 0x00, 0x90, 0x4a, 0x29, 0x00, 0x90, 0x3e, 0x33,
        0x00, 0x90, 0x41, 0x33, 0x00, 0x90, 0x43, 0x33, 0x20, 0x80, 0x4a, 0x00, 0x00, 0x90, 0x4f, 0x36,
        0x00, 0x80, 0x3e, 0x00, 0x00, 0x80, 0x41, 0x00, 0x00, 0x80, 0x43, 0x00, 0x20, 0x80, 0x4f, 0x00,
        0x00, 0x90, 0x4c, 0x2d, 0x00, 0x90, 0x3c, 0x2e, 0x00, 0x90, 0x40, 0x2e, 0x00, 0x90, 0x43, 0x2e,
        0x20, 0x80, 0x4c, 0x00, 0x00, 0x90, 0x4f, 0x38, 0x20, 0x80, 0x4f, 0x00, 0x00, 0x90, 0x54, 0x39,
        0x20, 0x80, 0x54, 0x00, 0x00, 0x90, 0x53, 0x30, 0x20, 0x80, 0x53, 0x00, 0x00, 0x90, 0x51, 0x2b,
        0x00, 0x80, 0x3c, 0x00, 0x00, 0x80, 0x40, 0x00, 0x00, 0x80, 0x43, 0x00, 0x00, 0x90, 0x35, 0x2d,
        0x00, 0x90, 0x39, 0x2d, 0x20, 0x80, 0x51, 0x00, 0x00, 0x90, 0x4f, 0x2a, 0x20, 0x80, 0x4f, 0x00,
        0x00, 0x90, 0x4d, 0x2d, 0x20, 0x80, 0x4d, 0x00, 0x00, 0x90, 0x4c, 0x2a, 0x20, 0x80, 0x4c, 0x00,
        0x00, 0x90, 0x4a, 0x2d, 0x00, 0x80, 0x35, 0x00, 0x00, 0x80, 0x39, 0x00, 0x00, 0x90, 0x37, 0x30,
        0x00, 0x90, 0x3b, 0x30, 0x20, 0x80, 0x4a, 0x00, 0x00, 0x90, 0x4f, 0x37, 0x20, 0x80, 0x4f, 0x00,
        0x00, 0x90, 0x4d, 0x30, 0x20, 0x80, 0x4d, 0x00, 0x00, 0x90, 0x4a, 0x2f, 0x1e, 0x80, 0x4a, 0x00,
        0x02, 0x90, 0x48, 0x29, 0x00, 0x80, 0x37, 0x00, 0x00, 0x80, 0x3b, 0x00, 0x00, 0x90, 0x3c, 0x37,
        0x00, 0x90, 0x40, 0x37, 0x20, 0x80, 0x48, 0x00, 0x00, 0x90, 0x4f, 0x37, 0x20, 0x80, 0x4f, 0x00,
        0x00, 0x90, 0x43, 0x24, 0x20, 0x80, 0x43, 0x00, 0x00, 0x90, 0x4f, 0x3d, 0x20, 0x80, 0x4f, 0x00,
        0x00, 0x90, 0x45, 0x28, 0x00, 0x80, 0x3c, 0x00, 0x00, 0x80, 0x40, 0x00, 0x20, 0x80, 0x45, 0x00,
        0x00, 0x90, 0x4f, 0x37, 0x20, 0x80, 0x4f, 0x00, 0x00, 0x90, 0x47, 0x2d, 0x00, 0x90, 0x41, 0x2c,
        0x00, 0x90, 0x43, 0x2c, 0x20, 0x80, 0x47, 0x00, 0x00, 0x90, 0x4f, 0x38, 0x00, 0x80, 0x41, 0x00,
        0x00, 0x80, 0x43, 0x00, 0x20, 0x80, 0x4f, 0x00, 0x00, 0x90, 0x48, 0x2a, 0x00, 0x90, 0x40, 0x30,
        0x00, 0x90, 0x43, 0x30, 0x20, 0x80, 0x48, 0x00, 0x00, 0x90, 0x4f, 0x39, 0x00, 0x80, 0x40, 0x00,
        0x00, 0x80, 0x43, 0x00, 0x20, 0x80, 0x4f, 0x00, 0x00, 0x90, 0x4a, 0x2a, 0x00, 0x90, 0x3e, 0x31,
        0x00, 0x90, 0x41, 0x31, 0x00, 0x90, 0x43, 0x31, 0x20, 0x80, 0x4a, 0x00, 0x00, 0x90, 0x4f, 0x31,
        0x00, 0x80, 0x3e, 0x00, 0x00, 0x80, 0x41, 0x00, 0x00, 0x80, 0x43, 0x00, 0x20, 0x80, 0x4f, 0x00,
        0x00, 0x90, 0x4c, 0x29, 0x00, 0x90, 0x3c, 0x30, 0x00, 0x90, 0x40, 0x30, 0x00, 0x90, 0x43, 0x30,
        0x20, 0x80, 0x4c, 0x00, 0x00, 0x90, 0x4f, 0x33, 0x20, 0x80, 0x4f, 0x00, 0x00, 0x90, 0x54, 0x3d,
        0x20, 0x80, 0x54, 0x00, 0x00, 0x90, 0x53, 0x2b, 0x20, 0x80, 0x53, 0x00, 0x00, 0x90, 0x51, 0x31,
        0x00, 0x80, 0x3c, 0x00, 0x00, 0x80, 0x40, 0x00, 0x00, 0x80, 0x43, 0x00, 0x00, 0x90, 0x35, 0x2a,
        0x00, 0x90, 0x39, 0x2a, 0x20, 0x80, 0x51, 0x00, 0x00, 0x90, 0x4f, 0x2d, 0x20, 0x80, 0x4f, 0x00,
        0x00, 0x90, 0x4d, 0x29, 0x20, 0x80, 0x4d, 0x00, 0x00, 0x90, 0x4c, 0x31, 0x20, 0x80, 0x4c, 0x00,
        0x00, 0x90, 0x4a, 0x2e, 0x00, 0x80, 0x35, 0x00, 0x00, 0x80, 0x39, 0x00, 0x00, 0x90, 0x37, 0x31,
        0x00, 0x90, 0x3b, 0x31, 0x20, 0x80, 0x4a, 0x00, 0x00, 0x90, 0x4f, 0x38, 0x20, 0x80, 0x4f, 0x00,
        0x00, 0x90, 0x4d, 0x2e, 0x20, 0x80, 0x4d, 0x00, 0x00, 0x90, 0x4a, 0x2b, 0x1e, 0x80, 0x4a, 0x00,
        0x02, 0x90, 0x4c, 0x33, 0x00, 0x80, 0x37, 0x00, 0x00, 0x80, 0x3b, 0x00, 0x00, 0x90, 0x38, 0x31,
        0x00, 0x90, 0x3b, 0x31, 0x20, 0x80, 0x4c, 0x00, 0x00, 0x90, 0x4d, 0x35, 0x20, 0x80, 0x4d, 0x00,
        0x00, 0x90, 0x4c, 0x30, 0x20, 0x80, 0x4c, 0x00, 0x00, 0x90, 0x4b, 0x2c, 0x20, 0x80, 0x4b, 0x00,
        0x00, 0x90, 0x4c, 0x2e, 0x00, 0x80, 0x38, 0x00, 0x00, 0x80, 0x3b, 0x00, 0x20, 0x80, 0x4c, 0x00,
        0x00, 0x90, 0x47, 0x2a, 0x20, 0x80, 0x47, 0x00, 0x00, 0x90, 0x4c, 0x34, 0x20, 0x80, 0x4c, 0x00,
        0x00, 0x90, 0x4b, 0x2e, 0x20, 0x80, 0x4b, 0x00, 0x00, 0x90, 0x4c, 0x33, 0x20, 0x80, 0x4c, 0x00,
        0x00, 0x90, 0x47, 0x2c, 0x20, 0x80, 0x47, 0x00, 0x00, 0x90, 0x4c, 0x31, 0x20, 0x80, 0x4c, 0x00,
        0x00, 0x90, 0x4b, 0x30, 0x20, 0x80, 0x4b, 0x00, 0x00, 0x90, 0x4c, 0x34, 0x81, 0x36, 0x80, 0x4c,
        0x00, 0x0a, 0x90, 0x47, 0x24, 0x40, 0x90, 0x4c, 0x26, 0x01, 0x80, 0x47, 0x00, 0x3f, 0x90, 0x4b,
        0x2b, 0x01, 0x80, 0x4c, 0x00, 0x3f, 0x90, 0x4c, 0x2d, 0x01, 0x80, 0x4b, 0x00, 0x81, 0x35, 0x80,
        0x4c, 0x00, 0x0a, 0x90, 0x47, 0x2c, 0x40, 0x80, 0x47, 0x00, 0x00, 0x90, 0x4c, 0x34, 0x60, 0x80,
        0x4c, 0x00, 0x00, 0x90, 0x4b, 0x2a, 0x40, 0x90, 0x4c, 0x2b, 0x01, 0x80, 0x4b, 0x00, 0x3b, 0x80,
        0x4c, 0x00, 0x04, 0x90, 0x4b, 0x27, 0x40, 0x90, 0x4c, 0x25, 0x01, 0x80, 0x4b, 0x00, 0x3b, 0x80,
        0x4c, 0x00, 0x04, 0x90, 0x4b, 0x2b, 0x40, 0x90, 0x4c, 0x2c, 0x01, 0x80, 0x4b, 0x00, 0x3b, 0x80,
        0x4c, 0x00, 0x04, 0x90, 0x4b, 0x25, 0x40, 0x90, 0x4c, 0x24, 0x01, 0x80, 0x4b, 0x00, 0x3f, 0x90,
        0x4b, 0x28, 0x01, 0x80, 0x4c, 0x00, 0x3f, 0x90, 0x4c, 0x29, 0x01, 0x80, 0x4b, 0x00, 0x3f, 0x90,
        0x47, 0x24, 0x01, 0x80, 0x4c, 0x00, 0x3f, 0x90, 0x4a, 0x25, 0x01, 0x80, 0x47, 0x00, 0x3f, 0x90,
        0x48, 0x2d, 0x01, 0x80, 0x4a, 0x00, 0x3f, 0x90, 0x45, 0x29, 0x00, 0xb0, 0x40, 0x7f, 0x00, 0x90,
        0x2d, 0x29, 0x01, 0x80, 0x48, 0x00, 0x3f, 0x90, 0x34, 0x2e, 0x01, 0x80, 0x2d, 0x00, 0x38, 0x80,
        0x45, 0x00, 0x07, 0x90, 0x39, 0x2f, 0x01, 0x80, 0x34, 0x00, 0x3b, 0x80, 0x39, 0x00, 0x04, 0x90,
        0x3c, 0x2e, 0x40, 0x90, 0x40, 0x32, 0x00, 0xb0, 0x40, 0x00, 0x01, 0x80, 0x3c, 0x00, 0x3f, 0x90,
        0x45, 0x34, 0x01, 0x80, 0x40, 0x00, 0x3f, 0x90, 0x47, 0x37, 0x00, 0x90, 0x28, 0x2b, 0x01, 0x80,
        0x45, 0x00, 0x3f, 0xb0, 0x40, 0x7f, 0x00, 0x90, 0x34, 0x2f, 0x01, 0x80, 0x28, 0x00, 0x38, 0x80,
        0x47, 0x00, 0x07, 0x90, 0x38, 0x2b, 0x01, 0x80, 0x34, 0x00, 0x3b, 0x80, 0x38, 0x00, 0x04, 0x90,
        0x40, 0x2c, 0x40, 0x90, 0x44, 0x2f, 0x00, 0xb0, 0x40, 0x00, 0x01, 0x80, 0x40, 0x00, 0x3f, 0x90,
        0x47, 0x2a, 0x01, 0x80, 0x44, 0x00, 0x3f, 0x90, 0x48, 0x2c, 0x00, 0xb0, 0x40, 0x7f, 0x00, 0x90,
        0x2d, 0x24, 0x01, 0x80, 0x47, 0x00, 0x3f, 0x90, 0x34, 0x23, 0x01, 0x80, 0x2d, 0x00, 0x38, 0x80,
        0x48, 0x00, 0x07, 0x90, 0x39, 0x2f, 0x01, 0x80, 0x34, 0x00, 0x3b, 0x80, 0x39, 0x00, 0x04, 0x90,
        0x40, 0x25, 0x40, 0x90, 0x4c, 0x30, 0x00, 0xb0, 0x40, 0x00, 0x01, 0x80, 0x40, 0x00, 0x3f, 0x90,
        0x4b, 0x29, 0x01, 0x80, 0x4c, 0x00, 0x3f, 0x90, 0x4c, 0x29, 0x01, 0x80, 0x4b, 0x00, 0x3f, 0x90,
        0x4b, 0x2d, 0x01, 0x80, 0x4c, 0x00, 0x3f, 0x90, 0x4c, 0x31, 0x01, 0x80, 0x4b, 0x00, 0x3f, 0x90,
        0x47, 0x27, 0x01, 0x80, 0x4c, 0x00, 0x3f, 0x90, 0x4a, 0x28, 0x01, 0x80, 0x47, 0x00, 0x3f, 0x90,
        0x48, 0x2b, 0x01, 0x80, 0x4a, 0x00, 0x3f, 0x90, 0x45, 0x28, 0x00, 0xb0, 0x40, 0x7f, 0x00, 0x90,
        0x2d, 0x22, 0x01, 0x80, 0x48, 0x00, 0x3f, 0x90, 0x34, 0x25, 0x01, 0x80, 0x2d, 0x00, 0x38, 0x80,
        0x45, 0x00, 0x07, 0x90, 0x39, 0x2b, 0x01, 0x80, 0x34, 0x00, 0x3b, 0x80, 0x39, 0x00, 0x04, 0x90,
        0x3c, 0x29, 0x40, 0x90, 0x40, 0x2e, 0x00, 0xb0, 0x40, 0x00, 0x01, 0x80, 0x3c, 0x00, 0x3f, 0x90,
        0x45, 0x33, 0x01, 0x80, 0x40, 0x00, 0x3f, 0x90, 0x47, 0x3a, 0x00, 0xb0, 0x40, 0x7f, 0x00, 0x90,
        0x28, 0x2a, 0x01, 0x80, 0x45, 0x00, 0x3f, 0x90, 0x34, 0x33, 0x01, 0x80, 0x28, 0x00, 0x38, 0x80,
        0x47, 0x00, 0x07, 0x90, 0x38, 0x31, 0x01, 0x80, 0x34, 0x00, 0x3b, 0x80, 0x38, 0x00, 0x04, 0x90,
        0x3e, 0x26, 0x40, 0x90, 0x48, 0x29, 0x00, 0xb0, 0x40, 0x00, 0x01, 0x80, 0x3e, 0x00, 0x3f, 0x90,
        0x47, 0x2c, 0x01, 0x80, 0x48, 0x00, 0x3f, 0x90, 0x45, 0x25, 0x00, 0xb0, 0x40, 0x7f, 0x00, 0x90,
        0x2d, 0x26, 0x01, 0x80, 0x47, 0x00, 0x3f, 0x90, 0x34, 0x29, 0x01, 0x80, 0x2d, 0x00, 0x38, 0x80,
        0x45, 0x00, 0x07, 0x90, 0x39, 0x2c, 0x01, 0x80, 0x34, 0x00, 0x3b, 0x80, 0x39, 0x00, 0x04, 0x90,
        0x47, 0x26, 0x40, 0x90, 0x48, 0x3f, 0x01, 0x80, 0x47, 0x00, 0x3f, 0x90, 0x4a, 0x54, 0x00, 0xb0,
        0x40, 0x00, 0x01, 0x80, 0x48, 0x00, 0x3f, 0x90, 0x4c, 0x57, 0x00, 0xb0, 0x40, 0x7f, 0x00, 0x90,
        0x30, 0x4b, 0x01, 0x80, 0x4a, 0x00, 0x3f, 0x90, 0x37, 0x55, 0x01, 0x80, 0x30, 0x00, 0x3f, 0x90,
        0x3c, 0x62, 0x01, 0x80, 0x37, 0x00, 0x35, 0x80, 0x4c, 0x00, 0x06, 0x80, 0x3c, 0x00, 0x04, 0x90,
        0x43, 0x41, 0x40, 0x90, 0x4d, 0x4f, 0x00, 0xb0, 0x40, 0x00, 0x01, 0x80, 0x43, 0x00, 0x3f, 0x90,
        0x4c, 0x52, 0x01, 0x80, 0x4d, 0x00, 0x3f, 0x90, 0x4a, 0x4f, 0x00, 0xb0, 0x40, 0x7f, 0x00, 0x90,
        0x2b, 0x4c, 0x01, 0x80, 0x4c, 0x00, 0x3f, 0x90, 0x37, 0x55, 0x01, 0x80, 0x2b, 0x00, 0x3f, 0x90,
        0x3b, 0x5b, 0x01, 0x80, 0x37, 0x00, 0x35, 0x80, 0x4a, 0x00, 0x06, 0x80, 0x3b, 0x00, 0x04, 0x90,
        0x41, 0x3c, 0x40, 0x90, 0x4c, 0x45, 0x00, 0xb0, 0x40, 0x00, 0x01, 0x80, 0x41, 0x00, 0x3f, 0x90,
        0x4a, 0x4d, 0x01, 0x80, 0x4c, 0x00, 0x3f, 0x90, 0x48, 0x47, 0x00, 0xb0, 0x40, 0x7f, 0x00, 0x90,
        0x2d, 0x3f, 0x01, 0x80, 0x4a, 0x00, 0x3f, 0x90, 0x34, 0x45, 0x01, 0x80, 0x2d, 0x00, 0x3f, 0x90,
        0x39, 0x50, 0x01, 0x80, 0x34, 0x00, 0x35, 0x80, 0x48, 0x00, 0x06, 0x80, 0x39, 0x00, 0x04, 0x90,
        0x40, 0x38, 0x40, 0x90, 0x4a, 0x48, 0x00, 0xb0, 0x40, 0x00, 0x01, 0x80, 0x40, 0x00, 0x3f, 0x90,
        0x48, 0x47, 0x01, 0x80, 0x4a, 0x00, 0x3f, 0x90, 0x47, 0x3c, 0x00, 0x90, 0x28, 0x30, 0x01, 0x80,
        0x48, 0x00, 0x1f, 0x80, 0x28, 0x00, 0x20, 0x90, 0x34, 0x3c, 0x39, 0x80, 0x47, 0x00, 0x07, 0x90,
        0x40, 0x4f, 0x01, 0x80, 0x34, 0x00, 0x3b, 0x80, 0x40, 0x00, 0x04, 0x90, 0x40, 0x34, 0x40, 0x90,
        0x4c, 0x42, 0x01, 0x80, 0x40, 0x00, 0x3b, 0x80, 0x4c, 0x00, 0x04, 0x90, 0x40, 0x31, 0x40, 0x90,
        0x4c, 0x43, 0x01, 0x80, 0x40, 0x00, 0x3b, 0x80, 0x4c, 0x00, 0x04, 0x90, 0x4c, 0x31, 0x40, 0x90,
        0x58, 0x3c, 0x01, 0x80, 0x4c, 0x00, 0x3b, 0x80, 0x58, 0x00, 0x04, 0x90, 0x4b, 0x31, 0x40, 0x90,
        0x4c, 0x33, 0x01, 0x80, 0x4b, 0x00, 0x3b, 0x80, 0x4c, 0x00, 0x04, 0x90, 0x4b, 0x30, 0x40, 0x90,
        0x4c, 0x2e, 0x01, 0x80, 0x4b, 0x00, 0x3b, 0x80, 0x4c, 0x00, 0x04, 0x90, 0x4b, 0x2a, 0x40, 0x90,
        0x4c, 0x2f, 0x01, 0x80, 0x4b, 0x00, 0x3b, 0x80, 0x4c, 0x00, 0x04, 0x90, 0x4b, 0x27, 0x40, 0x90,
        0x4c, 0x27, 0x01, 0x80, 0x4b, 0x00, 0x3f, 0x90, 0x4b, 0x28, 0x01, 0x80, 0x4c, 0x00, 0x3f, 0x90,
        0x4c, 0x2a, 0x01, 0x80, 0x4b, 0x00, 0x3f, 0x90, 0x4b, 0x28, 0x01, 0x80, 0x4c, 0x00, 0x3f, 0x90,
        0x4c, 0x28, 0x01, 0x80, 0x4b, 0x00, 0x3f, 0x90, 0x47, 0x25, 0x01, 0x80, 0x4c, 0x00, 0x3f, 0x90,
        0x4a, 0x25, 0x01, 0x80, 0x47, 0x00, 0x3f, 0x90, 0x48, 0x2a, 0x01, 0x80, 0x4a, 0x00, 0x3f, 0x90,
        0x45, 0x2b, 0x00, 0xb0, 0x40, 0x7f, 0x00, 0x90, 0x2d, 0x25, 0x01, 0x80, 0x48, 0x00, 0x3f, 0x90,
        0x34, 0x29, 0x01, 0x80, 0x2d, 0x00, 0x38, 0x80, 0x45, 0x00, 0x07, 0x90, 0x39, 0x2d, 0x01, 0x80,
        0x34, 0x00, 0x3b, 0x80, 0x39, 0x00, 0x04, 0x90, 0x3c, 0x27, 0x40, 0x90, 0x40, 0x28, 0x00, 0xb0,
        0x40, 0x00, 0x01, 0x80, 0x3c, 0x00, 0x3f, 0x90, 0x45, 0x32, 0x01, 0x80, 0x40, 0x00, 0x3f, 0x90,
        0x47, 0x34, 0x00, 0xb0, 0x40, 0x7f, 0x00, 0x90, 0x28, 0x27, 0x01, 0x80, 0x45, 0x00, 0x3f, 0x90,
        0x34, 0x2b, 0x01, 0x80, 0x28, 0x00, 0x38, 0x80, 0x47, 0x00, 0x07, 0x90, 0x38, 0x2e, 0x01, 0x80,
        0x34, 0x00, 0x3b, 0x80, 0x38, 0x00, 0x04, 0x90, 0x40, 0x29, 0x40, 0x90, 0x44, 0x2a, 0x00, 0xb0,
        0x40, 0x00, 0x01, 0x80, 0x40, 0x00, 0x3f, 0x90, 0x47, 0x30, 0x01, 0x80, 0x44, 0x00, 0x3f, 0x90,
        0x48, 0x34, 0x00, 0xb0, 0x40, 0x7f, 0x00, 0x90, 0x2d, 0x26, 0x01, 0x80, 0x47, 0x00, 0x3f, 0x90,
        0x34, 0x2c, 0x01, 0x80, 0x2d, 0x00, 0x38, 0x80, 0x48, 0x00, 0x07, 0x90, 0x39, 0x2c, 0x01, 0x80,
        0x34, 0x00, 0x3b, 0x80, 0x39, 0x00, 0x04, 0x90, 0x40, 0x29, 0x40, 0x90, 0x4c, 0x33, 0x00, 0xb0,
        0x40, 0x00, 0x01, 0x80, 0x40, 0x00, 0x3f, 0x90, 0x4b, 0x29, 0x01, 0x80, 0x4c, 0x00, 0x3f, 0x90,
        0x4c, 0x2b, 0x01, 0x80, 0x4b, 0x00, 0x3f, 0x90, 0x4b, 0x2d, 0x01, 0x80, 0x4c, 0x00, 0x3f, 0x90,
        0x4c, 0x33, 0x01, 0x80, 0x4b, 0x00, 0x3f, 0x90, 0x47, 0x27, 0x01, 0x80, 0x4c, 0x00, 0x3f, 0x90,
        0x4a, 0x2c, 0x01, 0x80, 0x47, 0x00, 0x3f, 0x90, 0x48, 0x29, 0x01, 0x80, 0x4a, 0x00, 0x3f, 0x90,
        0x45, 0x26, 0x00, 0xb0, 0x40, 0x7f, 0x00, 0x90, 0x2d, 0x22, 0x01, 0x80, 0x48, 0x00, 0x3f, 0x90,
        0x34, 0x24, 0x01, 0x80, 0x2d, 0x00, 0x38, 0x80, 0x45, 0x00, 0x07, 0x90, 0x39, 0x2d, 0x01, 0x80,
        0x34, 0x00, 0x3b, 0x80, 0x39, 0x00, 0x04, 0x90, 0x3c, 0x25, 0x40, 0x90, 0x40, 0x2d, 0x00, 0xb0,
        0x40, 0x00, 0x01, 0x80, 0x3c, 0x00, 0x3f, 0x90, 0x45, 0x31, 0x01, 0x80, 0x40, 0x00, 0x3f, 0x90,
        0x47, 0x30, 0x00, 0xb0, 0x40, 0x7f, 0x00, 0x90, 0x28, 0x28, 0x01, 0x80, 0x45, 0x00, 0x3f, 0x90,
        0x34, 0x2b, 0x01, 0x80, 0x28, 0x00, 0x38, 0x80, 0x47, 0x00, 0x07, 0x90, 0x38, 0x2c, 0x01, 0x80,
        0x34, 0x00, 0x3b, 0x80, 0x38, 0x00, 0x04, 0x90, 0x3e, 0x2a, 0x40, 0x90, 0x48, 0x34, 0x00, 0xb0,
        0x40, 0x00, 0x01, 0x80, 0x3e, 0x00, 0x3f, 0x90, 0x47, 0x2b, 0x01, 0x80, 0x48, 0x00, 0x3f, 0x90,
        0x45, 0x34, 0x00, 0x90, 0x2d, 0x32, 0x01, 0x80, 0x47, 0x00, 0x1f, 0x80, 0x2d, 0x00, 0x20, 0x90,
        0x2d, 0x36, 0x20, 0x80, 0x2d, 0x00, 0x19, 0x80, 0x45, 0x00, 0x07, 0x90, 0x2d, 0x42, 0x20, 0x80,
        0x2d, 0x00, 0x20, 0x90, 0x2d, 0x3e, 0x20, 0x80, 0x2d, 0x00, 0x20, 0x90, 0x2d, 0x3f, 0x20, 0x80,
        0x2d, 0x00, 0x20, 0x90, 0x2d, 0x3e, 0x20, 0x80, 0x2d, 0x00, 0x20, 0x90, 0x40, 0x3c, 0x00, 0x90,
        0x43, 0x3c, 0x00, 0x90, 0x46, 0x3c, 0x00, 0x90, 0x49, 0x3c, 0x00, 0x90, 0x2d, 0x46, 0x20, 0x80,
        0x2d, 0x00, 0x20, 0x90, 0x2d, 0x49, 0x20, 0x80, 0x2d, 0x00, 0x20, 0x90, 0x2d, 0x49, 0x20, 0x80,
        0x2d, 0x00, 0x20, 0x90, 0x2d, 0x4b, 0x20, 0x80, 0x2d, 0x00, 0x20, 0x90, 0x2d, 0x44, 0x20, 0x80,
        0x2d, 0x00, 0x20, 0x90, 0x2d, 0x4d, 0x20, 0x80, 0x2d, 0x00, 0x20, 0x80, 0x40, 0x00, 0x00, 0x80,
        0x43, 0x00, 0x00, 0x80, 0x46, 0x00, 0x00, 0x80, 0x49, 0x00, 0x00, 0x90, 0x41, 0x41, 0x00, 0x90,
        0x45, 0x41, 0x00, 0x90, 0x4a, 0x41, 0x00, 0x90, 0x2d, 0x55, 0x20, 0x80, 0x2d, 0x00, 0x20, 0x90,
        0x2d, 0x4b, 0x20, 0x80, 0x2d, 0x00, 0x20, 0x90, 0x2d, 0x48, 0x20, 0x80, 0x2d, 0x00, 0x20, 0x90,
        0x2d, 0x4c, 0x20, 0x80, 0x2d, 0x00, 0x20, 0x80, 0x41, 0x00, 0x00, 0x80, 0x45, 0x00, 0x00, 0x80,
        0x4a, 0x00, 0x00, 0x90, 0x49, 0x41, 0x00, 0x90, 0x4c, 0x41, 0x00, 0x90, 0x2d, 0x4c, 0x20, 0x80,
        0x2d, 0x00, 0x20, 0x80, 0x49, 0x00, 0x00, 0x80, 0x4c, 0x00, 0x00, 0x90, 0x4a, 0x3c, 0x00, 0x90,
        0x4d, 0x3c, 0x00, 0x90, 0x2d, 0x4a, 0x20, 0x80, 0x2d, 0x00, 0x20, 0x80, 0x4a, 0x00, 0x00, 0x80,
        0x4d, 0x00, 0x00, 0x90, 0x44, 0x53, 0x00, 0x90, 0x4a, 0x53, 0x00, 0x90, 0x4d, 0x53, 0x00, 0x90,
        0x2d, 0x47, 0x20, 0x80, 0x2d, 0x00, 0x20, 0x90, 0x2d, 0x4a, 0x20, 0x80, 0x2d, 0x00, 0x20, 0x90,
        0x2d, 0x45, 0x20, 0x80, 0x2d, 0x00, 0x20, 0x90, 0x2d, 0x47, 0x20, 0x80, 0x2d, 0x00, 0x20, 0x80,
        0x44, 0x00, 0x00, 0x80, 0x4a, 0x00, 0x00, 0x80, 0x4d, 0x00, 0x00, 0x90, 0x44, 0x57, 0x00, 0x90,
        0x4a, 0x57, 0x00, 0x90, 0x4d, 0x57, 0x00, 0x90, 0x2d, 0x46, 0x20, 0x80, 0x2d, 0x00, 0x20, 0x90,
        0x2d, 0x45, 0x20, 0x80, 0x2d, 0x00, 0x20, 0x80, 0x44, 0x00, 0x00, 0x80, 0x4a, 0x00, 0x00, 0x80,
        0x4d, 0x00, 0x00, 0x90, 0x45, 0x4e, 0x00, 0x90, 0x48, 0x4e, 0x00, 0x90, 0x4c, 0x4e, 0x00, 0x90,
        0x2d, 0x46, 0x20, 0x80, 0x2d, 0x00, 0x20, 0x90, 0x2d, 0x47, 0x20, 0x80, 0x2d, 0x00, 0x20, 0x90,
        0x2d, 0x4b, 0x20, 0x80, 0x2d, 0x00, 0x20, 0x90, 0x2d, 0x49, 0x20, 0x80, 0x2d, 0x00, 0x20, 0x90,
        0x2d, 0x48, 0x20, 0x80, 0x2d, 0x00, 0x20, 0x90, 0x2d, 0x47, 0x20, 0x80, 0x2d, 0x00, 0x20, 0x80,
        0x45, 0x00, 0x00, 0x80, 0x48, 0x00, 0x00, 0x80, 0x4c, 0x00, 0x00, 0x90, 0x41, 0x43, 0x00, 0x90,
        0x4a, 0x43, 0x00, 0x90, 0x26, 0x42, 0x00, 0x90, 0x2d, 0x42, 0x20, 0x80, 0x26, 0x00, 0x00, 0x80,
        0x2d, 0x00, 0x20, 0x90, 0x26, 0x45, 0x00, 0x90, 0x2d, 0x45, 0x20, 0x80, 0x26, 0x00, 0x00, 0x80,
        0x2d, 0x00, 0x20, 0x90, 0x26, 0x41, 0x00, 0x90, 0x2d, 0x41, 0x20, 0x80, 0x26, 0x00, 0x00, 0x80,
        0x2d, 0x00, 0x20, 0x90, 0x26, 0x40, 0x00, 0x90, 0x2d, 0x40, 0x20, 0x80, 0x26, 0x00, 0x00, 0x80,
        0x2d, 0x00, 0x20, 0x90, 0x40, 0x40, 0x00, 0x90, 0x48, 0x40, 0x00, 0x90, 0x26, 0x45, 0x00, 0x90,
        0x2d, 0x45, 0x05, 0x80, 0x41, 0x00, 0x00, 0x80, 0x4a, 0x00, 0x1b, 0x80, 0x26, 0x00, 0x00, 0x80,
        0x2d, 0x00, 0x20, 0x90, 0x3e, 0x48, 0x00, 0x90, 0x47, 0x48, 0x00, 0x90, 0x26, 0x43, 0x00, 0x90,
        0x2d, 0x43, 0x01, 0x80, 0x40, 0x00, 0x00, 0x80, 0x48, 0x00, 0x1f, 0x80, 0x26, 0x00, 0x00, 0x80,
        0x2d, 0x00, 0x20, 0x90, 0x3c, 0x44, 0x00, 0x90, 0x42, 0x44, 0x00, 0x90, 0x45, 0x44, 0x00, 0x90,
        0x27, 0x3b, 0x00, 0x90, 0x2d, 0x3b, 0x01, 0x80, 0x3e, 0x00, 0x00, 0x80, 0x47, 0x00, 0x1f, 0x80,
        0x27, 0x00, 0x00, 0x80, 0x2d, 0x00, 0x20, 0x90, 0x27, 0x3e, 0x00, 0x90, 0x2d, 0x3e, 0x20, 0x80,
        0x27, 0x00, 0x00, 0x80, 0x2d, 0x00, 0x20, 0x90, 0x27, 0x43, 0x00, 0x90, 0x2d, 0x43, 0x20, 0x80,
        0x27, 0x00, 0x00, 0x80, 0x2d, 0x00, 0x20, 0x90, 0x27, 0x3d, 0x00, 0x90, 0x2d, 0x3d, 0x20, 0x80,
        0x27, 0x00, 0x00, 0x80, 0x2d, 0x00, 0x13, 0x80, 0x3c, 0x00, 0x00, 0x80, 0x42, 0x00, 0x00, 0x80,
        0x45, 0x00, 0x0d, 0x90, 0x3c, 0x4c, 0x00, 0x90, 0x45, 0x4c, 0x00, 0x90, 0x27, 0x3f, 0x00, 0x90,
        0x2d, 0x3f, 0x20, 0x80, 0x27, 0x00, 0x00, 0x80, 0x2d, 0x00, 0x20, 0x90, 0x27, 0x40, 0x00, 0x90,
        0x2d, 0x40, 0x20, 0x80, 0x27, 0x00, 0x00, 0x80, 0x2d, 0x00, 0x20, 0x80, 0x3c, 0x00, 0x00, 0x80,
        0x45, 0x00, 0x00, 0x90, 0x3c, 0x4b, 0x00, 0x90, 0x45, 0x4b, 0x00, 0x90, 0x28, 0x41, 0x00, 0x90,
        0x2d, 0x41, 0x20, 0x80, 0x28, 0x00, 0x00, 0x80, 0x2d, 0x00, 0x20, 0x90, 0x28, 0x40, 0x00, 0x90,
        0x2d, 0x40, 0x20, 0x80, 0x28, 0x00, 0x00, 0x80, 0x2d, 0x00, 0x20, 0x90, 0x40, 0x50, 0x00, 0x90,
        0x48, 0x50, 0x00, 0x90, 0x28, 0x3e, 0x00, 0x90, 0x2d, 0x3e, 0x02, 0x80, 0x3c, 0x00, 0x00, 0x80,
        0x45, 0x00, 0x1e, 0x80, 0x28, 0x00, 0x00, 0x80, 0x2d, 0x00, 0x20, 0x90, 0x28, 0x3d, 0x00, 0x90,
        0x2d, 0x3d, 0x20, 0x80, 0x28, 0x00, 0x00, 0x80, 0x2d, 0x00, 0x20, 0x90, 0x3e, 0x48, 0x00, 0x90,
        0x47, 0x48, 0x00, 0x90, 0x28, 0x40, 0x00, 0x90, 0x2c, 0x40, 0x02, 0x80, 0x40, 0x00, 0x00, 0x80,
        0x48, 0x00, 0x1e, 0x80, 0x28, 0x00, 0x00, 0x80, 0x2c, 0x00, 0x20, 0x90, 0x28, 0x42, 0x00, 0x90,
        0x2c, 0x42, 0x20, 0x80, 0x28, 0x00, 0x00, 0x80, 0x2c, 0x00, 0x20, 0x90, 0x3c, 0x35, 0x00, 0x90,
        0x45, 0x35, 0x00, 0x90, 0x21, 0x3c, 0x00, 0x90, 0x2d, 0x3c, 0x02, 0x80, 0x3e, 0x00, 0x00, 0x80,
        0x47, 0x00, 0x1e, 0x80, 0x21, 0x00, 0x00, 0x80, 0x2d, 0x00, 0x20, 0x90, 0x2d, 0x30, 0x20, 0x80,
        0x2d, 0x00, 0x20, 0x90, 0x2d, 0x37, 0x20, 0x80, 0x2d, 0x00, 0x20, 0x90, 0x2d, 0x35, 0x20, 0x80,
        0x2d, 0x00, 0x20, 0x90, 0x2d, 0x2d, 0x20, 0x80, 0x2d, 0x00, 0x20, 0x90, 0x2d, 0x31, 0x20, 0x80,
        0x2d, 0x00, 0x0c, 0x80, 0x3c, 0x00, 0x00, 0x80, 0x45, 0x00, 0x14, 0x90, 0x40, 0x43, 0x00, 0x90,
        0x43, 0x43, 0x00, 0x90, 0x46, 0x43, 0x00, 0x90, 0x49, 0x43, 0x00, 0x90, 0x2d, 0x39, 0x20, 0x80,
        0x2d, 0x00, 0x20, 0x90, 0x2d, 0x3a, 0x20, 0x80, 0x2d, 0x00, 0x20, 0x90, 0x2d, 0x3a, 0x20, 0x80,
        0x2d, 0x00, 0x20, 0x90, 0x2d, 0x37, 0x20, 0x80, 0x2d, 0x00, 0x20, 0x90, 0x2d, 0x39, 0x20, 0x80,
        0x2d, 0x00, 0x20, 0x90, 0x2d, 0x3b, 0x20, 0x80, 0x2d, 0x00, 0x20, 0x80, 0x40, 0x00, 0x00, 0x80,
        0x43, 0x00, 0x00, 0x80, 0x46, 0x00, 0x00, 0x80, 0x49, 0x00, 0x00, 0x90, 0x41, 0x40, 0x00, 0x90,
        0x45, 0x40, 0x00, 0x90, 0x4a, 0x40, 0x00, 0x90, 0x2d, 0x40, 0x20, 0x80, 0x2d, 0x00, 0x20, 0x90,
        0x2d, 0x3e, 0x20, 0x80, 0x2d, 0x00, 0x20, 0x90, 0x2d, 0x39, 0x20, 0x80, 0x2d, 0x00, 0x20, 0x90,
        0x2d, 0x3f, 0x20, 0x80, 0x2d, 0x00, 0x20, 0x80, 0x41, 0x00, 0x00, 0x80, 0x45, 0x00, 0x00, 0x80,
        0x4a, 0x00, 0x00, 0x90, 0x49, 0x44, 0x00, 0x90, 0x4c, 0x44, 0x00, 0x90, 0x2d, 0x3e, 0x20, 0x80,
        0x2d, 0x00, 0x20, 0x80, 0x49, 0x00, 0x00, 0x80, 0x4c, 0x00, 0x00, 0x90, 0x4a, 0x3e, 0x00, 0x90,
        0x4d, 0x3e, 0x00, 0x90, 0x2d, 0x44, 0x20, 0x80, 0x2d, 0x00, 0x20, 0x80, 0x4a, 0x00, 0x00, 0x80,
        0x4d, 0x00, 0x00, 0x90, 0x4a, 0x5f, 0x00, 0x90, 0x4d, 0x5f, 0x00, 0x90, 0x2d, 0x47, 0x20, 0x80,
        0x2d, 0x00, 0x20, 0x90, 0x2d, 0x47, 0x20, 0x80, 0x2d, 0x00, 0x20, 0x90, 0x2d, 0x45, 0x20, 0x80,
        0x2d, 0x00, 0x20, 0x90, 0x2d, 0x48, 0x20, 0x80, 0x2d, 0x00, 0x20, 0x80, 0x4a, 0x00, 0x00, 0x80,
        0x4d, 0x00, 0x00, 0x90, 0x4a, 0x64, 0x00, 0x90, 0x4d, 0x64, 0x00, 0x90, 0x2d, 0x44, 0x20, 0x80,
        0x2d, 0x00, 0x20, 0x90, 0x2d, 0x46, 0x20, 0x80, 0x2d, 0x00, 0x20, 0x80, 0x4a, 0x00, 0x00, 0x80,
        0x4d, 0x00, 0x00, 0x90, 0x4a, 0x60, 0x00, 0x90, 0x4d, 0x60, 0x00, 0x90, 0x2e, 0x4d, 0x20, 0x80,
        0x2e, 0x00, 0x20, 0x90, 0x2e, 0x45, 0x20, 0x80, 0x2e, 0x00, 0x20, 0x90, 0x2e, 0x45, 0x20, 0x80,
        0x2e, 0x00, 0x20, 0x90, 0x2e, 0x47, 0x20, 0x80, 0x2e, 0x00, 0x20, 0x90, 0x2e, 0x48, 0x20, 0x80,
        0x2e, 0x00, 0x20, 0x90, 0x2e, 0x4b, 0x20, 0x80, 0x2e, 0x00, 0x20, 0x80, 0x4a, 0x00, 0x00, 0x80,
        0x4d, 0x00, 0x00, 0x90, 0x43, 0x53, 0x00, 0x90, 0x4b, 0x53, 0x00, 0x90, 0x2e, 0x3e, 0x20, 0x80,
        0x2e, 0x00, 0x20, 0x90, 0x2e, 0x43, 0x20, 0x80, 0x2e, 0x00, 0x20, 0x90, 0x2e, 0x3e, 0x20, 0x80,
        0x2e, 0x00, 0x20, 0x90, 0x2e, 0x3d, 0x20, 0x80, 0x2e, 0x00, 0x20, 0x80, 0x43, 0x00, 0x00, 0x80,
        0x4b, 0x00, 0x00, 0x90, 0x41, 0x53, 0x00, 0x90, 0x4a, 0x53, 0x00, 0x90, 0x2e, 0x41, 0x20, 0x80,
        0x2e, 0x00, 0x20, 0x80, 0x41, 0x00, 0x00, 0x80, 0x4a, 0x00, 0x00, 0x90, 0x3f, 0x51, 0x00, 0x90,
        0x48, 0x51, 0x00, 0x90, 0x2e, 0x3f, 0x20, 0x80, 0x2e, 0x00, 0x20, 0x80, 0x3f, 0x00, 0x00, 0x80,
        0x48, 0x00, 0x00, 0x90, 0x3e, 0x4a, 0x00, 0x90, 0x41, 0x4a, 0x00, 0x90, 0x46, 0x4a, 0x00, 0x90,
        0x2e, 0x35, 0x20, 0x80, 0x2e, 0x00, 0x20, 0x90, 0x2e, 0x32, 0x20, 0x80, 0x2e, 0x00, 0x20, 0x90,
        0x2e, 0x33, 0x20, 0x80, 0x2e, 0x00, 0x20, 0x90, 0x2e, 0x33, 0x20, 0x80, 0x2e, 0x00, 0x20, 0x80,
        0x3e, 0x00, 0x00, 0x80, 0x41, 0x00, 0x00, 0x80, 0x46, 0x00, 0x00, 0x90, 0x3e, 0x4e, 0x00, 0x90,
        0x41, 0x4e, 0x00, 0x90, 0x45, 0x4e, 0x00, 0x90, 0x2e, 0x3a, 0x20, 0x80, 0x2e, 0x00, 0x20, 0x90,
        0x2e, 0x34, 0x20, 0x80, 0x2e, 0x00, 0x20, 0x80, 0x3e, 0x00, 0x00, 0x80, 0x41, 0x00, 0x00, 0x80,
        0x45, 0x00, 0x00, 0x90, 0x3e, 0x49, 0x00, 0x90, 0x41, 0x49, 0x00, 0x90, 0x44, 0x49, 0x00, 0x90,
        0x2f, 0x37, 0x20, 0x80, 0x2f, 0x00, 0x20, 0x90, 0x2f, 0x33, 0x20, 0x80, 0x2f, 0x00, 0x20, 0x90,
        0x2f, 0x32, 0x20, 0x80, 0x2f, 0x00, 0x20, 0x90, 0x2f, 0x34, 0x20, 0x80, 0x2f, 0x00, 0x20, 0x80,
        0x3e, 0x00, 0x00, 0x80, 0x41, 0x00, 0x00, 0x80, 0x44, 0x00, 0x00, 0x90, 0x3e, 0x4a, 0x00, 0x90,
        0x41, 0x4a, 0x00, 0x90, 0x44, 0x4a, 0x00, 0x90, 0x2f, 0x30, 0x20, 0x80, 0x2f, 0x00, 0x20, 0x90,
        0x2f, 0x36, 0x20, 0x80, 0x2f, 0x00, 0x20, 0x80, 0x3e, 0x00, 0x00, 0x80, 0x41, 0x00, 0x00, 0x80,
        0x44, 0x00, 0x00, 0x90, 0x3c, 0x3c, 0x00, 0x90, 0x40, 0x3c, 0x00, 0x90, 0x45, 0x3c, 0x00, 0x90,
        0x30, 0x3d, 0x82, 0x00, 0x80, 0x3c, 0x00, 0x00, 0x80, 0x40, 0x00, 0x00, 0x80, 0x45, 0x00, 0x00,
        0x80, 0x30, 0x00, 0x81, 0x00, 0x90, 0x3e, 0x32, 0x00, 0x90, 0x40, 0x32, 0x00, 0x90, 0x47, 0x32,
        0x00, 0x90, 0x34, 0x34, 0x00, 0x90, 0x38, 0x34, 0x81, 0x00, 0x80, 0x3e, 0x00, 0x00, 0x80, 0x40,
        0x00, 0x00, 0x80, 0x47, 0x00, 0x00, 0x80, 0x34, 0x00, 0x00, 0x80, 0x38, 0x00, 0x82, 0x00, 0x90,
        0x39, 0x2c, 0x00, 0x90, 0x21, 0x28, 0x2a, 0x80, 0x39, 0x00, 0x00, 0x90, 0x3c, 0x2f, 0x2b, 0x80,
        0x3c, 0x00, 0x00, 0x90, 0x40, 0x2e, 0x2b, 0x80, 0x40, 0x00, 0x00, 0x90, 0x45, 0x34, 0x00, 0x80,
        0x21, 0x00, 0x2a, 0x80, 0x45, 0x00, 0x00, 0x90, 0x48, 0x31, 0x2b, 0x80, 0x48, 0x00, 0x00, 0x90,
        0x4c, 0x32, 0x2b, 0x80, 0x4c, 0x00, 0x00, 0x90, 0x4a, 0x2d, 0x00, 0x90, 0x39, 0x2a, 0x00, 0x90,
        0x3c, 0x2a, 0x00, 0x90, 0x40, 0x2a, 0x2a, 0x80, 0x4a, 0x00, 0x00, 0x90, 0x48, 0x25, 0x16, 0x80,
        0x39, 0x00, 0x00, 0x80, 0x3c, 0x00, 0x00, 0x80, 0x40, 0x00, 0x15, 0x80, 0x48, 0x00, 0x00, 0x90,
        0x47, 0x26, 0x28, 0x80, 0x47, 0x00, 0x03, 0x90, 0x45, 0x27, 0x00, 0x90, 0x39, 0x25, 0x00, 0x90,
        0x3c, 0x25, 0x00, 0x90, 0x40, 0x25, 0x2a, 0x80, 0x45, 0x00, 0x00, 0x90, 0x48, 0x2d, 0x16, 0x80,
        0x39, 0x00, 0x00, 0x80, 0x3c, 0x00, 0x00, 0x80, 0x40, 0x00, 0x15, 0x80, 0x48, 0x00, 0x00, 0x90,
        0x4c, 0x30, 0x2b, 0x80, 0x4c, 0x00, 0x00, 0x90, 0x51, 0x2e, 0x2a, 0x80, 0x51, 0x00, 0x00, 0x90,
        0x54, 0x2c, 0x2b, 0x80, 0x54, 0x00, 0x00, 0x90, 0x58, 0x2c, 0x2b, 0x80, 0x58, 0x00, 0x00, 0x90,
        0x56, 0x2b, 0x00, 0x90, 0x39, 0x27, 0x00, 0x90, 0x3c, 0x27, 0x00, 0x90, 0x40, 0x27, 0x2a, 0x80,
        0x56, 0x00, 0x00, 0x90, 0x54, 0x28, 0x16, 0x80, 0x39, 0x00, 0x00, 0x80, 0x3c, 0x00, 0x00, 0x80,
        0x40, 0x00, 0x15, 0x80, 0x54, 0x00, 0x00, 0x90, 0x53, 0x26, 0x28, 0x80, 0x53, 0x00, 0x03, 0x90,
        0x51, 0x20, 0x00, 0x90, 0x39, 0x31, 0x00, 0x90, 0x3c, 0x31, 0x00, 0x90, 0x40, 0x31, 0x2a, 0x80,
        0x51, 0x00, 0x00, 0x90, 0x54, 0x31, 0x16, 0x80, 0x39, 0x00, 0x00, 0x80, 0x3c, 0x00, 0x00, 0x80,
        0x40, 0x00, 0x15, 0x80, 0x54, 0x00, 0x00, 0x90, 0x58, 0x32, 0x2b, 0x80, 0x58, 0x00, 0x00, 0x90,
        0x5d, 0x31, 0x2a, 0x80, 0x5d, 0x00, 0x00, 0x90, 0x60, 0x30, 0x2b, 0x80, 0x60, 0x00, 0x00, 0x90,
        0x64, 0x2e, 0x2b, 0x80, 0x64, 0x00, 0x00, 0x90, 0x62, 0x2b, 0x00, 0x90, 0x39, 0x26, 0x00, 0x90,
        0x3c, 0x26, 0x00, 0x90, 0x40, 0x26, 0x2a, 0x80, 0x62, 0x00, 0x00, 0x90, 0x60, 0x27, 0x16, 0x80,
        0x39, 0x00, 0x00, 0x80, 0x3c, 0x00, 0x00, 0x80, 0x40, 0x00, 0x15, 0x80, 0x60, 0x00, 0x00, 0x90,
        0x5f, 0x28, 0x2b, 0x80, 0x5f, 0x00, 0x00, 0x90, 0x5e, 0x24, 0x00, 0x90, 0x39, 0x2c, 0x00, 0x90,
        0x3c, 0x2c, 0x00, 0x90, 0x40, 0x2c, 0x2a, 0x80, 0x5e, 0x00, 0x00, 0x90, 0x5d, 0x24, 0x16, 0x80,
        0x39, 0x00, 0x00, 0x80, 0x3c, 0x00, 0x00, 0x80, 0x40, 0x00, 0x15, 0x80, 0x5d, 0x00, 0x00, 0x90,
        0x5c, 0x29, 0x2b, 0x80, 0x5c, 0x00, 0x00, 0x90, 0x5b, 0x29, 0x2a, 0x80, 0x5b, 0x00, 0x00, 0x90,
        0x5a, 0x2a, 0x2b, 0x80, 0x5a, 0x00, 0x00, 0x90, 0x59, 0x28, 0x2b, 0x80, 0x59, 0x00, 0x00, 0x90,
        0x58, 0x29, 0x2a, 0x80, 0x58, 0x00, 0x00, 0x90, 0x57, 0x2c, 0x2b, 0x80, 0x57, 0x00, 0x00, 0x90,
        0x56, 0x2b, 0x2b, 0x80, 0x56, 0x00, 0x00, 0x90, 0x55, 0x35, 0x2a, 0x80, 0x55, 0x00, 0x00, 0x90,
        0x54, 0x2b, 0x2b, 0x80, 0x54, 0x00, 0x00, 0x90, 0x53, 0x28, 0x2b, 0x80, 0x53, 0x00, 0x00, 0x90,
        0x52, 0x26, 0x2a, 0x80, 0x52, 0x00, 0x00, 0x90, 0x51, 0x29, 0x2b, 0x80, 0x51, 0x00, 0x00, 0x90,
        0x50, 0x26, 0x2b, 0x80, 0x50, 0x00, 0x00, 0x90, 0x4f, 0x28, 0x2a, 0x80, 0x4f, 0x00, 0x00, 0x90,
        0x4e, 0x2a, 0x2b, 0x80, 0x4e, 0x00, 0x00, 0x90, 0x4d, 0x2e, 0x2b, 0x80, 0x4d, 0x00, 0x00, 0x90,
        0x4c, 0x26, 0x40, 0x90, 0x4b, 0x26, 0x01, 0x80, 0x4c, 0x00, 0x3f, 0x90, 0x4c, 0x2c, 0x01, 0x80,
        0x4b, 0x00, 0x3f, 0x90, 0x47, 0x28, 0x01, 0x80, 0x4c, 0x00, 0x3f, 0x90, 0x4a, 0x30, 0x01, 0x80,
        0x47, 0x00, 0x3f, 0x90, 0x48, 0x2d, 0x01, 0x80, 0x4a, 0x00, 0x3f, 0x90, 0x45, 0x29, 0x00, 0xb0,
        0x40, 0x7f, 0x00, 0x90, 0x2d, 0x25, 0x01, 0x80, 0x48, 0x00, 0x3f, 0x90, 0x34, 0x2a, 0x01, 0x80,
        0x2d, 0x00, 0x38, 0x80, 0x45, 0x00, 0x07, 0x90, 0x39, 0x2d, 0x01, 0x80, 0x34, 0x00, 0x3b, 0x80,
        0x39, 0x00, 0x04, 0x90, 0x3c, 0x25, 0x40, 0x90, 0x40, 0x29, 0x00, 0xb0, 0x40, 0x00, 0x01, 0x80,
        0x3c, 0x00, 0x3f, 0x90, 0x45, 0x32, 0x01, 0x80, 0x40, 0x00, 0x3f, 0x90, 0x47, 0x3a, 0x00, 0xb0,
        0x40, 0x7f, 0x00, 0x90, 0x28, 0x27, 0x01, 0x80, 0x45, 0x00, 0x3f, 0x90, 0x34, 0x2f, 0x01, 0x80,
        0x28, 0x00, 0x38, 0x80, 0x47, 0x00, 0x07, 0x90, 0x38, 0x2e, 0x01, 0x80, 0x34, 0x00, 0x3b, 0x80,
        0x38, 0x00, 0x04, 0x90, 0x40, 0x26, 0x40, 0x90, 0x44, 0x29, 0x00, 0xb0, 0x40, 0x00, 0x01, 0x80,
        0x40, 0x00, 0x3f, 0x90, 0x47, 0x31, 0x01, 0x80, 0x44, 0x00, 0x3f, 0x90, 0x48, 0x34, 0x00, 0xb0,
        0x40, 0x7f, 0x00, 0x90, 0x2d, 0x27, 0x01, 0x80, 0x47, 0x00, 0x3f, 0x90, 0x34, 0x24, 0x01, 0x80,
        0x2d, 0x00, 0x38, 0x80, 0x48, 0x00, 0x07, 0x90, 0x39, 0x2e, 0x01, 0x80, 0x34, 0x00, 0x3b, 0x80,
        0x39, 0x00, 0x04, 0x90, 0x40, 0x24, 0x40, 0x90, 0x4c, 0x2e, 0x00, 0xb0, 0x40, 0x00, 0x01, 0x80,
        0x40, 0x00, 0x3f, 0x90, 0x4b, 0x2e, 0x01, 0x80, 0x4c, 0x00, 0x3f, 0x90, 0x4c, 0x2f, 0x01, 0x80,
        0x4b, 0x00, 0x3f, 0x90, 0x4b, 0x29, 0x01, 0x80, 0x4c, 0x00, 0x3f, 0x90, 0x4c, 0x29, 0x01, 0x80,
        0x4b, 0x00, 0x3f, 0x90, 0x47, 0x26, 0x01, 0x80, 0x4c, 0x00, 0x3f, 0x90, 0x4a, 0x28, 0x01, 0x80,
        0x47, 0x00, 0x3f, 0x90, 0x48, 0x25, 0x01, 0x80, 0x4a, 0x00, 0x3f, 0x90, 0x45, 0x24, 0x00, 0xb0,
        0x40, 0x7f, 0x00, 0x90, 0x2d, 0x25, 0x01, 0x80, 0x48, 0x00, 0x3f, 0x90, 0x34, 0x23, 0x01, 0x80,
        0x2d, 0x00, 0x38, 0x80, 0x45, 0x00, 0x07, 0x90, 0x39, 0x2e, 0x01, 0x80, 0x34, 0x00, 0x3b, 0x80,
        0x39, 0x00, 0x04, 0x90, 0x3c, 0x28, 0x40, 0x90, 0x40, 0x2b, 0x00, 0xb0, 0x40, 0x00, 0x01, 0x80,
        0x3c, 0x00, 0x3f, 0x90, 0x45, 0x31, 0x01, 0x80, 0x40, 0x00, 0x3f, 0x90, 0x47, 0x36, 0x00, 0xb0,
        0x40, 0x7f, 0x00, 0x90, 0x28, 0x2b, 0x01, 0x80, 0x45, 0x00, 0x3f, 0x90, 0x34, 0x30, 0x01, 0x80,
        0x28, 0x00, 0x38, 0x80, 0x47, 0x00, 0x07, 0x90, 0x38, 0x2d, 0x01, 0x80, 0x34, 0x00, 0x3b, 0x80,
        0x38, 0x00, 0x04, 0x90, 0x3e, 0x24, 0x40, 0x90, 0x48, 0x2b, 0x00, 0xb0, 0x40, 0x00, 0x01, 0x80,
        0x3e, 0x00, 0x3f, 0x90, 0x47, 0x28, 0x01, 0x80, 0x48, 0x00, 0x3f, 0x90, 0x45, 0x26, 0x00, 0xb0,
        0x40, 0x7f, 0x00, 0x90, 0x2d, 0x28, 0x01, 0x80, 0x47, 0x00, 0x3f, 0x90, 0x34, 0x2d, 0x01, 0x80,
        0x2d, 0x00, 0x38, 0x80, 0x45, 0x00, 0x07, 0x90, 0x39, 0x2d, 0x01, 0x80, 0x34, 0x00, 0x3b, 0x80,
        0x39, 0x00, 0x04, 0x90, 0x47, 0x34, 0x40, 0x90, 0x48, 0x52, 0x00, 0xb0, 0x40, 0x00, 0x01, 0x80,
        0x47, 0x00, 0x3f, 0x90, 0x4a, 0x56, 0x01, 0x80, 0x48, 0x00, 0x3f, 0x90, 0x4c, 0x56, 0x00, 0xb0,
        0x40, 0x7f, 0x00, 0x90, 0x30, 0x4c, 0x01, 0x80, 0x4a, 0x00, 0x3f, 0x90, 0x37, 0x58, 0x01, 0x80,
        0x30, 0x00, 0x3f, 0x90, 0x3c, 0x5e, 0x01, 0x80, 0x37, 0x00, 0x35, 0x80, 0x4c, 0x00, 0x06, 0x80,
        0x3c, 0x00, 0x04, 0x90, 0x43, 0x3d, 0x40, 0x90, 0x4d, 0x4b, 0x00, 0xb0, 0x40, 0x00, 0x01, 0x80,
        0x43, 0x00, 0x3f, 0x90, 0x4c, 0x55, 0x01, 0x80, 0x4d, 0x00, 0x3f, 0x90, 0x4a, 0x51, 0x00, 0xb0,
        0x40, 0x7f, 0x00, 0x90, 0x2b, 0x44, 0x01, 0x80, 0x4c, 0x00, 0x3f, 0x90, 0x37, 0x53, 0x01, 0x80,
        0x2b, 0x00, 0x3f, 0x90, 0x3b, 0x5d, 0x01, 0x80, 0x37, 0x00, 0x35, 0x80, 0x4a, 0x00, 0x06, 0x80,
        0x3b, 0x00, 0x04, 0x90, 0x41, 0x40, 0x40, 0x90, 0x4c, 0x4c, 0x00, 0xb0, 0x40, 0x00, 0x01, 0x80,
        0x41, 0x00, 0x3f, 0x90, 0x4a, 0x50, 0x01, 0x80, 0x4c, 0x00, 0x3f, 0x90, 0x48, 0x44, 0x00, 0xb0,
        0x40, 0x7f, 0x00, 0x90, 0x2d, 0x43, 0x01, 0x80, 0x4a, 0x00, 0x3f, 0x90, 0x34, 0x4d, 0x01, 0x80,
        0x2d, 0x00, 0x3f, 0x90, 0x39, 0x50, 0x01, 0x80, 0x34, 0x00, 0x35, 0x80, 0x48, 0x00, 0x06, 0x80,
        0x39, 0x00, 0x04, 0x90, 0x40, 0x37, 0x40, 0x90, 0x4a, 0x46, 0x00, 0xb0, 0x40, 0x00, 0x01, 0x80,
        0x40, 0x00, 0x3f, 0x90, 0x48, 0x46, 0x01, 0x80, 0x4a, 0x00, 0x3f, 0x90, 0x47, 0x33, 0x00, 0x90,
        0x28, 0x36, 0x01, 0x80, 0x48, 0x00, 0x1f, 0x80, 0x28, 0x00, 0x20, 0x90, 0x34, 0x40, 0x39, 0x80,
        0x47, 0x00, 0x07, 0x90, 0x40, 0x52, 0x01, 0x80, 0x34, 0x00, 0x3b, 0x80, 0x40, 0x00, 0x04, 0x90,
        0x40, 0x34, 0x40, 0x90, 0x4c, 0x42, 0x01, 0x80, 0x40, 0x00, 0x3b, 0x80, 0x4c, 0x00, 0x04, 0x90,
        0x40, 0x31, 0x40, 0x90, 0x4c, 0x3c, 0x01, 0x80, 0x40, 0x00, 0x3b, 0x80, 0x4c, 0x00, 0x04, 0x90,
        0x4c, 0x37, 0x40, 0x90, 0x58, 0x40, 0x01, 0x80, 0x4c, 0x00, 0x3b, 0x80, 0x58, 0x00, 0x04, 0x90,
        0x4b, 0x34, 0x40, 0x90, 0x4c, 0x37, 0x01, 0x80, 0x4b, 0x00, 0x3b, 0x80, 0x4c, 0x00, 0x04, 0x90,
        0x4b, 0x2c, 0x40, 0x90, 0x4c, 0x2b, 0x01, 0x80, 0x4b, 0x00, 0x3b, 0x80, 0x4c, 0x00, 0x04, 0x90,
        0x4b, 0x2a, 0x40, 0x90, 0x4c, 0x32, 0x01, 0x80, 0x4b, 0x00, 0x3b, 0x80, 0x4c, 0x00, 0x04, 0x90,
        0x4b, 0x26, 0x40, 0x90, 0x4c, 0x2a, 0x01, 0x80, 0x4b, 0x00, 0x3f, 0x90, 0x4b, 0x2d, 0x01, 0x80,
        0x4c, 0x00, 0x3f, 0x90, 0x4c, 0x33, 0x01, 0x80, 0x4b, 0x00, 0x3f, 0x90, 0x4b, 0x2d, 0x01, 0x80,
        0x4c, 0x00, 0x3f, 0x90, 0x4c, 0x34, 0x01, 0x80, 0x4b, 0x00, 0x3f, 0x90, 0x47, 0x25, 0x01, 0x80,
        0x4c, 0x00, 0x3f, 0x90, 0x4a, 0x26, 0x01, 0x80, 0x47, 0x00, 0x3f, 0x90, 0x48, 0x29, 0x01, 0x80,
        0x4a, 0x00, 0x3f, 0x90, 0x45, 0x24, 0x00, 0xb0, 0x40, 0x7f, 0x00, 0x90, 0x2d, 0x24, 0x01, 0x80,
        0x48, 0x00, 0x3f, 0x90, 0x34, 0x27, 0x01, 0x80, 0x2d, 0x00, 0x38, 0x80, 0x45, 0x00, 0x07, 0x90,
        0x39, 0x2e, 0x01, 0x80, 0x34, 0x00, 0x3b, 0x80, 0x39, 0x00, 0x04, 0x90, 0x3c, 0x25, 0x40, 0x90,
        0x40, 0x28, 0x00, 0xb0, 0x40, 0x00, 0x01, 0x80, 0x3c, 0x00, 0x3f, 0x90, 0x45, 0x30, 0x01, 0x80,
        0x40, 0x00, 0x3f, 0x90, 0x47, 0x32, 0x00, 0xb0, 0x40, 0x7f, 0x00, 0x90, 0x28, 0x25, 0x01, 0x80,
        0x45, 0x00, 0x3f, 0x90, 0x34, 0x26, 0x01, 0x80, 0x28, 0x00, 0x38, 0x80, 0x47, 0x00, 0x07, 0x90,
        0x38, 0x2f, 0x01, 0x80, 0x34, 0x00, 0x3b, 0x80, 0x38, 0x00, 0x04, 0x90, 0x40, 0x27, 0x40, 0x90,
        0x44, 0x2b, 0x00, 0xb0, 0x40, 0x00, 0x01, 0x80, 0x40, 0x00, 0x3f, 0x90, 0x47, 0x30, 0x01, 0x80,
        0x44, 0x00, 0x3f, 0x90, 0x48, 0x31, 0x00, 0x90, 0x2d, 0x2c, 0x01, 0x80, 0x47, 0x00, 0x1d, 0xb0,
        0x40, 0x7f, 0x22, 0x90, 0x34, 0x32, 0x01, 0x80, 0x2d, 0x00, 0x38, 0x80, 0x48, 0x00, 0x07, 0x90,
        0x39, 0x2b, 0x01, 0x80, 0x34, 0x00, 0x3b, 0x80, 0x39, 0x00, 0x04, 0x90, 0x40, 0x27, 0x40, 0x90,
        0x4c, 0x2e, 0x00, 0xb0, 0x40, 0x00, 0x01, 0x80, 0x40, 0x00, 0x3f, 0x90, 0x4b, 0x2b, 0x01, 0x80,
        0x4c, 0x00, 0x3f, 0x90, 0x4c, 0x2c, 0x01, 0x80, 0x4b, 0x00, 0x3f, 0x90, 0x4b, 0x29, 0x01, 0x80,
        0x4c, 0x00, 0x3f, 0x90, 0x4c, 0x31, 0x01, 0x80, 0x4b, 0x00, 0x3f, 0x90, 0x47, 0x2a, 0x01, 0x80,
        0x4c, 0x00, 0x3f, 0x90, 0x4a, 0x30, 0x01, 0x80, 0x47, 0x00, 0x3f, 0x90, 0x48, 0x2c, 0x01, 0x80,
        0x4a, 0x00, 0x3f, 0x90, 0x45, 0x2b, 0x00, 0xb0, 0x40, 0x7f, 0x00, 0x90, 0x2d, 0x26, 0x01, 0x80,
        0x48, 0x00, 0x3f, 0x90, 0x34, 0x2a, 0x01, 0x80, 0x2d, 0x00, 0x38, 0x80, 0x45, 0x00, 0x07, 0x90,
        0x39, 0x2f, 0x01, 0x80, 0x34, 0x00, 0x3b, 0x80, 0x39, 0x00, 0x04, 0x90, 0x3c, 0x2a, 0x40, 0x90,
        0x40, 0x2c, 0x00, 0xb0, 0x40, 0x00, 0x01, 0x80, 0x3c, 0x00, 0x3f, 0x90, 0x45, 0x2e, 0x01, 0x80,
        0x40, 0x00, 0x3f, 0x90, 0x47, 0x2c, 0x00, 0xb0, 0x40, 0x7f, 0x00, 0x90, 0x28, 0x2a, 0x01, 0x80,
        0x45, 0x00, 0x3f, 0x90, 0x34, 0x2e, 0x01, 0x80, 0x28, 0x00, 0x38, 0x80, 0x47, 0x00, 0x07, 0x90,
        0x38, 0x2d, 0x01, 0x80, 0x34, 0x00, 0x3b, 0x80, 0x38, 0x00, 0x04, 0x90, 0x40, 0x26, 0x40, 0x90,
        0x48, 0x2f, 0x00, 0xb0, 0x40, 0x00, 0x01, 0x80, 0x40, 0x00, 0x3f, 0x90, 0x47, 0x28, 0x01, 0x80,
        0x48, 0x00, 0x3f, 0x90, 0x45, 0x26, 0x00, 0x90, 0x21, 0x2c, 0x00, 0x90, 0x2d, 0x2c, 0x01, 0x80,
        0x47, 0x00, 0x81, 0x72, 0x80, 0x45, 0x00, 0x0d, 0x80, 0x21, 0x00, 0x00, 0x80, 0x2d, 0x00, 0x01,
        0xff, 0x2f, 0x00
};