// array size is 914
static const char bytes[]  = {
  0x4d, 0x54, 0x68, 0x64, 0x00, 0x00, 0x00, 0x06, 0x00, 0x01, 0x00, 0x02, 0x03, 0xc0, 0x4d, 0x54, 
  0x72, 0x6b, 0x00, 0x00, 0x00, 0x3d, 0x00, 0xff, 0x58, 0x04, 0x04, 0x02, 0x18, 0x08, 0x00, 0xff, 
  0x59, 0x02, 0x00, 0x00, 0x00, 0xff, 0x03, 0x0f, 0x54, 0x68, 0x65, 0x20, 0x45, 0x6e, 0x74, 0x65, 
  0x72, 0x74, 0x61, 0x69, 0x6e, 0x65, 0x72, 0x00, 0xff, 0x01, 0x0c, 0x53, 0x63, 0x6f, 0x74, 0x74, 
  0x20, 0x4a, 0x6f, 0x70, 0x6c, 0x69, 0x6e, 0x96, 0x40, 0xff, 0x51, 0x03, 0x05, 0xb8, 0xd8, 0x01, 
  0xff, 0x2f, 0x00, 0x4d, 0x54, 0x72, 0x6b, 0x00, 0x00, 0x03, 0x37, 0x96, 0x40, 0xc0, 0x00, 0x00, 
  0xb0, 0x79, 0x00, 0x00, 0xb0, 0x40, 0x00, 0x00, 0xb0, 0x5b, 0x30, 0x00, 0xb0, 0x0a, 0x40, 0x00, 
  0xb0, 0x07, 0x64, 0x00, 0xc1, 0x00, 0x00, 0xb1, 0x79, 0x00, 0x00, 0xb1, 0x40, 0x00, 0x00, 0xb1, 
  0x5b, 0x30, 0x00, 0xb1, 0x0a, 0x40, 0x00, 0xb1, 0x07, 0x64, 0x00, 0xff, 0x03, 0x01, 0x20, 0x00, 
  0x91, 0x3e, 0x45, 0x83, 0x60, 0x91, 0x3f, 0x45, 0x08, 0x81, 0x3e, 0x00, 0x83, 0x3e, 0x81, 0x3f, 
  0x00, 0x1a, 0x91, 0x40, 0x4f, 0x83, 0x60, 0x90, 0x48, 0x2a, 0x00, 0x81, 0x40, 0x00, 0x87, 0x40, 
  0x80, 0x48, 0x00, 0x00, 0x91, 0x40, 0x47, 0x83, 0x60, 0x90, 0x48, 0x2d, 0x00, 0x81, 0x40, 0x00, 
  0x87, 0x40, 0x80, 0x48, 0x00, 0x00, 0x91, 0x40, 0x48, 0x83, 0x60, 0x90, 0x48, 0x2b, 0x00, 0x81, 
  0x40, 0x00, 0x95, 0x2e, 0x80, 0x48, 0x00, 0x81, 0x12, 0x90, 0x48, 0x30, 0x83, 0x60, 0x90, 0x4a, 
  0x4e, 0x08, 0x80, 0x48, 0x00, 0x83, 0x58, 0x90, 0x4b, 0x6d, 0x08, 0x80, 0x4a, 0x00, 0x83, 0x58, 
  0x90, 0x4c, 0x66, 0x08, 0x80, 0x4b, 0x00, 0x83, 0x58, 0x90, 0x48, 0x5c, 0x08, 0x80, 0x4c, 0x00, 
  0x83, 0x58, 0x90, 0x4a, 0x64, 0x08, 0x80, 0x48, 0x00, 0x83, 0x58, 0x90, 0x4c, 0x6d, 0x08, 0x80, 
  0x4a, 0x00, 0x87, 0x38, 0x90, 0x47, 0x54, 0x13, 0x80, 0x4c, 0x00, 0x83, 0x4d, 0x90, 0x4a, 0x5a, 
  0x08, 0x80, 0x47, 0x00, 0x87, 0x38, 0x90, 0x48, 0x59, 0x13, 0x80, 0x4a, 0x00, 0x95, 0x1b, 0x80, 
  0x48, 0x00, 0x81, 0x12, 0x91, 0x3e, 0x43, 0x83, 0x60, 0x91, 0x3f, 0x45, 0x08, 0x81, 0x3e, 0x00, 
  0x83, 0x3e, 0x81, 0x3f, 0x00, 0x1a, 0x91, 0x40, 0x54, 0x83, 0x60, 0x90, 0x48, 0x2c, 0x00, 0x81, 
  0x40, 0x00, 0x87, 0x40, 0x80, 0x48, 0x00, 0x00, 0x91, 0x40, 0x43, 0x83, 0x60, 0x90, 0x48, 0x2b, 
  0x00, 0x81, 0x40, 0x00, 0x87, 0x40, 0x80, 0x48, 0x00, 0x00, 0x91, 0x40, 0x42, 0x83, 0x60, 0x90, 
  0x48, 0x2e, 0x00, 0x81, 0x40, 0x00, 0x98, 0x77, 0x80, 0x48, 0x00, 0x81, 0x29, 0x91, 0x45, 0x44, 
  0x83, 0x60, 0x91, 0x43, 0x63, 0x08, 0x81, 0x45, 0x00, 0x83, 0x3e, 0x81, 0x43, 0x00, 0x1a, 0x91, 
  0x42, 0x61, 0x83, 0x60, 0x91, 0x45, 0x6a, 0x08, 0x81, 0x42, 0x00, 0x83, 0x58, 0x90, 0x48, 0x58, 
  0x08, 0x81, 0x45, 0x00, 0x83, 0x58, 0x80, 0x48, 0x00, 0x00, 0x90, 0x4c, 0x6a, 0x87, 0x40, 0x80, 
  0x4c, 0x00, 0x00, 0x90, 0x4a, 0x5d, 0x83, 0x60, 0x80, 0x4a, 0x00, 0x00, 0x90, 0x48, 0x5c, 0x83, 
  0x60, 0x80, 0x48, 0x00, 0x00, 0x90, 0x45, 0x5a, 0x83, 0x60, 0x80, 0x45, 0x00, 0x00, 0x90, 0x4a, 
  0x6f, 0x96, 0x40, 0x80, 0x4a, 0x00, 0x00, 0x91, 0x3e, 0x5b, 0x83, 0x4d, 0x81, 0x3e, 0x00, 0x13, 
  0x91, 0x3f, 0x67, 0x83, 0x46, 0x81, 0x3f, 0x00, 0x1a, 0x91, 0x40, 0x68, 0x83, 0x60, 0x90, 0x48, 
  0x27, 0x00, 0x81, 0x40, 0x00, 0x87, 0x40, 0x80, 0x48, 0x00, 0x00, 0x91, 0x40, 0x5e, 0x83, 0x60, 
  0x90, 0x48, 0x2d, 0x00, 0x81, 0x40, 0x00, 0x87, 0x40, 0x80, 0x48, 0x00, 0x00, 0x91, 0x40, 0x5a, 
  0x83, 0x60, 0x90, 0x48, 0x2c, 0x00, 0x81, 0x40, 0x00, 0x95, 0x2e, 0x80, 0x48, 0x00, 0x81, 0x12, 
  0x90, 0x48, 0x32, 0x83, 0x60, 0x90, 0x4a, 0x4e, 0x08, 0x80, 0x48, 0x00, 0x83, 0x58, 0x90, 0x4b, 
  0x6e, 0x08, 0x80, 0x4a, 0x00, 0x83, 0x58, 0x90, 0x4c, 0x66, 0x08, 0x80, 0x4b, 0x00, 0x83, 0x58, 
  0x90, 0x48, 0x5e, 0x08, 0x80, 0x4c, 0x00, 0x83, 0x58, 0x90, 0x4a, 0x67, 0x08, 0x80, 0x48, 0x00, 
  0x83, 0x58, 0x90, 0x4c, 0x70, 0x08, 0x80, 0x4a, 0x00, 0x87, 0x38, 0x90, 0x47, 0x51, 0x13, 0x80, 
  0x4c, 0x00, 0x83, 0x4d, 0x90, 0x4a, 0x52, 0x08, 0x80, 0x47, 0x00, 0x87, 0x38, 0x90, 0x48, 0x58, 
  0x13, 0x80, 0x4a, 0x00, 0x95, 0x1b, 0x80, 0x48, 0x00, 0x81, 0x12, 0x90, 0x48, 0x5e, 0x83, 0x60, 
  0x90, 0x4a, 0x66, 0x08, 0x80, 0x48, 0x00, 0x83, 0x58, 0x90, 0x4c, 0x6b, 0x00, 0x91, 0x3c, 0x5e, 
  0x08, 0x80, 0x4a, 0x00, 0x83, 0x58, 0x90, 0x48, 0x5e, 0x08, 0x80, 0x4c, 0x00, 0x83, 0x58, 0x90, 
  0x4a, 0x66, 0x08, 0x80, 0x48, 0x00, 0x83, 0x58, 0x90, 0x4c, 0x6c, 0x08, 0x80, 0x4a, 0x00, 0x83, 
  0x58, 0x81, 0x3c, 0x00, 0x00, 0x91, 0x3a, 0x5f, 0x83, 0x2f, 0x80, 0x4c, 0x00, 0x31, 0x90, 0x48, 
  0x55, 0x83, 0x60, 0x90, 0x4a, 0x5f, 0x08, 0x80, 0x48, 0x00, 0x83, 0x58, 0x90, 0x48, 0x5a, 0x08, 
  0x80, 0x4a, 0x00, 0x83, 0x58, 0x90, 0x4c, 0x61, 0x00, 0x81, 0x3a, 0x00, 0x00, 0x91, 0x39, 0x5f, 
  0x08, 0x80, 0x48, 0x00, 0x83, 0x58, 0x90, 0x48, 0x56, 0x08, 0x80, 0x4c, 0x00, 0x83, 0x58, 0x90, 
  0x4a, 0x59, 0x08, 0x80, 0x48, 0x00, 0x83, 0x58, 0x90, 0x4c, 0x6a, 0x08, 0x80, 0x4a, 0x00, 0x83, 
  0x58, 0x81, 0x39, 0x00, 0x00, 0x91, 0x38, 0x68, 0x83, 0x2f, 0x80, 0x4c, 0x00, 0x31, 0x90, 0x48, 
  0x5a, 0x83, 0x60, 0x90, 0x4a, 0x5b, 0x08, 0x80, 0x48, 0x00, 0x83, 0x58, 0x90, 0x48, 0x59, 0x08, 
  0x80, 0x4a, 0x00, 0x83, 0x3e, 0x80, 0x48, 0x00, 0x1a, 0x90, 0x4c, 0x6f, 0x00, 0x81, 0x38, 0x00, 
  0x00, 0x91, 0x37, 0x64, 0x83, 0x60, 0x90, 0x48, 0x63, 0x08, 0x80, 0x4c, 0x00, 0x83, 0x58, 0x90, 
  0x4a, 0x65, 0x08, 0x80, 0x48, 0x00, 0x83, 0x58, 0x90, 0x4c, 0x6b, 0x08, 0x80, 0x4a, 0x00, 0x87, 
  0x38, 0x90, 0x47, 0x53, 0x13, 0x80, 0x4c, 0x00, 0x83, 0x4d, 0x90, 0x4a, 0x56, 0x08, 0x80, 0x47, 
  0x00, 0x87, 0x38, 0x90, 0x48, 0x5b, 0x00, 0x81, 0x37, 0x00, 0x00, 0x91, 0x3c, 0x6f, 0x13, 0x80, 
  0x4a, 0x00, 0x87, 0x2d, 0x81, 0x3c, 0x00, 0x00, 0x91, 0x37, 0x5e, 0x87, 0x40, 0x81, 0x37, 0x00, 
  0x00, 0x91, 0x30, 0x5e, 0x86, 0x2e, 0x80, 0x48, 0x00, 0x81, 0x12, 0x81, 0x30, 0x00, 0x01, 0xff, 
  0x2f, 0x00
};