// array size is 3605
static const char bytes[]  = {
  0x4d, 0x54, 0x68, 0x64, 0x00, 0x00, 0x00, 0x06, 0x00, 0x01, 0x00, 0x02, 0x01, 0xe0, 0x4d, 0x54, 
  0x72, 0x6b, 0x00, 0x00, 0x07, 0x2d, 0x00, 0xff, 0x58, 0x04, 0x04, 0x02, 0x18, 0x08, 0x00, 0xff, 
  0x59, 0x02, 0x01, 0x00, 0x00, 0xff, 0x51, 0x03, 0x0b, 0x2a, 0x3a, 0x00, 0xb0, 0x79, 0x00, 0x00, 
  0xc0, 0x00, 0x00, 0xb0, 0x07, 0x64, 0x00, 0x0a, 0x40, 0x00, 0x5b, 0x00, 0x00, 0x5d, 0x00, 0x00, 
  0xff, 0x21, 0x01, 0x00, 0x00, 0x90, 0x4c, 0x31, 0x87, 0x0f, 0x4c, 0x00, 0x31, 0x53, 0x31, 0x87, 
  0x0f, 0x53, 0x00, 0x31, 0x53, 0x31, 0x8a, 0x57, 0x53, 0x00, 0x49, 0x51, 0x31, 0x81, 0x63, 0x51, 
  0x00, 0x0d, 0x4a, 0x31, 0x81, 0x63, 0x4a, 0x00, 0x0d, 0x4f, 0x31, 0x87, 0x0f, 0x4f, 0x00, 0x31, 
  0x4e, 0x31, 0x87, 0x0f, 0x4e, 0x00, 0x31, 0x48, 0x31, 0x00, 0x4c, 0x31, 0x87, 0x0f, 0x48, 0x00, 
  0x00, 0x4c, 0x00, 0x31, 0x4a, 0x31, 0x00, 0x4e, 0x31, 0x87, 0x0f, 0x4a, 0x00, 0x00, 0x4e, 0x00, 
  0x31, 0x4c, 0x31, 0x83, 0x47, 0x4c, 0x00, 0x19, 0x47, 0x31, 0x83, 0x47, 0x47, 0x00, 0x19, 0x4c, 
  0x31, 0x00, 0x53, 0x31, 0x87, 0x0f, 0x4c, 0x00, 0x00, 0x53, 0x00, 0x31, 0x56, 0x31, 0x8a, 0x57, 
  0x56, 0x00, 0x49, 0x53, 0x31, 0x81, 0x63, 0x53, 0x00, 0x0d, 0x4f, 0x31, 0x81, 0x63, 0x4f, 0x00, 
  0x0d, 0x51, 0x31, 0x83, 0x47, 0x51, 0x00, 0x19, 0x4a, 0x31, 0x83, 0x47, 0x4a, 0x00, 0x19, 0x4f, 
  0x31, 0x83, 0x47, 0x4f, 0x00, 0x19, 0x4e, 0x31, 0x83, 0x47, 0x4e, 0x00, 0x19, 0x48, 0x31, 0x00, 
  0x4c, 0x31, 0x87, 0x0f, 0x48, 0x00, 0x00, 0x4c, 0x00, 0x31, 0x4a, 0x38, 0x00, 0x4e, 0x38, 0x87, 
  0x0f, 0x4a, 0x00, 0x00, 0x4e, 0x00, 0x31, 0xff, 0x51, 0x03, 0x0a, 0xe6, 0x2e, 0x00, 0x90, 0x4c, 
  0x40, 0x87, 0x0f, 0x4c, 0x00, 0x31, 0x53, 0x40, 0x87, 0x0f, 0x53, 0x00, 0x31, 0x53, 0x40, 0x8a, 
  0x57, 0x53, 0x00, 0x49, 0x51, 0x40, 0x81, 0x63, 0x51, 0x00, 0x0d, 0x4a, 0x40, 0x81, 0x63, 0x4a, 
  0x00, 0x0d, 0x4f, 0x40, 0x87, 0x0f, 0x4f, 0x00, 0x31, 0x4e, 0x40, 0x87, 0x0f, 0x4e, 0x00, 0x31, 
  0x4c, 0x40, 0x87, 0x0f, 0x4c, 0x00, 0x31, 0x4e, 0x40, 0x87, 0x0f, 0x4e, 0x00, 0x31, 0xff, 0x51, 
  0x03, 0x0a, 0xa5, 0x4c, 0x00, 0x90, 0x4c, 0x40, 0x87, 0x0f, 0x4c, 0x00, 0x31, 0x53, 0x40, 0x87, 
  0x0f, 0x53, 0x00, 0x31, 0x56, 0x40, 0x8a, 0x57, 0x56, 0x00, 0x49, 0x53, 0x40, 0x81, 0x63, 0x53, 
  0x00, 0x0d, 0x4f, 0x40, 0x81, 0x63, 0x4f, 0x00, 0x0d, 0x51, 0x40, 0x83, 0x47, 0x51, 0x00, 0x19, 
  0x4a, 0x40, 0x83, 0x47, 0x4a, 0x00, 0x19, 0x4f, 0x40, 0x83, 0x47, 0x4f, 0x00, 0x19, 0x4e, 0x40, 
  0x83, 0x47, 0x4e, 0x00, 0x19, 0x43, 0x40, 0x00, 0x48, 0x40, 0x00, 0x4c, 0x40, 0x87, 0x0f, 0x43, 
  0x00, 0x00, 0x48, 0x00, 0x00, 0x4c, 0x00, 0x31, 0xff, 0x51, 0x03, 0x0a, 0x67, 0x59, 0x00, 0x90, 
  0x45, 0x48, 0x00, 0x4a, 0x48, 0x00, 0x4e, 0x48, 0x87, 0x0f, 0x45, 0x00, 0x00, 0x4a, 0x00, 0x00, 
  0x4e, 0x00, 0x31, 0xff, 0x51, 0x03, 0x0a, 0x2c, 0x2b, 0x00, 0x90, 0x4c, 0x50, 0x85, 0x2b, 0x4c, 
  0x00, 0x25, 0x4e, 0x50, 0x81, 0x63, 0x4e, 0x00, 0x0d, 0x4f, 0x50, 0x83, 0x47, 0x4f, 0x00, 0x19, 
  0x4e, 0x50, 0x81, 0x63, 0x4e, 0x00, 0x0d, 0x4c, 0x50, 0x81, 0x63, 0x4c, 0x00, 0x0d, 0x4a, 0x50, 
  0x83, 0x47, 0x4a, 0x00, 0x19, 0x56, 0x50, 0x83, 0x47, 0x56, 0x00, 0x19, 0x53, 0x50, 0x83, 0x47, 
  0x53, 0x00, 0x19, 0x51, 0x50, 0x81, 0x63, 0x51, 0x00, 0x0d, 0x4f, 0x50, 0x81, 0x63, 0x4f, 0x00, 
  0x0d, 0x51, 0x50, 0x85, 0x2b, 0x51, 0x00, 0x25, 0x53, 0x50, 0x81, 0x63, 0x53, 0x00, 0x0d, 0x51, 
  0x50, 0x83, 0x47, 0x51, 0x00, 0x19, 0x4f, 0x50, 0x81, 0x63, 0x4f, 0x00, 0x0d, 0x4e, 0x50, 0x81, 
  0x63, 0x4e, 0x00, 0x0d, 0x43, 0x50, 0x00, 0x48, 0x50, 0x00, 0x4c, 0x50, 0x87, 0x0f, 0x43, 0x00, 
  0x00, 0x48, 0x00, 0x00, 0x4c, 0x00, 0x31, 0x45, 0x50, 0x00, 0x4a, 0x50, 0x00, 0x4e, 0x50, 0x87, 
  0x0f, 0x45, 0x00, 0x00, 0x4a, 0x00, 0x00, 0x4e, 0x00, 0x31, 0xff, 0x51, 0x03, 0x09, 0xf3, 0x8f, 
  0x00, 0x90, 0x4c, 0x50, 0x85, 0x2b, 0x4c, 0x00, 0x25, 0x4e, 0x50, 0x81, 0x63, 0x4e, 0x00, 0x0d, 
  0x4f, 0x50, 0x83, 0x47, 0x4f, 0x00, 0x19, 0x4e, 0x50, 0x81, 0x63, 0x4e, 0x00, 0x0d, 0x4c, 0x50, 
  0x81, 0x63, 0x4c, 0x00, 0x0d, 0x43, 0x50, 0x00, 0x47, 0x50, 0x00, 0x4a, 0x50, 0x83, 0x47, 0x43, 
  0x00, 0x00, 0x47, 0x00, 0x00, 0x4a, 0x00, 0x19, 0x53, 0x50, 0x00, 0x56, 0x50, 0x83, 0x47, 0x53, 
  0x00, 0x00, 0x56, 0x00, 0x19, 0x4f, 0x50, 0x00, 0x53, 0x50, 0x83, 0x47, 0x4f, 0x00, 0x00, 0x53, 
  0x00, 0x19, 0x51, 0x50, 0x81, 0x63, 0x51, 0x00, 0x0d, 0x4f, 0x50, 0x81, 0x63, 0x4f, 0x00, 0x0d, 
  0x51, 0x50, 0x83, 0x47, 0x51, 0x00, 0x82, 0x09, 0x53, 0x50, 0x81, 0x63, 0x53, 0x00, 0x0d, 0x51, 
  0x50, 0x37, 0x51, 0x00, 0x05, 0x53, 0x50, 0x37, 0x53, 0x00, 0x05, 0x51, 0x50, 0x82, 0x54, 0x51, 
  0x00, 0x14, 0x4f, 0x50, 0x81, 0x63, 0x4f, 0x00, 0x0d, 0x4e, 0x50, 0x81, 0x63, 0x4e, 0x00, 0x0d, 
  0x43, 0x50, 0x00, 0x48, 0x50, 0x00, 0x4c, 0x50, 0x85, 0x2b, 0x43, 0x00, 0x00, 0x48, 0x00, 0x00, 
  0x4c, 0x00, 0x25, 0x4e, 0x56, 0x71, 0x4e, 0x00, 0x07, 0x4f, 0x57, 0x71, 0x4f, 0x00, 0x07, 0x4e, 
  0x58, 0x83, 0x47, 0x4e, 0x00, 0x19, 0x4a, 0x5c, 0x83, 0x47, 0x4a, 0x00, 0x19, 0xff, 0x51, 0x03, 
  0x09, 0xbd, 0x59, 0x00, 0x90, 0x43, 0x60, 0x00, 0x47, 0x60, 0x00, 0x4c, 0x60, 0x85, 0x2b, 0x43, 
  0x00, 0x00, 0x47, 0x00, 0x00, 0x4c, 0x00, 0x25, 0x4e, 0x60, 0x81, 0x63, 0x4e, 0x00, 0x0d, 0x4f, 
  0x60, 0x83, 0x47, 0x4f, 0x00, 0x19, 0x4e, 0x60, 0x81, 0x63, 0x4e, 0x00, 0x0d, 0x4c, 0x60, 0x81, 
  0x63, 0x4c, 0x00, 0x0d, 0x43, 0x60, 0x00, 0x47, 0x60, 0x00, 0x4a, 0x60, 0x83, 0x47, 0x43, 0x00, 
  0x00, 0x47, 0x00, 0x00, 0x4a, 0x00, 0x19, 0x53, 0x60, 0x00, 0x56, 0x60, 0x83, 0x47, 0x53, 0x00, 
  0x00, 0x56, 0x00, 0x19, 0x53, 0x60, 0x83, 0x47, 0x53, 0x00, 0x19, 0x51, 0x60, 0x81, 0x63, 0x51, 
  0x00, 0x0d, 0x4f, 0x60, 0x81, 0x63, 0x4f, 0x00, 0x0d, 0x4e, 0x60, 0x00, 0x51, 0x60, 0x85, 0x2b, 
  0x4e, 0x00, 0x00, 0x51, 0x00, 0x25, 0x53, 0x60, 0x81, 0x63, 0x53, 0x00, 0x0d, 0x51, 0x60, 0x83, 
  0x47, 0x51, 0x00, 0x19, 0x4f, 0x60, 0x81, 0x63, 0x4f, 0x00, 0x0d, 0x4e, 0x60, 0x81, 0x63, 0x4e, 
  0x00, 0x0d, 0x43, 0x60, 0x00, 0x48, 0x60, 0x00, 0x4c, 0x60, 0x87, 0x0f, 0x43, 0x00, 0x00, 0x48, 
  0x00, 0x00, 0x4c, 0x00, 0x31, 0x45, 0x60, 0x00, 0x4a, 0x60, 0x00, 0x4e, 0x60, 0x87, 0x0f, 0x45, 
  0x00, 0x00, 0x4a, 0x00, 0x00, 0x4e, 0x00, 0x31, 0xff, 0x51, 0x03, 0x09, 0x89, 0x68, 0x00, 0x90, 
  0x43, 0x60, 0x00, 0x47, 0x60, 0x00, 0x4c, 0x60, 0x85, 0x2b, 0x43, 0x00, 0x00, 0x47, 0x00, 0x00, 
  0x4c, 0x00, 0x25, 0x4e, 0x60, 0x81, 0x63, 0x4e, 0x00, 0x0d, 0x4f, 0x60, 0x83, 0x47, 0x4f, 0x00, 
  0x19, 0x4e, 0x60, 0x81, 0x63, 0x4e, 0x00, 0x0d, 0x4c, 0x60, 0x81, 0x63, 0x4c, 0x00, 0x0d, 0x47, 
  0x60, 0x00, 0x4a, 0x60, 0x81, 0x63, 0x47, 0x00, 0x00, 0x4a, 0x00, 0x0d, 0x43, 0x60, 0x00, 0x47, 
  0x60, 0x81, 0x63, 0x43, 0x00, 0x00, 0x47, 0x00, 0x0d, 0x53, 0x60, 0x00, 0x56, 0x60, 0x83, 0x47, 
  0x53, 0x00, 0x00, 0x56, 0x00, 0x19, 0x4f, 0x60, 0x00, 0x53, 0x60, 0x83, 0x47, 0x4f, 0x00, 0x00, 
  0x53, 0x00, 0x19, 0x51, 0x60, 0x81, 0x63, 0x51, 0x00, 0x0d, 0x4f, 0x60, 0x81, 0x63, 0x4f, 0x00, 
  0x0d, 0x4a, 0x60, 0x00, 0x4e, 0x60, 0x00, 0x51, 0x60, 0x83, 0x47, 0x4a, 0x00, 0x00, 0x4e, 0x00, 
  0x00, 0x51, 0x00, 0x82, 0x09, 0x53, 0x60, 0x81, 0x63, 0x53, 0x00, 0x0d, 0x51, 0x60, 0x37, 0x51, 
  0x00, 0x05, 0x53, 0x60, 0x37, 0x53, 0x00, 0x05, 0x51, 0x60, 0x82, 0x54, 0x51, 0x00, 0x14, 0x4f, 
  0x60, 0x81, 0x63, 0x4f, 0x00, 0x0d, 0x4e, 0x60, 0x81, 0x63, 0x4e, 0x00, 0x0d, 0x43, 0x60, 0x00, 
  0x48, 0x60, 0x00, 0x4c, 0x60, 0x85, 0x2b, 0x43, 0x00, 0x00, 0x48, 0x00, 0x00, 0x4c, 0x00, 0x25, 
  0x4e, 0x60, 0x71, 0x4e, 0x00, 0x07, 0x4f, 0x60, 0x71, 0x4f, 0x00, 0x07, 0x45, 0x60, 0x00, 0x4a, 
  0x60, 0x00, 0x4e, 0x60, 0x83, 0x47, 0x45, 0x00, 0x00, 0x4a, 0x00, 0x00, 0x4e, 0x00, 0x19, 0x45, 
  0x60, 0x00, 0x4a, 0x60, 0x83, 0x47, 0x45, 0x00, 0x00, 0x4a, 0x00, 0x19, 0xff, 0x51, 0x03, 0x09, 
  0x27, 0xbf, 0x00, 0x90, 0x4c, 0x50, 0x81, 0x63, 0x4c, 0x00, 0x0d, 0x4e, 0x50, 0x71, 0x4e, 0x00, 
  0x07, 0x4c, 0x50, 0x71, 0x4c, 0x00, 0x07, 0x4a, 0x50, 0x81, 0x63, 0x4a, 0x00, 0x0d, 0x47, 0x50, 
  0x81, 0x63, 0x47, 0x00, 0x0d, 0x45, 0x50, 0x81, 0x63, 0x45, 0x00, 0x0d, 0x47, 0x50, 0x71, 0x47, 
  0x00, 0x07, 0x4a, 0x50, 0x71, 0x4a, 0x00, 0x07, 0x4c, 0x50, 0x81, 0x63, 0x4c, 0x00, 0x0d, 0x4a, 
  0x50, 0x81, 0x63, 0x4a, 0x00, 0x0d, 0x4c, 0x50, 0x81, 0x63, 0x4c, 0x00, 0x0d, 0x4e, 0x50, 0x71, 
  0x4e, 0x00, 0x07, 0x4c, 0x50, 0x71, 0x4c, 0x00, 0x07, 0x4a, 0x50, 0x81, 0x63, 0x4a, 0x00, 0x0d, 
  0x47, 0x50, 0x81, 0x63, 0x47, 0x00, 0x0d, 0x45, 0x50, 0x81, 0x63, 0x45, 0x00, 0x0d, 0x47, 0x50, 
  0x71, 0x47, 0x00, 0x07, 0x4a, 0x50, 0x71, 0x4a, 0x00, 0x07, 0x4f, 0x50, 0x81, 0x63, 0x4f, 0x00, 
  0x0d, 0x4e, 0x50, 0x81, 0x63, 0x4e, 0x00, 0x0d, 0x4c, 0x50, 0x81, 0x63, 0x4c, 0x00, 0x0d, 0x4e, 
  0x50, 0x71, 0x4e, 0x00, 0x07, 0x4c, 0x50, 0x71, 0x4c, 0x00, 0x07, 0x4a, 0x50, 0x81, 0x63, 0x4a, 
  0x00, 0x0d, 0x47, 0x50, 0x81, 0x63, 0x47, 0x00, 0x0d, 0x45, 0x50, 0x81, 0x63, 0x45, 0x00, 0x0d, 
  0x47, 0x50, 0x71, 0x47, 0x00, 0x07, 0x4a, 0x50, 0x71, 0x4a, 0x00, 0x07, 0x4c, 0x50, 0x81, 0x63, 
  0x4c, 0x00, 0x0d, 0x4a, 0x50, 0x81, 0x63, 0x4a, 0x00, 0x0d, 0x4f, 0x50, 0x81, 0x63, 0x4f, 0x00, 
  0x0d, 0x4e, 0x50, 0x71, 0x4e, 0x00, 0x07, 0x4c, 0x50, 0x71, 0x4c, 0x00, 0x07, 0x4e, 0x50, 0x81, 
  0x63, 0x4e, 0x00, 0x0d, 0x4c, 0x50, 0x71, 0x4c, 0x00, 0x07, 0x4a, 0x50, 0x71, 0x4a, 0x00, 0x07, 
  0x47, 0x50, 0x71, 0x47, 0x00, 0x07, 0x4a, 0x50, 0x71, 0x4a, 0x00, 0x07, 0x4c, 0x50, 0x71, 0x4c, 
  0x00, 0x07, 0x4a, 0x50, 0x71, 0x4a, 0x00, 0x07, 0x4f, 0x50, 0x81, 0x63, 0x4f, 0x00, 0x0d, 0x4e, 
  0x50, 0x81, 0x63, 0x4e, 0x00, 0x0d, 0x58, 0x50, 0x81, 0x63, 0x58, 0x00, 0x0d, 0x5a, 0x50, 0x71, 
  0x5a, 0x00, 0x07, 0x58, 0x50, 0x71, 0x58, 0x00, 0x07, 0x56, 0x50, 0x81, 0x63, 0x56, 0x00, 0x0d, 
  0x53, 0x50, 0x81, 0x63, 0x53, 0x00, 0x0d, 0x51, 0x50, 0x81, 0x63, 0x51, 0x00, 0x0d, 0x53, 0x50, 
  0x71, 0x53, 0x00, 0x07, 0x56, 0x50, 0x71, 0x56, 0x00, 0x07, 0x58, 0x50, 0x81, 0x63, 0x58, 0x00, 
  0x0d, 0x56, 0x50, 0x81, 0x63, 0x56, 0x00, 0x0d, 0xff, 0x51, 0x03, 0x09, 0x57, 0x96, 0x00, 0x90, 
  0x58, 0x50, 0x81, 0x63, 0x58, 0x00, 0x0d, 0x5a, 0x50, 0x71, 0x5a, 0x00, 0x07, 0x58, 0x50, 0x71, 
  0x58, 0x00, 0x07, 0x56, 0x50, 0x81, 0x63, 0x56, 0x00, 0x0d, 0x53, 0x50, 0x81, 0x63, 0x53, 0x00, 
  0x0d, 0xff, 0x51, 0x03, 0x09, 0xbd, 0x59, 0x00, 0x90, 0x51, 0x50, 0x81, 0x63, 0x51, 0x00, 0x0d, 
  0x53, 0x50, 0x71, 0x53, 0x00, 0x07, 0x56, 0x50, 0x71, 0x56, 0x00, 0x07, 0x5b, 0x50, 0x81, 0x63, 
  0x5b, 0x00, 0x0d, 0x5a, 0x50, 0x81, 0x63, 0x5a, 0x00, 0x0d, 0xff, 0x51, 0x03, 0x0a, 0x2c, 0x2b, 
  0x00, 0x90, 0x58, 0x50, 0x81, 0x63, 0x58, 0x00, 0x0d, 0x5a, 0x50, 0x71, 0x5a, 0x00, 0x07, 0x58, 
  0x50, 0x71, 0x58, 0x00, 0x07, 0x56, 0x50, 0x81, 0x63, 0x56, 0x00, 0x0d, 0x53, 0x50, 0x81, 0x63, 
  0x53, 0x00, 0x0d, 0xff, 0x51, 0x03, 0x0a, 0xa5, 0x4c, 0x00, 0x90, 0x51, 0x50, 0x81, 0x63, 0x51, 
  0x00, 0x0d, 0x53, 0x50, 0x71, 0x53, 0x00, 0x07, 0x56, 0x50, 0x71, 0x56, 0x00, 0x07, 0x58, 0x50, 
  0x81, 0x63, 0x58, 0x00, 0x0d, 0x56, 0x50, 0x81, 0x63, 0x56, 0x00, 0x0d, 0xff, 0x51, 0x03, 0x0b, 
  0x2a, 0x3a, 0x00, 0x90, 0x5b, 0x50, 0x81, 0x63, 0x5b, 0x00, 0x0d, 0x5a, 0x50, 0x71, 0x5a, 0x00, 
  0x07, 0x58, 0x50, 0x71, 0x58, 0x00, 0x07, 0xff, 0x51, 0x03, 0x0b, 0xbc, 0xcf, 0x00, 0x90, 0x5a, 
  0x50, 0x81, 0x63, 0x5a, 0x00, 0x0d, 0x58, 0x50, 0x71, 0x58, 0x00, 0x07, 0x56, 0x50, 0x71, 0x56, 
  0x00, 0x07, 0xff, 0x51, 0x03, 0x0c, 0x35, 0x00, 0x00, 0x90, 0x53, 0x50, 0x71, 0x53, 0x00, 0x07, 
  0x56, 0x50, 0x71, 0x56, 0x00, 0x07, 0x58, 0x50, 0x71, 0x58, 0x00, 0x07, 0x56, 0x50, 0x71, 0x56, 
  0x00, 0x07, 0xff, 0x51, 0x03, 0x0e, 0x15, 0xc8, 0x00, 0x90, 0x5b, 0x50, 0x81, 0x63, 0x5b, 0x00, 
  0x0d, 0x5a, 0x50, 0x81, 0x63, 0x5a, 0x00, 0x0d, 0x58, 0x40, 0x83, 0x60, 0xff, 0x51, 0x03, 0x10, 
  0xa5, 0x5d, 0x83, 0x60, 0xff, 0x51, 0x03, 0x12, 0x4f, 0x80, 0x94, 0x7f, 0x90, 0x58, 0x00, 0x01, 
  0xff, 0x2f, 0x00, 0x4d, 0x54, 0x72, 0x6b, 0x00, 0x00, 0x06, 0xca, 0x00, 0xff, 0x59, 0x02, 0x01, 
  0x00, 0x00, 0xff, 0x21, 0x01, 0x00, 0x00, 0x90, 0x40, 0x31, 0x00, 0x43, 0x31, 0x02, 0xb0, 0x40, 
  0x7f, 0x8e, 0x1d, 0x90, 0x40, 0x00, 0x00, 0x43, 0x00, 0x61, 0x43, 0x31, 0x00, 0x47, 0x31, 0x01, 
  0xb0, 0x40, 0x00, 0x01, 0x40, 0x7f, 0x8e, 0x1d, 0x90, 0x43, 0x00, 0x00, 0x47, 0x00, 0x61, 0x45, 
  0x31, 0x00, 0x4a, 0x31, 0x01, 0xb0, 0x40, 0x00, 0x01, 0x40, 0x7f, 0x8e, 0x1d, 0x90, 0x45, 0x00, 
  0x00, 0x4a, 0x00, 0x61, 0x3c, 0x31, 0x00, 0x43, 0x31, 0x01, 0xb0, 0x40, 0x00, 0x01, 0x40, 0x7f, 
  0x87, 0x0d, 0x90, 0x3c, 0x00, 0x00, 0x43, 0x00, 0x31, 0x3e, 0x31, 0x00, 0x45, 0x31, 0x01, 0xb0, 
  0x40, 0x00, 0x01, 0x40, 0x7f, 0x87, 0x0d, 0x90, 0x3e, 0x00, 0x00, 0x45, 0x00, 0x31, 0x40, 0x31, 
  0x01, 0xb0, 0x40, 0x00, 0x01, 0x40, 0x7f, 0x83, 0x45, 0x90, 0x40, 0x00, 0x19, 0x47, 0x31, 0x83, 
  0x47, 0x47, 0x00, 0x19, 0x4c, 0x31, 0x87, 0x0f, 0x4c, 0x00, 0x31, 0x43, 0x31, 0x01, 0xb0, 0x40, 
  0x00, 0x01, 0x40, 0x7f, 0x83, 0x45, 0x90, 0x43, 0x00, 0x19, 0x47, 0x31, 0x83, 0x47, 0x47, 0x00, 
  0x19, 0x4a, 0x31, 0x87, 0x0f, 0x4a, 0x00, 0x31, 0x3e, 0x31, 0x01, 0xb0, 0x40, 0x00, 0x01, 0x40, 
  0x7f, 0x83, 0x45, 0x90, 0x3e, 0x00, 0x19, 0x45, 0x31, 0x83, 0x47, 0x45, 0x00, 0x19, 0x4a, 0x31, 
  0x87, 0x0f, 0x4a, 0x00, 0x31, 0x3c, 0x31, 0x01, 0xb0, 0x40, 0x00, 0x01, 0x40, 0x7f, 0x83, 0x45, 
  0x90, 0x3c, 0x00, 0x19, 0x43, 0x34, 0x83, 0x47, 0x43, 0x00, 0x19, 0x3e, 0x38, 0x01, 0xb0, 0x40, 
  0x00, 0x01, 0x40, 0x7f, 0x83, 0x45, 0x90, 0x3e, 0x00, 0x19, 0x45, 0x3c, 0x83, 0x47, 0x45, 0x00, 
  0x19, 0x34, 0x40, 0x01, 0xb0, 0x40, 0x00, 0x01, 0x40, 0x7f, 0x83, 0x45, 0x90, 0x34, 0x00, 0x19, 
  0x3b, 0x40, 0x83, 0x47, 0x3b, 0x00, 0x19, 0x40, 0x40, 0x87, 0x0f, 0x40, 0x00, 0x31, 0x37, 0x40, 
  0x01, 0xb0, 0x40, 0x00, 0x01, 0x40, 0x7f, 0x83, 0x45, 0x90, 0x37, 0x00, 0x19, 0x3e, 0x40, 0x83, 
  0x47, 0x3e, 0x00, 0x19, 0x43, 0x40, 0x87, 0x0f, 0x43, 0x00, 0x31, 0x32, 0x40, 0x01, 0xb0, 0x40, 
  0x00, 0x01, 0x40, 0x7f, 0x83, 0x45, 0x90, 0x32, 0x00, 0x19, 0x39, 0x40, 0x83, 0x47, 0x39, 0x00, 
  0x19, 0x3e, 0x40, 0x87, 0x0f, 0x3e, 0x00, 0x31, 0x30, 0x40, 0x01, 0xb0, 0x40, 0x00, 0x01, 0x40, 
  0x7f, 0x83, 0x45, 0x90, 0x30, 0x00, 0x19, 0x37, 0x40, 0x83, 0x47, 0x37, 0x00, 0x19, 0x32, 0x40, 
  0x01, 0xb0, 0x40, 0x00, 0x01, 0x40, 0x7f, 0x83, 0x45, 0x90, 0x32, 0x00, 0x19, 0x39, 0x40, 0x83, 
  0x47, 0x39, 0x00, 0x19, 0x34, 0x40, 0x01, 0xb0, 0x40, 0x00, 0x01, 0x40, 0x7f, 0x83, 0x45, 0x90, 
  0x34, 0x00, 0x19, 0x3b, 0x40, 0x83, 0x47, 0x3b, 0x00, 0x19, 0x40, 0x40, 0x83, 0x47, 0x40, 0x00, 
  0x19, 0x3b, 0x40, 0x83, 0x47, 0x3b, 0x00, 0x19, 0x37, 0x40, 0x01, 0xb0, 0x40, 0x00, 0x01, 0x40, 
  0x7f, 0x83, 0x45, 0x90, 0x37, 0x00, 0x19, 0x3e, 0x40, 0x83, 0x47, 0x3e, 0x00, 0x19, 0x43, 0x40, 
  0x87, 0x0f, 0x43, 0x00, 0x31, 0x32, 0x40, 0x01, 0xb0, 0x40, 0x00, 0x01, 0x40, 0x7f, 0x83, 0x45, 
  0x90, 0x32, 0x00, 0x19, 0x39, 0x40, 0x83, 0x47, 0x39, 0x00, 0x19, 0x3e, 0x40, 0x83, 0x47, 0x3e, 
  0x00, 0x19, 0x39, 0x40, 0x83, 0x47, 0x39, 0x00, 0x19, 0x30, 0x40, 0x01, 0xb0, 0x40, 0x00, 0x01, 
  0x40, 0x7f, 0x81, 0x61, 0x90, 0x30, 0x00, 0x0d, 0x37, 0x42, 0x81, 0x63, 0x37, 0x00, 0x0d, 0x3c, 
  0x44, 0x81, 0x63, 0x3c, 0x00, 0x0d, 0x37, 0x46, 0x81, 0x63, 0x37, 0x00, 0x0d, 0x32, 0x48, 0x01, 
  0xb0, 0x40, 0x00, 0x01, 0x40, 0x7f, 0x81, 0x61, 0x90, 0x32, 0x00, 0x0d, 0x39, 0x4a, 0x81, 0x63, 
  0x39, 0x00, 0x0d, 0x3e, 0x4c, 0x81, 0x63, 0x3e, 0x00, 0x0d, 0x39, 0x4e, 0x81, 0x63, 0x39, 0x00, 
  0x0d, 0x34, 0x50, 0x01, 0xb0, 0x40, 0x00, 0x01, 0x40, 0x7f, 0x81, 0x61, 0x90, 0x34, 0x00, 0x0d, 
  0x3b, 0x50, 0x81, 0x63, 0x3b, 0x00, 0x0d, 0x42, 0x50, 0x83, 0x47, 0x42, 0x00, 0x19, 0x43, 0x50, 
  0x87, 0x0f, 0x43, 0x00, 0x31, 0x37, 0x50, 0x01, 0xb0, 0x40, 0x00, 0x01, 0x40, 0x7f, 0x81, 0x61, 
  0x90, 0x37, 0x00, 0x0d, 0x3e, 0x50, 0x81, 0x63, 0x3e, 0x00, 0x0d, 0x43, 0x50, 0x81, 0x63, 0x43, 
  0x00, 0x0d, 0x45, 0x50, 0x81, 0x63, 0x45, 0x00, 0x0d, 0x47, 0x50, 0x87, 0x0f, 0x47, 0x00, 0x31, 
  0x32, 0x50, 0x01, 0xb0, 0x40, 0x00, 0x01, 0x40, 0x7f, 0x81, 0x61, 0x90, 0x32, 0x00, 0x0d, 0x39, 
  0x50, 0x81, 0x63, 0x39, 0x00, 0x0d, 0x3e, 0x50, 0x83, 0x47, 0x3e, 0x00, 0x19, 0x45, 0x50, 0x87, 
  0x0f, 0x45, 0x00, 0x31, 0x30, 0x50, 0x01, 0xb0, 0x40, 0x00, 0x01, 0x40, 0x7f, 0x81, 0x61, 0x90, 
  0x30, 0x00, 0x0d, 0x37, 0x50, 0x81, 0x63, 0x37, 0x00, 0x0d, 0x3c, 0x50, 0x83, 0x47, 0x3c, 0x00, 
  0x19, 0x32, 0x50, 0x01, 0xb0, 0x40, 0x00, 0x01, 0x40, 0x7f, 0x81, 0x61, 0x90, 0x32, 0x00, 0x0d, 
  0x39, 0x50, 0x81, 0x63, 0x39, 0x00, 0x0d, 0x3e, 0x50, 0x83, 0x47, 0x3e, 0x00, 0x19, 0x34, 0x50, 
  0x01, 0xb0, 0x40, 0x00, 0x01, 0x40, 0x7f, 0x81, 0x61, 0x90, 0x34, 0x00, 0x0d, 0x3b, 0x50, 0x81, 
  0x63, 0x3b, 0x00, 0x0d, 0x42, 0x50, 0x83, 0x47, 0x42, 0x00, 0x19, 0x43, 0x50, 0x87, 0x0f, 0x43, 
  0x00, 0x31, 0x2b, 0x50, 0x01, 0xb0, 0x40, 0x00, 0x01, 0x40, 0x7f, 0x81, 0x61, 0x90, 0x2b, 0x00, 
  0x0d, 0x32, 0x50, 0x81, 0x63, 0x32, 0x00, 0x0d, 0x37, 0x50, 0x81, 0x63, 0x37, 0x00, 0x0d, 0x3b, 
  0x50, 0x81, 0x63, 0x3b, 0x00, 0x0d, 0x3e, 0x50, 0x87, 0x0f, 0x3e, 0x00, 0x31, 0x32, 0x50, 0x01, 
  0xb0, 0x40, 0x00, 0x01, 0x40, 0x7f, 0x81, 0x61, 0x90, 0x32, 0x00, 0x0d, 0x39, 0x50, 0x81, 0x63, 
  0x39, 0x00, 0x0d, 0x3e, 0x50, 0x81, 0x63, 0x3e, 0x00, 0x0d, 0x39, 0x50, 0x81, 0x63, 0x39, 0x00, 
  0x0d, 0x3e, 0x50, 0x87, 0x0f, 0x3e, 0x00, 0x31, 0x30, 0x50, 0x01, 0xb0, 0x40, 0x00, 0x01, 0x40, 
  0x7f, 0x81, 0x61, 0x90, 0x30, 0x00, 0x0d, 0x37, 0x52, 0x81, 0x63, 0x37, 0x00, 0x0d, 0x3c, 0x54, 
  0x83, 0x47, 0x3c, 0x00, 0x19, 0x32, 0x58, 0x01, 0xb0, 0x40, 0x00, 0x01, 0x40, 0x7f, 0x81, 0x61, 
  0x90, 0x32, 0x00, 0x0d, 0x39, 0x5a, 0x81, 0x63, 0x39, 0x00, 0x0d, 0x3e, 0x5c, 0x83, 0x47, 0x3e, 
  0x00, 0x19, 0x28, 0x60, 0x01, 0xb0, 0x40, 0x00, 0x01, 0x40, 0x7f, 0x81, 0x61, 0x90, 0x28, 0x00, 
  0x0d, 0x2f, 0x60, 0x81, 0x63, 0x2f, 0x00, 0x0d, 0x34, 0x60, 0x81, 0x63, 0x34, 0x00, 0x0d, 0x3b, 
  0x60, 0x81, 0x63, 0x3b, 0x00, 0x0d, 0x40, 0x60, 0x81, 0x63, 0x40, 0x00, 0x0d, 0x3b, 0x60, 0x81, 
  0x63, 0x3b, 0x00, 0x0d, 0x40, 0x60, 0x81, 0x63, 0x40, 0x00, 0x0d, 0x3b, 0x60, 0x81, 0x63, 0x3b, 
  0x00, 0x0d, 0x2b, 0x60, 0x01, 0xb0, 0x40, 0x00, 0x01, 0x40, 0x7f, 0x81, 0x61, 0x90, 0x2b, 0x00, 
  0x0d, 0x32, 0x60, 0x81, 0x63, 0x32, 0x00, 0x0d, 0x37, 0x60, 0x81, 0x63, 0x37, 0x00, 0x0d, 0x3b, 
  0x60, 0x81, 0x63, 0x3b, 0x00, 0x0d, 0x3e, 0x60, 0x81, 0x63, 0x3e, 0x00, 0x0d, 0x3b, 0x60, 0x81, 
  0x63, 0x3b, 0x00, 0x0d, 0x3e, 0x60, 0x81, 0x63, 0x3e, 0x00, 0x0d, 0x3b, 0x60, 0x81, 0x63, 0x3b, 
  0x00, 0x0d, 0x26, 0x60, 0x01, 0xb0, 0x40, 0x00, 0x01, 0x40, 0x7f, 0x81, 0x61, 0x90, 0x26, 0x00, 
  0x0d, 0x2d, 0x60, 0x81, 0x63, 0x2d, 0x00, 0x0d, 0x32, 0x60, 0x81, 0x63, 0x32, 0x00, 0x0d, 0x39, 
  0x60, 0x81, 0x63, 0x39, 0x00, 0x0d, 0x3e, 0x60, 0x81, 0x63, 0x3e, 0x00, 0x0d, 0x39, 0x60, 0x81, 
  0x63, 0x39, 0x00, 0x0d, 0x3e, 0x60, 0x81, 0x63, 0x3e, 0x00, 0x0d, 0x39, 0x60, 0x81, 0x63, 0x39, 
  0x00, 0x0d, 0x24, 0x60, 0x01, 0xb0, 0x40, 0x00, 0x01, 0x40, 0x7f, 0x81, 0x61, 0x90, 0x24, 0x00, 
  0x0d, 0x2b, 0x60, 0x81, 0x63, 0x2b, 0x00, 0x0d, 0x30, 0x60, 0x81, 0x63, 0x30, 0x00, 0x0d, 0x34, 
  0x60, 0x81, 0x63, 0x34, 0x00, 0x0d, 0x26, 0x60, 0x01, 0xb0, 0x40, 0x00, 0x01, 0x40, 0x7f, 0x81, 
  0x61, 0x90, 0x26, 0x00, 0x0d, 0x2d, 0x60, 0x81, 0x63, 0x2d, 0x00, 0x0d, 0x32, 0x60, 0x81, 0x63, 
  0x32, 0x00, 0x0d, 0x36, 0x60, 0x81, 0x63, 0x36, 0x00, 0x0d, 0x28, 0x60, 0x01, 0xb0, 0x40, 0x00, 
  0x01, 0x40, 0x7f, 0x81, 0x61, 0x90, 0x28, 0x00, 0x0d, 0x2f, 0x60, 0x81, 0x63, 0x2f, 0x00, 0x0d, 
  0x34, 0x60, 0x81, 0x63, 0x34, 0x00, 0x0d, 0x3b, 0x60, 0x81, 0x63, 0x3b, 0x00, 0x0d, 0x40, 0x60, 
  0x81, 0x63, 0x40, 0x00, 0x0d, 0x3b, 0x60, 0x81, 0x63, 0x3b, 0x00, 0x0d, 0x40, 0x60, 0x81, 0x63, 
  0x40, 0x00, 0x0d, 0x3b, 0x60, 0x81, 0x63, 0x3b, 0x00, 0x0d, 0x2b, 0x60, 0x01, 0xb0, 0x40, 0x00, 
  0x01, 0x40, 0x7f, 0x81, 0x61, 0x90, 0x2b, 0x00, 0x0d, 0x32, 0x60, 0x81, 0x63, 0x32, 0x00, 0x0d, 
  0x37, 0x60, 0x81, 0x63, 0x37, 0x00, 0x0d, 0x3b, 0x60, 0x81, 0x63, 0x3b, 0x00, 0x0d, 0x3e, 0x60, 
  0x81, 0x63, 0x3e, 0x00, 0x0d, 0x3b, 0x60, 0x81, 0x63, 0x3b, 0x00, 0x0d, 0x3e, 0x60, 0x81, 0x63, 
  0x3e, 0x00, 0x0d, 0x3b, 0x60, 0x81, 0x63, 0x3b, 0x00, 0x0d, 0x26, 0x60, 0x01, 0xb0, 0x40, 0x00, 
  0x01, 0x40, 0x7f, 0x81, 0x61, 0x90, 0x26, 0x00, 0x0d, 0x2d, 0x60, 0x81, 0x63, 0x2d, 0x00, 0x0d, 
  0x32, 0x60, 0x81, 0x63, 0x32, 0x00, 0x0d, 0x39, 0x60, 0x81, 0x63, 0x39, 0x00, 0x0d, 0x3e, 0x60, 
  0x81, 0x63, 0x3e, 0x00, 0x0d, 0x39, 0x60, 0x81, 0x63, 0x39, 0x00, 0x0d, 0x3e, 0x60, 0x81, 0x63, 
  0x3e, 0x00, 0x0d, 0x39, 0x60, 0x81, 0x63, 0x39, 0x00, 0x0d, 0x24, 0x60, 0x01, 0xb0, 0x40, 0x00, 
  0x01, 0x40, 0x7f, 0x81, 0x61, 0x90, 0x24, 0x00, 0x0d, 0x2b, 0x60, 0x81, 0x63, 0x2b, 0x00, 0x0d, 
  0x30, 0x60, 0x83, 0x47, 0x30, 0x00, 0x19, 0x26, 0x60, 0x01, 0xb0, 0x40, 0x00, 0x01, 0x40, 0x7f, 
  0x81, 0x61, 0x90, 0x26, 0x00, 0x0d, 0x2d, 0x60, 0x81, 0x63, 0x2d, 0x00, 0x0d, 0x32, 0x60, 0x83, 
  0x47, 0x32, 0x00, 0x19, 0x34, 0x50, 0x00, 0x37, 0x50, 0x00, 0x3b, 0x50, 0x01, 0xb0, 0x40, 0x00, 
  0x01, 0x40, 0x7f, 0x8e, 0x1d, 0x90, 0x34, 0x00, 0x00, 0x37, 0x00, 0x00, 0x3b, 0x00, 0x61, 0x32, 
  0x50, 0x00, 0x37, 0x50, 0x00, 0x3b, 0x50, 0x01, 0xb0, 0x40, 0x00, 0x01, 0x40, 0x7f, 0x8e, 0x1d, 
  0x90, 0x32, 0x00, 0x00, 0x37, 0x00, 0x00, 0x3b, 0x00, 0x61, 0x32, 0x50, 0x00, 0x36, 0x50, 0x00, 
  0x39, 0x50, 0x01, 0xb0, 0x40, 0x00, 0x01, 0x40, 0x7f, 0x8e, 0x1d, 0x90, 0x32, 0x00, 0x00, 0x36, 
  0x00, 0x00, 0x39, 0x00, 0x61, 0x30, 0x50, 0x00, 0x34, 0x50, 0x00, 0x37, 0x50, 0x01, 0xb0, 0x40, 
  0x00, 0x01, 0x40, 0x7f, 0x87, 0x0d, 0x90, 0x30, 0x00, 0x00, 0x34, 0x00, 0x00, 0x37, 0x00, 0x31, 
  0x32, 0x50, 0x00, 0x36, 0x50, 0x00, 0x39, 0x50, 0x01, 0xb0, 0x40, 0x00, 0x01, 0x40, 0x7f, 0x87, 
  0x0d, 0x90, 0x32, 0x00, 0x00, 0x36, 0x00, 0x00, 0x39, 0x00, 0x31, 0x40, 0x50, 0x00, 0x43, 0x50, 
  0x00, 0x47, 0x50, 0x01, 0xb0, 0x40, 0x00, 0x01, 0x40, 0x7f, 0x8e, 0x1d, 0x90, 0x40, 0x00, 0x00, 
  0x43, 0x00, 0x00, 0x47, 0x00, 0x61, 0x43, 0x50, 0x00, 0x47, 0x50, 0x00, 0x4a, 0x50, 0x01, 0xb0, 
  0x40, 0x00, 0x01, 0x40, 0x7f, 0x8e, 0x1d, 0x90, 0x43, 0x00, 0x00, 0x47, 0x00, 0x00, 0x4a, 0x00, 
  0x61, 0x42, 0x50, 0x00, 0x45, 0x50, 0x00, 0x4a, 0x50, 0x01, 0xb0, 0x40, 0x00, 0x01, 0x40, 0x7f, 
  0x8e, 0x1d, 0x90, 0x42, 0x00, 0x00, 0x45, 0x00, 0x00, 0x4a, 0x00, 0x61, 0x43, 0x50, 0x00, 0x48, 
  0x50, 0x00, 0x4c, 0x50, 0x01, 0xb0, 0x40, 0x00, 0x01, 0x40, 0x7f, 0x87, 0x0d, 0x90, 0x43, 0x00, 
  0x00, 0x48, 0x00, 0x00, 0x4c, 0x00, 0x31, 0x42, 0x50, 0x00, 0x47, 0x50, 0x00, 0x4a, 0x50, 0x01, 
  0xb0, 0x40, 0x00, 0x01, 0x40, 0x7f, 0x87, 0x0d, 0x90, 0x42, 0x00, 0x00, 0x47, 0x00, 0x00, 0x4a, 
  0x00, 0x31, 0x28, 0x40, 0x01, 0xb0, 0x40, 0x00, 0x01, 0x40, 0x7f, 0x81, 0x61, 0x90, 0x28, 0x00, 
  0x0d, 0x2f, 0x40, 0x81, 0x63, 0x2f, 0x00, 0x0d, 0x34, 0x40, 0x81, 0x63, 0x34, 0x00, 0x0d, 0x3b, 
  0x40, 0x81, 0x63, 0x3b, 0x00, 0x0d, 0x40, 0x40, 0x95, 0x2f, 0x40, 0x00, 0x81, 0x11, 0xb0, 0x40, 
  0x00, 0x01, 0xff, 0x2f, 0x00
};