// array size is 4628
static const char bytes[]  = {
  0x4d, 0x54, 0x68, 0x64, 0x00, 0x00, 0x00, 0x06, 0x00, 0x01, 0x00, 0x02, 0x01, 0xe0, 0x4d, 0x54, 
  0x72, 0x6b, 0x00, 0x00, 0x08, 0xd0, 0x00, 0xff, 0x58, 0x04, 0x03, 0x02, 0x18, 0x08, 0x00, 0xff, 
  0x59, 0x02, 0xfd, 0x00, 0x00, 0xff, 0x51, 0x03, 0x05, 0x73, 0x17, 0x00, 0xb0, 0x79, 0x00, 0x00, 
  0xc0, 0x00, 0x00, 0xb0, 0x07, 0x64, 0x00, 0x0a, 0x40, 0x00, 0x5b, 0x00, 0x00, 0x5d, 0x00, 0x00, 
  0xff, 0x21, 0x01, 0x00, 0x00, 0x90, 0x43, 0x40, 0x83, 0x47, 0x43, 0x00, 0x19, 0x3c, 0x40, 0x83, 
  0x47, 0x3c, 0x00, 0x19, 0x3f, 0x40, 0x81, 0x63, 0x3f, 0x00, 0x0d, 0x41, 0x40, 0x81, 0x63, 0x41, 
  0x00, 0x0d, 0x43, 0x40, 0x83, 0x47, 0x43, 0x00, 0x19, 0x3c, 0x40, 0x83, 0x47, 0x3c, 0x00, 0x19, 
  0x3f, 0x40, 0x81, 0x63, 0x3f, 0x00, 0x0d, 0x41, 0x40, 0x81, 0x63, 0x41, 0x00, 0x0d, 0x43, 0x40, 
  0x83, 0x47, 0x43, 0x00, 0x19, 0x3c, 0x40, 0x83, 0x47, 0x3c, 0x00, 0x19, 0x3f, 0x40, 0x81, 0x63, 
  0x3f, 0x00, 0x0d, 0x41, 0x40, 0x81, 0x63, 0x41, 0x00, 0x0d, 0x43, 0x40, 0x83, 0x47, 0x43, 0x00, 
  0x19, 0x3c, 0x40, 0x83, 0x47, 0x3c, 0x00, 0x19, 0x3f, 0x40, 0x81, 0x63, 0x3f, 0x00, 0x0d, 0x41, 
  0x40, 0x81, 0x63, 0x41, 0x00, 0x0d, 0x43, 0x40, 0x83, 0x47, 0x43, 0x00, 0x19, 0x3c, 0x40, 0x83, 
  0x47, 0x3c, 0x00, 0x19, 0x40, 0x40, 0x81, 0x63, 0x40, 0x00, 0x0d, 0x41, 0x40, 0x81, 0x63, 0x41, 
  0x00, 0x0d, 0x43, 0x40, 0x83, 0x47, 0x43, 0x00, 0x19, 0x3c, 0x40, 0x83, 0x47, 0x3c, 0x00, 0x19, 
  0x40, 0x40, 0x81, 0x63, 0x40, 0x00, 0x0d, 0x41, 0x40, 0x81, 0x63, 0x41, 0x00, 0x0d, 0x43, 0x40, 
  0x83, 0x47, 0x43, 0x00, 0x19, 0x3c, 0x40, 0x83, 0x47, 0x3c, 0x00, 0x19, 0x40, 0x40, 0x81, 0x63, 
  0x40, 0x00, 0x0d, 0x41, 0x40, 0x81, 0x63, 0x41, 0x00, 0x0d, 0x43, 0x40, 0x83, 0x47, 0x43, 0x00, 
  0x19, 0x3c, 0x40, 0x83, 0x47, 0x3c, 0x00, 0x19, 0x40, 0x40, 0x81, 0x63, 0x40, 0x00, 0x0d, 0x41, 
  0x40, 0x81, 0x63, 0x41, 0x00, 0x0d, 0x43, 0x40, 0x8a, 0x57, 0x43, 0x00, 0x49, 0x3c, 0x40, 0x8a, 
  0x57, 0x3c, 0x00, 0x49, 0x3c, 0x40, 0x00, 0x3f, 0x40, 0x81, 0x63, 0x3c, 0x00, 0x00, 0x3f, 0x00, 
  0x0d, 0x41, 0x40, 0x81, 0x63, 0x41, 0x00, 0x0d, 0x43, 0x40, 0x87, 0x0f, 0x43, 0x00, 0x31, 0x3c, 
  0x40, 0x87, 0x0f, 0x3c, 0x00, 0x31, 0x3f, 0x40, 0x81, 0x63, 0x3f, 0x00, 0x0d, 0x41, 0x40, 0x81, 
  0x63, 0x41, 0x00, 0x0d, 0x3a, 0x4c, 0x00, 0x3e, 0x4c, 0x83, 0x5f, 0x3a, 0x00, 0x00, 0x3e, 0x00, 
  0x01, 0x37, 0x40, 0x83, 0x47, 0x37, 0x00, 0x19, 0x3a, 0x40, 0x81, 0x63, 0x3a, 0x00, 0x0d, 0x3c, 
  0x40, 0x81, 0x63, 0x3c, 0x00, 0x0d, 0x3e, 0x4c, 0x83, 0x5f, 0x3e, 0x00, 0x01, 0x37, 0x40, 0x83, 
  0x47, 0x37, 0x00, 0x19, 0x3a, 0x40, 0x81, 0x63, 0x3a, 0x00, 0x0d, 0x3c, 0x40, 0x81, 0x63, 0x3c, 
  0x00, 0x0d, 0x3a, 0x4c, 0x00, 0x3e, 0x4c, 0x83, 0x5f, 0x3a, 0x00, 0x00, 0x3e, 0x00, 0x01, 0x37, 
  0x40, 0x83, 0x47, 0x37, 0x00, 0x19, 0x3a, 0x40, 0x81, 0x63, 0x3a, 0x00, 0x0d, 0x3c, 0x40, 0x81, 
  0x63, 0x3c, 0x00, 0x0d, 0x3e, 0x4c, 0x83, 0x5f, 0x3e, 0x00, 0x01, 0x37, 0x40, 0x81, 0x6f, 0x37, 
  0x00, 0x81, 0x71, 0x3a, 0x40, 0x81, 0x6f, 0x3a, 0x00, 0x81, 0x71, 0x41, 0x40, 0x8a, 0x57, 0x41, 
  0x00, 0x49, 0x3a, 0x40, 0x8a, 0x57, 0x3a, 0x00, 0x49, 0x3a, 0x40, 0x00, 0x3f, 0x40, 0x81, 0x63, 
  0x3a, 0x00, 0x00, 0x3f, 0x00, 0x0d, 0x3e, 0x40, 0x81, 0x63, 0x3e, 0x00, 0x0d, 0x41, 0x40, 0x87, 
  0x0f, 0x41, 0x00, 0x31, 0x3a, 0x40, 0x87, 0x0f, 0x3a, 0x00, 0x31, 0x3f, 0x40, 0x81, 0x63, 0x3f, 
  0x00, 0x0d, 0x3e, 0x40, 0x81, 0x63, 0x3e, 0x00, 0x0d, 0x38, 0x4c, 0x00, 0x3c, 0x4c, 0x83, 0x5f, 
  0x38, 0x00, 0x00, 0x3c, 0x00, 0x01, 0x35, 0x40, 0x83, 0x47, 0x35, 0x00, 0x19, 0x38, 0x40, 0x81, 
  0x63, 0x38, 0x00, 0x0d, 0x3a, 0x40, 0x81, 0x63, 0x3a, 0x00, 0x0d, 0x3c, 0x4c, 0x83, 0x5f, 0x3c, 
  0x00, 0x01, 0x35, 0x40, 0x83, 0x47, 0x35, 0x00, 0x19, 0x38, 0x40, 0x81, 0x63, 0x38, 0x00, 0x0d, 
  0x3a, 0x40, 0x81, 0x63, 0x3a, 0x00, 0x0d, 0x38, 0x4c, 0x00, 0x3c, 0x4c, 0x83, 0x5f, 0x38, 0x00, 
  0x00, 0x3c, 0x00, 0x01, 0x35, 0x40, 0x83, 0x47, 0x35, 0x00, 0x19, 0x38, 0x40, 0x81, 0x63, 0x38, 
  0x00, 0x0d, 0x3a, 0x40, 0x81, 0x63, 0x3a, 0x00, 0x0d, 0x3c, 0x4c, 0x83, 0x5f, 0x3c, 0x00, 0x01, 
  0x35, 0x40, 0x81, 0x6f, 0x35, 0x00, 0x81, 0x71, 0x38, 0x40, 0x81, 0x6f, 0x38, 0x00, 0x81, 0x71, 
  0x43, 0x50, 0x8a, 0x57, 0x43, 0x00, 0x49, 0x3c, 0x50, 0x8a, 0x57, 0x3c, 0x00, 0x49, 0x3c, 0x50, 
  0x00, 0x3f, 0x50, 0x81, 0x63, 0x3c, 0x00, 0x00, 0x3f, 0x00, 0x0d, 0x41, 0x50, 0x81, 0x63, 0x41, 
  0x00, 0x0d, 0x43, 0x50, 0x87, 0x0f, 0x43, 0x00, 0x31, 0x3c, 0x50, 0x87, 0x0f, 0x3c, 0x00, 0x31, 
  0x3f, 0x50, 0x81, 0x63, 0x3f, 0x00, 0x0d, 0x41, 0x50, 0x81, 0x63, 0x41, 0x00, 0x0d, 0x3a, 0x60, 
  0x00, 0x3e, 0x60, 0x83, 0x5f, 0x3a, 0x00, 0x00, 0x3e, 0x00, 0x01, 0x37, 0x50, 0x83, 0x47, 0x37, 
  0x00, 0x19, 0x3a, 0x50, 0x81, 0x63, 0x3a, 0x00, 0x0d, 0x3c, 0x50, 0x81, 0x63, 0x3c, 0x00, 0x0d, 
  0x3e, 0x60, 0x83, 0x5f, 0x3e, 0x00, 0x01, 0x37, 0x50, 0x83, 0x47, 0x37, 0x00, 0x19, 0x3a, 0x50, 
  0x81, 0x63, 0x3a, 0x00, 0x0d, 0x3c, 0x50, 0x81, 0x63, 0x3c, 0x00, 0x0d, 0x3a, 0x60, 0x00, 0x3e, 
  0x60, 0x83, 0x5f, 0x3a, 0x00, 0x00, 0x3e, 0x00, 0x01, 0x37, 0x50, 0x83, 0x47, 0x37, 0x00, 0x19, 
  0x3a, 0x50, 0x81, 0x63, 0x3a, 0x00, 0x0d, 0x3c, 0x50, 0x81, 0x63, 0x3c, 0x00, 0x0d, 0x3e, 0x60, 
  0x83, 0x5f, 0x3e, 0x00, 0x01, 0x37, 0x50, 0x81, 0x6f, 0x37, 0x00, 0x81, 0x71, 0x3a, 0x50, 0x81, 
  0x6f, 0x3a, 0x00, 0x81, 0x71, 0x41, 0x50, 0x8a, 0x57, 0x41, 0x00, 0x49, 0x3a, 0x50, 0x8a, 0x57, 
  0x3a, 0x00, 0x49, 0x3a, 0x50, 0x00, 0x3f, 0x50, 0x81, 0x63, 0x3a, 0x00, 0x00, 0x3f, 0x00, 0x0d, 
  0x3e, 0x50, 0x81, 0x63, 0x3e, 0x00, 0x0d, 0x41, 0x50, 0x87, 0x0f, 0x41, 0x00, 0x31, 0x3a, 0x50, 
  0x87, 0x0f, 0x3a, 0x00, 0x31, 0x3f, 0x50, 0x81, 0x63, 0x3f, 0x00, 0x0d, 0x3e, 0x50, 0x81, 0x63, 
  0x3e, 0x00, 0x0d, 0x38, 0x60, 0x00, 0x3c, 0x60, 0x83, 0x5f, 0x38, 0x00, 0x00, 0x3c, 0x00, 0x01, 
  0x37, 0x50, 0x83, 0x47, 0x37, 0x00, 0x19, 0x38, 0x50, 0x81, 0x63, 0x38, 0x00, 0x0d, 0x3a, 0x50, 
  0x81, 0x63, 0x3a, 0x00, 0x0d, 0x3c, 0x60, 0x83, 0x5f, 0x3c, 0x00, 0x01, 0x37, 0x50, 0x83, 0x47, 
  0x37, 0x00, 0x19, 0x38, 0x50, 0x81, 0x63, 0x38, 0x00, 0x0d, 0x3a, 0x50, 0x81, 0x63, 0x3a, 0x00, 
  0x0d, 0x38, 0x60, 0x00, 0x3c, 0x60, 0x83, 0x5f, 0x38, 0x00, 0x00, 0x3c, 0x00, 0x01, 0x37, 0x50, 
  0x83, 0x47, 0x37, 0x00, 0x19, 0x38, 0x50, 0x81, 0x63, 0x38, 0x00, 0x0d, 0x3a, 0x50, 0x81, 0x63, 
  0x3a, 0x00, 0x0d, 0x3c, 0x60, 0x83, 0x5f, 0x3c, 0x00, 0x01, 0x37, 0x50, 0x81, 0x6f, 0x37, 0x00, 
  0x81, 0x71, 0x3c, 0x50, 0x81, 0x6f, 0x3c, 0x00, 0x81, 0x71, 0x43, 0x60, 0x8a, 0x57, 0x43, 0x00, 
  0x49, 0x3c, 0x60, 0x8a, 0x57, 0x3c, 0x00, 0x49, 0x3c, 0x60, 0x00, 0x3f, 0x60, 0x81, 0x6f, 0x3c, 
  0x00, 0x00, 0x3f, 0x00, 0x01, 0x41, 0x60, 0x81, 0x6f, 0x41, 0x00, 0x01, 0x43, 0x60, 0x87, 0x0f, 
  0x43, 0x00, 0x31, 0x3c, 0x60, 0x87, 0x3f, 0x3c, 0x00, 0x01, 0x3f, 0x60, 0x81, 0x6f, 0x3f, 0x00, 
  0x01, 0x41, 0x60, 0x81, 0x63, 0x41, 0x00, 0x0d, 0x3e, 0x60, 0x87, 0x3f, 0x3e, 0x00, 0x01, 0x3a, 
  0x60, 0x81, 0x6f, 0x3a, 0x00, 0x01, 0x3c, 0x60, 0x81, 0x63, 0x3c, 0x00, 0x0d, 0x3e, 0x60, 0x87, 
  0x3f, 0x3e, 0x00, 0x01, 0x3a, 0x60, 0x81, 0x6f, 0x3a, 0x00, 0x01, 0x3c, 0x60, 0x81, 0x63, 0x3c, 
  0x00, 0x0d, 0x3e, 0x60, 0x87, 0x3f, 0x3e, 0x00, 0x01, 0x3a, 0x60, 0x81, 0x6f, 0x3a, 0x00, 0x01, 
  0x3c, 0x60, 0x81, 0x63, 0x3c, 0x00, 0x0d, 0x3e, 0x60, 0x83, 0x5f, 0x3e, 0x00, 0x01, 0x3a, 0x60, 
  0x81, 0x6f, 0x3a, 0x00, 0x81, 0x71, 0x3e, 0x60, 0x81, 0x6f, 0x3e, 0x00, 0x81, 0x71, 0x41, 0x60, 
  0x8a, 0x57, 0x41, 0x00, 0x49, 0x3a, 0x60, 0x8a, 0x57, 0x3a, 0x00, 0x49, 0x3e, 0x60, 0x87, 0x0f, 
  0x3e, 0x00, 0x31, 0x3f, 0x60, 0x83, 0x47, 0x3f, 0x00, 0x19, 0x3e, 0x60, 0x8a, 0x57, 0x3e, 0x00, 
  0x49, 0x3c, 0x60, 0x83, 0x5f, 0x3c, 0x00, 0x01, 0x37, 0x60, 0x83, 0x47, 0x37, 0x00, 0x19, 0x38, 
  0x60, 0x81, 0x6f, 0x38, 0x00, 0x01, 0x3a, 0x60, 0x81, 0x63, 0x3a, 0x00, 0x0d, 0x3c, 0x60, 0x83, 
  0x5f, 0x3c, 0x00, 0x01, 0x37, 0x60, 0x83, 0x47, 0x37, 0x00, 0x19, 0x38, 0x60, 0x81, 0x6f, 0x38, 
  0x00, 0x01, 0x3a, 0x60, 0x81, 0x63, 0x3a, 0x00, 0x0d, 0x3c, 0x60, 0x83, 0x5f, 0x3c, 0x00, 0x01, 
  0x37, 0x60, 0x83, 0x47, 0x37, 0x00, 0x19, 0x38, 0x60, 0x81, 0x6f, 0x38, 0x00, 0x01, 0x3a, 0x60, 
  0x81, 0x63, 0x3a, 0x00, 0x0d, 0x37, 0x60, 0x00, 0x3c, 0x60, 0x83, 0x47, 0x37, 0x00, 0x00, 0x3c, 
  0x00, 0x19, 0x37, 0x51, 0x00, 0x3c, 0x51, 0x83, 0x47, 0x37, 0x00, 0x00, 0x3c, 0x00, 0x19, 0x37, 
  0x41, 0x00, 0x3c, 0x41, 0x81, 0x6f, 0x37, 0x00, 0x00, 0x3c, 0x00, 0x81, 0x71, 0x48, 0x31, 0x83, 
  0x5f, 0x48, 0x00, 0x01, 0x3f, 0x31, 0x83, 0x47, 0x3f, 0x00, 0x19, 0x44, 0x31, 0x81, 0x6f, 0x44, 
  0x00, 0x01, 0x46, 0x31, 0x81, 0x63, 0x46, 0x00, 0x0d, 0x48, 0x31, 0x83, 0x5f, 0x48, 0x00, 0x01, 
  0x3f, 0x31, 0x83, 0x47, 0x3f, 0x00, 0x19, 0x44, 0x31, 0x81, 0x6f, 0x44, 0x00, 0x01, 0x48, 0x31, 
  0x81, 0x63, 0x48, 0x00, 0x0d, 0x46, 0x31, 0x83, 0x5f, 0x46, 0x00, 0x01, 0x3f, 0x31, 0x83, 0x47, 
  0x3f, 0x00, 0x19, 0x43, 0x31, 0x81, 0x6f, 0x43, 0x00, 0x01, 0x44, 0x31, 0x81, 0x63, 0x44, 0x00, 
  0x0d, 0x46, 0x31, 0x83, 0x5f, 0x46, 0x00, 0x01, 0x3f, 0x31, 0x83, 0x47, 0x3f, 0x00, 0x19, 0x43, 
  0x31, 0x81, 0x6f, 0x43, 0x00, 0x01, 0x46, 0x31, 0x81, 0x63, 0x46, 0x00, 0x0d, 0x44, 0x31, 0x83, 
  0x5f, 0x44, 0x00, 0x01, 0x3c, 0x31, 0x83, 0x47, 0x3c, 0x00, 0x19, 0x41, 0x31, 0x81, 0x6f, 0x41, 
  0x00, 0x01, 0x43, 0x31, 0x81, 0x63, 0x43, 0x00, 0x0d, 0x44, 0x31, 0x83, 0x5f, 0x44, 0x00, 0x01, 
  0x3c, 0x31, 0x83, 0x47, 0x3c, 0x00, 0x19, 0x43, 0x31, 0x81, 0x6f, 0x43, 0x00, 0x01, 0x44, 0x31, 
  0x81, 0x63, 0x44, 0x00, 0x0d, 0x43, 0x31, 0x83, 0x5f, 0x43, 0x00, 0x01, 0x3c, 0x31, 0x83, 0x47, 
  0x3c, 0x00, 0x19, 0x3f, 0x31, 0x81, 0x6f, 0x3f, 0x00, 0x01, 0x41, 0x31, 0x81, 0x63, 0x41, 0x00, 
  0x0d, 0x43, 0x31, 0x83, 0x5f, 0x43, 0x00, 0x01, 0x3c, 0x31, 0x83, 0x47, 0x3c, 0x00, 0x19, 0x3f, 
  0x31, 0x81, 0x6f, 0x3f, 0x00, 0x01, 0x41, 0x31, 0x81, 0x63, 0x41, 0x00, 0x0d, 0x3f, 0x31, 0x83, 
  0x5f, 0x3f, 0x00, 0x01, 0x38, 0x37, 0x83, 0x47, 0x38, 0x00, 0x19, 0x3c, 0x3e, 0x81, 0x6f, 0x3c, 
  0x00, 0x01, 0x3e, 0x41, 0x81, 0x63, 0x3e, 0x00, 0x0d, 0x3f, 0x45, 0x83, 0x5f, 0x3f, 0x00, 0x01, 
  0x38, 0x4b, 0x83, 0x47, 0x38, 0x00, 0x19, 0x3c, 0x52, 0x81, 0x6f, 0x3c, 0x00, 0x01, 0x3e, 0x55, 
  0x81, 0x63, 0x3e, 0x00, 0x0d, 0x3f, 0x59, 0x83, 0x5f, 0x3f, 0x00, 0x01, 0x38, 0x60, 0x81, 0x6f, 
  0x38, 0x00, 0x81, 0x71, 0x3f, 0x60, 0x81, 0x6f, 0x3f, 0x00, 0x81, 0x71, 0x41, 0x60, 0x83, 0x5f, 
  0x41, 0x00, 0x01, 0x3f, 0x60, 0x81, 0x6f, 0x3f, 0x00, 0x81, 0x71, 0x41, 0x60, 0x81, 0x6f, 0x41, 
  0x00, 0x81, 0x71, 0x43, 0x73, 0x83, 0x5f, 0x43, 0x00, 0x01, 0x3c, 0x60, 0x83, 0x47, 0x3c, 0x00, 
  0x19, 0x3f, 0x60, 0x81, 0x63, 0x3f, 0x00, 0x0d, 0x41, 0x60, 0x81, 0x63, 0x41, 0x00, 0x0d, 0x43, 
  0x73, 0x83, 0x5f, 0x43, 0x00, 0x01, 0x3c, 0x60, 0x83, 0x47, 0x3c, 0x00, 0x19, 0x3f, 0x60, 0x81, 
  0x63, 0x3f, 0x00, 0x0d, 0x41, 0x60, 0x81, 0x63, 0x41, 0x00, 0x0d, 0x43, 0x73, 0x83, 0x5f, 0x43, 
  0x00, 0x01, 0x3c, 0x60, 0x83, 0x47, 0x3c, 0x00, 0x19, 0x3f, 0x60, 0x81, 0x63, 0x3f, 0x00, 0x0d, 
  0x41, 0x60, 0x81, 0x63, 0x41, 0x00, 0x0d, 0x43, 0x60, 0x83, 0x5f, 0x43, 0x00, 0x01, 0x44, 0x60, 
  0x83, 0x5f, 0x44, 0x00, 0x01, 0x46, 0x60, 0x83, 0x47, 0x46, 0x00, 0x19, 0x48, 0x60, 0x83, 0x5f, 
  0x48, 0x00, 0x01, 0x3f, 0x60, 0x83, 0x47, 0x3f, 0x00, 0x19, 0x44, 0x60, 0x81, 0x6f, 0x44, 0x00, 
  0x01, 0x46, 0x60, 0x81, 0x63, 0x46, 0x00, 0x0d, 0x48, 0x60, 0x83, 0x5f, 0x48, 0x00, 0x01, 0x3f, 
  0x60, 0x83, 0x47, 0x3f, 0x00, 0x19, 0x44, 0x60, 0x81, 0x6f, 0x44, 0x00, 0x01, 0x48, 0x60, 0x81, 
  0x63, 0x48, 0x00, 0x0d, 0x46, 0x60, 0x83, 0x5f, 0x46, 0x00, 0x01, 0x3f, 0x60, 0x83, 0x47, 0x3f, 
  0x00, 0x19, 0x43, 0x60, 0x81, 0x6f, 0x43, 0x00, 0x01, 0x44, 0x60, 0x81, 0x63, 0x44, 0x00, 0x0d, 
  0x46, 0x60, 0x83, 0x5f, 0x46, 0x00, 0x01, 0x3f, 0x60, 0x81, 0x6f, 0x3f, 0x00, 0x81, 0x71, 0x43, 
  0x60, 0x81, 0x6f, 0x43, 0x00, 0x81, 0x71, 0x44, 0x60, 0x83, 0x5f, 0x44, 0x00, 0x01, 0x3c, 0x60, 
  0x83, 0x47, 0x3c, 0x00, 0x19, 0x41, 0x60, 0x81, 0x6f, 0x41, 0x00, 0x01, 0x43, 0x60, 0x81, 0x63, 
  0x43, 0x00, 0x0d, 0x44, 0x60, 0x83, 0x5f, 0x44, 0x00, 0x01, 0x3c, 0x60, 0x83, 0x47, 0x3c, 0x00, 
  0x19, 0x43, 0x60, 0x81, 0x6f, 0x43, 0x00, 0x01, 0x44, 0x60, 0x81, 0x63, 0x44, 0x00, 0x0d, 0x43, 
  0x60, 0x83, 0x5f, 0x43, 0x00, 0x01, 0x3c, 0x60, 0x83, 0x47, 0x3c, 0x00, 0x19, 0x3f, 0x60, 0x81, 
  0x6f, 0x3f, 0x00, 0x01, 0x41, 0x60, 0x81, 0x63, 0x41, 0x00, 0x0d, 0x43, 0x60, 0x83, 0x5f, 0x43, 
  0x00, 0x01, 0x3c, 0x60, 0x81, 0x6f, 0x3c, 0x00, 0x81, 0x71, 0x3e, 0x60, 0x81, 0x6f, 0x3e, 0x00, 
  0x81, 0x71, 0x3f, 0x60, 0x83, 0x5f, 0x3f, 0x00, 0x01, 0x38, 0x60, 0x83, 0x47, 0x38, 0x00, 0x19, 
  0x3c, 0x60, 0x81, 0x6f, 0x3c, 0x00, 0x01, 0x3e, 0x60, 0x81, 0x63, 0x3e, 0x00, 0x0d, 0x3f, 0x60, 
  0x83, 0x5f, 0x3f, 0x00, 0x01, 0x38, 0x60, 0x83, 0x47, 0x38, 0x00, 0x19, 0x3c, 0x60, 0x81, 0x6f, 
  0x3c, 0x00, 0x01, 0x3e, 0x60, 0x81, 0x63, 0x3e, 0x00, 0x0d, 0x3f, 0x60, 0x83, 0x5f, 0x3f, 0x00, 
  0x01, 0x38, 0x60, 0x81, 0x6f, 0x38, 0x00, 0x81, 0x71, 0x3f, 0x60, 0x81, 0x6f, 0x3f, 0x00, 0x81, 
  0x71, 0x3e, 0x70, 0x83, 0x5f, 0x3e, 0x00, 0x01, 0x37, 0x70, 0x81, 0x6f, 0x37, 0x00, 0x81, 0x71, 
  0x3e, 0x70, 0x81, 0x6f, 0x3e, 0x00, 0x81, 0x71, 0x3c, 0x7f, 0x83, 0x5f, 0x3c, 0x00, 0x01, 0x37, 
  0x70, 0x83, 0x47, 0x37, 0x00, 0x19, 0x38, 0x70, 0x81, 0x63, 0x38, 0x00, 0x0d, 0x3a, 0x70, 0x81, 
  0x63, 0x3a, 0x00, 0x0d, 0x3c, 0x7f, 0x83, 0x5f, 0x3c, 0x00, 0x01, 0x37, 0x70, 0x83, 0x47, 0x37, 
  0x00, 0x19, 0x38, 0x70, 0x81, 0x63, 0x38, 0x00, 0x0d, 0x3a, 0x70, 0x81, 0x63, 0x3a, 0x00, 0x0d, 
  0x3c, 0x7f, 0x83, 0x5f, 0x3c, 0x00, 0x01, 0x37, 0x70, 0x83, 0x47, 0x37, 0x00, 0x19, 0x38, 0x70, 
  0x81, 0x63, 0x38, 0x00, 0x0d, 0x3a, 0x70, 0x81, 0x63, 0x3a, 0x00, 0x0d, 0x3c, 0x7f, 0x83, 0x5f, 
  0x3c, 0x00, 0x01, 0x37, 0x70, 0x83, 0x47, 0x37, 0x00, 0x19, 0x38, 0x70, 0x81, 0x63, 0x38, 0x00, 
  0x0d, 0x3a, 0x70, 0x81, 0x63, 0x3a, 0x00, 0x0d, 0x3c, 0x40, 0x83, 0x47, 0x3c, 0x00, 0x19, 0x43, 
  0x40, 0x83, 0x47, 0x43, 0x00, 0x19, 0x44, 0x40, 0x81, 0x63, 0x44, 0x00, 0x0d, 0x46, 0x40, 0x81, 
  0x63, 0x46, 0x00, 0x0d, 0x48, 0x40, 0x83, 0x47, 0x48, 0x00, 0x19, 0x43, 0x40, 0x83, 0x47, 0x43, 
  0x00, 0x19, 0x44, 0x40, 0x81, 0x63, 0x44, 0x00, 0x0d, 0x46, 0x40, 0x81, 0x63, 0x46, 0x00, 0x0d, 
  0x48, 0x40, 0x83, 0x47, 0x48, 0x00, 0x19, 0x43, 0x40, 0x83, 0x47, 0x43, 0x00, 0x19, 0x44, 0x40, 
  0x81, 0x63, 0x44, 0x00, 0x0d, 0x46, 0x40, 0x81, 0x63, 0x46, 0x00, 0x0d, 0x48, 0x40, 0x8a, 0x57, 
  0x48, 0x00, 0x01, 0xff, 0x2f, 0x00, 0x4d, 0x54, 0x72, 0x6b, 0x00, 0x00, 0x09, 0x26, 0x00, 0xff, 
  0x59, 0x02, 0xfd, 0x00, 0x00, 0xff, 0x21, 0x01, 0x00, 0x00, 0x90, 0x24, 0x40, 0x00, 0x2b, 0x40, 
  0x95, 0x2f, 0x24, 0x00, 0x00, 0x2b, 0x00, 0x81, 0x11, 0x24, 0x40, 0x00, 0x2b, 0x40, 0x95, 0x2f, 
  0x24, 0x00, 0x00, 0x2b, 0x00, 0x81, 0x11, 0x24, 0x40, 0x00, 0x2b, 0x40, 0x95, 0x2f, 0x24, 0x00, 
  0x00, 0x2b, 0x00, 0x81, 0x11, 0x24, 0x40, 0x00, 0x2b, 0x40, 0x95, 0x2f, 0x24, 0x00, 0x00, 0x2b, 
  0x00, 0x81, 0x11, 0x24, 0x40, 0x00, 0x2b, 0x40, 0x95, 0x2f, 0x24, 0x00, 0x00, 0x2b, 0x00, 0x81, 
  0x11, 0x24, 0x40, 0x00, 0x2b, 0x40, 0x95, 0x2f, 0x24, 0x00, 0x00, 0x2b, 0x00, 0x81, 0x11, 0x2b, 
  0x40, 0x00, 0x32, 0x40, 0x95, 0x2f, 0x2b, 0x00, 0x00, 0x32, 0x00, 0x81, 0x11, 0x2b, 0x40, 0x00, 
  0x32, 0x40, 0x95, 0x2f, 0x2b, 0x00, 0x00, 0x32, 0x00, 0x81, 0x11, 0x22, 0x40, 0x00, 0x29, 0x40, 
  0x95, 0x2f, 0x22, 0x00, 0x00, 0x29, 0x00, 0x81, 0x11, 0x22, 0x40, 0x00, 0x29, 0x40, 0x95, 0x2f, 
  0x22, 0x00, 0x00, 0x29, 0x00, 0x81, 0x11, 0x29, 0x40, 0x00, 0x30, 0x40, 0x95, 0x2f, 0x29, 0x00, 
  0x00, 0x30, 0x00, 0x81, 0x11, 0x29, 0x40, 0x00, 0x30, 0x40, 0x91, 0x67, 0x29, 0x00, 0x00, 0x30, 
  0x00, 0x79, 0x29, 0x40, 0x00, 0x30, 0x40, 0x81, 0x6f, 0x29, 0x00, 0x00, 0x30, 0x00, 0x81, 0x71, 
  0x24, 0x50, 0x00, 0x2b, 0x50, 0x87, 0x0f, 0x24, 0x00, 0x00, 0x2b, 0x00, 0x31, 0x24, 0x50, 0x00, 
  0x2b, 0x50, 0x81, 0x6f, 0x24, 0x00, 0x00, 0x2b, 0x00, 0x81, 0x71, 0x24, 0x50, 0x00, 0x2b, 0x50, 
  0x87, 0x0f, 0x24, 0x00, 0x00, 0x2b, 0x00, 0x31, 0x24, 0x50, 0x00, 0x2b, 0x50, 0x81, 0x6f, 0x24, 
  0x00, 0x00, 0x2b, 0x00, 0x81, 0x71, 0x24, 0x50, 0x00, 0x2b, 0x50, 0x87, 0x0f, 0x24, 0x00, 0x00, 
  0x2b, 0x00, 0x31, 0x24, 0x50, 0x00, 0x2b, 0x50, 0x81, 0x6f, 0x24, 0x00, 0x00, 0x2b, 0x00, 0x81, 
  0x71, 0x24, 0x50, 0x00, 0x2b, 0x50, 0x87, 0x0f, 0x24, 0x00, 0x00, 0x2b, 0x00, 0x31, 0x24, 0x50, 
  0x00, 0x2b, 0x50, 0x81, 0x6f, 0x24, 0x00, 0x00, 0x2b, 0x00, 0x81, 0x71, 0x2b, 0x50, 0x00, 0x32, 
  0x50, 0x87, 0x0f, 0x2b, 0x00, 0x00, 0x32, 0x00, 0x31, 0x2b, 0x50, 0x00, 0x32, 0x50, 0x81, 0x6f, 
  0x2b, 0x00, 0x00, 0x32, 0x00, 0x81, 0x71, 0x2b, 0x50, 0x00, 0x32, 0x50, 0x87, 0x0f, 0x2b, 0x00, 
  0x00, 0x32, 0x00, 0x31, 0x2b, 0x50, 0x00, 0x32, 0x50, 0x81, 0x6f, 0x2b, 0x00, 0x00, 0x32, 0x00, 
  0x81, 0x71, 0x2b, 0x50, 0x00, 0x32, 0x50, 0x87, 0x0f, 0x2b, 0x00, 0x00, 0x32, 0x00, 0x31, 0x2b, 
  0x50, 0x00, 0x32, 0x50, 0x81, 0x6f, 0x2b, 0x00, 0x00, 0x32, 0x00, 0x81, 0x71, 0x2b, 0x50, 0x00, 
  0x32, 0x50, 0x87, 0x0f, 0x2b, 0x00, 0x00, 0x32, 0x00, 0x31, 0x2b, 0x50, 0x00, 0x32, 0x50, 0x81, 
  0x6f, 0x2b, 0x00, 0x00, 0x32, 0x00, 0x81, 0x71, 0x22, 0x50, 0x00, 0x29, 0x50, 0x87, 0x0f, 0x22, 
  0x00, 0x00, 0x29, 0x00, 0x31, 0x22, 0x50, 0x00, 0x29, 0x50, 0x81, 0x6f, 0x22, 0x00, 0x00, 0x29, 
  0x00, 0x81, 0x71, 0x22, 0x50, 0x00, 0x29, 0x50, 0x87, 0x0f, 0x22, 0x00, 0x00, 0x29, 0x00, 0x31, 
  0x22, 0x50, 0x00, 0x29, 0x50, 0x81, 0x6f, 0x22, 0x00, 0x00, 0x29, 0x00, 0x81, 0x71, 0x22, 0x50, 
  0x00, 0x29, 0x50, 0x87, 0x0f, 0x22, 0x00, 0x00, 0x29, 0x00, 0x31, 0x22, 0x50, 0x00, 0x29, 0x50, 
  0x81, 0x6f, 0x22, 0x00, 0x00, 0x29, 0x00, 0x81, 0x71, 0x22, 0x50, 0x00, 0x29, 0x50, 0x87, 0x0f, 
  0x22, 0x00, 0x00, 0x29, 0x00, 0x31, 0x22, 0x50, 0x00, 0x29, 0x50, 0x81, 0x6f, 0x22, 0x00, 0x00, 
  0x29, 0x00, 0x81, 0x71, 0x24, 0x50, 0x00, 0x2b, 0x50, 0x87, 0x0f, 0x24, 0x00, 0x00, 0x2b, 0x00, 
  0x31, 0x24, 0x50, 0x00, 0x2b, 0x50, 0x81, 0x6f, 0x24, 0x00, 0x00, 0x2b, 0x00, 0x81, 0x71, 0x24, 
  0x50, 0x00, 0x2b, 0x50, 0x87, 0x0f, 0x24, 0x00, 0x00, 0x2b, 0x00, 0x31, 0x24, 0x50, 0x00, 0x2b, 
  0x50, 0x81, 0x6f, 0x24, 0x00, 0x00, 0x2b, 0x00, 0x81, 0x71, 0x24, 0x50, 0x00, 0x2b, 0x50, 0x87, 
  0x0f, 0x24, 0x00, 0x00, 0x2b, 0x00, 0x31, 0x24, 0x50, 0x00, 0x2b, 0x50, 0x81, 0x6f, 0x24, 0x00, 
  0x00, 0x2b, 0x00, 0x81, 0x71, 0x24, 0x50, 0x00, 0x2b, 0x50, 0x87, 0x0f, 0x24, 0x00, 0x00, 0x2b, 
  0x00, 0x31, 0x24, 0x50, 0x00, 0x2b, 0x50, 0x81, 0x6f, 0x24, 0x00, 0x00, 0x2b, 0x00, 0x81, 0x71, 
  0x24, 0x60, 0x81, 0x63, 0x24, 0x00, 0x0d, 0x2b, 0x60, 0x81, 0x63, 0x2b, 0x00, 0x0d, 0x30, 0x60, 
  0x81, 0x63, 0x30, 0x00, 0x0d, 0x33, 0x60, 0x81, 0x63, 0x33, 0x00, 0x0d, 0x37, 0x60, 0x83, 0x47, 
  0x37, 0x00, 0x19, 0x24, 0x60, 0x81, 0x63, 0x24, 0x00, 0x0d, 0x2b, 0x60, 0x81, 0x63, 0x2b, 0x00, 
  0x0d, 0x30, 0x60, 0x81, 0x63, 0x30, 0x00, 0x0d, 0x33, 0x60, 0x81, 0x63, 0x33, 0x00, 0x0d, 0x37, 
  0x60, 0x83, 0x47, 0x37, 0x00, 0x19, 0x24, 0x60, 0x81, 0x63, 0x24, 0x00, 0x0d, 0x2b, 0x60, 0x81, 
  0x63, 0x2b, 0x00, 0x0d, 0x30, 0x60, 0x81, 0x63, 0x30, 0x00, 0x0d, 0x33, 0x60, 0x81, 0x63, 0x33, 
  0x00, 0x0d, 0x37, 0x60, 0x83, 0x47, 0x37, 0x00, 0x19, 0x24, 0x60, 0x81, 0x63, 0x24, 0x00, 0x0d, 
  0x2b, 0x60, 0x81, 0x63, 0x2b, 0x00, 0x0d, 0x30, 0x60, 0x81, 0x63, 0x30, 0x00, 0x0d, 0x33, 0x60, 
  0x81, 0x63, 0x33, 0x00, 0x0d, 0x37, 0x60, 0x83, 0x47, 0x37, 0x00, 0x19, 0x2b, 0x60, 0x81, 0x63, 
  0x2b, 0x00, 0x0d, 0x32, 0x60, 0x81, 0x63, 0x32, 0x00, 0x0d, 0x37, 0x60, 0x81, 0x63, 0x37, 0x00, 
  0x0d, 0x32, 0x60, 0x81, 0x63, 0x32, 0x00, 0x0d, 0x37, 0x60, 0x81, 0x63, 0x37, 0x00, 0x0d, 0x32, 
  0x60, 0x81, 0x63, 0x32, 0x00, 0x0d, 0x2b, 0x60, 0x81, 0x63, 0x2b, 0x00, 0x0d, 0x32, 0x60, 0x81, 
  0x63, 0x32, 0x00, 0x0d, 0x37, 0x60, 0x81, 0x63, 0x37, 0x00, 0x0d, 0x32, 0x60, 0x81, 0x63, 0x32, 
  0x00, 0x0d, 0x37, 0x60, 0x81, 0x63, 0x37, 0x00, 0x0d, 0x32, 0x60, 0x81, 0x63, 0x32, 0x00, 0x0d, 
  0x2b, 0x60, 0x81, 0x63, 0x2b, 0x00, 0x0d, 0x32, 0x60, 0x81, 0x63, 0x32, 0x00, 0x0d, 0x37, 0x60, 
  0x81, 0x63, 0x37, 0x00, 0x0d, 0x32, 0x60, 0x81, 0x63, 0x32, 0x00, 0x0d, 0x37, 0x60, 0x81, 0x63, 
  0x37, 0x00, 0x0d, 0x32, 0x60, 0x81, 0x63, 0x32, 0x00, 0x0d, 0x2b, 0x60, 0x81, 0x63, 0x2b, 0x00, 
  0x0d, 0x32, 0x60, 0x81, 0x63, 0x32, 0x00, 0x0d, 0x37, 0x60, 0x81, 0x63, 0x37, 0x00, 0x0d, 0x32, 
  0x60, 0x81, 0x63, 0x32, 0x00, 0x0d, 0x37, 0x60, 0x81, 0x63, 0x37, 0x00, 0x0d, 0x32, 0x60, 0x81, 
  0x63, 0x32, 0x00, 0x0d, 0x2e, 0x60, 0x81, 0x63, 0x2e, 0x00, 0x0d, 0x35, 0x60, 0x81, 0x63, 0x35, 
  0x00, 0x0d, 0x3a, 0x60, 0x81, 0x63, 0x3a, 0x00, 0x0d, 0x35, 0x60, 0x81, 0x63, 0x35, 0x00, 0x0d, 
  0x3a, 0x60, 0x81, 0x63, 0x3a, 0x00, 0x0d, 0x35, 0x60, 0x81, 0x63, 0x35, 0x00, 0x0d, 0x2e, 0x60, 
  0x81, 0x63, 0x2e, 0x00, 0x0d, 0x35, 0x60, 0x81, 0x63, 0x35, 0x00, 0x0d, 0x3a, 0x60, 0x81, 0x63, 
  0x3a, 0x00, 0x0d, 0x35, 0x60, 0x81, 0x63, 0x35, 0x00, 0x0d, 0x3a, 0x60, 0x81, 0x63, 0x3a, 0x00, 
  0x0d, 0x35, 0x60, 0x81, 0x63, 0x35, 0x00, 0x0d, 0x2e, 0x60, 0x81, 0x63, 0x2e, 0x00, 0x0d, 0x35, 
  0x60, 0x81, 0x63, 0x35, 0x00, 0x0d, 0x3a, 0x60, 0x81, 0x63, 0x3a, 0x00, 0x0d, 0x35, 0x60, 0x81, 
  0x63, 0x35, 0x00, 0x0d, 0x3a, 0x60, 0x81, 0x63, 0x3a, 0x00, 0x0d, 0x35, 0x60, 0x81, 0x63, 0x35, 
  0x00, 0x0d, 0x2e, 0x60, 0x81, 0x63, 0x2e, 0x00, 0x0d, 0x35, 0x60, 0x81, 0x63, 0x35, 0x00, 0x0d, 
  0x3a, 0x60, 0x81, 0x63, 0x3a, 0x00, 0x0d, 0x35, 0x60, 0x81, 0x63, 0x35, 0x00, 0x0d, 0x3a, 0x60, 
  0x81, 0x63, 0x3a, 0x00, 0x0d, 0x35, 0x60, 0x81, 0x63, 0x35, 0x00, 0x0d, 0x24, 0x60, 0x81, 0x63, 
  0x24, 0x00, 0x0d, 0x2b, 0x60, 0x81, 0x63, 0x2b, 0x00, 0x0d, 0x30, 0x60, 0x81, 0x63, 0x30, 0x00, 
  0x0d, 0x2b, 0x60, 0x81, 0x63, 0x2b, 0x00, 0x0d, 0x30, 0x60, 0x81, 0x63, 0x30, 0x00, 0x0d, 0x2b, 
  0x60, 0x81, 0x63, 0x2b, 0x00, 0x0d, 0x24, 0x60, 0x81, 0x63, 0x24, 0x00, 0x0d, 0x2b, 0x60, 0x81, 
  0x63, 0x2b, 0x00, 0x0d, 0x30, 0x60, 0x81, 0x63, 0x30, 0x00, 0x0d, 0x2b, 0x60, 0x81, 0x63, 0x2b, 
  0x00, 0x0d, 0x30, 0x60, 0x81, 0x63, 0x30, 0x00, 0x0d, 0x2b, 0x60, 0x81, 0x63, 0x2b, 0x00, 0x0d, 
  0x24, 0x60, 0x81, 0x63, 0x24, 0x00, 0x0d, 0x2b, 0x60, 0x81, 0x63, 0x2b, 0x00, 0x0d, 0x30, 0x60, 
  0x81, 0x63, 0x30, 0x00, 0x0d, 0x2b, 0x60, 0x81, 0x63, 0x2b, 0x00, 0x0d, 0x30, 0x60, 0x81, 0x63, 
  0x30, 0x00, 0x0d, 0x2b, 0x60, 0x81, 0x63, 0x2b, 0x00, 0x0d, 0x24, 0x60, 0x00, 0x2b, 0x60, 0x83, 
  0x47, 0x24, 0x00, 0x00, 0x2b, 0x00, 0x19, 0x24, 0x51, 0x00, 0x2b, 0x51, 0x83, 0x47, 0x24, 0x00, 
  0x00, 0x2b, 0x00, 0x19, 0x24, 0x41, 0x00, 0x2b, 0x41, 0x81, 0x6f, 0x24, 0x00, 0x00, 0x2b, 0x00, 
  0x81, 0x71, 0x2c, 0x31, 0x00, 0x33, 0x31, 0x87, 0x0f, 0x2c, 0x00, 0x00, 0x33, 0x00, 0x31, 0x2c, 
  0x31, 0x00, 0x33, 0x31, 0x81, 0x6f, 0x2c, 0x00, 0x00, 0x33, 0x00, 0x81, 0x71, 0x2c, 0x31, 0x00, 
  0x33, 0x31, 0x87, 0x0f, 0x2c, 0x00, 0x00, 0x33, 0x00, 0x31, 0x2c, 0x31, 0x00, 0x33, 0x31, 0x81, 
  0x6f, 0x2c, 0x00, 0x00, 0x33, 0x00, 0x81, 0x71, 0x27, 0x31, 0x00, 0x2e, 0x31, 0x87, 0x0f, 0x27, 
  0x00, 0x00, 0x2e, 0x00, 0x31, 0x27, 0x31, 0x00, 0x2e, 0x31, 0x81, 0x6f, 0x27, 0x00, 0x00, 0x2e, 
  0x00, 0x81, 0x71, 0x27, 0x31, 0x00, 0x2e, 0x31, 0x87, 0x0f, 0x27, 0x00, 0x00, 0x2e, 0x00, 0x31, 
  0x27, 0x31, 0x00, 0x2e, 0x31, 0x81, 0x6f, 0x27, 0x00, 0x00, 0x2e, 0x00, 0x81, 0x71, 0x29, 0x31, 
  0x00, 0x30, 0x31, 0x87, 0x0f, 0x29, 0x00, 0x00, 0x30, 0x00, 0x31, 0x29, 0x31, 0x00, 0x30, 0x31, 
  0x81, 0x6f, 0x29, 0x00, 0x00, 0x30, 0x00, 0x81, 0x71, 0x29, 0x31, 0x00, 0x30, 0x31, 0x87, 0x0f, 
  0x29, 0x00, 0x00, 0x30, 0x00, 0x31, 0x29, 0x31, 0x00, 0x30, 0x31, 0x81, 0x6f, 0x29, 0x00, 0x00, 
  0x30, 0x00, 0x81, 0x71, 0x24, 0x31, 0x00, 0x2b, 0x31, 0x87, 0x0f, 0x24, 0x00, 0x00, 0x2b, 0x00, 
  0x31, 0x24, 0x31, 0x00, 0x2b, 0x31, 0x81, 0x6f, 0x24, 0x00, 0x00, 0x2b, 0x00, 0x81, 0x71, 0x24, 
  0x31, 0x00, 0x2b, 0x31, 0x87, 0x0f, 0x24, 0x00, 0x00, 0x2b, 0x00, 0x31, 0x24, 0x31, 0x00, 0x2b, 
  0x31, 0x81, 0x6f, 0x24, 0x00, 0x00, 0x2b, 0x00, 0x81, 0x71, 0x20, 0x31, 0x00, 0x27, 0x31, 0x87, 
  0x0f, 0x20, 0x00, 0x00, 0x27, 0x00, 0x31, 0x20, 0x3e, 0x00, 0x27, 0x3e, 0x81, 0x6f, 0x20, 0x00, 
  0x00, 0x27, 0x00, 0x81, 0x71, 0x20, 0x45, 0x00, 0x27, 0x45, 0x87, 0x0f, 0x20, 0x00, 0x00, 0x27, 
  0x00, 0x31, 0x20, 0x52, 0x00, 0x27, 0x52, 0x81, 0x6f, 0x20, 0x00, 0x00, 0x27, 0x00, 0x81, 0x71, 
  0x20, 0x59, 0x00, 0x27, 0x59, 0x81, 0x6f, 0x20, 0x00, 0x00, 0x27, 0x00, 0x81, 0x71, 0x20, 0x60, 
  0x00, 0x27, 0x60, 0x81, 0x6f, 0x20, 0x00, 0x00, 0x27, 0x00, 0x81, 0x71, 0x20, 0x60, 0x00, 0x27, 
  0x60, 0x81, 0x6f, 0x20, 0x00, 0x00, 0x27, 0x00, 0x81, 0x71, 0x1f, 0x60, 0x00, 0x26, 0x60, 0x81, 
  0x6f, 0x1f, 0x00, 0x00, 0x26, 0x00, 0x81, 0x71, 0x1f, 0x60, 0x00, 0x26, 0x60, 0x81, 0x6f, 0x1f, 
  0x00, 0x00, 0x26, 0x00, 0x81, 0x71, 0x1f, 0x60, 0x00, 0x26, 0x60, 0x81, 0x6f, 0x1f, 0x00, 0x00, 
  0x26, 0x00, 0x81, 0x71, 0x24, 0x60, 0x00, 0x2b, 0x60, 0x87, 0x0f, 0x24, 0x00, 0x00, 0x2b, 0x00, 
  0x31, 0x24, 0x60, 0x00, 0x2b, 0x60, 0x81, 0x6f, 0x24, 0x00, 0x00, 0x2b, 0x00, 0x81, 0x71, 0x24, 
  0x60, 0x00, 0x2b, 0x60, 0x87, 0x0f, 0x24, 0x00, 0x00, 0x2b, 0x00, 0x31, 0x24, 0x60, 0x00, 0x2b, 
  0x60, 0x81, 0x6f, 0x24, 0x00, 0x00, 0x2b, 0x00, 0x81, 0x71, 0x24, 0x60, 0x00, 0x2b, 0x60, 0x87, 
  0x0f, 0x24, 0x00, 0x00, 0x2b, 0x00, 0x31, 0x24, 0x60, 0x00, 0x2b, 0x60, 0x81, 0x6f, 0x24, 0x00, 
  0x00, 0x2b, 0x00, 0x81, 0x71, 0x27, 0x60, 0x00, 0x2e, 0x60, 0x87, 0x0f, 0x27, 0x00, 0x00, 0x2e, 
  0x00, 0x31, 0x27, 0x60, 0x00, 0x2e, 0x60, 0x81, 0x6f, 0x27, 0x00, 0x00, 0x2e, 0x00, 0x81, 0x71, 
  0x2c, 0x60, 0x00, 0x33, 0x60, 0x87, 0x0f, 0x2c, 0x00, 0x00, 0x33, 0x00, 0x31, 0x2c, 0x60, 0x00, 
  0x33, 0x60, 0x77, 0x2c, 0x00, 0x00, 0x33, 0x00, 0x79, 0x2c, 0x60, 0x00, 0x33, 0x60, 0x77, 0x2c, 
  0x00, 0x00, 0x33, 0x00, 0x79, 0x2c, 0x60, 0x00, 0x33, 0x60, 0x87, 0x0f, 0x2c, 0x00, 0x00, 0x33, 
  0x00, 0x31, 0x2c, 0x60, 0x00, 0x33, 0x60, 0x77, 0x2c, 0x00, 0x00, 0x33, 0x00, 0x79, 0x2c, 0x60, 
  0x00, 0x33, 0x60, 0x77, 0x2c, 0x00, 0x00, 0x33, 0x00, 0x79, 0x27, 0x60, 0x00, 0x2e, 0x60, 0x87, 
  0x0f, 0x27, 0x00, 0x00, 0x2e, 0x00, 0x31, 0x27, 0x60, 0x00, 0x2e, 0x60, 0x77, 0x27, 0x00, 0x00, 
  0x2e, 0x00, 0x79, 0x27, 0x60, 0x00, 0x2e, 0x60, 0x77, 0x27, 0x00, 0x00, 0x2e, 0x00, 0x79, 0x27, 
  0x60, 0x00, 0x2e, 0x60, 0x87, 0x0f, 0x27, 0x00, 0x00, 0x2e, 0x00, 0x31, 0x27, 0x60, 0x00, 0x2e, 
  0x60, 0x77, 0x27, 0x00, 0x00, 0x2e, 0x00, 0x79, 0x27, 0x60, 0x00, 0x2e, 0x60, 0x77, 0x27, 0x00, 
  0x00, 0x2e, 0x00, 0x79, 0x29, 0x60, 0x00, 0x30, 0x60, 0x87, 0x0f, 0x29, 0x00, 0x00, 0x30, 0x00, 
  0x31, 0x29, 0x60, 0x00, 0x30, 0x60, 0x77, 0x29, 0x00, 0x00, 0x30, 0x00, 0x79, 0x29, 0x60, 0x00, 
  0x30, 0x60, 0x77, 0x29, 0x00, 0x00, 0x30, 0x00, 0x79, 0x29, 0x60, 0x00, 0x30, 0x60, 0x87, 0x0f, 
  0x29, 0x00, 0x00, 0x30, 0x00, 0x31, 0x29, 0x60, 0x00, 0x30, 0x60, 0x77, 0x29, 0x00, 0x00, 0x30, 
  0x00, 0x79, 0x29, 0x60, 0x00, 0x30, 0x60, 0x77, 0x29, 0x00, 0x00, 0x30, 0x00, 0x79, 0x24, 0x60, 
  0x00, 0x2b, 0x60, 0x87, 0x0f, 0x24, 0x00, 0x00, 0x2b, 0x00, 0x31, 0x24, 0x60, 0x00, 0x2b, 0x60, 
  0x77, 0x24, 0x00, 0x00, 0x2b, 0x00, 0x79, 0x24, 0x60, 0x00, 0x2b, 0x60, 0x77, 0x24, 0x00, 0x00, 
  0x2b, 0x00, 0x79, 0x24, 0x60, 0x00, 0x2b, 0x60, 0x87, 0x0f, 0x24, 0x00, 0x00, 0x2b, 0x00, 0x31, 
  0x24, 0x60, 0x00, 0x2b, 0x60, 0x77, 0x24, 0x00, 0x00, 0x2b, 0x00, 0x79, 0x24, 0x60, 0x00, 0x2b, 
  0x60, 0x77, 0x24, 0x00, 0x00, 0x2b, 0x00, 0x79, 0x20, 0x60, 0x00, 0x27, 0x60, 0x87, 0x0f, 0x20, 
  0x00, 0x00, 0x27, 0x00, 0x31, 0x20, 0x60, 0x00, 0x27, 0x60, 0x77, 0x20, 0x00, 0x00, 0x27, 0x00, 
  0x79, 0x20, 0x60, 0x00, 0x27, 0x60, 0x77, 0x20, 0x00, 0x00, 0x27, 0x00, 0x79, 0x20, 0x60, 0x00, 
  0x27, 0x60, 0x87, 0x0f, 0x20, 0x00, 0x00, 0x27, 0x00, 0x31, 0x20, 0x60, 0x00, 0x27, 0x60, 0x77, 
  0x20, 0x00, 0x00, 0x27, 0x00, 0x79, 0x20, 0x60, 0x00, 0x27, 0x60, 0x77, 0x20, 0x00, 0x00, 0x27, 
  0x00, 0x79, 0x20, 0x60, 0x00, 0x27, 0x60, 0x81, 0x6f, 0x20, 0x00, 0x00, 0x27, 0x00, 0x81, 0x71, 
  0x20, 0x60, 0x00, 0x27, 0x60, 0x81, 0x6f, 0x20, 0x00, 0x00, 0x27, 0x00, 0x81, 0x71, 0x20, 0x60, 
  0x00, 0x27, 0x60, 0x81, 0x6f, 0x20, 0x00, 0x00, 0x27, 0x00, 0x81, 0x71, 0x1f, 0x70, 0x00, 0x26, 
  0x70, 0x81, 0x6f, 0x1f, 0x00, 0x00, 0x26, 0x00, 0x81, 0x71, 0x1f, 0x70, 0x00, 0x26, 0x70, 0x81, 
  0x6f, 0x1f, 0x00, 0x00, 0x26, 0x00, 0x81, 0x71, 0x1f, 0x70, 0x00, 0x26, 0x70, 0x81, 0x6f, 0x1f, 
  0x00, 0x00, 0x26, 0x00, 0x81, 0x71, 0x24, 0x70, 0x00, 0x2b, 0x70, 0x87, 0x0f, 0x24, 0x00, 0x00, 
  0x2b, 0x00, 0x31, 0x24, 0x70, 0x00, 0x2b, 0x70, 0x77, 0x24, 0x00, 0x00, 0x2b, 0x00, 0x79, 0x24, 
  0x70, 0x00, 0x2b, 0x70, 0x77, 0x24, 0x00, 0x00, 0x2b, 0x00, 0x79, 0x24, 0x70, 0x00, 0x2b, 0x70, 
  0x87, 0x0f, 0x24, 0x00, 0x00, 0x2b, 0x00, 0x31, 0x24, 0x70, 0x00, 0x2b, 0x70, 0x77, 0x24, 0x00, 
  0x00, 0x2b, 0x00, 0x79, 0x24, 0x70, 0x00, 0x2b, 0x70, 0x77, 0x24, 0x00, 0x00, 0x2b, 0x00, 0x79, 
  0x24, 0x70, 0x00, 0x2b, 0x70, 0x87, 0x0f, 0x24, 0x00, 0x00, 0x2b, 0x00, 0x31, 0x24, 0x70, 0x00, 
  0x2b, 0x70, 0x77, 0x24, 0x00, 0x00, 0x2b, 0x00, 0x79, 0x24, 0x70, 0x00, 0x2b, 0x70, 0x77, 0x24, 
  0x00, 0x00, 0x2b, 0x00, 0x79, 0x24, 0x70, 0x00, 0x2b, 0x70, 0x87, 0x0f, 0x24, 0x00, 0x00, 0x2b, 
  0x00, 0x31, 0x24, 0x70, 0x00, 0x2b, 0x70, 0x77, 0x24, 0x00, 0x00, 0x2b, 0x00, 0x79, 0x24, 0x70, 
  0x00, 0x2b, 0x70, 0x77, 0x24, 0x00, 0x00, 0x2b, 0x00, 0x79, 0x24, 0x40, 0x95, 0x2f, 0x24, 0x00, 
  0x01, 0xff, 0x2f, 0x00
};