// array size is 3973
static const char bytes[]  = {
  0x4d, 0x54, 0x68, 0x64, 0x00, 0x00, 0x00, 0x06, 0x00, 0x01, 0x00, 0x02, 0x03, 0xc0, 0x4d, 0x54, 
  0x72, 0x6b, 0x00, 0x00, 0x00, 0x30, 0x00, 0xff, 0x58, 0x04, 0x03, 0x02, 0x18, 0x08, 0x00, 0xff, 
  0x59, 0x02, 0x02, 0x00, 0x00, 0xff, 0x51, 0x03, 0x09, 0x27, 0xc0, 0x86, 0xed, 0x40, 0xff, 0x51, 
  0x03, 0x09, 0x27, 0xc0, 0x00, 0xff, 0x51, 0x03, 0x09, 0x27, 0xc0, 0x00, 0xff, 0x51, 0x03, 0x0f, 
  0x42, 0x40, 0x01, 0xff, 0x2f, 0x00, 0x4d, 0x54, 0x72, 0x6b, 0x00, 0x00, 0x0f, 0x37, 0x00, 0xc0, 
  0x00, 0x00, 0xb0, 0x79, 0x00, 0x00, 0xb0, 0x40, 0x00, 0x00, 0xb0, 0x5b, 0x30, 0x00, 0xb0, 0x0a, 
  0x33, 0x00, 0xb0, 0x07, 0x64, 0x00, 0xb0, 0x79, 0x00, 0x00, 0xb0, 0x40, 0x00, 0x00, 0xb0, 0x5b, 
  0x30, 0x00, 0xb0, 0x0a, 0x33, 0x00, 0xb0, 0x07, 0x64, 0x00, 0xff, 0x03, 0x05, 0x50, 0x69, 0x61, 
  0x6e, 0x6f, 0x00, 0x90, 0x2b, 0x25, 0x87, 0x40, 0x90, 0x3b, 0x23, 0x00, 0x90, 0x3e, 0x23, 0x00, 
  0x90, 0x42, 0x23, 0x8f, 0x00, 0x80, 0x3b, 0x00, 0x00, 0x80, 0x3e, 0x00, 0x00, 0x80, 0x42, 0x00, 
  0x00, 0x80, 0x2b, 0x00, 0x00, 0x90, 0x26, 0x1f, 0x87, 0x40, 0x90, 0x39, 0x24, 0x00, 0x90, 0x3d, 
  0x24, 0x00, 0x90, 0x42, 0x24, 0x8f, 0x00, 0x80, 0x39, 0x00, 0x00, 0x80, 0x3d, 0x00, 0x00, 0x80, 
  0x42, 0x00, 0x00, 0x80, 0x26, 0x00, 0x00, 0x90, 0x2b, 0x26, 0x87, 0x40, 0x90, 0x3b, 0x23, 0x00, 
  0x90, 0x3e, 0x23, 0x00, 0x90, 0x42, 0x23, 0x8f, 0x00, 0x80, 0x3b, 0x00, 0x00, 0x80, 0x3e, 0x00, 
  0x00, 0x80, 0x42, 0x00, 0x00, 0x80, 0x2b, 0x00, 0x00, 0x90, 0x26, 0x22, 0x87, 0x40, 0x90, 0x39, 
  0x27, 0x00, 0x90, 0x3d, 0x27, 0x00, 0x90, 0x42, 0x27, 0x8f, 0x00, 0x80, 0x39, 0x00, 0x00, 0x80, 
  0x3d, 0x00, 0x00, 0x80, 0x42, 0x00, 0x00, 0x80, 0x26, 0x00, 0x00, 0x90, 0x2b, 0x1e, 0x87, 0x40, 
  0x90, 0x4e, 0x26, 0x00, 0x90, 0x3b, 0x28, 0x00, 0x90, 0x3e, 0x28, 0x00, 0x90, 0x42, 0x28, 0x87, 
  0x40, 0x90, 0x51, 0x2c, 0x13, 0x80, 0x4e, 0x00, 0x87, 0x2d, 0x90, 0x4f, 0x26, 0x00, 0x80, 0x2b, 
  0x00, 0x00, 0x80, 0x3b, 0x00, 0x00, 0x80, 0x3e, 0x00, 0x00, 0x80, 0x42, 0x00, 0x00, 0x90, 0x26, 
  0x26, 0x13, 0x80, 0x51, 0x00, 0x87, 0x2d, 0x90, 0x4e, 0x2a, 0x00, 0x90, 0x39, 0x2a, 0x00, 0x90, 
  0x3d, 0x2a, 0x00, 0x90, 0x42, 0x2a, 0x13, 0x80, 0x4f, 0x00, 0x87, 0x2d, 0x90, 0x49, 0x29, 0x13, 
  0x80, 0x4e, 0x00, 0x87, 0x2d, 0x90, 0x47, 0x30, 0x00, 0x80, 0x26, 0x00, 0x00, 0x80, 0x39, 0x00, 
  0x00, 0x80, 0x3d, 0x00, 0x00, 0x80, 0x42, 0x00, 0x00, 0x90, 0x2b, 0x3a, 0x13, 0x80, 0x49, 0x00, 
  0x87, 0x2d, 0x90, 0x49, 0x3e, 0x00, 0x90, 0x3b, 0x30, 0x00, 0x90, 0x3e, 0x30, 0x00, 0x90, 0x42, 
  0x30, 0x13, 0x80, 0x47, 0x00, 0x87, 0x2d, 0x90, 0x4a, 0x3f, 0x13, 0x80, 0x49, 0x00, 0x87, 0x2d, 
  0x90, 0x45, 0x34, 0x00, 0x80, 0x2b, 0x00, 0x00, 0x80, 0x3b, 0x00, 0x00, 0x80, 0x3e, 0x00, 0x00, 
  0x80, 0x42, 0x00, 0x00, 0x90, 0x26, 0x38, 0x13, 0x80, 0x4a, 0x00, 0x87, 0x2d, 0x90, 0x39, 0x2b, 
  0x00, 0x90, 0x3d, 0x2b, 0x00, 0x90, 0x42, 0x2b, 0x8d, 0x6e, 0x80, 0x45, 0x00, 0x81, 0x12, 0x90, 
  0x42, 0x52, 0x00, 0x80, 0x26, 0x00, 0x00, 0x80, 0x39, 0x00, 0x00, 0x80, 0x3d, 0x00, 0x00, 0x80, 
  0x42, 0x00, 0x00, 0x90, 0x2b, 0x54, 0x87, 0x40, 0x90, 0x3b, 0x48, 0x00, 0x90, 0x3e, 0x48, 0x00, 
  0x90, 0x42, 0x48, 0x8f, 0x00, 0x80, 0x2b, 0x00, 0x00, 0x80, 0x3b, 0x00, 0x00, 0x80, 0x3e, 0x00, 
  0x00, 0x80, 0x42, 0x00, 0x00, 0x90, 0x26, 0x4f, 0x87, 0x40, 0x90, 0x39, 0x4c, 0x00, 0x90, 0x3d, 
  0x4c, 0x00, 0x90, 0x42, 0x4c, 0x8f, 0x00, 0x80, 0x26, 0x00, 0x00, 0x80, 0x39, 0x00, 0x00, 0x80, 
  0x3d, 0x00, 0x00, 0x80, 0x42, 0x00, 0x00, 0x90, 0x2b, 0x5c, 0x87, 0x40, 0x90, 0x3b, 0x4c, 0x00, 
  0x90, 0x3e, 0x4c, 0x00, 0x90, 0x42, 0x4c, 0x8f, 0x00, 0x80, 0x2b, 0x00, 0x00, 0x80, 0x3b, 0x00, 
  0x00, 0x80, 0x3e, 0x00, 0x00, 0x80, 0x42, 0x00, 0x00, 0x90, 0x26, 0x4a, 0x87, 0x40, 0x90, 0x39, 
  0x4a, 0x00, 0x90, 0x3d, 0x4a, 0x00, 0x90, 0x42, 0x4a, 0x8f, 0x00, 0x80, 0x42, 0x00, 0x00, 0x80, 
  0x26, 0x00, 0x00, 0x80, 0x39, 0x00, 0x00, 0x80, 0x3d, 0x00, 0x00, 0x80, 0x42, 0x00, 0x00, 0x90, 
  0x2b, 0x58, 0x87, 0x40, 0x90, 0x4e, 0x22, 0x00, 0x90, 0x3b, 0x24, 0x00, 0x90, 0x3e, 0x24, 0x00, 
  0x90, 0x42, 0x24, 0x87, 0x40, 0x90, 0x51, 0x2c, 0x13, 0x80, 0x4e, 0x00, 0x87, 0x2d, 0x90, 0x4f, 
  0x2c, 0x00, 0x80, 0x2b, 0x00, 0x00, 0x80, 0x3b, 0x00, 0x00, 0x80, 0x3e, 0x00, 0x00, 0x80, 0x42, 
  0x00, 0x00, 0x90, 0x26, 0x2b, 0x13, 0x80, 0x51, 0x00, 0x87, 0x2d, 0x90, 0x4e, 0x29, 0x00, 0x90, 
  0x39, 0x28, 0x00, 0x90, 0x3d, 0x28, 0x00, 0x90, 0x42, 0x28, 0x13, 0x80, 0x4f, 0x00, 0x87, 0x2d, 
  0x90, 0x49, 0x2b, 0x13, 0x80, 0x4e, 0x00, 0x87, 0x2d, 0x90, 0x47, 0x2d, 0x00, 0x80, 0x26, 0x00, 
  0x00, 0x80, 0x39, 0x00, 0x00, 0x80, 0x3d, 0x00, 0x00, 0x80, 0x42, 0x00, 0x00, 0x90, 0x2b, 0x37, 
  0x13, 0x80, 0x49, 0x00, 0x87, 0x2d, 0x90, 0x49, 0x38, 0x00, 0x90, 0x3b, 0x33, 0x00, 0x90, 0x3e, 
  0x33, 0x00, 0x90, 0x42, 0x33, 0x13, 0x80, 0x47, 0x00, 0x87, 0x2d, 0x90, 0x4a, 0x3a, 0x13, 0x80, 
  0x49, 0x00, 0x87, 0x2d, 0x90, 0x45, 0x38, 0x00, 0x80, 0x2b, 0x00, 0x00, 0x80, 0x3b, 0x00, 0x00, 
  0x80, 0x3e, 0x00, 0x00, 0x80, 0x42, 0x00, 0x00, 0x90, 0x26, 0x3e, 0x13, 0x80, 0x4a, 0x00, 0x87, 
  0x2d, 0x90, 0x39, 0x33, 0x00, 0x90, 0x3d, 0x33, 0x00, 0x90, 0x42, 0x33, 0x8f, 0x00, 0x90, 0x49, 
  0x43, 0x00, 0x80, 0x26, 0x00, 0x00, 0x80, 0x39, 0x00, 0x00, 0x80, 0x3d, 0x00, 0x00, 0x80, 0x42, 
  0x00, 0x00, 0x90, 0x2a, 0x3f, 0x38, 0x80, 0x45, 0x00, 0x87, 0x08, 0x90, 0x39, 0x3a, 0x00, 0x90, 
  0x3d, 0x3a, 0x00, 0x90, 0x42, 0x3a, 0x8f, 0x00, 0x90, 0x4e, 0x3b, 0x00, 0x80, 0x2a, 0x00, 0x00, 
  0x80, 0x39, 0x00, 0x00, 0x80, 0x3d, 0x00, 0x00, 0x80, 0x42, 0x00, 0x00, 0x90, 0x23, 0x30, 0x38, 
  0x80, 0x49, 0x00, 0x87, 0x08, 0x90, 0x3b, 0x2a, 0x00, 0x90, 0x3e, 0x2a, 0x00, 0x90, 0x42, 0x2a, 
  0x8f, 0x00, 0x90, 0x40, 0x1b, 0x00, 0x80, 0x23, 0x00, 0x00, 0x80, 0x3b, 0x00, 0x00, 0x80, 0x3e, 
  0x00, 0x00, 0x80, 0x42, 0x00, 0x00, 0x90, 0x28, 0x25, 0x38, 0x80, 0x4e, 0x00, 0x87, 0x08, 0x90, 
  0x37, 0x20, 0x00, 0x90, 0x3b, 0x20, 0x8f, 0x00, 0x80, 0x28, 0x00, 0x00, 0x80, 0x37, 0x00, 0x00, 
  0x80, 0x3b, 0x00, 0x00, 0x90, 0x28, 0x28, 0x87, 0x40, 0x90, 0x3b, 0x22, 0x00, 0x90, 0x3e, 0x22, 
  0x00, 0x90, 0x43, 0x22, 0x8f, 0x00, 0x80, 0x28, 0x00, 0x00, 0x80, 0x3b, 0x00, 0x00, 0x80, 0x3e, 
  0x00, 0x00, 0x80, 0x43, 0x00, 0x00, 0x90, 0x26, 0x24, 0x87, 0x40, 0x90, 0x35, 0x20, 0x00, 0x90, 
  0x39, 0x20, 0x00, 0x90, 0x3e, 0x20, 0x8b, 0x4d, 0x80, 0x40, 0x00, 0x83, 0x33, 0x90, 0x45, 0x47, 
  0x00, 0x80, 0x26, 0x00, 0x00, 0x80, 0x35, 0x00, 0x00, 0x80, 0x39, 0x00, 0x00, 0x80, 0x3e, 0x00, 
  0x00, 0x90, 0x21, 0x3c, 0x87, 0x40, 0x90, 0x47, 0x43, 0x00, 0x90, 0x39, 0x39, 0x00, 0x90, 0x3c, 
  0x39, 0x00, 0x90, 0x40, 0x39, 0x13, 0x80, 0x45, 0x00, 0x87, 0x2d, 0x90, 0x48, 0x3f, 0x13, 0x80, 
  0x47, 0x00, 0x87, 0x2d, 0x90, 0x4c, 0x49, 0x00, 0x80, 0x21, 0x00, 0x00, 0x80, 0x39, 0x00, 0x00, 
  0x80, 0x3c, 0x00, 0x00, 0x80, 0x40, 0x00, 0x00, 0x90, 0x26, 0x42, 0x13, 0x80, 0x48, 0x00, 0x87, 
  0x2d, 0x90, 0x4a, 0x41, 0x00, 0x90, 0x37, 0x3c, 0x00, 0x90, 0x3b, 0x3c, 0x00, 0x90, 0x40, 0x3c, 
  0x13, 0x80, 0x4c, 0x00, 0x87, 0x2d, 0x90, 0x47, 0x39, 0x13, 0x80, 0x4a, 0x00, 0x87, 0x2d, 0x90, 
  0x4a, 0x49, 0x00, 0x80, 0x26, 0x00, 0x00, 0x80, 0x37, 0x00, 0x00, 0x80, 0x3b, 0x00, 0x00, 0x80, 
  0x40, 0x00, 0x00, 0x90, 0x26, 0x46, 0x13, 0x80, 0x47, 0x00, 0x87, 0x2d, 0x90, 0x48, 0x41, 0x00, 
  0x90, 0x32, 0x3f, 0x00, 0x90, 0x37, 0x3f, 0x00, 0x90, 0x3b, 0x3f, 0x00, 0x90, 0x40, 0x3f, 0x13, 
  0x80, 0x4a, 0x00, 0x87, 0x2d, 0x90, 0x47, 0x40, 0x13, 0x80, 0x48, 0x00, 0x87, 0x2d, 0x90, 0x4a, 
  0x4d, 0x00, 0x80, 0x26, 0x00, 0x00, 0x80, 0x32, 0x00, 0x00, 0x80, 0x37, 0x00, 0x00, 0x80, 0x3b, 
  0x00, 0x00, 0x80, 0x40, 0x00, 0x00, 0x90, 0x26, 0x4c, 0x13, 0x80, 0x47, 0x00, 0x87, 0x2d, 0x90, 
  0x30, 0x3e, 0x00, 0x90, 0x34, 0x3e, 0x00, 0x90, 0x39, 0x3e, 0x00, 0x90, 0x3e, 0x3e, 0x8f, 0x00, 
  0x80, 0x26, 0x00, 0x00, 0x80, 0x30, 0x00, 0x00, 0x80, 0x34, 0x00, 0x00, 0x80, 0x39, 0x00, 0x00, 
  0x80, 0x3e, 0x00, 0x00, 0x90, 0x26, 0x42, 0x87, 0x40, 0x90, 0x30, 0x3e, 0x00, 0x90, 0x36, 0x3e, 
  0x00, 0x90, 0x39, 0x3e, 0x00, 0x90, 0x3e, 0x3e, 0x85, 0x50, 0x80, 0x4a, 0x00, 0x81, 0x70, 0x90, 
  0x4a, 0x41, 0x87, 0x40, 0x90, 0x4c, 0x43, 0x00, 0x80, 0x26, 0x00, 0x00, 0x80, 0x30, 0x00, 0x00, 
  0x80, 0x36, 0x00, 0x00, 0x80, 0x39, 0x00, 0x00, 0x80, 0x3e, 0x00, 0x00, 0x90, 0x26, 0x41, 0x13, 
  0x80, 0x4a, 0x00, 0x87, 0x2d, 0x90, 0x4d, 0x43, 0x00, 0x90, 0x39, 0x39, 0x00, 0x90, 0x3c, 0x39, 
  0x00, 0x90, 0x41, 0x39, 0x13, 0x80, 0x4c, 0x00, 0x87, 0x2d, 0x90, 0x4f, 0x45, 0x13, 0x80, 0x4d, 
  0x00, 0x87, 0x2d, 0x90, 0x51, 0x48, 0x00, 0x80, 0x26, 0x00, 0x00, 0x80, 0x39, 0x00, 0x00, 0x80, 
  0x3c, 0x00, 0x00, 0x80, 0x41, 0x00, 0x00, 0x90, 0x26, 0x40, 0x13, 0x80, 0x4f, 0x00, 0x87, 0x2d, 
  0x90, 0x48, 0x36, 0x00, 0x90, 0x39, 0x3c, 0x00, 0x90, 0x3c, 0x3c, 0x00, 0x90, 0x40, 0x3c, 0x13, 
  0x80, 0x51, 0x00, 0x87, 0x2d, 0x90, 0x4a, 0x47, 0x13, 0x80, 0x48, 0x00, 0x87, 0x2d, 0x90, 0x4c, 
  0x4c, 0x00, 0x80, 0x26, 0x00, 0x00, 0x80, 0x39, 0x00, 0x00, 0x80, 0x3c, 0x00, 0x00, 0x80, 0x40, 
  0x00, 0x00, 0x90, 0x26, 0x4b, 0x13, 0x80, 0x4a, 0x00, 0x87, 0x2d, 0x90, 0x4a, 0x45, 0x00, 0x90, 
  0x32, 0x3e, 0x00, 0x90, 0x37, 0x3e, 0x00, 0x90, 0x3b, 0x3e, 0x00, 0x90, 0x40, 0x3e, 0x13, 0x80, 
  0x4c, 0x00, 0x87, 0x2d, 0x90, 0x47, 0x3d, 0x13, 0x80, 0x4a, 0x00, 0x87, 0x2d, 0x90, 0x4a, 0x4a, 
  0x00, 0x80, 0x26, 0x00, 0x00, 0x80, 0x32, 0x00, 0x00, 0x80, 0x37, 0x00, 0x00, 0x80, 0x3b, 0x00, 
  0x00, 0x80, 0x40, 0x00, 0x00, 0x90, 0x26, 0x3d, 0x13, 0x80, 0x47, 0x00, 0x87, 0x2d, 0x90, 0x30, 
  0x39, 0x00, 0x90, 0x34, 0x39, 0x00, 0x90, 0x39, 0x39, 0x00, 0x90, 0x3e, 0x39, 0x8f, 0x00, 0x80, 
  0x26, 0x00, 0x00, 0x80, 0x30, 0x00, 0x00, 0x80, 0x34, 0x00, 0x00, 0x80, 0x39, 0x00, 0x00, 0x80, 
  0x3e, 0x00, 0x00, 0x90, 0x26, 0x42, 0x87, 0x40, 0x90, 0x30, 0x36, 0x00, 0x90, 0x36, 0x36, 0x00, 
  0x90, 0x39, 0x36, 0x00, 0x90, 0x3e, 0x36, 0x85, 0x50, 0x80, 0x4a, 0x00, 0x81, 0x70, 0x90, 0x4a, 
  0x3b, 0x87, 0x40, 0x90, 0x4f, 0x45, 0x00, 0x80, 0x26, 0x00, 0x00, 0x80, 0x30, 0x00, 0x00, 0x80, 
  0x36, 0x00, 0x00, 0x80, 0x39, 0x00, 0x00, 0x80, 0x3e, 0x00, 0x00, 0x90, 0x28, 0x42, 0x13, 0x80, 
  0x4a, 0x00, 0x87, 0x2d, 0x90, 0x3b, 0x3f, 0x00, 0x90, 0x40, 0x3f, 0x00, 0x90, 0x43, 0x3f, 0x8f, 
  0x00, 0x90, 0x4e, 0x44, 0x00, 0x80, 0x28, 0x00, 0x00, 0x80, 0x3b, 0x00, 0x00, 0x80, 0x40, 0x00, 
  0x00, 0x80, 0x43, 0x00, 0x00, 0x90, 0x2a, 0x4a, 0x38, 0x80, 0x4f, 0x00, 0x87, 0x08, 0x90, 0x39, 
  0x43, 0x00, 0x90, 0x3d, 0x43, 0x00, 0x90, 0x42, 0x43, 0x8f, 0x00, 0x90, 0x47, 0x35, 0x00, 0x80, 
  0x2a, 0x00, 0x00, 0x80, 0x39, 0x00, 0x00, 0x80, 0x3d, 0x00, 0x00, 0x80, 0x42, 0x00, 0x00, 0x90, 
  0x23, 0x3d, 0x38, 0x80, 0x4e, 0x00, 0x87, 0x08, 0x90, 0x45, 0x44, 0x00, 0x90, 0x3b, 0x3f, 0x00, 
  0x90, 0x3e, 0x3f, 0x00, 0x90, 0x42, 0x3f, 0x13, 0x80, 0x47, 0x00, 0x87, 0x2d, 0x90, 0x47, 0x4f, 
  0x13, 0x80, 0x45, 0x00, 0x87, 0x2d, 0x90, 0x49, 0x51, 0x00, 0x80, 0x23, 0x00, 0x00, 0x80, 0x3b, 
  0x00, 0x00, 0x80, 0x3e, 0x00, 0x00, 0x80, 0x42, 0x00, 0x00, 0x90, 0x28, 0x47, 0x13, 0x80, 0x47, 
  0x00, 0x87, 0x2d, 0x90, 0x4a, 0x51, 0x00, 0x90, 0x3d, 0x3e, 0x00, 0x90, 0x40, 0x3e, 0x00, 0x90, 
  0x45, 0x3e, 0x13, 0x80, 0x49, 0x00, 0x87, 0x2d, 0x90, 0x4c, 0x4b, 0x13, 0x80, 0x4a, 0x00, 0x87, 
  0x2d, 0x90, 0x49, 0x45, 0x00, 0x80, 0x28, 0x00, 0x00, 0x80, 0x3d, 0x00, 0x00, 0x80, 0x40, 0x00, 
  0x00, 0x80, 0x45, 0x00, 0x00, 0x90, 0x28, 0x46, 0x13, 0x80, 0x4c, 0x00, 0x87, 0x2d, 0x90, 0x4a, 
  0x48, 0x00, 0x90, 0x39, 0x3d, 0x00, 0x90, 0x3d, 0x3d, 0x00, 0x90, 0x42, 0x3d, 0x00, 0x90, 0x45, 
  0x3d, 0x13, 0x80, 0x49, 0x00, 0x87, 0x2d, 0x90, 0x4c, 0x50, 0x13, 0x80, 0x4a, 0x00, 0x87, 0x2d, 
  0x90, 0x42, 0x3a, 0x00, 0x80, 0x28, 0x00, 0x00, 0x80, 0x39, 0x00, 0x00, 0x80, 0x3d, 0x00, 0x00, 
  0x80, 0x42, 0x00, 0x00, 0x80, 0x45, 0x00, 0x00, 0x90, 0x28, 0x45, 0x13, 0x80, 0x4c, 0x00, 0x87, 
  0x2d, 0x90, 0x2f, 0x3a, 0x00, 0x90, 0x39, 0x3a, 0x00, 0x90, 0x3e, 0x3a, 0x87, 0x40, 0x90, 0x43, 
  0x40, 0x00, 0x80, 0x2f, 0x00, 0x00, 0x80, 0x39, 0x00, 0x00, 0x80, 0x3e, 0x00, 0x00, 0x90, 0x34, 
  0x42, 0x00, 0x90, 0x3b, 0x42, 0x00, 0x90, 0x3e, 0x42, 0x26, 0x80, 0x42, 0x00, 0x87, 0x1a, 0x90, 
  0x48, 0x4a, 0x00, 0x80, 0x28, 0x00, 0x00, 0x80, 0x34, 0x00, 0x00, 0x80, 0x3b, 0x00, 0x00, 0x80, 
  0x3e, 0x00, 0x00, 0x90, 0x3c, 0x4f, 0x00, 0x90, 0x40, 0x4f, 0x00, 0x90, 0x45, 0x4f, 0x00, 0x90, 
  0x2d, 0x4d, 0x00, 0x90, 0x37, 0x4d, 0x13, 0x80, 0x43, 0x00, 0x95, 0x1b, 0x80, 0x48, 0x00, 0x81, 
  0x12, 0x90, 0x4a, 0x4b, 0x00, 0x80, 0x3c, 0x00, 0x00, 0x80, 0x40, 0x00, 0x00, 0x80, 0x45, 0x00, 
  0x00, 0x80, 0x2d, 0x00, 0x00, 0x80, 0x37, 0x00, 0x00, 0x90, 0x3e, 0x40, 0x00, 0x90, 0x42, 0x40, 
  0x00, 0x90, 0x45, 0x40, 0x00, 0x90, 0x26, 0x41, 0x00, 0x90, 0x2d, 0x41, 0x00, 0x90, 0x32, 0x41, 
  0x96, 0x40, 0x80, 0x4a, 0x00, 0x00, 0x80, 0x3e, 0x00, 0x00, 0x80, 0x42, 0x00, 0x00, 0x80, 0x45, 
  0x00, 0x00, 0x80, 0x26, 0x00, 0x00, 0x80, 0x2d, 0x00, 0x00, 0x80, 0x32, 0x00, 0x00, 0x90, 0x2b, 
  0x25, 0x87, 0x40, 0x90, 0x3b, 0x21, 0x00, 0x90, 0x3e, 0x21, 0x00, 0x90, 0x42, 0x21, 0x8f, 0x00, 
  0x80, 0x3b, 0x00, 0x00, 0x80, 0x3e, 0x00, 0x00, 0x80, 0x42, 0x00, 0x00, 0x80, 0x2b, 0x00, 0x00, 
  0x90, 0x26, 0x24, 0x87, 0x40, 0x90, 0x39, 0x1f, 0x00, 0x90, 0x3d, 0x1f, 0x00, 0x90, 0x42, 0x1f, 
  0x8f, 0x00, 0x80, 0x39, 0x00, 0x00, 0x80, 0x3d, 0x00, 0x00, 0x80, 0x42, 0x00, 0x00, 0x80, 0x26, 
  0x00, 0x00, 0x90, 0x2b, 0x27, 0x87, 0x40, 0x90, 0x3b, 0x20, 0x00, 0x90, 0x3e, 0x20, 0x00, 0x90, 
  0x42, 0x20, 0x8f, 0x00, 0x80, 0x3b, 0x00, 0x00, 0x80, 0x3e, 0x00, 0x00, 0x80, 0x42, 0x00, 0x00, 
  0x80, 0x2b, 0x00, 0x00, 0x90, 0x26, 0x22, 0x87, 0x40, 0x90, 0x39, 0x23, 0x00, 0x90, 0x3d, 0x23, 
  0x00, 0x90, 0x42, 0x23, 0x8f, 0x00, 0x80, 0x39, 0x00, 0x00, 0x80, 0x3d, 0x00, 0x00, 0x80, 0x42, 
  0x00, 0x00, 0x80, 0x26, 0x00, 0x00, 0x90, 0x2b, 0x20, 0x87, 0x40, 0x90, 0x4e, 0x26, 0x00, 0x90, 
  0x3b, 0x23, 0x00, 0x90, 0x3e, 0x23, 0x00, 0x90, 0x42, 0x23, 0x87, 0x40, 0x90, 0x51, 0x2a, 0x13, 
  0x80, 0x4e, 0x00, 0x87, 0x2d, 0x90, 0x4f, 0x2a, 0x00, 0x80, 0x2b, 0x00, 0x00, 0x80, 0x3b, 0x00, 
  0x00, 0x80, 0x3e, 0x00, 0x00, 0x80, 0x42, 0x00, 0x00, 0x90, 0x26, 0x27, 0x13, 0x80, 0x51, 0x00, 
  0x87, 0x2d, 0x90, 0x4e, 0x2e, 0x00, 0x90, 0x39, 0x2b, 0x00, 0x90, 0x3d, 0x2b, 0x00, 0x90, 0x42, 
  0x2b, 0x13, 0x80, 0x4f, 0x00, 0x87, 0x2d, 0x90, 0x49, 0x26, 0x13, 0x80, 0x4e, 0x00, 0x87, 0x2d, 
  0x90, 0x47, 0x36, 0x00, 0x80, 0x26, 0x00, 0x00, 0x80, 0x39, 0x00, 0x00, 0x80, 0x3d, 0x00, 0x00, 
  0x80, 0x42, 0x00, 0x00, 0x90, 0x2b, 0x39, 0x13, 0x80, 0x49, 0x00, 0x87, 0x2d, 0x90, 0x49, 0x3c, 
  0x00, 0x90, 0x3b, 0x33, 0x00, 0x90, 0x3e, 0x33, 0x00, 0x90, 0x42, 0x33, 0x13, 0x80, 0x47, 0x00, 
  0x87, 0x2d, 0x90, 0x4a, 0x43, 0x13, 0x80, 0x49, 0x00, 0x87, 0x2d, 0x90, 0x45, 0x30, 0x00, 0x80, 
  0x2b, 0x00, 0x00, 0x80, 0x3b, 0x00, 0x00, 0x80, 0x3e, 0x00, 0x00, 0x80, 0x42, 0x00, 0x00, 0x90, 
  0x26, 0x34, 0x13, 0x80, 0x4a, 0x00, 0x87, 0x2d, 0x90, 0x39, 0x2c, 0x00, 0x90, 0x3d, 0x2c, 0x00, 
  0x90, 0x42, 0x2c, 0x8d, 0x6e, 0x80, 0x45, 0x00, 0x81, 0x12, 0x90, 0x42, 0x52, 0x00, 0x80, 0x26, 
  0x00, 0x00, 0x80, 0x39, 0x00, 0x00, 0x80, 0x3d, 0x00, 0x00, 0x80, 0x42, 0x00, 0x00, 0x90, 0x2b, 
  0x57, 0x87, 0x40, 0x90, 0x3b, 0x4c, 0x00, 0x90, 0x3e, 0x4c, 0x00, 0x90, 0x42, 0x4c, 0x8f, 0x00, 
  0x80, 0x2b, 0x00, 0x00, 0x80, 0x3b, 0x00, 0x00, 0x80, 0x3e, 0x00, 0x00, 0x80, 0x42, 0x00, 0x00, 
  0x90, 0x26, 0x52, 0x87, 0x40, 0x90, 0x39, 0x4e, 0x00, 0x90, 0x3d, 0x4e, 0x00, 0x90, 0x42, 0x4e, 
  0x8f, 0x00, 0x80, 0x26, 0x00, 0x00, 0x80, 0x39, 0x00, 0x00, 0x80, 0x3d, 0x00, 0x00, 0x80, 0x42, 
  0x00, 0x00, 0x90, 0x2b, 0x5b, 0x87, 0x40, 0x90, 0x3b, 0x4f, 0x00, 0x90, 0x3e, 0x4f, 0x00, 0x90, 
  0x42, 0x4f, 0x8f, 0x00, 0x80, 0x2b, 0x00, 0x00, 0x80, 0x3b, 0x00, 0x00, 0x80, 0x3e, 0x00, 0x00, 
  0x80, 0x42, 0x00, 0x00, 0x90, 0x26, 0x52, 0x87, 0x40, 0x90, 0x39, 0x47, 0x00, 0x90, 0x3d, 0x47, 
  0x00, 0x90, 0x42, 0x47, 0x8f, 0x00, 0x80, 0x42, 0x00, 0x00, 0x80, 0x26, 0x00, 0x00, 0x80, 0x39, 
  0x00, 0x00, 0x80, 0x3d, 0x00, 0x00, 0x80, 0x42, 0x00, 0x00, 0x90, 0x2b, 0x57, 0x87, 0x40, 0x90, 
  0x4e, 0x22, 0x00, 0x90, 0x3b, 0x23, 0x00, 0x90, 0x3e, 0x23, 0x00, 0x90, 0x42, 0x23, 0x87, 0x40, 
  0x90, 0x51, 0x28, 0x13, 0x80, 0x4e, 0x00, 0x87, 0x2d, 0x90, 0x4f, 0x2b, 0x00, 0x80, 0x2b, 0x00, 
  0x00, 0x80, 0x3b, 0x00, 0x00, 0x80, 0x3e, 0x00, 0x00, 0x80, 0x42, 0x00, 0x00, 0x90, 0x26, 0x29, 
  0x13, 0x80, 0x51, 0x00, 0x87, 0x2d, 0x90, 0x4e, 0x2a, 0x00, 0x90, 0x39, 0x27, 0x00, 0x90, 0x3d, 
  0x27, 0x00, 0x90, 0x42, 0x27, 0x13, 0x80, 0x4f, 0x00, 0x87, 0x2d, 0x90, 0x49, 0x2a, 0x13, 0x80, 
  0x4e, 0x00, 0x87, 0x2d, 0x90, 0x47, 0x31, 0x00, 0x80, 0x26, 0x00, 0x00, 0x80, 0x39, 0x00, 0x00, 
  0x80, 0x3d, 0x00, 0x00, 0x80, 0x42, 0x00, 0x00, 0x90, 0x2b, 0x38, 0x13, 0x80, 0x49, 0x00, 0x87, 
  0x2d, 0x90, 0x49, 0x36, 0x00, 0x90, 0x3b, 0x2f, 0x00, 0x90, 0x3e, 0x2f, 0x00, 0x90, 0x42, 0x2f, 
  0x13, 0x80, 0x47, 0x00, 0x87, 0x2d, 0x90, 0x4a, 0x3f, 0x13, 0x80, 0x49, 0x00, 0x87, 0x2d, 0x90, 
  0x45, 0x33, 0x00, 0x80, 0x2b, 0x00, 0x00, 0x80, 0x3b, 0x00, 0x00, 0x80, 0x3e, 0x00, 0x00, 0x80, 
  0x42, 0x00, 0x00, 0x90, 0x26, 0x3a, 0x13, 0x80, 0x4a, 0x00, 0x87, 0x2d, 0x90, 0x39, 0x37, 0x00, 
  0x90, 0x3d, 0x37, 0x00, 0x90, 0x42, 0x37, 0x8f, 0x00, 0x90, 0x49, 0x44, 0x00, 0x80, 0x26, 0x00, 
  0x00, 0x80, 0x39, 0x00, 0x00, 0x80, 0x3d, 0x00, 0x00, 0x80, 0x42, 0x00, 0x00, 0x90, 0x2a, 0x41, 
  0x38, 0x80, 0x45, 0x00, 0x87, 0x08, 0x90, 0x39, 0x31, 0x00, 0x90, 0x3d, 0x31, 0x00, 0x90, 0x42, 
  0x31, 0x8f, 0x00, 0x90, 0x4e, 0x3c, 0x00, 0x80, 0x2a, 0x00, 0x00, 0x80, 0x39, 0x00, 0x00, 0x80, 
  0x3d, 0x00, 0x00, 0x80, 0x42, 0x00, 0x00, 0x90, 0x23, 0x30, 0x38, 0x80, 0x49, 0x00, 0x87, 0x08, 
  0x90, 0x3b, 0x29, 0x00, 0x90, 0x3e, 0x29, 0x00, 0x90, 0x42, 0x29, 0x8f, 0x00, 0x90, 0x40, 0x19, 
  0x00, 0x80, 0x23, 0x00, 0x00, 0x80, 0x3b, 0x00, 0x00, 0x80, 0x3e, 0x00, 0x00, 0x80, 0x42, 0x00, 
  0x00, 0x90, 0x28, 0x2b, 0x38, 0x80, 0x4e, 0x00, 0x87, 0x08, 0x90, 0x37, 0x1f, 0x00, 0x90, 0x3b, 
  0x1f, 0x8f, 0x00, 0x80, 0x28, 0x00, 0x00, 0x80, 0x37, 0x00, 0x00, 0x80, 0x3b, 0x00, 0x00, 0x90, 
  0x28, 0x2a, 0x87, 0x40, 0x90, 0x3b, 0x21, 0x00, 0x90, 0x3e, 0x21, 0x00, 0x90, 0x43, 0x21, 0x8f, 
  0x00, 0x80, 0x28, 0x00, 0x00, 0x80, 0x3b, 0x00, 0x00, 0x80, 0x3e, 0x00, 0x00, 0x80, 0x43, 0x00, 
  0x00, 0x90, 0x26, 0x26, 0x87, 0x40, 0x90, 0x35, 0x23, 0x00, 0x90, 0x39, 0x23, 0x00, 0x90, 0x3e, 
  0x23, 0x8b, 0x4d, 0x80, 0x40, 0x00, 0x83, 0x33, 0x90, 0x45, 0x46, 0x00, 0x80, 0x26, 0x00, 0x00, 
  0x80, 0x35, 0x00, 0x00, 0x80, 0x39, 0x00, 0x00, 0x80, 0x3e, 0x00, 0x00, 0x90, 0x21, 0x38, 0x87, 
  0x40, 0x90, 0x47, 0x44, 0x00, 0x90, 0x39, 0x39, 0x00, 0x90, 0x3c, 0x39, 0x00, 0x90, 0x40, 0x39, 
  0x13, 0x80, 0x45, 0x00, 0x87, 0x2d, 0x90, 0x48, 0x42, 0x13, 0x80, 0x47, 0x00, 0x87, 0x2d, 0x90, 
  0x4c, 0x44, 0x00, 0x80, 0x21, 0x00, 0x00, 0x80, 0x39, 0x00, 0x00, 0x80, 0x3c, 0x00, 0x00, 0x80, 
  0x40, 0x00, 0x00, 0x90, 0x26, 0x3f, 0x13, 0x80, 0x48, 0x00, 0x87, 0x2d, 0x90, 0x4a, 0x42, 0x00, 
  0x90, 0x37, 0x3a, 0x00, 0x90, 0x3b, 0x3a, 0x00, 0x90, 0x40, 0x3a, 0x13, 0x80, 0x4c, 0x00, 0x87, 
  0x2d, 0x90, 0x47, 0x3b, 0x13, 0x80, 0x4a, 0x00, 0x87, 0x2d, 0x90, 0x4a, 0x4b, 0x00, 0x80, 0x26, 
  0x00, 0x00, 0x80, 0x37, 0x00, 0x00, 0x80, 0x3b, 0x00, 0x00, 0x80, 0x40, 0x00, 0x00, 0x90, 0x26, 
  0x46, 0x13, 0x80, 0x47, 0x00, 0x87, 0x2d, 0x90, 0x48, 0x3f, 0x00, 0x90, 0x32, 0x40, 0x00, 0x90, 
  0x37, 0x40, 0x00, 0x90, 0x3b, 0x40, 0x00, 0x90, 0x40, 0x40, 0x13, 0x80, 0x4a, 0x00, 0x87, 0x2d, 
  0x90, 0x47, 0x40, 0x13, 0x80, 0x48, 0x00, 0x87, 0x2d, 0x90, 0x4a, 0x4c, 0x00, 0x80, 0x26, 0x00, 
  0x00, 0x80, 0x32, 0x00, 0x00, 0x80, 0x37, 0x00, 0x00, 0x80, 0x3b, 0x00, 0x00, 0x80, 0x40, 0x00, 
  0x00, 0x90, 0x26, 0x45, 0x13, 0x80, 0x47, 0x00, 0x87, 0x2d, 0x90, 0x30, 0x3b, 0x00, 0x90, 0x34, 
  0x3b, 0x00, 0x90, 0x39, 0x3b, 0x00, 0x90, 0x3e, 0x3b, 0x8f, 0x00, 0x80, 0x26, 0x00, 0x00, 0x80, 
  0x30, 0x00, 0x00, 0x80, 0x34, 0x00, 0x00, 0x80, 0x39, 0x00, 0x00, 0x80, 0x3e, 0x00, 0x00, 0x90, 
  0x26, 0x46, 0x87, 0x40, 0x90, 0x30, 0x37, 0x00, 0x90, 0x36, 0x37, 0x00, 0x90, 0x39, 0x37, 0x00, 
  0x90, 0x3e, 0x37, 0x85, 0x50, 0x80, 0x4a, 0x00, 0x81, 0x70, 0x90, 0x4a, 0x3f, 0x87, 0x40, 0x90, 
  0x4c, 0x47, 0x00, 0x80, 0x26, 0x00, 0x00, 0x80, 0x30, 0x00, 0x00, 0x80, 0x36, 0x00, 0x00, 0x80, 
  0x39, 0x00, 0x00, 0x80, 0x3e, 0x00, 0x00, 0x90, 0x26, 0x3f, 0x13, 0x80, 0x4a, 0x00, 0x87, 0x2d, 
  0x90, 0x4d, 0x46, 0x00, 0x90, 0x39, 0x35, 0x00, 0x90, 0x3c, 0x35, 0x00, 0x90, 0x41, 0x35, 0x13, 
  0x80, 0x4c, 0x00, 0x87, 0x2d, 0x90, 0x4f, 0x49, 0x13, 0x80, 0x4d, 0x00, 0x87, 0x2d, 0x90, 0x51, 
  0x47, 0x00, 0x80, 0x26, 0x00, 0x00, 0x80, 0x39, 0x00, 0x00, 0x80, 0x3c, 0x00, 0x00, 0x80, 0x41, 
  0x00, 0x00, 0x90, 0x26, 0x42, 0x13, 0x80, 0x4f, 0x00, 0x87, 0x2d, 0x90, 0x48, 0x31, 0x00, 0x90, 
  0x39, 0x3d, 0x00, 0x90, 0x3c, 0x3d, 0x00, 0x90, 0x40, 0x3d, 0x13, 0x80, 0x51, 0x00, 0x87, 0x2d, 
  0x90, 0x4a, 0x48, 0x13, 0x80, 0x48, 0x00, 0x87, 0x2d, 0x90, 0x4c, 0x4e, 0x00, 0x80, 0x26, 0x00, 
  0x00, 0x80, 0x39, 0x00, 0x00, 0x80, 0x3c, 0x00, 0x00, 0x80, 0x40, 0x00, 0x00, 0x90, 0x26, 0x47, 
  0x13, 0x80, 0x4a, 0x00, 0x87, 0x2d, 0x90, 0x4a, 0x41, 0x00, 0x90, 0x32, 0x3d, 0x00, 0x90, 0x37, 
  0x3d, 0x00, 0x90, 0x3b, 0x3d, 0x00, 0x90, 0x40, 0x3d, 0x13, 0x80, 0x4c, 0x00, 0x87, 0x2d, 0x90, 
  0x47, 0x3b, 0x13, 0x80, 0x4a, 0x00, 0x87, 0x2d, 0x90, 0x4a, 0x4a, 0x00, 0x80, 0x26, 0x00, 0x00, 
  0x80, 0x32, 0x00, 0x00, 0x80, 0x37, 0x00, 0x00, 0x80, 0x3b, 0x00, 0x00, 0x80, 0x40, 0x00, 0x00, 
  0x90, 0x26, 0x41, 0x13, 0x80, 0x47, 0x00, 0x87, 0x2d, 0x90, 0x30, 0x39, 0x00, 0x90, 0x34, 0x39, 
  0x00, 0x90, 0x39, 0x39, 0x00, 0x90, 0x3e, 0x39, 0x8f, 0x00, 0x80, 0x26, 0x00, 0x00, 0x80, 0x30, 
  0x00, 0x00, 0x80, 0x34, 0x00, 0x00, 0x80, 0x39, 0x00, 0x00, 0x80, 0x3e, 0x00, 0x00, 0x90, 0x26, 
  0x3c, 0x87, 0x40, 0x90, 0x30, 0x33, 0x00, 0x90, 0x36, 0x33, 0x00, 0x90, 0x39, 0x33, 0x00, 0x90, 
  0x3e, 0x33, 0x85, 0x50, 0x80, 0x4a, 0x00, 0x81, 0x70, 0x90, 0x4a, 0x41, 0x87, 0x40, 0x90, 0x4f, 
  0x47, 0x00, 0x80, 0x26, 0x00, 0x00, 0x80, 0x30, 0x00, 0x00, 0x80, 0x36, 0x00, 0x00, 0x80, 0x39, 
  0x00, 0x00, 0x80, 0x3e, 0x00, 0x00, 0x90, 0x28, 0x43, 0x13, 0x80, 0x4a, 0x00, 0x87, 0x2d, 0x90, 
  0x3b, 0x3a, 0x00, 0x90, 0x40, 0x3a, 0x00, 0x90, 0x43, 0x3a, 0x8f, 0x00, 0x90, 0x4d, 0x42, 0x00, 
  0x80, 0x28, 0x00, 0x00, 0x80, 0x3b, 0x00, 0x00, 0x80, 0x40, 0x00, 0x00, 0x80, 0x43, 0x00, 0x00, 
  0x90, 0x28, 0x47, 0x71, 0x80, 0x4f, 0x00, 0x86, 0x4f, 0x90, 0x39, 0x42, 0x00, 0x90, 0x3e, 0x42, 
  0x00, 0x90, 0x41, 0x42, 0x00, 0x90, 0x45, 0x42, 0x8f, 0x00, 0x90, 0x47, 0x37, 0x00, 0x80, 0x28, 
  0x00, 0x00, 0x80, 0x39, 0x00, 0x00, 0x80, 0x3e, 0x00, 0x00, 0x80, 0x41, 0x00, 0x00, 0x80, 0x45, 
  0x00, 0x00, 0x90, 0x28, 0x48, 0x71, 0x80, 0x4d, 0x00, 0x86, 0x4f, 0x90, 0x48, 0x47, 0x00, 0x90, 
  0x39, 0x3f, 0x00, 0x90, 0x3c, 0x3f, 0x00, 0x90, 0x41, 0x3f, 0x26, 0x80, 0x47, 0x00, 0x87, 0x1a, 
  0x90, 0x4d, 0x51, 0x26, 0x80, 0x48, 0x00, 0x87, 0x1a, 0x90, 0x4c, 0x47, 0x00, 0x80, 0x28, 0x00, 
  0x00, 0x80, 0x39, 0x00, 0x00, 0x80, 0x3c, 0x00, 0x00, 0x80, 0x41, 0x00, 0x00, 0x90, 0x28, 0x44, 
  0x26, 0x80, 0x4d, 0x00, 0x87, 0x1a, 0x90, 0x4a, 0x43, 0x00, 0x90, 0x3c, 0x40, 0x00, 0x90, 0x40, 
  0x40, 0x00, 0x90, 0x45, 0x40, 0x26, 0x80, 0x4c, 0x00, 0x87, 0x1a, 0x90, 0x48, 0x42, 0x26, 0x80, 
  0x4a, 0x00, 0x87, 0x1a, 0x90, 0x4c, 0x47, 0x00, 0x80, 0x28, 0x00, 0x00, 0x80, 0x3c, 0x00, 0x00, 
  0x80, 0x40, 0x00, 0x00, 0x80, 0x45, 0x00, 0x00, 0x90, 0x28, 0x46, 0x26, 0x80, 0x48, 0x00, 0x87, 
  0x1a, 0x90, 0x4a, 0x42, 0x00, 0x90, 0x39, 0x3d, 0x00, 0x90, 0x3c, 0x3d, 0x00, 0x90, 0x41, 0x3d, 
  0x00, 0x90, 0x45, 0x3d, 0x26, 0x80, 0x4c, 0x00, 0x87, 0x1a, 0x90, 0x48, 0x3d, 0x26, 0x80, 0x4a, 
  0x00, 0x87, 0x1a, 0x90, 0x41, 0x38, 0x00, 0x80, 0x28, 0x00, 0x00, 0x80, 0x39, 0x00, 0x00, 0x80, 
  0x3c, 0x00, 0x00, 0x80, 0x41, 0x00, 0x00, 0x80, 0x45, 0x00, 0x00, 0x90, 0x28, 0x45, 0x26, 0x80, 
  0x48, 0x00, 0x87, 0x1a, 0x90, 0x2f, 0x40, 0x00, 0x90, 0x39, 0x40, 0x00, 0x90, 0x3e, 0x40, 0x87, 
  0x40, 0x90, 0x43, 0x46, 0x00, 0x80, 0x3e, 0x00, 0x00, 0x90, 0x34, 0x42, 0x00, 0x90, 0x3b, 0x42, 
  0x00, 0x90, 0x3e, 0x42, 0x13, 0x80, 0x2f, 0x00, 0x00, 0x80, 0x39, 0x00, 0x38, 0x80, 0x41, 0x00, 
  0x86, 0x75, 0x90, 0x48, 0x54, 0x00, 0x80, 0x28, 0x00, 0x00, 0x90, 0x3c, 0x52, 0x00, 0x90, 0x40, 
  0x52, 0x00, 0x90, 0x45, 0x52, 0x00, 0x90, 0x2d, 0x50, 0x00, 0x90, 0x37, 0x50, 0x13, 0x80, 0x34, 
  0x00, 0x00, 0x80, 0x3b, 0x00, 0x00, 0x80, 0x3e, 0x00, 0x13, 0x80, 0x43, 0x00, 0x93, 0x7d, 0x80, 
  0x48, 0x00, 0x81, 0x0b, 0x80, 0x3c, 0x00, 0x00, 0x80, 0x40, 0x00, 0x00, 0x80, 0x45, 0x00, 0x00, 
  0x80, 0x2d, 0x00, 0x00, 0x80, 0x37, 0x00, 0x81, 0x12, 0x90, 0x4a, 0x46, 0x00, 0x90, 0x3e, 0x47, 
  0x00, 0x90, 0x41, 0x47, 0x00, 0x90, 0x45, 0x47, 0x00, 0x90, 0x26, 0x40, 0x00, 0x90, 0x2d, 0x40, 
  0x00, 0x90, 0x32, 0x40, 0x96, 0x40, 0x80, 0x4a, 0x00, 0x00, 0x80, 0x3e, 0x00, 0x00, 0x80, 0x41, 
  0x00, 0x00, 0x80, 0x45, 0x00, 0x00, 0x80, 0x26, 0x00, 0x00, 0x80, 0x2d, 0x00, 0x00, 0x80, 0x32, 
  0x00, 0x01, 0xff, 0x2f, 0x00
};