// array size is 4882
static const char bytes[]  = {
  0x4d, 0x54, 0x68, 0x64, 0x00, 0x00, 0x00, 0x06, 0x00, 0x01, 0x00, 0x04, 0x01, 0xe0, 0x4d, 0x54, 
  0x72, 0x6b, 0x00, 0x00, 0x00, 0x31, 0x00, 0xff, 0x02, 0x03, 0x69, 0x64, 0x6b, 0x00, 0xff, 0x58, 
  0x04, 0x04, 0x02, 0x18, 0x08, 0x00, 0xff, 0x51, 0x03, 0x05, 0x6a, 0xd5, 0x00, 0xff, 0x51, 0x03, 
  0x05, 0x6a, 0xd5, 0x00, 0xff, 0x51, 0x03, 0x05, 0x6a, 0xd5, 0x82, 0x8e, 0x00, 0xff, 0x51, 0x03, 
  0x05, 0x6a, 0xd5, 0x00, 0xff, 0x2f, 0x00, 0x4d, 0x54, 0x72, 0x6b, 0x00, 0x00, 0x04, 0xb3, 0x00, 
  0xff, 0x03, 0x08, 0x50, 0x69, 0x61, 0x6e, 0x6f, 0x20, 0x52, 0x48, 0x00, 0xb0, 0x00, 0x00, 0x00, 
  0xc0, 0x00, 0x00, 0xb0, 0x0a, 0x58, 0x00, 0xb0, 0x07, 0x60, 0x00, 0xb0, 0x0a, 0x54, 0xda, 0x00, 
  0x90, 0x48, 0x7f, 0x82, 0x40, 0x80, 0x48, 0x40, 0x83, 0x10, 0x90, 0x48, 0x7f, 0x82, 0x40, 0x80, 
  0x48, 0x40, 0x83, 0x10, 0x90, 0x48, 0x7f, 0x82, 0x40, 0x80, 0x48, 0x40, 0x8c, 0x40, 0x90, 0x48, 
  0x7f, 0x81, 0x20, 0x80, 0x48, 0x40, 0x50, 0x90, 0x47, 0x7f, 0x81, 0x20, 0x80, 0x47, 0x40, 0x82, 
  0x40, 0x90, 0x45, 0x7f, 0x81, 0x20, 0x80, 0x45, 0x40, 0x50, 0x90, 0x47, 0x7f, 0x83, 0x60, 0x90, 
  0x48, 0x7f, 0x00, 0x80, 0x47, 0x40, 0x81, 0x20, 0x80, 0x48, 0x40, 0x50, 0x90, 0x4a, 0x7f, 0x81, 
  0x20, 0x80, 0x4a, 0x40, 0x84, 0x30, 0x90, 0x4c, 0x7f, 0x82, 0x40, 0x80, 0x4c, 0x40, 0x83, 0x10, 
  0x90, 0x4c, 0x7f, 0x82, 0x40, 0x80, 0x4c, 0x40, 0x83, 0x10, 0x90, 0x4c, 0x7f, 0x82, 0x40, 0x80, 
  0x4c, 0x40, 0x8c, 0x40, 0x90, 0x4c, 0x7f, 0x81, 0x20, 0x80, 0x4c, 0x40, 0x50, 0x90, 0x4a, 0x7f, 
  0x81, 0x20, 0x80, 0x4a, 0x40, 0x82, 0x40, 0x90, 0x48, 0x7f, 0x81, 0x20, 0x80, 0x48, 0x40, 0x50, 
  0x90, 0x4a, 0x7f, 0x81, 0x20, 0x80, 0x4a, 0x40, 0x82, 0x40, 0x90, 0x4c, 0x7f, 0x81, 0x20, 0x80, 
  0x4c, 0x40, 0x50, 0x90, 0x4d, 0x7f, 0x81, 0x20, 0x80, 0x4d, 0x40, 0x84, 0x30, 0x90, 0x4f, 0x7f, 
  0x81, 0x20, 0x80, 0x4f, 0x40, 0x8a, 0x00, 0x90, 0x48, 0x7f, 0x81, 0x20, 0x80, 0x48, 0x40, 0x8d, 
  0x60, 0x90, 0x51, 0x7f, 0x81, 0x20, 0x80, 0x51, 0x40, 0x50, 0x90, 0x4f, 0x7f, 0x81, 0x20, 0x80, 
  0x4f, 0x40, 0x82, 0x40, 0x90, 0x4d, 0x7f, 0x81, 0x20, 0x80, 0x4d, 0x40, 0x50, 0x90, 0x4c, 0x7f, 
  0x81, 0x20, 0x80, 0x4c, 0x40, 0x84, 0x30, 0x90, 0x4a, 0x7f, 0x81, 0x20, 0x80, 0x4a, 0x40, 0x84, 
  0x30, 0x90, 0x48, 0x7f, 0x81, 0x20, 0x80, 0x48, 0x40, 0x88, 0x10, 0x90, 0x47, 0x7f, 0x81, 0x20, 
  0x80, 0x47, 0x40, 0x50, 0x90, 0x45, 0x7f, 0x81, 0x20, 0x80, 0x45, 0x40, 0x88, 0x10, 0x90, 0x43, 
  0x7f, 0x81, 0x20, 0x80, 0x43, 0x40, 0x50, 0x90, 0x41, 0x7f, 0x81, 0x20, 0x80, 0x41, 0x40, 0x88, 
  0x10, 0x90, 0x43, 0x7f, 0x81, 0x20, 0x80, 0x43, 0x40, 0x50, 0x90, 0x45, 0x7f, 0x81, 0x20, 0x80, 
  0x45, 0x40, 0x84, 0x30, 0x90, 0x47, 0x7f, 0x81, 0x20, 0x80, 0x47, 0x40, 0x84, 0x30, 0x90, 0x48, 
  0x7f, 0x81, 0x20, 0x80, 0x48, 0x40, 0x84, 0x30, 0x90, 0x48, 0x7f, 0x82, 0x40, 0x80, 0x48, 0x40, 
  0x83, 0x10, 0x90, 0x48, 0x7f, 0x82, 0x40, 0x80, 0x48, 0x40, 0x8c, 0x40, 0x90, 0x48, 0x7f, 0x81, 
  0x20, 0x80, 0x48, 0x40, 0x50, 0x90, 0x47, 0x7f, 0x81, 0x20, 0x80, 0x47, 0x40, 0x82, 0x40, 0x90, 
  0x45, 0x7f, 0x81, 0x20, 0x80, 0x45, 0x40, 0x50, 0x90, 0x47, 0x7f, 0x81, 0x20, 0x80, 0x47, 0x40, 
  0x82, 0x40, 0x90, 0x48, 0x7f, 0x81, 0x20, 0x80, 0x48, 0x40, 0x50, 0x90, 0x4a, 0x7f, 0x81, 0x20, 
  0x80, 0x4a, 0x40, 0x84, 0x30, 0x90, 0x4c, 0x7f, 0x82, 0x40, 0x80, 0x4c, 0x40, 0x83, 0x10, 0x90, 
  0x4c, 0x7f, 0x82, 0x40, 0x80, 0x4c, 0x40, 0x83, 0x10, 0x90, 0x4c, 0x7f, 0x82, 0x40, 0x80, 0x4c, 
  0x40, 0x8c, 0x40, 0x90, 0x4c, 0x7f, 0x81, 0x20, 0x80, 0x4c, 0x40, 0x50, 0x90, 0x4a, 0x7f, 0x81, 
  0x20, 0x80, 0x4a, 0x40, 0x82, 0x40, 0x90, 0x48, 0x7f, 0x81, 0x20, 0x80, 0x48, 0x40, 0x50, 0x90, 
  0x4a, 0x7f, 0x81, 0x20, 0x80, 0x4a, 0x40, 0x82, 0x40, 0x90, 0x4c, 0x7f, 0x81, 0x20, 0x80, 0x4c, 
  0x40, 0x50, 0x90, 0x4d, 0x7f, 0x81, 0x20, 0x80, 0x4d, 0x40, 0x84, 0x30, 0x90, 0x4f, 0x7f, 0x81, 
  0x20, 0x80, 0x4f, 0x40, 0x8a, 0x00, 0x90, 0x48, 0x7f, 0x81, 0x20, 0x80, 0x48, 0x40, 0x8d, 0x60, 
  0x90, 0x51, 0x7f, 0x81, 0x20, 0x80, 0x51, 0x40, 0x50, 0x90, 0x4f, 0x7f, 0x81, 0x20, 0x80, 0x4f, 
  0x40, 0x82, 0x40, 0x90, 0x4d, 0x7f, 0x81, 0x20, 0x80, 0x4d, 0x40, 0x50, 0x90, 0x4c, 0x7f, 0x81, 
  0x20, 0x80, 0x4c, 0x40, 0x84, 0x30, 0x90, 0x4a, 0x7f, 0x81, 0x20, 0x80, 0x4a, 0x40, 0x84, 0x30, 
  0x90, 0x48, 0x7f, 0x81, 0x20, 0x80, 0x48, 0x40, 0x88, 0x10, 0x90, 0x47, 0x7f, 0x81, 0x20, 0x80, 
  0x47, 0x40, 0x50, 0x90, 0x45, 0x7f, 0x81, 0x20, 0x80, 0x45, 0x40, 0x88, 0x10, 0x90, 0x43, 0x7f, 
  0x81, 0x20, 0x80, 0x43, 0x40, 0x50, 0x90, 0x41, 0x7f, 0x81, 0x20, 0x80, 0x41, 0x40, 0x88, 0x10, 
  0x90, 0x43, 0x7f, 0x81, 0x20, 0x80, 0x43, 0x40, 0x50, 0x90, 0x45, 0x7f, 0x81, 0x20, 0x80, 0x45, 
  0x40, 0x84, 0x30, 0x90, 0x47, 0x7f, 0x81, 0x20, 0x80, 0x47, 0x40, 0x84, 0x30, 0x90, 0x48, 0x7f, 
  0x81, 0x20, 0x80, 0x48, 0x40, 0x84, 0x30, 0x90, 0x48, 0x7f, 0x82, 0x40, 0x80, 0x48, 0x40, 0x83, 
  0x10, 0x90, 0x48, 0x7f, 0x82, 0x40, 0x80, 0x48, 0x40, 0x8c, 0x40, 0x90, 0x48, 0x7f, 0x81, 0x20, 
  0x80, 0x48, 0x40, 0x50, 0x90, 0x47, 0x7f, 0x81, 0x20, 0x80, 0x47, 0x40, 0x82, 0x40, 0x90, 0x45, 
  0x7f, 0x81, 0x20, 0x80, 0x45, 0x40, 0x50, 0x90, 0x47, 0x7f, 0x81, 0x20, 0x80, 0x47, 0x40, 0x82, 
  0x40, 0x90, 0x48, 0x7f, 0x81, 0x20, 0x80, 0x48, 0x40, 0x50, 0x90, 0x4a, 0x7f, 0x81, 0x20, 0x80, 
  0x4a, 0x40, 0x84, 0x30, 0x90, 0x4c, 0x7f, 0x82, 0x40, 0x80, 0x4c, 0x40, 0x83, 0x10, 0x90, 0x4c, 
  0x7f, 0x82, 0x40, 0x80, 0x4c, 0x40, 0x83, 0x10, 0x90, 0x4c, 0x7f, 0x82, 0x40, 0x80, 0x4c, 0x40, 
  0x8c, 0x40, 0x90, 0x4c, 0x7f, 0x81, 0x20, 0x80, 0x4c, 0x40, 0x50, 0x90, 0x4a, 0x7f, 0x81, 0x20, 
  0x80, 0x4a, 0x40, 0x82, 0x40, 0x90, 0x48, 0x7f, 0x81, 0x20, 0x80, 0x48, 0x40, 0x50, 0x90, 0x4a, 
  0x7f, 0x81, 0x20, 0x80, 0x4a, 0x40, 0x82, 0x40, 0x90, 0x4c, 0x7f, 0x81, 0x20, 0x80, 0x4c, 0x40, 
  0x50, 0x90, 0x4d, 0x7f, 0x81, 0x20, 0x80, 0x4d, 0x40, 0x84, 0x30, 0x90, 0x4f, 0x7f, 0x81, 0x20, 
  0x80, 0x4f, 0x40, 0x8a, 0x00, 0x90, 0x48, 0x7f, 0x81, 0x20, 0x80, 0x48, 0x40, 0x8d, 0x60, 0x90, 
  0x51, 0x7f, 0x81, 0x20, 0x80, 0x51, 0x40, 0x50, 0x90, 0x4f, 0x7f, 0x81, 0x20, 0x80, 0x4f, 0x40, 
  0x82, 0x40, 0x90, 0x4d, 0x7f, 0x81, 0x20, 0x80, 0x4d, 0x40, 0x50, 0x90, 0x4c, 0x7f, 0x81, 0x20, 
  0x80, 0x4c, 0x40, 0x84, 0x30, 0x90, 0x4a, 0x7f, 0x81, 0x20, 0x80, 0x4a, 0x40, 0x84, 0x30, 0x90, 
  0x48, 0x7f, 0x81, 0x20, 0x80, 0x48, 0x40, 0x88, 0x10, 0x90, 0x47, 0x7f, 0x81, 0x20, 0x80, 0x47, 
  0x40, 0x50, 0x90, 0x45, 0x7f, 0x81, 0x20, 0x80, 0x45, 0x40, 0x88, 0x10, 0x90, 0x43, 0x7f, 0x81, 
  0x20, 0x80, 0x43, 0x40, 0x50, 0x90, 0x41, 0x7f, 0x81, 0x20, 0x80, 0x41, 0x40, 0x88, 0x10, 0x90, 
  0x43, 0x7f, 0x81, 0x20, 0x80, 0x43, 0x40, 0x50, 0x90, 0x45, 0x7f, 0x81, 0x20, 0x80, 0x45, 0x40, 
  0x84, 0x30, 0x90, 0x47, 0x7f, 0x81, 0x20, 0x80, 0x47, 0x40, 0x84, 0x30, 0x90, 0x48, 0x7f, 0x82, 
  0x40, 0x80, 0x48, 0x40, 0x83, 0x10, 0x90, 0x48, 0x7f, 0x82, 0x40, 0x80, 0x48, 0x40, 0x83, 0x10, 
  0x90, 0x48, 0x7f, 0x82, 0x40, 0x80, 0x48, 0x40, 0x8c, 0x40, 0x90, 0x48, 0x7f, 0x81, 0x20, 0x80, 
  0x48, 0x40, 0x50, 0x90, 0x47, 0x7f, 0x81, 0x20, 0x80, 0x47, 0x40, 0x82, 0x40, 0x90, 0x45, 0x7f, 
  0x81, 0x20, 0x80, 0x45, 0x40, 0x50, 0x90, 0x47, 0x7f, 0x83, 0x60, 0x90, 0x48, 0x7f, 0x00, 0x80, 
  0x47, 0x40, 0x81, 0x20, 0x80, 0x48, 0x40, 0x50, 0x90, 0x4a, 0x7f, 0x81, 0x20, 0x80, 0x4a, 0x40, 
  0x84, 0x30, 0x90, 0x4c, 0x7f, 0x82, 0x40, 0x80, 0x4c, 0x40, 0x83, 0x10, 0x90, 0x4c, 0x7f, 0x82, 
  0x40, 0x80, 0x4c, 0x40, 0x83, 0x10, 0x90, 0x4c, 0x7f, 0x82, 0x40, 0x80, 0x4c, 0x40, 0x8c, 0x40, 
  0x90, 0x4c, 0x7f, 0x81, 0x20, 0x80, 0x4c, 0x40, 0x50, 0x90, 0x4a, 0x7f, 0x81, 0x20, 0x80, 0x4a, 
  0x40, 0x82, 0x40, 0x90, 0x48, 0x7f, 0x81, 0x20, 0x80, 0x48, 0x40, 0x50, 0x90, 0x4a, 0x7f, 0x81, 
  0x20, 0x80, 0x4a, 0x40, 0x82, 0x40, 0x90, 0x4c, 0x7f, 0x81, 0x20, 0x80, 0x4c, 0x40, 0x50, 0x90, 
  0x4d, 0x7f, 0x81, 0x20, 0x80, 0x4d, 0x40, 0x84, 0x30, 0x90, 0x4f, 0x7f, 0x81, 0x20, 0x80, 0x4f, 
  0x40, 0x8a, 0x00, 0x90, 0x48, 0x7f, 0x81, 0x20, 0x80, 0x48, 0x40, 0x8d, 0x60, 0x90, 0x51, 0x7f, 
  0x81, 0x20, 0x80, 0x51, 0x40, 0x50, 0x90, 0x4f, 0x7f, 0x81, 0x20, 0x80, 0x4f, 0x40, 0x00, 0xff, 
  0x2f, 0x00, 0x4d, 0x54, 0x72, 0x6b, 0x00, 0x00, 0x0c, 0x53, 0x00, 0xff, 0x03, 0x08, 0x50, 0x69, 
  0x61, 0x6e, 0x6f, 0x20, 0x4c, 0x48, 0x00, 0xb1, 0x00, 0x00, 0x00, 0xc1, 0x00, 0x00, 0xb1, 0x0a, 
  0x31, 0x00, 0xb1, 0x07, 0x60, 0x00, 0x81, 0x3c, 0x7f, 0x00, 0x91, 0x3c, 0x64, 0x81, 0x20, 0x81, 
  0x3c, 0x40, 0x82, 0x40, 0x91, 0x3c, 0x64, 0x81, 0x20, 0x81, 0x3c, 0x40, 0x50, 0x91, 0x40, 0x64, 
  0x81, 0x20, 0x81, 0x40, 0x40, 0x82, 0x40, 0x91, 0x40, 0x64, 0x81, 0x20, 0x81, 0x40, 0x40, 0x50, 
  0x91, 0x39, 0x64, 0x81, 0x20, 0x81, 0x39, 0x40, 0x82, 0x40, 0x91, 0x39, 0x64, 0x81, 0x20, 0x81, 
  0x39, 0x40, 0x50, 0x91, 0x3c, 0x64, 0x81, 0x20, 0x81, 0x3c, 0x40, 0x82, 0x40, 0x91, 0x3c, 0x64, 
  0x81, 0x20, 0x81, 0x3c, 0x40, 0x50, 0x91, 0x3e, 0x64, 0x81, 0x20, 0x81, 0x3e, 0x40, 0x82, 0x40, 
  0x91, 0x3e, 0x64, 0x81, 0x20, 0x81, 0x3e, 0x40, 0x50, 0x91, 0x41, 0x64, 0x81, 0x20, 0x81, 0x41, 
  0x40, 0x82, 0x40, 0x91, 0x41, 0x64, 0x81, 0x20, 0x81, 0x41, 0x40, 0x50, 0x91, 0x37, 0x64, 0x81, 
  0x20, 0x81, 0x37, 0x40, 0x82, 0x40, 0x91, 0x37, 0x64, 0x81, 0x20, 0x81, 0x37, 0x40, 0x50, 0x91, 
  0x3b, 0x64, 0x81, 0x20, 0x81, 0x3b, 0x40, 0x82, 0x40, 0x91, 0x3b, 0x64, 0x81, 0x20, 0x81, 0x3b, 
  0x40, 0x50, 0x91, 0x3c, 0x64, 0x81, 0x20, 0x81, 0x3c, 0x40, 0x82, 0x40, 0x91, 0x3c, 0x64, 0x81, 
  0x20, 0x81, 0x3c, 0x40, 0x50, 0x91, 0x40, 0x64, 0x81, 0x20, 0x81, 0x40, 0x40, 0x82, 0x40, 0x91, 
  0x40, 0x64, 0x81, 0x20, 0x81, 0x40, 0x40, 0x50, 0x91, 0x39, 0x64, 0x81, 0x20, 0x81, 0x39, 0x40, 
  0x82, 0x40, 0x91, 0x39, 0x64, 0x81, 0x20, 0x81, 0x39, 0x40, 0x50, 0x91, 0x3c, 0x64, 0x81, 0x20, 
  0x81, 0x3c, 0x40, 0x82, 0x40, 0x91, 0x3c, 0x64, 0x81, 0x20, 0x81, 0x3c, 0x40, 0x50, 0x91, 0x35, 
  0x64, 0x81, 0x20, 0x81, 0x35, 0x40, 0x82, 0x40, 0x91, 0x35, 0x64, 0x81, 0x20, 0x81, 0x35, 0x40, 
  0x50, 0x91, 0x39, 0x64, 0x81, 0x20, 0x81, 0x39, 0x40, 0x82, 0x40, 0x91, 0x39, 0x64, 0x81, 0x20, 
  0x81, 0x39, 0x40, 0x50, 0x91, 0x37, 0x64, 0x81, 0x20, 0x81, 0x37, 0x40, 0x82, 0x40, 0x91, 0x37, 
  0x64, 0x81, 0x20, 0x81, 0x37, 0x40, 0x50, 0x91, 0x3b, 0x64, 0x81, 0x20, 0x81, 0x3b, 0x40, 0x82, 
  0x40, 0x91, 0x3b, 0x64, 0x81, 0x20, 0x81, 0x3b, 0x40, 0x50, 0x91, 0x30, 0x64, 0x81, 0x20, 0x81, 
  0x30, 0x40, 0x82, 0x40, 0x91, 0x30, 0x64, 0x81, 0x20, 0x81, 0x30, 0x40, 0x50, 0x91, 0x3c, 0x64, 
  0x00, 0x91, 0x40, 0x64, 0x81, 0x20, 0x81, 0x3c, 0x40, 0x00, 0x81, 0x40, 0x40, 0x82, 0x40, 0x91, 
  0x3c, 0x64, 0x00, 0x91, 0x40, 0x64, 0x81, 0x20, 0x81, 0x3c, 0x40, 0x00, 0x81, 0x40, 0x40, 0x50, 
  0x91, 0x2d, 0x64, 0x81, 0x20, 0x81, 0x2d, 0x40, 0x82, 0x40, 0x91, 0x2d, 0x64, 0x81, 0x20, 0x81, 
  0x2d, 0x40, 0x50, 0x91, 0x39, 0x64, 0x00, 0x91, 0x3c, 0x64, 0x81, 0x20, 0x81, 0x39, 0x40, 0x00, 
  0x81, 0x3c, 0x40, 0x82, 0x40, 0x91, 0x39, 0x64, 0x00, 0x91, 0x3c, 0x64, 0x81, 0x20, 0x81, 0x39, 
  0x40, 0x00, 0x81, 0x3c, 0x40, 0x50, 0x91, 0x32, 0x64, 0x81, 0x20, 0x81, 0x32, 0x40, 0x82, 0x40, 
  0x91, 0x32, 0x64, 0x81, 0x20, 0x81, 0x32, 0x40, 0x50, 0x91, 0x3e, 0x64, 0x00, 0x91, 0x41, 0x64, 
  0x81, 0x20, 0x81, 0x3e, 0x40, 0x00, 0x81, 0x41, 0x40, 0x82, 0x40, 0x91, 0x3e, 0x64, 0x00, 0x91, 
  0x41, 0x64, 0x81, 0x20, 0x81, 0x3e, 0x40, 0x00, 0x81, 0x41, 0x40, 0x50, 0x91, 0x2b, 0x64, 0x81, 
  0x20, 0x81, 0x2b, 0x40, 0x82, 0x40, 0x91, 0x2b, 0x64, 0x81, 0x20, 0x81, 0x2b, 0x40, 0x50, 0x91, 
  0x37, 0x64, 0x00, 0x91, 0x3b, 0x64, 0x81, 0x20, 0x81, 0x37, 0x40, 0x00, 0x81, 0x3b, 0x40, 0x82, 
  0x40, 0x91, 0x37, 0x64, 0x00, 0x91, 0x3b, 0x64, 0x81, 0x20, 0x81, 0x37, 0x40, 0x00, 0x81, 0x3b, 
  0x40, 0x50, 0x91, 0x30, 0x64, 0x81, 0x20, 0x81, 0x30, 0x40, 0x82, 0x40, 0x91, 0x30, 0x64, 0x81, 
  0x20, 0x81, 0x30, 0x40, 0x50, 0x91, 0x3c, 0x64, 0x00, 0x91, 0x40, 0x64, 0x81, 0x20, 0x81, 0x3c, 
  0x40, 0x00, 0x81, 0x40, 0x40, 0x82, 0x40, 0x91, 0x3c, 0x64, 0x00, 0x91, 0x40, 0x64, 0x81, 0x20, 
  0x81, 0x3c, 0x40, 0x00, 0x81, 0x40, 0x40, 0x50, 0x91, 0x2d, 0x64, 0x81, 0x20, 0x81, 0x2d, 0x40, 
  0x82, 0x40, 0x91, 0x2d, 0x64, 0x81, 0x20, 0x81, 0x2d, 0x40, 0x50, 0x91, 0x39, 0x64, 0x00, 0x91, 
  0x3c, 0x64, 0x81, 0x20, 0x81, 0x39, 0x40, 0x00, 0x81, 0x3c, 0x40, 0x82, 0x40, 0x91, 0x39, 0x64, 
  0x00, 0x91, 0x3c, 0x64, 0x81, 0x20, 0x81, 0x39, 0x40, 0x00, 0x81, 0x3c, 0x40, 0x50, 0x91, 0x29, 
  0x64, 0x81, 0x20, 0x81, 0x29, 0x40, 0x82, 0x40, 0x91, 0x29, 0x64, 0x81, 0x20, 0x81, 0x29, 0x40, 
  0x50, 0x91, 0x39, 0x64, 0x00, 0x91, 0x35, 0x64, 0x81, 0x20, 0x81, 0x39, 0x40, 0x00, 0x81, 0x35, 
  0x40, 0x82, 0x40, 0x91, 0x35, 0x64, 0x00, 0x91, 0x39, 0x64, 0x81, 0x20, 0x81, 0x35, 0x40, 0x00, 
  0x81, 0x39, 0x40, 0x50, 0x91, 0x2b, 0x64, 0x81, 0x20, 0x81, 0x2b, 0x40, 0x82, 0x40, 0x91, 0x2b, 
  0x64, 0x81, 0x20, 0x81, 0x2b, 0x40, 0x50, 0x91, 0x37, 0x64, 0x00, 0x91, 0x3b, 0x64, 0x81, 0x20, 
  0x81, 0x37, 0x40, 0x00, 0x81, 0x3b, 0x40, 0x82, 0x40, 0x91, 0x37, 0x64, 0x00, 0x91, 0x3b, 0x64, 
  0x81, 0x20, 0x81, 0x37, 0x40, 0x00, 0x81, 0x3b, 0x40, 0x50, 0x91, 0x30, 0x64, 0x81, 0x20, 0x81, 
  0x30, 0x40, 0x82, 0x40, 0x91, 0x30, 0x64, 0x81, 0x20, 0x81, 0x30, 0x40, 0x50, 0x91, 0x3c, 0x64, 
  0x00, 0x91, 0x40, 0x64, 0x81, 0x20, 0x81, 0x3c, 0x40, 0x00, 0x81, 0x40, 0x40, 0x82, 0x40, 0x91, 
  0x3c, 0x64, 0x00, 0x91, 0x40, 0x64, 0x81, 0x20, 0x81, 0x3c, 0x40, 0x00, 0x81, 0x40, 0x40, 0x50, 
  0x91, 0x2d, 0x64, 0x81, 0x20, 0x81, 0x2d, 0x40, 0x82, 0x40, 0x91, 0x2d, 0x64, 0x81, 0x20, 0x81, 
  0x2d, 0x40, 0x50, 0x91, 0x39, 0x64, 0x00, 0x91, 0x3c, 0x64, 0x81, 0x20, 0x81, 0x39, 0x40, 0x00, 
  0x81, 0x3c, 0x40, 0x82, 0x40, 0x91, 0x39, 0x64, 0x00, 0x91, 0x3c, 0x64, 0x81, 0x20, 0x81, 0x39, 
  0x40, 0x00, 0x81, 0x3c, 0x40, 0x50, 0x91, 0x32, 0x64, 0x81, 0x20, 0x81, 0x32, 0x40, 0x82, 0x40, 
  0x91, 0x32, 0x64, 0x81, 0x20, 0x81, 0x32, 0x40, 0x50, 0x91, 0x3e, 0x64, 0x00, 0x91, 0x41, 0x64, 
  0x81, 0x20, 0x81, 0x3e, 0x40, 0x00, 0x81, 0x41, 0x40, 0x82, 0x40, 0x91, 0x3e, 0x64, 0x00, 0x91, 
  0x41, 0x64, 0x81, 0x20, 0x81, 0x3e, 0x40, 0x00, 0x81, 0x41, 0x40, 0x50, 0x91, 0x2b, 0x64, 0x81, 
  0x20, 0x81, 0x2b, 0x40, 0x82, 0x40, 0x91, 0x2b, 0x64, 0x81, 0x20, 0x81, 0x2b, 0x40, 0x50, 0x91, 
  0x37, 0x64, 0x00, 0x91, 0x3b, 0x64, 0x81, 0x20, 0x81, 0x37, 0x40, 0x00, 0x81, 0x3b, 0x40, 0x82, 
  0x40, 0x91, 0x37, 0x64, 0x00, 0x91, 0x3b, 0x64, 0x81, 0x20, 0x81, 0x37, 0x40, 0x00, 0x81, 0x3b, 
  0x40, 0x50, 0x91, 0x30, 0x64, 0x81, 0x20, 0x81, 0x30, 0x40, 0x82, 0x40, 0x91, 0x30, 0x64, 0x81, 
  0x20, 0x81, 0x30, 0x40, 0x50, 0x91, 0x3c, 0x64, 0x00, 0x91, 0x40, 0x64, 0x81, 0x20, 0x81, 0x3c, 
  0x40, 0x00, 0x81, 0x40, 0x40, 0x82, 0x40, 0x91, 0x3c, 0x64, 0x00, 0x91, 0x40, 0x64, 0x81, 0x20, 
  0x81, 0x3c, 0x40, 0x00, 0x81, 0x40, 0x40, 0x50, 0x91, 0x2d, 0x64, 0x81, 0x20, 0x81, 0x2d, 0x40, 
  0x82, 0x40, 0x91, 0x2d, 0x64, 0x81, 0x20, 0x81, 0x2d, 0x40, 0x50, 0x91, 0x39, 0x64, 0x00, 0x91, 
  0x3c, 0x64, 0x81, 0x20, 0x81, 0x39, 0x40, 0x00, 0x81, 0x3c, 0x40, 0x82, 0x40, 0x91, 0x39, 0x64, 
  0x00, 0x91, 0x3c, 0x64, 0x81, 0x20, 0x81, 0x39, 0x40, 0x00, 0x81, 0x3c, 0x40, 0x50, 0x91, 0x29, 
  0x64, 0x81, 0x20, 0x81, 0x29, 0x40, 0x82, 0x40, 0x91, 0x29, 0x64, 0x81, 0x20, 0x81, 0x29, 0x40, 
  0x50, 0x91, 0x39, 0x64, 0x00, 0x91, 0x35, 0x64, 0x81, 0x20, 0x81, 0x39, 0x40, 0x00, 0x81, 0x35, 
  0x40, 0x82, 0x40, 0x91, 0x35, 0x64, 0x00, 0x91, 0x39, 0x64, 0x81, 0x20, 0x81, 0x35, 0x40, 0x00, 
  0x81, 0x39, 0x40, 0x50, 0x91, 0x2b, 0x64, 0x81, 0x20, 0x81, 0x2b, 0x40, 0x82, 0x40, 0x91, 0x2b, 
  0x64, 0x81, 0x20, 0x81, 0x2b, 0x40, 0x50, 0x91, 0x37, 0x64, 0x00, 0x91, 0x3b, 0x64, 0x81, 0x20, 
  0x81, 0x37, 0x40, 0x00, 0x81, 0x3b, 0x40, 0x82, 0x40, 0x91, 0x37, 0x64, 0x00, 0x91, 0x3b, 0x64, 
  0x81, 0x20, 0x81, 0x37, 0x40, 0x00, 0x81, 0x3b, 0x40, 0x50, 0x91, 0x30, 0x64, 0x81, 0x20, 0x81, 
  0x30, 0x40, 0x82, 0x40, 0x91, 0x30, 0x64, 0x81, 0x20, 0x81, 0x30, 0x40, 0x50, 0x91, 0x3c, 0x64, 
  0x00, 0x91, 0x40, 0x64, 0x81, 0x20, 0x81, 0x3c, 0x40, 0x00, 0x81, 0x40, 0x40, 0x82, 0x40, 0x91, 
  0x3c, 0x64, 0x00, 0x91, 0x40, 0x64, 0x81, 0x20, 0x81, 0x3c, 0x40, 0x00, 0x81, 0x40, 0x40, 0x50, 
  0x91, 0x2d, 0x64, 0x81, 0x20, 0x81, 0x2d, 0x40, 0x82, 0x40, 0x91, 0x2d, 0x64, 0x81, 0x20, 0x81, 
  0x2d, 0x40, 0x50, 0x91, 0x39, 0x64, 0x00, 0x91, 0x3c, 0x64, 0x81, 0x20, 0x81, 0x39, 0x40, 0x00, 
  0x81, 0x3c, 0x40, 0x82, 0x40, 0x91, 0x39, 0x64, 0x00, 0x91, 0x3c, 0x64, 0x81, 0x20, 0x81, 0x39, 
  0x40, 0x00, 0x81, 0x3c, 0x40, 0x50, 0x91, 0x32, 0x64, 0x81, 0x20, 0x81, 0x32, 0x40, 0x82, 0x40, 
  0x91, 0x32, 0x64, 0x81, 0x20, 0x81, 0x32, 0x40, 0x50, 0x91, 0x3e, 0x64, 0x00, 0x91, 0x41, 0x64, 
  0x81, 0x20, 0x81, 0x3e, 0x40, 0x00, 0x81, 0x41, 0x40, 0x82, 0x40, 0x91, 0x3e, 0x64, 0x00, 0x91, 
  0x41, 0x64, 0x81, 0x20, 0x81, 0x3e, 0x40, 0x00, 0x81, 0x41, 0x40, 0x50, 0x91, 0x2b, 0x64, 0x81, 
  0x20, 0x81, 0x2b, 0x40, 0x82, 0x40, 0x91, 0x2b, 0x64, 0x81, 0x20, 0x81, 0x2b, 0x40, 0x50, 0x91, 
  0x37, 0x64, 0x00, 0x91, 0x3b, 0x64, 0x81, 0x20, 0x81, 0x37, 0x40, 0x00, 0x81, 0x3b, 0x40, 0x82, 
  0x40, 0x91, 0x37, 0x64, 0x00, 0x91, 0x3b, 0x64, 0x81, 0x20, 0x81, 0x37, 0x40, 0x00, 0x81, 0x3b, 
  0x40, 0x50, 0x91, 0x30, 0x64, 0x81, 0x20, 0x81, 0x30, 0x40, 0x82, 0x40, 0x91, 0x30, 0x64, 0x81, 
  0x20, 0x81, 0x30, 0x40, 0x50, 0x91, 0x3c, 0x64, 0x00, 0x91, 0x40, 0x64, 0x81, 0x20, 0x81, 0x3c, 
  0x40, 0x00, 0x81, 0x40, 0x40, 0x82, 0x40, 0x91, 0x3c, 0x64, 0x00, 0x91, 0x40, 0x64, 0x81, 0x20, 
  0x81, 0x3c, 0x40, 0x00, 0x81, 0x40, 0x40, 0x50, 0x91, 0x2d, 0x64, 0x81, 0x20, 0x81, 0x2d, 0x40, 
  0x82, 0x40, 0x91, 0x2d, 0x64, 0x81, 0x20, 0x81, 0x2d, 0x40, 0x50, 0x91, 0x39, 0x64, 0x00, 0x91, 
  0x3c, 0x64, 0x81, 0x20, 0x81, 0x39, 0x40, 0x00, 0x81, 0x3c, 0x40, 0x82, 0x40, 0x91, 0x39, 0x64, 
  0x00, 0x91, 0x3c, 0x64, 0x81, 0x20, 0x81, 0x39, 0x40, 0x00, 0x81, 0x3c, 0x40, 0x50, 0x91, 0x29, 
  0x64, 0x81, 0x20, 0x81, 0x29, 0x40, 0x82, 0x40, 0x91, 0x29, 0x64, 0x81, 0x20, 0x81, 0x29, 0x40, 
  0x50, 0x91, 0x39, 0x64, 0x00, 0x91, 0x35, 0x64, 0x81, 0x20, 0x81, 0x39, 0x40, 0x00, 0x81, 0x35, 
  0x40, 0x82, 0x40, 0x91, 0x35, 0x64, 0x00, 0x91, 0x39, 0x64, 0x81, 0x20, 0x81, 0x35, 0x40, 0x00, 
  0x81, 0x39, 0x40, 0x50, 0x91, 0x2b, 0x64, 0x81, 0x20, 0x81, 0x2b, 0x40, 0x82, 0x40, 0x91, 0x2b, 
  0x64, 0x81, 0x20, 0x81, 0x2b, 0x40, 0x50, 0x91, 0x37, 0x64, 0x00, 0x91, 0x3b, 0x64, 0x81, 0x20, 
  0x81, 0x37, 0x40, 0x00, 0x81, 0x3b, 0x40, 0x82, 0x40, 0x91, 0x37, 0x64, 0x00, 0x91, 0x3b, 0x64, 
  0x81, 0x20, 0x81, 0x37, 0x40, 0x00, 0x81, 0x3b, 0x40, 0x50, 0x91, 0x30, 0x64, 0x81, 0x20, 0x81, 
  0x30, 0x40, 0x82, 0x40, 0x91, 0x30, 0x64, 0x81, 0x20, 0x81, 0x30, 0x40, 0x50, 0x91, 0x3c, 0x64, 
  0x00, 0x91, 0x40, 0x64, 0x81, 0x20, 0x81, 0x3c, 0x40, 0x00, 0x81, 0x40, 0x40, 0x82, 0x40, 0x91, 
  0x3c, 0x64, 0x00, 0x91, 0x40, 0x64, 0x81, 0x20, 0x81, 0x3c, 0x40, 0x00, 0x81, 0x40, 0x40, 0x50, 
  0x91, 0x2d, 0x64, 0x81, 0x20, 0x81, 0x2d, 0x40, 0x82, 0x40, 0x91, 0x2d, 0x64, 0x81, 0x20, 0x81, 
  0x2d, 0x40, 0x50, 0x91, 0x39, 0x64, 0x00, 0x91, 0x3c, 0x64, 0x81, 0x20, 0x81, 0x39, 0x40, 0x00, 
  0x81, 0x3c, 0x40, 0x82, 0x40, 0x91, 0x39, 0x64, 0x00, 0x91, 0x3c, 0x64, 0x81, 0x20, 0x81, 0x39, 
  0x40, 0x00, 0x81, 0x3c, 0x40, 0x50, 0x91, 0x32, 0x64, 0x81, 0x20, 0x81, 0x32, 0x40, 0x82, 0x40, 
  0x91, 0x32, 0x64, 0x81, 0x20, 0x81, 0x32, 0x40, 0x50, 0x91, 0x3e, 0x64, 0x00, 0x91, 0x41, 0x64, 
  0x81, 0x20, 0x81, 0x3e, 0x40, 0x00, 0x81, 0x41, 0x40, 0x82, 0x40, 0x91, 0x3e, 0x64, 0x00, 0x91, 
  0x41, 0x64, 0x81, 0x20, 0x81, 0x3e, 0x40, 0x00, 0x81, 0x41, 0x40, 0x50, 0x91, 0x2b, 0x64, 0x81, 
  0x20, 0x81, 0x2b, 0x40, 0x82, 0x40, 0x91, 0x2b, 0x64, 0x81, 0x20, 0x81, 0x2b, 0x40, 0x50, 0x91, 
  0x37, 0x64, 0x00, 0x91, 0x3b, 0x64, 0x81, 0x20, 0x81, 0x37, 0x40, 0x00, 0x81, 0x3b, 0x40, 0x82, 
  0x40, 0x91, 0x37, 0x64, 0x00, 0x91, 0x3b, 0x64, 0x81, 0x20, 0x81, 0x37, 0x40, 0x00, 0x81, 0x3b, 
  0x40, 0x50, 0x91, 0x30, 0x64, 0x81, 0x20, 0x81, 0x30, 0x40, 0x82, 0x40, 0x91, 0x30, 0x64, 0x81, 
  0x20, 0x81, 0x30, 0x40, 0x50, 0x91, 0x3c, 0x64, 0x00, 0x91, 0x40, 0x64, 0x81, 0x20, 0x81, 0x3c, 
  0x40, 0x00, 0x81, 0x40, 0x40, 0x82, 0x40, 0x91, 0x3c, 0x64, 0x00, 0x91, 0x40, 0x64, 0x81, 0x20, 
  0x81, 0x3c, 0x40, 0x00, 0x81, 0x40, 0x40, 0x50, 0x91, 0x2d, 0x64, 0x81, 0x20, 0x81, 0x2d, 0x40, 
  0x82, 0x40, 0x91, 0x2d, 0x64, 0x81, 0x20, 0x81, 0x2d, 0x40, 0x50, 0x91, 0x39, 0x64, 0x00, 0x91, 
  0x3c, 0x64, 0x81, 0x20, 0x81, 0x39, 0x40, 0x00, 0x81, 0x3c, 0x40, 0x82, 0x40, 0x91, 0x39, 0x64, 
  0x00, 0x91, 0x3c, 0x64, 0x81, 0x20, 0x81, 0x39, 0x40, 0x00, 0x81, 0x3c, 0x40, 0x50, 0x91, 0x29, 
  0x64, 0x81, 0x20, 0x81, 0x29, 0x40, 0x82, 0x40, 0x91, 0x29, 0x64, 0x81, 0x20, 0x81, 0x29, 0x40, 
  0x50, 0x91, 0x39, 0x64, 0x00, 0x91, 0x35, 0x64, 0x81, 0x20, 0x81, 0x39, 0x40, 0x00, 0x81, 0x35, 
  0x40, 0x82, 0x40, 0x91, 0x35, 0x64, 0x00, 0x91, 0x39, 0x64, 0x81, 0x20, 0x81, 0x35, 0x40, 0x00, 
  0x81, 0x39, 0x40, 0x50, 0x91, 0x2b, 0x64, 0x81, 0x20, 0x81, 0x2b, 0x40, 0x82, 0x40, 0x91, 0x2b, 
  0x64, 0x81, 0x20, 0x81, 0x2b, 0x40, 0x50, 0x91, 0x37, 0x64, 0x00, 0x91, 0x3b, 0x64, 0x81, 0x20, 
  0x81, 0x37, 0x40, 0x00, 0x81, 0x3b, 0x40, 0x82, 0x40, 0x91, 0x37, 0x64, 0x00, 0x91, 0x3b, 0x64, 
  0x81, 0x20, 0x81, 0x37, 0x40, 0x00, 0x81, 0x3b, 0x40, 0x50, 0xb1, 0x0a, 0x31, 0x00, 0xb1, 0x07, 
  0x60, 0x00, 0x91, 0x3c, 0x64, 0x81, 0x20, 0x81, 0x3c, 0x40, 0x82, 0x40, 0x91, 0x3c, 0x64, 0x81, 
  0x20, 0x81, 0x3c, 0x40, 0x50, 0x91, 0x40, 0x64, 0x81, 0x20, 0x81, 0x40, 0x40, 0x82, 0x40, 0x91, 
  0x40, 0x64, 0x81, 0x20, 0x81, 0x40, 0x40, 0x50, 0x91, 0x39, 0x64, 0x81, 0x20, 0x81, 0x39, 0x40, 
  0x82, 0x40, 0x91, 0x39, 0x64, 0x81, 0x20, 0x81, 0x39, 0x40, 0x50, 0x91, 0x3c, 0x64, 0x81, 0x20, 
  0x81, 0x3c, 0x40, 0x82, 0x40, 0x91, 0x3c, 0x64, 0x81, 0x20, 0x81, 0x3c, 0x40, 0x50, 0x91, 0x3e, 
  0x64, 0x81, 0x20, 0x81, 0x3e, 0x40, 0x82, 0x40, 0x91, 0x3e, 0x64, 0x81, 0x20, 0x81, 0x3e, 0x40, 
  0x50, 0x91, 0x41, 0x64, 0x81, 0x20, 0x81, 0x41, 0x40, 0x82, 0x40, 0x91, 0x41, 0x64, 0x81, 0x20, 
  0x81, 0x41, 0x40, 0x50, 0x91, 0x37, 0x64, 0x81, 0x20, 0x81, 0x37, 0x40, 0x82, 0x40, 0x91, 0x37, 
  0x64, 0x81, 0x20, 0x81, 0x37, 0x40, 0x50, 0x91, 0x3b, 0x64, 0x81, 0x20, 0x81, 0x3b, 0x40, 0x82, 
  0x40, 0x91, 0x3b, 0x64, 0x81, 0x20, 0x81, 0x3b, 0x40, 0x50, 0x91, 0x3c, 0x64, 0x81, 0x20, 0x81, 
  0x3c, 0x40, 0x82, 0x40, 0x91, 0x3c, 0x64, 0x81, 0x20, 0x81, 0x3c, 0x40, 0x50, 0x91, 0x40, 0x64, 
  0x81, 0x20, 0x81, 0x40, 0x40, 0x82, 0x40, 0x91, 0x40, 0x64, 0x81, 0x20, 0x81, 0x40, 0x40, 0x50, 
  0x91, 0x39, 0x64, 0x81, 0x20, 0x81, 0x39, 0x40, 0x82, 0x40, 0x91, 0x39, 0x64, 0x81, 0x20, 0x81, 
  0x39, 0x40, 0x50, 0x91, 0x3c, 0x64, 0x81, 0x20, 0x81, 0x3c, 0x40, 0x82, 0x40, 0x91, 0x3c, 0x64, 
  0x81, 0x20, 0x81, 0x3c, 0x40, 0x50, 0x91, 0x35, 0x64, 0x81, 0x20, 0x81, 0x35, 0x40, 0x82, 0x40, 
  0x91, 0x35, 0x64, 0x81, 0x20, 0x81, 0x35, 0x40, 0x50, 0x91, 0x39, 0x64, 0x81, 0x20, 0x81, 0x39, 
  0x40, 0x82, 0x40, 0x91, 0x39, 0x64, 0x81, 0x20, 0x81, 0x39, 0x40, 0x50, 0x91, 0x37, 0x64, 0x81, 
  0x20, 0x81, 0x37, 0x40, 0x82, 0x40, 0x91, 0x37, 0x64, 0x81, 0x20, 0x81, 0x37, 0x40, 0x50, 0x91, 
  0x3b, 0x64, 0x81, 0x20, 0x81, 0x3b, 0x40, 0x82, 0x40, 0x91, 0x3b, 0x64, 0x81, 0x20, 0x81, 0x3b, 
  0x40, 0x50, 0xb1, 0x0a, 0x31, 0x00, 0xb1, 0x07, 0x60, 0x00, 0x91, 0x30, 0x64, 0x81, 0x20, 0x81, 
  0x30, 0x40, 0x82, 0x40, 0x91, 0x30, 0x64, 0x81, 0x20, 0x81, 0x30, 0x40, 0x50, 0x91, 0x3c, 0x64, 
  0x00, 0x91, 0x40, 0x64, 0x81, 0x20, 0x81, 0x3c, 0x40, 0x00, 0x81, 0x40, 0x40, 0x82, 0x40, 0x91, 
  0x3c, 0x64, 0x00, 0x91, 0x40, 0x64, 0x81, 0x20, 0x81, 0x3c, 0x40, 0x00, 0x81, 0x40, 0x40, 0x50, 
  0x91, 0x2d, 0x64, 0x81, 0x20, 0x81, 0x2d, 0x40, 0x82, 0x40, 0x91, 0x2d, 0x64, 0x81, 0x20, 0x81, 
  0x2d, 0x40, 0x50, 0x91, 0x39, 0x64, 0x00, 0x91, 0x3c, 0x64, 0x81, 0x20, 0x81, 0x39, 0x40, 0x00, 
  0x81, 0x3c, 0x40, 0x82, 0x40, 0x91, 0x39, 0x64, 0x00, 0x91, 0x3c, 0x64, 0x81, 0x20, 0x81, 0x39, 
  0x40, 0x00, 0x81, 0x3c, 0x40, 0x50, 0x91, 0x32, 0x64, 0x81, 0x20, 0x81, 0x32, 0x40, 0x82, 0x40, 
  0x91, 0x32, 0x64, 0x81, 0x20, 0x81, 0x32, 0x40, 0x50, 0x91, 0x3e, 0x64, 0x00, 0x91, 0x41, 0x64, 
  0x81, 0x20, 0x81, 0x3e, 0x40, 0x00, 0x81, 0x41, 0x40, 0x82, 0x40, 0x91, 0x3e, 0x64, 0x00, 0x91, 
  0x41, 0x64, 0x81, 0x20, 0x81, 0x3e, 0x40, 0x00, 0x81, 0x41, 0x40, 0x50, 0x91, 0x2b, 0x64, 0x81, 
  0x20, 0x81, 0x2b, 0x40, 0x82, 0x40, 0x91, 0x2b, 0x64, 0x81, 0x20, 0x81, 0x2b, 0x40, 0x50, 0x91, 
  0x37, 0x64, 0x00, 0x91, 0x3b, 0x64, 0x81, 0x20, 0x81, 0x37, 0x40, 0x00, 0x81, 0x3b, 0x40, 0x82, 
  0x40, 0x91, 0x37, 0x64, 0x00, 0x91, 0x3b, 0x64, 0x81, 0x20, 0x81, 0x37, 0x40, 0x00, 0x81, 0x3b, 
  0x40, 0x50, 0x91, 0x30, 0x64, 0x81, 0x20, 0x81, 0x30, 0x40, 0x82, 0x40, 0x91, 0x30, 0x64, 0x81, 
  0x20, 0x81, 0x30, 0x40, 0x50, 0x91, 0x3c, 0x64, 0x00, 0x91, 0x40, 0x64, 0x81, 0x20, 0x81, 0x3c, 
  0x40, 0x00, 0x81, 0x40, 0x40, 0x82, 0x40, 0x91, 0x3c, 0x64, 0x00, 0x91, 0x40, 0x64, 0x81, 0x20, 
  0x81, 0x3c, 0x40, 0x00, 0x81, 0x40, 0x40, 0x50, 0x91, 0x2d, 0x64, 0x81, 0x20, 0x81, 0x2d, 0x40, 
  0x82, 0x40, 0x91, 0x2d, 0x64, 0x81, 0x20, 0x81, 0x2d, 0x40, 0x50, 0x91, 0x39, 0x64, 0x00, 0x91, 
  0x3c, 0x64, 0x81, 0x20, 0x81, 0x39, 0x40, 0x00, 0x81, 0x3c, 0x40, 0x82, 0x40, 0x91, 0x39, 0x64, 
  0x00, 0x91, 0x3c, 0x64, 0x81, 0x20, 0x81, 0x39, 0x40, 0x00, 0x81, 0x3c, 0x40, 0x50, 0x91, 0x29, 
  0x64, 0x81, 0x20, 0x81, 0x29, 0x40, 0x82, 0x40, 0x91, 0x29, 0x64, 0x81, 0x20, 0x81, 0x29, 0x40, 
  0x50, 0x91, 0x39, 0x64, 0x00, 0x91, 0x35, 0x64, 0x81, 0x20, 0x81, 0x39, 0x40, 0x00, 0x81, 0x35, 
  0x40, 0x82, 0x40, 0x91, 0x35, 0x64, 0x00, 0x91, 0x39, 0x64, 0x81, 0x20, 0x81, 0x35, 0x40, 0x00, 
  0x81, 0x39, 0x40, 0x50, 0x91, 0x2b, 0x64, 0x81, 0x20, 0x81, 0x2b, 0x40, 0x82, 0x40, 0x91, 0x2b, 
  0x64, 0x81, 0x20, 0x81, 0x2b, 0x40, 0x50, 0x91, 0x37, 0x64, 0x00, 0x91, 0x3b, 0x64, 0x81, 0x20, 
  0x81, 0x37, 0x40, 0x00, 0x81, 0x3b, 0x40, 0x82, 0x40, 0x91, 0x37, 0x64, 0x00, 0x91, 0x3b, 0x64, 
  0x81, 0x20, 0x81, 0x37, 0x40, 0x00, 0x81, 0x3b, 0x40, 0x50, 0xb1, 0x0a, 0x31, 0x00, 0xb1, 0x07, 
  0x60, 0x00, 0x91, 0x3c, 0x7f, 0x82, 0x40, 0x81, 0x3c, 0x40, 0x83, 0x10, 0x91, 0x3c, 0x7f, 0x82, 
  0x40, 0x81, 0x3c, 0x40, 0x83, 0x10, 0x91, 0x3c, 0x7f, 0x82, 0x40, 0x81, 0x3c, 0x40, 0x8c, 0x40, 
  0x91, 0x3c, 0x64, 0x81, 0x20, 0x81, 0x3c, 0x40, 0x50, 0x91, 0x3b, 0x64, 0x81, 0x20, 0x81, 0x3b, 
  0x40, 0x82, 0x40, 0x91, 0x39, 0x64, 0x81, 0x20, 0x81, 0x39, 0x40, 0x50, 0x91, 0x3b, 0x64, 0x81, 
  0x20, 0x81, 0x3b, 0x40, 0x82, 0x40, 0x91, 0x3c, 0x64, 0x81, 0x20, 0x81, 0x3c, 0x40, 0x50, 0x91, 
  0x3e, 0x64, 0x81, 0x20, 0x81, 0x3e, 0x40, 0x84, 0x30, 0x91, 0x40, 0x64, 0x82, 0x40, 0x81, 0x40, 
  0x40, 0x83, 0x10, 0x91, 0x40, 0x64, 0x82, 0x40, 0x81, 0x40, 0x40, 0x83, 0x10, 0x91, 0x40, 0x64, 
  0x82, 0x40, 0x81, 0x40, 0x40, 0x8c, 0x40, 0x91, 0x40, 0x64, 0x81, 0x20, 0x81, 0x40, 0x40, 0x50, 
  0x91, 0x3e, 0x64, 0x81, 0x20, 0x81, 0x3e, 0x40, 0x82, 0x40, 0x91, 0x3c, 0x64, 0x81, 0x20, 0x81, 
  0x3c, 0x40, 0x50, 0x91, 0x3e, 0x64, 0x81, 0x20, 0x81, 0x3e, 0x40, 0x82, 0x40, 0x91, 0x40, 0x64, 
  0x81, 0x20, 0x81, 0x40, 0x40, 0x50, 0x91, 0x41, 0x64, 0x81, 0x20, 0x81, 0x41, 0x40, 0x84, 0x30, 
  0x91, 0x43, 0x64, 0x81, 0x20, 0x81, 0x43, 0x40, 0x8a, 0x00, 0x91, 0x3c, 0x64, 0x81, 0x20, 0x81, 
  0x3c, 0x40, 0x8d, 0x60, 0x91, 0x45, 0x64, 0x81, 0x20, 0x81, 0x45, 0x40, 0x50, 0x91, 0x43, 0x64, 
  0x81, 0x20, 0x81, 0x43, 0x40, 0x82, 0x40, 0x91, 0x41, 0x64, 0x81, 0x20, 0x81, 0x41, 0x40, 0x50, 
  0x91, 0x40, 0x64, 0x81, 0x20, 0x81, 0x40, 0x40, 0x84, 0x30, 0x91, 0x3e, 0x64, 0x81, 0x20, 0x81, 
  0x3e, 0x40, 0x84, 0x30, 0x91, 0x3c, 0x64, 0x81, 0x20, 0x81, 0x3c, 0x40, 0x88, 0x10, 0x91, 0x3b, 
  0x64, 0x81, 0x20, 0x81, 0x3b, 0x40, 0x50, 0x91, 0x39, 0x64, 0x81, 0x20, 0x81, 0x39, 0x40, 0x88, 
  0x10, 0x91, 0x37, 0x64, 0x81, 0x20, 0x81, 0x37, 0x40, 0x50, 0x91, 0x35, 0x64, 0x81, 0x20, 0x81, 
  0x35, 0x40, 0x88, 0x10, 0x91, 0x37, 0x64, 0x81, 0x20, 0x81, 0x37, 0x40, 0x50, 0x91, 0x39, 0x64, 
  0x81, 0x20, 0x81, 0x39, 0x40, 0x84, 0x30, 0x91, 0x3b, 0x64, 0x81, 0x20, 0x81, 0x3b, 0x40, 0x82, 
  0x40, 0x91, 0x3c, 0x40, 0x83, 0x59, 0x81, 0x3c, 0x40, 0x00, 0xff, 0x2f, 0x00, 0x4d, 0x54, 0x72, 
  0x6b, 0x00, 0x00, 0x01, 0xad, 0x00, 0xff, 0x03, 0x0d, 0x46, 0x58, 0x20, 0x37, 0x20, 0x28, 0x65, 
  0x63, 0x68, 0x6f, 0x65, 0x73, 0x29, 0x00, 0xb2, 0x00, 0x00, 0x00, 0xc2, 0x66, 0x00, 0xb2, 0x0a, 
  0x3f, 0x00, 0xb2, 0x07, 0x60, 0x82, 0x8e, 0x00, 0x92, 0x3c, 0x63, 0x85, 0x00, 0x82, 0x3c, 0x40, 
  0x86, 0x20, 0x92, 0x39, 0x63, 0x83, 0x5f, 0x82, 0x39, 0x40, 0x01, 0x92, 0x39, 0x63, 0x81, 0x20, 
  0x82, 0x39, 0x40, 0x86, 0x20, 0x92, 0x3e, 0x63, 0x85, 0x00, 0x82, 0x3e, 0x40, 0x86, 0x20, 0x92, 
  0x37, 0x63, 0x85, 0x00, 0x82, 0x37, 0x40, 0x86, 0x20, 0x92, 0x3c, 0x63, 0x85, 0x00, 0x82, 0x3c, 
  0x40, 0x86, 0x20, 0x92, 0x39, 0x63, 0x83, 0x5f, 0x82, 0x39, 0x40, 0x01, 0x92, 0x39, 0x63, 0x81, 
  0x20, 0x82, 0x39, 0x40, 0x86, 0x20, 0x92, 0x35, 0x63, 0x85, 0x00, 0x82, 0x35, 0x40, 0x86, 0x20, 
  0x92, 0x37, 0x63, 0x85, 0x00, 0x82, 0x37, 0x40, 0x86, 0x20, 0x92, 0x3c, 0x63, 0x85, 0x00, 0x82, 
  0x3c, 0x40, 0x86, 0x20, 0x92, 0x39, 0x63, 0x83, 0x5f, 0x82, 0x39, 0x40, 0x01, 0x92, 0x39, 0x63, 
  0x81, 0x20, 0x82, 0x39, 0x40, 0x86, 0x20, 0x92, 0x3e, 0x63, 0x85, 0x00, 0x82, 0x3e, 0x40, 0x86, 
  0x20, 0x92, 0x37, 0x63, 0x85, 0x00, 0x82, 0x37, 0x40, 0x86, 0x20, 0x92, 0x3c, 0x63, 0x85, 0x00, 
  0x82, 0x3c, 0x40, 0x86, 0x20, 0x92, 0x39, 0x63, 0x83, 0x5f, 0x82, 0x39, 0x40, 0x01, 0x92, 0x39, 
  0x63, 0x81, 0x20, 0x82, 0x39, 0x40, 0x86, 0x20, 0x92, 0x35, 0x63, 0x85, 0x00, 0x82, 0x35, 0x40, 
  0x86, 0x20, 0x92, 0x37, 0x63, 0x85, 0x00, 0x82, 0x37, 0x40, 0x86, 0x20, 0x92, 0x3c, 0x63, 0x85, 
  0x00, 0x82, 0x3c, 0x40, 0x86, 0x20, 0x92, 0x39, 0x63, 0x83, 0x5f, 0x82, 0x39, 0x40, 0x01, 0x92, 
  0x39, 0x63, 0x81, 0x20, 0x82, 0x39, 0x40, 0x86, 0x20, 0x92, 0x3e, 0x63, 0x85, 0x00, 0x82, 0x3e, 
  0x40, 0x86, 0x20, 0x92, 0x37, 0x63, 0x85, 0x00, 0x82, 0x37, 0x40, 0x86, 0x20, 0x92, 0x3c, 0x63, 
  0x85, 0x00, 0x82, 0x3c, 0x40, 0x86, 0x20, 0x92, 0x39, 0x63, 0x83, 0x5f, 0x82, 0x39, 0x40, 0x01, 
  0x92, 0x39, 0x63, 0x81, 0x20, 0x82, 0x39, 0x40, 0x86, 0x20, 0x92, 0x35, 0x63, 0x85, 0x00, 0x82, 
  0x35, 0x40, 0x86, 0x20, 0x92, 0x37, 0x63, 0x85, 0x00, 0x82, 0x37, 0x40, 0xe0, 0x20, 0x92, 0x3c, 
  0x63, 0x85, 0x00, 0x82, 0x3c, 0x40, 0x86, 0x20, 0x92, 0x39, 0x63, 0x83, 0x5f, 0x82, 0x39, 0x40, 
  0x01, 0x92, 0x39, 0x63, 0x81, 0x20, 0x82, 0x39, 0x40, 0x86, 0x20, 0x92, 0x3e, 0x63, 0x85, 0x00, 
  0x82, 0x3e, 0x40, 0x86, 0x20, 0x92, 0x37, 0x63, 0x85, 0x00, 0x82, 0x37, 0x40, 0x86, 0x20, 0x92, 
  0x3c, 0x63, 0x85, 0x00, 0x82, 0x3c, 0x40, 0x86, 0x20, 0x92, 0x39, 0x63, 0x83, 0x5f, 0x82, 0x39, 
  0x40, 0x01, 0x92, 0x39, 0x63, 0x81, 0x20, 0x82, 0x39, 0x40, 0x86, 0x20, 0x92, 0x35, 0x63, 0x85, 
  0x00, 0x82, 0x35, 0x40, 0x86, 0x20, 0x92, 0x37, 0x63, 0x85, 0x00, 0x82, 0x37, 0x40, 0x00, 0xff, 
  0x2f, 0x00
};