// array size is 2596
static const char bytes[]  = {
  0x4d, 0x54, 0x68, 0x64, 0x00, 0x00, 0x00, 0x06, 0x00, 0x01, 0x00, 0x02, 0x01, 0xe0, 0x4d, 0x54, 
  0x72, 0x6b, 0x00, 0x00, 0x05, 0x71, 0x00, 0xff, 0x58, 0x04, 0x04, 0x02, 0x18, 0x08, 0x00, 0xff, 
  0x59, 0x02, 0xfd, 0x00, 0x00, 0xff, 0x51, 0x03, 0x08, 0x52, 0xb0, 0x00, 0xb0, 0x79, 0x00, 0x00, 
  0xc0, 0x00, 0x00, 0xb0, 0x07, 0x64, 0x00, 0x0a, 0x40, 0x00, 0x5b, 0x00, 0x00, 0x5d, 0x00, 0x00, 
  0xff, 0x21, 0x01, 0x00, 0x83, 0x60, 0x90, 0x3c, 0x40, 0x00, 0x3f, 0x40, 0x00, 0x43, 0x40, 0x81, 
  0x6f, 0x3c, 0x00, 0x00, 0x3f, 0x00, 0x00, 0x43, 0x00, 0x85, 0x51, 0x3c, 0x40, 0x00, 0x3f, 0x40, 
  0x00, 0x43, 0x40, 0x81, 0x6f, 0x3c, 0x00, 0x00, 0x3f, 0x00, 0x00, 0x43, 0x00, 0x85, 0x51, 0x3c, 
  0x40, 0x00, 0x3f, 0x40, 0x00, 0x42, 0x40, 0x81, 0x6f, 0x3c, 0x00, 0x00, 0x3f, 0x00, 0x00, 0x42, 
  0x00, 0x85, 0x51, 0x3b, 0x40, 0x00, 0x3e, 0x40, 0x00, 0x43, 0x40, 0x81, 0x6f, 0x3b, 0x00, 0x00, 
  0x3e, 0x00, 0x00, 0x43, 0x00, 0x85, 0x51, 0x3c, 0x40, 0x00, 0x3f, 0x40, 0x00, 0x43, 0x40, 0x81, 
  0x6f, 0x3c, 0x00, 0x00, 0x3f, 0x00, 0x00, 0x43, 0x00, 0x85, 0x51, 0x3c, 0x40, 0x00, 0x3f, 0x40, 
  0x00, 0x43, 0x40, 0x81, 0x6f, 0x3c, 0x00, 0x00, 0x3f, 0x00, 0x00, 0x43, 0x00, 0x85, 0x51, 0x3c, 
  0x40, 0x00, 0x3f, 0x40, 0x00, 0x42, 0x40, 0x81, 0x6f, 0x3c, 0x00, 0x00, 0x3f, 0x00, 0x00, 0x42, 
  0x00, 0x85, 0x51, 0x42, 0x40, 0x37, 0x42, 0x00, 0x01, 0x42, 0x40, 0x82, 0x2e, 0x42, 0x00, 0x02, 
  0x3f, 0x40, 0x77, 0x3f, 0x00, 0x01, 0x41, 0x50, 0x87, 0x3f, 0x41, 0x00, 0x01, 0x3c, 0x50, 0x85, 
  0x2b, 0x3c, 0x00, 0x25, 0x3c, 0x50, 0x81, 0x6f, 0x3c, 0x00, 0x01, 0x3f, 0x50, 0x82, 0x67, 0x3f, 
  0x00, 0x01, 0x3f, 0x50, 0x77, 0x3f, 0x00, 0x01, 0x41, 0x50, 0x83, 0x5f, 0x41, 0x00, 0x01, 0x41, 
  0x50, 0x83, 0x5f, 0x41, 0x00, 0x01, 0x3f, 0x50, 0x83, 0x47, 0x3f, 0x00, 0x19, 0x43, 0x50, 0x83, 
  0x47, 0x43, 0x00, 0x19, 0x43, 0x50, 0x83, 0x47, 0x43, 0x00, 0x19, 0x48, 0x50, 0x83, 0x47, 0x48, 
  0x00, 0x19, 0x48, 0x50, 0x83, 0x47, 0x48, 0x00, 0x19, 0x4b, 0x50, 0x83, 0x47, 0x4b, 0x00, 0x19, 
  0x4b, 0x50, 0x83, 0x47, 0x4b, 0x00, 0x19, 0x48, 0x50, 0x83, 0x47, 0x48, 0x00, 0x19, 0x42, 0x50, 
  0x37, 0x42, 0x00, 0x01, 0x43, 0x50, 0x82, 0x2e, 0x43, 0x00, 0x02, 0x3f, 0x50, 0x77, 0x3f, 0x00, 
  0x01, 0x41, 0x50, 0x87, 0x3f, 0x41, 0x00, 0x01, 0x3c, 0x50, 0x85, 0x2b, 0x3c, 0x00, 0x25, 0x3c, 
  0x50, 0x81, 0x6f, 0x3c, 0x00, 0x01, 0x3f, 0x50, 0x82, 0x67, 0x3f, 0x00, 0x01, 0x3f, 0x50, 0x77, 
  0x3f, 0x00, 0x01, 0x41, 0x50, 0x83, 0x5f, 0x41, 0x00, 0x01, 0x41, 0x50, 0x83, 0x5f, 0x41, 0x00, 
  0x01, 0x3f, 0x50, 0x83, 0x47, 0x3f, 0x00, 0x19, 0x3c, 0x50, 0x8e, 0x7f, 0x3c, 0x00, 0x01, 0x3c, 
  0x50, 0x8a, 0x57, 0x3c, 0x00, 0x49, 0x42, 0x50, 0x37, 0x42, 0x00, 0x01, 0x43, 0x50, 0x82, 0x2e, 
  0x43, 0x00, 0x02, 0x3f, 0x50, 0x77, 0x3f, 0x00, 0x01, 0x41, 0x60, 0x87, 0x3f, 0x41, 0x00, 0x01, 
  0x3c, 0x60, 0x85, 0x2b, 0x3c, 0x00, 0x25, 0x3c, 0x60, 0x81, 0x6f, 0x3c, 0x00, 0x01, 0x3f, 0x60, 
  0x82, 0x67, 0x3f, 0x00, 0x01, 0x3f, 0x60, 0x77, 0x3f, 0x00, 0x01, 0x41, 0x60, 0x83, 0x5f, 0x41, 
  0x00, 0x01, 0x41, 0x60, 0x83, 0x5f, 0x41, 0x00, 0x01, 0x3f, 0x60, 0x83, 0x47, 0x3f, 0x00, 0x19, 
  0x43, 0x60, 0x83, 0x47, 0x43, 0x00, 0x19, 0x43, 0x60, 0x83, 0x47, 0x43, 0x00, 0x19, 0x48, 0x60, 
  0x83, 0x47, 0x48, 0x00, 0x19, 0x48, 0x60, 0x83, 0x47, 0x48, 0x00, 0x19, 0x4b, 0x60, 0x83, 0x47, 
  0x4b, 0x00, 0x19, 0x4b, 0x60, 0x83, 0x47, 0x4b, 0x00, 0x19, 0x48, 0x60, 0x83, 0x47, 0x48, 0x00, 
  0x19, 0x42, 0x60, 0x37, 0x42, 0x00, 0x01, 0x43, 0x60, 0x82, 0x2e, 0x43, 0x00, 0x02, 0x3f, 0x60, 
  0x77, 0x3f, 0x00, 0x01, 0x41, 0x60, 0x87, 0x3f, 0x41, 0x00, 0x01, 0x3c, 0x60, 0x85, 0x2b, 0x3c, 
  0x00, 0x25, 0x3c, 0x60, 0x81, 0x6f, 0x3c, 0x00, 0x01, 0x3f, 0x60, 0x82, 0x67, 0x3f, 0x00, 0x01, 
  0x3f, 0x60, 0x77, 0x3f, 0x00, 0x01, 0x41, 0x60, 0x83, 0x5f, 0x41, 0x00, 0x01, 0x41, 0x60, 0x83, 
  0x5f, 0x41, 0x00, 0x01, 0x3f, 0x60, 0x83, 0x47, 0x3f, 0x00, 0x19, 0x3c, 0x60, 0x8e, 0x7f, 0x3c, 
  0x00, 0x01, 0x3c, 0x60, 0x87, 0x0f, 0x3c, 0x00, 0x84, 0x11, 0x48, 0x60, 0x83, 0x5f, 0x48, 0x00, 
  0x01, 0x48, 0x40, 0x82, 0x67, 0x48, 0x00, 0x01, 0x46, 0x40, 0x77, 0x46, 0x00, 0x01, 0x43, 0x40, 
  0x83, 0x5f, 0x43, 0x00, 0x01, 0x41, 0x40, 0x82, 0x67, 0x41, 0x00, 0x01, 0x3f, 0x40, 0x77, 0x3f, 
  0x00, 0x01, 0x41, 0x40, 0x83, 0x5f, 0x41, 0x00, 0x01, 0x41, 0x40, 0x82, 0x67, 0x41, 0x00, 0x01, 
  0x3f, 0x40, 0x77, 0x3f, 0x00, 0x01, 0x41, 0x40, 0x83, 0x5f, 0x41, 0x00, 0x01, 0x43, 0x40, 0x83, 
  0x47, 0x43, 0x00, 0x19, 0x3f, 0x40, 0x82, 0x67, 0x3f, 0x00, 0x01, 0x3f, 0x40, 0x77, 0x3f, 0x00, 
  0x01, 0x42, 0x40, 0x82, 0x67, 0x42, 0x00, 0x01, 0x42, 0x40, 0x77, 0x42, 0x00, 0x01, 0x41, 0x40, 
  0x83, 0x5f, 0x41, 0x00, 0x01, 0x3f, 0x40, 0x81, 0x6f, 0x3f, 0x00, 0x01, 0x3c, 0x40, 0x81, 0x6f, 
  0x3c, 0x00, 0x01, 0x3c, 0x40, 0x81, 0x6f, 0x3c, 0x00, 0x01, 0x3c, 0x40, 0x81, 0x6f, 0x3c, 0x00, 
  0x01, 0x3f, 0x40, 0x83, 0x5f, 0x3f, 0x00, 0x01, 0x3c, 0x40, 0x81, 0x6f, 0x3c, 0x00, 0x01, 0x3c, 
  0x40, 0x87, 0x1b, 0x3c, 0x00, 0x25, 0x3c, 0x40, 0x81, 0x6f, 0x3c, 0x00, 0x01, 0x3f, 0x40, 0x83, 
  0x5f, 0x3f, 0x00, 0x01, 0x41, 0x40, 0x83, 0x5f, 0x41, 0x00, 0x01, 0x41, 0x40, 0x83, 0x5f, 0x41, 
  0x00, 0x01, 0x3f, 0x40, 0x83, 0x5f, 0x3f, 0x00, 0x01, 0x42, 0x40, 0x81, 0x6f, 0x42, 0x00, 0x01, 
  0x43, 0x40, 0x8a, 0x7b, 0x43, 0x00, 0x25, 0x3f, 0x40, 0x81, 0x6f, 0x3f, 0x00, 0x01, 0x41, 0x40, 
  0x82, 0x67, 0x41, 0x00, 0x01, 0x3f, 0x43, 0x77, 0x3f, 0x00, 0x01, 0x41, 0x44, 0x82, 0x67, 0x41, 
  0x00, 0x01, 0x3f, 0x48, 0x77, 0x3f, 0x00, 0x01, 0x41, 0x49, 0x82, 0x67, 0x41, 0x00, 0x01, 0x3f, 
  0x4c, 0x77, 0x3f, 0x00, 0x01, 0x3c, 0x4d, 0x83, 0x5f, 0x3c, 0x00, 0x01, 0x3c, 0x52, 0x83, 0x47, 
  0x3c, 0x00, 0x19, 0x3f, 0x67, 0x00, 0x43, 0x67, 0x00, 0x48, 0x67, 0x83, 0x5f, 0x3f, 0x00, 0x00, 
  0x43, 0x00, 0x00, 0x48, 0x00, 0x01, 0x3e, 0x6d, 0x00, 0x41, 0x6d, 0x00, 0x48, 0x6d, 0x83, 0x5f, 
  0x3e, 0x00, 0x00, 0x41, 0x00, 0x00, 0x48, 0x00, 0x01, 0x42, 0x60, 0x37, 0x42, 0x00, 0x01, 0x42, 
  0x60, 0x82, 0x2e, 0x42, 0x00, 0x02, 0x3f, 0x60, 0x77, 0x3f, 0x00, 0x01, 0x41, 0x60, 0x87, 0x3f, 
  0x41, 0x00, 0x01, 0x3c, 0x60, 0x85, 0x2b, 0x3c, 0x00, 0x25, 0x3c, 0x60, 0x81, 0x6f, 0x3c, 0x00, 
  0x01, 0x3f, 0x60, 0x82, 0x67, 0x3f, 0x00, 0x01, 0x3f, 0x60, 0x77, 0x3f, 0x00, 0x01, 0x41, 0x60, 
  0x83, 0x5f, 0x41, 0x00, 0x01, 0x41, 0x60, 0x83, 0x5f, 0x41, 0x00, 0x01, 0x3f, 0x60, 0x83, 0x47, 
  0x3f, 0x00, 0x19, 0x3c, 0x60, 0x00, 0x3f, 0x60, 0x00, 0x43, 0x60, 0x83, 0x47, 0x3c, 0x00, 0x00, 
  0x3f, 0x00, 0x00, 0x43, 0x00, 0x19, 0x3c, 0x60, 0x00, 0x3f, 0x60, 0x00, 0x43, 0x60, 0x83, 0x47, 
  0x3c, 0x00, 0x00, 0x3f, 0x00, 0x00, 0x43, 0x00, 0x19, 0x3f, 0x60, 0x00, 0x43, 0x60, 0x00, 0x48, 
  0x60, 0x83, 0x47, 0x3f, 0x00, 0x00, 0x43, 0x00, 0x00, 0x48, 0x00, 0x19, 0x3f, 0x60, 0x00, 0x43, 
  0x60, 0x00, 0x48, 0x60, 0x83, 0x47, 0x3f, 0x00, 0x00, 0x43, 0x00, 0x00, 0x48, 0x00, 0x19, 0x42, 
  0x60, 0x00, 0x48, 0x60, 0x00, 0x4b, 0x60, 0x83, 0x47, 0x42, 0x00, 0x00, 0x48, 0x00, 0x00, 0x4b, 
  0x00, 0x19, 0x42, 0x60, 0x00, 0x48, 0x60, 0x00, 0x4b, 0x60, 0x83, 0x47, 0x42, 0x00, 0x00, 0x48, 
  0x00, 0x00, 0x4b, 0x00, 0x19, 0x3e, 0x60, 0x00, 0x41, 0x60, 0x00, 0x48, 0x60, 0x83, 0x47, 0x3e, 
  0x00, 0x00, 0x41, 0x00, 0x00, 0x48, 0x00, 0x19, 0x42, 0x60, 0x37, 0x42, 0x00, 0x01, 0x43, 0x60, 
  0x82, 0x2e, 0x43, 0x00, 0x02, 0x3f, 0x60, 0x77, 0x3f, 0x00, 0x01, 0x41, 0x60, 0x87, 0x3f, 0x41, 
  0x00, 0x01, 0x3c, 0x60, 0x85, 0x2b, 0x3c, 0x00, 0x25, 0x3c, 0x60, 0x81, 0x6f, 0x3c, 0x00, 0x01, 
  0x3f, 0x60, 0x82, 0x67, 0x3f, 0x00, 0x01, 0x3f, 0x60, 0x77, 0x3f, 0x00, 0x01, 0x41, 0x60, 0x83, 
  0x5f, 0x41, 0x00, 0x01, 0x41, 0x60, 0x83, 0x5f, 0x41, 0x00, 0x01, 0x3f, 0x60, 0x83, 0x5f, 0x3f, 
  0x00, 0x01, 0x3c, 0x60, 0x8e, 0x7f, 0x3c, 0x00, 0x01, 0x3c, 0x60, 0x87, 0x0f, 0x3c, 0x00, 0x8b, 
  0x51, 0x3c, 0x50, 0x00, 0x3f, 0x50, 0x00, 0x43, 0x50, 0x81, 0x6f, 0x3c, 0x00, 0x00, 0x3f, 0x00, 
  0x00, 0x43, 0x00, 0x85, 0x51, 0x3c, 0x50, 0x00, 0x3f, 0x50, 0x00, 0x43, 0x50, 0x81, 0x6f, 0x3c, 
  0x00, 0x00, 0x3f, 0x00, 0x00, 0x43, 0x00, 0x85, 0x51, 0x3c, 0x50, 0x00, 0x3f, 0x50, 0x00, 0x42, 
  0x50, 0x81, 0x6f, 0x3c, 0x00, 0x00, 0x3f, 0x00, 0x00, 0x42, 0x00, 0x85, 0x51, 0x3b, 0x50, 0x00, 
  0x3e, 0x50, 0x00, 0x43, 0x50, 0x81, 0x6f, 0x3b, 0x00, 0x00, 0x3e, 0x00, 0x00, 0x43, 0x00, 0x85, 
  0x51, 0x3c, 0x50, 0x00, 0x3f, 0x50, 0x00, 0x43, 0x50, 0x81, 0x6f, 0x3c, 0x00, 0x00, 0x3f, 0x00, 
  0x00, 0x43, 0x00, 0x85, 0x51, 0x3c, 0x50, 0x00, 0x3f, 0x50, 0x00, 0x43, 0x50, 0x81, 0x6f, 0x3c, 
  0x00, 0x00, 0x3f, 0x00, 0x00, 0x43, 0x00, 0x85, 0x51, 0x3c, 0x50, 0x00, 0x3f, 0x50, 0x00, 0x42, 
  0x50, 0x81, 0x6f, 0x3c, 0x00, 0x00, 0x3f, 0x00, 0x00, 0x42, 0x00, 0x85, 0x51, 0x3b, 0x50, 0x00, 
  0x3e, 0x50, 0x00, 0x43, 0x50, 0x81, 0x6f, 0x3b, 0x00, 0x00, 0x3e, 0x00, 0x00, 0x43, 0x00, 0x81, 
  0x71, 0x3c, 0x50, 0x00, 0x3f, 0x50, 0x00, 0x43, 0x50, 0x8e, 0x1f, 0x3c, 0x00, 0x00, 0x3f, 0x00, 
  0x00, 0x43, 0x00, 0x01, 0xff, 0x2f, 0x00, 0x4d, 0x54, 0x72, 0x6b, 0x00, 0x00, 0x04, 0x95, 0x00, 
  0xff, 0x59, 0x02, 0xfd, 0x00, 0x00, 0xff, 0x21, 0x01, 0x00, 0x00, 0x90, 0x24, 0x40, 0x00, 0x30, 
  0x40, 0x83, 0x47, 0x24, 0x00, 0x00, 0x30, 0x00, 0x83, 0x79, 0x22, 0x40, 0x00, 0x2e, 0x40, 0x83, 
  0x47, 0x22, 0x00, 0x00, 0x2e, 0x00, 0x83, 0x79, 0x20, 0x40, 0x00, 0x2c, 0x40, 0x83, 0x47, 0x20, 
  0x00, 0x00, 0x2c, 0x00, 0x83, 0x79, 0x1f, 0x40, 0x00, 0x2b, 0x40, 0x83, 0x47, 0x1f, 0x00, 0x00, 
  0x2b, 0x00, 0x83, 0x79, 0x24, 0x40, 0x00, 0x30, 0x40, 0x83, 0x47, 0x24, 0x00, 0x00, 0x30, 0x00, 
  0x83, 0x79, 0x22, 0x40, 0x00, 0x2e, 0x40, 0x83, 0x47, 0x22, 0x00, 0x00, 0x2e, 0x00, 0x83, 0x79, 
  0x20, 0x40, 0x00, 0x2c, 0x40, 0x83, 0x47, 0x20, 0x00, 0x00, 0x2c, 0x00, 0x83, 0x79, 0x1f, 0x40, 
  0x00, 0x2b, 0x40, 0x83, 0x47, 0x1f, 0x00, 0x00, 0x2b, 0x00, 0x83, 0x79, 0x24, 0x50, 0x00, 0x30, 
  0x50, 0x83, 0x47, 0x24, 0x00, 0x00, 0x30, 0x00, 0x83, 0x79, 0x22, 0x50, 0x00, 0x2e, 0x50, 0x83, 
  0x47, 0x22, 0x00, 0x00, 0x2e, 0x00, 0x83, 0x79, 0x20, 0x50, 0x00, 0x2c, 0x50, 0x83, 0x47, 0x20, 
  0x00, 0x00, 0x2c, 0x00, 0x83, 0x79, 0x1f, 0x50, 0x00, 0x2b, 0x50, 0x83, 0x47, 0x1f, 0x00, 0x00, 
  0x2b, 0x00, 0x83, 0x79, 0x24, 0x50, 0x00, 0x30, 0x50, 0x83, 0x47, 0x24, 0x00, 0x00, 0x30, 0x00, 
  0x83, 0x79, 0x22, 0x50, 0x00, 0x2e, 0x50, 0x83, 0x47, 0x22, 0x00, 0x00, 0x2e, 0x00, 0x83, 0x79, 
  0x20, 0x50, 0x00, 0x2c, 0x50, 0x83, 0x47, 0x20, 0x00, 0x00, 0x2c, 0x00, 0x83, 0x79, 0x1f, 0x50, 
  0x00, 0x2b, 0x50, 0x83, 0x47, 0x1f, 0x00, 0x00, 0x2b, 0x00, 0x83, 0x79, 0x24, 0x50, 0x00, 0x30, 
  0x50, 0x83, 0x47, 0x24, 0x00, 0x00, 0x30, 0x00, 0x83, 0x79, 0x22, 0x50, 0x00, 0x2e, 0x50, 0x83, 
  0x47, 0x22, 0x00, 0x00, 0x2e, 0x00, 0x83, 0x79, 0x20, 0x50, 0x00, 0x2c, 0x50, 0x83, 0x47, 0x20, 
  0x00, 0x00, 0x2c, 0x00, 0x83, 0x79, 0x1f, 0x50, 0x00, 0x2b, 0x50, 0x83, 0x47, 0x1f, 0x00, 0x00, 
  0x2b, 0x00, 0x83, 0x79, 0x24, 0x50, 0x83, 0x47, 0x24, 0x00, 0x19, 0x30, 0x50, 0x83, 0x47, 0x30, 
  0x00, 0x19, 0x22, 0x50, 0x83, 0x47, 0x22, 0x00, 0x19, 0x2e, 0x50, 0x83, 0x47, 0x2e, 0x00, 0x19, 
  0x20, 0x50, 0x83, 0x47, 0x20, 0x00, 0x19, 0x2c, 0x50, 0x83, 0x47, 0x2c, 0x00, 0x19, 0x1f, 0x50, 
  0x83, 0x47, 0x1f, 0x00, 0x19, 0x2b, 0x50, 0x83, 0x47, 0x2b, 0x00, 0x19, 0x24, 0x60, 0x83, 0x47, 
  0x24, 0x00, 0x19, 0x30, 0x60, 0x83, 0x47, 0x30, 0x00, 0x19, 0x22, 0x60, 0x83, 0x47, 0x22, 0x00, 
  0x19, 0x2e, 0x60, 0x83, 0x47, 0x2e, 0x00, 0x19, 0x20, 0x60, 0x83, 0x47, 0x20, 0x00, 0x19, 0x2c, 
  0x60, 0x83, 0x47, 0x2c, 0x00, 0x19, 0x1f, 0x60, 0x83, 0x47, 0x1f, 0x00, 0x19, 0x2b, 0x60, 0x83, 
  0x47, 0x2b, 0x00, 0x19, 0x24, 0x60, 0x83, 0x47, 0x24, 0x00, 0x19, 0x30, 0x60, 0x83, 0x47, 0x30, 
  0x00, 0x19, 0x22, 0x60, 0x83, 0x47, 0x22, 0x00, 0x19, 0x2e, 0x60, 0x83, 0x47, 0x2e, 0x00, 0x19, 
  0x20, 0x60, 0x83, 0x47, 0x20, 0x00, 0x19, 0x2c, 0x60, 0x83, 0x47, 0x2c, 0x00, 0x19, 0x1f, 0x60, 
  0x83, 0x47, 0x1f, 0x00, 0x19, 0x2b, 0x60, 0x83, 0x47, 0x2b, 0x00, 0x19, 0x24, 0x60, 0x83, 0x47, 
  0x24, 0x00, 0x19, 0x30, 0x60, 0x83, 0x47, 0x30, 0x00, 0x19, 0x22, 0x60, 0x83, 0x47, 0x22, 0x00, 
  0x19, 0x2e, 0x60, 0x83, 0x47, 0x2e, 0x00, 0x19, 0x20, 0x60, 0x83, 0x47, 0x20, 0x00, 0x19, 0x2c, 
  0x60, 0x83, 0x47, 0x2c, 0x00, 0x19, 0x1f, 0x60, 0x83, 0x47, 0x1f, 0x00, 0x19, 0x2b, 0x60, 0x83, 
  0x47, 0x2b, 0x00, 0x19, 0x24, 0x60, 0x83, 0x47, 0x24, 0x00, 0x19, 0x30, 0x60, 0x83, 0x47, 0x30, 
  0x00, 0x19, 0x22, 0x60, 0x83, 0x47, 0x22, 0x00, 0x19, 0x2e, 0x60, 0x83, 0x47, 0x2e, 0x00, 0x19, 
  0x20, 0x60, 0x83, 0x47, 0x20, 0x00, 0x19, 0x2c, 0x60, 0x83, 0x47, 0x2c, 0x00, 0x19, 0x1f, 0x60, 
  0x83, 0x47, 0x1f, 0x00, 0x19, 0x2b, 0x60, 0x83, 0x47, 0x2b, 0x00, 0x19, 0x24, 0x40, 0x83, 0x47, 
  0x24, 0x00, 0x19, 0x30, 0x40, 0x83, 0x47, 0x30, 0x00, 0x19, 0x22, 0x40, 0x83, 0x47, 0x22, 0x00, 
  0x19, 0x2e, 0x40, 0x83, 0x47, 0x2e, 0x00, 0x19, 0x20, 0x40, 0x83, 0x47, 0x20, 0x00, 0x19, 0x2c, 
  0x40, 0x83, 0x47, 0x2c, 0x00, 0x19, 0x1f, 0x40, 0x83, 0x47, 0x1f, 0x00, 0x19, 0x2b, 0x40, 0x83, 
  0x47, 0x2b, 0x00, 0x19, 0x24, 0x40, 0x83, 0x47, 0x24, 0x00, 0x19, 0x30, 0x40, 0x83, 0x47, 0x30, 
  0x00, 0x19, 0x22, 0x40, 0x83, 0x47, 0x22, 0x00, 0x19, 0x2e, 0x40, 0x83, 0x47, 0x2e, 0x00, 0x19, 
  0x20, 0x40, 0x83, 0x47, 0x20, 0x00, 0x19, 0x2c, 0x40, 0x83, 0x47, 0x2c, 0x00, 0x19, 0x1f, 0x40, 
  0x83, 0x47, 0x1f, 0x00, 0x19, 0x2b, 0x40, 0x83, 0x47, 0x2b, 0x00, 0x19, 0x24, 0x40, 0x83, 0x47, 
  0x24, 0x00, 0x19, 0x30, 0x40, 0x83, 0x47, 0x30, 0x00, 0x19, 0x22, 0x40, 0x83, 0x47, 0x22, 0x00, 
  0x19, 0x2e, 0x40, 0x83, 0x47, 0x2e, 0x00, 0x19, 0x20, 0x40, 0x83, 0x47, 0x20, 0x00, 0x19, 0x2c, 
  0x40, 0x83, 0x47, 0x2c, 0x00, 0x19, 0x1f, 0x40, 0x83, 0x47, 0x1f, 0x00, 0x19, 0x2b, 0x40, 0x83, 
  0x47, 0x2b, 0x00, 0x19, 0x24, 0x40, 0x83, 0x47, 0x24, 0x00, 0x19, 0x30, 0x44, 0x83, 0x47, 0x30, 
  0x00, 0x19, 0x22, 0x49, 0x83, 0x47, 0x22, 0x00, 0x19, 0x2e, 0x4d, 0x83, 0x47, 0x2e, 0x00, 0x19, 
  0x20, 0x52, 0x83, 0x47, 0x20, 0x00, 0x19, 0x2c, 0x56, 0x83, 0x47, 0x2c, 0x00, 0x19, 0x1f, 0x5b, 
  0x83, 0x47, 0x1f, 0x00, 0x19, 0x2b, 0x60, 0x83, 0x47, 0x2b, 0x00, 0x19, 0x24, 0x60, 0x83, 0x47, 
  0x24, 0x00, 0x19, 0x30, 0x60, 0x83, 0x47, 0x30, 0x00, 0x19, 0x22, 0x60, 0x83, 0x47, 0x22, 0x00, 
  0x19, 0x2e, 0x60, 0x83, 0x47, 0x2e, 0x00, 0x19, 0x20, 0x60, 0x83, 0x47, 0x20, 0x00, 0x19, 0x2c, 
  0x60, 0x83, 0x47, 0x2c, 0x00, 0x19, 0x1f, 0x60, 0x83, 0x47, 0x1f, 0x00, 0x19, 0x2b, 0x60, 0x83, 
  0x47, 0x2b, 0x00, 0x19, 0x24, 0x60, 0x83, 0x47, 0x24, 0x00, 0x19, 0x30, 0x60, 0x83, 0x47, 0x30, 
  0x00, 0x19, 0x22, 0x60, 0x83, 0x47, 0x22, 0x00, 0x19, 0x2e, 0x60, 0x83, 0x47, 0x2e, 0x00, 0x19, 
  0x20, 0x60, 0x83, 0x47, 0x20, 0x00, 0x19, 0x2c, 0x60, 0x83, 0x47, 0x2c, 0x00, 0x19, 0x1f, 0x60, 
  0x83, 0x47, 0x1f, 0x00, 0x19, 0x2b, 0x60, 0x83, 0x47, 0x2b, 0x00, 0x19, 0x24, 0x60, 0x83, 0x47, 
  0x24, 0x00, 0x19, 0x30, 0x60, 0x83, 0x47, 0x30, 0x00, 0x19, 0x22, 0x60, 0x83, 0x47, 0x22, 0x00, 
  0x19, 0x2e, 0x60, 0x83, 0x47, 0x2e, 0x00, 0x19, 0x20, 0x60, 0x83, 0x47, 0x20, 0x00, 0x19, 0x2c, 
  0x60, 0x83, 0x47, 0x2c, 0x00, 0x19, 0x1f, 0x60, 0x83, 0x47, 0x1f, 0x00, 0x19, 0x2b, 0x60, 0x83, 
  0x47, 0x2b, 0x00, 0x19, 0x24, 0x60, 0x83, 0x47, 0x24, 0x00, 0x19, 0x30, 0x60, 0x83, 0x47, 0x30, 
  0x00, 0x19, 0x22, 0x60, 0x83, 0x47, 0x22, 0x00, 0x19, 0x2e, 0x60, 0x83, 0x47, 0x2e, 0x00, 0x19, 
  0x20, 0x60, 0x83, 0x47, 0x20, 0x00, 0x19, 0x2c, 0x60, 0x83, 0x47, 0x2c, 0x00, 0x19, 0x1f, 0x60, 
  0x83, 0x47, 0x1f, 0x00, 0x19, 0x2b, 0x60, 0x83, 0x47, 0x2b, 0x00, 0x19, 0x24, 0x50, 0x00, 0x30, 
  0x50, 0x83, 0x47, 0x24, 0x00, 0x00, 0x30, 0x00, 0x83, 0x79, 0x22, 0x50, 0x00, 0x2e, 0x50, 0x83, 
  0x47, 0x22, 0x00, 0x00, 0x2e, 0x00, 0x83, 0x79, 0x20, 0x50, 0x00, 0x2c, 0x50, 0x83, 0x47, 0x20, 
  0x00, 0x00, 0x2c, 0x00, 0x83, 0x79, 0x1f, 0x50, 0x00, 0x2b, 0x50, 0x82, 0x55, 0x1f, 0x00, 0x00, 
  0x2b, 0x00, 0x13, 0x1f, 0x50, 0x00, 0x2b, 0x50, 0x84, 0x39, 0x1f, 0x00, 0x00, 0x2b, 0x00, 0x1f, 
  0x24, 0x50, 0x00, 0x30, 0x50, 0x83, 0x47, 0x24, 0x00, 0x00, 0x30, 0x00, 0x83, 0x79, 0x22, 0x50, 
  0x00, 0x2e, 0x50, 0x83, 0x47, 0x22, 0x00, 0x00, 0x2e, 0x00, 0x83, 0x79, 0x20, 0x50, 0x00, 0x2c, 
  0x50, 0x83, 0x47, 0x20, 0x00, 0x00, 0x2c, 0x00, 0x83, 0x79, 0x1f, 0x50, 0x00, 0x2b, 0x50, 0x82, 
  0x55, 0x1f, 0x00, 0x00, 0x2b, 0x00, 0x13, 0x1f, 0x50, 0x00, 0x2b, 0x50, 0x84, 0x39, 0x1f, 0x00, 
  0x00, 0x2b, 0x00, 0x1f, 0x24, 0x50, 0x00, 0x30, 0x50, 0x8e, 0x1f, 0x24, 0x00, 0x00, 0x30, 0x00, 
  0x01, 0xff, 0x2f, 0x00
};