// array size is 597
static const char bytes[]  = {
  0x4d, 0x54, 0x68, 0x64, 0x00, 0x00, 0x00, 0x06, 0x00, 0x01, 0x00, 0x02, 0x00, 0xf0, 0x4d, 0x54, 
  0x72, 0x6b, 0x00, 0x00, 0x00, 0x21, 0x00, 0xff, 0x51, 0x03, 0x0a, 0x2c, 0x2a, 0x00, 0xff, 0x58, 
  0x04, 0x04, 0x02, 0x18, 0x08, 0x00, 0xff, 0x59, 0x02, 0x01, 0x00, 0x00, 0xff, 0x58, 0x04, 0x06, 
  0x03, 0x0c, 0x08, 0x00, 0xff, 0x2f, 0x00, 0x4d, 0x54, 0x72, 0x6b, 0x00, 0x00, 0x02, 0x16, 0x00, 
  0xff, 0x03, 0x0a, 0x75, 0x6e, 0x62, 0x65, 0x6e, 0x61, 0x6e, 0x6e, 0x74, 0x31, 0x00, 0xc0, 0x0b, 
  0x00, 0xb0, 0x07, 0x70, 0x84, 0x58, 0x90, 0x47, 0x64, 0x78, 0x80, 0x47, 0x64, 0x00, 0x90, 0x4c, 
  0x64, 0x81, 0x34, 0x80, 0x4c, 0x64, 0x00, 0x90, 0x4f, 0x64, 0x3c, 0x80, 0x4f, 0x64, 0x00, 0x90, 
  0x4e, 0x64, 0x78, 0x80, 0x4e, 0x64, 0x00, 0x90, 0x4c, 0x64, 0x81, 0x70, 0x80, 0x4c, 0x64, 0x00, 
  0x90, 0x53, 0x64, 0x78, 0x80, 0x53, 0x64, 0x00, 0x90, 0x51, 0x64, 0x82, 0x68, 0x80, 0x51, 0x64, 
  0x00, 0x90, 0x4e, 0x64, 0x82, 0x68, 0x80, 0x4e, 0x64, 0x00, 0x90, 0x4c, 0x64, 0x81, 0x34, 0x80, 
  0x4c, 0x64, 0x00, 0x90, 0x4f, 0x64, 0x3c, 0x80, 0x4f, 0x64, 0x00, 0x90, 0x4e, 0x64, 0x78, 0x80, 
  0x4e, 0x64, 0x00, 0x90, 0x4a, 0x64, 0x81, 0x70, 0x80, 0x4a, 0x64, 0x00, 0x90, 0x4d, 0x64, 0x78, 
  0x80, 0x4d, 0x64, 0x00, 0x90, 0x47, 0x64, 0x84, 0x58, 0x80, 0x47, 0x64, 0x00, 0x90, 0x47, 0x64, 
  0x78, 0x80, 0x47, 0x64, 0x00, 0x90, 0x4c, 0x64, 0x81, 0x34, 0x80, 0x4c, 0x64, 0x00, 0x90, 0x4f, 
  0x64, 0x3c, 0x80, 0x4f, 0x64, 0x00, 0x90, 0x4e, 0x64, 0x78, 0x80, 0x4e, 0x64, 0x00, 0x90, 0x4c, 
  0x64, 0x81, 0x70, 0x80, 0x4c, 0x64, 0x00, 0x90, 0x53, 0x64, 0x78, 0x80, 0x53, 0x64, 0x00, 0x90, 
  0x56, 0x64, 0x81, 0x70, 0x80, 0x56, 0x64, 0x00, 0x90, 0x55, 0x64, 0x78, 0x80, 0x55, 0x64, 0x00, 
  0x90, 0x54, 0x64, 0x81, 0x70, 0x80, 0x54, 0x64, 0x00, 0x90, 0x50, 0x64, 0x78, 0x80, 0x50, 0x64, 
  0x00, 0x90, 0x54, 0x64, 0x81, 0x34, 0x80, 0x54, 0x64, 0x00, 0x90, 0x53, 0x64, 0x3c, 0x80, 0x53, 
  0x64, 0x00, 0x90, 0x52, 0x64, 0x78, 0x80, 0x52, 0x64, 0x00, 0x90, 0x4e, 0x64, 0x81, 0x70, 0x80, 
  0x4e, 0x64, 0x00, 0x90, 0x4f, 0x64, 0x78, 0x80, 0x4f, 0x64, 0x00, 0x90, 0x4c, 0x64, 0x84, 0x58, 
  0x80, 0x4c, 0x64, 0x00, 0x90, 0x4f, 0x64, 0x78, 0x80, 0x4f, 0x64, 0x00, 0x90, 0x53, 0x64, 0x81, 
  0x70, 0x80, 0x53, 0x64, 0x00, 0x90, 0x4f, 0x64, 0x78, 0x80, 0x4f, 0x64, 0x00, 0x90, 0x53, 0x64, 
  0x81, 0x70, 0x80, 0x53, 0x64, 0x00, 0x90, 0x4f, 0x64, 0x78, 0x80, 0x4f, 0x64, 0x00, 0x90, 0x54, 
  0x64, 0x81, 0x70, 0x80, 0x54, 0x64, 0x00, 0x90, 0x53, 0x64, 0x78, 0x80, 0x53, 0x64, 0x00, 0x90, 
  0x52, 0x64, 0x81, 0x70, 0x80, 0x52, 0x64, 0x00, 0x90, 0x4e, 0x64, 0x78, 0x80, 0x4e, 0x64, 0x00, 
  0x90, 0x4f, 0x64, 0x81, 0x34, 0x80, 0x4f, 0x64, 0x00, 0x90, 0x53, 0x64, 0x3c, 0x80, 0x53, 0x64, 
  0x00, 0x90, 0x52, 0x64, 0x78, 0x80, 0x52, 0x64, 0x00, 0x90, 0x46, 0x64, 0x81, 0x70, 0x80, 0x46, 
  0x64, 0x00, 0x90, 0x47, 0x64, 0x78, 0x80, 0x47, 0x64, 0x00, 0x90, 0x53, 0x64, 0x84, 0x58, 0x80, 
  0x53, 0x64, 0x00, 0x90, 0x4f, 0x64, 0x78, 0x80, 0x4f, 0x64, 0x00, 0x90, 0x53, 0x64, 0x81, 0x70, 
  0x80, 0x53, 0x64, 0x00, 0x90, 0x4f, 0x64, 0x78, 0x80, 0x4f, 0x64, 0x00, 0x90, 0x53, 0x64, 0x81, 
  0x70, 0x80, 0x53, 0x64, 0x00, 0x90, 0x4f, 0x64, 0x78, 0x80, 0x4f, 0x64, 0x00, 0x90, 0x56, 0x64, 
  0x81, 0x70, 0x80, 0x56, 0x64, 0x00, 0x90, 0x55, 0x64, 0x78, 0x80, 0x55, 0x64, 0x00, 0x90, 0x54, 
  0x64, 0x81, 0x70, 0x80, 0x54, 0x64, 0x00, 0x90, 0x50, 0x64, 0x78, 0x80, 0x50, 0x64, 0x00, 0x90, 
  0x54, 0x64, 0x81, 0x34, 0x80, 0x54, 0x64, 0x00, 0x90, 0x53, 0x64, 0x3c, 0x80, 0x53, 0x64, 0x00, 
  0x90, 0x52, 0x64, 0x78, 0x80, 0x52, 0x64, 0x00, 0x90, 0x4e, 0x64, 0x81, 0x70, 0x80, 0x4e, 0x64, 
  0x00, 0x90, 0x4f, 0x64, 0x78, 0x80, 0x4f, 0x64, 0x00, 0x90, 0x4c, 0x64, 0x84, 0x58, 0x80, 0x4c, 
  0x64, 0x00, 0xff, 0x2f, 0x00
};