// array size is 8318
static const char bytes[]  = {
  0x4d, 0x54, 0x68, 0x64, 0x00, 0x00, 0x00, 0x06, 0x00, 0x01, 0x00, 0x02, 0x01, 0xe0, 0x4d, 0x54, 
  0x72, 0x6b, 0x00, 0x00, 0x10, 0xf3, 0x00, 0xff, 0x58, 0x04, 0x02, 0x02, 0x18, 0x08, 0x00, 0xff, 
  0x59, 0x02, 0x01, 0x00, 0x00, 0xff, 0x59, 0x02, 0x00, 0x00, 0x00, 0xff, 0x59, 0x02, 0x00, 0x00, 
  0x00, 0xff, 0x51, 0x03, 0x07, 0xa1, 0x20, 0x00, 0xb0, 0x79, 0x00, 0x00, 0xc0, 0x00, 0x00, 0xb0, 
  0x07, 0x64, 0x00, 0x0a, 0x40, 0x00, 0x5b, 0x00, 0x00, 0x5d, 0x00, 0x00, 0xff, 0x21, 0x01, 0x00, 
  0x00, 0x90, 0x45, 0x50, 0x81, 0x63, 0x45, 0x00, 0x0d, 0x47, 0x50, 0x81, 0x63, 0x47, 0x00, 0x0d, 
  0x45, 0x50, 0x81, 0x63, 0x45, 0x00, 0x0d, 0x43, 0x50, 0x81, 0x63, 0x43, 0x00, 0x0d, 0xff, 0x58, 
  0x04, 0x04, 0x02, 0x18, 0x08, 0x00, 0x90, 0x3e, 0x50, 0x81, 0x63, 0x3e, 0x00, 0x0d, 0x40, 0x50, 
  0x81, 0x63, 0x40, 0x00, 0x0d, 0x43, 0x50, 0x85, 0x2b, 0x43, 0x00, 0x25, 0x40, 0x50, 0x83, 0x47, 
  0x40, 0x00, 0x19, 0x47, 0x50, 0x88, 0x73, 0x47, 0x00, 0x3d, 0x45, 0x50, 0x81, 0x63, 0x45, 0x00, 
  0x0d, 0x47, 0x50, 0x81, 0x63, 0x47, 0x00, 0x0d, 0x45, 0x50, 0x81, 0x63, 0x45, 0x00, 0x0d, 0x43, 
  0x50, 0x81, 0x63, 0x43, 0x00, 0x0d, 0x3e, 0x50, 0x81, 0x63, 0x3e, 0x00, 0x0d, 0x40, 0x50, 0x81, 
  0x63, 0x40, 0x00, 0x0d, 0x43, 0x50, 0x85, 0x2b, 0x43, 0x00, 0x25, 0x40, 0x50, 0x81, 0x63, 0x40, 
  0x00, 0x0d, 0x47, 0x50, 0x83, 0x47, 0x47, 0x00, 0x19, 0x45, 0x50, 0x87, 0x0f, 0x45, 0x00, 0x31, 
  0x45, 0x50, 0x81, 0x63, 0x45, 0x00, 0x0d, 0x47, 0x50, 0x81, 0x63, 0x47, 0x00, 0x0d, 0x45, 0x50, 
  0x81, 0x63, 0x45, 0x00, 0x0d, 0x43, 0x50, 0x81, 0x63, 0x43, 0x00, 0x0d, 0x3e, 0x50, 0x81, 0x63, 
  0x3e, 0x00, 0x0d, 0x40, 0x50, 0x81, 0x63, 0x40, 0x00, 0x0d, 0x43, 0x50, 0x85, 0x2b, 0x43, 0x00, 
  0x25, 0x40, 0x50, 0x83, 0x47, 0x40, 0x00, 0x19, 0x43, 0x50, 0x81, 0x63, 0x43, 0x00, 0x0d, 0x4a, 
  0x50, 0x81, 0x63, 0x4a, 0x00, 0x0d, 0x47, 0x50, 0x85, 0x2b, 0x47, 0x00, 0x25, 0x43, 0x50, 0x81, 
  0x63, 0x43, 0x00, 0x0d, 0x45, 0x50, 0x83, 0x47, 0x45, 0x00, 0x19, 0x47, 0x50, 0x90, 0x03, 0x47, 
  0x00, 0x88, 0x2d, 0x45, 0x50, 0x81, 0x63, 0x45, 0x00, 0x0d, 0x47, 0x50, 0x81, 0x63, 0x47, 0x00, 
  0x0d, 0x45, 0x50, 0x81, 0x63, 0x45, 0x00, 0x0d, 0x43, 0x50, 0x81, 0x63, 0x43, 0x00, 0x0d, 0xff, 
  0x58, 0x04, 0x04, 0x02, 0x18, 0x08, 0x00, 0x90, 0x3e, 0x50, 0x81, 0x63, 0x3e, 0x00, 0x0d, 0x40, 
  0x50, 0x81, 0x63, 0x40, 0x00, 0x0d, 0x43, 0x50, 0x85, 0x2b, 0x43, 0x00, 0x25, 0x40, 0x50, 0x83, 
  0x47, 0x40, 0x00, 0x19, 0x47, 0x50, 0x88, 0x73, 0x47, 0x00, 0x3d, 0x45, 0x50, 0x81, 0x63, 0x45, 
  0x00, 0x0d, 0x47, 0x50, 0x81, 0x63, 0x47, 0x00, 0x0d, 0x45, 0x50, 0x81, 0x63, 0x45, 0x00, 0x0d, 
  0x43, 0x50, 0x81, 0x63, 0x43, 0x00, 0x0d, 0x3e, 0x50, 0x81, 0x63, 0x3e, 0x00, 0x0d, 0x40, 0x50, 
  0x81, 0x63, 0x40, 0x00, 0x0d, 0x43, 0x50, 0x85, 0x2b, 0x43, 0x00, 0x25, 0x40, 0x50, 0x81, 0x63, 
  0x40, 0x00, 0x0d, 0x47, 0x50, 0x83, 0x47, 0x47, 0x00, 0x19, 0x45, 0x50, 0x87, 0x0f, 0x45, 0x00, 
  0x31, 0x45, 0x50, 0x81, 0x63, 0x45, 0x00, 0x0d, 0x47, 0x50, 0x81, 0x63, 0x47, 0x00, 0x0d, 0x45, 
  0x50, 0x81, 0x63, 0x45, 0x00, 0x0d, 0x43, 0x50, 0x81, 0x63, 0x43, 0x00, 0x0d, 0x3e, 0x50, 0x81, 
  0x63, 0x3e, 0x00, 0x0d, 0x40, 0x50, 0x81, 0x63, 0x40, 0x00, 0x0d, 0x43, 0x50, 0x85, 0x2b, 0x43, 
  0x00, 0x25, 0x40, 0x50, 0x83, 0x47, 0x40, 0x00, 0x19, 0x43, 0x50, 0x81, 0x63, 0x43, 0x00, 0x0d, 
  0x4a, 0x50, 0x81, 0x63, 0x4a, 0x00, 0x0d, 0x47, 0x50, 0x85, 0x2b, 0x47, 0x00, 0x25, 0x43, 0x50, 
  0x81, 0x63, 0x43, 0x00, 0x0d, 0x45, 0x50, 0x83, 0x47, 0x45, 0x00, 0x19, 0x47, 0x50, 0x90, 0x03, 
  0x47, 0x00, 0x84, 0x4d, 0x47, 0x50, 0x81, 0x63, 0x47, 0x00, 0x0d, 0x47, 0x50, 0x81, 0x63, 0x47, 
  0x00, 0x0d, 0x45, 0x50, 0x81, 0x63, 0x45, 0x00, 0x0d, 0x47, 0x50, 0x81, 0x63, 0x47, 0x00, 0x0d, 
  0x45, 0x50, 0x81, 0x63, 0x45, 0x00, 0x0d, 0x43, 0x50, 0x81, 0x63, 0x43, 0x00, 0x0d, 0x43, 0x50, 
  0x83, 0x47, 0x43, 0x00, 0x19, 0x43, 0x50, 0x81, 0x63, 0x43, 0x00, 0x0d, 0x40, 0x50, 0x81, 0x63, 
  0x40, 0x00, 0x0d, 0x43, 0x50, 0x81, 0x63, 0x43, 0x00, 0x0d, 0x40, 0x50, 0x81, 0x63, 0x40, 0x00, 
  0x0d, 0x43, 0x50, 0x83, 0x47, 0x43, 0x00, 0x87, 0x59, 0x45, 0x50, 0x81, 0x63, 0x45, 0x00, 0x0d, 
  0x47, 0x50, 0x81, 0x63, 0x47, 0x00, 0x0d, 0x45, 0x50, 0x81, 0x63, 0x45, 0x00, 0x0d, 0x43, 0x50, 
  0x81, 0x63, 0x43, 0x00, 0x0d, 0x45, 0x50, 0x83, 0x47, 0x45, 0x00, 0x19, 0x45, 0x50, 0x81, 0x63, 
  0x45, 0x00, 0x0d, 0x43, 0x50, 0x81, 0x63, 0x43, 0x00, 0x0d, 0x47, 0x50, 0x83, 0x47, 0x47, 0x00, 
  0x19, 0x45, 0x50, 0x81, 0x63, 0x45, 0x00, 0x0d, 0x45, 0x50, 0x81, 0x63, 0x45, 0x00, 0x0d, 0x43, 
  0x50, 0x87, 0x0f, 0x43, 0x00, 0x31, 0x45, 0x50, 0x81, 0x63, 0x45, 0x00, 0x0d, 0x47, 0x50, 0x81, 
  0x63, 0x47, 0x00, 0x0d, 0x45, 0x50, 0x81, 0x63, 0x45, 0x00, 0x0d, 0x43, 0x50, 0x81, 0x63, 0x43, 
  0x00, 0x0d, 0x45, 0x50, 0x81, 0x63, 0x45, 0x00, 0x0d, 0x43, 0x50, 0x81, 0x63, 0x43, 0x00, 0x0d, 
  0x40, 0x50, 0x81, 0x63, 0x40, 0x00, 0x0d, 0x40, 0x50, 0x81, 0x63, 0x40, 0x00, 0x0d, 0x40, 0x50, 
  0x81, 0x63, 0x40, 0x00, 0x0d, 0x3e, 0x50, 0x81, 0x63, 0x3e, 0x00, 0x0d, 0x43, 0x50, 0x8a, 0x57, 
  0x43, 0x00, 0x9a, 0x69, 0x47, 0x50, 0x81, 0x63, 0x47, 0x00, 0x0d, 0x47, 0x50, 0x81, 0x63, 0x47, 
  0x00, 0x0d, 0x47, 0x50, 0x81, 0x63, 0x47, 0x00, 0x0d, 0x45, 0x50, 0x81, 0x63, 0x45, 0x00, 0x0d, 
  0x45, 0x50, 0x81, 0x63, 0x45, 0x00, 0x0d, 0x43, 0x50, 0x81, 0x63, 0x43, 0x00, 0x0d, 0x43, 0x50, 
  0x83, 0x47, 0x43, 0x00, 0x19, 0x43, 0x50, 0x81, 0x63, 0x43, 0x00, 0x0d, 0x40, 0x50, 0x81, 0x63, 
  0x40, 0x00, 0x0d, 0x43, 0x50, 0x81, 0x63, 0x43, 0x00, 0x0d, 0x40, 0x50, 0x81, 0x63, 0x40, 0x00, 
  0x0d, 0x43, 0x50, 0x83, 0x47, 0x43, 0x00, 0x87, 0x59, 0x45, 0x50, 0x81, 0x63, 0x45, 0x00, 0x0d, 
  0x47, 0x50, 0x81, 0x63, 0x47, 0x00, 0x0d, 0x45, 0x50, 0x81, 0x63, 0x45, 0x00, 0x0d, 0x43, 0x50, 
  0x81, 0x63, 0x43, 0x00, 0x0d, 0x45, 0x50, 0x83, 0x47, 0x45, 0x00, 0x19, 0x45, 0x50, 0x81, 0x63, 
  0x45, 0x00, 0x0d, 0x43, 0x50, 0x81, 0x63, 0x43, 0x00, 0x0d, 0x47, 0x50, 0x83, 0x47, 0x47, 0x00, 
  0x19, 0x45, 0x50, 0x81, 0x63, 0x45, 0x00, 0x0d, 0x45, 0x50, 0x81, 0x63, 0x45, 0x00, 0x0d, 0x43, 
  0x50, 0x87, 0x0f, 0x43, 0x00, 0x31, 0x45, 0x50, 0x81, 0x63, 0x45, 0x00, 0x0d, 0x47, 0x50, 0x81, 
  0x63, 0x47, 0x00, 0x0d, 0x45, 0x50, 0x81, 0x63, 0x45, 0x00, 0x0d, 0x43, 0x50, 0x81, 0x63, 0x43, 
  0x00, 0x0d, 0x45, 0x50, 0x81, 0x63, 0x45, 0x00, 0x0d, 0x43, 0x50, 0x81, 0x63, 0x43, 0x00, 0x0d, 
  0x40, 0x50, 0x81, 0x63, 0x40, 0x00, 0x0d, 0x40, 0x50, 0x81, 0x63, 0x40, 0x00, 0x0d, 0x40, 0x50, 
  0x81, 0x63, 0x40, 0x00, 0x0d, 0x3e, 0x50, 0x81, 0x63, 0x3e, 0x00, 0x0d, 0x43, 0x50, 0x8a, 0x57, 
  0x43, 0x00, 0x9a, 0x69, 0x45, 0x50, 0x81, 0x63, 0x45, 0x00, 0x0d, 0x43, 0x50, 0x81, 0x63, 0x43, 
  0x00, 0x0d, 0x47, 0x50, 0x81, 0x63, 0x47, 0x00, 0x0d, 0x45, 0x50, 0x81, 0x63, 0x45, 0x00, 0x0d, 
  0x45, 0x50, 0x81, 0x63, 0x45, 0x00, 0x0d, 0x43, 0x50, 0x81, 0x63, 0x43, 0x00, 0x0d, 0x40, 0x50, 
  0x8e, 0x1f, 0x40, 0x00, 0x61, 0x3c, 0x50, 0x00, 0x40, 0x50, 0x00, 0x43, 0x50, 0x8e, 0x1f, 0x3c, 
  0x00, 0x00, 0x40, 0x00, 0x00, 0x43, 0x00, 0x61, 0x3e, 0x50, 0x00, 0x42, 0x50, 0x00, 0x45, 0x50, 
  0x8e, 0x1f, 0x3e, 0x00, 0x00, 0x42, 0x00, 0x00, 0x45, 0x00, 0x61, 0x3e, 0x50, 0x00, 0x42, 0x50, 
  0x00, 0x47, 0x50, 0x8e, 0x1f, 0x3e, 0x00, 0x00, 0x42, 0x00, 0x00, 0x47, 0x00, 0x61, 0x40, 0x50, 
  0x00, 0x43, 0x50, 0x00, 0x47, 0x50, 0x8e, 0x1f, 0x40, 0x00, 0x00, 0x43, 0x00, 0x00, 0x47, 0x00, 
  0x61, 0x3c, 0x50, 0x00, 0x40, 0x50, 0x00, 0x43, 0x50, 0x8e, 0x1f, 0x3c, 0x00, 0x00, 0x40, 0x00, 
  0x00, 0x43, 0x00, 0x61, 0x3e, 0x50, 0x00, 0x42, 0x50, 0x00, 0x45, 0x50, 0x8e, 0x1f, 0x3e, 0x00, 
  0x00, 0x42, 0x00, 0x00, 0x45, 0x00, 0x61, 0x3e, 0x50, 0x00, 0x42, 0x50, 0x00, 0x45, 0x50, 0x8e, 
  0x1f, 0x3e, 0x00, 0x00, 0x42, 0x00, 0x00, 0x45, 0x00, 0x61, 0x47, 0x50, 0x81, 0x63, 0x47, 0x00, 
  0x0d, 0x47, 0x50, 0x81, 0x63, 0x47, 0x00, 0x0d, 0x47, 0x50, 0x81, 0x63, 0x47, 0x00, 0x0d, 0x47, 
  0x50, 0x81, 0x63, 0x47, 0x00, 0x0d, 0x47, 0x50, 0x81, 0x63, 0x47, 0x00, 0x0d, 0x45, 0x50, 0x81, 
  0x63, 0x45, 0x00, 0x0d, 0x43, 0x50, 0x81, 0x63, 0x43, 0x00, 0x0d, 0x43, 0x50, 0x81, 0x63, 0x43, 
  0x00, 0x0d, 0x43, 0x50, 0x87, 0x0f, 0x43, 0x00, 0x31, 0x47, 0x50, 0x85, 0x2b, 0x47, 0x00, 0x25, 
  0x47, 0x50, 0x83, 0x47, 0x47, 0x00, 0x19, 0x45, 0x50, 0x83, 0x47, 0x45, 0x00, 0x19, 0x45, 0x50, 
  0x81, 0x63, 0x45, 0x00, 0x0d, 0x45, 0x50, 0x81, 0x63, 0x45, 0x00, 0x0d, 0x43, 0x50, 0x81, 0x63, 
  0x43, 0x00, 0x0d, 0x42, 0x50, 0x83, 0x47, 0x42, 0x00, 0x19, 0x42, 0x50, 0x85, 0x2b, 0x42, 0x00, 
  0x25, 0x40, 0x50, 0x81, 0x63, 0x40, 0x00, 0x0d, 0x47, 0x50, 0x81, 0x63, 0x47, 0x00, 0x0d, 0x45, 
  0x50, 0x83, 0x47, 0x45, 0x00, 0x19, 0x43, 0x50, 0x85, 0x2b, 0x43, 0x00, 0x25, 0x40, 0x50, 0x81, 
  0x63, 0x40, 0x00, 0x0d, 0x40, 0x50, 0x81, 0x63, 0x40, 0x00, 0x0d, 0x47, 0x50, 0x85, 0x2b, 0x47, 
  0x00, 0x25, 0x45, 0x50, 0x81, 0x63, 0x45, 0x00, 0x0d, 0x43, 0x50, 0x83, 0x47, 0x43, 0x00, 0x19, 
  0x40, 0x50, 0x83, 0x47, 0x40, 0x00, 0xa3, 0x69, 0x40, 0x50, 0x81, 0x63, 0x40, 0x00, 0x0d, 0x47, 
  0x50, 0x81, 0x63, 0x47, 0x00, 0x0d, 0x47, 0x50, 0x81, 0x63, 0x47, 0x00, 0x0d, 0x47, 0x50, 0x81, 
  0x63, 0x47, 0x00, 0x0d, 0x47, 0x50, 0x81, 0x63, 0x47, 0x00, 0x0d, 0x47, 0x50, 0x81, 0x63, 0x47, 
  0x00, 0x0d, 0x45, 0x50, 0x83, 0x47, 0x45, 0x00, 0x19, 0x43, 0x50, 0x81, 0x63, 0x43, 0x00, 0x0d, 
  0x43, 0x50, 0x87, 0x0f, 0x43, 0x00, 0x31, 0x47, 0x50, 0x81, 0x63, 0x47, 0x00, 0x0d, 0x47, 0x50, 
  0x81, 0x63, 0x47, 0x00, 0x0d, 0x47, 0x50, 0x81, 0x63, 0x47, 0x00, 0x0d, 0x47, 0x50, 0x83, 0x47, 
  0x47, 0x00, 0x19, 0x45, 0x50, 0x83, 0x47, 0x45, 0x00, 0x19, 0x45, 0x50, 0x81, 0x63, 0x45, 0x00, 
  0x0d, 0x45, 0x50, 0x81, 0x63, 0x45, 0x00, 0x0d, 0x43, 0x50, 0x81, 0x63, 0x43, 0x00, 0x0d, 0x42, 
  0x50, 0x83, 0x47, 0x42, 0x00, 0x19, 0x42, 0x50, 0x87, 0x0f, 0x42, 0x00, 0x31, 0x47, 0x50, 0x81, 
  0x63, 0x47, 0x00, 0x0d, 0x47, 0x50, 0x81, 0x63, 0x47, 0x00, 0x0d, 0x47, 0x50, 0x81, 0x63, 0x47, 
  0x00, 0x0d, 0x47, 0x50, 0x81, 0x63, 0x47, 0x00, 0x0d, 0x47, 0x50, 0x85, 0x2b, 0x47, 0x00, 0x25, 
  0x43, 0x50, 0x83, 0x47, 0x43, 0x00, 0x19, 0x43, 0x50, 0x81, 0x63, 0x43, 0x00, 0x0d, 0x45, 0x50, 
  0x81, 0x63, 0x45, 0x00, 0x0d, 0x43, 0x50, 0x88, 0x73, 0x43, 0x00, 0x9a, 0x5d, 0x47, 0x50, 0x81, 
  0x63, 0x47, 0x00, 0x0d, 0x47, 0x50, 0x81, 0x63, 0x47, 0x00, 0x0d, 0x47, 0x50, 0x81, 0x63, 0x47, 
  0x00, 0x0d, 0x47, 0x50, 0x81, 0x63, 0x47, 0x00, 0x0d, 0x45, 0x50, 0x81, 0x63, 0x45, 0x00, 0x0d, 
  0x43, 0x50, 0x81, 0x63, 0x43, 0x00, 0x0d, 0x43, 0x50, 0x83, 0x47, 0x43, 0x00, 0x19, 0x43, 0x50, 
  0x81, 0x63, 0x43, 0x00, 0x0d, 0x40, 0x50, 0x81, 0x63, 0x40, 0x00, 0x0d, 0x43, 0x50, 0x81, 0x63, 
  0x43, 0x00, 0x0d, 0x40, 0x50, 0x81, 0x63, 0x40, 0x00, 0x0d, 0x43, 0x50, 0x83, 0x47, 0x43, 0x00, 
  0x87, 0x59, 0x45, 0x50, 0x81, 0x63, 0x45, 0x00, 0x0d, 0x47, 0x50, 0x81, 0x63, 0x47, 0x00, 0x0d, 
  0x45, 0x50, 0x81, 0x63, 0x45, 0x00, 0x0d, 0x43, 0x50, 0x81, 0x63, 0x43, 0x00, 0x0d, 0x45, 0x50, 
  0x83, 0x47, 0x45, 0x00, 0x19, 0x45, 0x50, 0x81, 0x63, 0x45, 0x00, 0x0d, 0x43, 0x50, 0x81, 0x63, 
  0x43, 0x00, 0x0d, 0x47, 0x50, 0x83, 0x47, 0x47, 0x00, 0x19, 0x45, 0x50, 0x81, 0x63, 0x45, 0x00, 
  0x0d, 0x45, 0x50, 0x81, 0x63, 0x45, 0x00, 0x0d, 0x43, 0x50, 0x87, 0x0f, 0x43, 0x00, 0x31, 0x45, 
  0x50, 0x81, 0x63, 0x45, 0x00, 0x0d, 0x47, 0x50, 0x81, 0x63, 0x47, 0x00, 0x0d, 0x45, 0x50, 0x81, 
  0x63, 0x45, 0x00, 0x0d, 0x43, 0x50, 0x81, 0x63, 0x43, 0x00, 0x0d, 0x45, 0x50, 0x81, 0x63, 0x45, 
  0x00, 0x0d, 0x43, 0x50, 0x81, 0x63, 0x43, 0x00, 0x0d, 0x40, 0x50, 0x81, 0x63, 0x40, 0x00, 0x0d, 
  0x40, 0x50, 0x81, 0x63, 0x40, 0x00, 0x0d, 0x40, 0x50, 0x81, 0x63, 0x40, 0x00, 0x0d, 0x3e, 0x50, 
  0x81, 0x63, 0x3e, 0x00, 0x0d, 0x43, 0x50, 0x8a, 0x57, 0x43, 0x00, 0x9a, 0x69, 0x47, 0x50, 0x81, 
  0x63, 0x47, 0x00, 0x0d, 0x47, 0x50, 0x81, 0x63, 0x47, 0x00, 0x0d, 0x47, 0x50, 0x81, 0x63, 0x47, 
  0x00, 0x0d, 0x47, 0x50, 0x81, 0x63, 0x47, 0x00, 0x0d, 0x45, 0x50, 0x81, 0x63, 0x45, 0x00, 0x0d, 
  0x43, 0x50, 0x81, 0x63, 0x43, 0x00, 0x0d, 0x43, 0x50, 0x83, 0x47, 0x43, 0x00, 0x19, 0x43, 0x50, 
  0x81, 0x63, 0x43, 0x00, 0x0d, 0x40, 0x50, 0x81, 0x63, 0x40, 0x00, 0x0d, 0x43, 0x50, 0x81, 0x63, 
  0x43, 0x00, 0x0d, 0x40, 0x50, 0x81, 0x63, 0x40, 0x00, 0x0d, 0x43, 0x50, 0x83, 0x47, 0x43, 0x00, 
  0x87, 0x59, 0x45, 0x50, 0x81, 0x63, 0x45, 0x00, 0x0d, 0x47, 0x50, 0x81, 0x63, 0x47, 0x00, 0x0d, 
  0x45, 0x50, 0x81, 0x63, 0x45, 0x00, 0x0d, 0x43, 0x50, 0x81, 0x63, 0x43, 0x00, 0x0d, 0x45, 0x50, 
  0x83, 0x47, 0x45, 0x00, 0x19, 0x45, 0x50, 0x81, 0x63, 0x45, 0x00, 0x0d, 0x43, 0x50, 0x81, 0x63, 
  0x43, 0x00, 0x0d, 0x47, 0x50, 0x81, 0x63, 0x47, 0x00, 0x0d, 0x45, 0x50, 0x81, 0x63, 0x45, 0x00, 
  0x0d, 0x45, 0x50, 0x81, 0x63, 0x45, 0x00, 0x0d, 0x43, 0x50, 0x88, 0x73, 0x43, 0x00, 0x3d, 0x45, 
  0x50, 0x81, 0x63, 0x45, 0x00, 0x0d, 0x47, 0x50, 0x81, 0x63, 0x47, 0x00, 0x0d, 0x45, 0x50, 0x81, 
  0x63, 0x45, 0x00, 0x0d, 0x43, 0x50, 0x81, 0x63, 0x43, 0x00, 0x0d, 0x45, 0x50, 0x81, 0x63, 0x45, 
  0x00, 0x0d, 0x43, 0x50, 0x81, 0x63, 0x43, 0x00, 0x0d, 0x40, 0x50, 0x81, 0x63, 0x40, 0x00, 0x0d, 
  0x40, 0x50, 0x81, 0x63, 0x40, 0x00, 0x0d, 0x40, 0x50, 0x81, 0x63, 0x40, 0x00, 0x0d, 0x3e, 0x50, 
  0x81, 0x63, 0x3e, 0x00, 0x0d, 0x43, 0x50, 0x8a, 0x57, 0x43, 0x00, 0xa6, 0x09, 0x47, 0x50, 0x81, 
  0x63, 0x47, 0x00, 0x0d, 0x47, 0x50, 0x81, 0x63, 0x47, 0x00, 0x0d, 0x47, 0x50, 0x81, 0x63, 0x47, 
  0x00, 0x0d, 0x47, 0x50, 0x81, 0x63, 0x47, 0x00, 0x0d, 0x47, 0x50, 0x81, 0x63, 0x47, 0x00, 0x0d, 
  0x45, 0x50, 0x81, 0x63, 0x45, 0x00, 0x0d, 0x43, 0x50, 0x81, 0x63, 0x43, 0x00, 0x0d, 0x43, 0x50, 
  0x81, 0x63, 0x43, 0x00, 0x0d, 0x43, 0x50, 0x87, 0x0f, 0x43, 0x00, 0x31, 0x47, 0x50, 0x85, 0x2b, 
  0x47, 0x00, 0x25, 0x47, 0x50, 0x83, 0x47, 0x47, 0x00, 0x19, 0x45, 0x50, 0x83, 0x47, 0x45, 0x00, 
  0x19, 0x45, 0x50, 0x81, 0x63, 0x45, 0x00, 0x0d, 0x45, 0x50, 0x81, 0x63, 0x45, 0x00, 0x0d, 0x43, 
  0x50, 0x81, 0x63, 0x43, 0x00, 0x0d, 0x42, 0x50, 0x83, 0x47, 0x42, 0x00, 0x19, 0x42, 0x50, 0x85, 
  0x2b, 0x42, 0x00, 0x25, 0x40, 0x50, 0x81, 0x63, 0x40, 0x00, 0x0d, 0x47, 0x50, 0x81, 0x63, 0x47, 
  0x00, 0x0d, 0x45, 0x50, 0x83, 0x47, 0x45, 0x00, 0x19, 0x43, 0x50, 0x85, 0x2b, 0x43, 0x00, 0x25, 
  0x40, 0x50, 0x81, 0x63, 0x40, 0x00, 0x0d, 0x40, 0x50, 0x81, 0x63, 0x40, 0x00, 0x0d, 0x47, 0x50, 
  0x85, 0x2b, 0x47, 0x00, 0x25, 0x45, 0x50, 0x81, 0x63, 0x45, 0x00, 0x0d, 0x43, 0x50, 0x83, 0x47, 
  0x43, 0x00, 0x19, 0x40, 0x50, 0x83, 0x47, 0x40, 0x00, 0xa1, 0x79, 0x4a, 0x50, 0x81, 0x63, 0x4a, 
  0x00, 0x0d, 0x4a, 0x50, 0x81, 0x63, 0x4a, 0x00, 0x0d, 0x4a, 0x50, 0x83, 0x47, 0x4a, 0x00, 0x19, 
  0x4a, 0x50, 0x81, 0x63, 0x4a, 0x00, 0x0d, 0x4a, 0x50, 0x81, 0x63, 0x4a, 0x00, 0x0d, 0x4a, 0x50, 
  0x81, 0x63, 0x4a, 0x00, 0x0d, 0x48, 0x50, 0x81, 0x63, 0x48, 0x00, 0x0d, 0x47, 0x50, 0x81, 0x63, 
  0x47, 0x00, 0x0d, 0x48, 0x50, 0x87, 0x0f, 0x48, 0x00, 0x31, 0x43, 0x50, 0x81, 0x63, 0x43, 0x00, 
  0x0d, 0x4c, 0x50, 0x81, 0x63, 0x4c, 0x00, 0x0d, 0x4a, 0x50, 0x81, 0x63, 0x4a, 0x00, 0x0d, 0x4a, 
  0x50, 0x81, 0x63, 0x4a, 0x00, 0x0d, 0x4a, 0x50, 0x83, 0x47, 0x4a, 0x00, 0x19, 0x45, 0x50, 0x85, 
  0x2b, 0x45, 0x00, 0x25, 0x45, 0x50, 0x81, 0x63, 0x45, 0x00, 0x0d, 0x43, 0x50, 0x81, 0x63, 0x43, 
  0x00, 0x0d, 0x45, 0x50, 0x81, 0x63, 0x45, 0x00, 0x0d, 0x47, 0x50, 0x83, 0x47, 0x47, 0x00, 0x19, 
  0x47, 0x50, 0x83, 0x47, 0x47, 0x00, 0x19, 0x47, 0x50, 0x81, 0x63, 0x47, 0x00, 0x0d, 0x47, 0x50, 
  0x81, 0x63, 0x47, 0x00, 0x0d, 0x47, 0x50, 0x81, 0x63, 0x47, 0x00, 0x0d, 0x47, 0x50, 0x81, 0x63, 
  0x47, 0x00, 0x0d, 0x47, 0x50, 0x81, 0x63, 0x47, 0x00, 0x0d, 0x47, 0x50, 0x83, 0x47, 0x47, 0x00, 
  0x19, 0x40, 0x50, 0x81, 0x63, 0x40, 0x00, 0x0d, 0x40, 0x50, 0x81, 0x63, 0x40, 0x00, 0x0d, 0x47, 
  0x50, 0x85, 0x2b, 0x47, 0x00, 0x25, 0x45, 0x50, 0x81, 0x63, 0x45, 0x00, 0x0d, 0x43, 0x50, 0x83, 
  0x47, 0x43, 0x00, 0x19, 0x40, 0x50, 0x8a, 0x57, 0x40, 0x00, 0x93, 0x29, 0x47, 0x50, 0x81, 0x63, 
  0x47, 0x00, 0x0d, 0x47, 0x50, 0x81, 0x63, 0x47, 0x00, 0x0d, 0x47, 0x50, 0x81, 0x63, 0x47, 0x00, 
  0x0d, 0x47, 0x50, 0x81, 0x63, 0x47, 0x00, 0x0d, 0x45, 0x50, 0x81, 0x63, 0x45, 0x00, 0x0d, 0x43, 
  0x50, 0x81, 0x63, 0x43, 0x00, 0x0d, 0x43, 0x50, 0x83, 0x47, 0x43, 0x00, 0x19, 0x43, 0x50, 0x81, 
  0x63, 0x43, 0x00, 0x0d, 0x40, 0x50, 0x81, 0x63, 0x40, 0x00, 0x0d, 0x43, 0x50, 0x81, 0x63, 0x43, 
  0x00, 0x0d, 0x40, 0x50, 0x81, 0x63, 0x40, 0x00, 0x0d, 0x43, 0x50, 0x83, 0x47, 0x43, 0x00, 0x87, 
  0x59, 0x45, 0x50, 0x81, 0x63, 0x45, 0x00, 0x0d, 0x47, 0x50, 0x81, 0x63, 0x47, 0x00, 0x0d, 0x45, 
  0x50, 0x81, 0x63, 0x45, 0x00, 0x0d, 0x43, 0x50, 0x81, 0x63, 0x43, 0x00, 0x0d, 0x45, 0x50, 0x83, 
  0x47, 0x45, 0x00, 0x19, 0x45, 0x50, 0x81, 0x63, 0x45, 0x00, 0x0d, 0x43, 0x50, 0x81, 0x63, 0x43, 
  0x00, 0x0d, 0x47, 0x50, 0x83, 0x47, 0x47, 0x00, 0x19, 0x45, 0x50, 0x81, 0x63, 0x45, 0x00, 0x0d, 
  0x45, 0x50, 0x81, 0x63, 0x45, 0x00, 0x0d, 0x43, 0x50, 0x87, 0x0f, 0x43, 0x00, 0x31, 0x45, 0x50, 
  0x81, 0x63, 0x45, 0x00, 0x0d, 0x47, 0x50, 0x81, 0x63, 0x47, 0x00, 0x0d, 0x45, 0x50, 0x81, 0x63, 
  0x45, 0x00, 0x0d, 0x43, 0x50, 0x81, 0x63, 0x43, 0x00, 0x0d, 0x45, 0x50, 0x81, 0x63, 0x45, 0x00, 
  0x0d, 0x43, 0x50, 0x81, 0x63, 0x43, 0x00, 0x0d, 0x40, 0x50, 0x81, 0x63, 0x40, 0x00, 0x0d, 0x40, 
  0x50, 0x81, 0x63, 0x40, 0x00, 0x0d, 0x40, 0x50, 0x81, 0x63, 0x40, 0x00, 0x0d, 0x3e, 0x50, 0x81, 
  0x63, 0x3e, 0x00, 0x0d, 0x43, 0x50, 0x8a, 0x57, 0x43, 0x00, 0x9a, 0x69, 0x4a, 0x50, 0x81, 0x63, 
  0x4a, 0x00, 0x0d, 0x4a, 0x50, 0x81, 0x63, 0x4a, 0x00, 0x0d, 0x4a, 0x50, 0x81, 0x63, 0x4a, 0x00, 
  0x0d, 0x4a, 0x50, 0x81, 0x63, 0x4a, 0x00, 0x0d, 0x48, 0x50, 0x81, 0x63, 0x48, 0x00, 0x0d, 0x47, 
  0x50, 0x81, 0x63, 0x47, 0x00, 0x0d, 0x48, 0x50, 0x83, 0x47, 0x48, 0x00, 0x19, 0x48, 0x50, 0x81, 
  0x63, 0x48, 0x00, 0x0d, 0x47, 0x50, 0x81, 0x63, 0x47, 0x00, 0x0d, 0x48, 0x50, 0x81, 0x63, 0x48, 
  0x00, 0x0d, 0x47, 0x50, 0x81, 0x63, 0x47, 0x00, 0x0d, 0x4a, 0x50, 0x81, 0x63, 0x4a, 0x00, 0x0d, 
  0x47, 0x50, 0x85, 0x2b, 0x47, 0x00, 0x84, 0x05, 0x4a, 0x50, 0x81, 0x63, 0x4a, 0x00, 0x0d, 0x4a, 
  0x50, 0x81, 0x63, 0x4a, 0x00, 0x0d, 0x4a, 0x50, 0x81, 0x63, 0x4a, 0x00, 0x0d, 0x4a, 0x50, 0x81, 
  0x63, 0x4a, 0x00, 0x0d, 0x4a, 0x50, 0x83, 0x47, 0x4a, 0x00, 0x19, 0x45, 0x50, 0x81, 0x63, 0x45, 
  0x00, 0x0d, 0x45, 0x50, 0x81, 0x63, 0x45, 0x00, 0x0d, 0x48, 0x50, 0x81, 0x63, 0x48, 0x00, 0x0d, 
  0x48, 0x50, 0x81, 0x63, 0x48, 0x00, 0x0d, 0x48, 0x50, 0x81, 0x63, 0x48, 0x00, 0x0d, 0x47, 0x50, 
  0x88, 0x73, 0x47, 0x00, 0x3d, 0x45, 0x50, 0x81, 0x63, 0x45, 0x00, 0x0d, 0x47, 0x50, 0x81, 0x63, 
  0x47, 0x00, 0x0d, 0x45, 0x50, 0x81, 0x63, 0x45, 0x00, 0x0d, 0x43, 0x50, 0x81, 0x63, 0x43, 0x00, 
  0x0d, 0x45, 0x50, 0x81, 0x63, 0x45, 0x00, 0x0d, 0x43, 0x50, 0x81, 0x63, 0x43, 0x00, 0x0d, 0x40, 
  0x50, 0x81, 0x63, 0x40, 0x00, 0x0d, 0x40, 0x50, 0x81, 0x63, 0x40, 0x00, 0x0d, 0x40, 0x50, 0x81, 
  0x63, 0x40, 0x00, 0x0d, 0x43, 0x50, 0x81, 0x63, 0x43, 0x00, 0x0d, 0x47, 0x50, 0x81, 0x63, 0x47, 
  0x00, 0x0d, 0x45, 0x50, 0x81, 0x63, 0x45, 0x00, 0x0d, 0x43, 0x50, 0x87, 0x0f, 0x43, 0x00, 0x9a, 
  0x51, 0x45, 0x50, 0x81, 0x63, 0x45, 0x00, 0x0d, 0x45, 0x50, 0x81, 0x63, 0x45, 0x00, 0x0d, 0x47, 
  0x50, 0x81, 0x63, 0x47, 0x00, 0x0d, 0x45, 0x50, 0x81, 0x63, 0x45, 0x00, 0x0d, 0x47, 0x50, 0x83, 
  0x47, 0x47, 0x00, 0x19, 0x47, 0x50, 0x88, 0x73, 0x47, 0x00, 0x3d, 0x45, 0x50, 0x81, 0x63, 0x45, 
  0x00, 0x0d, 0x47, 0x50, 0x81, 0x63, 0x47, 0x00, 0x0d, 0x48, 0x50, 0x8a, 0x57, 0x48, 0x00, 0x49, 
  0x47, 0x50, 0x83, 0x47, 0x47, 0x00, 0x19, 0x42, 0x50, 0x88, 0x73, 0x42, 0x00, 0x8b, 0x5d, 0x45, 
  0x50, 0x81, 0x63, 0x45, 0x00, 0x0d, 0x45, 0x50, 0x81, 0x63, 0x45, 0x00, 0x0d, 0x47, 0x50, 0x81, 
  0x63, 0x47, 0x00, 0x0d, 0x45, 0x50, 0x81, 0x63, 0x45, 0x00, 0x0d, 0x47, 0x50, 0x83, 0x47, 0x47, 
  0x00, 0x19, 0x47, 0x50, 0x88, 0x73, 0x47, 0x00, 0x3d, 0x45, 0x50, 0x81, 0x63, 0x45, 0x00, 0x0d, 
  0x47, 0x50, 0x81, 0x63, 0x47, 0x00, 0x0d, 0x48, 0x50, 0x8a, 0x57, 0x48, 0x00, 0x49, 0x47, 0x50, 
  0x83, 0x47, 0x47, 0x00, 0x19, 0x42, 0x50, 0x83, 0x47, 0x42, 0x00, 0x19, 0x40, 0x50, 0x83, 0x47, 
  0x40, 0x00, 0x19, 0x3e, 0x50, 0x88, 0x73, 0x3e, 0x00, 0x84, 0x1d, 0x4a, 0x50, 0x81, 0x63, 0x4a, 
  0x00, 0x0d, 0x4a, 0x50, 0x81, 0x63, 0x4a, 0x00, 0x0d, 0x4a, 0x50, 0x81, 0x63, 0x4a, 0x00, 0x0d, 
  0x4a, 0x50, 0x81, 0x63, 0x4a, 0x00, 0x0d, 0x4c, 0x50, 0x83, 0x47, 0x4c, 0x00, 0x19, 0x4a, 0x50, 
  0x81, 0x63, 0x4a, 0x00, 0x0d, 0x47, 0x50, 0x81, 0x63, 0x47, 0x00, 0x8b, 0x2d, 0x3c, 0x50, 0x00, 
  0x40, 0x50, 0x00, 0x43, 0x50, 0x8e, 0x1f, 0x3c, 0x00, 0x00, 0x40, 0x00, 0x00, 0x43, 0x00, 0x61, 
  0x3e, 0x50, 0x00, 0x42, 0x50, 0x00, 0x45, 0x50, 0x8e, 0x1f, 0x3e, 0x00, 0x00, 0x42, 0x00, 0x00, 
  0x45, 0x00, 0x61, 0x3e, 0x50, 0x00, 0x42, 0x50, 0x00, 0x47, 0x50, 0x8e, 0x1f, 0x3e, 0x00, 0x00, 
  0x42, 0x00, 0x00, 0x47, 0x00, 0x61, 0x40, 0x50, 0x00, 0x43, 0x50, 0x00, 0x47, 0x50, 0x8e, 0x1f, 
  0x40, 0x00, 0x00, 0x43, 0x00, 0x00, 0x47, 0x00, 0x61, 0x3c, 0x50, 0x00, 0x40, 0x50, 0x00, 0x43, 
  0x50, 0x8e, 0x1f, 0x3c, 0x00, 0x00, 0x40, 0x00, 0x00, 0x43, 0x00, 0x61, 0x3e, 0x50, 0x00, 0x42, 
  0x50, 0x00, 0x45, 0x50, 0x8e, 0x1f, 0x3e, 0x00, 0x00, 0x42, 0x00, 0x00, 0x45, 0x00, 0x84, 0x41, 
  0x4a, 0x50, 0x81, 0x63, 0x4a, 0x00, 0x0d, 0x4a, 0x50, 0x81, 0x63, 0x4a, 0x00, 0x0d, 0x4a, 0x50, 
  0x81, 0x63, 0x4a, 0x00, 0x0d, 0x4a, 0x50, 0x81, 0x63, 0x4a, 0x00, 0x0d, 0x48, 0x50, 0x81, 0x63, 
  0x48, 0x00, 0x0d, 0x47, 0x50, 0x81, 0x63, 0x47, 0x00, 0x0d, 0x48, 0x50, 0x83, 0x47, 0x48, 0x00, 
  0x19, 0x48, 0x50, 0x81, 0x63, 0x48, 0x00, 0x0d, 0x47, 0x50, 0x81, 0x63, 0x47, 0x00, 0x0d, 0x48, 
  0x50, 0x81, 0x63, 0x48, 0x00, 0x0d, 0x47, 0x50, 0x81, 0x63, 0x47, 0x00, 0x0d, 0x4a, 0x50, 0x8a, 
  0x57, 0x4a, 0x00, 0x49, 0x4a, 0x50, 0x81, 0x63, 0x4a, 0x00, 0x0d, 0x4a, 0x50, 0x81, 0x63, 0x4a, 
  0x00, 0x0d, 0x4a, 0x50, 0x81, 0x63, 0x4a, 0x00, 0x0d, 0x4a, 0x50, 0x81, 0x63, 0x4a, 0x00, 0x0d, 
  0x4a, 0x50, 0x83, 0x47, 0x4a, 0x00, 0x19, 0x45, 0x50, 0x81, 0x63, 0x45, 0x00, 0x0d, 0x45, 0x50, 
  0x81, 0x63, 0x45, 0x00, 0x0d, 0x48, 0x50, 0x83, 0x47, 0x48, 0x00, 0x19, 0x48, 0x50, 0x81, 0x63, 
  0x48, 0x00, 0x0d, 0x48, 0x50, 0x81, 0x63, 0x48, 0x00, 0x0d, 0x47, 0x50, 0x87, 0x0f, 0x47, 0x00, 
  0x31, 0x4a, 0x50, 0x81, 0x63, 0x4a, 0x00, 0x0d, 0x4a, 0x50, 0x81, 0x63, 0x4a, 0x00, 0x0d, 0x4a, 
  0x50, 0x81, 0x63, 0x4a, 0x00, 0x0d, 0x4a, 0x50, 0x81, 0x63, 0x4a, 0x00, 0x0d, 0x4a, 0x50, 0x81, 
  0x63, 0x4a, 0x00, 0x0d, 0x48, 0x50, 0x81, 0x63, 0x48, 0x00, 0x0d, 0x48, 0x50, 0x81, 0x63, 0x48, 
  0x00, 0x0d, 0x48, 0x50, 0x81, 0x63, 0x48, 0x00, 0x0d, 0x48, 0x50, 0x81, 0x63, 0x48, 0x00, 0x0d, 
  0x47, 0x50, 0x81, 0x63, 0x47, 0x00, 0x0d, 0x4a, 0x50, 0x81, 0x63, 0x4a, 0x00, 0x0d, 0x47, 0x50, 
  0x88, 0x73, 0x47, 0x00, 0x9a, 0x5d, 0x4a, 0x50, 0x81, 0x63, 0x4a, 0x00, 0x0d, 0x4a, 0x50, 0x81, 
  0x63, 0x4a, 0x00, 0x0d, 0x4a, 0x50, 0x82, 0x55, 0x4a, 0x00, 0x13, 0x4a, 0x50, 0x82, 0x55, 0x4a, 
  0x00, 0x13, 0x4a, 0x50, 0x81, 0x63, 0x4a, 0x00, 0x0d, 0x4c, 0x50, 0x83, 0x47, 0x4c, 0x00, 0x19, 
  0x4a, 0x50, 0x81, 0x63, 0x4a, 0x00, 0x0d, 0x4a, 0x50, 0x81, 0x63, 0x4a, 0x00, 0x0d, 0x4a, 0x50, 
  0x81, 0x63, 0x4a, 0x00, 0x0d, 0x43, 0x50, 0x81, 0x63, 0x43, 0x00, 0x0d, 0x47, 0x50, 0x8a, 0x57, 
  0x47, 0x00, 0x49, 0x4a, 0x50, 0x81, 0x63, 0x4a, 0x00, 0x0d, 0x4a, 0x50, 0x81, 0x63, 0x4a, 0x00, 
  0x0d, 0x4a, 0x50, 0x81, 0x63, 0x4a, 0x00, 0x0d, 0x4a, 0x50, 0x81, 0x63, 0x4a, 0x00, 0x0d, 0x4a, 
  0x50, 0x83, 0x47, 0x4a, 0x00, 0x19, 0x45, 0x50, 0x81, 0x63, 0x45, 0x00, 0x0d, 0x45, 0x50, 0x81, 
  0x63, 0x45, 0x00, 0x0d, 0x48, 0x50, 0x81, 0x63, 0x48, 0x00, 0x0d, 0x48, 0x50, 0x81, 0x63, 0x48, 
  0x00, 0x0d, 0x48, 0x50, 0x81, 0x63, 0x48, 0x00, 0x0d, 0x47, 0x50, 0x88, 0x73, 0x47, 0x00, 0x3d, 
  0x4a, 0x50, 0x81, 0x63, 0x4a, 0x00, 0x0d, 0x4a, 0x50, 0x81, 0x63, 0x4a, 0x00, 0x0d, 0x4a, 0x50, 
  0x81, 0x63, 0x4a, 0x00, 0x0d, 0x4a, 0x50, 0x81, 0x63, 0x4a, 0x00, 0x0d, 0x4a, 0x50, 0x81, 0x63, 
  0x4a, 0x00, 0x0d, 0x48, 0x50, 0x81, 0x63, 0x48, 0x00, 0x0d, 0x48, 0x50, 0x81, 0x63, 0x48, 0x00, 
  0x0d, 0x48, 0x50, 0x81, 0x63, 0x48, 0x00, 0x0d, 0x48, 0x50, 0x81, 0x63, 0x48, 0x00, 0x0d, 0x47, 
  0x50, 0x81, 0x63, 0x47, 0x00, 0x0d, 0x4a, 0x50, 0x81, 0x63, 0x4a, 0x00, 0x0d, 0x47, 0x50, 0x88, 
  0x73, 0x47, 0x00, 0x9a, 0x5d, 0x47, 0x50, 0x81, 0x63, 0x47, 0x00, 0x0d, 0x47, 0x50, 0x81, 0x63, 
  0x47, 0x00, 0x0d, 0x47, 0x50, 0x81, 0x63, 0x47, 0x00, 0x0d, 0x47, 0x50, 0x81, 0x63, 0x47, 0x00, 
  0x0d, 0x45, 0x50, 0x81, 0x63, 0x45, 0x00, 0x0d, 0x43, 0x50, 0x81, 0x63, 0x43, 0x00, 0x0d, 0x43, 
  0x50, 0x83, 0x47, 0x43, 0x00, 0x19, 0x43, 0x50, 0x81, 0x63, 0x43, 0x00, 0x0d, 0x40, 0x50, 0x81, 
  0x63, 0x40, 0x00, 0x0d, 0x43, 0x50, 0x81, 0x63, 0x43, 0x00, 0x0d, 0x40, 0x50, 0x81, 0x63, 0x40, 
  0x00, 0x0d, 0x43, 0x50, 0x83, 0x47, 0x43, 0x00, 0x87, 0x59, 0x45, 0x50, 0x81, 0x63, 0x45, 0x00, 
  0x0d, 0x47, 0x50, 0x81, 0x63, 0x47, 0x00, 0x0d, 0x45, 0x50, 0x81, 0x63, 0x45, 0x00, 0x0d, 0x43, 
  0x50, 0x81, 0x63, 0x43, 0x00, 0x0d, 0x45, 0x50, 0x83, 0x47, 0x45, 0x00, 0x19, 0x45, 0x50, 0x81, 
  0x63, 0x45, 0x00, 0x0d, 0x43, 0x50, 0x81, 0x63, 0x43, 0x00, 0x0d, 0x47, 0x50, 0x83, 0x47, 0x47, 
  0x00, 0x19, 0x45, 0x50, 0x81, 0x63, 0x45, 0x00, 0x0d, 0x45, 0x50, 0x81, 0x63, 0x45, 0x00, 0x0d, 
  0x43, 0x50, 0x87, 0x0f, 0x43, 0x00, 0x31, 0x45, 0x50, 0x81, 0x63, 0x45, 0x00, 0x0d, 0x47, 0x50, 
  0x81, 0x63, 0x47, 0x00, 0x0d, 0x45, 0x50, 0x81, 0x63, 0x45, 0x00, 0x0d, 0x43, 0x50, 0x81, 0x63, 
  0x43, 0x00, 0x0d, 0x45, 0x50, 0x81, 0x63, 0x45, 0x00, 0x0d, 0x43, 0x50, 0x81, 0x63, 0x43, 0x00, 
  0x0d, 0x40, 0x50, 0x81, 0x63, 0x40, 0x00, 0x0d, 0x40, 0x50, 0x81, 0x63, 0x40, 0x00, 0x0d, 0x40, 
  0x50, 0x81, 0x63, 0x40, 0x00, 0x0d, 0x3e, 0x50, 0x81, 0x63, 0x3e, 0x00, 0x0d, 0x43, 0x50, 0x8a, 
  0x57, 0x43, 0x00, 0x9a, 0x69, 0x47, 0x50, 0x81, 0x63, 0x47, 0x00, 0x0d, 0x47, 0x50, 0x81, 0x63, 
  0x47, 0x00, 0x0d, 0x47, 0x50, 0x81, 0x63, 0x47, 0x00, 0x0d, 0x45, 0x50, 0x81, 0x63, 0x45, 0x00, 
  0x0d, 0x45, 0x50, 0x81, 0x63, 0x45, 0x00, 0x0d, 0x43, 0x50, 0x81, 0x63, 0x43, 0x00, 0x0d, 0x43, 
  0x50, 0x83, 0x47, 0x43, 0x00, 0x19, 0x43, 0x50, 0x81, 0x63, 0x43, 0x00, 0x0d, 0x40, 0x50, 0x81, 
  0x63, 0x40, 0x00, 0x0d, 0x43, 0x50, 0x81, 0x63, 0x43, 0x00, 0x0d, 0x40, 0x50, 0x81, 0x63, 0x40, 
  0x00, 0x0d, 0x43, 0x50, 0x83, 0x47, 0x43, 0x00, 0x87, 0x59, 0x45, 0x50, 0x81, 0x63, 0x45, 0x00, 
  0x0d, 0x47, 0x50, 0x81, 0x63, 0x47, 0x00, 0x0d, 0x45, 0x50, 0x81, 0x63, 0x45, 0x00, 0x0d, 0x43, 
  0x50, 0x81, 0x63, 0x43, 0x00, 0x0d, 0x45, 0x50, 0x83, 0x47, 0x45, 0x00, 0x19, 0x45, 0x50, 0x81, 
  0x63, 0x45, 0x00, 0x0d, 0x43, 0x50, 0x81, 0x63, 0x43, 0x00, 0x0d, 0x47, 0x50, 0x83, 0x47, 0x47, 
  0x00, 0x19, 0x45, 0x50, 0x81, 0x63, 0x45, 0x00, 0x0d, 0x45, 0x50, 0x81, 0x63, 0x45, 0x00, 0x0d, 
  0x43, 0x50, 0x87, 0x0f, 0x43, 0x00, 0x31, 0x45, 0x50, 0x81, 0x63, 0x45, 0x00, 0x0d, 0x47, 0x50, 
  0x81, 0x63, 0x47, 0x00, 0x0d, 0x45, 0x50, 0x81, 0x63, 0x45, 0x00, 0x0d, 0x43, 0x50, 0x81, 0x63, 
  0x43, 0x00, 0x0d, 0x45, 0x50, 0x81, 0x63, 0x45, 0x00, 0x0d, 0x43, 0x50, 0x81, 0x63, 0x43, 0x00, 
  0x0d, 0x40, 0x50, 0x81, 0x63, 0x40, 0x00, 0x0d, 0x40, 0x50, 0x81, 0x63, 0x40, 0x00, 0x0d, 0x40, 
  0x50, 0x81, 0x63, 0x40, 0x00, 0x0d, 0x3e, 0x50, 0x81, 0x63, 0x3e, 0x00, 0x0d, 0x43, 0x50, 0x8a, 
  0x57, 0x43, 0x00, 0x9a, 0x69, 0x3e, 0x50, 0x81, 0x63, 0x3e, 0x00, 0x0d, 0x3e, 0x50, 0x81, 0x63, 
  0x3e, 0x00, 0x0d, 0x47, 0x50, 0x81, 0x63, 0x47, 0x00, 0x0d, 0x45, 0x50, 0x81, 0x63, 0x45, 0x00, 
  0x0d, 0x45, 0x50, 0x81, 0x63, 0x45, 0x00, 0x0d, 0x43, 0x50, 0x81, 0x63, 0x43, 0x00, 0x0d, 0x40, 
  0x50, 0x87, 0x0f, 0x40, 0x00, 0x01, 0xff, 0x2f, 0x00, 0x4d, 0x54, 0x72, 0x6b, 0x00, 0x00, 0x0f, 
  0x6d, 0x00, 0xff, 0x59, 0x02, 0x01, 0x00, 0x00, 0xff, 0x59, 0x02, 0x00, 0x00, 0x00, 0xff, 0x59, 
  0x02, 0x00, 0x00, 0x00, 0xff, 0x21, 0x01, 0x00, 0x87, 0x40, 0x90, 0x30, 0x50, 0x83, 0x47, 0x30, 
  0x00, 0x19, 0x37, 0x50, 0x83, 0x47, 0x37, 0x00, 0x19, 0x30, 0x50, 0x83, 0x47, 0x30, 0x00, 0x19, 
  0x37, 0x50, 0x83, 0x47, 0x37, 0x00, 0x19, 0x30, 0x50, 0x83, 0x47, 0x30, 0x00, 0x19, 0x37, 0x50, 
  0x83, 0x47, 0x37, 0x00, 0x19, 0x32, 0x50, 0x83, 0x47, 0x32, 0x00, 0x19, 0x39, 0x50, 0x83, 0x47, 
  0x39, 0x00, 0x19, 0x34, 0x50, 0x83, 0x47, 0x34, 0x00, 0x19, 0x3b, 0x50, 0x83, 0x47, 0x3b, 0x00, 
  0x19, 0x34, 0x50, 0x83, 0x47, 0x34, 0x00, 0x19, 0x3b, 0x50, 0x83, 0x47, 0x3b, 0x00, 0x19, 0x32, 
  0x50, 0x83, 0x47, 0x32, 0x00, 0x19, 0x39, 0x50, 0x83, 0x47, 0x39, 0x00, 0x19, 0x32, 0x50, 0x83, 
  0x47, 0x32, 0x00, 0x19, 0x39, 0x50, 0x83, 0x47, 0x39, 0x00, 0x19, 0x30, 0x50, 0x83, 0x47, 0x30, 
  0x00, 0x19, 0x37, 0x50, 0x83, 0x47, 0x37, 0x00, 0x19, 0x30, 0x50, 0x83, 0x47, 0x30, 0x00, 0x19, 
  0x37, 0x50, 0x83, 0x47, 0x37, 0x00, 0x19, 0x30, 0x50, 0x83, 0x47, 0x30, 0x00, 0x19, 0x37, 0x50, 
  0x83, 0x47, 0x37, 0x00, 0x19, 0x32, 0x50, 0x83, 0x47, 0x32, 0x00, 0x19, 0x39, 0x50, 0x83, 0x47, 
  0x39, 0x00, 0x19, 0x34, 0x50, 0x83, 0x47, 0x34, 0x00, 0x19, 0x3b, 0x50, 0x83, 0x47, 0x3b, 0x00, 
  0x19, 0x34, 0x50, 0x83, 0x47, 0x34, 0x00, 0x19, 0x3b, 0x50, 0x83, 0x47, 0x3b, 0x00, 0x19, 0x34, 
  0x50, 0x83, 0x47, 0x34, 0x00, 0x19, 0x3b, 0x50, 0x83, 0x47, 0x3b, 0x00, 0x19, 0x32, 0x50, 0x83, 
  0x47, 0x32, 0x00, 0x19, 0x39, 0x50, 0x83, 0x47, 0x39, 0x00, 0x19, 0x30, 0x50, 0x83, 0x47, 0x30, 
  0x00, 0x19, 0x37, 0x50, 0x83, 0x47, 0x37, 0x00, 0x19, 0x30, 0x50, 0x83, 0x47, 0x30, 0x00, 0x19, 
  0x37, 0x50, 0x83, 0x47, 0x37, 0x00, 0x19, 0x30, 0x50, 0x83, 0x47, 0x30, 0x00, 0x19, 0x37, 0x50, 
  0x83, 0x47, 0x37, 0x00, 0x19, 0x32, 0x50, 0x83, 0x47, 0x32, 0x00, 0x19, 0x39, 0x50, 0x83, 0x47, 
  0x39, 0x00, 0x19, 0x34, 0x50, 0x83, 0x47, 0x34, 0x00, 0x19, 0x3b, 0x50, 0x83, 0x47, 0x3b, 0x00, 
  0x19, 0x34, 0x50, 0x83, 0x47, 0x34, 0x00, 0x19, 0x3b, 0x50, 0x83, 0x47, 0x3b, 0x00, 0x19, 0x32, 
  0x50, 0x83, 0x47, 0x32, 0x00, 0x19, 0x39, 0x50, 0x83, 0x47, 0x39, 0x00, 0x19, 0x32, 0x50, 0x83, 
  0x47, 0x32, 0x00, 0x19, 0x39, 0x50, 0x83, 0x47, 0x39, 0x00, 0x19, 0x30, 0x50, 0x83, 0x47, 0x30, 
  0x00, 0x19, 0x37, 0x50, 0x83, 0x47, 0x37, 0x00, 0x19, 0x30, 0x50, 0x83, 0x47, 0x30, 0x00, 0x19, 
  0x37, 0x50, 0x83, 0x47, 0x37, 0x00, 0x19, 0x30, 0x50, 0x83, 0x47, 0x30, 0x00, 0x19, 0x37, 0x50, 
  0x83, 0x47, 0x37, 0x00, 0x19, 0x32, 0x50, 0x83, 0x47, 0x32, 0x00, 0x19, 0x39, 0x50, 0x83, 0x47, 
  0x39, 0x00, 0x19, 0x34, 0x50, 0x83, 0x47, 0x34, 0x00, 0x19, 0x3b, 0x50, 0x83, 0x47, 0x3b, 0x00, 
  0x19, 0x34, 0x50, 0x83, 0x47, 0x34, 0x00, 0x19, 0x3b, 0x50, 0x83, 0x47, 0x3b, 0x00, 0x19, 0x34, 
  0x50, 0x83, 0x47, 0x34, 0x00, 0x19, 0x3b, 0x50, 0x83, 0x47, 0x3b, 0x00, 0x19, 0x32, 0x50, 0x83, 
  0x47, 0x32, 0x00, 0x19, 0x39, 0x50, 0x83, 0x47, 0x39, 0x00, 0x19, 0x30, 0x50, 0x83, 0x47, 0x30, 
  0x00, 0x19, 0x37, 0x50, 0x83, 0x47, 0x37, 0x00, 0x19, 0x30, 0x50, 0x83, 0x47, 0x30, 0x00, 0x19, 
  0x37, 0x50, 0x83, 0x47, 0x37, 0x00, 0x19, 0x2b, 0x50, 0x83, 0x47, 0x2b, 0x00, 0x19, 0x32, 0x50, 
  0x83, 0x47, 0x32, 0x00, 0x19, 0x2b, 0x50, 0x83, 0x47, 0x2b, 0x00, 0x19, 0x37, 0x50, 0x83, 0x47, 
  0x37, 0x00, 0x19, 0x32, 0x50, 0x83, 0x47, 0x32, 0x00, 0x19, 0x39, 0x50, 0x83, 0x47, 0x39, 0x00, 
  0x19, 0x32, 0x50, 0x83, 0x47, 0x32, 0x00, 0x19, 0x39, 0x50, 0x83, 0x47, 0x39, 0x00, 0x19, 0x34, 
  0x50, 0x83, 0x47, 0x34, 0x00, 0x19, 0x3b, 0x50, 0x83, 0x47, 0x3b, 0x00, 0x19, 0x34, 0x50, 0x83, 
  0x47, 0x34, 0x00, 0x19, 0x3b, 0x50, 0x83, 0x47, 0x3b, 0x00, 0x19, 0x30, 0x50, 0x83, 0x47, 0x30, 
  0x00, 0x19, 0x37, 0x50, 0x83, 0x47, 0x37, 0x00, 0x19, 0x30, 0x50, 0x83, 0x47, 0x30, 0x00, 0x19, 
  0x37, 0x50, 0x83, 0x47, 0x37, 0x00, 0x19, 0x2b, 0x50, 0x83, 0x47, 0x2b, 0x00, 0x19, 0x32, 0x50, 
  0x83, 0x47, 0x32, 0x00, 0x19, 0x2b, 0x50, 0x83, 0x47, 0x2b, 0x00, 0x19, 0x37, 0x50, 0x83, 0x47, 
  0x37, 0x00, 0x19, 0x32, 0x50, 0x83, 0x47, 0x32, 0x00, 0x19, 0x39, 0x50, 0x83, 0x47, 0x39, 0x00, 
  0x19, 0x32, 0x50, 0x83, 0x47, 0x32, 0x00, 0x19, 0x39, 0x50, 0x83, 0x47, 0x39, 0x00, 0x19, 0x32, 
  0x50, 0x83, 0x47, 0x32, 0x00, 0x19, 0x39, 0x50, 0x83, 0x47, 0x39, 0x00, 0x19, 0x32, 0x50, 0x83, 
  0x47, 0x32, 0x00, 0x19, 0x39, 0x50, 0x83, 0x47, 0x39, 0x00, 0x19, 0x30, 0x50, 0x83, 0x47, 0x30, 
  0x00, 0x19, 0x37, 0x50, 0x83, 0x47, 0x37, 0x00, 0x19, 0x30, 0x50, 0x83, 0x47, 0x30, 0x00, 0x19, 
  0x37, 0x50, 0x83, 0x47, 0x37, 0x00, 0x19, 0x2b, 0x50, 0x83, 0x47, 0x2b, 0x00, 0x19, 0x32, 0x50, 
  0x83, 0x47, 0x32, 0x00, 0x19, 0x2b, 0x50, 0x83, 0x47, 0x2b, 0x00, 0x19, 0x37, 0x50, 0x83, 0x47, 
  0x37, 0x00, 0x19, 0x32, 0x50, 0x83, 0x47, 0x32, 0x00, 0x19, 0x39, 0x50, 0x83, 0x47, 0x39, 0x00, 
  0x19, 0x32, 0x50, 0x83, 0x47, 0x32, 0x00, 0x19, 0x39, 0x50, 0x83, 0x47, 0x39, 0x00, 0x19, 0x34, 
  0x50, 0x83, 0x47, 0x34, 0x00, 0x19, 0x3b, 0x50, 0x83, 0x47, 0x3b, 0x00, 0x19, 0x34, 0x50, 0x83, 
  0x47, 0x34, 0x00, 0x19, 0x3b, 0x50, 0x83, 0x47, 0x3b, 0x00, 0x19, 0x30, 0x50, 0x83, 0x47, 0x30, 
  0x00, 0x19, 0x37, 0x50, 0x83, 0x47, 0x37, 0x00, 0x19, 0x30, 0x50, 0x83, 0x47, 0x30, 0x00, 0x19, 
  0x37, 0x50, 0x83, 0x47, 0x37, 0x00, 0x19, 0x2b, 0x50, 0x83, 0x47, 0x2b, 0x00, 0x19, 0x32, 0x50, 
  0x83, 0x47, 0x32, 0x00, 0x19, 0x2b, 0x50, 0x83, 0x47, 0x2b, 0x00, 0x19, 0x37, 0x50, 0x83, 0x47, 
  0x37, 0x00, 0x19, 0x32, 0x50, 0x83, 0x47, 0x32, 0x00, 0x19, 0x39, 0x50, 0x83, 0x47, 0x39, 0x00, 
  0x19, 0x32, 0x50, 0x83, 0x47, 0x32, 0x00, 0x19, 0x39, 0x50, 0x83, 0x47, 0x39, 0x00, 0x19, 0x32, 
  0x50, 0x8e, 0x1f, 0x32, 0x00, 0x61, 0x34, 0x50, 0x83, 0x47, 0x34, 0x00, 0x19, 0x37, 0x50, 0x83, 
  0x47, 0x37, 0x00, 0x19, 0x3b, 0x50, 0x83, 0x47, 0x3b, 0x00, 0x19, 0x32, 0x50, 0x83, 0x47, 0x32, 
  0x00, 0x19, 0x30, 0x50, 0x83, 0x47, 0x30, 0x00, 0x19, 0x34, 0x50, 0x83, 0x47, 0x34, 0x00, 0x19, 
  0x37, 0x50, 0x83, 0x47, 0x37, 0x00, 0x19, 0x34, 0x50, 0x83, 0x47, 0x34, 0x00, 0x19, 0x32, 0x50, 
  0x83, 0x47, 0x32, 0x00, 0x19, 0x36, 0x50, 0x83, 0x47, 0x36, 0x00, 0x19, 0x39, 0x50, 0x83, 0x47, 
  0x39, 0x00, 0x19, 0x30, 0x50, 0x83, 0x47, 0x30, 0x00, 0x19, 0x2f, 0x50, 0x83, 0x47, 0x2f, 0x00, 
  0x19, 0x32, 0x50, 0x83, 0x47, 0x32, 0x00, 0x19, 0x36, 0x50, 0x83, 0x47, 0x36, 0x00, 0x19, 0x32, 
  0x50, 0x83, 0x47, 0x32, 0x00, 0x19, 0x34, 0x50, 0x83, 0x47, 0x34, 0x00, 0x19, 0x37, 0x50, 0x83, 
  0x47, 0x37, 0x00, 0x19, 0x3b, 0x50, 0x83, 0x47, 0x3b, 0x00, 0x19, 0x32, 0x50, 0x83, 0x47, 0x32, 
  0x00, 0x19, 0x30, 0x50, 0x83, 0x47, 0x30, 0x00, 0x19, 0x34, 0x50, 0x83, 0x47, 0x34, 0x00, 0x19, 
  0x37, 0x50, 0x83, 0x47, 0x37, 0x00, 0x19, 0x34, 0x50, 0x83, 0x47, 0x34, 0x00, 0x19, 0x32, 0x50, 
  0x83, 0x47, 0x32, 0x00, 0x19, 0x36, 0x50, 0x83, 0x47, 0x36, 0x00, 0x19, 0x39, 0x50, 0x83, 0x47, 
  0x39, 0x00, 0x19, 0x36, 0x50, 0x83, 0x47, 0x36, 0x00, 0x19, 0x32, 0x50, 0x83, 0x47, 0x32, 0x00, 
  0x19, 0x36, 0x50, 0x83, 0x47, 0x36, 0x00, 0x19, 0x39, 0x50, 0x83, 0x47, 0x39, 0x00, 0x19, 0x36, 
  0x50, 0x83, 0x47, 0x36, 0x00, 0x19, 0x34, 0x50, 0x83, 0x47, 0x34, 0x00, 0x19, 0x37, 0x50, 0x83, 
  0x47, 0x37, 0x00, 0x19, 0x3b, 0x50, 0x83, 0x47, 0x3b, 0x00, 0x19, 0x32, 0x50, 0x83, 0x47, 0x32, 
  0x00, 0x19, 0x30, 0x50, 0x83, 0x47, 0x30, 0x00, 0x19, 0x34, 0x50, 0x83, 0x47, 0x34, 0x00, 0x19, 
  0x37, 0x50, 0x83, 0x47, 0x37, 0x00, 0x19, 0x34, 0x50, 0x83, 0x47, 0x34, 0x00, 0x19, 0x32, 0x50, 
  0x83, 0x47, 0x32, 0x00, 0x19, 0x36, 0x50, 0x83, 0x47, 0x36, 0x00, 0x19, 0x39, 0x50, 0x83, 0x47, 
  0x39, 0x00, 0x19, 0x30, 0x50, 0x83, 0x47, 0x30, 0x00, 0x19, 0x2f, 0x50, 0x83, 0x47, 0x2f, 0x00, 
  0x19, 0x32, 0x50, 0x83, 0x47, 0x32, 0x00, 0x19, 0x36, 0x50, 0x83, 0x47, 0x36, 0x00, 0x19, 0x32, 
  0x50, 0x83, 0x47, 0x32, 0x00, 0x19, 0x34, 0x50, 0x83, 0x47, 0x34, 0x00, 0x19, 0x37, 0x50, 0x83, 
  0x47, 0x37, 0x00, 0x19, 0x3b, 0x50, 0x83, 0x47, 0x3b, 0x00, 0x19, 0x32, 0x50, 0x83, 0x47, 0x32, 
  0x00, 0x19, 0x30, 0x50, 0x83, 0x47, 0x30, 0x00, 0x19, 0x34, 0x50, 0x83, 0x47, 0x34, 0x00, 0x19, 
  0x37, 0x50, 0x83, 0x47, 0x37, 0x00, 0x19, 0x34, 0x50, 0x83, 0x47, 0x34, 0x00, 0x19, 0x32, 0x50, 
  0x83, 0x47, 0x32, 0x00, 0x19, 0x36, 0x50, 0x83, 0x47, 0x36, 0x00, 0x19, 0x39, 0x50, 0x83, 0x47, 
  0x39, 0x00, 0x19, 0x36, 0x50, 0x83, 0x47, 0x36, 0x00, 0x19, 0x32, 0x50, 0x83, 0x47, 0x32, 0x00, 
  0x19, 0x36, 0x50, 0x83, 0x47, 0x36, 0x00, 0x19, 0x39, 0x50, 0x83, 0x47, 0x39, 0x00, 0x19, 0x36, 
  0x50, 0x83, 0x47, 0x36, 0x00, 0x19, 0x34, 0x50, 0x83, 0x47, 0x34, 0x00, 0x19, 0x37, 0x50, 0x83, 
  0x47, 0x37, 0x00, 0x19, 0x3b, 0x50, 0x83, 0x47, 0x3b, 0x00, 0x19, 0x32, 0x50, 0x83, 0x47, 0x32, 
  0x00, 0x19, 0x30, 0x50, 0x83, 0x47, 0x30, 0x00, 0x19, 0x34, 0x50, 0x83, 0x47, 0x34, 0x00, 0x19, 
  0x37, 0x50, 0x83, 0x47, 0x37, 0x00, 0x19, 0x34, 0x50, 0x83, 0x47, 0x34, 0x00, 0x19, 0x32, 0x50, 
  0x83, 0x47, 0x32, 0x00, 0x19, 0x36, 0x50, 0x83, 0x47, 0x36, 0x00, 0x19, 0x39, 0x50, 0x83, 0x47, 
  0x39, 0x00, 0x19, 0x30, 0x50, 0x83, 0x47, 0x30, 0x00, 0x19, 0x2f, 0x50, 0x83, 0x47, 0x2f, 0x00, 
  0x19, 0x32, 0x50, 0x83, 0x47, 0x32, 0x00, 0x19, 0x36, 0x50, 0x83, 0x47, 0x36, 0x00, 0x19, 0x32, 
  0x50, 0x83, 0x47, 0x32, 0x00, 0x19, 0x34, 0x50, 0x83, 0x47, 0x34, 0x00, 0x19, 0x37, 0x50, 0x83, 
  0x47, 0x37, 0x00, 0x19, 0x3b, 0x50, 0x83, 0x47, 0x3b, 0x00, 0x19, 0x32, 0x50, 0x83, 0x47, 0x32, 
  0x00, 0x19, 0x30, 0x50, 0x83, 0x47, 0x30, 0x00, 0x19, 0x34, 0x50, 0x83, 0x47, 0x34, 0x00, 0x19, 
  0x37, 0x50, 0x83, 0x47, 0x37, 0x00, 0x19, 0x34, 0x50, 0x83, 0x47, 0x34, 0x00, 0x19, 0x32, 0x50, 
  0x83, 0x47, 0x32, 0x00, 0x19, 0x36, 0x50, 0x83, 0x47, 0x36, 0x00, 0x19, 0x39, 0x50, 0x83, 0x47, 
  0x39, 0x00, 0x19, 0x36, 0x50, 0x83, 0x47, 0x36, 0x00, 0x19, 0x32, 0x50, 0x83, 0x47, 0x32, 0x00, 
  0x19, 0x36, 0x50, 0x83, 0x47, 0x36, 0x00, 0x19, 0x39, 0x50, 0x83, 0x47, 0x39, 0x00, 0x19, 0x36, 
  0x50, 0x83, 0x47, 0x36, 0x00, 0x19, 0x30, 0x50, 0x83, 0x47, 0x30, 0x00, 0x19, 0x37, 0x50, 0x83, 
  0x47, 0x37, 0x00, 0x19, 0x30, 0x50, 0x83, 0x47, 0x30, 0x00, 0x19, 0x37, 0x50, 0x83, 0x47, 0x37, 
  0x00, 0x19, 0x2b, 0x50, 0x83, 0x47, 0x2b, 0x00, 0x19, 0x32, 0x50, 0x83, 0x47, 0x32, 0x00, 0x19, 
  0x2b, 0x50, 0x83, 0x47, 0x2b, 0x00, 0x19, 0x37, 0x50, 0x83, 0x47, 0x37, 0x00, 0x19, 0x32, 0x50, 
  0x83, 0x47, 0x32, 0x00, 0x19, 0x39, 0x50, 0x83, 0x47, 0x39, 0x00, 0x19, 0x32, 0x50, 0x83, 0x47, 
  0x32, 0x00, 0x19, 0x39, 0x50, 0x83, 0x47, 0x39, 0x00, 0x19, 0x34, 0x50, 0x83, 0x47, 0x34, 0x00, 
  0x19, 0x3b, 0x50, 0x83, 0x47, 0x3b, 0x00, 0x19, 0x34, 0x50, 0x83, 0x47, 0x34, 0x00, 0x19, 0x3b, 
  0x50, 0x83, 0x47, 0x3b, 0x00, 0x19, 0x30, 0x50, 0x83, 0x47, 0x30, 0x00, 0x19, 0x37, 0x50, 0x83, 
  0x47, 0x37, 0x00, 0x19, 0x30, 0x50, 0x83, 0x47, 0x30, 0x00, 0x19, 0x37, 0x50, 0x83, 0x47, 0x37, 
  0x00, 0x19, 0x2b, 0x50, 0x83, 0x47, 0x2b, 0x00, 0x19, 0x32, 0x50, 0x83, 0x47, 0x32, 0x00, 0x19, 
  0x37, 0x50, 0x83, 0x47, 0x37, 0x00, 0x19, 0x36, 0x50, 0x83, 0x47, 0x36, 0x00, 0x19, 0x32, 0x50, 
  0x83, 0x47, 0x32, 0x00, 0x19, 0x36, 0x50, 0x83, 0x47, 0x36, 0x00, 0x19, 0x39, 0x50, 0x83, 0x47, 
  0x39, 0x00, 0x19, 0x36, 0x50, 0x83, 0x47, 0x36, 0x00, 0x19, 0x32, 0x50, 0x83, 0x47, 0x32, 0x00, 
  0x19, 0x36, 0x50, 0x83, 0x47, 0x36, 0x00, 0x19, 0x39, 0x50, 0x83, 0x47, 0x39, 0x00, 0x19, 0x36, 
  0x50, 0x83, 0x47, 0x36, 0x00, 0x19, 0x30, 0x50, 0x83, 0x47, 0x30, 0x00, 0x19, 0x37, 0x50, 0x83, 
  0x47, 0x37, 0x00, 0x19, 0x3c, 0x50, 0x83, 0x47, 0x3c, 0x00, 0x19, 0x37, 0x50, 0x83, 0x47, 0x37, 
  0x00, 0x19, 0x2b, 0x50, 0x83, 0x47, 0x2b, 0x00, 0x19, 0x32, 0x50, 0x83, 0x47, 0x32, 0x00, 0x19, 
  0x37, 0x50, 0x83, 0x47, 0x37, 0x00, 0x19, 0x36, 0x50, 0x83, 0x47, 0x36, 0x00, 0x19, 0x32, 0x50, 
  0x83, 0x47, 0x32, 0x00, 0x19, 0x36, 0x50, 0x83, 0x47, 0x36, 0x00, 0x19, 0x39, 0x50, 0x83, 0x47, 
  0x39, 0x00, 0x19, 0x36, 0x50, 0x83, 0x47, 0x36, 0x00, 0x19, 0x34, 0x50, 0x83, 0x47, 0x34, 0x00, 
  0x19, 0x37, 0x50, 0x83, 0x47, 0x37, 0x00, 0x19, 0x3b, 0x50, 0x83, 0x47, 0x3b, 0x00, 0x19, 0x37, 
  0x50, 0x83, 0x47, 0x37, 0x00, 0x19, 0x30, 0x50, 0x83, 0x47, 0x30, 0x00, 0x19, 0x37, 0x50, 0x83, 
  0x47, 0x37, 0x00, 0x19, 0x3c, 0x50, 0x83, 0x47, 0x3c, 0x00, 0x19, 0x37, 0x50, 0x83, 0x47, 0x37, 
  0x00, 0x19, 0x2b, 0x50, 0x83, 0x47, 0x2b, 0x00, 0x19, 0x32, 0x50, 0x83, 0x47, 0x32, 0x00, 0x19, 
  0x37, 0x50, 0x83, 0x47, 0x37, 0x00, 0x19, 0x36, 0x50, 0x83, 0x47, 0x36, 0x00, 0x19, 0x32, 0x50, 
  0x83, 0x47, 0x32, 0x00, 0x19, 0x36, 0x50, 0x83, 0x47, 0x36, 0x00, 0x19, 0x39, 0x50, 0x83, 0x47, 
  0x39, 0x00, 0x19, 0x36, 0x50, 0x83, 0x47, 0x36, 0x00, 0x19, 0x32, 0x50, 0x83, 0x47, 0x32, 0x00, 
  0x19, 0x36, 0x50, 0x83, 0x47, 0x36, 0x00, 0x19, 0x39, 0x50, 0x83, 0x47, 0x39, 0x00, 0x19, 0x36, 
  0x50, 0x83, 0x47, 0x36, 0x00, 0x19, 0x34, 0x50, 0x83, 0x47, 0x34, 0x00, 0x19, 0x37, 0x50, 0x83, 
  0x47, 0x37, 0x00, 0x19, 0x3b, 0x50, 0x83, 0x47, 0x3b, 0x00, 0x19, 0x32, 0x50, 0x83, 0x47, 0x32, 
  0x00, 0x19, 0x30, 0x50, 0x83, 0x47, 0x30, 0x00, 0x19, 0x34, 0x50, 0x83, 0x47, 0x34, 0x00, 0x19, 
  0x37, 0x50, 0x83, 0x47, 0x37, 0x00, 0x19, 0x34, 0x50, 0x83, 0x47, 0x34, 0x00, 0x19, 0x32, 0x50, 
  0x83, 0x47, 0x32, 0x00, 0x19, 0x36, 0x50, 0x83, 0x47, 0x36, 0x00, 0x19, 0x39, 0x50, 0x83, 0x47, 
  0x39, 0x00, 0x19, 0x30, 0x50, 0x83, 0x47, 0x30, 0x00, 0x19, 0x2f, 0x50, 0x83, 0x47, 0x2f, 0x00, 
  0x19, 0x32, 0x50, 0x83, 0x47, 0x32, 0x00, 0x19, 0x36, 0x50, 0x83, 0x47, 0x36, 0x00, 0x19, 0x32, 
  0x50, 0x83, 0x47, 0x32, 0x00, 0x19, 0x34, 0x50, 0x83, 0x47, 0x34, 0x00, 0x19, 0x37, 0x50, 0x83, 
  0x47, 0x37, 0x00, 0x19, 0x3b, 0x50, 0x83, 0x47, 0x3b, 0x00, 0x19, 0x32, 0x50, 0x83, 0x47, 0x32, 
  0x00, 0x19, 0x30, 0x50, 0x83, 0x47, 0x30, 0x00, 0x19, 0x34, 0x50, 0x83, 0x47, 0x34, 0x00, 0x19, 
  0x37, 0x50, 0x83, 0x47, 0x37, 0x00, 0x19, 0x34, 0x50, 0x83, 0x47, 0x34, 0x00, 0x19, 0x32, 0x50, 
  0x83, 0x47, 0x32, 0x00, 0x19, 0x36, 0x50, 0x83, 0x47, 0x36, 0x00, 0x19, 0x39, 0x50, 0x83, 0x47, 
  0x39, 0x00, 0x19, 0x36, 0x50, 0x83, 0x47, 0x36, 0x00, 0x19, 0x32, 0x50, 0x83, 0x47, 0x32, 0x00, 
  0x19, 0x36, 0x50, 0x83, 0x47, 0x36, 0x00, 0x19, 0x39, 0x50, 0x83, 0x47, 0x39, 0x00, 0x19, 0x36, 
  0x50, 0x83, 0x47, 0x36, 0x00, 0x19, 0x34, 0x50, 0x83, 0x47, 0x34, 0x00, 0x19, 0x37, 0x50, 0x83, 
  0x47, 0x37, 0x00, 0x19, 0x3b, 0x50, 0x83, 0x47, 0x3b, 0x00, 0x19, 0x32, 0x50, 0x83, 0x47, 0x32, 
  0x00, 0x19, 0x30, 0x50, 0x83, 0x47, 0x30, 0x00, 0x19, 0x34, 0x50, 0x83, 0x47, 0x34, 0x00, 0x19, 
  0x37, 0x50, 0x83, 0x47, 0x37, 0x00, 0x19, 0x34, 0x50, 0x83, 0x47, 0x34, 0x00, 0x19, 0x32, 0x50, 
  0x83, 0x47, 0x32, 0x00, 0x19, 0x36, 0x50, 0x83, 0x47, 0x36, 0x00, 0x19, 0x39, 0x50, 0x83, 0x47, 
  0x39, 0x00, 0x19, 0x30, 0x50, 0x83, 0x47, 0x30, 0x00, 0x19, 0x2f, 0x50, 0x83, 0x47, 0x2f, 0x00, 
  0x19, 0x32, 0x50, 0x83, 0x47, 0x32, 0x00, 0x19, 0x36, 0x50, 0x83, 0x47, 0x36, 0x00, 0x19, 0x32, 
  0x50, 0x83, 0x47, 0x32, 0x00, 0x19, 0x34, 0x50, 0x83, 0x47, 0x34, 0x00, 0x19, 0x37, 0x50, 0x83, 
  0x47, 0x37, 0x00, 0x19, 0x3b, 0x50, 0x83, 0x47, 0x3b, 0x00, 0x19, 0x32, 0x50, 0x83, 0x47, 0x32, 
  0x00, 0x19, 0x30, 0x50, 0x83, 0x47, 0x30, 0x00, 0x19, 0x34, 0x50, 0x83, 0x47, 0x34, 0x00, 0x19, 
  0x37, 0x50, 0x83, 0x47, 0x37, 0x00, 0x19, 0x34, 0x50, 0x83, 0x47, 0x34, 0x00, 0x19, 0x32, 0x50, 
  0x83, 0x47, 0x32, 0x00, 0x19, 0x36, 0x50, 0x83, 0x47, 0x36, 0x00, 0x19, 0x39, 0x50, 0x83, 0x47, 
  0x39, 0x00, 0x19, 0x36, 0x50, 0x83, 0x47, 0x36, 0x00, 0x19, 0x32, 0x50, 0x83, 0x47, 0x32, 0x00, 
  0x19, 0x36, 0x50, 0x83, 0x47, 0x36, 0x00, 0x19, 0x39, 0x50, 0x83, 0x47, 0x39, 0x00, 0x19, 0x36, 
  0x50, 0x83, 0x47, 0x36, 0x00, 0x19, 0x30, 0x50, 0x83, 0x47, 0x30, 0x00, 0x19, 0x37, 0x50, 0x83, 
  0x47, 0x37, 0x00, 0x19, 0x30, 0x50, 0x83, 0x47, 0x30, 0x00, 0x19, 0x37, 0x50, 0x83, 0x47, 0x37, 
  0x00, 0x19, 0x2b, 0x50, 0x83, 0x47, 0x2b, 0x00, 0x19, 0x32, 0x50, 0x83, 0x47, 0x32, 0x00, 0x19, 
  0x2b, 0x50, 0x83, 0x47, 0x2b, 0x00, 0x19, 0x37, 0x50, 0x83, 0x47, 0x37, 0x00, 0x19, 0x32, 0x50, 
  0x83, 0x47, 0x32, 0x00, 0x19, 0x39, 0x50, 0x83, 0x47, 0x39, 0x00, 0x19, 0x32, 0x50, 0x83, 0x47, 
  0x32, 0x00, 0x19, 0x39, 0x50, 0x83, 0x47, 0x39, 0x00, 0x19, 0x34, 0x50, 0x83, 0x47, 0x34, 0x00, 
  0x19, 0x3b, 0x50, 0x83, 0x47, 0x3b, 0x00, 0x19, 0x34, 0x50, 0x83, 0x47, 0x34, 0x00, 0x19, 0x3b, 
  0x50, 0x83, 0x47, 0x3b, 0x00, 0x19, 0x30, 0x50, 0x83, 0x47, 0x30, 0x00, 0x19, 0x37, 0x50, 0x83, 
  0x47, 0x37, 0x00, 0x19, 0x30, 0x50, 0x83, 0x47, 0x30, 0x00, 0x19, 0x37, 0x50, 0x83, 0x47, 0x37, 
  0x00, 0x19, 0x2b, 0x50, 0x83, 0x47, 0x2b, 0x00, 0x19, 0x32, 0x50, 0x83, 0x47, 0x32, 0x00, 0x19, 
  0x37, 0x50, 0x83, 0x47, 0x37, 0x00, 0x19, 0x36, 0x50, 0x83, 0x47, 0x36, 0x00, 0x19, 0x32, 0x50, 
  0x83, 0x47, 0x32, 0x00, 0x19, 0x36, 0x50, 0x83, 0x47, 0x36, 0x00, 0x19, 0x39, 0x50, 0x83, 0x47, 
  0x39, 0x00, 0x19, 0x36, 0x50, 0x83, 0x47, 0x36, 0x00, 0x19, 0x32, 0x50, 0x83, 0x47, 0x32, 0x00, 
  0x19, 0x36, 0x50, 0x83, 0x47, 0x36, 0x00, 0x19, 0x39, 0x50, 0x83, 0x47, 0x39, 0x00, 0x19, 0x36, 
  0x50, 0x83, 0x47, 0x36, 0x00, 0x19, 0x30, 0x50, 0x83, 0x47, 0x30, 0x00, 0x19, 0x37, 0x50, 0x83, 
  0x47, 0x37, 0x00, 0x19, 0x3c, 0x50, 0x83, 0x47, 0x3c, 0x00, 0x19, 0x37, 0x50, 0x83, 0x47, 0x37, 
  0x00, 0x19, 0x2b, 0x50, 0x83, 0x47, 0x2b, 0x00, 0x19, 0x32, 0x50, 0x83, 0x47, 0x32, 0x00, 0x19, 
  0x37, 0x50, 0x83, 0x47, 0x37, 0x00, 0x19, 0x36, 0x50, 0x83, 0x47, 0x36, 0x00, 0x19, 0x32, 0x50, 
  0x83, 0x47, 0x32, 0x00, 0x19, 0x36, 0x50, 0x83, 0x47, 0x36, 0x00, 0x19, 0x39, 0x50, 0x83, 0x47, 
  0x39, 0x00, 0x19, 0x36, 0x50, 0x83, 0x47, 0x36, 0x00, 0x19, 0x34, 0x50, 0x83, 0x47, 0x34, 0x00, 
  0x19, 0x37, 0x50, 0x83, 0x47, 0x37, 0x00, 0x19, 0x3b, 0x50, 0x83, 0x47, 0x3b, 0x00, 0x19, 0x37, 
  0x50, 0x83, 0x47, 0x37, 0x00, 0x19, 0x30, 0x50, 0x83, 0x47, 0x30, 0x00, 0x19, 0x37, 0x50, 0x83, 
  0x47, 0x37, 0x00, 0x19, 0x3c, 0x50, 0x83, 0x47, 0x3c, 0x00, 0x19, 0x37, 0x50, 0x83, 0x47, 0x37, 
  0x00, 0x19, 0x2b, 0x50, 0x83, 0x47, 0x2b, 0x00, 0x19, 0x32, 0x50, 0x83, 0x47, 0x32, 0x00, 0x19, 
  0x37, 0x50, 0x83, 0x47, 0x37, 0x00, 0x19, 0x36, 0x50, 0x83, 0x47, 0x36, 0x00, 0x19, 0x32, 0x50, 
  0x83, 0x47, 0x32, 0x00, 0x19, 0x36, 0x50, 0x83, 0x47, 0x36, 0x00, 0x19, 0x39, 0x50, 0x83, 0x47, 
  0x39, 0x00, 0x19, 0x36, 0x50, 0x83, 0x47, 0x36, 0x00, 0x19, 0x32, 0x50, 0x83, 0x47, 0x32, 0x00, 
  0x19, 0x36, 0x50, 0x83, 0x47, 0x36, 0x00, 0x19, 0x39, 0x50, 0x83, 0x47, 0x39, 0x00, 0x19, 0x36, 
  0x50, 0x83, 0x47, 0x36, 0x00, 0x19, 0x34, 0x50, 0x83, 0x47, 0x34, 0x00, 0x19, 0x37, 0x50, 0x83, 
  0x47, 0x37, 0x00, 0x19, 0x3b, 0x50, 0x83, 0x47, 0x3b, 0x00, 0x19, 0x37, 0x50, 0x83, 0x47, 0x37, 
  0x00, 0x19, 0x30, 0x50, 0x83, 0x47, 0x30, 0x00, 0x19, 0x34, 0x50, 0x83, 0x47, 0x34, 0x00, 0x19, 
  0x37, 0x50, 0x83, 0x47, 0x37, 0x00, 0x19, 0x34, 0x50, 0x83, 0x47, 0x34, 0x00, 0x19, 0x32, 0x50, 
  0x83, 0x47, 0x32, 0x00, 0x19, 0x36, 0x50, 0x83, 0x47, 0x36, 0x00, 0x19, 0x39, 0x50, 0x83, 0x47, 
  0x39, 0x00, 0x19, 0x36, 0x50, 0x83, 0x47, 0x36, 0x00, 0x19, 0x32, 0x50, 0x83, 0x47, 0x32, 0x00, 
  0x19, 0x36, 0x50, 0x83, 0x47, 0x36, 0x00, 0x19, 0x39, 0x50, 0x83, 0x47, 0x39, 0x00, 0x19, 0x36, 
  0x50, 0x83, 0x47, 0x36, 0x00, 0x19, 0x34, 0x50, 0x83, 0x47, 0x34, 0x00, 0x19, 0x37, 0x50, 0x83, 
  0x47, 0x37, 0x00, 0x19, 0x3b, 0x50, 0x83, 0x47, 0x3b, 0x00, 0x19, 0x37, 0x50, 0x83, 0x47, 0x37, 
  0x00, 0x19, 0x30, 0x50, 0x83, 0x47, 0x30, 0x00, 0x19, 0x34, 0x50, 0x83, 0x47, 0x34, 0x00, 0x19, 
  0x37, 0x50, 0x83, 0x47, 0x37, 0x00, 0x19, 0x34, 0x50, 0x83, 0x47, 0x34, 0x00, 0x19, 0x32, 0x50, 
  0x83, 0x47, 0x32, 0x00, 0x19, 0x36, 0x50, 0x83, 0x47, 0x36, 0x00, 0x19, 0x39, 0x50, 0x83, 0x47, 
  0x39, 0x00, 0x19, 0x36, 0x50, 0x83, 0x47, 0x36, 0x00, 0x19, 0x32, 0x50, 0x83, 0x47, 0x32, 0x00, 
  0x19, 0x36, 0x50, 0x83, 0x47, 0x36, 0x00, 0x19, 0x39, 0x50, 0x83, 0x47, 0x39, 0x00, 0x19, 0x36, 
  0x50, 0x83, 0x47, 0x36, 0x00, 0x19, 0x34, 0x50, 0x83, 0x47, 0x34, 0x00, 0x19, 0x37, 0x50, 0x83, 
  0x47, 0x37, 0x00, 0x19, 0x3b, 0x50, 0x83, 0x47, 0x3b, 0x00, 0x19, 0x32, 0x50, 0x83, 0x47, 0x32, 
  0x00, 0x19, 0x30, 0x50, 0x83, 0x47, 0x30, 0x00, 0x19, 0x34, 0x50, 0x83, 0x47, 0x34, 0x00, 0x19, 
  0x37, 0x50, 0x83, 0x47, 0x37, 0x00, 0x19, 0x34, 0x50, 0x83, 0x47, 0x34, 0x00, 0x19, 0x32, 0x50, 
  0x83, 0x47, 0x32, 0x00, 0x19, 0x36, 0x50, 0x83, 0x47, 0x36, 0x00, 0x19, 0x39, 0x50, 0x83, 0x47, 
  0x39, 0x00, 0x19, 0x30, 0x50, 0x83, 0x47, 0x30, 0x00, 0x19, 0x2f, 0x50, 0x83, 0x47, 0x2f, 0x00, 
  0x19, 0x32, 0x50, 0x83, 0x47, 0x32, 0x00, 0x19, 0x36, 0x50, 0x83, 0x47, 0x36, 0x00, 0x19, 0x32, 
  0x50, 0x83, 0x47, 0x32, 0x00, 0x19, 0x34, 0x50, 0x83, 0x47, 0x34, 0x00, 0x19, 0x37, 0x50, 0x83, 
  0x47, 0x37, 0x00, 0x19, 0x3b, 0x50, 0x83, 0x47, 0x3b, 0x00, 0x19, 0x32, 0x50, 0x83, 0x47, 0x32, 
  0x00, 0x19, 0x30, 0x50, 0x83, 0x47, 0x30, 0x00, 0x19, 0x34, 0x50, 0x83, 0x47, 0x34, 0x00, 0x19, 
  0x37, 0x50, 0x83, 0x47, 0x37, 0x00, 0x19, 0x34, 0x50, 0x83, 0x47, 0x34, 0x00, 0x19, 0x32, 0x50, 
  0x83, 0x47, 0x32, 0x00, 0x19, 0x36, 0x50, 0x83, 0x47, 0x36, 0x00, 0x19, 0x39, 0x50, 0x83, 0x47, 
  0x39, 0x00, 0x19, 0x36, 0x50, 0x83, 0x47, 0x36, 0x00, 0x19, 0x32, 0x50, 0x83, 0x47, 0x32, 0x00, 
  0x19, 0x36, 0x50, 0x83, 0x47, 0x36, 0x00, 0x19, 0x39, 0x50, 0x83, 0x47, 0x39, 0x00, 0x19, 0x36, 
  0x50, 0x83, 0x47, 0x36, 0x00, 0x19, 0x30, 0x50, 0x83, 0x47, 0x30, 0x00, 0x19, 0x37, 0x50, 0x83, 
  0x47, 0x37, 0x00, 0x19, 0x3c, 0x50, 0x83, 0x47, 0x3c, 0x00, 0x19, 0x37, 0x50, 0x83, 0x47, 0x37, 
  0x00, 0x19, 0x2b, 0x50, 0x83, 0x47, 0x2b, 0x00, 0x19, 0x32, 0x50, 0x83, 0x47, 0x32, 0x00, 0x19, 
  0x37, 0x50, 0x83, 0x47, 0x37, 0x00, 0x19, 0x36, 0x50, 0x83, 0x47, 0x36, 0x00, 0x19, 0x32, 0x50, 
  0x83, 0x47, 0x32, 0x00, 0x19, 0x36, 0x50, 0x83, 0x47, 0x36, 0x00, 0x19, 0x39, 0x50, 0x83, 0x47, 
  0x39, 0x00, 0x19, 0x36, 0x50, 0x83, 0x47, 0x36, 0x00, 0x19, 0x34, 0x50, 0x83, 0x47, 0x34, 0x00, 
  0x19, 0x37, 0x50, 0x83, 0x47, 0x37, 0x00, 0x19, 0x3b, 0x50, 0x83, 0x47, 0x3b, 0x00, 0x19, 0x37, 
  0x50, 0x83, 0x47, 0x37, 0x00, 0x19, 0x30, 0x50, 0x83, 0x47, 0x30, 0x00, 0x19, 0x37, 0x50, 0x83, 
  0x47, 0x37, 0x00, 0x19, 0x3c, 0x50, 0x83, 0x47, 0x3c, 0x00, 0x19, 0x37, 0x50, 0x83, 0x47, 0x37, 
  0x00, 0x19, 0x2b, 0x50, 0x83, 0x47, 0x2b, 0x00, 0x19, 0x32, 0x50, 0x83, 0x47, 0x32, 0x00, 0x19, 
  0x37, 0x50, 0x83, 0x47, 0x37, 0x00, 0x19, 0x36, 0x50, 0x83, 0x47, 0x36, 0x00, 0x19, 0x32, 0x50, 
  0x83, 0x47, 0x32, 0x00, 0x19, 0x36, 0x50, 0x83, 0x47, 0x36, 0x00, 0x19, 0x39, 0x50, 0x83, 0x47, 
  0x39, 0x00, 0x19, 0x36, 0x50, 0x83, 0x47, 0x36, 0x00, 0x19, 0x32, 0x50, 0x83, 0x47, 0x32, 0x00, 
  0x19, 0x36, 0x50, 0x83, 0x47, 0x36, 0x00, 0x19, 0x39, 0x50, 0x83, 0x47, 0x39, 0x00, 0x19, 0x36, 
  0x50, 0x83, 0x47, 0x36, 0x00, 0x19, 0x30, 0x50, 0x83, 0x47, 0x30, 0x00, 0x19, 0x37, 0x50, 0x83, 
  0x47, 0x37, 0x00, 0x19, 0x3c, 0x50, 0x83, 0x47, 0x3c, 0x00, 0x19, 0x37, 0x50, 0x83, 0x47, 0x37, 
  0x00, 0x19, 0x2b, 0x50, 0x83, 0x47, 0x2b, 0x00, 0x19, 0x32, 0x50, 0x83, 0x47, 0x32, 0x00, 0x19, 
  0x37, 0x50, 0x83, 0x47, 0x37, 0x00, 0x19, 0x36, 0x50, 0x83, 0x47, 0x36, 0x00, 0x19, 0x32, 0x50, 
  0x83, 0x47, 0x32, 0x00, 0x19, 0x36, 0x50, 0x83, 0x47, 0x36, 0x00, 0x19, 0x39, 0x50, 0x83, 0x47, 
  0x39, 0x00, 0x19, 0x36, 0x50, 0x83, 0x47, 0x36, 0x00, 0x19, 0x34, 0x50, 0x83, 0x47, 0x34, 0x00, 
  0x19, 0x37, 0x50, 0x83, 0x47, 0x37, 0x00, 0x19, 0x3b, 0x50, 0x83, 0x47, 0x3b, 0x00, 0x19, 0x37, 
  0x50, 0x83, 0x47, 0x37, 0x00, 0x19, 0x30, 0x50, 0x83, 0x47, 0x30, 0x00, 0x19, 0x37, 0x50, 0x83, 
  0x47, 0x37, 0x00, 0x19, 0x3c, 0x50, 0x83, 0x47, 0x3c, 0x00, 0x19, 0x37, 0x50, 0x83, 0x47, 0x37, 
  0x00, 0x19, 0x2b, 0x50, 0x83, 0x47, 0x2b, 0x00, 0x19, 0x32, 0x50, 0x83, 0x47, 0x32, 0x00, 0x19, 
  0x37, 0x50, 0x83, 0x47, 0x37, 0x00, 0x19, 0x36, 0x50, 0x83, 0x47, 0x36, 0x00, 0x19, 0x32, 0x50, 
  0x83, 0x47, 0x32, 0x00, 0x19, 0x36, 0x50, 0x83, 0x47, 0x36, 0x00, 0x19, 0x39, 0x50, 0x83, 0x47, 
  0x39, 0x00, 0x19, 0x36, 0x50, 0x83, 0x47, 0x36, 0x00, 0x19, 0x32, 0x50, 0x83, 0x47, 0x32, 0x00, 
  0x19, 0x36, 0x50, 0x83, 0x47, 0x36, 0x00, 0x19, 0x39, 0x50, 0x83, 0x47, 0x39, 0x00, 0x19, 0x36, 
  0x50, 0x83, 0x47, 0x36, 0x00, 0x19, 0x30, 0x50, 0x00, 0x34, 0x50, 0x00, 0x37, 0x50, 0x8e, 0x1f, 
  0x30, 0x00, 0x00, 0x34, 0x00, 0x00, 0x37, 0x00, 0x61, 0x37, 0x50, 0x00, 0x3b, 0x50, 0x00, 0x3e, 
  0x50, 0x8e, 0x1f, 0x37, 0x00, 0x00, 0x3b, 0x00, 0x00, 0x3e, 0x00, 0x61, 0x32, 0x50, 0x00, 0x36, 
  0x50, 0x00, 0x39, 0x50, 0x8e, 0x1f, 0x32, 0x00, 0x00, 0x36, 0x00, 0x00, 0x39, 0x00, 0x61, 0x34, 
  0x50, 0x00, 0x37, 0x50, 0x00, 0x3b, 0x50, 0x8e, 0x1f, 0x34, 0x00, 0x00, 0x37, 0x00, 0x00, 0x3b, 
  0x00, 0x61, 0x30, 0x50, 0x00, 0x34, 0x50, 0x00, 0x37, 0x50, 0x8e, 0x1f, 0x30, 0x00, 0x00, 0x34, 
  0x00, 0x00, 0x37, 0x00, 0x61, 0x37, 0x50, 0x00, 0x3b, 0x50, 0x00, 0x3e, 0x50, 0x8e, 0x1f, 0x37, 
  0x00, 0x00, 0x3b, 0x00, 0x00, 0x3e, 0x00, 0x61, 0x32, 0x50, 0x00, 0x36, 0x50, 0x00, 0x39, 0x50, 
  0x9c, 0x3f, 0x32, 0x00, 0x00, 0x36, 0x00, 0x00, 0x39, 0x00, 0x01, 0xff, 0x2f, 0x00
};