// array size is 3054
static const char bytes[]  = {
  0x4d, 0x54, 0x68, 0x64, 0x00, 0x00, 0x00, 0x06, 0x00, 0x01, 0x00, 0x02, 0x01, 0xe0, 0x4d, 0x54, 
  0x72, 0x6b, 0x00, 0x00, 0x07, 0x9a, 0x00, 0xff, 0x08, 0x14, 0x41, 0x20, 0x4d, 0x69, 0x6e, 0x75, 
  0x65, 0x74, 0x20, 0x69, 0x6e, 0x20, 0x47, 0x20, 0x4d, 0x61, 0x6a, 0x6f, 0x72, 0x00, 0x00, 0xff, 
  0x0a, 0x2b, 0x4a, 0x6f, 0x68, 0x61, 0x6e, 0x6e, 0x20, 0x53, 0x65, 0x62, 0x61, 0x73, 0x74, 0x69, 
  0x61, 0x6e, 0x20, 0x42, 0x61, 0x63, 0x68, 0x0a, 0x28, 0x47, 0x65, 0x72, 0x6d, 0x61, 0x6e, 0x79, 
  0x2c, 0x20, 0x31, 0x36, 0x38, 0x35, 0x2d, 0x31, 0x37, 0x35, 0x30, 0x29, 0x00, 0x00, 0xff, 0x58, 
  0x04, 0x03, 0x02, 0x18, 0x08, 0x00, 0xff, 0x59, 0x02, 0x01, 0x00, 0x00, 0xff, 0x51, 0x03, 0x07, 
  0x44, 0x1e, 0x00, 0xc0, 0x00, 0x00, 0x90, 0x4a, 0x50, 0x02, 0xb0, 0x07, 0x64, 0x02, 0x0a, 0x40, 
  0x02, 0x5b, 0x1e, 0x02, 0x5d, 0x1e, 0x83, 0x57, 0x90, 0x4a, 0x00, 0x01, 0x43, 0x50, 0x81, 0x6f, 
  0x43, 0x00, 0x01, 0x45, 0x50, 0x81, 0x6f, 0x45, 0x00, 0x01, 0x47, 0x50, 0x81, 0x6f, 0x47, 0x00, 
  0x01, 0x48, 0x50, 0x81, 0x6f, 0x48, 0x00, 0x01, 0x4a, 0x50, 0x83, 0x5f, 0x4a, 0x00, 0x01, 0x43, 
  0x50, 0x83, 0x5f, 0x43, 0x00, 0x01, 0x43, 0x50, 0x81, 0x6f, 0x43, 0x00, 0x81, 0x71, 0x4c, 0x50, 
  0x83, 0x5f, 0x4c, 0x00, 0x01, 0x48, 0x50, 0x81, 0x6f, 0x48, 0x00, 0x01, 0x4a, 0x50, 0x81, 0x6f, 
  0x4a, 0x00, 0x01, 0x4c, 0x50, 0x81, 0x6f, 0x4c, 0x00, 0x01, 0x4e, 0x50, 0x81, 0x6f, 0x4e, 0x00, 
  0x01, 0x4f, 0x50, 0x83, 0x5f, 0x4f, 0x00, 0x01, 0x43, 0x50, 0x83, 0x5f, 0x43, 0x00, 0x01, 0x43, 
  0x50, 0x81, 0x6f, 0x43, 0x00, 0x81, 0x71, 0x48, 0x50, 0x83, 0x5f, 0x48, 0x00, 0x01, 0x4a, 0x50, 
  0x81, 0x6f, 0x4a, 0x00, 0x01, 0x48, 0x50, 0x81, 0x6f, 0x48, 0x00, 0x01, 0x47, 0x50, 0x81, 0x6f, 
  0x47, 0x00, 0x01, 0x45, 0x50, 0x81, 0x6f, 0x45, 0x00, 0x01, 0x47, 0x50, 0x83, 0x5f, 0x47, 0x00, 
  0x01, 0x48, 0x50, 0x81, 0x6f, 0x48, 0x00, 0x01, 0x47, 0x50, 0x81, 0x6f, 0x47, 0x00, 0x01, 0x45, 
  0x50, 0x81, 0x6f, 0x45, 0x00, 0x01, 0x43, 0x50, 0x81, 0x6f, 0x43, 0x00, 0x01, 0x42, 0x50, 0x83, 
  0x5f, 0x42, 0x00, 0x01, 0x43, 0x50, 0x81, 0x6f, 0x43, 0x00, 0x01, 0x45, 0x50, 0x81, 0x6f, 0x45, 
  0x00, 0x01, 0x47, 0x50, 0x81, 0x6f, 0x47, 0x00, 0x01, 0x43, 0x50, 0x81, 0x6f, 0x43, 0x00, 0x01, 
  0x47, 0x50, 0x81, 0x6f, 0x47, 0x00, 0x01, 0x45, 0x50, 0x89, 0x30, 0x4a, 0x50, 0x81, 0x6f, 0x45, 
  0x00, 0x81, 0x70, 0x4a, 0x00, 0x01, 0x43, 0x50, 0x81, 0x6f, 0x43, 0x00, 0x01, 0x45, 0x50, 0x81, 
  0x6f, 0x45, 0x00, 0x01, 0x47, 0x50, 0x81, 0x6f, 0x47, 0x00, 0x01, 0x48, 0x50, 0x81, 0x6f, 0x48, 
  0x00, 0x01, 0x4a, 0x50, 0x83, 0x5f, 0x4a, 0x00, 0x01, 0x43, 0x50, 0x83, 0x5f, 0x43, 0x00, 0x01, 
  0x43, 0x50, 0x81, 0x6f, 0x43, 0x00, 0x81, 0x71, 0x4c, 0x50, 0x83, 0x5f, 0x4c, 0x00, 0x01, 0x48, 
  0x50, 0x81, 0x6f, 0x48, 0x00, 0x01, 0x4a, 0x50, 0x81, 0x6f, 0x4a, 0x00, 0x01, 0x4c, 0x50, 0x81, 
  0x6f, 0x4c, 0x00, 0x01, 0x4e, 0x50, 0x81, 0x6f, 0x4e, 0x00, 0x01, 0x4f, 0x50, 0x83, 0x5f, 0x4f, 
  0x00, 0x01, 0x43, 0x50, 0x83, 0x5f, 0x43, 0x00, 0x01, 0x43, 0x50, 0x83, 0x5f, 0x43, 0x00, 0x01, 
  0x48, 0x50, 0x83, 0x5f, 0x48, 0x00, 0x01, 0x4a, 0x50, 0x81, 0x6f, 0x4a, 0x00, 0x01, 0x48, 0x50, 
  0x81, 0x6f, 0x48, 0x00, 0x01, 0x47, 0x50, 0x81, 0x6f, 0x47, 0x00, 0x01, 0x45, 0x50, 0x81, 0x6f, 
  0x45, 0x00, 0x01, 0x47, 0x50, 0x83, 0x5f, 0x47, 0x00, 0x01, 0x48, 0x50, 0x81, 0x6f, 0x48, 0x00, 
  0x01, 0x47, 0x50, 0x81, 0x6f, 0x47, 0x00, 0x01, 0x45, 0x50, 0x81, 0x6f, 0x45, 0x00, 0x01, 0x43, 
  0x50, 0x81, 0x6f, 0x43, 0x00, 0x01, 0x45, 0x50, 0x83, 0x5f, 0x45, 0x00, 0x01, 0x47, 0x50, 0x81, 
  0x6f, 0x47, 0x00, 0x01, 0x45, 0x50, 0x81, 0x6f, 0x45, 0x00, 0x01, 0x43, 0x50, 0x81, 0x6f, 0x43, 
  0x00, 0x01, 0x42, 0x50, 0x81, 0x6f, 0x42, 0x00, 0x01, 0x43, 0x50, 0x8b, 0x1f, 0x43, 0x00, 0x01, 
  0xff, 0x58, 0x04, 0x03, 0x02, 0x18, 0x08, 0x00, 0xff, 0x59, 0x02, 0x01, 0x00, 0x00, 0xff, 0x51, 
  0x03, 0x07, 0x44, 0x1e, 0x00, 0x90, 0x4a, 0x50, 0x83, 0x5f, 0x4a, 0x00, 0x01, 0x43, 0x50, 0x81, 
  0x6f, 0x43, 0x00, 0x01, 0x45, 0x50, 0x81, 0x6f, 0x45, 0x00, 0x01, 0x47, 0x50, 0x81, 0x6f, 0x47, 
  0x00, 0x01, 0x48, 0x50, 0x81, 0x6f, 0x48, 0x00, 0x01, 0x4a, 0x50, 0x83, 0x5f, 0x4a, 0x00, 0x01, 
  0x43, 0x50, 0x83, 0x5f, 0x43, 0x00, 0x01, 0x43, 0x50, 0x81, 0x6f, 0x43, 0x00, 0x81, 0x71, 0x4c, 
  0x50, 0x83, 0x5f, 0x4c, 0x00, 0x01, 0x48, 0x50, 0x81, 0x6f, 0x48, 0x00, 0x01, 0x4a, 0x50, 0x81, 
  0x6f, 0x4a, 0x00, 0x01, 0x4c, 0x50, 0x81, 0x6f, 0x4c, 0x00, 0x01, 0x4e, 0x50, 0x81, 0x6f, 0x4e, 
  0x00, 0x01, 0x4f, 0x50, 0x83, 0x5f, 0x4f, 0x00, 0x01, 0x43, 0x50, 0x83, 0x5f, 0x43, 0x00, 0x01, 
  0x43, 0x50, 0x81, 0x6f, 0x43, 0x00, 0x81, 0x71, 0x48, 0x50, 0x83, 0x5f, 0x48, 0x00, 0x01, 0x4a, 
  0x50, 0x81, 0x6f, 0x4a, 0x00, 0x01, 0x48, 0x50, 0x81, 0x6f, 0x48, 0x00, 0x01, 0x47, 0x50, 0x81, 
  0x6f, 0x47, 0x00, 0x01, 0x45, 0x50, 0x81, 0x6f, 0x45, 0x00, 0x01, 0x47, 0x50, 0x83, 0x5f, 0x47, 
  0x00, 0x01, 0x48, 0x50, 0x81, 0x6f, 0x48, 0x00, 0x01, 0x47, 0x50, 0x81, 0x6f, 0x47, 0x00, 0x01, 
  0x45, 0x50, 0x81, 0x6f, 0x45, 0x00, 0x01, 0x43, 0x50, 0x81, 0x6f, 0x43, 0x00, 0x01, 0x42, 0x50, 
  0x83, 0x5f, 0x42, 0x00, 0x01, 0x43, 0x50, 0x81, 0x6f, 0x43, 0x00, 0x01, 0x45, 0x50, 0x81, 0x6f, 
  0x45, 0x00, 0x01, 0x47, 0x50, 0x81, 0x6f, 0x47, 0x00, 0x01, 0x43, 0x50, 0x81, 0x6f, 0x43, 0x00, 
  0x01, 0x47, 0x50, 0x81, 0x6f, 0x47, 0x00, 0x01, 0x45, 0x50, 0x89, 0x30, 0x4a, 0x50, 0x81, 0x6f, 
  0x45, 0x00, 0x81, 0x70, 0x4a, 0x00, 0x01, 0x43, 0x50, 0x81, 0x6f, 0x43, 0x00, 0x01, 0x45, 0x50, 
  0x81, 0x6f, 0x45, 0x00, 0x01, 0x47, 0x50, 0x81, 0x6f, 0x47, 0x00, 0x01, 0x48, 0x50, 0x81, 0x6f, 
  0x48, 0x00, 0x01, 0x4a, 0x50, 0x83, 0x5f, 0x4a, 0x00, 0x01, 0x43, 0x50, 0x83, 0x5f, 0x43, 0x00, 
  0x01, 0x43, 0x50, 0x81, 0x6f, 0x43, 0x00, 0x81, 0x71, 0x4c, 0x50, 0x83, 0x5f, 0x4c, 0x00, 0x01, 
  0x48, 0x50, 0x81, 0x6f, 0x48, 0x00, 0x01, 0x4a, 0x50, 0x81, 0x6f, 0x4a, 0x00, 0x01, 0x4c, 0x50, 
  0x81, 0x6f, 0x4c, 0x00, 0x01, 0x4e, 0x50, 0x81, 0x6f, 0x4e, 0x00, 0x01, 0x4f, 0x50, 0x83, 0x5f, 
  0x4f, 0x00, 0x01, 0x43, 0x50, 0x83, 0x5f, 0x43, 0x00, 0x01, 0x43, 0x50, 0x83, 0x5f, 0x43, 0x00, 
  0x01, 0x48, 0x50, 0x83, 0x5f, 0x48, 0x00, 0x01, 0x4a, 0x50, 0x81, 0x6f, 0x4a, 0x00, 0x01, 0x48, 
  0x50, 0x81, 0x6f, 0x48, 0x00, 0x01, 0x47, 0x50, 0x81, 0x6f, 0x47, 0x00, 0x01, 0x45, 0x50, 0x81, 
  0x6f, 0x45, 0x00, 0x01, 0x47, 0x50, 0x83, 0x5f, 0x47, 0x00, 0x01, 0x48, 0x50, 0x81, 0x6f, 0x48, 
  0x00, 0x01, 0x47, 0x50, 0x81, 0x6f, 0x47, 0x00, 0x01, 0x45, 0x50, 0x81, 0x6f, 0x45, 0x00, 0x01, 
  0x43, 0x50, 0x81, 0x6f, 0x43, 0x00, 0x01, 0x45, 0x50, 0x83, 0x5f, 0x45, 0x00, 0x01, 0x47, 0x50, 
  0x81, 0x6f, 0x47, 0x00, 0x01, 0x45, 0x50, 0x81, 0x6f, 0x45, 0x00, 0x01, 0x43, 0x50, 0x81, 0x6f, 
  0x43, 0x00, 0x01, 0x42, 0x50, 0x81, 0x6f, 0x42, 0x00, 0x01, 0x43, 0x50, 0x8b, 0x1f, 0x43, 0x00, 
  0x01, 0x53, 0x50, 0x83, 0x5f, 0x53, 0x00, 0x01, 0x4f, 0x50, 0x81, 0x6f, 0x4f, 0x00, 0x01, 0x51, 
  0x50, 0x81, 0x6f, 0x51, 0x00, 0x01, 0x53, 0x50, 0x81, 0x6f, 0x53, 0x00, 0x01, 0x4f, 0x50, 0x81, 
  0x6f, 0x4f, 0x00, 0x01, 0x51, 0x50, 0x83, 0x5f, 0x51, 0x00, 0x01, 0x4a, 0x50, 0x81, 0x6f, 0x4a, 
  0x00, 0x01, 0x4c, 0x50, 0x81, 0x6f, 0x4c, 0x00, 0x01, 0x4e, 0x50, 0x81, 0x6f, 0x4e, 0x00, 0x01, 
  0x4a, 0x50, 0x81, 0x6f, 0x4a, 0x00, 0x01, 0x4f, 0x50, 0x83, 0x5f, 0x4f, 0x00, 0x01, 0x4c, 0x50, 
  0x81, 0x6f, 0x4c, 0x00, 0x01, 0x4e, 0x50, 0x81, 0x6f, 0x4e, 0x00, 0x01, 0x4f, 0x50, 0x81, 0x6f, 
  0x4f, 0x00, 0x01, 0x4a, 0x50, 0x81, 0x6f, 0x4a, 0x00, 0x01, 0x49, 0x50, 0x83, 0x5f, 0x49, 0x00, 
  0x01, 0x47, 0x50, 0x81, 0x6f, 0x47, 0x00, 0x01, 0x49, 0x50, 0x81, 0x6f, 0x49, 0x00, 0x01, 0x45, 
  0x50, 0x83, 0x5f, 0x45, 0x00, 0x01, 0x45, 0x50, 0x81, 0x6f, 0x45, 0x00, 0x01, 0x47, 0x50, 0x81, 
  0x6f, 0x47, 0x00, 0x01, 0x49, 0x50, 0x81, 0x6f, 0x49, 0x00, 0x01, 0x4a, 0x50, 0x81, 0x6f, 0x4a, 
  0x00, 0x01, 0x4c, 0x50, 0x81, 0x6f, 0x4c, 0x00, 0x01, 0x4e, 0x50, 0x81, 0x6f, 0x4e, 0x00, 0x01, 
  0x4f, 0x50, 0x83, 0x5f, 0x4f, 0x00, 0x01, 0x4e, 0x50, 0x83, 0x5f, 0x4e, 0x00, 0x01, 0x4c, 0x50, 
  0x83, 0x5f, 0x4c, 0x00, 0x01, 0x4e, 0x50, 0x83, 0x5f, 0x4e, 0x00, 0x01, 0x45, 0x50, 0x83, 0x5f, 
  0x45, 0x00, 0x01, 0x49, 0x50, 0x83, 0x5f, 0x49, 0x00, 0x01, 0x4a, 0x50, 0x8b, 0x1f, 0x4a, 0x00, 
  0x01, 0x4a, 0x50, 0x83, 0x5f, 0x4a, 0x00, 0x01, 0x43, 0x50, 0x81, 0x6f, 0x43, 0x00, 0x01, 0x42, 
  0x50, 0x81, 0x6f, 0x42, 0x00, 0x01, 0x43, 0x50, 0x83, 0x5f, 0x43, 0x00, 0x01, 0x4c, 0x50, 0x83, 
  0x5f, 0x4c, 0x00, 0x01, 0x43, 0x50, 0x81, 0x6f, 0x43, 0x00, 0x01, 0x42, 0x50, 0x81, 0x6f, 0x42, 
  0x00, 0x01, 0x43, 0x50, 0x83, 0x5f, 0x43, 0x00, 0x01, 0x4a, 0x50, 0x83, 0x5f, 0x4a, 0x00, 0x01, 
  0x48, 0x50, 0x83, 0x5f, 0x48, 0x00, 0x01, 0x47, 0x50, 0x83, 0x5f, 0x47, 0x00, 0x01, 0x45, 0x50, 
  0x81, 0x6f, 0x45, 0x00, 0x01, 0x43, 0x50, 0x81, 0x6f, 0x43, 0x00, 0x01, 0x42, 0x50, 0x81, 0x6f, 
  0x42, 0x00, 0x01, 0x43, 0x50, 0x81, 0x6f, 0x43, 0x00, 0x01, 0x45, 0x50, 0x83, 0x5f, 0x45, 0x00, 
  0x01, 0x3e, 0x50, 0x81, 0x6f, 0x3e, 0x00, 0x01, 0x40, 0x50, 0x81, 0x6f, 0x40, 0x00, 0x01, 0x42, 
  0x50, 0x81, 0x6f, 0x42, 0x00, 0x01, 0x43, 0x50, 0x81, 0x6f, 0x43, 0x00, 0x01, 0x45, 0x50, 0x81, 
  0x6f, 0x45, 0x00, 0x01, 0x47, 0x50, 0x81, 0x6f, 0x47, 0x00, 0x01, 0x48, 0x50, 0x83, 0x5f, 0x48, 
  0x00, 0x01, 0x47, 0x50, 0x83, 0x5f, 0x47, 0x00, 0x01, 0x45, 0x50, 0x83, 0x5f, 0x45, 0x00, 0x01, 
  0x47, 0x50, 0x81, 0x6f, 0x47, 0x00, 0x01, 0x4a, 0x50, 0x81, 0x6f, 0x4a, 0x00, 0x01, 0x43, 0x50, 
  0x83, 0x5f, 0x43, 0x00, 0x01, 0x42, 0x50, 0x83, 0x5f, 0x42, 0x00, 0x01, 0x43, 0x50, 0x00, 0x3e, 
  0x50, 0x00, 0x3b, 0x50, 0x8b, 0x1f, 0x43, 0x00, 0x00, 0x3e, 0x00, 0x00, 0x3b, 0x00, 0x01, 0x53, 
  0x50, 0x83, 0x5f, 0x53, 0x00, 0x01, 0x4f, 0x50, 0x81, 0x6f, 0x4f, 0x00, 0x01, 0x51, 0x50, 0x81, 
  0x6f, 0x51, 0x00, 0x01, 0x53, 0x50, 0x81, 0x6f, 0x53, 0x00, 0x01, 0x4f, 0x50, 0x81, 0x6f, 0x4f, 
  0x00, 0x01, 0x51, 0x50, 0x83, 0x5f, 0x51, 0x00, 0x01, 0x4a, 0x50, 0x81, 0x6f, 0x4a, 0x00, 0x01, 
  0x4c, 0x50, 0x81, 0x6f, 0x4c, 0x00, 0x01, 0x4e, 0x50, 0x81, 0x6f, 0x4e, 0x00, 0x01, 0x4a, 0x50, 
  0x81, 0x6f, 0x4a, 0x00, 0x01, 0x4f, 0x50, 0x83, 0x5f, 0x4f, 0x00, 0x01, 0x4c, 0x50, 0x81, 0x6f, 
  0x4c, 0x00, 0x01, 0x4e, 0x50, 0x81, 0x6f, 0x4e, 0x00, 0x01, 0x4f, 0x50, 0x81, 0x6f, 0x4f, 0x00, 
  0x01, 0x4a, 0x50, 0x81, 0x6f, 0x4a, 0x00, 0x01, 0x49, 0x50, 0x83, 0x5f, 0x49, 0x00, 0x01, 0x47, 
  0x50, 0x81, 0x6f, 0x47, 0x00, 0x01, 0x49, 0x50, 0x81, 0x6f, 0x49, 0x00, 0x01, 0x45, 0x50, 0x83, 
  0x5f, 0x45, 0x00, 0x01, 0x45, 0x50, 0x81, 0x6f, 0x45, 0x00, 0x01, 0x47, 0x50, 0x81, 0x6f, 0x47, 
  0x00, 0x01, 0x49, 0x50, 0x81, 0x6f, 0x49, 0x00, 0x01, 0x4a, 0x50, 0x81, 0x6f, 0x4a, 0x00, 0x01, 
  0x4c, 0x50, 0x81, 0x6f, 0x4c, 0x00, 0x01, 0x4e, 0x50, 0x81, 0x6f, 0x4e, 0x00, 0x01, 0x4f, 0x50, 
  0x83, 0x5f, 0x4f, 0x00, 0x01, 0x4e, 0x50, 0x83, 0x5f, 0x4e, 0x00, 0x01, 0x4c, 0x50, 0x83, 0x5f, 
  0x4c, 0x00, 0x01, 0x4e, 0x50, 0x83, 0x5f, 0x4e, 0x00, 0x01, 0x45, 0x50, 0x83, 0x5f, 0x45, 0x00, 
  0x01, 0x49, 0x50, 0x83, 0x5f, 0x49, 0x00, 0x01, 0x4a, 0x50, 0x8b, 0x1f, 0x4a, 0x00, 0x01, 0x4a, 
  0x50, 0x83, 0x5f, 0x4a, 0x00, 0x01, 0x43, 0x50, 0x81, 0x6f, 0x43, 0x00, 0x01, 0x42, 0x50, 0x81, 
  0x6f, 0x42, 0x00, 0x01, 0x43, 0x50, 0x83, 0x5f, 0x43, 0x00, 0x01, 0x4c, 0x50, 0x83, 0x5f, 0x4c, 
  0x00, 0x01, 0x43, 0x50, 0x81, 0x6f, 0x43, 0x00, 0x01, 0x42, 0x50, 0x81, 0x6f, 0x42, 0x00, 0x01, 
  0x43, 0x50, 0x83, 0x5f, 0x43, 0x00, 0x01, 0x4a, 0x50, 0x83, 0x5f, 0x4a, 0x00, 0x01, 0x48, 0x50, 
  0x83, 0x5f, 0x48, 0x00, 0x01, 0x47, 0x50, 0x83, 0x5f, 0x47, 0x00, 0x01, 0x45, 0x50, 0x81, 0x6f, 
  0x45, 0x00, 0x01, 0x43, 0x50, 0x81, 0x6f, 0x43, 0x00, 0x01, 0x42, 0x50, 0x81, 0x6f, 0x42, 0x00, 
  0x01, 0x43, 0x50, 0x81, 0x6f, 0x43, 0x00, 0x01, 0x45, 0x50, 0x83, 0x5f, 0x45, 0x00, 0x01, 0x3e, 
  0x50, 0x81, 0x6f, 0x3e, 0x00, 0x01, 0x40, 0x50, 0x81, 0x6f, 0x40, 0x00, 0x01, 0x42, 0x50, 0x81, 
  0x6f, 0x42, 0x00, 0x01, 0x43, 0x50, 0x81, 0x6f, 0x43, 0x00, 0x01, 0x45, 0x50, 0x81, 0x6f, 0x45, 
  0x00, 0x01, 0x47, 0x50, 0x81, 0x6f, 0x47, 0x00, 0x01, 0x48, 0x50, 0x83, 0x5f, 0x48, 0x00, 0x01, 
  0x47, 0x50, 0x83, 0x5f, 0x47, 0x00, 0x01, 0x45, 0x50, 0x83, 0x5f, 0x45, 0x00, 0x01, 0x47, 0x50, 
  0x81, 0x6f, 0x47, 0x00, 0x01, 0x4a, 0x50, 0x81, 0x6f, 0x4a, 0x00, 0x01, 0x43, 0x50, 0x83, 0x5f, 
  0x43, 0x00, 0x01, 0x42, 0x50, 0x83, 0x5f, 0x42, 0x00, 0x01, 0x43, 0x50, 0x00, 0x3e, 0x50, 0x00, 
  0x3b, 0x50, 0x8b, 0x1f, 0x43, 0x00, 0x00, 0x3e, 0x00, 0x00, 0x3b, 0x00, 0x01, 0xff, 0x2f, 0x00, 
  0x4d, 0x54, 0x72, 0x6b, 0x00, 0x00, 0x04, 0x36, 0x00, 0xff, 0x59, 0x02, 0x01, 0x00, 0x00, 0x90, 
  0x3e, 0x50, 0x00, 0x3b, 0x50, 0x00, 0x37, 0x50, 0x87, 0x3f, 0x3e, 0x00, 0x00, 0x3b, 0x00, 0x00, 
  0x37, 0x00, 0x01, 0x39, 0x50, 0x83, 0x5f, 0x39, 0x00, 0x01, 0x3b, 0x50, 0x8b, 0x1f, 0x3b, 0x00, 
  0x01, 0x3c, 0x50, 0x8b, 0x1f, 0x3c, 0x00, 0x01, 0x3b, 0x50, 0x8b, 0x1f, 0x3b, 0x00, 0x01, 0x39, 
  0x50, 0x8b, 0x1f, 0x39, 0x00, 0x01, 0x37, 0x50, 0x8b, 0x1f, 0x37, 0x00, 0x01, 0x3e, 0x50, 0x83, 
  0x5f, 0x3e, 0x00, 0x01, 0x3b, 0x50, 0x83, 0x5f, 0x3b, 0x00, 0x01, 0x37, 0x50, 0x83, 0x5f, 0x37, 
  0x00, 0x01, 0x3e, 0x50, 0x83, 0x5f, 0x3e, 0x00, 0x01, 0x32, 0x50, 0x81, 0x6f, 0x32, 0x00, 0x01, 
  0x3c, 0x50, 0x81, 0x6f, 0x3c, 0x00, 0x01, 0x3b, 0x50, 0x81, 0x6f, 0x3b, 0x00, 0x01, 0x39, 0x50, 
  0x81, 0x6f, 0x39, 0x00, 0x01, 0x3b, 0x50, 0x87, 0x3f, 0x3b, 0x00, 0x01, 0x39, 0x50, 0x83, 0x5f, 
  0x39, 0x00, 0x01, 0x37, 0x50, 0x83, 0x5f, 0x37, 0x00, 0x01, 0x3b, 0x50, 0x83, 0x5f, 0x3b, 0x00, 
  0x01, 0x37, 0x50, 0x83, 0x5f, 0x37, 0x00, 0x01, 0x3c, 0x50, 0x8b, 0x1f, 0x3c, 0x00, 0x01, 0x3b, 
  0x50, 0x83, 0x5f, 0x3b, 0x00, 0x01, 0x3c, 0x50, 0x81, 0x6f, 0x3c, 0x00, 0x01, 0x3b, 0x50, 0x81, 
  0x6f, 0x3b, 0x00, 0x01, 0x39, 0x50, 0x81, 0x6f, 0x39, 0x00, 0x01, 0x37, 0x50, 0x81, 0x6f, 0x37, 
  0x00, 0x01, 0x39, 0x50, 0x87, 0x3f, 0x39, 0x00, 0x01, 0x36, 0x50, 0x83, 0x5f, 0x36, 0x00, 0x01, 
  0x37, 0x50, 0x87, 0x3f, 0x37, 0x00, 0x01, 0x3b, 0x50, 0x83, 0x5f, 0x3b, 0x00, 0x01, 0x3c, 0x50, 
  0x83, 0x5f, 0x3c, 0x00, 0x01, 0x3e, 0x50, 0x83, 0x5f, 0x3e, 0x00, 0x01, 0x32, 0x50, 0x83, 0x5f, 
  0x32, 0x00, 0x01, 0x37, 0x50, 0x87, 0x3f, 0x37, 0x00, 0x01, 0x2b, 0x50, 0x83, 0x5f, 0x2b, 0x00, 
  0x01, 0xff, 0x59, 0x02, 0x01, 0x00, 0x00, 0x90, 0x3e, 0x50, 0x00, 0x3b, 0x50, 0x00, 0x37, 0x50, 
  0x87, 0x3f, 0x3e, 0x00, 0x00, 0x3b, 0x00, 0x00, 0x37, 0x00, 0x01, 0x39, 0x50, 0x83, 0x5f, 0x39, 
  0x00, 0x01, 0x3b, 0x50, 0x8b, 0x1f, 0x3b, 0x00, 0x01, 0x3c, 0x50, 0x8b, 0x1f, 0x3c, 0x00, 0x01, 
  0x3b, 0x50, 0x8b, 0x1f, 0x3b, 0x00, 0x01, 0x39, 0x50, 0x8b, 0x1f, 0x39, 0x00, 0x01, 0x37, 0x50, 
  0x8b, 0x1f, 0x37, 0x00, 0x01, 0x3e, 0x50, 0x83, 0x5f, 0x3e, 0x00, 0x01, 0x3b, 0x50, 0x83, 0x5f, 
  0x3b, 0x00, 0x01, 0x37, 0x50, 0x83, 0x5f, 0x37, 0x00, 0x01, 0x3e, 0x50, 0x83, 0x5f, 0x3e, 0x00, 
  0x01, 0x32, 0x50, 0x81, 0x6f, 0x32, 0x00, 0x01, 0x3c, 0x50, 0x81, 0x6f, 0x3c, 0x00, 0x01, 0x3b, 
  0x50, 0x81, 0x6f, 0x3b, 0x00, 0x01, 0x39, 0x50, 0x81, 0x6f, 0x39, 0x00, 0x01, 0x3b, 0x50, 0x87, 
  0x3f, 0x3b, 0x00, 0x01, 0x39, 0x50, 0x83, 0x5f, 0x39, 0x00, 0x01, 0x37, 0x50, 0x83, 0x5f, 0x37, 
  0x00, 0x01, 0x3b, 0x50, 0x83, 0x5f, 0x3b, 0x00, 0x01, 0x37, 0x50, 0x83, 0x5f, 0x37, 0x00, 0x01, 
  0x3c, 0x50, 0x8b, 0x1f, 0x3c, 0x00, 0x01, 0x3b, 0x50, 0x83, 0x5f, 0x3b, 0x00, 0x01, 0x3c, 0x50, 
  0x81, 0x6f, 0x3c, 0x00, 0x01, 0x3b, 0x50, 0x81, 0x6f, 0x3b, 0x00, 0x01, 0x39, 0x50, 0x81, 0x6f, 
  0x39, 0x00, 0x01, 0x37, 0x50, 0x81, 0x6f, 0x37, 0x00, 0x01, 0x39, 0x50, 0x87, 0x3f, 0x39, 0x00, 
  0x01, 0x36, 0x50, 0x83, 0x5f, 0x36, 0x00, 0x01, 0x37, 0x50, 0x87, 0x3f, 0x37, 0x00, 0x01, 0x3b, 
  0x50, 0x83, 0x5f, 0x3b, 0x00, 0x01, 0x3c, 0x50, 0x83, 0x5f, 0x3c, 0x00, 0x01, 0x3e, 0x50, 0x83, 
  0x5f, 0x3e, 0x00, 0x01, 0x32, 0x50, 0x83, 0x5f, 0x32, 0x00, 0x01, 0x37, 0x50, 0x87, 0x3f, 0x37, 
  0x00, 0x01, 0x2b, 0x50, 0x83, 0x5f, 0x2b, 0x00, 0x01, 0x37, 0x50, 0x8b, 0x1f, 0x37, 0x00, 0x01, 
  0x36, 0x50, 0x8b, 0x1f, 0x36, 0x00, 0x01, 0x34, 0x50, 0x83, 0x5f, 0x34, 0x00, 0x01, 0x37, 0x50, 
  0x83, 0x5f, 0x37, 0x00, 0x01, 0x34, 0x50, 0x83, 0x5f, 0x34, 0x00, 0x01, 0x39, 0x50, 0x87, 0x3f, 
  0x39, 0x00, 0x01, 0x2d, 0x50, 0x83, 0x5f, 0x2d, 0x00, 0x01, 0x39, 0x50, 0x8b, 0x1f, 0x39, 0x00, 
  0x01, 0x3b, 0x50, 0x81, 0x6f, 0x3b, 0x00, 0x81, 0x71, 0x3e, 0x50, 0x81, 0x6f, 0x3e, 0x00, 0x81, 
  0x71, 0x3d, 0x50, 0x81, 0x6f, 0x3d, 0x00, 0x81, 0x71, 0x3e, 0x50, 0x81, 0x6f, 0x3e, 0x00, 0x81, 
  0x71, 0x36, 0x50, 0x81, 0x6f, 0x36, 0x00, 0x81, 0x71, 0x39, 0x50, 0x81, 0x6f, 0x39, 0x00, 0x81, 
  0x71, 0x3e, 0x50, 0x83, 0x5f, 0x3e, 0x00, 0x01, 0x32, 0x50, 0x83, 0x5f, 0x32, 0x00, 0x01, 0x3c, 
  0x50, 0x83, 0x5f, 0x3c, 0x00, 0x01, 0x3b, 0x50, 0x83, 0x60, 0x3e, 0x50, 0x83, 0x5f, 0x3b, 0x00, 
  0x01, 0x3b, 0x50, 0x83, 0x5f, 0x3e, 0x00, 0x00, 0x3b, 0x00, 0x01, 0x3c, 0x50, 0x83, 0x60, 0x40, 
  0x50, 0x83, 0x5f, 0x3c, 0x00, 0x01, 0x3c, 0x50, 0x83, 0x5f, 0x40, 0x00, 0x00, 0x3c, 0x00, 0x01, 
  0x3b, 0x50, 0x83, 0x5f, 0x3b, 0x00, 0x01, 0x39, 0x50, 0x83, 0x5f, 0x39, 0x00, 0x01, 0x37, 0x50, 
  0x83, 0x5f, 0x37, 0x00, 0x01, 0x3e, 0x50, 0x87, 0x3f, 0x3e, 0x00, 0x83, 0x61, 0x32, 0x50, 0x87, 
  0x40, 0x36, 0x50, 0x83, 0x5f, 0x36, 0x00, 0x00, 0x32, 0x00, 0x01, 0x34, 0x50, 0x83, 0x5f, 0x34, 
  0x00, 0x01, 0x37, 0x50, 0x83, 0x5f, 0x37, 0x00, 0x01, 0x36, 0x50, 0x83, 0x5f, 0x36, 0x00, 0x01, 
  0x37, 0x50, 0x83, 0x5f, 0x37, 0x00, 0x01, 0x2f, 0x50, 0x83, 0x5f, 0x2f, 0x00, 0x01, 0x32, 0x50, 
  0x83, 0x5f, 0x32, 0x00, 0x01, 0x37, 0x50, 0x83, 0x5f, 0x37, 0x00, 0x01, 0x32, 0x50, 0x83, 0x5f, 
  0x32, 0x00, 0x01, 0x2b, 0x50, 0x83, 0x5f, 0x2b, 0x00, 0x01, 0x37, 0x50, 0x8b, 0x1f, 0x37, 0x00, 
  0x01, 0x36, 0x50, 0x8b, 0x1f, 0x36, 0x00, 0x01, 0x34, 0x50, 0x83, 0x5f, 0x34, 0x00, 0x01, 0x37, 
  0x50, 0x83, 0x5f, 0x37, 0x00, 0x01, 0x34, 0x50, 0x83, 0x5f, 0x34, 0x00, 0x01, 0x39, 0x50, 0x87, 
  0x3f, 0x39, 0x00, 0x01, 0x2d, 0x50, 0x83, 0x5f, 0x2d, 0x00, 0x01, 0x39, 0x50, 0x8b, 0x1f, 0x39, 
  0x00, 0x01, 0x3b, 0x50, 0x81, 0x6f, 0x3b, 0x00, 0x81, 0x71, 0x3e, 0x50, 0x81, 0x6f, 0x3e, 0x00, 
  0x81, 0x71, 0x3d, 0x50, 0x81, 0x6f, 0x3d, 0x00, 0x81, 0x71, 0x3e, 0x50, 0x81, 0x6f, 0x3e, 0x00, 
  0x81, 0x71, 0x36, 0x50, 0x81, 0x6f, 0x36, 0x00, 0x81, 0x71, 0x39, 0x50, 0x81, 0x6f, 0x39, 0x00, 
  0x81, 0x71, 0x3e, 0x50, 0x83, 0x5f, 0x3e, 0x00, 0x01, 0x32, 0x50, 0x83, 0x5f, 0x32, 0x00, 0x01, 
  0x3c, 0x50, 0x83, 0x5f, 0x3c, 0x00, 0x01, 0x3b, 0x50, 0x83, 0x60, 0x3e, 0x50, 0x83, 0x5f, 0x3b, 
  0x00, 0x01, 0x3b, 0x50, 0x83, 0x5f, 0x3e, 0x00, 0x00, 0x3b, 0x00, 0x01, 0x3c, 0x50, 0x83, 0x60, 
  0x40, 0x50, 0x83, 0x5f, 0x3c, 0x00, 0x01, 0x3c, 0x50, 0x83, 0x5f, 0x40, 0x00, 0x00, 0x3c, 0x00, 
  0x01, 0x3b, 0x50, 0x83, 0x5f, 0x3b, 0x00, 0x01, 0x39, 0x50, 0x83, 0x5f, 0x39, 0x00, 0x01, 0x37, 
  0x50, 0x83, 0x5f, 0x37, 0x00, 0x01, 0x3e, 0x50, 0x87, 0x3f, 0x3e, 0x00, 0x83, 0x61, 0x32, 0x50, 
  0x87, 0x40, 0x36, 0x50, 0x83, 0x5f, 0x36, 0x00, 0x00, 0x32, 0x00, 0x01, 0x34, 0x50, 0x83, 0x5f, 
  0x34, 0x00, 0x01, 0x37, 0x50, 0x83, 0x5f, 0x37, 0x00, 0x01, 0x36, 0x50, 0x83, 0x5f, 0x36, 0x00, 
  0x01, 0x37, 0x50, 0x83, 0x5f, 0x37, 0x00, 0x01, 0x2f, 0x50, 0x83, 0x5f, 0x2f, 0x00, 0x01, 0x32, 
  0x50, 0x83, 0x5f, 0x32, 0x00, 0x01, 0x37, 0x50, 0x83, 0x5f, 0x37, 0x00, 0x01, 0x32, 0x50, 0x83, 
  0x5f, 0x32, 0x00, 0x01, 0x2b, 0x50, 0x83, 0x5f, 0x2b, 0x00, 0x01, 0xff, 0x2f, 0x00
};