// array size is 648
static const char bytes[]  = {
  0x4d, 0x54, 0x68, 0x64, 0x00, 0x00, 0x00, 0x06, 0x00, 0x01, 0x00, 0x02, 0x01, 0x00, 0x4d, 0x54, 
  0x72, 0x6b, 0x00, 0x00, 0x00, 0x34, 0x00, 0xff, 0x58, 0x04, 0x04, 0x02, 0x18, 0x08, 0x00, 0xff, 
  0x59, 0x02, 0x00, 0x00, 0x00, 0xff, 0x51, 0x03, 0x0d, 0x14, 0x36, 0x00, 0xff, 0x03, 0x0a, 0x4f, 
  0x64, 0x65, 0x20, 0x74, 0x6f, 0x20, 0x4a, 0x6f, 0x79, 0x00, 0xff, 0x01, 0x09, 0x42, 0x65, 0x65, 
  0x74, 0x68, 0x6f, 0x76, 0x65, 0x6e, 0x01, 0xff, 0x2f, 0x00, 0x4d, 0x54, 0x72, 0x6b, 0x00, 0x00, 
  0x02, 0x36, 0x00, 0xb0, 0x79, 0x00, 0x00, 0xb0, 0x40, 0x00, 0x00, 0xb0, 0x5b, 0x2b, 0x00, 0xb0, 
  0x0a, 0x30, 0x00, 0xb0, 0x07, 0x6b, 0x00, 0x90, 0x40, 0x42, 0x82, 0x00, 0x80, 0x40, 0x00, 0x00, 
  0x90, 0x40, 0x4b, 0x82, 0x00, 0x90, 0x41, 0x4d, 0x05, 0x80, 0x40, 0x00, 0x81, 0x7b, 0x90, 0x43, 
  0x52, 0x05, 0x80, 0x41, 0x00, 0x81, 0x7b, 0x80, 0x43, 0x00, 0x00, 0x90, 0x43, 0x49, 0x82, 0x00, 
  0x90, 0x41, 0x45, 0x05, 0x80, 0x43, 0x00, 0x81, 0x7b, 0x90, 0x40, 0x4a, 0x05, 0x80, 0x41, 0x00, 
  0x81, 0x7b, 0x90, 0x3e, 0x48, 0x05, 0x80, 0x40, 0x00, 0x81, 0x7b, 0x90, 0x3c, 0x4a, 0x05, 0x80, 
  0x3e, 0x00, 0x81, 0x7b, 0x80, 0x3c, 0x00, 0x00, 0x90, 0x3c, 0x50, 0x82, 0x00, 0x90, 0x3e, 0x51, 
  0x05, 0x80, 0x3c, 0x00, 0x81, 0x7b, 0x90, 0x40, 0x52, 0x05, 0x80, 0x3e, 0x00, 0x81, 0x7b, 0x80, 
  0x40, 0x00, 0x00, 0x90, 0x40, 0x4f, 0x83, 0x00, 0x90, 0x3e, 0x51, 0x07, 0x80, 0x40, 0x00, 0x79, 
  0x80, 0x3e, 0x00, 0x00, 0x90, 0x3e, 0x4c, 0x83, 0x66, 0x80, 0x3e, 0x00, 0x1a, 0x90, 0x40, 0x50, 
  0x82, 0x00, 0x80, 0x40, 0x00, 0x00, 0x90, 0x40, 0x4f, 0x82, 0x00, 0x90, 0x41, 0x53, 0x05, 0x80, 
  0x40, 0x00, 0x81, 0x7b, 0x90, 0x43, 0x4f, 0x05, 0x80, 0x41, 0x00, 0x81, 0x7b, 0x80, 0x43, 0x00, 
  0x00, 0x90, 0x43, 0x4e, 0x82, 0x00, 0x90, 0x41, 0x4d, 0x05, 0x80, 0x43, 0x00, 0x81, 0x7b, 0x90, 
  0x40, 0x4a, 0x05, 0x80, 0x41, 0x00, 0x81, 0x7b, 0x90, 0x3e, 0x44, 0x05, 0x80, 0x40, 0x00, 0x81, 
  0x7b, 0x90, 0x3c, 0x45, 0x05, 0x80, 0x3e, 0x00, 0x81, 0x7b, 0x80, 0x3c, 0x00, 0x00, 0x90, 0x3c, 
  0x48, 0x82, 0x00, 0x90, 0x3e, 0x51, 0x05, 0x80, 0x3c, 0x00, 0x81, 0x7b, 0x90, 0x40, 0x4f, 0x05, 
  0x80, 0x3e, 0x00, 0x81, 0x7b, 0x90, 0x3e, 0x4d, 0x05, 0x80, 0x40, 0x00, 0x82, 0x7b, 0x90, 0x3c, 
  0x44, 0x07, 0x80, 0x3e, 0x00, 0x79, 0x80, 0x3c, 0x00, 0x00, 0x90, 0x3c, 0x4e, 0x83, 0x66, 0x80, 
  0x3c, 0x00, 0x1a, 0x90, 0x3e, 0x52, 0x84, 0x00, 0x90, 0x40, 0x56, 0x0a, 0x80, 0x3e, 0x00, 0x81, 
  0x76, 0x90, 0x3c, 0x46, 0x05, 0x80, 0x40, 0x00, 0x81, 0x7b, 0x90, 0x3e, 0x4a, 0x05, 0x80, 0x3c, 
  0x00, 0x81, 0x7b, 0x90, 0x40, 0x54, 0x05, 0x80, 0x3e, 0x00, 0x7b, 0x90, 0x41, 0x5a, 0x02, 0x80, 
  0x40, 0x00, 0x7e, 0x90, 0x40, 0x4a, 0x02, 0x80, 0x41, 0x00, 0x81, 0x7e, 0x90, 0x3c, 0x43, 0x05, 
  0x80, 0x40, 0x00, 0x81, 0x7b, 0x90, 0x3e, 0x51, 0x05, 0x80, 0x3c, 0x00, 0x81, 0x7b, 0x90, 0x40, 
  0x55, 0x05, 0x80, 0x3e, 0x00, 0x7b, 0x90, 0x41, 0x51, 0x02, 0x80, 0x40, 0x00, 0x7e, 0x90, 0x40, 
  0x51, 0x02, 0x80, 0x41, 0x00, 0x81, 0x7e, 0x90, 0x3e, 0x4a, 0x05, 0x80, 0x40, 0x00, 0x81, 0x7b, 
  0x90, 0x3c, 0x43, 0x05, 0x80, 0x3e, 0x00, 0x81, 0x7b, 0x90, 0x3e, 0x52, 0x05, 0x80, 0x3c, 0x00, 
  0x81, 0x7b, 0x90, 0x43, 0x60, 0x05, 0x80, 0x3e, 0x00, 0x83, 0x61, 0x80, 0x43, 0x00, 0x1a, 0x90, 
  0x40, 0x58, 0x82, 0x00, 0x80, 0x40, 0x00, 0x00, 0x90, 0x40, 0x63, 0x82, 0x00, 0x90, 0x41, 0x68, 
  0x05, 0x80, 0x40, 0x00, 0x81, 0x7b, 0x90, 0x43, 0x65, 0x05, 0x80, 0x41, 0x00, 0x81, 0x7b, 0x80, 
  0x43, 0x00, 0x00, 0x90, 0x43, 0x61, 0x82, 0x00, 0x90, 0x41, 0x5b, 0x05, 0x80, 0x43, 0x00, 0x81, 
  0x7b, 0x90, 0x40, 0x59, 0x05, 0x80, 0x41, 0x00, 0x81, 0x7b, 0x90, 0x3e, 0x50, 0x05, 0x80, 0x40, 
  0x00, 0x81, 0x7b, 0x90, 0x3c, 0x59, 0x05, 0x80, 0x3e, 0x00, 0x81, 0x7b, 0x80, 0x3c, 0x00, 0x00, 
  0x90, 0x3c, 0x63, 0x82, 0x00, 0x90, 0x3e, 0x69, 0x05, 0x80, 0x3c, 0x00, 0x81, 0x7b, 0x90, 0x40, 
  0x66, 0x05, 0x80, 0x3e, 0x00, 0x81, 0x7b, 0x90, 0x3e, 0x5f, 0x05, 0x80, 0x40, 0x00, 0x82, 0x7b, 
  0x90, 0x3c, 0x5a, 0x07, 0x80, 0x3e, 0x00, 0x79, 0x80, 0x3c, 0x00, 0x00, 0x90, 0x3c, 0x63, 0x83, 
  0x66, 0x80, 0x3c, 0x00, 0x01, 0xff, 0x2f, 0x00
};