// array size is 1655
static const char bytes[]  = {
  0x4d, 0x54, 0x68, 0x64, 0x00, 0x00, 0x00, 0x06, 0x00, 0x01, 0x00, 0x02, 0x01, 0xe0, 0x4d, 0x54, 
  0x72, 0x6b, 0x00, 0x00, 0x03, 0xb0, 0x00, 0xff, 0x58, 0x04, 0x04, 0x02, 0x18, 0x08, 0x00, 0xff, 
  0x59, 0x02, 0x00, 0x00, 0x00, 0xff, 0x51, 0x03, 0x07, 0xa1, 0x20, 0x00, 0xb0, 0x79, 0x00, 0x00, 
  0xc0, 0x00, 0x00, 0xb0, 0x07, 0x64, 0x00, 0x0a, 0x40, 0x00, 0x5b, 0x00, 0x00, 0x5d, 0x00, 0x00, 
  0xff, 0x21, 0x01, 0x00, 0x00, 0x90, 0x48, 0x50, 0x87, 0x0f, 0x48, 0x00, 0x31, 0x54, 0x50, 0x87, 
  0x0f, 0x54, 0x00, 0x31, 0x53, 0x50, 0x83, 0x47, 0x53, 0x00, 0x19, 0x4f, 0x50, 0x81, 0x63, 0x4f, 
  0x00, 0x0d, 0x51, 0x50, 0x81, 0x63, 0x51, 0x00, 0x0d, 0x53, 0x50, 0x83, 0x47, 0x53, 0x00, 0x19, 
  0x54, 0x50, 0x83, 0x47, 0x54, 0x00, 0x19, 0x48, 0x50, 0x87, 0x0f, 0x48, 0x00, 0x31, 0x51, 0x50, 
  0x87, 0x0f, 0x51, 0x00, 0x31, 0x4f, 0x50, 0x8e, 0x1f, 0x4f, 0x00, 0x61, 0x45, 0x50, 0x87, 0x0f, 
  0x45, 0x00, 0x31, 0x4d, 0x50, 0x87, 0x0f, 0x4d, 0x00, 0x31, 0x4c, 0x50, 0x83, 0x47, 0x4c, 0x00, 
  0x19, 0x48, 0x50, 0x81, 0x63, 0x48, 0x00, 0x0d, 0x4a, 0x50, 0x81, 0x63, 0x4a, 0x00, 0x0d, 0x4c, 
  0x50, 0x83, 0x47, 0x4c, 0x00, 0x19, 0x4d, 0x50, 0x83, 0x47, 0x4d, 0x00, 0x19, 0x4a, 0x50, 0x83, 
  0x47, 0x4a, 0x00, 0x19, 0x47, 0x50, 0x81, 0x63, 0x47, 0x00, 0x0d, 0x48, 0x50, 0x81, 0x63, 0x48, 
  0x00, 0x0d, 0x4a, 0x50, 0x83, 0x47, 0x4a, 0x00, 0x19, 0x4c, 0x50, 0x83, 0x47, 0x4c, 0x00, 0x19, 
  0x48, 0x50, 0x8a, 0x57, 0x48, 0x00, 0x84, 0x29, 0x48, 0x50, 0x87, 0x0f, 0x48, 0x00, 0x31, 0x54, 
  0x50, 0x87, 0x0f, 0x54, 0x00, 0x31, 0x53, 0x50, 0x83, 0x47, 0x53, 0x00, 0x19, 0x4f, 0x50, 0x81, 
  0x63, 0x4f, 0x00, 0x0d, 0x51, 0x50, 0x81, 0x63, 0x51, 0x00, 0x0d, 0x53, 0x50, 0x83, 0x47, 0x53, 
  0x00, 0x19, 0x54, 0x50, 0x83, 0x47, 0x54, 0x00, 0x19, 0x48, 0x50, 0x87, 0x0f, 0x48, 0x00, 0x31, 
  0x51, 0x50, 0x87, 0x0f, 0x51, 0x00, 0x31, 0x4f, 0x50, 0x8e, 0x1f, 0x4f, 0x00, 0x61, 0x45, 0x50, 
  0x87, 0x0f, 0x45, 0x00, 0x31, 0x4d, 0x50, 0x87, 0x0f, 0x4d, 0x00, 0x31, 0x4c, 0x50, 0x83, 0x47, 
  0x4c, 0x00, 0x19, 0x48, 0x50, 0x81, 0x63, 0x48, 0x00, 0x0d, 0x4a, 0x50, 0x81, 0x63, 0x4a, 0x00, 
  0x0d, 0x4c, 0x50, 0x83, 0x47, 0x4c, 0x00, 0x19, 0x4d, 0x50, 0x83, 0x47, 0x4d, 0x00, 0x19, 0x4a, 
  0x50, 0x83, 0x47, 0x4a, 0x00, 0x19, 0x47, 0x50, 0x81, 0x63, 0x47, 0x00, 0x0d, 0x48, 0x50, 0x81, 
  0x63, 0x48, 0x00, 0x0d, 0x4a, 0x50, 0x83, 0x47, 0x4a, 0x00, 0x19, 0x4c, 0x50, 0x83, 0x47, 0x4c, 
  0x00, 0x19, 0x48, 0x50, 0x8a, 0x57, 0x48, 0x00, 0x82, 0x39, 0x4f, 0x50, 0x81, 0x63, 0x4f, 0x00, 
  0x0d, 0x4c, 0x50, 0x81, 0x63, 0x4c, 0x00, 0x0d, 0x4f, 0x50, 0x81, 0x63, 0x4f, 0x00, 0x0d, 0x4c, 
  0x50, 0x81, 0x63, 0x4c, 0x00, 0x0d, 0x4f, 0x50, 0x81, 0x63, 0x4f, 0x00, 0x0d, 0x4c, 0x50, 0x81, 
  0x63, 0x4c, 0x00, 0x0d, 0x4f, 0x50, 0x81, 0x63, 0x4f, 0x00, 0x0d, 0x4c, 0x50, 0x81, 0x63, 0x4c, 
  0x00, 0x0d, 0x4f, 0x50, 0x81, 0x63, 0x4f, 0x00, 0x0d, 0x4d, 0x50, 0x81, 0x63, 0x4d, 0x00, 0x0d, 
  0x4f, 0x50, 0x81, 0x63, 0x4f, 0x00, 0x0d, 0x4d, 0x50, 0x81, 0x63, 0x4d, 0x00, 0x0d, 0x4f, 0x50, 
  0x81, 0x63, 0x4f, 0x00, 0x0d, 0x4d, 0x50, 0x81, 0x63, 0x4d, 0x00, 0x0d, 0x4f, 0x50, 0x81, 0x63, 
  0x4f, 0x00, 0x0d, 0x4d, 0x50, 0x81, 0x63, 0x4d, 0x00, 0x0d, 0x4f, 0x50, 0x81, 0x63, 0x4f, 0x00, 
  0x0d, 0x51, 0x50, 0x87, 0x0f, 0x51, 0x00, 0x31, 0x51, 0x50, 0x91, 0x67, 0x51, 0x00, 0x82, 0x69, 
  0x4f, 0x50, 0x81, 0x63, 0x4f, 0x00, 0x0d, 0x4c, 0x50, 0x81, 0x63, 0x4c, 0x00, 0x0d, 0x4f, 0x50, 
  0x81, 0x63, 0x4f, 0x00, 0x0d, 0x4c, 0x50, 0x81, 0x63, 0x4c, 0x00, 0x0d, 0x4f, 0x50, 0x81, 0x63, 
  0x4f, 0x00, 0x0d, 0x4c, 0x50, 0x81, 0x63, 0x4c, 0x00, 0x0d, 0x4f, 0x50, 0x81, 0x63, 0x4f, 0x00, 
  0x0d, 0x4c, 0x50, 0x81, 0x63, 0x4c, 0x00, 0x0d, 0x4f, 0x50, 0x81, 0x63, 0x4f, 0x00, 0x0d, 0x4e, 
  0x50, 0x81, 0x63, 0x4e, 0x00, 0x0d, 0x51, 0x50, 0x81, 0x63, 0x51, 0x00, 0x0d, 0x4e, 0x50, 0x81, 
  0x63, 0x4e, 0x00, 0x0d, 0x51, 0x50, 0x81, 0x63, 0x51, 0x00, 0x0d, 0x4e, 0x50, 0x81, 0x63, 0x4e, 
  0x00, 0x0d, 0x51, 0x50, 0x81, 0x63, 0x51, 0x00, 0x0d, 0x4e, 0x50, 0x81, 0x63, 0x4e, 0x00, 0x0d, 
  0x51, 0x50, 0x81, 0x63, 0x51, 0x00, 0x0d, 0x53, 0x50, 0x87, 0x0f, 0x53, 0x00, 0x31, 0x53, 0x50, 
  0x87, 0x0f, 0x53, 0x00, 0x31, 0x56, 0x50, 0x87, 0x0f, 0x56, 0x00, 0x31, 0x4f, 0x50, 0x87, 0x0f, 
  0x4f, 0x00, 0x31, 0x48, 0x50, 0x87, 0x0f, 0x48, 0x00, 0x31, 0x54, 0x50, 0x87, 0x0f, 0x54, 0x00, 
  0x31, 0x53, 0x50, 0x83, 0x47, 0x53, 0x00, 0x19, 0x4f, 0x50, 0x81, 0x63, 0x4f, 0x00, 0x0d, 0x51, 
  0x50, 0x81, 0x63, 0x51, 0x00, 0x0d, 0x53, 0x50, 0x83, 0x47, 0x53, 0x00, 0x19, 0x54, 0x50, 0x83, 
  0x47, 0x54, 0x00, 0x19, 0x48, 0x50, 0x87, 0x0f, 0x48, 0x00, 0x31, 0x51, 0x50, 0x87, 0x0f, 0x51, 
  0x00, 0x31, 0x4f, 0x50, 0x8e, 0x1f, 0x4f, 0x00, 0x61, 0x45, 0x50, 0x87, 0x0f, 0x45, 0x00, 0x31, 
  0x4d, 0x50, 0x87, 0x0f, 0x4d, 0x00, 0x31, 0x4c, 0x50, 0x83, 0x47, 0x4c, 0x00, 0x19, 0x48, 0x50, 
  0x81, 0x63, 0x48, 0x00, 0x0d, 0x4a, 0x50, 0x81, 0x63, 0x4a, 0x00, 0x0d, 0x4c, 0x50, 0x83, 0x47, 
  0x4c, 0x00, 0x19, 0x4d, 0x50, 0x83, 0x47, 0x4d, 0x00, 0x19, 0x4a, 0x50, 0x83, 0x47, 0x4a, 0x00, 
  0x19, 0x47, 0x50, 0x81, 0x63, 0x47, 0x00, 0x0d, 0x48, 0x50, 0x81, 0x63, 0x48, 0x00, 0x0d, 0x4a, 
  0x50, 0x83, 0x47, 0x4a, 0x00, 0x19, 0x4c, 0x50, 0x83, 0x47, 0x4c, 0x00, 0x19, 0x48, 0x50, 0x8a, 
  0x57, 0x48, 0x00, 0x82, 0x39, 0x4f, 0x50, 0x81, 0x63, 0x4f, 0x00, 0x0d, 0x4c, 0x50, 0x81, 0x63, 
  0x4c, 0x00, 0x0d, 0x4f, 0x50, 0x81, 0x63, 0x4f, 0x00, 0x0d, 0x4c, 0x50, 0x81, 0x63, 0x4c, 0x00, 
  0x0d, 0x4f, 0x50, 0x81, 0x63, 0x4f, 0x00, 0x0d, 0x4c, 0x50, 0x81, 0x63, 0x4c, 0x00, 0x0d, 0x4f, 
  0x50, 0x81, 0x63, 0x4f, 0x00, 0x0d, 0x4c, 0x50, 0x81, 0x63, 0x4c, 0x00, 0x0d, 0x4f, 0x50, 0x81, 
  0x63, 0x4f, 0x00, 0x0d, 0x4d, 0x50, 0x81, 0x63, 0x4d, 0x00, 0x0d, 0x4f, 0x50, 0x81, 0x63, 0x4f, 
  0x00, 0x0d, 0x4d, 0x50, 0x81, 0x63, 0x4d, 0x00, 0x0d, 0x4f, 0x50, 0x81, 0x63, 0x4f, 0x00, 0x0d, 
  0x4d, 0x50, 0x81, 0x63, 0x4d, 0x00, 0x0d, 0x4f, 0x50, 0x81, 0x63, 0x4f, 0x00, 0x0d, 0x51, 0x50, 
  0x81, 0x63, 0x51, 0x00, 0x0d, 0x53, 0x50, 0x81, 0x63, 0x53, 0x00, 0x0d, 0x54, 0x50, 0x8e, 0x1f, 
  0x54, 0x00, 0x01, 0xff, 0x2f, 0x00, 0x4d, 0x54, 0x72, 0x6b, 0x00, 0x00, 0x02, 0xa9, 0x00, 0xff, 
  0x59, 0x02, 0x00, 0x00, 0x00, 0xff, 0x21, 0x01, 0x00, 0x00, 0x90, 0x30, 0x50, 0x00, 0x34, 0x50, 
  0x00, 0x37, 0x50, 0x8e, 0x1f, 0x30, 0x00, 0x00, 0x34, 0x00, 0x00, 0x37, 0x00, 0x61, 0x34, 0x50, 
  0x00, 0x37, 0x50, 0x00, 0x3b, 0x50, 0x8e, 0x1f, 0x34, 0x00, 0x00, 0x37, 0x00, 0x00, 0x3b, 0x00, 
  0x61, 0x35, 0x50, 0x00, 0x39, 0x50, 0x00, 0x3c, 0x50, 0x8e, 0x1f, 0x35, 0x00, 0x00, 0x39, 0x00, 
  0x00, 0x3c, 0x00, 0x61, 0x34, 0x50, 0x00, 0x37, 0x50, 0x00, 0x3b, 0x50, 0x8e, 0x1f, 0x34, 0x00, 
  0x00, 0x37, 0x00, 0x00, 0x3b, 0x00, 0x61, 0x32, 0x50, 0x00, 0x35, 0x50, 0x00, 0x39, 0x50, 0x8e, 
  0x1f, 0x32, 0x00, 0x00, 0x35, 0x00, 0x00, 0x39, 0x00, 0x61, 0x30, 0x50, 0x00, 0x34, 0x50, 0x00, 
  0x37, 0x50, 0x8e, 0x1f, 0x30, 0x00, 0x00, 0x34, 0x00, 0x00, 0x37, 0x00, 0x61, 0x37, 0x50, 0x00, 
  0x3b, 0x50, 0x00, 0x3e, 0x50, 0x8e, 0x1f, 0x37, 0x00, 0x00, 0x3b, 0x00, 0x00, 0x3e, 0x00, 0x61, 
  0x30, 0x50, 0x00, 0x34, 0x50, 0x00, 0x37, 0x50, 0x8e, 0x1f, 0x30, 0x00, 0x00, 0x34, 0x00, 0x00, 
  0x37, 0x00, 0x61, 0x30, 0x50, 0x00, 0x34, 0x50, 0x00, 0x37, 0x50, 0x8e, 0x1f, 0x30, 0x00, 0x00, 
  0x34, 0x00, 0x00, 0x37, 0x00, 0x61, 0x34, 0x50, 0x00, 0x37, 0x50, 0x00, 0x3b, 0x50, 0x8e, 0x1f, 
  0x34, 0x00, 0x00, 0x37, 0x00, 0x00, 0x3b, 0x00, 0x61, 0x35, 0x50, 0x00, 0x39, 0x50, 0x00, 0x3c, 
  0x50, 0x8e, 0x1f, 0x35, 0x00, 0x00, 0x39, 0x00, 0x00, 0x3c, 0x00, 0x61, 0x34, 0x50, 0x00, 0x37, 
  0x50, 0x00, 0x3b, 0x50, 0x8e, 0x1f, 0x34, 0x00, 0x00, 0x37, 0x00, 0x00, 0x3b, 0x00, 0x61, 0x32, 
  0x50, 0x00, 0x35, 0x50, 0x00, 0x39, 0x50, 0x8e, 0x1f, 0x32, 0x00, 0x00, 0x35, 0x00, 0x00, 0x39, 
  0x00, 0x61, 0x30, 0x50, 0x00, 0x34, 0x50, 0x00, 0x37, 0x50, 0x8e, 0x1f, 0x30, 0x00, 0x00, 0x34, 
  0x00, 0x00, 0x37, 0x00, 0x61, 0x37, 0x50, 0x00, 0x3b, 0x50, 0x00, 0x3e, 0x50, 0x8e, 0x1f, 0x37, 
  0x00, 0x00, 0x3b, 0x00, 0x00, 0x3e, 0x00, 0x61, 0x30, 0x50, 0x00, 0x34, 0x50, 0x00, 0x37, 0x50, 
  0x8e, 0x1f, 0x30, 0x00, 0x00, 0x34, 0x00, 0x00, 0x37, 0x00, 0x61, 0x30, 0x50, 0x00, 0x34, 0x50, 
  0x00, 0x37, 0x50, 0x8e, 0x1f, 0x30, 0x00, 0x00, 0x34, 0x00, 0x00, 0x37, 0x00, 0x61, 0x32, 0x50, 
  0x00, 0x35, 0x50, 0x00, 0x39, 0x50, 0x8e, 0x1f, 0x32, 0x00, 0x00, 0x35, 0x00, 0x00, 0x39, 0x00, 
  0x61, 0x30, 0x50, 0x00, 0x34, 0x50, 0x00, 0x37, 0x50, 0x8e, 0x1f, 0x30, 0x00, 0x00, 0x34, 0x00, 
  0x00, 0x37, 0x00, 0x61, 0x32, 0x50, 0x00, 0x35, 0x50, 0x00, 0x39, 0x50, 0x8e, 0x1f, 0x32, 0x00, 
  0x00, 0x35, 0x00, 0x00, 0x39, 0x00, 0x61, 0x30, 0x50, 0x00, 0x34, 0x50, 0x00, 0x37, 0x50, 0x8e, 
  0x1f, 0x30, 0x00, 0x00, 0x34, 0x00, 0x00, 0x37, 0x00, 0x61, 0x2f, 0x50, 0x00, 0x33, 0x50, 0x00, 
  0x36, 0x50, 0x8e, 0x1f, 0x2f, 0x00, 0x00, 0x33, 0x00, 0x00, 0x36, 0x00, 0x61, 0x32, 0x50, 0x00, 
  0x35, 0x50, 0x00, 0x39, 0x50, 0x8e, 0x1f, 0x32, 0x00, 0x00, 0x35, 0x00, 0x00, 0x39, 0x00, 0x61, 
  0x37, 0x50, 0x00, 0x3b, 0x50, 0x00, 0x3e, 0x50, 0x8e, 0x1f, 0x37, 0x00, 0x00, 0x3b, 0x00, 0x00, 
  0x3e, 0x00, 0x61, 0x30, 0x50, 0x00, 0x34, 0x50, 0x00, 0x37, 0x50, 0x8e, 0x1f, 0x30, 0x00, 0x00, 
  0x34, 0x00, 0x00, 0x37, 0x00, 0x61, 0x34, 0x50, 0x00, 0x37, 0x50, 0x00, 0x3b, 0x50, 0x8e, 0x1f, 
  0x34, 0x00, 0x00, 0x37, 0x00, 0x00, 0x3b, 0x00, 0x61, 0x35, 0x50, 0x00, 0x39, 0x50, 0x00, 0x3c, 
  0x50, 0x8e, 0x1f, 0x35, 0x00, 0x00, 0x39, 0x00, 0x00, 0x3c, 0x00, 0x61, 0x34, 0x50, 0x00, 0x37, 
  0x50, 0x00, 0x3b, 0x50, 0x8e, 0x1f, 0x34, 0x00, 0x00, 0x37, 0x00, 0x00, 0x3b, 0x00, 0x61, 0x32, 
  0x50, 0x00, 0x35, 0x50, 0x00, 0x39, 0x50, 0x8e, 0x1f, 0x32, 0x00, 0x00, 0x35, 0x00, 0x00, 0x39, 
  0x00, 0x61, 0x30, 0x50, 0x00, 0x34, 0x50, 0x00, 0x37, 0x50, 0x8e, 0x1f, 0x30, 0x00, 0x00, 0x34, 
  0x00, 0x00, 0x37, 0x00, 0x61, 0x37, 0x50, 0x00, 0x3b, 0x50, 0x00, 0x3e, 0x50, 0x8e, 0x1f, 0x37, 
  0x00, 0x00, 0x3b, 0x00, 0x00, 0x3e, 0x00, 0x61, 0x30, 0x50, 0x00, 0x34, 0x50, 0x00, 0x37, 0x50, 
  0x8e, 0x1f, 0x30, 0x00, 0x00, 0x34, 0x00, 0x00, 0x37, 0x00, 0x61, 0x30, 0x50, 0x00, 0x34, 0x50, 
  0x00, 0x37, 0x50, 0x8e, 0x1f, 0x30, 0x00, 0x00, 0x34, 0x00, 0x00, 0x37, 0x00, 0x61, 0x37, 0x50, 
  0x00, 0x3b, 0x50, 0x00, 0x3e, 0x50, 0x8e, 0x1f, 0x37, 0x00, 0x00, 0x3b, 0x00, 0x00, 0x3e, 0x00, 
  0x61, 0x30, 0x50, 0x00, 0x34, 0x50, 0x00, 0x37, 0x50, 0x8e, 0x1f, 0x30, 0x00, 0x00, 0x34, 0x00, 
  0x00, 0x37, 0x00, 0x01, 0xff, 0x2f, 0x00
};