// array size is 3959
static const char bytes[]  = {
  0x4d, 0x54, 0x68, 0x64, 0x00, 0x00, 0x00, 0x06, 0x00, 0x01, 0x00, 0x03, 0x01, 0xe0, 0x4d, 0x54, 
  0x72, 0x6b, 0x00, 0x00, 0x00, 0x32, 0x00, 0xff, 0x58, 0x04, 0x03, 0x02, 0x18, 0x08, 0x00, 0xff, 
  0x59, 0x02, 0xff, 0x00, 0x00, 0xff, 0x51, 0x03, 0x06, 0x8a, 0x1c, 0x00, 0xb0, 0x79, 0x00, 0x00, 
  0xc0, 0x00, 0x00, 0xb0, 0x07, 0x64, 0x00, 0x0a, 0x40, 0x00, 0x5b, 0x00, 0x00, 0x5d, 0x00, 0x00, 
  0xff, 0x21, 0x01, 0x00, 0x01, 0xff, 0x2f, 0x00, 0x4d, 0x54, 0x72, 0x6b, 0x00, 0x00, 0x0a, 0x4d, 
  0x00, 0xff, 0x59, 0x02, 0xff, 0x00, 0x00, 0xb1, 0x79, 0x00, 0x00, 0xc1, 0x00, 0x00, 0xb1, 0x07, 
  0x64, 0x00, 0x0a, 0x40, 0x00, 0x5b, 0x00, 0x00, 0x5d, 0x00, 0x00, 0xff, 0x21, 0x01, 0x00, 0x00, 
  0x91, 0x3e, 0x60, 0x83, 0x5f, 0x3e, 0x00, 0x01, 0x3e, 0x50, 0x81, 0x63, 0x3e, 0x00, 0x0d, 0x3e, 
  0x50, 0x81, 0x63, 0x3e, 0x00, 0x0d, 0x3e, 0x50, 0x81, 0x63, 0x3e, 0x00, 0x0d, 0x3e, 0x50, 0x81, 
  0x63, 0x3e, 0x00, 0x0d, 0x3e, 0x60, 0x83, 0x5f, 0x3e, 0x00, 0x01, 0x3e, 0x50, 0x81, 0x63, 0x3e, 
  0x00, 0x0d, 0x3e, 0x50, 0x81, 0x63, 0x3e, 0x00, 0x0d, 0x3e, 0x50, 0x81, 0x63, 0x3e, 0x00, 0x0d, 
  0x3e, 0x50, 0x81, 0x63, 0x3e, 0x00, 0x0d, 0x3e, 0x60, 0x83, 0x5f, 0x3e, 0x00, 0x01, 0x3e, 0x50, 
  0x81, 0x63, 0x3e, 0x00, 0x0d, 0x3e, 0x50, 0x81, 0x63, 0x3e, 0x00, 0x0d, 0x3e, 0x50, 0x81, 0x63, 
  0x3e, 0x00, 0x0d, 0x3e, 0x50, 0x81, 0x63, 0x3e, 0x00, 0x0d, 0x3e, 0x60, 0x83, 0x5f, 0x3e, 0x00, 
  0x01, 0x3e, 0x50, 0x81, 0x63, 0x3e, 0x00, 0x0d, 0x3e, 0x50, 0x81, 0x63, 0x3e, 0x00, 0x0d, 0x39, 
  0x50, 0x81, 0x63, 0x39, 0x00, 0x0d, 0x3c, 0x50, 0x81, 0x63, 0x3c, 0x00, 0x0d, 0x3e, 0x50, 0x83, 
  0x47, 0x3e, 0x00, 0x19, 0x3e, 0x50, 0x83, 0x47, 0x3e, 0x00, 0x19, 0x3e, 0x50, 0x81, 0x63, 0x3e, 
  0x00, 0x0d, 0x40, 0x50, 0x81, 0x63, 0x40, 0x00, 0x0d, 0x41, 0x50, 0x83, 0x47, 0x41, 0x00, 0x19, 
  0x41, 0x50, 0x83, 0x47, 0x41, 0x00, 0x19, 0x41, 0x50, 0x81, 0x63, 0x41, 0x00, 0x0d, 0x43, 0x50, 
  0x81, 0x63, 0x43, 0x00, 0x0d, 0x40, 0x50, 0x83, 0x47, 0x40, 0x00, 0x19, 0x40, 0x50, 0x83, 0x47, 
  0x40, 0x00, 0x19, 0x3e, 0x50, 0x81, 0x63, 0x3e, 0x00, 0x0d, 0x3c, 0x50, 0x81, 0x63, 0x3c, 0x00, 
  0x0d, 0x3c, 0x50, 0x81, 0x63, 0x3c, 0x00, 0x0d, 0x3e, 0x50, 0x83, 0x47, 0x3e, 0x00, 0x82, 0x09, 
  0x39, 0x50, 0x81, 0x63, 0x39, 0x00, 0x0d, 0x3c, 0x50, 0x81, 0x63, 0x3c, 0x00, 0x0d, 0x3e, 0x50, 
  0x83, 0x47, 0x3e, 0x00, 0x19, 0x3e, 0x50, 0x83, 0x47, 0x3e, 0x00, 0x19, 0x3e, 0x50, 0x81, 0x63, 
  0x3e, 0x00, 0x0d, 0x40, 0x50, 0x81, 0x63, 0x40, 0x00, 0x0d, 0x41, 0x50, 0x83, 0x47, 0x41, 0x00, 
  0x19, 0x41, 0x50, 0x83, 0x47, 0x41, 0x00, 0x19, 0x41, 0x50, 0x81, 0x63, 0x41, 0x00, 0x0d, 0x43, 
  0x50, 0x81, 0x63, 0x43, 0x00, 0x0d, 0x40, 0x50, 0x83, 0x47, 0x40, 0x00, 0x19, 0x40, 0x50, 0x83, 
  0x47, 0x40, 0x00, 0x19, 0x3e, 0x50, 0x81, 0x63, 0x3e, 0x00, 0x0d, 0x3c, 0x50, 0x81, 0x63, 0x3c, 
  0x00, 0x0d, 0x3e, 0x50, 0x83, 0x47, 0x3e, 0x00, 0x83, 0x79, 0x39, 0x50, 0x81, 0x63, 0x39, 0x00, 
  0x0d, 0x3c, 0x50, 0x81, 0x63, 0x3c, 0x00, 0x0d, 0x3e, 0x50, 0x83, 0x47, 0x3e, 0x00, 0x19, 0x3e, 
  0x50, 0x83, 0x47, 0x3e, 0x00, 0x19, 0x3e, 0x50, 0x81, 0x63, 0x3e, 0x00, 0x0d, 0x41, 0x50, 0x81, 
  0x63, 0x41, 0x00, 0x0d, 0x43, 0x50, 0x83, 0x47, 0x43, 0x00, 0x19, 0x43, 0x50, 0x83, 0x47, 0x43, 
  0x00, 0x19, 0x43, 0x50, 0x81, 0x63, 0x43, 0x00, 0x0d, 0x45, 0x50, 0x81, 0x63, 0x45, 0x00, 0x0d, 
  0x46, 0x50, 0x83, 0x47, 0x46, 0x00, 0x19, 0x46, 0x50, 0x83, 0x47, 0x46, 0x00, 0x19, 0x45, 0x50, 
  0x81, 0x63, 0x45, 0x00, 0x0d, 0x43, 0x50, 0x81, 0x63, 0x43, 0x00, 0x0d, 0x45, 0x50, 0x81, 0x63, 
  0x45, 0x00, 0x0d, 0x3e, 0x50, 0x83, 0x47, 0x3e, 0x00, 0x82, 0x09, 0x3e, 0x50, 0x81, 0x63, 0x3e, 
  0x00, 0x0d, 0x40, 0x50, 0x81, 0x63, 0x40, 0x00, 0x0d, 0x41, 0x50, 0x83, 0x47, 0x41, 0x00, 0x19, 
  0x41, 0x50, 0x83, 0x47, 0x41, 0x00, 0x19, 0x43, 0x50, 0x83, 0x47, 0x43, 0x00, 0x19, 0x45, 0x50, 
  0x81, 0x63, 0x45, 0x00, 0x0d, 0x3e, 0x50, 0x83, 0x47, 0x3e, 0x00, 0x82, 0x09, 0x3e, 0x50, 0x81, 
  0x63, 0x3e, 0x00, 0x0d, 0x41, 0x50, 0x81, 0x63, 0x41, 0x00, 0x0d, 0x40, 0x50, 0x83, 0x47, 0x40, 
  0x00, 0x19, 0x40, 0x50, 0x83, 0x47, 0x40, 0x00, 0x19, 0x41, 0x50, 0x81, 0x63, 0x41, 0x00, 0x0d, 
  0x3e, 0x50, 0x81, 0x63, 0x3e, 0x00, 0x0d, 0x40, 0x50, 0x83, 0x47, 0x40, 0x00, 0x83, 0x79, 0x45, 
  0x50, 0x81, 0x63, 0x45, 0x00, 0x0d, 0x48, 0x50, 0x81, 0x63, 0x48, 0x00, 0x0d, 0x4a, 0x50, 0x83, 
  0x47, 0x4a, 0x00, 0x19, 0x4a, 0x50, 0x83, 0x47, 0x4a, 0x00, 0x19, 0x4a, 0x50, 0x81, 0x63, 0x4a, 
  0x00, 0x0d, 0x4c, 0x50, 0x81, 0x63, 0x4c, 0x00, 0x0d, 0x4d, 0x50, 0x83, 0x47, 0x4d, 0x00, 0x19, 
  0x4d, 0x50, 0x83, 0x47, 0x4d, 0x00, 0x19, 0x4d, 0x50, 0x81, 0x63, 0x4d, 0x00, 0x0d, 0x4f, 0x50, 
  0x81, 0x63, 0x4f, 0x00, 0x0d, 0x4c, 0x50, 0x83, 0x47, 0x4c, 0x00, 0x19, 0x4c, 0x50, 0x83, 0x47, 
  0x4c, 0x00, 0x19, 0x4a, 0x50, 0x81, 0x63, 0x4a, 0x00, 0x0d, 0x48, 0x50, 0x81, 0x63, 0x48, 0x00, 
  0x0d, 0x48, 0x50, 0x81, 0x63, 0x48, 0x00, 0x0d, 0x4a, 0x50, 0x83, 0x47, 0x4a, 0x00, 0x82, 0x09, 
  0x45, 0x50, 0x81, 0x63, 0x45, 0x00, 0x0d, 0x48, 0x50, 0x81, 0x63, 0x48, 0x00, 0x0d, 0x4a, 0x50, 
  0x83, 0x47, 0x4a, 0x00, 0x19, 0x4a, 0x50, 0x83, 0x47, 0x4a, 0x00, 0x19, 0x4a, 0x50, 0x81, 0x63, 
  0x4a, 0x00, 0x0d, 0x4c, 0x50, 0x81, 0x63, 0x4c, 0x00, 0x0d, 0x4d, 0x50, 0x83, 0x47, 0x4d, 0x00, 
  0x19, 0x4d, 0x50, 0x83, 0x47, 0x4d, 0x00, 0x19, 0x4d, 0x50, 0x81, 0x63, 0x4d, 0x00, 0x0d, 0x4f, 
  0x50, 0x81, 0x63, 0x4f, 0x00, 0x0d, 0x4c, 0x50, 0x83, 0x47, 0x4c, 0x00, 0x19, 0x4c, 0x50, 0x83, 
  0x47, 0x4c, 0x00, 0x19, 0x4a, 0x50, 0x81, 0x63, 0x4a, 0x00, 0x0d, 0x48, 0x50, 0x81, 0x63, 0x48, 
  0x00, 0x0d, 0x4a, 0x50, 0x83, 0x47, 0x4a, 0x00, 0x83, 0x79, 0x45, 0x50, 0x81, 0x63, 0x45, 0x00, 
  0x0d, 0x48, 0x50, 0x81, 0x63, 0x48, 0x00, 0x0d, 0x4a, 0x50, 0x83, 0x47, 0x4a, 0x00, 0x19, 0x4a, 
  0x50, 0x83, 0x47, 0x4a, 0x00, 0x19, 0x4a, 0x50, 0x81, 0x63, 0x4a, 0x00, 0x0d, 0x4d, 0x50, 0x81, 
  0x63, 0x4d, 0x00, 0x0d, 0x4f, 0x50, 0x83, 0x47, 0x4f, 0x00, 0x19, 0x4f, 0x50, 0x83, 0x47, 0x4f, 
  0x00, 0x19, 0x4f, 0x50, 0x81, 0x63, 0x4f, 0x00, 0x0d, 0x51, 0x50, 0x81, 0x63, 0x51, 0x00, 0x0d, 
  0x52, 0x50, 0x83, 0x47, 0x52, 0x00, 0x19, 0x52, 0x50, 0x83, 0x47, 0x52, 0x00, 0x19, 0x51, 0x50, 
  0x81, 0x63, 0x51, 0x00, 0x0d, 0x4f, 0x50, 0x81, 0x63, 0x4f, 0x00, 0x0d, 0x51, 0x50, 0x81, 0x63, 
  0x51, 0x00, 0x0d, 0x4a, 0x50, 0x83, 0x47, 0x4a, 0x00, 0x82, 0x09, 0x4a, 0x50, 0x81, 0x63, 0x4a, 
  0x00, 0x0d, 0x4c, 0x50, 0x81, 0x63, 0x4c, 0x00, 0x0d, 0x4d, 0x50, 0x83, 0x47, 0x4d, 0x00, 0x19, 
  0x4d, 0x50, 0x83, 0x47, 0x4d, 0x00, 0x19, 0x4f, 0x50, 0x83, 0x47, 0x4f, 0x00, 0x19, 0x51, 0x50, 
  0x81, 0x63, 0x51, 0x00, 0x0d, 0x4a, 0x50, 0x83, 0x47, 0x4a, 0x00, 0x82, 0x09, 0x4a, 0x50, 0x81, 
  0x63, 0x4a, 0x00, 0x0d, 0x4d, 0x50, 0x81, 0x63, 0x4d, 0x00, 0x0d, 0x4c, 0x50, 0x83, 0x47, 0x4c, 
  0x00, 0x19, 0x4c, 0x50, 0x83, 0x47, 0x4c, 0x00, 0x19, 0x4a, 0x50, 0x81, 0x63, 0x4a, 0x00, 0x0d, 
  0x48, 0x50, 0x81, 0x63, 0x48, 0x00, 0x0d, 0x4a, 0x50, 0x83, 0x47, 0x4a, 0x00, 0x19, 0x4a, 0x50, 
  0x83, 0x47, 0x4a, 0x00, 0x19, 0x4c, 0x50, 0x83, 0x47, 0x4c, 0x00, 0x19, 0x4d, 0x50, 0x83, 0x47, 
  0x4d, 0x00, 0x19, 0x4d, 0x50, 0x81, 0x63, 0x4d, 0x00, 0x0d, 0x4d, 0x50, 0x81, 0x63, 0x4d, 0x00, 
  0x0d, 0x4f, 0x50, 0x83, 0x47, 0x4f, 0x00, 0x19, 0x51, 0x50, 0x87, 0x0f, 0x51, 0x00, 0x31, 0x4d, 
  0x50, 0x81, 0x63, 0x4d, 0x00, 0x0d, 0x4a, 0x50, 0x81, 0x63, 0x4a, 0x00, 0x0d, 0x45, 0x50, 0x87, 
  0x0f, 0x45, 0x00, 0x84, 0x11, 0x52, 0x50, 0x87, 0x0f, 0x52, 0x00, 0x31, 0x4f, 0x50, 0x81, 0x63, 
  0x4f, 0x00, 0x0d, 0x4a, 0x50, 0x81, 0x63, 0x4a, 0x00, 0x0d, 0x46, 0x50, 0x87, 0x0f, 0x46, 0x00, 
  0x84, 0x11, 0x39, 0x50, 0x00, 0x3e, 0x50, 0x85, 0x2b, 0x39, 0x00, 0x00, 0x3e, 0x00, 0x25, 0x35, 
  0x50, 0x00, 0x3e, 0x50, 0x85, 0x2b, 0x35, 0x00, 0x00, 0x3e, 0x00, 0x25, 0x34, 0x50, 0x00, 0x39, 
  0x50, 0x00, 0x3d, 0x50, 0x85, 0x2b, 0x34, 0x00, 0x00, 0x39, 0x00, 0x00, 0x3d, 0x00, 0x82, 0x15, 
  0x41, 0x50, 0x81, 0x63, 0x41, 0x00, 0x0d, 0x43, 0x50, 0x81, 0x63, 0x43, 0x00, 0x0d, 0x45, 0x50, 
  0x83, 0x47, 0x45, 0x00, 0x19, 0x45, 0x50, 0x83, 0x47, 0x45, 0x00, 0x19, 0x45, 0x50, 0x83, 0x47, 
  0x45, 0x00, 0x19, 0x46, 0x50, 0x81, 0x63, 0x46, 0x00, 0x0d, 0x45, 0x50, 0x83, 0x47, 0x45, 0x00, 
  0x85, 0x69, 0x43, 0x50, 0x83, 0x47, 0x43, 0x00, 0x19, 0x43, 0x50, 0x83, 0x47, 0x43, 0x00, 0x19, 
  0x43, 0x50, 0x83, 0x47, 0x43, 0x00, 0x19, 0x43, 0x50, 0x81, 0x63, 0x43, 0x00, 0x0d, 0x45, 0x50, 
  0x83, 0x47, 0x45, 0x00, 0x85, 0x69, 0x45, 0x50, 0x83, 0x47, 0x45, 0x00, 0x19, 0x45, 0x50, 0x83, 
  0x47, 0x45, 0x00, 0x19, 0x45, 0x50, 0x83, 0x47, 0x45, 0x00, 0x19, 0x46, 0x50, 0x81, 0x63, 0x46, 
  0x00, 0x0d, 0x45, 0x50, 0x83, 0x47, 0x45, 0x00, 0x85, 0x69, 0x43, 0x50, 0x83, 0x47, 0x43, 0x00, 
  0x19, 0x41, 0x50, 0x83, 0x47, 0x41, 0x00, 0x19, 0x40, 0x50, 0x83, 0x47, 0x40, 0x00, 0x19, 0x3e, 
  0x50, 0x87, 0x0f, 0x3e, 0x00, 0x31, 0x3e, 0x50, 0x81, 0x63, 0x3e, 0x00, 0x0d, 0x40, 0x50, 0x81, 
  0x63, 0x40, 0x00, 0x0d, 0x41, 0x50, 0x85, 0x2b, 0x41, 0x00, 0x25, 0x43, 0x50, 0x81, 0x63, 0x43, 
  0x00, 0x0d, 0x45, 0x50, 0x83, 0x47, 0x45, 0x00, 0x19, 0x43, 0x50, 0x83, 0x47, 0x43, 0x00, 0x19, 
  0x41, 0x50, 0x83, 0x47, 0x41, 0x00, 0x19, 0x40, 0x50, 0x83, 0x47, 0x40, 0x00, 0x19, 0x41, 0x50, 
  0x83, 0x47, 0x41, 0x00, 0x19, 0x43, 0x50, 0x83, 0x47, 0x43, 0x00, 0x19, 0x45, 0x50, 0x83, 0x47, 
  0x45, 0x00, 0x19, 0x43, 0x50, 0x87, 0x0f, 0x43, 0x00, 0x31, 0x41, 0x50, 0x81, 0x63, 0x41, 0x00, 
  0x0d, 0x43, 0x50, 0x81, 0x63, 0x43, 0x00, 0x0d, 0x45, 0x50, 0x85, 0x2b, 0x45, 0x00, 0x25, 0x43, 
  0x50, 0x81, 0x63, 0x43, 0x00, 0x0d, 0x41, 0x50, 0x83, 0x47, 0x41, 0x00, 0x19, 0x40, 0x50, 0x83, 
  0x47, 0x40, 0x00, 0x19, 0x41, 0x50, 0x83, 0x47, 0x41, 0x00, 0x19, 0x40, 0x50, 0x83, 0x47, 0x40, 
  0x00, 0x19, 0x3e, 0x50, 0x85, 0x2b, 0x3e, 0x00, 0x25, 0x40, 0x50, 0x81, 0x63, 0x40, 0x00, 0x0d, 
  0x3c, 0x50, 0x83, 0x47, 0x3c, 0x00, 0x19, 0x3e, 0x50, 0x71, 0x3e, 0x00, 0x07, 0x3e, 0x50, 0x71, 
  0x3e, 0x00, 0x07, 0x3e, 0x50, 0x81, 0x63, 0x3e, 0x00, 0x81, 0x7d, 0x3c, 0x50, 0x81, 0x63, 0x3c, 
  0x00, 0x0d, 0x39, 0x50, 0x83, 0x47, 0x39, 0x00, 0x87, 0x59, 0x4a, 0x50, 0x81, 0x63, 0x4a, 0x00, 
  0x0d, 0x4c, 0x50, 0x81, 0x63, 0x4c, 0x00, 0x0d, 0x4d, 0x50, 0x85, 0x2b, 0x4d, 0x00, 0x25, 0x4c, 
  0x50, 0x81, 0x63, 0x4c, 0x00, 0x0d, 0x4d, 0x50, 0x83, 0x47, 0x4d, 0x00, 0x19, 0x4f, 0x50, 0x83, 
  0x47, 0x4f, 0x00, 0x19, 0x4d, 0x50, 0x83, 0x47, 0x4d, 0x00, 0x19, 0x4f, 0x50, 0x83, 0x47, 0x4f, 
  0x00, 0x19, 0x51, 0x50, 0x85, 0x2b, 0x51, 0x00, 0x25, 0x4f, 0x50, 0x81, 0x63, 0x4f, 0x00, 0x0d, 
  0x4d, 0x50, 0x83, 0x47, 0x4d, 0x00, 0x19, 0x4a, 0x50, 0x87, 0x0f, 0x4a, 0x00, 0x31, 0x4a, 0x50, 
  0x81, 0x63, 0x4a, 0x00, 0x0d, 0x4c, 0x50, 0x81, 0x63, 0x4c, 0x00, 0x0d, 0x4d, 0x50, 0x83, 0x47, 
  0x4d, 0x00, 0x19, 0x4f, 0x50, 0x83, 0x47, 0x4f, 0x00, 0x19, 0x51, 0x50, 0x83, 0x47, 0x51, 0x00, 
  0x19, 0x52, 0x50, 0x81, 0x63, 0x52, 0x00, 0x0d, 0x4a, 0x50, 0x81, 0x63, 0x4a, 0x00, 0x83, 0x6d, 
  0x4a, 0x50, 0x81, 0x63, 0x4a, 0x00, 0x0d, 0x4f, 0x50, 0x81, 0x63, 0x4f, 0x00, 0x0d, 0x4d, 0x50, 
  0x87, 0x0f, 0x4d, 0x00, 0x31, 0x4f, 0x50, 0x81, 0x63, 0x4f, 0x00, 0x0d, 0x4c, 0x50, 0x81, 0x63, 
  0x4c, 0x00, 0x0d, 0x4a, 0x50, 0x83, 0x47, 0x4a, 0x00, 0x19, 0x48, 0x50, 0x83, 0x47, 0x48, 0x00, 
  0x19, 0x45, 0x50, 0x83, 0x47, 0x45, 0x00, 0x19, 0x3e, 0x50, 0x83, 0x47, 0x3e, 0x00, 0x19, 0x3e, 
  0x50, 0x81, 0x63, 0x3e, 0x00, 0x0d, 0x40, 0x50, 0x81, 0x63, 0x40, 0x00, 0x0d, 0x41, 0x50, 0x81, 
  0x63, 0x41, 0x00, 0x0d, 0x3e, 0x50, 0x81, 0x63, 0x3e, 0x00, 0x0d, 0x40, 0x50, 0x83, 0x47, 0x40, 
  0x00, 0x19, 0x3e, 0x50, 0x83, 0x47, 0x3e, 0x00, 0x19, 0x3c, 0x50, 0x83, 0x47, 0x3c, 0x00, 0x19, 
  0x3e, 0x50, 0x83, 0x47, 0x3e, 0x00, 0x19, 0x3e, 0x50, 0x81, 0x63, 0x3e, 0x00, 0x0d, 0x40, 0x50, 
  0x81, 0x63, 0x40, 0x00, 0x0d, 0x41, 0x50, 0x81, 0x63, 0x41, 0x00, 0x0d, 0x3e, 0x50, 0x81, 0x63, 
  0x3e, 0x00, 0x0d, 0x40, 0x50, 0x83, 0x47, 0x40, 0x00, 0x19, 0x41, 0x50, 0x83, 0x47, 0x41, 0x00, 
  0x19, 0x43, 0x50, 0x83, 0x47, 0x43, 0x00, 0x19, 0x43, 0x50, 0x83, 0x47, 0x43, 0x00, 0x19, 0x43, 
  0x50, 0x81, 0x63, 0x43, 0x00, 0x0d, 0x45, 0x50, 0x81, 0x63, 0x45, 0x00, 0x0d, 0x46, 0x50, 0x81, 
  0x63, 0x46, 0x00, 0x0d, 0x3e, 0x50, 0x81, 0x63, 0x3e, 0x00, 0x0d, 0x41, 0x50, 0x83, 0x47, 0x41, 
  0x00, 0x19, 0x40, 0x50, 0x83, 0x47, 0x40, 0x00, 0x19, 0x3e, 0x50, 0x83, 0x47, 0x3e, 0x00, 0x19, 
  0x40, 0x50, 0x83, 0x47, 0x40, 0x00, 0x19, 0x3e, 0x50, 0x83, 0x47, 0x3e, 0x00, 0x19, 0x3c, 0x50, 
  0x83, 0x47, 0x3c, 0x00, 0x19, 0x3e, 0x50, 0x81, 0x63, 0x3e, 0x00, 0x0d, 0x41, 0x50, 0x81, 0x63, 
  0x41, 0x00, 0x0d, 0x45, 0x50, 0x81, 0x63, 0x45, 0x00, 0x0d, 0x41, 0x50, 0x81, 0x63, 0x41, 0x00, 
  0x0d, 0x45, 0x50, 0x81, 0x63, 0x45, 0x00, 0x0d, 0x48, 0x50, 0x81, 0x63, 0x48, 0x00, 0x0d, 0x4a, 
  0x50, 0x83, 0x47, 0x4a, 0x00, 0x19, 0x4a, 0x50, 0x81, 0x63, 0x4a, 0x00, 0x0d, 0x4c, 0x50, 0x81, 
  0x63, 0x4c, 0x00, 0x0d, 0x4d, 0x50, 0x81, 0x63, 0x4d, 0x00, 0x0d, 0x4a, 0x50, 0x81, 0x63, 0x4a, 
  0x00, 0x0d, 0x4c, 0x50, 0x83, 0x47, 0x4c, 0x00, 0x19, 0x4a, 0x50, 0x83, 0x47, 0x4a, 0x00, 0x19, 
  0x48, 0x50, 0x83, 0x47, 0x48, 0x00, 0x19, 0x4a, 0x50, 0x83, 0x47, 0x4a, 0x00, 0x19, 0x4a, 0x50, 
  0x81, 0x63, 0x4a, 0x00, 0x0d, 0x4c, 0x50, 0x81, 0x63, 0x4c, 0x00, 0x0d, 0x4d, 0x50, 0x81, 0x63, 
  0x4d, 0x00, 0x0d, 0x4a, 0x50, 0x81, 0x63, 0x4a, 0x00, 0x0d, 0x4c, 0x50, 0x83, 0x47, 0x4c, 0x00, 
  0x19, 0x4d, 0x50, 0x83, 0x47, 0x4d, 0x00, 0x19, 0x4f, 0x50, 0x83, 0x47, 0x4f, 0x00, 0x19, 0x4f, 
  0x50, 0x83, 0x47, 0x4f, 0x00, 0x19, 0x4f, 0x50, 0x81, 0x63, 0x4f, 0x00, 0x0d, 0x51, 0x50, 0x81, 
  0x63, 0x51, 0x00, 0x0d, 0x52, 0x50, 0x81, 0x63, 0x52, 0x00, 0x0d, 0x4a, 0x50, 0x81, 0x63, 0x4a, 
  0x00, 0x0d, 0x4d, 0x50, 0x83, 0x47, 0x4d, 0x00, 0x19, 0x4c, 0x50, 0x83, 0x47, 0x4c, 0x00, 0x19, 
  0x4a, 0x50, 0x83, 0x47, 0x4a, 0x00, 0x19, 0x4c, 0x50, 0x83, 0x47, 0x4c, 0x00, 0x19, 0x4a, 0x50, 
  0x83, 0x47, 0x4a, 0x00, 0x19, 0x48, 0x50, 0x83, 0x47, 0x48, 0x00, 0x19, 0x4a, 0x50, 0x83, 0x47, 
  0x4a, 0x00, 0x19, 0x4a, 0x50, 0x83, 0x47, 0x4a, 0x00, 0x19, 0x4d, 0x50, 0x83, 0x47, 0x4d, 0x00, 
  0x19, 0x4a, 0x50, 0x00, 0x4d, 0x50, 0x00, 0x51, 0x50, 0x83, 0x47, 0x4a, 0x00, 0x00, 0x4d, 0x00, 
  0x00, 0x51, 0x00, 0x87, 0x59, 0x4a, 0x50, 0x00, 0x4f, 0x50, 0x00, 0x52, 0x50, 0x83, 0x47, 0x4a, 
  0x00, 0x00, 0x4f, 0x00, 0x00, 0x52, 0x00, 0x87, 0x59, 0x48, 0x50, 0x00, 0x4d, 0x50, 0x00, 0x51, 
  0x50, 0x83, 0x47, 0x48, 0x00, 0x00, 0x4d, 0x00, 0x00, 0x51, 0x00, 0x19, 0x48, 0x50, 0x00, 0x4d, 
  0x50, 0x00, 0x51, 0x50, 0x83, 0x47, 0x48, 0x00, 0x00, 0x4d, 0x00, 0x00, 0x51, 0x00, 0x19, 0x48, 
  0x50, 0x00, 0x4d, 0x50, 0x00, 0x51, 0x50, 0x83, 0x47, 0x48, 0x00, 0x00, 0x4d, 0x00, 0x00, 0x51, 
  0x00, 0x19, 0x48, 0x50, 0x00, 0x4d, 0x50, 0x00, 0x51, 0x50, 0x81, 0x63, 0x48, 0x00, 0x00, 0x4d, 
  0x00, 0x00, 0x51, 0x00, 0x0d, 0x48, 0x50, 0x00, 0x4c, 0x50, 0x00, 0x4f, 0x50, 0x83, 0x47, 0x48, 
  0x00, 0x00, 0x4c, 0x00, 0x00, 0x4f, 0x00, 0x85, 0x69, 0x46, 0x50, 0x00, 0x4a, 0x50, 0x00, 0x4f, 
  0x50, 0x83, 0x47, 0x46, 0x00, 0x00, 0x4a, 0x00, 0x00, 0x4f, 0x00, 0x87, 0x59, 0x45, 0x50, 0x00, 
  0x4a, 0x50, 0x00, 0x4d, 0x50, 0x83, 0x47, 0x45, 0x00, 0x00, 0x4a, 0x00, 0x00, 0x4d, 0x00, 0x87, 
  0x59, 0x45, 0x50, 0x00, 0x4d, 0x50, 0x83, 0x47, 0x45, 0x00, 0x00, 0x4d, 0x00, 0x19, 0x45, 0x50, 
  0x00, 0x4f, 0x50, 0x83, 0x47, 0x45, 0x00, 0x00, 0x4f, 0x00, 0x19, 0x45, 0x50, 0x00, 0x4c, 0x50, 
  0x83, 0x47, 0x45, 0x00, 0x00, 0x4c, 0x00, 0x19, 0x41, 0x50, 0x00, 0x45, 0x50, 0x00, 0x4a, 0x50, 
  0x85, 0x2b, 0x41, 0x00, 0x00, 0x45, 0x00, 0x00, 0x4a, 0x00, 0x85, 0x75, 0x4a, 0x50, 0x00, 0x4d, 
  0x50, 0x00, 0x51, 0x50, 0x85, 0x2b, 0x4a, 0x00, 0x00, 0x4d, 0x00, 0x00, 0x51, 0x00, 0x85, 0x75, 
  0x4a, 0x50, 0x00, 0x4d, 0x50, 0x00, 0x52, 0x50, 0x85, 0x2b, 0x4a, 0x00, 0x00, 0x4d, 0x00, 0x00, 
  0x52, 0x00, 0x85, 0x75, 0x48, 0x50, 0x00, 0x4d, 0x50, 0x00, 0x51, 0x50, 0x83, 0x47, 0x48, 0x00, 
  0x00, 0x4d, 0x00, 0x00, 0x51, 0x00, 0x19, 0x48, 0x50, 0x00, 0x4d, 0x50, 0x00, 0x51, 0x50, 0x83, 
  0x47, 0x48, 0x00, 0x00, 0x4d, 0x00, 0x00, 0x51, 0x00, 0x19, 0x4d, 0x50, 0x00, 0x54, 0x50, 0x83, 
  0x47, 0x4d, 0x00, 0x00, 0x54, 0x00, 0x19, 0x48, 0x50, 0x00, 0x4c, 0x50, 0x00, 0x51, 0x50, 0x81, 
  0x63, 0x48, 0x00, 0x00, 0x4c, 0x00, 0x00, 0x51, 0x00, 0x0d, 0x48, 0x50, 0x00, 0x4c, 0x50, 0x00, 
  0x4f, 0x50, 0x83, 0x47, 0x48, 0x00, 0x00, 0x4c, 0x00, 0x00, 0x4f, 0x00, 0x85, 0x69, 0x46, 0x50, 
  0x00, 0x4a, 0x50, 0x00, 0x4f, 0x50, 0x83, 0x47, 0x46, 0x00, 0x00, 0x4a, 0x00, 0x00, 0x4f, 0x00, 
  0x87, 0x59, 0x45, 0x50, 0x00, 0x4a, 0x50, 0x00, 0x4d, 0x50, 0x83, 0x47, 0x45, 0x00, 0x00, 0x4a, 
  0x00, 0x00, 0x4d, 0x00, 0x87, 0x59, 0x45, 0x50, 0x00, 0x4d, 0x50, 0x83, 0x47, 0x45, 0x00, 0x00, 
  0x4d, 0x00, 0x19, 0x45, 0x50, 0x00, 0x4f, 0x50, 0x83, 0x47, 0x45, 0x00, 0x00, 0x4f, 0x00, 0x19, 
  0x45, 0x50, 0x00, 0x4c, 0x50, 0x83, 0x47, 0x45, 0x00, 0x00, 0x4c, 0x00, 0x19, 0x41, 0x50, 0x00, 
  0x45, 0x50, 0x00, 0x4a, 0x50, 0x85, 0x2b, 0x41, 0x00, 0x00, 0x45, 0x00, 0x00, 0x4a, 0x00, 0x85, 
  0x75, 0x3e, 0x50, 0x00, 0x41, 0x50, 0x00, 0x45, 0x50, 0x00, 0x4a, 0x50, 0x8a, 0x57, 0x3e, 0x00, 
  0x00, 0x41, 0x00, 0x00, 0x45, 0x00, 0x00, 0x4a, 0x00, 0x01, 0xff, 0x2f, 0x00, 0x4d, 0x54, 0x72, 
  0x6b, 0x00, 0x00, 0x04, 0xd2, 0x00, 0xff, 0x59, 0x02, 0xff, 0x00, 0x00, 0xff, 0x21, 0x01, 0x00, 
  0x96, 0x40, 0x91, 0x26, 0x50, 0x8b, 0x20, 0x32, 0x50, 0x8a, 0x0f, 0x26, 0x00, 0x48, 0x32, 0x00, 
  0x49, 0x32, 0x50, 0x8a, 0x57, 0x32, 0x00, 0x49, 0x2e, 0x50, 0x8a, 0x57, 0x2e, 0x00, 0x49, 0x2d, 
  0x50, 0x8a, 0x57, 0x2d, 0x00, 0x49, 0x30, 0x50, 0x81, 0x63, 0x30, 0x00, 0x0d, 0x32, 0x50, 0x83, 
  0x47, 0x32, 0x00, 0x85, 0x69, 0x2e, 0x50, 0x8a, 0x57, 0x2e, 0x00, 0x49, 0x29, 0x50, 0x8a, 0x57, 
  0x29, 0x00, 0x49, 0x30, 0x50, 0x87, 0x0f, 0x30, 0x00, 0x31, 0x2d, 0x50, 0x83, 0x47, 0x2d, 0x00, 
  0x19, 0x32, 0x50, 0x8a, 0x57, 0x32, 0x00, 0x49, 0x32, 0x50, 0x8a, 0x57, 0x32, 0x00, 0x49, 0x2e, 
  0x50, 0x8a, 0x57, 0x2e, 0x00, 0x49, 0x2b, 0x50, 0x8a, 0x57, 0x2b, 0x00, 0x49, 0x32, 0x50, 0x8a, 
  0x57, 0x32, 0x00, 0x49, 0x2e, 0x50, 0x8a, 0x57, 0x2e, 0x00, 0x49, 0x32, 0x50, 0x8a, 0x57, 0x32, 
  0x00, 0x49, 0x2d, 0x50, 0x8a, 0x57, 0x2d, 0x00, 0x49, 0x2d, 0x50, 0x8a, 0x57, 0x2d, 0x00, 0x49, 
  0x32, 0x50, 0x8a, 0x57, 0x32, 0x00, 0x49, 0x2e, 0x50, 0x8a, 0x57, 0x2e, 0x00, 0x49, 0x2d, 0x50, 
  0x8a, 0x57, 0x2d, 0x00, 0x49, 0x32, 0x50, 0x8a, 0x57, 0x32, 0x00, 0x49, 0x2e, 0x50, 0x8a, 0x57, 
  0x2e, 0x00, 0x49, 0x29, 0x50, 0x8a, 0x57, 0x29, 0x00, 0x49, 0x30, 0x50, 0x87, 0x0f, 0x30, 0x00, 
  0x31, 0x2d, 0x50, 0x83, 0x47, 0x2d, 0x00, 0x19, 0x32, 0x50, 0x8a, 0x57, 0x32, 0x00, 0x49, 0x32, 
  0x50, 0x8a, 0x57, 0x32, 0x00, 0x49, 0x2e, 0x50, 0x8a, 0x57, 0x2e, 0x00, 0x49, 0x2b, 0x50, 0x8a, 
  0x57, 0x2b, 0x00, 0x49, 0x32, 0x50, 0x8a, 0x57, 0x32, 0x00, 0x49, 0x2e, 0x50, 0x8a, 0x57, 0x2e, 
  0x00, 0x49, 0x32, 0x50, 0x8a, 0x57, 0x32, 0x00, 0x49, 0x2d, 0x50, 0x8a, 0x57, 0x2d, 0x00, 0x49, 
  0x32, 0x50, 0x8a, 0x57, 0x32, 0x00, 0x49, 0x30, 0x50, 0x83, 0x47, 0x30, 0x00, 0x19, 0x30, 0x50, 
  0x83, 0x47, 0x30, 0x00, 0x19, 0x2e, 0x50, 0x83, 0x47, 0x2e, 0x00, 0x19, 0x2d, 0x50, 0x8a, 0x57, 
  0x2d, 0x00, 0x49, 0x2d, 0x50, 0x8a, 0x57, 0x2d, 0x00, 0x49, 0x2b, 0x50, 0x8a, 0x57, 0x2b, 0x00, 
  0x49, 0x2b, 0x50, 0x8a, 0x57, 0x2b, 0x00, 0x49, 0x2d, 0x50, 0x8a, 0x57, 0x2d, 0x00, 0x49, 0x2d, 
  0x50, 0x8a, 0x57, 0x2d, 0x00, 0x49, 0x32, 0x50, 0x8a, 0x57, 0x32, 0x00, 0x49, 0x32, 0x50, 0x8a, 
  0x57, 0x32, 0x00, 0x49, 0x30, 0x50, 0x8a, 0x57, 0x30, 0x00, 0x49, 0x35, 0x50, 0x8a, 0x57, 0x35, 
  0x00, 0x49, 0x32, 0x50, 0x8a, 0x57, 0x32, 0x00, 0x49, 0x32, 0x50, 0x8a, 0x57, 0x32, 0x00, 0x49, 
  0x2d, 0x50, 0x8a, 0x57, 0x2d, 0x00, 0x49, 0x32, 0x50, 0x8a, 0x57, 0x32, 0x00, 0x49, 0x32, 0x50, 
  0x8a, 0x57, 0x32, 0x00, 0x49, 0x30, 0x50, 0x8a, 0x57, 0x30, 0x00, 0x49, 0x35, 0x50, 0x8a, 0x57, 
  0x35, 0x00, 0x49, 0x30, 0x50, 0x8a, 0x57, 0x30, 0x00, 0x49, 0x35, 0x50, 0x8a, 0x57, 0x35, 0x00, 
  0x49, 0x2d, 0x50, 0x8a, 0x57, 0x2d, 0x00, 0x49, 0x32, 0x50, 0x8a, 0x57, 0x32, 0x00, 0x49, 0x32, 
  0x50, 0x8a, 0x57, 0x32, 0x00, 0x49, 0x26, 0x50, 0x71, 0x26, 0x00, 0x07, 0x26, 0x50, 0x71, 0x26, 
  0x00, 0x07, 0x26, 0x50, 0x81, 0x63, 0x26, 0x00, 0x81, 0x7d, 0x24, 0x50, 0x81, 0x63, 0x24, 0x00, 
  0x0d, 0x21, 0x50, 0x83, 0x47, 0x21, 0x00, 0x19, 0x32, 0x50, 0x8a, 0x57, 0x32, 0x00, 0x49, 0x30, 
  0x50, 0x8a, 0x57, 0x30, 0x00, 0x49, 0x35, 0x50, 0x8a, 0x57, 0x35, 0x00, 0x49, 0x2e, 0x50, 0x8a, 
  0x57, 0x2e, 0x00, 0x49, 0x32, 0x50, 0x8a, 0x57, 0x32, 0x00, 0x49, 0x2b, 0x50, 0x8a, 0x57, 0x2b, 
  0x00, 0x49, 0x2d, 0x50, 0x8a, 0x57, 0x2d, 0x00, 0x49, 0x2d, 0x50, 0x8a, 0x57, 0x2d, 0x00, 0x49, 
  0x32, 0x50, 0x8a, 0x57, 0x32, 0x00, 0x49, 0x30, 0x50, 0x8a, 0x57, 0x30, 0x00, 0x49, 0x32, 0x50, 
  0x8a, 0x57, 0x32, 0x00, 0x49, 0x34, 0x50, 0x8a, 0x57, 0x34, 0x00, 0x49, 0x37, 0x50, 0x8a, 0x57, 
  0x37, 0x00, 0x49, 0x35, 0x50, 0x8a, 0x57, 0x35, 0x00, 0x49, 0x34, 0x50, 0x8a, 0x57, 0x34, 0x00, 
  0x49, 0x32, 0x50, 0x8a, 0x57, 0x32, 0x00, 0x49, 0x32, 0x50, 0x8a, 0x57, 0x32, 0x00, 0x49, 0x30, 
  0x50, 0x8a, 0x57, 0x30, 0x00, 0x49, 0x32, 0x50, 0x8a, 0x57, 0x32, 0x00, 0x49, 0x34, 0x50, 0x8a, 
  0x57, 0x34, 0x00, 0x49, 0x37, 0x50, 0x8a, 0x57, 0x37, 0x00, 0x49, 0x35, 0x50, 0x8a, 0x57, 0x35, 
  0x00, 0x49, 0x34, 0x50, 0x8a, 0x57, 0x34, 0x00, 0x49, 0x32, 0x50, 0x8a, 0x57, 0x32, 0x00, 0x49, 
  0x32, 0x50, 0x00, 0x39, 0x50, 0x81, 0x63, 0x32, 0x00, 0x00, 0x39, 0x00, 0x83, 0x6d, 0x32, 0x50, 
  0x81, 0x63, 0x32, 0x00, 0x0d, 0x35, 0x50, 0x81, 0x63, 0x35, 0x00, 0x0d, 0x39, 0x50, 0x81, 0x63, 
  0x39, 0x00, 0x0d, 0x2b, 0x50, 0x00, 0x32, 0x50, 0x81, 0x63, 0x2b, 0x00, 0x00, 0x32, 0x00, 0x83, 
  0x6d, 0x2b, 0x50, 0x81, 0x63, 0x2b, 0x00, 0x0d, 0x2e, 0x50, 0x81, 0x63, 0x2e, 0x00, 0x0d, 0x32, 
  0x50, 0x81, 0x63, 0x32, 0x00, 0x0d, 0x35, 0x50, 0x00, 0x3c, 0x50, 0x81, 0x63, 0x35, 0x00, 0x00, 
  0x3c, 0x00, 0x83, 0x6d, 0x35, 0x50, 0x81, 0x63, 0x35, 0x00, 0x0d, 0x39, 0x50, 0x81, 0x63, 0x39, 
  0x00, 0x0d, 0x3c, 0x50, 0x81, 0x63, 0x3c, 0x00, 0x0d, 0x30, 0x50, 0x00, 0x37, 0x50, 0x81, 0x63, 
  0x30, 0x00, 0x00, 0x37, 0x00, 0x83, 0x6d, 0x30, 0x50, 0x81, 0x63, 0x30, 0x00, 0x0d, 0x34, 0x50, 
  0x81, 0x63, 0x34, 0x00, 0x0d, 0x37, 0x50, 0x81, 0x63, 0x37, 0x00, 0x0d, 0x2b, 0x50, 0x00, 0x32, 
  0x50, 0x81, 0x63, 0x2b, 0x00, 0x00, 0x32, 0x00, 0x83, 0x6d, 0x2b, 0x50, 0x81, 0x63, 0x2b, 0x00, 
  0x0d, 0x2e, 0x50, 0x81, 0x63, 0x2e, 0x00, 0x0d, 0x32, 0x50, 0x81, 0x63, 0x32, 0x00, 0x0d, 0x2d, 
  0x50, 0x00, 0x34, 0x50, 0x81, 0x63, 0x2d, 0x00, 0x00, 0x34, 0x00, 0x83, 0x6d, 0x2d, 0x50, 0x81, 
  0x63, 0x2d, 0x00, 0x0d, 0x30, 0x50, 0x81, 0x63, 0x30, 0x00, 0x0d, 0x34, 0x50, 0x81, 0x63, 0x34, 
  0x00, 0x0d, 0x2d, 0x50, 0x00, 0x34, 0x50, 0x81, 0x63, 0x2d, 0x00, 0x00, 0x34, 0x00, 0x83, 0x6d, 
  0x2d, 0x50, 0x81, 0x63, 0x2d, 0x00, 0x0d, 0x30, 0x50, 0x81, 0x63, 0x30, 0x00, 0x0d, 0x34, 0x50, 
  0x81, 0x63, 0x34, 0x00, 0x0d, 0x32, 0x50, 0x00, 0x39, 0x50, 0x81, 0x63, 0x32, 0x00, 0x00, 0x39, 
  0x00, 0x83, 0x6d, 0x32, 0x50, 0x81, 0x63, 0x32, 0x00, 0x0d, 0x35, 0x50, 0x81, 0x63, 0x35, 0x00, 
  0x0d, 0x39, 0x50, 0x81, 0x63, 0x39, 0x00, 0x0d, 0x32, 0x50, 0x00, 0x39, 0x50, 0x81, 0x63, 0x32, 
  0x00, 0x00, 0x39, 0x00, 0x83, 0x6d, 0x32, 0x50, 0x81, 0x63, 0x32, 0x00, 0x0d, 0x35, 0x50, 0x81, 
  0x63, 0x35, 0x00, 0x0d, 0x39, 0x50, 0x81, 0x63, 0x39, 0x00, 0x0d, 0x2e, 0x50, 0x00, 0x35, 0x50, 
  0x81, 0x63, 0x2e, 0x00, 0x00, 0x35, 0x00, 0x83, 0x6d, 0x2e, 0x50, 0x81, 0x63, 0x2e, 0x00, 0x0d, 
  0x32, 0x50, 0x81, 0x63, 0x32, 0x00, 0x0d, 0x35, 0x50, 0x81, 0x63, 0x35, 0x00, 0x0d, 0x35, 0x50, 
  0x00, 0x3c, 0x50, 0x81, 0x63, 0x35, 0x00, 0x00, 0x3c, 0x00, 0x83, 0x6d, 0x35, 0x50, 0x81, 0x63, 
  0x35, 0x00, 0x0d, 0x39, 0x50, 0x81, 0x63, 0x39, 0x00, 0x0d, 0x3c, 0x50, 0x81, 0x63, 0x3c, 0x00, 
  0x0d, 0x30, 0x50, 0x00, 0x37, 0x50, 0x81, 0x63, 0x30, 0x00, 0x00, 0x37, 0x00, 0x83, 0x6d, 0x30, 
  0x50, 0x81, 0x63, 0x30, 0x00, 0x0d, 0x34, 0x50, 0x81, 0x63, 0x34, 0x00, 0x0d, 0x37, 0x50, 0x81, 
  0x63, 0x37, 0x00, 0x0d, 0x2b, 0x50, 0x00, 0x32, 0x50, 0x81, 0x63, 0x2b, 0x00, 0x00, 0x32, 0x00, 
  0x83, 0x6d, 0x2b, 0x50, 0x81, 0x63, 0x2b, 0x00, 0x0d, 0x2e, 0x50, 0x81, 0x63, 0x2e, 0x00, 0x0d, 
  0x32, 0x50, 0x81, 0x63, 0x32, 0x00, 0x0d, 0x2d, 0x50, 0x00, 0x34, 0x50, 0x81, 0x63, 0x2d, 0x00, 
  0x00, 0x34, 0x00, 0x83, 0x6d, 0x2d, 0x50, 0x81, 0x63, 0x2d, 0x00, 0x0d, 0x30, 0x50, 0x81, 0x63, 
  0x30, 0x00, 0x0d, 0x34, 0x50, 0x81, 0x63, 0x34, 0x00, 0x0d, 0x2d, 0x50, 0x00, 0x34, 0x50, 0x81, 
  0x63, 0x2d, 0x00, 0x00, 0x34, 0x00, 0x83, 0x6d, 0x2d, 0x50, 0x81, 0x63, 0x2d, 0x00, 0x0d, 0x30, 
  0x50, 0x81, 0x63, 0x30, 0x00, 0x0d, 0x34, 0x50, 0x81, 0x63, 0x34, 0x00, 0x0d, 0x32, 0x50, 0x81, 
  0x63, 0x32, 0x00, 0x0d, 0x39, 0x50, 0x81, 0x63, 0x39, 0x00, 0x0d, 0x2d, 0x50, 0x81, 0x63, 0x2d, 
  0x00, 0x0d, 0x35, 0x50, 0x81, 0x63, 0x35, 0x00, 0x0d, 0x39, 0x50, 0x81, 0x63, 0x39, 0x00, 0x0d, 
  0x32, 0x50, 0x81, 0x63, 0x32, 0x00, 0x0d, 0x26, 0x50, 0x00, 0x32, 0x50, 0x8a, 0x57, 0x26, 0x00, 
  0x00, 0x32, 0x00, 0x01, 0xff, 0x2f, 0x00
};