// array size is 2710
static const char bytes[]  = {
  0x4d, 0x54, 0x68, 0x64, 0x00, 0x00, 0x00, 0x06, 0x00, 0x01, 0x00, 0x02, 0x01, 0xe0, 0x4d, 0x54, 
  0x72, 0x6b, 0x00, 0x00, 0x06, 0x60, 0x00, 0xff, 0x58, 0x04, 0x04, 0x02, 0x18, 0x08, 0x00, 0xff, 
  0x59, 0x02, 0xfe, 0x00, 0x00, 0xff, 0x51, 0x03, 0x07, 0xa1, 0x20, 0x00, 0xb0, 0x79, 0x00, 0x00, 
  0x07, 0x64, 0x00, 0x0a, 0x3f, 0x00, 0x5b, 0x00, 0x00, 0x5d, 0x00, 0x00, 0xff, 0x21, 0x01, 0x00, 
  0x00, 0x90, 0x52, 0x50, 0x83, 0x5f, 0x52, 0x00, 0x01, 0x51, 0x50, 0x83, 0x5f, 0x51, 0x00, 0x01, 
  0x52, 0x50, 0x83, 0x5f, 0x52, 0x00, 0x01, 0x51, 0x50, 0x83, 0x5f, 0x51, 0x00, 0x01, 0x52, 0x50, 
  0x83, 0x5f, 0x52, 0x00, 0x01, 0x4d, 0x50, 0x83, 0x5f, 0x4d, 0x00, 0x01, 0x52, 0x50, 0x83, 0x5f, 
  0x52, 0x00, 0x01, 0x4b, 0x50, 0x83, 0x5f, 0x4b, 0x00, 0x9e, 0x01, 0x52, 0x50, 0x83, 0x5f, 0x52, 
  0x00, 0x01, 0x51, 0x50, 0x83, 0x5f, 0x51, 0x00, 0x01, 0x52, 0x50, 0x83, 0x5f, 0x52, 0x00, 0x01, 
  0x51, 0x50, 0x83, 0x5f, 0x51, 0x00, 0x01, 0x52, 0x50, 0x83, 0x5f, 0x52, 0x00, 0x01, 0x4d, 0x50, 
  0x83, 0x5f, 0x4d, 0x00, 0x01, 0x52, 0x50, 0x83, 0x5f, 0x52, 0x00, 0x01, 0x4b, 0x50, 0x83, 0x5f, 
  0x4b, 0x00, 0x96, 0x41, 0x46, 0x50, 0x81, 0x6f, 0x46, 0x00, 0x01, 0x4a, 0x50, 0x81, 0x6f, 0x4a, 
  0x00, 0x01, 0x52, 0x50, 0x83, 0x5f, 0x52, 0x00, 0x01, 0x51, 0x50, 0x81, 0x6f, 0x51, 0x00, 0x01, 
  0x52, 0x50, 0x85, 0x4f, 0x52, 0x00, 0x01, 0x51, 0x50, 0x81, 0x6f, 0x51, 0x00, 0x01, 0x52, 0x50, 
  0x85, 0x4f, 0x52, 0x00, 0x01, 0x51, 0x50, 0x81, 0x6f, 0x51, 0x00, 0x01, 0x52, 0x50, 0x85, 0x4f, 
  0x52, 0x00, 0x01, 0x4d, 0x50, 0x81, 0x6f, 0x4d, 0x00, 0x01, 0x4b, 0x50, 0x81, 0x6f, 0x4b, 0x00, 
  0x01, 0x4a, 0x50, 0x83, 0x5f, 0x4a, 0x00, 0x01, 0x4b, 0x50, 0x83, 0x5f, 0x4b, 0x00, 0x01, 0x4d, 
  0x50, 0x83, 0x5f, 0x4d, 0x00, 0x01, 0x4a, 0x50, 0x83, 0x5f, 0x4a, 0x00, 0x01, 0x48, 0x50, 0x83, 
  0x5f, 0x48, 0x00, 0x87, 0x41, 0x46, 0x50, 0x81, 0x6f, 0x46, 0x00, 0x01, 0x4a, 0x50, 0x81, 0x6f, 
  0x4a, 0x00, 0x01, 0x52, 0x50, 0x83, 0x5f, 0x52, 0x00, 0x01, 0x51, 0x50, 0x81, 0x6f, 0x51, 0x00, 
  0x01, 0x52, 0x50, 0x85, 0x4f, 0x52, 0x00, 0x01, 0x51, 0x50, 0x81, 0x6f, 0x51, 0x00, 0x01, 0x52, 
  0x50, 0x85, 0x4f, 0x52, 0x00, 0x01, 0x51, 0x50, 0x81, 0x6f, 0x51, 0x00, 0x01, 0x52, 0x50, 0x85, 
  0x4f, 0x52, 0x00, 0x01, 0x4d, 0x50, 0x81, 0x6f, 0x4d, 0x00, 0x01, 0x4b, 0x50, 0x81, 0x6f, 0x4b, 
  0x00, 0x01, 0x4a, 0x50, 0x83, 0x5f, 0x4a, 0x00, 0x01, 0x4b, 0x50, 0x83, 0x5f, 0x4b, 0x00, 0x01, 
  0x4d, 0x50, 0x83, 0x5f, 0x4d, 0x00, 0x01, 0x4a, 0x50, 0x83, 0x5f, 0x4a, 0x00, 0x01, 0x48, 0x50, 
  0x83, 0x5f, 0x48, 0x00, 0x87, 0x41, 0x46, 0x50, 0x81, 0x6f, 0x46, 0x00, 0x01, 0x45, 0x50, 0x81, 
  0x6f, 0x45, 0x00, 0x01, 0x46, 0x50, 0x83, 0x5f, 0x46, 0x00, 0x87, 0x41, 0x46, 0x50, 0x81, 0x6f, 
  0x46, 0x00, 0x01, 0x48, 0x50, 0x81, 0x6f, 0x48, 0x00, 0x01, 0x4a, 0x50, 0x83, 0x5f, 0x4a, 0x00, 
  0x87, 0x41, 0x4a, 0x50, 0x81, 0x6f, 0x4a, 0x00, 0x01, 0x4b, 0x50, 0x81, 0x6f, 0x4b, 0x00, 0x01, 
  0x4d, 0x50, 0x83, 0x5f, 0x4d, 0x00, 0x87, 0x41, 0x4b, 0x50, 0x81, 0x6f, 0x4b, 0x00, 0x01, 0x4a, 
  0x50, 0x81, 0x6f, 0x4a, 0x00, 0x01, 0x48, 0x50, 0x83, 0x5f, 0x48, 0x00, 0x83, 0x61, 0x52, 0x50, 
  0x81, 0x6f, 0x52, 0x00, 0x01, 0x54, 0x50, 0x81, 0x6f, 0x54, 0x00, 0x01, 0x52, 0x50, 0x81, 0x6f, 
  0x52, 0x00, 0x01, 0x51, 0x50, 0x81, 0x6f, 0x51, 0x00, 0x01, 0x52, 0x50, 0x83, 0x5f, 0x52, 0x00, 
  0x01, 0x4d, 0x50, 0x83, 0x5f, 0x4d, 0x00, 0x01, 0x52, 0x50, 0x81, 0x6f, 0x52, 0x00, 0x01, 0x54, 
  0x50, 0x81, 0x6f, 0x54, 0x00, 0x01, 0x52, 0x50, 0x81, 0x6f, 0x52, 0x00, 0x01, 0x51, 0x50, 0x81, 
  0x6f, 0x51, 0x00, 0x01, 0x52, 0x50, 0x83, 0x5f, 0x52, 0x00, 0x01, 0x4d, 0x50, 0x83, 0x5f, 0x4d, 
  0x00, 0x01, 0x52, 0x50, 0x81, 0x6f, 0x52, 0x00, 0x01, 0x54, 0x50, 0x81, 0x6f, 0x54, 0x00, 0x01, 
  0x52, 0x50, 0x81, 0x6f, 0x52, 0x00, 0x01, 0x51, 0x50, 0x81, 0x6f, 0x51, 0x00, 0x01, 0x52, 0x50, 
  0x81, 0x6f, 0x52, 0x00, 0x01, 0x54, 0x50, 0x81, 0x6f, 0x54, 0x00, 0x01, 0x56, 0x50, 0x81, 0x6f, 
  0x56, 0x00, 0x01, 0x57, 0x50, 0x81, 0x6f, 0x57, 0x00, 0x01, 0x59, 0x50, 0x81, 0x6f, 0x59, 0x00, 
  0x01, 0x56, 0x50, 0x81, 0x6f, 0x56, 0x00, 0x01, 0x54, 0x50, 0x81, 0x6f, 0x54, 0x00, 0x01, 0x52, 
  0x50, 0x81, 0x6f, 0x52, 0x00, 0x01, 0x51, 0x50, 0x83, 0x5f, 0x51, 0x00, 0x83, 0x61, 0x52, 0x50, 
  0x81, 0x6f, 0x52, 0x00, 0x01, 0x54, 0x50, 0x81, 0x6f, 0x54, 0x00, 0x01, 0x52, 0x50, 0x81, 0x6f, 
  0x52, 0x00, 0x01, 0x51, 0x50, 0x81, 0x6f, 0x51, 0x00, 0x01, 0x52, 0x50, 0x83, 0x5f, 0x52, 0x00, 
  0x01, 0x4d, 0x50, 0x83, 0x5f, 0x4d, 0x00, 0x01, 0x52, 0x50, 0x81, 0x6f, 0x52, 0x00, 0x01, 0x54, 
  0x50, 0x81, 0x6f, 0x54, 0x00, 0x01, 0x52, 0x50, 0x81, 0x6f, 0x52, 0x00, 0x01, 0x51, 0x50, 0x81, 
  0x6f, 0x51, 0x00, 0x01, 0x52, 0x50, 0x83, 0x5f, 0x52, 0x00, 0x01, 0x4d, 0x50, 0x83, 0x5f, 0x4d, 
  0x00, 0x01, 0x52, 0x50, 0x81, 0x6f, 0x52, 0x00, 0x01, 0x54, 0x50, 0x81, 0x6f, 0x54, 0x00, 0x01, 
  0x52, 0x50, 0x81, 0x6f, 0x52, 0x00, 0x01, 0x51, 0x50, 0x81, 0x6f, 0x51, 0x00, 0x01, 0x52, 0x50, 
  0x81, 0x6f, 0x52, 0x00, 0x01, 0x54, 0x50, 0x81, 0x6f, 0x54, 0x00, 0x01, 0x56, 0x50, 0x81, 0x6f, 
  0x56, 0x00, 0x01, 0x57, 0x50, 0x81, 0x6f, 0x57, 0x00, 0x01, 0x59, 0x50, 0x81, 0x6f, 0x59, 0x00, 
  0x01, 0x56, 0x50, 0x81, 0x6f, 0x56, 0x00, 0x01, 0x54, 0x50, 0x81, 0x6f, 0x54, 0x00, 0x01, 0x52, 
  0x50, 0x81, 0x6f, 0x52, 0x00, 0x01, 0x51, 0x50, 0x83, 0x5f, 0x51, 0x00, 0x96, 0x41, 0x46, 0x50, 
  0x81, 0x6f, 0x46, 0x00, 0x01, 0x4a, 0x50, 0x81, 0x6f, 0x4a, 0x00, 0x01, 0x52, 0x50, 0x83, 0x5f, 
  0x52, 0x00, 0x01, 0x51, 0x50, 0x81, 0x6f, 0x51, 0x00, 0x01, 0x52, 0x50, 0x85, 0x4f, 0x52, 0x00, 
  0x01, 0x51, 0x50, 0x81, 0x6f, 0x51, 0x00, 0x01, 0x52, 0x50, 0x85, 0x4f, 0x52, 0x00, 0x01, 0x51, 
  0x50, 0x81, 0x6f, 0x51, 0x00, 0x01, 0x52, 0x50, 0x85, 0x4f, 0x52, 0x00, 0x01, 0x4d, 0x50, 0x81, 
  0x6f, 0x4d, 0x00, 0x01, 0x4b, 0x50, 0x81, 0x6f, 0x4b, 0x00, 0x01, 0x4a, 0x50, 0x83, 0x5f, 0x4a, 
  0x00, 0x01, 0x4b, 0x50, 0x83, 0x5f, 0x4b, 0x00, 0x01, 0x4d, 0x50, 0x83, 0x5f, 0x4d, 0x00, 0x01, 
  0x4a, 0x50, 0x83, 0x5f, 0x4a, 0x00, 0x01, 0x48, 0x50, 0x83, 0x5f, 0x48, 0x00, 0x87, 0x41, 0x46, 
  0x50, 0x81, 0x6f, 0x46, 0x00, 0x01, 0x4a, 0x50, 0x81, 0x6f, 0x4a, 0x00, 0x01, 0x52, 0x50, 0x83, 
  0x5f, 0x52, 0x00, 0x01, 0x51, 0x50, 0x81, 0x6f, 0x51, 0x00, 0x01, 0x52, 0x50, 0x85, 0x4f, 0x52, 
  0x00, 0x01, 0x51, 0x50, 0x81, 0x6f, 0x51, 0x00, 0x01, 0x52, 0x50, 0x85, 0x4f, 0x52, 0x00, 0x01, 
  0x51, 0x50, 0x81, 0x6f, 0x51, 0x00, 0x01, 0x52, 0x50, 0x85, 0x4f, 0x52, 0x00, 0x01, 0x4d, 0x50, 
  0x81, 0x6f, 0x4d, 0x00, 0x01, 0x4b, 0x50, 0x81, 0x6f, 0x4b, 0x00, 0x01, 0x4a, 0x50, 0x83, 0x5f, 
  0x4a, 0x00, 0x01, 0x4b, 0x50, 0x83, 0x5f, 0x4b, 0x00, 0x01, 0x4d, 0x50, 0x83, 0x5f, 0x4d, 0x00, 
  0x01, 0x52, 0x50, 0x00, 0x56, 0x50, 0x83, 0x5f, 0x52, 0x00, 0x00, 0x56, 0x00, 0x01, 0x54, 0x50, 
  0x83, 0x5f, 0x54, 0x00, 0x82, 0x69, 0x52, 0x50, 0x77, 0x52, 0x00, 0x01, 0x56, 0x50, 0x81, 0x6f, 
  0x56, 0x00, 0x01, 0x54, 0x50, 0x81, 0x6f, 0x54, 0x00, 0x01, 0x52, 0x50, 0x81, 0x6f, 0x52, 0x00, 
  0x01, 0x51, 0x50, 0x81, 0x6f, 0x51, 0x00, 0x01, 0x52, 0x50, 0x83, 0x5f, 0x52, 0x00, 0x87, 0x41, 
  0x52, 0x50, 0x81, 0x6f, 0x52, 0x00, 0x01, 0x54, 0x50, 0x81, 0x6f, 0x54, 0x00, 0x01, 0x56, 0x50, 
  0x83, 0x5f, 0x56, 0x00, 0x87, 0x41, 0x56, 0x50, 0x81, 0x6f, 0x56, 0x00, 0x01, 0x57, 0x50, 0x81, 
  0x6f, 0x57, 0x00, 0x01, 0x59, 0x50, 0x83, 0x5f, 0x59, 0x00, 0x87, 0x41, 0x57, 0x50, 0x81, 0x6f, 
  0x57, 0x00, 0x01, 0x56, 0x50, 0x81, 0x6f, 0x56, 0x00, 0x01, 0x54, 0x50, 0x83, 0x5f, 0x54, 0x00, 
  0x83, 0x61, 0x52, 0x50, 0x81, 0x6f, 0x52, 0x00, 0x01, 0x54, 0x50, 0x81, 0x6f, 0x54, 0x00, 0x01, 
  0x52, 0x50, 0x81, 0x6f, 0x52, 0x00, 0x01, 0x51, 0x50, 0x81, 0x6f, 0x51, 0x00, 0x01, 0x52, 0x50, 
  0x83, 0x5f, 0x52, 0x00, 0x01, 0x4d, 0x50, 0x83, 0x5f, 0x4d, 0x00, 0x01, 0x52, 0x50, 0x81, 0x6f, 
  0x52, 0x00, 0x01, 0x54, 0x50, 0x81, 0x6f, 0x54, 0x00, 0x01, 0x52, 0x50, 0x81, 0x6f, 0x52, 0x00, 
  0x01, 0x51, 0x50, 0x81, 0x6f, 0x51, 0x00, 0x01, 0x52, 0x50, 0x83, 0x5f, 0x52, 0x00, 0x01, 0x4d, 
  0x50, 0x83, 0x5f, 0x4d, 0x00, 0x01, 0x52, 0x50, 0x81, 0x6f, 0x52, 0x00, 0x01, 0x54, 0x50, 0x81, 
  0x6f, 0x54, 0x00, 0x01, 0x52, 0x50, 0x81, 0x6f, 0x52, 0x00, 0x01, 0x51, 0x50, 0x81, 0x6f, 0x51, 
  0x00, 0x01, 0x52, 0x50, 0x81, 0x6f, 0x52, 0x00, 0x01, 0x54, 0x50, 0x81, 0x6f, 0x54, 0x00, 0x01, 
  0x56, 0x50, 0x81, 0x6f, 0x56, 0x00, 0x01, 0x57, 0x50, 0x81, 0x6f, 0x57, 0x00, 0x01, 0x59, 0x50, 
  0x81, 0x6f, 0x59, 0x00, 0x01, 0x56, 0x50, 0x81, 0x6f, 0x56, 0x00, 0x01, 0x54, 0x50, 0x81, 0x6f, 
  0x54, 0x00, 0x01, 0x52, 0x50, 0x81, 0x6f, 0x52, 0x00, 0x01, 0x51, 0x50, 0x83, 0x5f, 0x51, 0x00, 
  0x83, 0x61, 0x52, 0x50, 0x81, 0x6f, 0x52, 0x00, 0x01, 0x54, 0x50, 0x81, 0x6f, 0x54, 0x00, 0x01, 
  0x52, 0x50, 0x81, 0x6f, 0x52, 0x00, 0x01, 0x51, 0x50, 0x81, 0x6f, 0x51, 0x00, 0x01, 0x52, 0x50, 
  0x83, 0x5f, 0x52, 0x00, 0x01, 0x4d, 0x50, 0x83, 0x5f, 0x4d, 0x00, 0x01, 0x52, 0x50, 0x81, 0x6f, 
  0x52, 0x00, 0x01, 0x54, 0x50, 0x81, 0x6f, 0x54, 0x00, 0x01, 0x52, 0x50, 0x81, 0x6f, 0x52, 0x00, 
  0x01, 0x51, 0x50, 0x81, 0x6f, 0x51, 0x00, 0x01, 0x52, 0x50, 0x83, 0x5f, 0x52, 0x00, 0x01, 0x4d, 
  0x50, 0x83, 0x5f, 0x4d, 0x00, 0x01, 0x52, 0x50, 0x81, 0x6f, 0x52, 0x00, 0x01, 0x54, 0x50, 0x81, 
  0x6f, 0x54, 0x00, 0x01, 0x52, 0x50, 0x81, 0x6f, 0x52, 0x00, 0x01, 0x51, 0x50, 0x81, 0x6f, 0x51, 
  0x00, 0x01, 0x52, 0x50, 0x81, 0x6f, 0x52, 0x00, 0x01, 0x54, 0x50, 0x81, 0x6f, 0x54, 0x00, 0x01, 
  0x56, 0x50, 0x81, 0x6f, 0x56, 0x00, 0x01, 0x57, 0x50, 0x81, 0x6f, 0x57, 0x00, 0x01, 0x59, 0x50, 
  0x81, 0x6f, 0x59, 0x00, 0x01, 0x56, 0x50, 0x81, 0x6f, 0x56, 0x00, 0x01, 0x54, 0x50, 0x81, 0x6f, 
  0x54, 0x00, 0x01, 0x52, 0x50, 0x81, 0x6f, 0x52, 0x00, 0x01, 0x51, 0x50, 0x83, 0x5f, 0x51, 0x00, 
  0x8f, 0x01, 0x52, 0x50, 0x83, 0x5f, 0x52, 0x00, 0x01, 0x51, 0x50, 0x83, 0x5f, 0x51, 0x00, 0x01, 
  0x52, 0x50, 0x83, 0x5f, 0x52, 0x00, 0x01, 0x51, 0x50, 0x83, 0x5f, 0x51, 0x00, 0x01, 0x52, 0x50, 
  0x83, 0x5f, 0x52, 0x00, 0x01, 0x4d, 0x50, 0x83, 0x5f, 0x4d, 0x00, 0x01, 0x52, 0x50, 0x83, 0x5f, 
  0x52, 0x00, 0x01, 0x4b, 0x50, 0x83, 0x5f, 0x4b, 0x00, 0x8f, 0x01, 0x52, 0x50, 0x83, 0x5f, 0x52, 
  0x00, 0x01, 0x51, 0x50, 0x83, 0x5f, 0x51, 0x00, 0x01, 0x52, 0x50, 0x83, 0x5f, 0x52, 0x00, 0x01, 
  0x51, 0x50, 0x83, 0x5f, 0x51, 0x00, 0x01, 0x52, 0x50, 0x83, 0x5f, 0x52, 0x00, 0x01, 0x4d, 0x50, 
  0x83, 0x5f, 0x4d, 0x00, 0x01, 0x52, 0x50, 0x83, 0x5f, 0x52, 0x00, 0x01, 0x4b, 0x50, 0x83, 0x5f, 
  0x4b, 0x00, 0x01, 0xff, 0x2f, 0x00, 0x4d, 0x54, 0x72, 0x6b, 0x00, 0x00, 0x04, 0x18, 0x00, 0xff, 
  0x59, 0x02, 0xfe, 0x00, 0x00, 0xff, 0x21, 0x01, 0x00, 0x00, 0x90, 0x2b, 0x50, 0x83, 0x5f, 0x2b, 
  0x00, 0x01, 0x32, 0x50, 0x83, 0x5f, 0x32, 0x00, 0x01, 0x37, 0x50, 0x87, 0x3f, 0x37, 0x00, 0x01, 
  0x33, 0x50, 0x83, 0x5f, 0x33, 0x00, 0x01, 0x3a, 0x50, 0x83, 0x5f, 0x3a, 0x00, 0x01, 0x3f, 0x50, 
  0x87, 0x3f, 0x3f, 0x00, 0x9e, 0x01, 0x2b, 0x50, 0x83, 0x5f, 0x2b, 0x00, 0x01, 0x32, 0x50, 0x83, 
  0x5f, 0x32, 0x00, 0x01, 0x37, 0x50, 0x87, 0x3f, 0x37, 0x00, 0x01, 0x33, 0x50, 0x83, 0x5f, 0x33, 
  0x00, 0x01, 0x3a, 0x50, 0x83, 0x5f, 0x3a, 0x00, 0x01, 0x3f, 0x50, 0x87, 0x3f, 0x3f, 0x00, 0x8f, 
  0x01, 0x33, 0x50, 0x00, 0x3a, 0x50, 0x8b, 0x1f, 0x33, 0x00, 0x00, 0x3a, 0x00, 0x01, 0x2b, 0x50, 
  0x83, 0x5f, 0x2b, 0x00, 0x01, 0x32, 0x50, 0x83, 0x5f, 0x32, 0x00, 0x01, 0x37, 0x50, 0x83, 0x5f, 
  0x37, 0x00, 0x83, 0x61, 0x33, 0x50, 0x83, 0x5f, 0x33, 0x00, 0x01, 0x3a, 0x50, 0x83, 0x5f, 0x3a, 
  0x00, 0x01, 0x3f, 0x50, 0x87, 0x3f, 0x3f, 0x00, 0x01, 0x2e, 0x50, 0x83, 0x5f, 0x2e, 0x00, 0x01, 
  0x35, 0x50, 0x83, 0x5f, 0x35, 0x00, 0x01, 0x3a, 0x50, 0x83, 0x5f, 0x3a, 0x00, 0x83, 0x61, 0x29, 
  0x50, 0x83, 0x5f, 0x29, 0x00, 0x01, 0x30, 0x50, 0x83, 0x5f, 0x30, 0x00, 0x01, 0x35, 0x50, 0x87, 
  0x3f, 0x35, 0x00, 0x01, 0x2b, 0x50, 0x83, 0x5f, 0x2b, 0x00, 0x01, 0x32, 0x50, 0x83, 0x5f, 0x32, 
  0x00, 0x01, 0x37, 0x50, 0x83, 0x5f, 0x37, 0x00, 0x83, 0x61, 0x33, 0x50, 0x83, 0x5f, 0x33, 0x00, 
  0x01, 0x3a, 0x50, 0x83, 0x5f, 0x3a, 0x00, 0x01, 0x3f, 0x50, 0x87, 0x3f, 0x3f, 0x00, 0x01, 0x2e, 
  0x50, 0x83, 0x5f, 0x2e, 0x00, 0x01, 0x35, 0x50, 0x83, 0x5f, 0x35, 0x00, 0x01, 0x3a, 0x50, 0x87, 
  0x3f, 0x3a, 0x00, 0x01, 0x29, 0x50, 0x83, 0x5f, 0x29, 0x00, 0x01, 0x30, 0x50, 0x83, 0x5f, 0x30, 
  0x00, 0x01, 0x35, 0x50, 0x87, 0x3f, 0x35, 0x00, 0x01, 0x2b, 0x50, 0x83, 0x5f, 0x2b, 0x00, 0x01, 
  0x32, 0x50, 0x83, 0x5f, 0x32, 0x00, 0x01, 0x37, 0x50, 0x87, 0x3f, 0x37, 0x00, 0x01, 0x33, 0x50, 
  0x83, 0x5f, 0x33, 0x00, 0x01, 0x3a, 0x50, 0x83, 0x5f, 0x3a, 0x00, 0x01, 0x3f, 0x50, 0x87, 0x3f, 
  0x3f, 0x00, 0x01, 0x2e, 0x50, 0x83, 0x5f, 0x2e, 0x00, 0x01, 0x35, 0x50, 0x83, 0x5f, 0x35, 0x00, 
  0x01, 0x3a, 0x50, 0x87, 0x3f, 0x3a, 0x00, 0x01, 0x29, 0x50, 0x83, 0x5f, 0x29, 0x00, 0x01, 0x30, 
  0x50, 0x83, 0x5f, 0x30, 0x00, 0x01, 0x35, 0x50, 0x87, 0x3f, 0x35, 0x00, 0x01, 0x2b, 0x50, 0x83, 
  0x5f, 0x2b, 0x00, 0x01, 0x32, 0x50, 0x83, 0x5f, 0x32, 0x00, 0x01, 0x37, 0x50, 0x87, 0x3f, 0x37, 
  0x00, 0x01, 0x33, 0x50, 0x83, 0x5f, 0x33, 0x00, 0x01, 0x3a, 0x50, 0x83, 0x5f, 0x3a, 0x00, 0x01, 
  0x3f, 0x50, 0x87, 0x3f, 0x3f, 0x00, 0x01, 0x2e, 0x50, 0x83, 0x5f, 0x2e, 0x00, 0x01, 0x35, 0x50, 
  0x83, 0x5f, 0x35, 0x00, 0x01, 0x3a, 0x50, 0x87, 0x3f, 0x3a, 0x00, 0x01, 0x29, 0x50, 0x83, 0x5f, 
  0x29, 0x00, 0x01, 0x30, 0x50, 0x83, 0x5f, 0x30, 0x00, 0x01, 0x35, 0x50, 0x87, 0x3f, 0x35, 0x00, 
  0x01, 0x2b, 0x50, 0x83, 0x5f, 0x2b, 0x00, 0x01, 0x32, 0x50, 0x83, 0x5f, 0x32, 0x00, 0x01, 0x37, 
  0x50, 0x87, 0x3f, 0x37, 0x00, 0x01, 0x33, 0x50, 0x83, 0x5f, 0x33, 0x00, 0x01, 0x3a, 0x50, 0x83, 
  0x5f, 0x3a, 0x00, 0x01, 0x3f, 0x50, 0x87, 0x3f, 0x3f, 0x00, 0x01, 0x2e, 0x50, 0x83, 0x5f, 0x2e, 
  0x00, 0x01, 0x35, 0x50, 0x83, 0x5f, 0x35, 0x00, 0x01, 0x3a, 0x50, 0x87, 0x3f, 0x3a, 0x00, 0x01, 
  0x29, 0x50, 0x83, 0x5f, 0x29, 0x00, 0x01, 0x30, 0x50, 0x83, 0x5f, 0x30, 0x00, 0x01, 0x35, 0x50, 
  0x8b, 0x1f, 0x35, 0x00, 0x8b, 0x21, 0x2b, 0x50, 0x83, 0x5f, 0x2b, 0x00, 0x01, 0x32, 0x50, 0x83, 
  0x5f, 0x32, 0x00, 0x01, 0x37, 0x50, 0x83, 0x5f, 0x37, 0x00, 0x83, 0x61, 0x33, 0x50, 0x83, 0x5f, 
  0x33, 0x00, 0x01, 0x3a, 0x50, 0x83, 0x5f, 0x3a, 0x00, 0x01, 0x3f, 0x50, 0x87, 0x3f, 0x3f, 0x00, 
  0x01, 0x2e, 0x50, 0x83, 0x5f, 0x2e, 0x00, 0x01, 0x35, 0x50, 0x83, 0x5f, 0x35, 0x00, 0x01, 0x3a, 
  0x50, 0x83, 0x5f, 0x3a, 0x00, 0x83, 0x61, 0x29, 0x50, 0x83, 0x5f, 0x29, 0x00, 0x01, 0x30, 0x50, 
  0x83, 0x5f, 0x30, 0x00, 0x01, 0x35, 0x50, 0x87, 0x3f, 0x35, 0x00, 0x01, 0x2b, 0x50, 0x83, 0x5f, 
  0x2b, 0x00, 0x01, 0x32, 0x50, 0x83, 0x5f, 0x32, 0x00, 0x01, 0x37, 0x50, 0x83, 0x5f, 0x37, 0x00, 
  0x83, 0x61, 0x33, 0x50, 0x83, 0x5f, 0x33, 0x00, 0x01, 0x3a, 0x50, 0x83, 0x5f, 0x3a, 0x00, 0x01, 
  0x3f, 0x50, 0x87, 0x3f, 0x3f, 0x00, 0x01, 0x2e, 0x50, 0x83, 0x5f, 0x2e, 0x00, 0x01, 0x35, 0x50, 
  0x83, 0x5f, 0x35, 0x00, 0x01, 0x3a, 0x50, 0x83, 0x5f, 0x3a, 0x00, 0x83, 0x61, 0x29, 0x50, 0x83, 
  0x5f, 0x29, 0x00, 0x01, 0x30, 0x50, 0x83, 0x5f, 0x30, 0x00, 0x01, 0x35, 0x50, 0x87, 0x3f, 0x35, 
  0x00, 0x01, 0x2b, 0x50, 0x83, 0x5f, 0x2b, 0x00, 0x01, 0x32, 0x50, 0x83, 0x5f, 0x32, 0x00, 0x01, 
  0x37, 0x50, 0x87, 0x3f, 0x37, 0x00, 0x01, 0x33, 0x50, 0x83, 0x5f, 0x33, 0x00, 0x01, 0x3a, 0x50, 
  0x83, 0x5f, 0x3a, 0x00, 0x01, 0x3f, 0x50, 0x87, 0x3f, 0x3f, 0x00, 0x01, 0x2e, 0x50, 0x83, 0x5f, 
  0x2e, 0x00, 0x01, 0x35, 0x50, 0x83, 0x5f, 0x35, 0x00, 0x01, 0x3a, 0x50, 0x87, 0x3f, 0x3a, 0x00, 
  0x01, 0x29, 0x50, 0x83, 0x5f, 0x29, 0x00, 0x01, 0x30, 0x50, 0x83, 0x5f, 0x30, 0x00, 0x01, 0x35, 
  0x50, 0x87, 0x3f, 0x35, 0x00, 0x01, 0x2b, 0x50, 0x83, 0x5f, 0x2b, 0x00, 0x01, 0x32, 0x50, 0x83, 
  0x5f, 0x32, 0x00, 0x01, 0x37, 0x50, 0x87, 0x3f, 0x37, 0x00, 0x01, 0x33, 0x50, 0x83, 0x5f, 0x33, 
  0x00, 0x01, 0x3a, 0x50, 0x83, 0x5f, 0x3a, 0x00, 0x01, 0x3f, 0x50, 0x87, 0x3f, 0x3f, 0x00, 0x01, 
  0x2e, 0x50, 0x83, 0x5f, 0x2e, 0x00, 0x01, 0x35, 0x50, 0x83, 0x5f, 0x35, 0x00, 0x01, 0x3a, 0x50, 
  0x87, 0x3f, 0x3a, 0x00, 0x01, 0x29, 0x50, 0x83, 0x5f, 0x29, 0x00, 0x01, 0x30, 0x50, 0x83, 0x5f, 
  0x30, 0x00, 0x01, 0x35, 0x50, 0x87, 0x3f, 0x35, 0x00, 0x01, 0x2b, 0x50, 0x83, 0x5f, 0x2b, 0x00, 
  0x01, 0x32, 0x50, 0x83, 0x5f, 0x32, 0x00, 0x01, 0x37, 0x50, 0x87, 0x3f, 0x37, 0x00, 0x01, 0x33, 
  0x50, 0x83, 0x5f, 0x33, 0x00, 0x01, 0x3a, 0x50, 0x83, 0x5f, 0x3a, 0x00, 0x01, 0x3f, 0x50, 0x87, 
  0x3f, 0x3f, 0x00, 0x01, 0x2e, 0x50, 0x83, 0x5f, 0x2e, 0x00, 0x01, 0x35, 0x50, 0x83, 0x5f, 0x35, 
  0x00, 0x01, 0x3a, 0x50, 0x87, 0x3f, 0x3a, 0x00, 0x01, 0x29, 0x50, 0x83, 0x5f, 0x29, 0x00, 0x01, 
  0x30, 0x50, 0x83, 0x5f, 0x30, 0x00, 0x01, 0x35, 0x50, 0x8b, 0x1f, 0x35, 0x00, 0x01, 0x2b, 0x50, 
  0x83, 0x5f, 0x2b, 0x00, 0x01, 0x32, 0x50, 0x83, 0x5f, 0x32, 0x00, 0x01, 0x37, 0x50, 0x87, 0x3f, 
  0x37, 0x00, 0x01, 0x33, 0x50, 0x83, 0x5f, 0x33, 0x00, 0x01, 0x3a, 0x50, 0x83, 0x5f, 0x3a, 0x00, 
  0x01, 0x3f, 0x50, 0x87, 0x3f, 0x3f, 0x00, 0x8f, 0x01, 0x2b, 0x50, 0x83, 0x5f, 0x2b, 0x00, 0x01, 
  0x32, 0x50, 0x83, 0x5f, 0x32, 0x00, 0x01, 0x37, 0x50, 0x87, 0x3f, 0x37, 0x00, 0x01, 0x33, 0x50, 
  0x83, 0x5f, 0x33, 0x00, 0x01, 0x3a, 0x50, 0x83, 0x5f, 0x3a, 0x00, 0x01, 0x3f, 0x50, 0x87, 0x3f, 
  0x3f, 0x00, 0x01, 0xff, 0x2f, 0x00
};