// array size is 1600
static const char bytes[]  = {
  0x4d, 0x54, 0x68, 0x64, 0x00, 0x00, 0x00, 0x06, 0x00, 0x01, 0x00, 0x02, 0x01, 0xe0, 0x4d, 0x54, 
  0x72, 0x6b, 0x00, 0x00, 0x04, 0x5e, 0x00, 0xff, 0x58, 0x04, 0x04, 0x02, 0x18, 0x08, 0x00, 0xff, 
  0x59, 0x02, 0x00, 0x00, 0x00, 0xff, 0x59, 0x02, 0x00, 0x00, 0x00, 0xff, 0x51, 0x03, 0x07, 0xa1, 
  0x20, 0x00, 0xb0, 0x79, 0x00, 0x00, 0xc0, 0x00, 0x00, 0xb0, 0x07, 0x64, 0x00, 0x0a, 0x40, 0x00, 
  0x5b, 0x00, 0x00, 0x5d, 0x00, 0x00, 0xff, 0x21, 0x01, 0x00, 0x8b, 0x20, 0x90, 0x3c, 0x50, 0x83, 
  0x47, 0x3c, 0x00, 0x19, 0x40, 0x50, 0x83, 0x47, 0x40, 0x00, 0x19, 0x40, 0x50, 0x83, 0x47, 0x40, 
  0x00, 0x19, 0x40, 0x50, 0x83, 0x47, 0x40, 0x00, 0x19, 0x3e, 0x50, 0x81, 0x63, 0x3e, 0x00, 0x0d, 
  0x3c, 0x50, 0x81, 0x63, 0x3c, 0x00, 0x0d, 0x43, 0x50, 0x8a, 0x57, 0x43, 0x00, 0x49, 0x43, 0x50, 
  0x81, 0x63, 0x43, 0x00, 0x0d, 0x41, 0x50, 0x81, 0x63, 0x41, 0x00, 0x0d, 0x40, 0x50, 0x83, 0x47, 
  0x40, 0x00, 0x19, 0x40, 0x50, 0x83, 0x47, 0x40, 0x00, 0x19, 0x40, 0x50, 0x83, 0x47, 0x40, 0x00, 
  0x19, 0x3e, 0x50, 0x81, 0x63, 0x3e, 0x00, 0x0d, 0x3c, 0x50, 0x81, 0x63, 0x3c, 0x00, 0x0d, 0x43, 
  0x50, 0x8a, 0x57, 0x43, 0x00, 0x49, 0x43, 0x50, 0x81, 0x63, 0x43, 0x00, 0x0d, 0x41, 0x50, 0x81, 
  0x63, 0x41, 0x00, 0x0d, 0x40, 0x50, 0x83, 0x47, 0x40, 0x00, 0x19, 0x41, 0x50, 0x81, 0x63, 0x41, 
  0x00, 0x0d, 0x43, 0x50, 0x81, 0x63, 0x43, 0x00, 0x0d, 0x41, 0x50, 0x83, 0x47, 0x41, 0x00, 0x19, 
  0x40, 0x50, 0x83, 0x47, 0x40, 0x00, 0x19, 0x3e, 0x50, 0x87, 0x0f, 0x3e, 0x00, 0x84, 0x11, 0x40, 
  0x50, 0x83, 0x47, 0x40, 0x00, 0x19, 0x40, 0x50, 0x83, 0x47, 0x40, 0x00, 0x19, 0x40, 0x50, 0x83, 
  0x47, 0x40, 0x00, 0x19, 0x40, 0x50, 0x83, 0x47, 0x40, 0x00, 0x19, 0x3e, 0x50, 0x81, 0x63, 0x3e, 
  0x00, 0x0d, 0x3c, 0x50, 0x81, 0x63, 0x3c, 0x00, 0x0d, 0x43, 0x50, 0x8a, 0x57, 0x43, 0x00, 0x49, 
  0x43, 0x50, 0x81, 0x63, 0x43, 0x00, 0x0d, 0x41, 0x50, 0x81, 0x63, 0x41, 0x00, 0x0d, 0x40, 0x50, 
  0x83, 0x47, 0x40, 0x00, 0x19, 0x40, 0x50, 0x83, 0x47, 0x40, 0x00, 0x19, 0x40, 0x50, 0x83, 0x47, 
  0x40, 0x00, 0x19, 0x3e, 0x50, 0x81, 0x63, 0x3e, 0x00, 0x0d, 0x3c, 0x50, 0x81, 0x63, 0x3c, 0x00, 
  0x0d, 0x43, 0x50, 0x8a, 0x57, 0x43, 0x00, 0x49, 0x43, 0x50, 0x81, 0x63, 0x43, 0x00, 0x0d, 0x41, 
  0x50, 0x81, 0x63, 0x41, 0x00, 0x0d, 0x40, 0x50, 0x83, 0x47, 0x40, 0x00, 0x19, 0x41, 0x50, 0x81, 
  0x63, 0x41, 0x00, 0x0d, 0x43, 0x50, 0x81, 0x63, 0x43, 0x00, 0x0d, 0x41, 0x50, 0x83, 0x47, 0x41, 
  0x00, 0x19, 0x40, 0x50, 0x83, 0x47, 0x40, 0x00, 0x19, 0x3e, 0x50, 0x87, 0x0f, 0x3e, 0x00, 0x84, 
  0x11, 0x40, 0x50, 0x83, 0x47, 0x40, 0x00, 0x19, 0x43, 0x50, 0x83, 0x47, 0x43, 0x00, 0x19, 0x41, 
  0x50, 0x81, 0x63, 0x41, 0x00, 0x0d, 0x40, 0x50, 0x81, 0x63, 0x40, 0x00, 0x0d, 0x41, 0x50, 0x83, 
  0x47, 0x41, 0x00, 0x19, 0x43, 0x50, 0x83, 0x47, 0x43, 0x00, 0x19, 0x45, 0x50, 0x83, 0x47, 0x45, 
  0x00, 0x19, 0x43, 0x50, 0x87, 0x0f, 0x43, 0x00, 0x31, 0x40, 0x50, 0x83, 0x47, 0x40, 0x00, 0x19, 
  0x43, 0x50, 0x83, 0x47, 0x43, 0x00, 0x19, 0x41, 0x50, 0x81, 0x63, 0x41, 0x00, 0x0d, 0x40, 0x50, 
  0x81, 0x63, 0x40, 0x00, 0x0d, 0x41, 0x50, 0x83, 0x47, 0x41, 0x00, 0x19, 0x43, 0x50, 0x83, 0x47, 
  0x43, 0x00, 0x19, 0x45, 0x50, 0x83, 0x47, 0x45, 0x00, 0x19, 0x43, 0x50, 0x87, 0x0f, 0x43, 0x00, 
  0x31, 0x41, 0x50, 0x83, 0x47, 0x41, 0x00, 0x19, 0x40, 0x50, 0x83, 0x47, 0x40, 0x00, 0x19, 0x3e, 
  0x50, 0x81, 0x63, 0x3e, 0x00, 0x0d, 0x3c, 0x50, 0x81, 0x63, 0x3c, 0x00, 0x0d, 0x3e, 0x50, 0x87, 
  0x0f, 0x3e, 0x00, 0x31, 0x3c, 0x50, 0x87, 0x0f, 0x3c, 0x00, 0x84, 0x11, 0x40, 0x50, 0x83, 0x47, 
  0x40, 0x00, 0x19, 0x43, 0x50, 0x83, 0x47, 0x43, 0x00, 0x19, 0x41, 0x50, 0x81, 0x63, 0x41, 0x00, 
  0x0d, 0x40, 0x50, 0x81, 0x63, 0x40, 0x00, 0x0d, 0x41, 0x50, 0x83, 0x47, 0x41, 0x00, 0x19, 0x43, 
  0x50, 0x83, 0x47, 0x43, 0x00, 0x19, 0x45, 0x50, 0x83, 0x47, 0x45, 0x00, 0x19, 0x43, 0x50, 0x87, 
  0x0f, 0x43, 0x00, 0x31, 0x40, 0x50, 0x83, 0x47, 0x40, 0x00, 0x19, 0x43, 0x50, 0x83, 0x47, 0x43, 
  0x00, 0x19, 0x41, 0x50, 0x81, 0x63, 0x41, 0x00, 0x0d, 0x40, 0x50, 0x81, 0x63, 0x40, 0x00, 0x0d, 
  0x41, 0x50, 0x83, 0x47, 0x41, 0x00, 0x19, 0x43, 0x50, 0x83, 0x47, 0x43, 0x00, 0x19, 0x45, 0x50, 
  0x83, 0x47, 0x45, 0x00, 0x19, 0x43, 0x50, 0x87, 0x0f, 0x43, 0x00, 0x31, 0x40, 0x50, 0x83, 0x47, 
  0x40, 0x00, 0x19, 0x45, 0x50, 0x83, 0x47, 0x45, 0x00, 0x19, 0x43, 0x50, 0x87, 0x0f, 0x43, 0x00, 
  0x31, 0x41, 0x50, 0x83, 0x47, 0x41, 0x00, 0x19, 0x40, 0x50, 0x83, 0x47, 0x40, 0x00, 0x19, 0x3e, 
  0x50, 0x81, 0x63, 0x3e, 0x00, 0x0d, 0x3c, 0x50, 0x81, 0x63, 0x3c, 0x00, 0x0d, 0x3e, 0x50, 0x87, 
  0x0f, 0x3e, 0x00, 0x31, 0x3c, 0x50, 0x8a, 0x57, 0x3c, 0x00, 0x49, 0x3c, 0x50, 0x83, 0x47, 0x3c, 
  0x00, 0x19, 0x40, 0x50, 0x83, 0x47, 0x40, 0x00, 0x19, 0x40, 0x50, 0x83, 0x47, 0x40, 0x00, 0x19, 
  0x40, 0x50, 0x83, 0x47, 0x40, 0x00, 0x19, 0x3e, 0x50, 0x81, 0x63, 0x3e, 0x00, 0x0d, 0x40, 0x50, 
  0x81, 0x63, 0x40, 0x00, 0x0d, 0x41, 0x50, 0x8a, 0x57, 0x41, 0x00, 0x49, 0x41, 0x50, 0x81, 0x63, 
  0x41, 0x00, 0x0d, 0x40, 0x50, 0x81, 0x63, 0x40, 0x00, 0x0d, 0x3e, 0x50, 0x83, 0x47, 0x3e, 0x00, 
  0x19, 0x3e, 0x50, 0x83, 0x47, 0x3e, 0x00, 0x19, 0x3e, 0x50, 0x83, 0x47, 0x3e, 0x00, 0x19, 0x3c, 
  0x50, 0x81, 0x63, 0x3c, 0x00, 0x0d, 0x3e, 0x50, 0x81, 0x63, 0x3e, 0x00, 0x0d, 0x40, 0x50, 0x8a, 
  0x57, 0x40, 0x00, 0x49, 0x40, 0x50, 0x81, 0x63, 0x40, 0x00, 0x0d, 0x41, 0x50, 0x81, 0x63, 0x41, 
  0x00, 0x0d, 0x43, 0x50, 0x83, 0x47, 0x43, 0x00, 0x19, 0x43, 0x50, 0x83, 0x47, 0x43, 0x00, 0x19, 
  0x43, 0x50, 0x83, 0x47, 0x43, 0x00, 0x19, 0x43, 0x50, 0x81, 0x63, 0x43, 0x00, 0x0d, 0x41, 0x50, 
  0x81, 0x63, 0x41, 0x00, 0x0d, 0x40, 0x50, 0x83, 0x47, 0x40, 0x00, 0x19, 0x40, 0x50, 0x83, 0x47, 
  0x40, 0x00, 0x19, 0x40, 0x50, 0x83, 0x47, 0x40, 0x00, 0x19, 0x40, 0x50, 0x81, 0x63, 0x40, 0x00, 
  0x0d, 0x41, 0x50, 0x81, 0x63, 0x41, 0x00, 0x0d, 0x43, 0x50, 0x83, 0x47, 0x43, 0x00, 0x19, 0x43, 
  0x50, 0x83, 0x47, 0x43, 0x00, 0x19, 0x43, 0x50, 0x83, 0x47, 0x43, 0x00, 0x19, 0x41, 0x50, 0x81, 
  0x63, 0x41, 0x00, 0x0d, 0x40, 0x50, 0x81, 0x63, 0x40, 0x00, 0x0d, 0x3e, 0x50, 0x8a, 0x57, 0x3e, 
  0x00, 0x49, 0x40, 0x50, 0x83, 0x47, 0x40, 0x00, 0x19, 0x43, 0x50, 0x83, 0x47, 0x43, 0x00, 0x19, 
  0x41, 0x50, 0x81, 0x63, 0x41, 0x00, 0x0d, 0x40, 0x50, 0x81, 0x63, 0x40, 0x00, 0x0d, 0x41, 0x50, 
  0x83, 0x47, 0x41, 0x00, 0x19, 0x43, 0x50, 0x83, 0x47, 0x43, 0x00, 0x19, 0x45, 0x50, 0x83, 0x47, 
  0x45, 0x00, 0x19, 0x43, 0x50, 0x87, 0x0f, 0x43, 0x00, 0x31, 0x40, 0x50, 0x83, 0x47, 0x40, 0x00, 
  0x19, 0x43, 0x50, 0x83, 0x47, 0x43, 0x00, 0x19, 0x41, 0x50, 0x81, 0x63, 0x41, 0x00, 0x0d, 0x40, 
  0x50, 0x81, 0x63, 0x40, 0x00, 0x0d, 0x41, 0x50, 0x83, 0x47, 0x41, 0x00, 0x19, 0x43, 0x50, 0x83, 
  0x47, 0x43, 0x00, 0x19, 0x45, 0x50, 0x83, 0x47, 0x45, 0x00, 0x19, 0x43, 0x50, 0x87, 0x0f, 0x43, 
  0x00, 0x31, 0x40, 0x50, 0x83, 0x47, 0x40, 0x00, 0x19, 0x45, 0x50, 0x83, 0x47, 0x45, 0x00, 0x19, 
  0x43, 0x50, 0x87, 0x0f, 0x43, 0x00, 0x31, 0x41, 0x50, 0x83, 0x47, 0x41, 0x00, 0x19, 0x40, 0x50, 
  0x83, 0x47, 0x40, 0x00, 0x19, 0x3e, 0x50, 0x81, 0x63, 0x3e, 0x00, 0x0d, 0x3c, 0x50, 0x81, 0x63, 
  0x3c, 0x00, 0x0d, 0x3e, 0x50, 0x87, 0x0f, 0x3e, 0x00, 0x31, 0x3c, 0x50, 0x8e, 0x1f, 0x3c, 0x00, 
  0x01, 0xff, 0x2f, 0x00, 0x4d, 0x54, 0x72, 0x6b, 0x00, 0x00, 0x01, 0xc4, 0x00, 0xff, 0x59, 0x02, 
  0x00, 0x00, 0x00, 0xff, 0x59, 0x02, 0x00, 0x00, 0x00, 0xff, 0x21, 0x01, 0x00, 0x8f, 0x00, 0x90, 
  0x30, 0x50, 0x8e, 0x1f, 0x30, 0x00, 0x84, 0x41, 0x30, 0x50, 0x83, 0x47, 0x30, 0x00, 0x19, 0x30, 
  0x50, 0x83, 0x47, 0x30, 0x00, 0x83, 0x79, 0x30, 0x50, 0x8e, 0x1f, 0x30, 0x00, 0x84, 0x41, 0x30, 
  0x50, 0x83, 0x47, 0x30, 0x00, 0x19, 0x30, 0x50, 0x83, 0x47, 0x30, 0x00, 0x83, 0x79, 0x37, 0x50, 
  0x8e, 0x1f, 0x37, 0x00, 0x84, 0x41, 0x3b, 0x50, 0x83, 0x47, 0x3b, 0x00, 0x19, 0x37, 0x50, 0x83, 
  0x47, 0x37, 0x00, 0x83, 0x79, 0x30, 0x50, 0x8e, 0x1f, 0x30, 0x00, 0x84, 0x41, 0x30, 0x50, 0x83, 
  0x47, 0x30, 0x00, 0x19, 0x30, 0x50, 0x83, 0x47, 0x30, 0x00, 0x83, 0x79, 0x30, 0x50, 0x8e, 0x1f, 
  0x30, 0x00, 0x84, 0x41, 0x30, 0x50, 0x83, 0x47, 0x30, 0x00, 0x19, 0x30, 0x50, 0x83, 0x47, 0x30, 
  0x00, 0x83, 0x79, 0x37, 0x50, 0x8e, 0x1f, 0x37, 0x00, 0x84, 0x41, 0x3b, 0x50, 0x83, 0x47, 0x3b, 
  0x00, 0x19, 0x37, 0x50, 0x83, 0x47, 0x37, 0x00, 0x83, 0x79, 0x30, 0x50, 0x8e, 0x1f, 0x30, 0x00, 
  0x61, 0x30, 0x50, 0x83, 0x47, 0x30, 0x00, 0x83, 0x79, 0x30, 0x50, 0x83, 0x47, 0x30, 0x00, 0x83, 
  0x79, 0x30, 0x50, 0x8e, 0x1f, 0x30, 0x00, 0x61, 0x30, 0x50, 0x83, 0x47, 0x30, 0x00, 0x83, 0x79, 
  0x30, 0x50, 0x83, 0x47, 0x30, 0x00, 0x83, 0x79, 0x37, 0x50, 0x8e, 0x1f, 0x37, 0x00, 0x61, 0x30, 
  0x50, 0x8e, 0x1f, 0x30, 0x00, 0x61, 0x30, 0x50, 0x8e, 0x1f, 0x30, 0x00, 0x61, 0x30, 0x50, 0x83, 
  0x47, 0x30, 0x00, 0x83, 0x79, 0x30, 0x50, 0x83, 0x47, 0x30, 0x00, 0x83, 0x79, 0x30, 0x50, 0x8e, 
  0x1f, 0x30, 0x00, 0x61, 0x30, 0x50, 0x83, 0x47, 0x30, 0x00, 0x83, 0x79, 0x30, 0x50, 0x83, 0x47, 
  0x30, 0x00, 0x83, 0x79, 0x30, 0x50, 0x83, 0x47, 0x30, 0x00, 0x83, 0x79, 0x30, 0x50, 0x83, 0x47, 
  0x30, 0x00, 0x83, 0x79, 0x30, 0x50, 0x87, 0x0f, 0x30, 0x00, 0x31, 0x37, 0x50, 0x87, 0x0f, 0x37, 
  0x00, 0x31, 0x30, 0x50, 0x8e, 0x1f, 0x30, 0x00, 0x61, 0x30, 0x50, 0x8e, 0x1f, 0x30, 0x00, 0x61, 
  0x2f, 0x50, 0x8e, 0x1f, 0x2f, 0x00, 0x61, 0x2d, 0x50, 0x8e, 0x1f, 0x2d, 0x00, 0x61, 0x2b, 0x50, 
  0x8e, 0x1f, 0x2b, 0x00, 0x61, 0x37, 0x50, 0x8e, 0x1f, 0x37, 0x00, 0x61, 0x30, 0x50, 0x8e, 0x1f, 
  0x30, 0x00, 0x61, 0x37, 0x50, 0x8e, 0x1f, 0x37, 0x00, 0x84, 0x41, 0x3b, 0x50, 0x83, 0x47, 0x3b, 
  0x00, 0x19, 0x37, 0x50, 0x83, 0x47, 0x37, 0x00, 0x83, 0x79, 0x30, 0x50, 0x8e, 0x1f, 0x30, 0x00, 
  0x61, 0x30, 0x50, 0x83, 0x47, 0x30, 0x00, 0x83, 0x79, 0x30, 0x50, 0x83, 0x47, 0x30, 0x00, 0x83, 
  0x79, 0x30, 0x50, 0x8e, 0x1f, 0x30, 0x00, 0x61, 0x30, 0x50, 0x83, 0x47, 0x30, 0x00, 0x83, 0x79, 
  0x30, 0x50, 0x83, 0x47, 0x30, 0x00, 0x83, 0x79, 0x30, 0x50, 0x83, 0x47, 0x30, 0x00, 0x83, 0x79, 
  0x30, 0x50, 0x83, 0x47, 0x30, 0x00, 0x83, 0x79, 0x30, 0x50, 0x87, 0x0f, 0x30, 0x00, 0x31, 0x37, 
  0x50, 0x87, 0x0f, 0x37, 0x00, 0x31, 0x30, 0x50, 0x8e, 0x1f, 0x30, 0x00, 0x01, 0xff, 0x2f, 0x00
};