// array size is 1880
static const char bytes[]  = {
        0x4d, 0x54, 0x68, 0x64, 0x00, 0x00, 0x00, 0x06, 0x00, 0x01, 0x00, 0x02, 0x01, 0x00, 0x4d, 0x54,
        0x72, 0x6b, 0x00, 0x00, 0x00, 0x5c, 0x00, 0xff, 0x58, 0x04, 0x03, 0x02, 0x18, 0x08, 0x00, 0xff,
        0x59, 0x02, 0x00, 0x00, 0x00, 0xff, 0x51, 0x03, 0x05, 0xb8, 0xd8, 0x00, 0xff, 0x03, 0x0a, 0x4c,
        0x6f, 0x76, 0x65, 0x20, 0x53, 0x74, 0x6f, 0x72, 0x79, 0x00, 0xff, 0x01, 0x0b, 0x46, 0x72, 0x61,
        0x6e, 0x63, 0x69, 0x73, 0x20, 0x4c, 0x61, 0x69, 0x00, 0xff, 0x02, 0x22, 0x43, 0x6f, 0x70, 0x79,
        0x72, 0x69, 0x67, 0x68, 0x74, 0x20, 0xa9, 0x20, 0x32, 0x30, 0x30, 0x39, 0x20, 0x45, 0x61, 0x73,
        0x79, 0x20, 0x4d, 0x75, 0x73, 0x69, 0x63, 0x20, 0x53, 0x63, 0x68, 0x6f, 0x6f, 0x6c, 0x01, 0xff,
        0x2f, 0x00, 0x4d, 0x54, 0x72, 0x6b, 0x00, 0x00, 0x06, 0xde, 0x00, 0xc0, 0x00, 0x00, 0xb0, 0x79,
        0x00, 0x00, 0xb0, 0x40, 0x00, 0x00, 0xb0, 0x5b, 0x30, 0x00, 0xb0, 0x0a, 0x33, 0x00, 0xb0, 0x07,
        0x64, 0x00, 0x90, 0x3e, 0x45, 0x00, 0xb0, 0x79, 0x00, 0x00, 0xb0, 0x40, 0x00, 0x00, 0xb0, 0x5b,
        0x30, 0x00, 0xb0, 0x0a, 0x33, 0x00, 0xb0, 0x07, 0x64, 0x00, 0xff, 0x03, 0x05, 0x50, 0x69, 0x61,
        0x6e, 0x6f, 0x82, 0x00, 0x80, 0x3e, 0x00, 0x00, 0x90, 0x40, 0x50, 0x82, 0x00, 0x80, 0x40, 0x00,
        0x00, 0x90, 0x42, 0x4e, 0x82, 0x00, 0x80, 0x42, 0x00, 0x00, 0x90, 0x43, 0x51, 0x82, 0x00, 0x80,
        0x43, 0x00, 0x00, 0x90, 0x45, 0x56, 0x82, 0x00, 0x80, 0x45, 0x00, 0x00, 0x90, 0x46, 0x4f, 0x82,
        0x00, 0x80, 0x46, 0x00, 0x00, 0x90, 0x47, 0x52, 0x81, 0x00, 0x80, 0x47, 0x00, 0x00, 0x90, 0x47,
        0x4f, 0x81, 0x00, 0x80, 0x47, 0x00, 0x00, 0x90, 0x47, 0x4b, 0x82, 0x00, 0x80, 0x47, 0x00, 0x81,
        0x00, 0x90, 0x43, 0x46, 0x81, 0x00, 0x80, 0x43, 0x00, 0x00, 0x90, 0x4c, 0x56, 0x00, 0x90, 0x30,
        0x44, 0x82, 0x00, 0x80, 0x30, 0x00, 0x00, 0x90, 0x34, 0x51, 0x00, 0x90, 0x37, 0x51, 0x82, 0x00,
        0x80, 0x34, 0x00, 0x00, 0x80, 0x37, 0x00, 0x00, 0x90, 0x34, 0x4e, 0x00, 0x90, 0x37, 0x4e, 0x82,
        0x00, 0x80, 0x4c, 0x00, 0x00, 0x90, 0x4b, 0x48, 0x00, 0x80, 0x34, 0x00, 0x00, 0x80, 0x37, 0x00,
        0x00, 0x90, 0x2b, 0x3d, 0x82, 0x00, 0x80, 0x2b, 0x00, 0x00, 0x90, 0x34, 0x55, 0x00, 0x90, 0x37,
        0x55, 0x82, 0x00, 0x80, 0x34, 0x00, 0x00, 0x80, 0x37, 0x00, 0x00, 0x90, 0x34, 0x4c, 0x00, 0x90,
        0x37, 0x4c, 0x82, 0x00, 0x80, 0x4b, 0x00, 0x00, 0x90, 0x4c, 0x50, 0x00, 0x80, 0x34, 0x00, 0x00,
        0x80, 0x37, 0x00, 0x00, 0x90, 0x30, 0x4a, 0x82, 0x00, 0x80, 0x30, 0x00, 0x00, 0x90, 0x34, 0x51,
        0x00, 0x90, 0x37, 0x51, 0x82, 0x00, 0x80, 0x34, 0x00, 0x00, 0x80, 0x37, 0x00, 0x00, 0x90, 0x34,
        0x4b, 0x00, 0x90, 0x37, 0x4b, 0x82, 0x00, 0x80, 0x4c, 0x00, 0x00, 0x80, 0x34, 0x00, 0x00, 0x80,
        0x37, 0x00, 0x00, 0x90, 0x2b, 0x47, 0x81, 0x00, 0x90, 0x43, 0x41, 0x81, 0x00, 0x80, 0x43, 0x00,
        0x00, 0x90, 0x45, 0x52, 0x00, 0x80, 0x2b, 0x00, 0x00, 0x90, 0x34, 0x54, 0x00, 0x90, 0x37, 0x54,
        0x81, 0x00, 0x80, 0x45, 0x00, 0x00, 0x90, 0x47, 0x51, 0x81, 0x00, 0x80, 0x47, 0x00, 0x00, 0x90,
        0x48, 0x52, 0x00, 0x80, 0x34, 0x00, 0x00, 0x80, 0x37, 0x00, 0x00, 0x90, 0x34, 0x4e, 0x00, 0x90,
        0x37, 0x4e, 0x81, 0x00, 0x80, 0x48, 0x00, 0x00, 0x90, 0x4a, 0x52, 0x81, 0x00, 0x80, 0x4a, 0x00,
        0x00, 0x90, 0x4c, 0x4f, 0x00, 0x80, 0x34, 0x00, 0x00, 0x80, 0x37, 0x00, 0x00, 0x90, 0x30, 0x46,
        0x82, 0x00, 0x80, 0x30, 0x00, 0x00, 0x90, 0x34, 0x53, 0x00, 0x90, 0x37, 0x53, 0x82, 0x00, 0x80,
        0x34, 0x00, 0x00, 0x80, 0x37, 0x00, 0x00, 0x90, 0x34, 0x4b, 0x00, 0x90, 0x37, 0x4b, 0x82, 0x00,
        0x80, 0x4c, 0x00, 0x00, 0x90, 0x4b, 0x4b, 0x00, 0x80, 0x34, 0x00, 0x00, 0x80, 0x37, 0x00, 0x00,
        0x90, 0x2b, 0x48, 0x82, 0x00, 0x80, 0x2b, 0x00, 0x00, 0x90, 0x34, 0x55, 0x00, 0x90, 0x37, 0x55,
        0x82, 0x00, 0x80, 0x34, 0x00, 0x00, 0x80, 0x37, 0x00, 0x00, 0x90, 0x34, 0x4d, 0x00, 0x90, 0x37,
        0x4d, 0x81, 0x00, 0x80, 0x4b, 0x00, 0x00, 0x90, 0x4d, 0x55, 0x81, 0x00, 0x80, 0x4d, 0x00, 0x00,
        0x90, 0x4c, 0x4a, 0x00, 0x80, 0x34, 0x00, 0x00, 0x80, 0x37, 0x00, 0x00, 0x90, 0x30, 0x49, 0x82,
        0x00, 0x80, 0x30, 0x00, 0x00, 0x90, 0x34, 0x4e, 0x00, 0x90, 0x37, 0x4e, 0x82, 0x00, 0x80, 0x34,
        0x00, 0x00, 0x80, 0x37, 0x00, 0x00, 0x90, 0x34, 0x4c, 0x00, 0x90, 0x37, 0x4c, 0x82, 0x00, 0x80,
        0x4c, 0x00, 0x00, 0x80, 0x34, 0x00, 0x00, 0x80, 0x37, 0x00, 0x00, 0x90, 0x2b, 0x40, 0x82, 0x00,
        0x80, 0x2b, 0x00, 0x00, 0x90, 0x34, 0x51, 0x00, 0x90, 0x37, 0x51, 0x82, 0x00, 0x80, 0x34, 0x00,
        0x00, 0x80, 0x37, 0x00, 0x00, 0x90, 0x34, 0x48, 0x00, 0x90, 0x37, 0x48, 0x81, 0x00, 0x90, 0x43,
        0x3f, 0x81, 0x00, 0x80, 0x43, 0x00, 0x00, 0x90, 0x4a, 0x5c, 0x00, 0x80, 0x34, 0x00, 0x00, 0x80,
        0x37, 0x00, 0x00, 0x90, 0x2f, 0x46, 0x82, 0x00, 0x80, 0x2f, 0x00, 0x00, 0x90, 0x35, 0x54, 0x00,
        0x90, 0x37, 0x54, 0x82, 0x00, 0x80, 0x35, 0x00, 0x00, 0x80, 0x37, 0x00, 0x00, 0x90, 0x35, 0x4f,
        0x00, 0x90, 0x37, 0x4f, 0x82, 0x00, 0x80, 0x4a, 0x00, 0x00, 0x90, 0x49, 0x47, 0x00, 0x80, 0x35,
        0x00, 0x00, 0x80, 0x37, 0x00, 0x00, 0x90, 0x2b, 0x43, 0x82, 0x00, 0x80, 0x2b, 0x00, 0x00, 0x90,
        0x35, 0x54, 0x00, 0x90, 0x37, 0x54, 0x82, 0x00, 0x80, 0x35, 0x00, 0x00, 0x80, 0x37, 0x00, 0x00,
        0x90, 0x35, 0x4c, 0x00, 0x90, 0x37, 0x4c, 0x82, 0x00, 0x80, 0x49, 0x00, 0x00, 0x90, 0x4a, 0x51,
        0x00, 0x80, 0x35, 0x00, 0x00, 0x80, 0x37, 0x00, 0x00, 0x90, 0x2f, 0x44, 0x82, 0x00, 0x80, 0x2f,
        0x00, 0x00, 0x90, 0x35, 0x51, 0x00, 0x90, 0x37, 0x51, 0x82, 0x00, 0x80, 0x35, 0x00, 0x00, 0x80,
        0x37, 0x00, 0x00, 0x90, 0x35, 0x4c, 0x00, 0x90, 0x37, 0x4c, 0x82, 0x00, 0x80, 0x4a, 0x00, 0x00,
        0x80, 0x35, 0x00, 0x00, 0x80, 0x37, 0x00, 0x00, 0x90, 0x2b, 0x43, 0x81, 0x00, 0x90, 0x43, 0x45,
        0x81, 0x00, 0x80, 0x43, 0x00, 0x00, 0x90, 0x45, 0x51, 0x00, 0x80, 0x2b, 0x00, 0x00, 0x90, 0x35,
        0x52, 0x00, 0x90, 0x37, 0x52, 0x81, 0x00, 0x80, 0x45, 0x00, 0x00, 0x90, 0x47, 0x54, 0x81, 0x00,
        0x80, 0x47, 0x00, 0x00, 0x90, 0x48, 0x50, 0x00, 0x80, 0x35, 0x00, 0x00, 0x80, 0x37, 0x00, 0x00,
        0x90, 0x35, 0x4e, 0x00, 0x90, 0x37, 0x4e, 0x81, 0x00, 0x80, 0x48, 0x00, 0x00, 0x90, 0x49, 0x51,
        0x81, 0x00, 0x80, 0x49, 0x00, 0x00, 0x90, 0x4a, 0x53, 0x00, 0x80, 0x35, 0x00, 0x00, 0x80, 0x37,
        0x00, 0x00, 0x90, 0x2f, 0x45, 0x82, 0x00, 0x80, 0x2f, 0x00, 0x00, 0x90, 0x35, 0x55, 0x00, 0x90,
        0x37, 0x55, 0x82, 0x00, 0x80, 0x35, 0x00, 0x00, 0x80, 0x37, 0x00, 0x00, 0x90, 0x35, 0x4f, 0x00,
        0x90, 0x37, 0x4f, 0x82, 0x00, 0x80, 0x4a, 0x00, 0x00, 0x90, 0x43, 0x3e, 0x00, 0x80, 0x35, 0x00,
        0x00, 0x80, 0x37, 0x00, 0x00, 0x90, 0x2b, 0x43, 0x82, 0x00, 0x80, 0x2b, 0x00, 0x00, 0x90, 0x35,
        0x54, 0x00, 0x90, 0x37, 0x54, 0x82, 0x00, 0x80, 0x35, 0x00, 0x00, 0x80, 0x37, 0x00, 0x00, 0x90,
        0x35, 0x50, 0x00, 0x90, 0x37, 0x50, 0x81, 0x00, 0x80, 0x43, 0x00, 0x00, 0x90, 0x4d, 0x5e, 0x81,
        0x00, 0x80, 0x4d, 0x00, 0x00, 0x90, 0x4c, 0x4a, 0x00, 0x80, 0x35, 0x00, 0x00, 0x80, 0x37, 0x00,
        0x00, 0x90, 0x30, 0x46, 0x82, 0x00, 0x80, 0x30, 0x00, 0x00, 0x90, 0x34, 0x4e, 0x00, 0x90, 0x37,
        0x4e, 0x82, 0x00, 0x80, 0x34, 0x00, 0x00, 0x80, 0x37, 0x00, 0x00, 0x90, 0x34, 0x50, 0x00, 0x90,
        0x37, 0x50, 0x82, 0x00, 0x80, 0x4c, 0x00, 0x00, 0x80, 0x34, 0x00, 0x00, 0x80, 0x37, 0x00, 0x00,
        0x90, 0x2b, 0x45, 0x82, 0x00, 0x80, 0x2b, 0x00, 0x00, 0x90, 0x34, 0x52, 0x00, 0x90, 0x37, 0x52,
        0x82, 0x00, 0x80, 0x34, 0x00, 0x00, 0x80, 0x37, 0x00, 0x00, 0x90, 0x34, 0x4c, 0x00, 0x90, 0x37,
        0x4c, 0x81, 0x00, 0x90, 0x43, 0x41, 0x81, 0x00, 0x80, 0x43, 0x00, 0x00, 0x90, 0x4f, 0x60, 0x00,
        0x80, 0x34, 0x00, 0x00, 0x80, 0x37, 0x00, 0x00, 0x90, 0x30, 0x47, 0x82, 0x00, 0x80, 0x30, 0x00,
        0x00, 0x90, 0x34, 0x52, 0x00, 0x90, 0x37, 0x52, 0x82, 0x00, 0x80, 0x34, 0x00, 0x00, 0x80, 0x37,
        0x00, 0x00, 0x90, 0x34, 0x4d, 0x00, 0x90, 0x37, 0x4d, 0x82, 0x00, 0x80, 0x4f, 0x00, 0x00, 0x90,
        0x4f, 0x52, 0x00, 0x80, 0x34, 0x00, 0x00, 0x80, 0x37, 0x00, 0x00, 0x90, 0x2f, 0x3f, 0x82, 0x00,
        0x80, 0x2f, 0x00, 0x00, 0x90, 0x34, 0x56, 0x00, 0x90, 0x37, 0x56, 0x82, 0x00, 0x80, 0x34, 0x00,
        0x00, 0x80, 0x37, 0x00, 0x00, 0x90, 0x34, 0x4c, 0x00, 0x90, 0x37, 0x4c, 0x82, 0x00, 0x80, 0x4f,
        0x00, 0x00, 0x90, 0x4f, 0x50, 0x00, 0x80, 0x34, 0x00, 0x00, 0x80, 0x37, 0x00, 0x00, 0x90, 0x2e,
        0x41, 0x82, 0x00, 0x80, 0x2e, 0x00, 0x00, 0x90, 0x34, 0x53, 0x00, 0x90, 0x37, 0x53, 0x82, 0x00,
        0x80, 0x34, 0x00, 0x00, 0x80, 0x37, 0x00, 0x00, 0x90, 0x34, 0x4c, 0x00, 0x90, 0x37, 0x4c, 0x81,
        0x00, 0x80, 0x4f, 0x00, 0x00, 0x90, 0x4f, 0x4c, 0x81, 0x00, 0x80, 0x4f, 0x00, 0x00, 0x90, 0x51,
        0x50, 0x00, 0x80, 0x34, 0x00, 0x00, 0x80, 0x37, 0x00, 0x00, 0x90, 0x2d, 0x43, 0x82, 0x00, 0x80,
        0x2d, 0x00, 0x00, 0x90, 0x31, 0x50, 0x00, 0x90, 0x34, 0x50, 0x82, 0x00, 0x80, 0x51, 0x00, 0x00,
        0x90, 0x4f, 0x4a, 0x00, 0x80, 0x31, 0x00, 0x00, 0x80, 0x34, 0x00, 0x00, 0x90, 0x31, 0x46, 0x00,
        0x90, 0x34, 0x46, 0x82, 0x00, 0x80, 0x4f, 0x00, 0x00, 0x90, 0x4d, 0x44, 0x00, 0x80, 0x31, 0x00,
        0x00, 0x80, 0x34, 0x00, 0x00, 0x90, 0x32, 0x4f, 0x82, 0x00, 0x80, 0x32, 0x00, 0x00, 0x90, 0x35,
        0x5a, 0x00, 0x90, 0x39, 0x5a, 0x82, 0x00, 0x80, 0x35, 0x00, 0x00, 0x80, 0x39, 0x00, 0x00, 0x90,
        0x35, 0x4d, 0x00, 0x90, 0x39, 0x4d, 0x82, 0x00, 0x80, 0x4d, 0x00, 0x00, 0x90, 0x4d, 0x4a, 0x00,
        0x80, 0x35, 0x00, 0x00, 0x80, 0x39, 0x00, 0x00, 0x90, 0x31, 0x43, 0x82, 0x00, 0x80, 0x31, 0x00,
        0x00, 0x90, 0x35, 0x53, 0x00, 0x90, 0x39, 0x53, 0x82, 0x00, 0x80, 0x35, 0x00, 0x00, 0x80, 0x39,
        0x00, 0x00, 0x90, 0x35, 0x4a, 0x00, 0x90, 0x39, 0x4a, 0x82, 0x00, 0x80, 0x4d, 0x00, 0x00, 0x90,
        0x4d, 0x4b, 0x00, 0x80, 0x35, 0x00, 0x00, 0x80, 0x39, 0x00, 0x00, 0x90, 0x30, 0x42, 0x82, 0x00,
        0x80, 0x30, 0x00, 0x00, 0x90, 0x35, 0x55, 0x00, 0x90, 0x39, 0x55, 0x82, 0x00, 0x80, 0x35, 0x00,
        0x00, 0x80, 0x39, 0x00, 0x00, 0x90, 0x35, 0x4c, 0x00, 0x90, 0x39, 0x4c, 0x81, 0x00, 0x80, 0x4d,
        0x00, 0x00, 0x90, 0x4d, 0x4d, 0x81, 0x00, 0x80, 0x4d, 0x00, 0x00, 0x90, 0x4f, 0x51, 0x00, 0x80,
        0x35, 0x00, 0x00, 0x80, 0x39, 0x00, 0x00, 0x90, 0x2f, 0x42, 0x82, 0x00, 0x80, 0x2f, 0x00, 0x00,
        0x90, 0x35, 0x54, 0x00, 0x90, 0x37, 0x54, 0x82, 0x00, 0x80, 0x4f, 0x00, 0x00, 0x90, 0x4d, 0x4b,
        0x00, 0x80, 0x35, 0x00, 0x00, 0x80, 0x37, 0x00, 0x00, 0x90, 0x35, 0x49, 0x00, 0x90, 0x37, 0x49,
        0x82, 0x00, 0x80, 0x4d, 0x00, 0x00, 0x90, 0x4c, 0x45, 0x00, 0x80, 0x35, 0x00, 0x00, 0x80, 0x37,
        0x00, 0x00, 0x90, 0x30, 0x43, 0x82, 0x00, 0x80, 0x30, 0x00, 0x00, 0x90, 0x34, 0x51, 0x00, 0x90,
        0x37, 0x51, 0x82, 0x00, 0x80, 0x34, 0x00, 0x00, 0x80, 0x37, 0x00, 0x00, 0x90, 0x34, 0x46, 0x00,
        0x90, 0x37, 0x46, 0x82, 0x00, 0x80, 0x4c, 0x00, 0x00, 0x90, 0x45, 0x3f, 0x00, 0x80, 0x34, 0x00,
        0x00, 0x80, 0x37, 0x00, 0x00, 0x90, 0x32, 0x48, 0x82, 0x00, 0x80, 0x45, 0x00, 0x00, 0x90, 0x47,
        0x52, 0x00, 0x80, 0x32, 0x00, 0x00, 0x90, 0x35, 0x54, 0x00, 0x90, 0x37, 0x54, 0x82, 0x00, 0x80,
        0x47, 0x00, 0x00, 0x90, 0x4d, 0x56, 0x00, 0x80, 0x35, 0x00, 0x00, 0x80, 0x37, 0x00, 0x00, 0x90,
        0x35, 0x4a, 0x00, 0x90, 0x37, 0x4a, 0x82, 0x00, 0x80, 0x4d, 0x00, 0x00, 0x90, 0x4c, 0x4c, 0x00,
        0x80, 0x35, 0x00, 0x00, 0x80, 0x37, 0x00, 0x00, 0x90, 0x2f, 0x44, 0x81, 0x00, 0x80, 0x4c, 0x00,
        0x00, 0x90, 0x4c, 0x4d, 0x00, 0x80, 0x2f, 0x00, 0x00, 0x90, 0x2f, 0x47, 0x81, 0x00, 0x80, 0x4c,
        0x00, 0x00, 0x90, 0x4c, 0x4c, 0x00, 0x80, 0x2f, 0x00, 0x00, 0x90, 0x2f, 0x50, 0x82, 0x00, 0x80,
        0x4c, 0x00, 0x00, 0x80, 0x2f, 0x00, 0x81, 0x00, 0x90, 0x47, 0x41, 0x81, 0x00, 0x80, 0x47, 0x00,
        0x00, 0x90, 0x48, 0x51, 0x00, 0x90, 0x30, 0x45, 0x82, 0x00, 0x80, 0x30, 0x00, 0x00, 0x90, 0x34,
        0x52, 0x00, 0x90, 0x37, 0x52, 0x82, 0x00, 0x80, 0x34, 0x00, 0x00, 0x80, 0x37, 0x00, 0x00, 0x90,
        0x34, 0x4e, 0x00, 0x90, 0x37, 0x4e, 0x82, 0x00, 0x80, 0x48, 0x00, 0x00, 0x90, 0x40, 0x4e, 0x00,
        0x90, 0x43, 0x4e, 0x00, 0x90, 0x48, 0x4e, 0x00, 0x80, 0x34, 0x00, 0x00, 0x80, 0x37, 0x00, 0x00,
        0x90, 0x30, 0x48, 0x82, 0x00, 0x80, 0x40, 0x00, 0x00, 0x80, 0x43, 0x00, 0x00, 0x80, 0x48, 0x00,
        0x00, 0x80, 0x30, 0x00, 0x01, 0xff, 0x2f, 0x00
};