// array size is 1692
static const char bytes[]  = {
  0x4d, 0x54, 0x68, 0x64, 0x00, 0x00, 0x00, 0x06, 0x00, 0x01, 0x00, 0x02, 0x01, 0xe0, 0x4d, 0x54, 
  0x72, 0x6b, 0x00, 0x00, 0x04, 0x5b, 0x00, 0xff, 0x58, 0x04, 0x04, 0x02, 0x18, 0x08, 0x00, 0xff, 
  0x59, 0x02, 0x02, 0x00, 0x00, 0xff, 0x51, 0x03, 0x15, 0xcc, 0x5b, 0x00, 0xb0, 0x79, 0x00, 0x00, 
  0xc0, 0x00, 0x00, 0xb0, 0x07, 0x64, 0x00, 0x0a, 0x40, 0x00, 0x5b, 0x1e, 0x00, 0x5d, 0x1e, 0x00, 
  0xff, 0x21, 0x01, 0x00, 0x00, 0x90, 0x34, 0x31, 0x00, 0x37, 0x31, 0x83, 0x5f, 0x34, 0x00, 0x83, 
  0x60, 0x37, 0x00, 0x01, 0x39, 0x31, 0x00, 0x3e, 0x31, 0x83, 0x5f, 0x39, 0x00, 0x83, 0x60, 0x3e, 
  0x00, 0x01, 0x36, 0x31, 0x00, 0x39, 0x31, 0x83, 0x5f, 0x36, 0x00, 0x83, 0x60, 0x39, 0x00, 0x01, 
  0x39, 0x31, 0x00, 0x3d, 0x31, 0x83, 0x5f, 0x39, 0x00, 0x83, 0x60, 0x3d, 0x00, 0x01, 0x34, 0x31, 
  0x00, 0x37, 0x31, 0x00, 0x3b, 0x31, 0x83, 0x5f, 0x34, 0x00, 0x00, 0x37, 0x00, 0x83, 0x60, 0x3b, 
  0x00, 0x01, 0x39, 0x31, 0x00, 0x3e, 0x31, 0x00, 0x42, 0x31, 0x83, 0x5f, 0x39, 0x00, 0x00, 0x3e, 
  0x00, 0x83, 0x60, 0x42, 0x00, 0x01, 0x36, 0x31, 0x00, 0x39, 0x31, 0x00, 0x3d, 0x31, 0x83, 0x5f, 
  0x36, 0x00, 0x00, 0x39, 0x00, 0x83, 0x60, 0x3d, 0x00, 0x01, 0x39, 0x31, 0x00, 0x3d, 0x31, 0x00, 
  0x40, 0x31, 0x83, 0x5f, 0x39, 0x00, 0x00, 0x3d, 0x00, 0x83, 0x60, 0x40, 0x00, 0x01, 0x34, 0x31, 
  0x00, 0x37, 0x31, 0x00, 0x3b, 0x31, 0x83, 0x5f, 0x34, 0x00, 0x00, 0x37, 0x00, 0x83, 0x60, 0x3b, 
  0x00, 0x01, 0x39, 0x31, 0x00, 0x3e, 0x31, 0x00, 0x42, 0x31, 0x83, 0x5f, 0x39, 0x00, 0x00, 0x3e, 
  0x00, 0x83, 0x60, 0x42, 0x00, 0x01, 0x36, 0x31, 0x00, 0x39, 0x31, 0x00, 0x3d, 0x31, 0x83, 0x5f, 
  0x36, 0x00, 0x00, 0x39, 0x00, 0x83, 0x60, 0x3d, 0x00, 0x01, 0x39, 0x31, 0x00, 0x3d, 0x31, 0x00, 
  0x40, 0x31, 0x83, 0x5f, 0x39, 0x00, 0x00, 0x3d, 0x00, 0x83, 0x60, 0x40, 0x00, 0x01, 0x34, 0x50, 
  0x00, 0x37, 0x50, 0x00, 0x3b, 0x50, 0x83, 0x5f, 0x34, 0x00, 0x00, 0x37, 0x00, 0x00, 0x3b, 0x00, 
  0x01, 0x45, 0x50, 0x81, 0x6f, 0x45, 0x00, 0x01, 0x47, 0x50, 0x81, 0x6f, 0x47, 0x00, 0x01, 0x39, 
  0x50, 0x00, 0x3e, 0x50, 0x00, 0x42, 0x50, 0x85, 0x4f, 0x39, 0x00, 0x00, 0x3e, 0x00, 0x00, 0x42, 
  0x00, 0x01, 0x3e, 0x50, 0x77, 0x3e, 0x00, 0x01, 0x40, 0x50, 0x77, 0x40, 0x00, 0x01, 0x36, 0x50, 
  0x00, 0x39, 0x50, 0x00, 0x3d, 0x50, 0x83, 0x5f, 0x36, 0x00, 0x81, 0x70, 0x39, 0x00, 0x00, 0x3d, 
  0x00, 0x01, 0x42, 0x50, 0x77, 0x42, 0x00, 0x01, 0x45, 0x50, 0x77, 0x45, 0x00, 0x01, 0x39, 0x50, 
  0x00, 0x3d, 0x50, 0x00, 0x40, 0x50, 0x87, 0x3f, 0x39, 0x00, 0x00, 0x3d, 0x00, 0x00, 0x40, 0x00, 
  0x01, 0x34, 0x50, 0x00, 0x37, 0x50, 0x00, 0x3b, 0x50, 0x81, 0x6f, 0x34, 0x00, 0x00, 0x37, 0x00, 
  0x00, 0x3b, 0x00, 0x01, 0x4a, 0x50, 0x81, 0x6f, 0x4a, 0x00, 0x01, 0x47, 0x50, 0x81, 0x6f, 0x47, 
  0x00, 0x01, 0x45, 0x50, 0x81, 0x6f, 0x45, 0x00, 0x01, 0x39, 0x50, 0x00, 0x3e, 0x50, 0x00, 0x42, 
  0x50, 0x85, 0x4f, 0x39, 0x00, 0x00, 0x3e, 0x00, 0x00, 0x42, 0x00, 0x01, 0x3e, 0x50, 0x77, 0x3e, 
  0x00, 0x01, 0x40, 0x50, 0x77, 0x40, 0x00, 0x01, 0x36, 0x50, 0x00, 0x39, 0x50, 0x00, 0x3d, 0x50, 
  0x83, 0x5f, 0x36, 0x00, 0x81, 0x70, 0x39, 0x00, 0x00, 0x3d, 0x00, 0x01, 0x45, 0x50, 0x77, 0x45, 
  0x00, 0x01, 0x42, 0x50, 0x77, 0x42, 0x00, 0x01, 0x39, 0x50, 0x00, 0x3d, 0x50, 0x00, 0x40, 0x50, 
  0x87, 0x3f, 0x39, 0x00, 0x00, 0x3d, 0x00, 0x00, 0x40, 0x00, 0x01, 0x34, 0x50, 0x00, 0x37, 0x50, 
  0x00, 0x3b, 0x50, 0x83, 0x5f, 0x34, 0x00, 0x00, 0x37, 0x00, 0x00, 0x3b, 0x00, 0x01, 0x45, 0x50, 
  0x81, 0x6f, 0x45, 0x00, 0x01, 0x47, 0x50, 0x81, 0x6f, 0x47, 0x00, 0x01, 0x3e, 0x50, 0x00, 0x42, 
  0x50, 0x00, 0x4a, 0x50, 0x83, 0x5f, 0x3e, 0x00, 0x00, 0x42, 0x00, 0x81, 0x70, 0x4a, 0x00, 0x01, 
  0x3e, 0x50, 0x00, 0x4e, 0x50, 0x77, 0x3e, 0x00, 0x00, 0x4e, 0x00, 0x01, 0x40, 0x50, 0x00, 0x4c, 
  0x50, 0x77, 0x40, 0x00, 0x00, 0x4c, 0x00, 0x01, 0x3e, 0x50, 0x00, 0x49, 0x50, 0x85, 0x4f, 0x3e, 
  0x00, 0x00, 0x49, 0x00, 0x01, 0x42, 0x50, 0x00, 0x4a, 0x50, 0x77, 0x42, 0x00, 0x00, 0x4a, 0x00, 
  0x01, 0x49, 0x50, 0x77, 0x49, 0x00, 0x01, 0x39, 0x50, 0x00, 0x3d, 0x50, 0x00, 0x40, 0x50, 0x00, 
  0x45, 0x50, 0x87, 0x3f, 0x39, 0x00, 0x00, 0x3d, 0x00, 0x00, 0x40, 0x00, 0x00, 0x45, 0x00, 0x01, 
  0x34, 0x50, 0x00, 0x37, 0x50, 0x00, 0x3b, 0x50, 0x83, 0x5f, 0x34, 0x00, 0x00, 0x37, 0x00, 0x00, 
  0x3b, 0x00, 0x01, 0x47, 0x60, 0x81, 0x6f, 0x47, 0x00, 0x01, 0x45, 0x60, 0x81, 0x6f, 0x45, 0x00, 
  0x01, 0x39, 0x60, 0x00, 0x3e, 0x60, 0x00, 0x42, 0x60, 0x85, 0x4f, 0x39, 0x00, 0x00, 0x3e, 0x00, 
  0x00, 0x42, 0x00, 0x01, 0x3e, 0x60, 0x77, 0x3e, 0x00, 0x01, 0x40, 0x60, 0x77, 0x40, 0x00, 0x01, 
  0x36, 0x60, 0x00, 0x39, 0x60, 0x00, 0x3d, 0x60, 0x83, 0x5f, 0x36, 0x00, 0x81, 0x70, 0x39, 0x00, 
  0x00, 0x3d, 0x00, 0x01, 0x42, 0x60, 0x77, 0x42, 0x00, 0x01, 0x45, 0x60, 0x77, 0x45, 0x00, 0x01, 
  0x39, 0x60, 0x00, 0x3d, 0x60, 0x00, 0x40, 0x60, 0x87, 0x3f, 0x39, 0x00, 0x00, 0x3d, 0x00, 0x00, 
  0x40, 0x00, 0x01, 0x34, 0x60, 0x00, 0x37, 0x60, 0x00, 0x3b, 0x60, 0x83, 0x5f, 0x34, 0x00, 0x00, 
  0x37, 0x00, 0x00, 0x3b, 0x00, 0x01, 0x45, 0x60, 0x81, 0x6f, 0x45, 0x00, 0x01, 0x47, 0x60, 0x81, 
  0x6f, 0x47, 0x00, 0x01, 0x39, 0x60, 0x00, 0x3e, 0x60, 0x00, 0x42, 0x60, 0x85, 0x4f, 0x39, 0x00, 
  0x00, 0x3e, 0x00, 0x00, 0x42, 0x00, 0x01, 0x3e, 0x60, 0x77, 0x3e, 0x00, 0x01, 0x40, 0x60, 0x77, 
  0x40, 0x00, 0x01, 0x36, 0x60, 0x00, 0x39, 0x60, 0x00, 0x3d, 0x60, 0x83, 0x5f, 0x36, 0x00, 0x01, 
  0x4e, 0x60, 0x81, 0x6f, 0x39, 0x00, 0x00, 0x3d, 0x00, 0x00, 0x4e, 0x00, 0x01, 0x42, 0x60, 0x77, 
  0x42, 0x00, 0x01, 0x45, 0x60, 0x77, 0x45, 0x00, 0x01, 0x39, 0x60, 0x00, 0x3d, 0x60, 0x00, 0x40, 
  0x60, 0x87, 0x3f, 0x39, 0x00, 0x00, 0x3d, 0x00, 0x00, 0x40, 0x00, 0x01, 0x3b, 0x40, 0x00, 0x3e, 
  0x40, 0x00, 0x42, 0x40, 0x85, 0x4f, 0x3b, 0x00, 0x00, 0x3e, 0x00, 0x00, 0x42, 0x00, 0x01, 0x47, 
  0x40, 0x77, 0x47, 0x00, 0x01, 0x45, 0x40, 0x77, 0x45, 0x00, 0x01, 0x38, 0x40, 0x00, 0x3b, 0x40, 
  0x00, 0x40, 0x40, 0x83, 0x5f, 0x38, 0x00, 0x00, 0x3b, 0x00, 0x00, 0x40, 0x00, 0x01, 0x40, 0x40, 
  0x81, 0x6f, 0x40, 0x00, 0x01, 0x3e, 0x40, 0x81, 0x6f, 0x3e, 0x00, 0x01, 0x34, 0x40, 0x00, 0x39, 
  0x40, 0x00, 0x3d, 0x40, 0x85, 0x4f, 0x34, 0x00, 0x00, 0x39, 0x00, 0x00, 0x3d, 0x00, 0x01, 0x3e, 
  0x40, 0x77, 0x3e, 0x00, 0x01, 0x40, 0x40, 0x77, 0x40, 0x00, 0x01, 0x32, 0x40, 0x00, 0x37, 0x40, 
  0x00, 0x3b, 0x40, 0x87, 0x3f, 0x32, 0x00, 0x00, 0x37, 0x00, 0x00, 0x3b, 0x00, 0x01, 0x3b, 0x40, 
  0x00, 0x3e, 0x40, 0x00, 0x42, 0x40, 0x00, 0x4a, 0x40, 0x85, 0x4f, 0x3b, 0x00, 0x00, 0x3e, 0x00, 
  0x00, 0x42, 0x00, 0x00, 0x4a, 0x00, 0x01, 0x47, 0x40, 0x77, 0x47, 0x00, 0x01, 0x45, 0x40, 0x77, 
  0x45, 0x00, 0x01, 0x38, 0x40, 0x00, 0x3b, 0x40, 0x00, 0x40, 0x40, 0x83, 0x5f, 0x38, 0x00, 0x00, 
  0x3b, 0x00, 0x00, 0x40, 0x00, 0x01, 0x40, 0x40, 0x81, 0x6f, 0x40, 0x00, 0x01, 0x3e, 0x40, 0x00, 
  0x4c, 0x40, 0x81, 0x6f, 0x3e, 0x00, 0x00, 0x4c, 0x00, 0x01, 0x34, 0x40, 0x00, 0x39, 0x40, 0x00, 
  0x3d, 0x40, 0x00, 0x49, 0x40, 0x83, 0x5f, 0x34, 0x00, 0x00, 0x39, 0x00, 0x00, 0x3d, 0x00, 0x00, 
  0x49, 0x00, 0x01, 0x4a, 0x40, 0x81, 0x6f, 0x4a, 0x00, 0x01, 0x4e, 0x40, 0x81, 0x6f, 0x4e, 0x00, 
  0x01, 0x3b, 0x40, 0x00, 0x47, 0x40, 0x87, 0x3f, 0x3b, 0x00, 0x00, 0x47, 0x00, 0x01, 0xff, 0x2f, 
  0x00, 0x4d, 0x54, 0x72, 0x6b, 0x00, 0x00, 0x02, 0x23, 0x00, 0xff, 0x59, 0x02, 0x02, 0x00, 0x00, 
  0xff, 0x21, 0x01, 0x00, 0x00, 0x90, 0x28, 0x31, 0x83, 0x5f, 0x28, 0x00, 0x01, 0x2a, 0x31, 0x83, 
  0x5f, 0x2a, 0x00, 0x01, 0x2b, 0x31, 0x83, 0x5f, 0x2b, 0x00, 0x01, 0x2f, 0x31, 0x83, 0x5f, 0x2f, 
  0x00, 0x01, 0x2d, 0x31, 0x83, 0x5f, 0x2d, 0x00, 0x01, 0x2b, 0x31, 0x83, 0x5f, 0x2b, 0x00, 0x01, 
  0x26, 0x31, 0x87, 0x3f, 0x26, 0x00, 0x01, 0x28, 0x31, 0x83, 0x5f, 0x28, 0x00, 0x01, 0x2a, 0x31, 
  0x83, 0x5f, 0x2a, 0x00, 0x01, 0x2b, 0x31, 0x83, 0x5f, 0x2b, 0x00, 0x01, 0x2f, 0x31, 0x83, 0x5f, 
  0x2f, 0x00, 0x01, 0x2d, 0x31, 0x83, 0x5f, 0x2d, 0x00, 0x01, 0x2b, 0x31, 0x83, 0x5f, 0x2b, 0x00, 
  0x01, 0x26, 0x31, 0x87, 0x3f, 0x26, 0x00, 0x01, 0x28, 0x31, 0x83, 0x5f, 0x28, 0x00, 0x01, 0x2a, 
  0x31, 0x83, 0x5f, 0x2a, 0x00, 0x01, 0x2b, 0x31, 0x83, 0x5f, 0x2b, 0x00, 0x01, 0x2f, 0x31, 0x83, 
  0x5f, 0x2f, 0x00, 0x01, 0x2d, 0x31, 0x83, 0x5f, 0x2d, 0x00, 0x01, 0x2b, 0x31, 0x83, 0x5f, 0x2b, 
  0x00, 0x01, 0x26, 0x31, 0x87, 0x3f, 0x26, 0x00, 0x01, 0x28, 0x50, 0x83, 0x5f, 0x28, 0x00, 0x01, 
  0x2a, 0x50, 0x83, 0x5f, 0x2a, 0x00, 0x01, 0x2b, 0x50, 0x83, 0x5f, 0x2b, 0x00, 0x01, 0x2f, 0x50, 
  0x81, 0x6f, 0x2f, 0x00, 0x81, 0x71, 0x2d, 0x50, 0x83, 0x5f, 0x2d, 0x00, 0x01, 0x2b, 0x50, 0x83, 
  0x5f, 0x2b, 0x00, 0x01, 0x26, 0x50, 0x87, 0x3f, 0x26, 0x00, 0x01, 0x28, 0x50, 0x83, 0x5f, 0x28, 
  0x00, 0x01, 0x2a, 0x50, 0x83, 0x5f, 0x2a, 0x00, 0x01, 0x2b, 0x50, 0x83, 0x5f, 0x2b, 0x00, 0x01, 
  0x2f, 0x50, 0x81, 0x6f, 0x2f, 0x00, 0x81, 0x71, 0x2d, 0x50, 0x83, 0x5f, 0x2d, 0x00, 0x01, 0x2b, 
  0x50, 0x83, 0x5f, 0x2b, 0x00, 0x01, 0x26, 0x50, 0x87, 0x3f, 0x26, 0x00, 0x01, 0x28, 0x50, 0x83, 
  0x5f, 0x28, 0x00, 0x01, 0x2a, 0x50, 0x83, 0x5f, 0x2a, 0x00, 0x01, 0x2b, 0x50, 0x00, 0x39, 0x50, 
  0x83, 0x5f, 0x2b, 0x00, 0x00, 0x39, 0x00, 0x01, 0x2f, 0x50, 0x81, 0x6f, 0x2f, 0x00, 0x81, 0x71, 
  0x2d, 0x50, 0x00, 0x36, 0x50, 0x00, 0x39, 0x50, 0x83, 0x5f, 0x2d, 0x00, 0x00, 0x36, 0x00, 0x00, 
  0x39, 0x00, 0x01, 0x2b, 0x50, 0x83, 0x5f, 0x2b, 0x00, 0x01, 0x26, 0x50, 0x87, 0x3f, 0x26, 0x00, 
  0x01, 0x28, 0x50, 0x83, 0x5f, 0x28, 0x00, 0x01, 0x2a, 0x60, 0x83, 0x5f, 0x2a, 0x00, 0x01, 0x2b, 
  0x60, 0x83, 0x5f, 0x2b, 0x00, 0x01, 0x2f, 0x60, 0x81, 0x6f, 0x2f, 0x00, 0x81, 0x71, 0x2d, 0x60, 
  0x83, 0x5f, 0x2d, 0x00, 0x01, 0x2b, 0x60, 0x83, 0x5f, 0x2b, 0x00, 0x01, 0x26, 0x60, 0x87, 0x3f, 
  0x26, 0x00, 0x01, 0x28, 0x60, 0x83, 0x5f, 0x28, 0x00, 0x01, 0x2a, 0x60, 0x83, 0x5f, 0x2a, 0x00, 
  0x01, 0x2b, 0x60, 0x83, 0x5f, 0x2b, 0x00, 0x01, 0x2f, 0x60, 0x81, 0x6f, 0x2f, 0x00, 0x81, 0x71, 
  0x2d, 0x60, 0x83, 0x5f, 0x2d, 0x00, 0x01, 0x2b, 0x60, 0x83, 0x5f, 0x2b, 0x00, 0x01, 0x26, 0x60, 
  0x87, 0x3f, 0x26, 0x00, 0x01, 0x23, 0x40, 0x00, 0x2f, 0x40, 0x87, 0x3f, 0x23, 0x00, 0x00, 0x2f, 
  0x00, 0x01, 0x28, 0x40, 0x00, 0x34, 0x40, 0x87, 0x3f, 0x28, 0x00, 0x00, 0x34, 0x00, 0x01, 0x21, 
  0x40, 0x00, 0x2d, 0x40, 0x87, 0x3f, 0x21, 0x00, 0x00, 0x2d, 0x00, 0x01, 0x1f, 0x40, 0x00, 0x2b, 
  0x40, 0x87, 0x3f, 0x1f, 0x00, 0x00, 0x2b, 0x00, 0x01, 0x23, 0x40, 0x00, 0x2f, 0x40, 0x87, 0x3f, 
  0x23, 0x00, 0x00, 0x2f, 0x00, 0x01, 0x28, 0x40, 0x00, 0x34, 0x40, 0x87, 0x3f, 0x28, 0x00, 0x00, 
  0x34, 0x00, 0x01, 0x21, 0x40, 0x00, 0x2d, 0x40, 0x87, 0x3f, 0x21, 0x00, 0x00, 0x2d, 0x00, 0x01, 
  0x1f, 0x40, 0x00, 0x32, 0x40, 0x00, 0x37, 0x40, 0x00, 0x3b, 0x40, 0x87, 0x3f, 0x1f, 0x00, 0x00, 
  0x32, 0x00, 0x00, 0x37, 0x00, 0x00, 0x3b, 0x00, 0x01, 0xff, 0x2f, 0x00
};