// array size is 7136
static const char bytes[]  = {
  0x4d, 0x54, 0x68, 0x64, 0x00, 0x00, 0x00, 0x06, 0x00, 0x01, 0x00, 0x02, 0x01, 0xe0, 0x4d, 0x54, 
  0x72, 0x6b, 0x00, 0x00, 0x0b, 0xad, 0x00, 0xff, 0x58, 0x04, 0x04, 0x02, 0x18, 0x08, 0x00, 0xff, 
  0x59, 0x02, 0x03, 0x00, 0x00, 0xff, 0x51, 0x03, 0x07, 0x27, 0x0f, 0x00, 0xb0, 0x79, 0x00, 0x00, 
  0xc0, 0x00, 0x00, 0xb0, 0x07, 0x64, 0x00, 0x0a, 0x40, 0x00, 0x5b, 0x00, 0x00, 0x5d, 0x00, 0x00, 
  0xff, 0x21, 0x01, 0x00, 0x83, 0x60, 0x90, 0x3b, 0x50, 0x81, 0x63, 0x3b, 0x00, 0x0d, 0x3e, 0x50, 
  0x83, 0x47, 0x3e, 0x00, 0x19, 0x3d, 0x50, 0x83, 0x47, 0x3d, 0x00, 0x19, 0x3e, 0x50, 0x85, 0x2b, 
  0x3e, 0x00, 0x84, 0x05, 0x44, 0x50, 0x87, 0x0f, 0x44, 0x00, 0x84, 0x11, 0x39, 0x50, 0x81, 0x63, 
  0x39, 0x00, 0x0d, 0x3d, 0x50, 0x83, 0x47, 0x3d, 0x00, 0x19, 0x39, 0x50, 0x83, 0x47, 0x39, 0x00, 
  0x82, 0x09, 0x39, 0x50, 0x00, 0x3e, 0x50, 0x87, 0x0f, 0x39, 0x00, 0x00, 0x3e, 0x00, 0x31, 0x39, 
  0x50, 0x00, 0x3d, 0x50, 0x87, 0x0f, 0x39, 0x00, 0x00, 0x3d, 0x00, 0x84, 0x11, 0x3b, 0x50, 0x81, 
  0x63, 0x3b, 0x00, 0x0d, 0x3e, 0x50, 0x83, 0x47, 0x3e, 0x00, 0x19, 0x3d, 0x50, 0x83, 0x47, 0x3d, 
  0x00, 0x19, 0x3e, 0x50, 0x85, 0x2b, 0x3e, 0x00, 0x84, 0x05, 0x44, 0x50, 0x83, 0x47, 0x44, 0x00, 
  0x19, 0x40, 0x50, 0x87, 0x0f, 0x40, 0x00, 0x31, 0x39, 0x50, 0x81, 0x63, 0x39, 0x00, 0x0d, 0x3d, 
  0x50, 0x83, 0x47, 0x3d, 0x00, 0x19, 0x39, 0x50, 0x83, 0x47, 0x39, 0x00, 0x82, 0x09, 0x39, 0x50, 
  0x00, 0x42, 0x50, 0x87, 0x0f, 0x39, 0x00, 0x00, 0x42, 0x00, 0x31, 0x3d, 0x50, 0x00, 0x44, 0x50, 
  0x87, 0x0f, 0x3d, 0x00, 0x00, 0x44, 0x00, 0x31, 0x4a, 0x50, 0x85, 0x2b, 0x4a, 0x00, 0x25, 0x4a, 
  0x50, 0x83, 0x47, 0x4a, 0x00, 0x19, 0x49, 0x50, 0x81, 0x63, 0x49, 0x00, 0x0d, 0x47, 0x50, 0x91, 
  0x67, 0x47, 0x00, 0x79, 0x49, 0x50, 0x81, 0x63, 0x49, 0x00, 0x0d, 0x49, 0x50, 0x83, 0x47, 0x49, 
  0x00, 0x19, 0x49, 0x50, 0x85, 0x2b, 0x49, 0x00, 0x25, 0x45, 0x50, 0x83, 0x47, 0x45, 0x00, 0x82, 
  0x09, 0x45, 0x50, 0x00, 0x4e, 0x50, 0x83, 0x47, 0x45, 0x00, 0x00, 0x4e, 0x00, 0x19, 0x45, 0x50, 
  0x00, 0x4e, 0x50, 0x81, 0x63, 0x45, 0x00, 0x00, 0x4e, 0x00, 0x0d, 0x45, 0x50, 0x00, 0x4e, 0x50, 
  0x83, 0x47, 0x45, 0x00, 0x00, 0x4e, 0x00, 0x19, 0x4c, 0x50, 0x83, 0x47, 0x4c, 0x00, 0x19, 0x4a, 
  0x50, 0x85, 0x2b, 0x4a, 0x00, 0x25, 0x4a, 0x50, 0x81, 0x63, 0x4a, 0x00, 0x0d, 0x4a, 0x50, 0x81, 
  0x63, 0x4a, 0x00, 0x0d, 0x49, 0x50, 0x81, 0x63, 0x49, 0x00, 0x0d, 0x47, 0x50, 0x8e, 0x1f, 0x47, 
  0x00, 0x82, 0x51, 0x45, 0x50, 0x81, 0x63, 0x45, 0x00, 0x0d, 0x49, 0x50, 0x81, 0x63, 0x49, 0x00, 
  0x0d, 0x49, 0x50, 0x81, 0x63, 0x49, 0x00, 0x0d, 0x49, 0x50, 0x81, 0x63, 0x49, 0x00, 0x0d, 0x47, 
  0x50, 0x83, 0x47, 0x47, 0x00, 0x19, 0x45, 0x50, 0x83, 0x47, 0x45, 0x00, 0x19, 0x45, 0x50, 0x83, 
  0x47, 0x45, 0x00, 0x19, 0x47, 0x50, 0x83, 0x47, 0x47, 0x00, 0x19, 0x49, 0x50, 0x81, 0x63, 0x49, 
  0x00, 0x0d, 0x47, 0x50, 0x83, 0x47, 0x47, 0x00, 0x19, 0x45, 0x50, 0x83, 0x47, 0x45, 0x00, 0x83, 
  0x79, 0x4a, 0x50, 0x83, 0x47, 0x4a, 0x00, 0x19, 0x4a, 0x50, 0x81, 0x63, 0x4a, 0x00, 0x0d, 0x4a, 
  0x50, 0x81, 0x63, 0x4a, 0x00, 0x0d, 0x4a, 0x50, 0x81, 0x63, 0x4a, 0x00, 0x0d, 0x4a, 0x50, 0x90, 
  0x03, 0x4a, 0x00, 0x84, 0x4d, 0x39, 0x50, 0x00, 0x45, 0x50, 0x81, 0x63, 0x39, 0x00, 0x00, 0x45, 
  0x00, 0x0d, 0x39, 0x50, 0x00, 0x45, 0x50, 0x81, 0x63, 0x39, 0x00, 0x00, 0x45, 0x00, 0x0d, 0x39, 
  0x50, 0x00, 0x45, 0x50, 0x81, 0x63, 0x39, 0x00, 0x00, 0x45, 0x00, 0x0d, 0x39, 0x50, 0x00, 0x45, 
  0x50, 0x81, 0x63, 0x39, 0x00, 0x00, 0x45, 0x00, 0x0d, 0x39, 0x50, 0x00, 0x45, 0x50, 0x81, 0x63, 
  0x39, 0x00, 0x00, 0x45, 0x00, 0x0d, 0x39, 0x50, 0x00, 0x45, 0x50, 0x81, 0x63, 0x39, 0x00, 0x00, 
  0x45, 0x00, 0x0d, 0x39, 0x50, 0x00, 0x45, 0x50, 0x81, 0x63, 0x39, 0x00, 0x00, 0x45, 0x00, 0x0d, 
  0x44, 0x50, 0x83, 0x47, 0x44, 0x00, 0x19, 0x42, 0x50, 0x83, 0x47, 0x42, 0x00, 0x19, 0x40, 0x50, 
  0x83, 0x47, 0x40, 0x00, 0x82, 0x09, 0x39, 0x50, 0x8b, 0x20, 0x39, 0x00, 0x83, 0x60, 0x3b, 0x50, 
  0x00, 0x44, 0x50, 0x8e, 0x1f, 0x3b, 0x00, 0x00, 0x44, 0x00, 0x61, 0x39, 0x50, 0x00, 0x3d, 0x50, 
  0x00, 0x42, 0x50, 0x00, 0x45, 0x50, 0x8e, 0x1f, 0x39, 0x00, 0x00, 0x3d, 0x00, 0x00, 0x42, 0x00, 
  0x00, 0x45, 0x00, 0x61, 0x39, 0x50, 0x00, 0x3d, 0x50, 0x87, 0x0f, 0x39, 0x00, 0x00, 0x3d, 0x00, 
  0x31, 0x3b, 0x50, 0x00, 0x40, 0x50, 0x87, 0x0f, 0x3b, 0x00, 0x00, 0x40, 0x00, 0x31, 0x40, 0x50, 
  0x00, 0x45, 0x50, 0x8e, 0x1f, 0x40, 0x00, 0x00, 0x45, 0x00, 0x61, 0x45, 0x50, 0x00, 0x4c, 0x50, 
  0x8e, 0x1f, 0x45, 0x00, 0x00, 0x4c, 0x00, 0x61, 0x42, 0x50, 0x00, 0x45, 0x50, 0x00, 0x49, 0x50, 
  0x00, 0x4e, 0x50, 0x8e, 0x1f, 0x42, 0x00, 0x00, 0x45, 0x00, 0x00, 0x49, 0x00, 0x00, 0x4e, 0x00, 
  0x61, 0x42, 0x50, 0x87, 0x0f, 0x42, 0x00, 0x31, 0x45, 0x50, 0x00, 0x4a, 0x50, 0x87, 0x0f, 0x45, 
  0x00, 0x00, 0x4a, 0x00, 0x31, 0x45, 0x50, 0x00, 0x49, 0x50, 0x8e, 0x1f, 0x45, 0x00, 0x00, 0x49, 
  0x00, 0x61, 0x44, 0x50, 0x00, 0x49, 0x50, 0x00, 0x4e, 0x50, 0x00, 0x50, 0x50, 0x8e, 0x1f, 0x44, 
  0x00, 0x00, 0x49, 0x00, 0x00, 0x4e, 0x00, 0x00, 0x50, 0x00, 0x61, 0x45, 0x50, 0x00, 0x49, 0x50, 
  0x00, 0x4e, 0x50, 0x00, 0x51, 0x50, 0x8e, 0x1f, 0x45, 0x00, 0x00, 0x49, 0x00, 0x00, 0x4e, 0x00, 
  0x00, 0x51, 0x00, 0x61, 0x45, 0x50, 0x83, 0x47, 0x45, 0x00, 0x19, 0x47, 0x50, 0x81, 0x63, 0x47, 
  0x00, 0x0d, 0x49, 0x50, 0x81, 0x63, 0x49, 0x00, 0x0d, 0x47, 0x50, 0x83, 0x47, 0x47, 0x00, 0x19, 
  0x45, 0x50, 0x83, 0x47, 0x45, 0x00, 0x19, 0x4c, 0x50, 0x8e, 0x1f, 0x4c, 0x00, 0x88, 0x21, 0x4e, 
  0x50, 0x83, 0x47, 0x4e, 0x00, 0x19, 0x49, 0x50, 0x91, 0x67, 0x49, 0x00, 0x79, 0x40, 0x50, 0x8a, 
  0x57, 0x40, 0x00, 0x82, 0x39, 0x45, 0x50, 0x81, 0x63, 0x45, 0x00, 0x0d, 0x4a, 0x50, 0x85, 0x2b, 
  0x4a, 0x00, 0x25, 0x4a, 0x50, 0x83, 0x47, 0x4a, 0x00, 0x19, 0x49, 0x50, 0x81, 0x63, 0x49, 0x00, 
  0x0d, 0x47, 0x50, 0x8e, 0x1f, 0x47, 0x00, 0x82, 0x51, 0x4a, 0x50, 0x81, 0x63, 0x4a, 0x00, 0x0d, 
  0x49, 0x50, 0x83, 0x47, 0x49, 0x00, 0x19, 0x49, 0x50, 0x81, 0x63, 0x49, 0x00, 0x0d, 0x49, 0x50, 
  0x81, 0x63, 0x49, 0x00, 0x0d, 0x47, 0x50, 0x81, 0x63, 0x47, 0x00, 0x0d, 0x45, 0x50, 0x83, 0x47, 
  0x45, 0x00, 0x19, 0x45, 0x50, 0x81, 0x63, 0x45, 0x00, 0x81, 0x7d, 0x45, 0x50, 0x81, 0x63, 0x45, 
  0x00, 0x0d, 0x4e, 0x50, 0x83, 0x47, 0x4e, 0x00, 0x19, 0x4e, 0x50, 0x83, 0x47, 0x4e, 0x00, 0x19, 
  0x4c, 0x50, 0x83, 0x47, 0x4c, 0x00, 0x19, 0x4a, 0x50, 0x83, 0x47, 0x4a, 0x00, 0x19, 0x4a, 0x50, 
  0x81, 0x63, 0x4a, 0x00, 0x0d, 0x4a, 0x50, 0x81, 0x63, 0x4a, 0x00, 0x0d, 0x49, 0x50, 0x81, 0x63, 
  0x49, 0x00, 0x0d, 0x47, 0x50, 0x93, 0x4b, 0x47, 0x00, 0x81, 0x05, 0x49, 0x50, 0x81, 0x63, 0x49, 
  0x00, 0x0d, 0x49, 0x50, 0x83, 0x47, 0x49, 0x00, 0x19, 0x47, 0x50, 0x83, 0x47, 0x47, 0x00, 0x19, 
  0x45, 0x50, 0x83, 0x47, 0x45, 0x00, 0x19, 0x45, 0x50, 0x83, 0x47, 0x45, 0x00, 0x19, 0x47, 0x50, 
  0x83, 0x47, 0x47, 0x00, 0x19, 0x49, 0x50, 0x81, 0x63, 0x49, 0x00, 0x0d, 0x47, 0x50, 0x83, 0x47, 
  0x47, 0x00, 0x19, 0x45, 0x50, 0x83, 0x47, 0x45, 0x00, 0x83, 0x79, 0x4a, 0x50, 0x83, 0x47, 0x4a, 
  0x00, 0x82, 0x09, 0x4a, 0x50, 0x81, 0x63, 0x4a, 0x00, 0x0d, 0x4a, 0x50, 0x81, 0x63, 0x4a, 0x00, 
  0x0d, 0x4a, 0x50, 0x90, 0x03, 0x4a, 0x00, 0x82, 0x5d, 0x45, 0x50, 0x81, 0x63, 0x45, 0x00, 0x0d, 
  0x45, 0x50, 0x81, 0x63, 0x45, 0x00, 0x81, 0x7d, 0x39, 0x50, 0x00, 0x45, 0x50, 0x81, 0x63, 0x39, 
  0x00, 0x00, 0x45, 0x00, 0x0d, 0x39, 0x50, 0x00, 0x45, 0x50, 0x81, 0x63, 0x39, 0x00, 0x00, 0x45, 
  0x00, 0x0d, 0x39, 0x50, 0x00, 0x45, 0x50, 0x81, 0x63, 0x39, 0x00, 0x00, 0x45, 0x00, 0x0d, 0x39, 
  0x50, 0x00, 0x45, 0x50, 0x81, 0x63, 0x39, 0x00, 0x00, 0x45, 0x00, 0x0d, 0x39, 0x50, 0x00, 0x45, 
  0x50, 0x81, 0x63, 0x39, 0x00, 0x00, 0x45, 0x00, 0x0d, 0x39, 0x50, 0x00, 0x44, 0x50, 0x83, 0x47, 
  0x39, 0x00, 0x00, 0x44, 0x00, 0x19, 0x39, 0x50, 0x00, 0x42, 0x50, 0x83, 0x47, 0x39, 0x00, 0x00, 
  0x42, 0x00, 0x19, 0x40, 0x50, 0x83, 0x47, 0x40, 0x00, 0x19, 0x40, 0x50, 0x81, 0x63, 0x40, 0x00, 
  0x0d, 0x39, 0x50, 0x8a, 0x57, 0x39, 0x00, 0x82, 0x39, 0x3b, 0x50, 0x81, 0x63, 0x3b, 0x00, 0x0d, 
  0x44, 0x50, 0x8a, 0x57, 0x44, 0x00, 0x49, 0x40, 0x50, 0x81, 0x63, 0x40, 0x00, 0x0d, 0x44, 0x50, 
  0x81, 0x63, 0x44, 0x00, 0x0d, 0x45, 0x50, 0x87, 0x0f, 0x45, 0x00, 0x82, 0x21, 0x39, 0x50, 0x81, 
  0x63, 0x39, 0x00, 0x0d, 0x3b, 0x50, 0x81, 0x63, 0x3b, 0x00, 0x81, 0x7d, 0x39, 0x50, 0x00, 0x3b, 
  0x50, 0x00, 0x40, 0x50, 0x87, 0x0f, 0x39, 0x00, 0x00, 0x3b, 0x00, 0x00, 0x40, 0x00, 0x31, 0x38, 
  0x50, 0x00, 0x3b, 0x50, 0x00, 0x40, 0x50, 0x87, 0x0f, 0x38, 0x00, 0x00, 0x3b, 0x00, 0x00, 0x40, 
  0x00, 0x31, 0x40, 0x50, 0x00, 0x45, 0x50, 0x8e, 0x1f, 0x40, 0x00, 0x00, 0x45, 0x00, 0x61, 0x40, 
  0x50, 0x00, 0x47, 0x50, 0x00, 0x4c, 0x50, 0x8e, 0x1f, 0x40, 0x00, 0x00, 0x47, 0x00, 0x00, 0x4c, 
  0x00, 0x61, 0x45, 0x50, 0x00, 0x49, 0x50, 0x00, 0x4e, 0x50, 0x8e, 0x1f, 0x45, 0x00, 0x00, 0x49, 
  0x00, 0x00, 0x4e, 0x00, 0x61, 0x39, 0x50, 0x00, 0x3e, 0x50, 0x87, 0x0f, 0x39, 0x00, 0x00, 0x3e, 
  0x00, 0x31, 0x39, 0x50, 0x00, 0x40, 0x50, 0x87, 0x0f, 0x39, 0x00, 0x00, 0x40, 0x00, 0x31, 0x45, 
  0x50, 0x00, 0x49, 0x50, 0x8e, 0x1f, 0x45, 0x00, 0x00, 0x49, 0x00, 0x61, 0x44, 0x50, 0x00, 0x49, 
  0x50, 0x00, 0x4e, 0x50, 0x00, 0x50, 0x50, 0x8e, 0x1f, 0x44, 0x00, 0x00, 0x49, 0x00, 0x00, 0x4e, 
  0x00, 0x00, 0x50, 0x00, 0x61, 0x45, 0x50, 0x00, 0x49, 0x50, 0x00, 0x4e, 0x50, 0x00, 0x51, 0x50, 
  0x83, 0x47, 0x45, 0x00, 0x00, 0x49, 0x00, 0x00, 0x4e, 0x00, 0x00, 0x51, 0x00, 0x19, 0x50, 0x50, 
  0x81, 0x63, 0x50, 0x00, 0x0d, 0x4e, 0x50, 0x85, 0x2b, 0x4e, 0x00, 0x25, 0x45, 0x50, 0x87, 0x0f, 
  0x45, 0x00, 0x31, 0x47, 0x50, 0x81, 0x63, 0x47, 0x00, 0x0d, 0x49, 0x50, 0x81, 0x63, 0x49, 0x00, 
  0x0d, 0x47, 0x50, 0x83, 0x47, 0x47, 0x00, 0x19, 0x45, 0x50, 0x83, 0x47, 0x45, 0x00, 0x19, 0x4c, 
  0x50, 0x8e, 0x1f, 0x4c, 0x00, 0x88, 0x21, 0x4e, 0x50, 0x83, 0x47, 0x4e, 0x00, 0x19, 0x49, 0x50, 
  0x91, 0x67, 0x49, 0x00, 0x79, 0x39, 0x50, 0x00, 0x3b, 0x50, 0x00, 0x40, 0x50, 0x8e, 0x1f, 0x39, 
  0x00, 0x00, 0x3b, 0x00, 0x00, 0x40, 0x00, 0x61, 0x4e, 0x50, 0x83, 0x47, 0x4e, 0x00, 0x19, 0x4e, 
  0x50, 0x81, 0x63, 0x4e, 0x00, 0x0d, 0x4a, 0x50, 0x83, 0x47, 0x4a, 0x00, 0x19, 0x47, 0x50, 0x83, 
  0x47, 0x47, 0x00, 0x19, 0x4c, 0x50, 0x87, 0x0f, 0x4c, 0x00, 0x31, 0x47, 0x50, 0x81, 0x63, 0x47, 
  0x00, 0x0d, 0x50, 0x50, 0x81, 0x63, 0x50, 0x00, 0x0d, 0x47, 0x50, 0x81, 0x63, 0x47, 0x00, 0x0d, 
  0x51, 0x50, 0x81, 0x63, 0x51, 0x00, 0x0d, 0x53, 0x50, 0x81, 0x63, 0x53, 0x00, 0x0d, 0x51, 0x50, 
  0x83, 0x47, 0x51, 0x00, 0x19, 0x51, 0x50, 0x81, 0x63, 0x51, 0x00, 0x0d, 0x4c, 0x50, 0x83, 0x47, 
  0x4c, 0x00, 0x19, 0x4a, 0x50, 0x83, 0x47, 0x4a, 0x00, 0x19, 0x4c, 0x50, 0x41, 0x4c, 0x00, 0x01, 
  0x4e, 0x50, 0x86, 0x4f, 0x4e, 0x00, 0x2f, 0x4e, 0x50, 0x81, 0x63, 0x4e, 0x00, 0x0d, 0x4c, 0x50, 
  0x83, 0x47, 0x4c, 0x00, 0x19, 0x4e, 0x50, 0x81, 0x63, 0x4e, 0x00, 0x0d, 0x4c, 0x50, 0x81, 0x63, 
  0x4c, 0x00, 0x0d, 0x4e, 0x50, 0x83, 0x47, 0x4e, 0x00, 0x19, 0x4e, 0x50, 0x81, 0x63, 0x4e, 0x00, 
  0x0d, 0x4a, 0x50, 0x83, 0x47, 0x4a, 0x00, 0x19, 0x47, 0x50, 0x83, 0x47, 0x47, 0x00, 0x19, 0x4c, 
  0x50, 0x88, 0x73, 0x4c, 0x00, 0x3d, 0x50, 0x50, 0x81, 0x63, 0x50, 0x00, 0x0d, 0x47, 0x50, 0x81, 
  0x63, 0x47, 0x00, 0x0d, 0x51, 0x50, 0x81, 0x63, 0x51, 0x00, 0x0d, 0x53, 0x50, 0x81, 0x63, 0x53, 
  0x00, 0x0d, 0x51, 0x50, 0x83, 0x47, 0x51, 0x00, 0x19, 0x51, 0x50, 0x81, 0x63, 0x51, 0x00, 0x0d, 
  0x4c, 0x50, 0x83, 0x47, 0x4c, 0x00, 0x19, 0x4a, 0x50, 0x83, 0x47, 0x4a, 0x00, 0x19, 0x4c, 0x50, 
  0x41, 0x4c, 0x00, 0x01, 0x4e, 0x50, 0x86, 0x4f, 0x4e, 0x00, 0x2f, 0x4e, 0x50, 0x81, 0x63, 0x4e, 
  0x00, 0x0d, 0x4c, 0x50, 0x81, 0x63, 0x4c, 0x00, 0x0d, 0x4c, 0x50, 0x81, 0x63, 0x4c, 0x00, 0x0d, 
  0x4e, 0x50, 0x81, 0x63, 0x4e, 0x00, 0x0d, 0x4c, 0x50, 0x81, 0x63, 0x4c, 0x00, 0x0d, 0x4e, 0x50, 
  0x83, 0x47, 0x4e, 0x00, 0x19, 0x4e, 0x50, 0x81, 0x63, 0x4e, 0x00, 0x0d, 0x4a, 0x50, 0x83, 0x47, 
  0x4a, 0x00, 0x19, 0x47, 0x50, 0x83, 0x47, 0x47, 0x00, 0x19, 0x4c, 0x50, 0x88, 0x73, 0x4c, 0x00, 
  0x3d, 0x50, 0x50, 0x83, 0x47, 0x50, 0x00, 0x19, 0x51, 0x50, 0x81, 0x63, 0x51, 0x00, 0x0d, 0x53, 
  0x50, 0x81, 0x63, 0x53, 0x00, 0x0d, 0x51, 0x50, 0x83, 0x47, 0x51, 0x00, 0x19, 0x51, 0x50, 0x81, 
  0x63, 0x51, 0x00, 0x0d, 0x4e, 0x50, 0x83, 0x47, 0x4e, 0x00, 0x19, 0x4a, 0x50, 0x83, 0x47, 0x4a, 
  0x00, 0x19, 0x4c, 0x50, 0x8c, 0x3b, 0x4c, 0x00, 0x55, 0x4a, 0x50, 0x81, 0x63, 0x4a, 0x00, 0x0d, 
  0x49, 0x50, 0x81, 0x63, 0x49, 0x00, 0x0d, 0x4a, 0x50, 0x85, 0x2b, 0x4a, 0x00, 0x25, 0x4a, 0x50, 
  0x83, 0x47, 0x4a, 0x00, 0x19, 0x49, 0x50, 0x81, 0x63, 0x49, 0x00, 0x0d, 0x4a, 0x50, 0x91, 0x67, 
  0x4a, 0x00, 0x79, 0x49, 0x50, 0x81, 0x63, 0x49, 0x00, 0x0d, 0x49, 0x50, 0x83, 0x47, 0x49, 0x00, 
  0x19, 0x49, 0x50, 0x85, 0x2b, 0x49, 0x00, 0x25, 0x45, 0x50, 0x83, 0x47, 0x45, 0x00, 0x82, 0x09, 
  0x45, 0x50, 0x00, 0x4e, 0x50, 0x83, 0x47, 0x45, 0x00, 0x00, 0x4e, 0x00, 0x19, 0x45, 0x50, 0x00, 
  0x4e, 0x50, 0x81, 0x63, 0x45, 0x00, 0x00, 0x4e, 0x00, 0x0d, 0x45, 0x50, 0x00, 0x4e, 0x50, 0x83, 
  0x47, 0x45, 0x00, 0x00, 0x4e, 0x00, 0x19, 0x4c, 0x50, 0x83, 0x47, 0x4c, 0x00, 0x19, 0x3e, 0x50, 
  0x00, 0x42, 0x50, 0x00, 0x4a, 0x50, 0x85, 0x2b, 0x3e, 0x00, 0x00, 0x42, 0x00, 0x00, 0x4a, 0x00, 
  0x25, 0x3e, 0x50, 0x00, 0x4a, 0x50, 0x83, 0x47, 0x3e, 0x00, 0x00, 0x4a, 0x00, 0x19, 0x49, 0x50, 
  0x81, 0x63, 0x49, 0x00, 0x0d, 0x47, 0x50, 0x8e, 0x1f, 0x47, 0x00, 0x82, 0x51, 0x45, 0x50, 0x81, 
  0x63, 0x45, 0x00, 0x0d, 0x49, 0x50, 0x83, 0x47, 0x49, 0x00, 0x19, 0x49, 0x50, 0x81, 0x63, 0x49, 
  0x00, 0x0d, 0x49, 0x50, 0x83, 0x47, 0x49, 0x00, 0x19, 0x47, 0x50, 0x83, 0x47, 0x47, 0x00, 0x19, 
  0x45, 0x50, 0x83, 0x47, 0x45, 0x00, 0x19, 0x47, 0x50, 0x83, 0x47, 0x47, 0x00, 0x19, 0x49, 0x50, 
  0x81, 0x63, 0x49, 0x00, 0x0d, 0x47, 0x50, 0x83, 0x47, 0x47, 0x00, 0x19, 0x45, 0x50, 0x83, 0x47, 
  0x45, 0x00, 0x83, 0x79, 0x4a, 0x50, 0x83, 0x47, 0x4a, 0x00, 0x19, 0x4a, 0x50, 0x81, 0x63, 0x4a, 
  0x00, 0x0d, 0x4a, 0x50, 0x83, 0x47, 0x4a, 0x00, 0x19, 0x4a, 0x50, 0x90, 0x03, 0x4a, 0x00, 0x84, 
  0x4d, 0x39, 0x50, 0x00, 0x45, 0x50, 0x83, 0x47, 0x39, 0x00, 0x00, 0x45, 0x00, 0x19, 0x39, 0x50, 
  0x00, 0x45, 0x50, 0x81, 0x63, 0x39, 0x00, 0x00, 0x45, 0x00, 0x0d, 0x39, 0x50, 0x00, 0x45, 0x50, 
  0x81, 0x63, 0x39, 0x00, 0x00, 0x45, 0x00, 0x0d, 0x39, 0x50, 0x00, 0x45, 0x50, 0x81, 0x63, 0x39, 
  0x00, 0x00, 0x45, 0x00, 0x0d, 0x39, 0x50, 0x00, 0x45, 0x50, 0x81, 0x63, 0x39, 0x00, 0x00, 0x45, 
  0x00, 0x0d, 0x39, 0x50, 0x00, 0x45, 0x50, 0x81, 0x63, 0x39, 0x00, 0x00, 0x45, 0x00, 0x0d, 0x39, 
  0x50, 0x00, 0x44, 0x50, 0x83, 0x47, 0x39, 0x00, 0x00, 0x44, 0x00, 0x19, 0x39, 0x50, 0x00, 0x44, 
  0x50, 0x83, 0x47, 0x39, 0x00, 0x00, 0x44, 0x00, 0x19, 0x39, 0x50, 0x00, 0x42, 0x50, 0x83, 0x47, 
  0x39, 0x00, 0x00, 0x42, 0x00, 0x82, 0x09, 0x39, 0x50, 0x8a, 0x57, 0x39, 0x00, 0x82, 0x39, 0x3b, 
  0x50, 0x81, 0x63, 0x3b, 0x00, 0x0d, 0x44, 0x50, 0x8a, 0x57, 0x44, 0x00, 0x49, 0x40, 0x50, 0x81, 
  0x63, 0x40, 0x00, 0x0d, 0x44, 0x50, 0x81, 0x63, 0x44, 0x00, 0x0d, 0x45, 0x50, 0x87, 0x0f, 0x45, 
  0x00, 0x82, 0x21, 0x39, 0x50, 0x81, 0x63, 0x39, 0x00, 0x0d, 0x3b, 0x50, 0x81, 0x63, 0x3b, 0x00, 
  0x0d, 0x39, 0x50, 0x81, 0x63, 0x39, 0x00, 0x0d, 0x39, 0x50, 0x00, 0x3d, 0x50, 0x87, 0x0f, 0x39, 
  0x00, 0x00, 0x3d, 0x00, 0x31, 0x38, 0x50, 0x00, 0x3b, 0x50, 0x00, 0x44, 0x50, 0x87, 0x0f, 0x38, 
  0x00, 0x00, 0x3b, 0x00, 0x00, 0x44, 0x00, 0x31, 0x40, 0x50, 0x00, 0x45, 0x50, 0x8e, 0x1f, 0x40, 
  0x00, 0x00, 0x45, 0x00, 0x61, 0x40, 0x50, 0x00, 0x47, 0x50, 0x00, 0x4c, 0x50, 0x8e, 0x1f, 0x40, 
  0x00, 0x00, 0x47, 0x00, 0x00, 0x4c, 0x00, 0x61, 0x45, 0x50, 0x00, 0x49, 0x50, 0x00, 0x4e, 0x50, 
  0x8e, 0x1f, 0x45, 0x00, 0x00, 0x49, 0x00, 0x00, 0x4e, 0x00, 0x61, 0x3e, 0x50, 0x00, 0x42, 0x50, 
  0x85, 0x2b, 0x3e, 0x00, 0x00, 0x42, 0x00, 0x25, 0x39, 0x50, 0x81, 0x63, 0x39, 0x00, 0x0d, 0x3e, 
  0x50, 0x00, 0x44, 0x50, 0x87, 0x0f, 0x3e, 0x00, 0x00, 0x44, 0x00, 0x31, 0x45, 0x50, 0x00, 0x49, 
  0x50, 0x8e, 0x1f, 0x45, 0x00, 0x00, 0x49, 0x00, 0x61, 0x44, 0x50, 0x00, 0x49, 0x50, 0x00, 0x4e, 
  0x50, 0x00, 0x50, 0x50, 0x8e, 0x1f, 0x44, 0x00, 0x00, 0x49, 0x00, 0x00, 0x4e, 0x00, 0x00, 0x50, 
  0x00, 0x61, 0x45, 0x50, 0x00, 0x49, 0x50, 0x00, 0x4e, 0x50, 0x00, 0x51, 0x50, 0x83, 0x47, 0x45, 
  0x00, 0x00, 0x49, 0x00, 0x00, 0x4e, 0x00, 0x00, 0x51, 0x00, 0x19, 0x50, 0x50, 0x81, 0x63, 0x50, 
  0x00, 0x0d, 0x45, 0x50, 0x00, 0x4e, 0x50, 0x88, 0x73, 0x45, 0x00, 0x00, 0x4e, 0x00, 0x84, 0x1d, 
  0x47, 0x50, 0x81, 0x63, 0x47, 0x00, 0x0d, 0x49, 0x50, 0x81, 0x63, 0x49, 0x00, 0x0d, 0x47, 0x50, 
  0x83, 0x47, 0x47, 0x00, 0x19, 0x45, 0x50, 0x83, 0x47, 0x45, 0x00, 0x83, 0x79, 0x4c, 0x50, 0x8a, 
  0x57, 0x4c, 0x00, 0x49, 0x44, 0x50, 0x87, 0x0f, 0x44, 0x00, 0x31, 0x45, 0x50, 0x00, 0x4e, 0x50, 
  0x87, 0x0f, 0x45, 0x00, 0x00, 0x4e, 0x00, 0x31, 0x49, 0x50, 0x8a, 0x57, 0x49, 0x00, 0x49, 0x3d, 
  0x50, 0x83, 0x47, 0x3d, 0x00, 0x19, 0x39, 0x50, 0x00, 0x3e, 0x50, 0x87, 0x0f, 0x39, 0x00, 0x00, 
  0x3e, 0x00, 0x31, 0x3e, 0x50, 0x00, 0x45, 0x50, 0x87, 0x0f, 0x3e, 0x00, 0x00, 0x45, 0x00, 0x31, 
  0x45, 0x50, 0x00, 0x49, 0x50, 0x8e, 0x1f, 0x45, 0x00, 0x00, 0x49, 0x00, 0x61, 0x44, 0x50, 0x00, 
  0x49, 0x50, 0x00, 0x4e, 0x50, 0x00, 0x50, 0x50, 0x8e, 0x1f, 0x44, 0x00, 0x00, 0x49, 0x00, 0x00, 
  0x4e, 0x00, 0x00, 0x50, 0x00, 0x61, 0x45, 0x50, 0x00, 0x49, 0x50, 0x00, 0x4e, 0x50, 0x00, 0x51, 
  0x50, 0x83, 0x47, 0x45, 0x00, 0x00, 0x49, 0x00, 0x00, 0x4e, 0x00, 0x00, 0x51, 0x00, 0x19, 0x50, 
  0x50, 0x81, 0x63, 0x50, 0x00, 0x0d, 0x4e, 0x50, 0x85, 0x2b, 0x4e, 0x00, 0x25, 0x45, 0x50, 0x87, 
  0x0f, 0x45, 0x00, 0x31, 0x47, 0x50, 0x81, 0x63, 0x47, 0x00, 0x0d, 0x49, 0x50, 0x81, 0x63, 0x49, 
  0x00, 0x0d, 0x47, 0x50, 0x83, 0x47, 0x47, 0x00, 0x19, 0x45, 0x50, 0x83, 0x47, 0x45, 0x00, 0x83, 
  0x79, 0x4c, 0x50, 0x8a, 0x57, 0x4c, 0x00, 0x88, 0x09, 0x4e, 0x50, 0x83, 0x47, 0x4e, 0x00, 0x19, 
  0x49, 0x50, 0x83, 0x60, 0xff, 0x51, 0x03, 0x07, 0xa1, 0x20, 0x8e, 0x07, 0x90, 0x49, 0x00, 0x79, 
  0xff, 0x51, 0x03, 0x08, 0x07, 0xec, 0x00, 0x90, 0x3e, 0x50, 0x83, 0x47, 0x3e, 0x00, 0x19, 0x47, 
  0x50, 0x81, 0x63, 0x47, 0x00, 0x0d, 0x49, 0x50, 0x81, 0x63, 0x49, 0x00, 0x0d, 0x47, 0x50, 0x83, 
  0x47, 0x47, 0x00, 0x19, 0x45, 0x50, 0x83, 0x60, 0xff, 0x51, 0x03, 0x08, 0x7a, 0x24, 0x86, 0x77, 
  0x90, 0x45, 0x00, 0x49, 0x45, 0x50, 0x87, 0x0f, 0x45, 0x00, 0x31, 0xff, 0x51, 0x03, 0x09, 0x27, 
  0xbf, 0x00, 0x90, 0x44, 0x50, 0x87, 0x0f, 0x44, 0x00, 0x31, 0x40, 0x50, 0x87, 0x0f, 0x40, 0x00, 
  0x31, 0xff, 0x51, 0x03, 0x0a, 0xa5, 0x4c, 0x00, 0x90, 0x32, 0x50, 0x00, 0x36, 0x50, 0x00, 0x39, 
  0x50, 0x00, 0x3d, 0x50, 0x00, 0x40, 0x50, 0x8e, 0x1f, 0x32, 0x00, 0x00, 0x36, 0x00, 0x00, 0x39, 
  0x00, 0x00, 0x3d, 0x00, 0x00, 0x40, 0x00, 0x61, 0x38, 0x50, 0x00, 0x3b, 0x50, 0x00, 0x3e, 0x50, 
  0x00, 0x42, 0x50, 0x00, 0x44, 0x50, 0x8e, 0x1f, 0x38, 0x00, 0x00, 0x3b, 0x00, 0x00, 0x3e, 0x00, 
  0x00, 0x42, 0x00, 0x00, 0x44, 0x00, 0x61, 0x39, 0x50, 0x00, 0x3d, 0x50, 0x00, 0x40, 0x50, 0x00, 
  0x45, 0x50, 0x8e, 0x1f, 0x39, 0x00, 0x00, 0x3d, 0x00, 0x00, 0x40, 0x00, 0x00, 0x45, 0x00, 0x01, 
  0xff, 0x2f, 0x00, 0x4d, 0x54, 0x72, 0x6b, 0x00, 0x00, 0x10, 0x15, 0x00, 0xff, 0x59, 0x02, 0x03, 
  0x00, 0x00, 0xff, 0x21, 0x01, 0x00, 0x00, 0x90, 0x2f, 0x50, 0x02, 0xb0, 0x40, 0x7f, 0x87, 0x0d, 
  0x90, 0x2f, 0x00, 0x31, 0x36, 0x50, 0x87, 0x0f, 0x36, 0x00, 0x31, 0x2c, 0x50, 0x01, 0xb0, 0x40, 
  0x00, 0x01, 0x40, 0x7f, 0x83, 0x45, 0x90, 0x2c, 0x00, 0x19, 0x34, 0x50, 0x83, 0x47, 0x34, 0x00, 
  0x19, 0x38, 0x50, 0x87, 0x0f, 0x38, 0x00, 0x31, 0x2d, 0x50, 0x01, 0xb0, 0x40, 0x00, 0x01, 0x40, 
  0x7f, 0x87, 0x0d, 0x90, 0x2d, 0x00, 0x31, 0x34, 0x50, 0x87, 0x0f, 0x34, 0x00, 0x31, 0x32, 0x50, 
  0x01, 0xb0, 0x40, 0x00, 0x01, 0x40, 0x7f, 0x87, 0x0d, 0x90, 0x32, 0x00, 0x31, 0x31, 0x50, 0x87, 
  0x0f, 0x31, 0x00, 0x31, 0x2f, 0x50, 0x01, 0xb0, 0x40, 0x00, 0x01, 0x40, 0x7f, 0x87, 0x0d, 0x90, 
  0x2f, 0x00, 0x31, 0x36, 0x50, 0x87, 0x0f, 0x36, 0x00, 0x31, 0x2c, 0x50, 0x01, 0xb0, 0x40, 0x00, 
  0x01, 0x40, 0x7f, 0x83, 0x45, 0x90, 0x2c, 0x00, 0x19, 0x34, 0x50, 0x83, 0x47, 0x34, 0x00, 0x19, 
  0x38, 0x50, 0x87, 0x0f, 0x38, 0x00, 0x31, 0x2d, 0x50, 0x01, 0xb0, 0x40, 0x00, 0x01, 0x40, 0x7f, 
  0x87, 0x0d, 0x90, 0x2d, 0x00, 0x31, 0x34, 0x50, 0x87, 0x0f, 0x34, 0x00, 0x31, 0x32, 0x50, 0x01, 
  0xb0, 0x40, 0x00, 0x01, 0x40, 0x7f, 0x87, 0x0d, 0x90, 0x32, 0x00, 0x31, 0x31, 0x50, 0x87, 0x0f, 
  0x31, 0x00, 0x31, 0x2f, 0x50, 0x01, 0xb0, 0x40, 0x00, 0x01, 0x40, 0x7f, 0x83, 0x45, 0x90, 0x2f, 
  0x00, 0x19, 0x36, 0x50, 0x83, 0x47, 0x36, 0x00, 0x19, 0x3b, 0x50, 0x87, 0x0f, 0x3b, 0x00, 0x31, 
  0x2c, 0x50, 0x01, 0xb0, 0x40, 0x00, 0x01, 0x40, 0x7f, 0x83, 0x45, 0x90, 0x2c, 0x00, 0x19, 0x34, 
  0x50, 0x83, 0x47, 0x34, 0x00, 0x19, 0x3b, 0x50, 0x87, 0x0f, 0x3b, 0x00, 0x31, 0x2a, 0x50, 0x01, 
  0xb0, 0x40, 0x00, 0x01, 0x40, 0x7f, 0x83, 0x45, 0x90, 0x2a, 0x00, 0x19, 0x31, 0x50, 0x83, 0x47, 
  0x31, 0x00, 0x19, 0x39, 0x50, 0x87, 0x0f, 0x39, 0x00, 0x31, 0x2a, 0x50, 0x00, 0x31, 0x50, 0x01, 
  0xb0, 0x40, 0x00, 0x01, 0x40, 0x7f, 0x87, 0x0d, 0x90, 0x2a, 0x00, 0x00, 0x31, 0x00, 0x31, 0x2c, 
  0x50, 0x00, 0x34, 0x50, 0x00, 0x38, 0x50, 0x87, 0x0f, 0x2c, 0x00, 0x00, 0x34, 0x00, 0x00, 0x38, 
  0x00, 0x31, 0x2f, 0x50, 0x01, 0xb0, 0x40, 0x00, 0x00, 0x40, 0x00, 0x01, 0x40, 0x7f, 0x00, 0x40, 
  0x7f, 0x83, 0x45, 0x90, 0x2f, 0x00, 0x19, 0x36, 0x50, 0x83, 0x47, 0x36, 0x00, 0x19, 0x3e, 0x50, 
  0x87, 0x0f, 0x3e, 0x00, 0x31, 0x2c, 0x50, 0x01, 0xb0, 0x40, 0x00, 0x01, 0x40, 0x7f, 0x83, 0x45, 
  0x90, 0x2c, 0x00, 0x19, 0x34, 0x50, 0x83, 0x47, 0x34, 0x00, 0x19, 0x3b, 0x50, 0x87, 0x0f, 0x3b, 
  0x00, 0x31, 0x2a, 0x50, 0x01, 0xb0, 0x40, 0x00, 0x01, 0x40, 0x7f, 0x83, 0x45, 0x90, 0x2a, 0x00, 
  0x19, 0x31, 0x50, 0x83, 0x47, 0x31, 0x00, 0x19, 0x36, 0x50, 0x87, 0x0f, 0x36, 0x00, 0x31, 0x2a, 
  0x50, 0x00, 0x31, 0x50, 0x00, 0x36, 0x50, 0x01, 0xb0, 0x40, 0x00, 0x01, 0x40, 0x7f, 0x87, 0x0d, 
  0x90, 0x2a, 0x00, 0x00, 0x31, 0x00, 0x00, 0x36, 0x00, 0x31, 0x2c, 0x50, 0x00, 0x34, 0x50, 0x00, 
  0x38, 0x50, 0x01, 0xb0, 0x40, 0x00, 0x01, 0x40, 0x7f, 0x87, 0x0d, 0x90, 0x2c, 0x00, 0x00, 0x34, 
  0x00, 0x00, 0x38, 0x00, 0x31, 0x2f, 0x50, 0x01, 0xb0, 0x40, 0x00, 0x00, 0x40, 0x00, 0x01, 0x40, 
  0x7f, 0x00, 0x40, 0x7f, 0x83, 0x45, 0x90, 0x2f, 0x00, 0x19, 0x36, 0x50, 0x83, 0x47, 0x36, 0x00, 
  0x19, 0x3e, 0x50, 0x87, 0x0f, 0x3e, 0x00, 0x31, 0x2c, 0x50, 0x01, 0xb0, 0x40, 0x00, 0x01, 0x40, 
  0x7f, 0x83, 0x45, 0x90, 0x2c, 0x00, 0x19, 0x34, 0x50, 0x83, 0x47, 0x34, 0x00, 0x19, 0x3b, 0x50, 
  0x87, 0x0f, 0x3b, 0x00, 0x31, 0x2a, 0x50, 0x01, 0xb0, 0x40, 0x00, 0x01, 0x40, 0x7f, 0x83, 0x45, 
  0x90, 0x2a, 0x00, 0x19, 0x31, 0x50, 0x83, 0x47, 0x31, 0x00, 0x19, 0x36, 0x50, 0x87, 0x0f, 0x36, 
  0x00, 0x31, 0x26, 0x50, 0x01, 0xb0, 0x40, 0x00, 0x01, 0x40, 0x7f, 0x83, 0x45, 0x90, 0x26, 0x00, 
  0x19, 0x2d, 0x50, 0x83, 0x47, 0x2d, 0x00, 0x19, 0x32, 0x50, 0x87, 0x0f, 0x32, 0x00, 0x31, 0x21, 
  0x50, 0x01, 0xb0, 0x40, 0x00, 0x01, 0x40, 0x7f, 0x83, 0x45, 0x90, 0x21, 0x00, 0x19, 0x2d, 0x50, 
  0x81, 0x63, 0x2d, 0x00, 0x0d, 0x31, 0x50, 0x83, 0x47, 0x31, 0x00, 0x19, 0x34, 0x50, 0x81, 0x63, 
  0x34, 0x00, 0x0d, 0x39, 0x50, 0x83, 0x47, 0x39, 0x00, 0x19, 0x2c, 0x50, 0x01, 0xb0, 0x40, 0x00, 
  0x01, 0x40, 0x7f, 0x83, 0x45, 0x90, 0x2c, 0x00, 0x19, 0x34, 0x50, 0x83, 0x47, 0x34, 0x00, 0x19, 
  0x38, 0x50, 0x87, 0x0f, 0x38, 0x00, 0x31, 0x2a, 0x50, 0x01, 0xb0, 0x40, 0x00, 0x01, 0x40, 0x7f, 
  0x83, 0x45, 0x90, 0x2a, 0x00, 0x19, 0x31, 0x50, 0x83, 0x47, 0x31, 0x00, 0x19, 0x36, 0x50, 0x87, 
  0x0f, 0x36, 0x00, 0x31, 0x2a, 0x50, 0x00, 0x31, 0x50, 0x00, 0x36, 0x50, 0x01, 0xb0, 0x40, 0x00, 
  0x01, 0x40, 0x7f, 0x87, 0x0d, 0x90, 0x2a, 0x00, 0x00, 0x31, 0x00, 0x00, 0x36, 0x00, 0x31, 0x2c, 
  0x50, 0x00, 0x34, 0x50, 0x00, 0x38, 0x50, 0x01, 0xb0, 0x40, 0x00, 0x01, 0x40, 0x7f, 0x87, 0x0d, 
  0x90, 0x2c, 0x00, 0x00, 0x34, 0x00, 0x00, 0x38, 0x00, 0x31, 0x2d, 0x50, 0x01, 0xb0, 0x40, 0x00, 
  0x01, 0x40, 0x7f, 0x83, 0x45, 0x90, 0x2d, 0x00, 0x19, 0x34, 0x50, 0x81, 0x63, 0x34, 0x00, 0x0d, 
  0x39, 0x50, 0x83, 0x47, 0x39, 0x00, 0x19, 0x34, 0x50, 0x81, 0x63, 0x34, 0x00, 0x0d, 0x3b, 0x50, 
  0x83, 0x47, 0x3b, 0x00, 0x19, 0x2c, 0x50, 0x01, 0xb0, 0x40, 0x00, 0x01, 0x40, 0x7f, 0x83, 0x45, 
  0x90, 0x2c, 0x00, 0x19, 0x34, 0x50, 0x81, 0x63, 0x34, 0x00, 0x0d, 0x38, 0x50, 0x83, 0x47, 0x38, 
  0x00, 0x19, 0x34, 0x50, 0x81, 0x63, 0x34, 0x00, 0x0d, 0x3b, 0x50, 0x83, 0x47, 0x3b, 0x00, 0x19, 
  0x2a, 0x50, 0x01, 0xb0, 0x40, 0x00, 0x00, 0x40, 0x00, 0x01, 0x40, 0x7f, 0x00, 0x40, 0x7f, 0x83, 
  0x45, 0x90, 0x2a, 0x00, 0x19, 0x31, 0x50, 0x81, 0x63, 0x31, 0x00, 0x0d, 0x36, 0x50, 0x83, 0x47, 
  0x36, 0x00, 0x19, 0x31, 0x50, 0x81, 0x63, 0x31, 0x00, 0x0d, 0x38, 0x50, 0x83, 0x47, 0x38, 0x00, 
  0x19, 0x26, 0x50, 0x01, 0xb0, 0x40, 0x00, 0x01, 0x40, 0x7f, 0x83, 0x45, 0x90, 0x26, 0x00, 0x19, 
  0x2d, 0x50, 0x83, 0x47, 0x2d, 0x00, 0x19, 0x32, 0x50, 0x83, 0x47, 0x32, 0x00, 0x19, 0x2a, 0x50, 
  0x83, 0x47, 0x2a, 0x00, 0x19, 0x2d, 0x50, 0x01, 0xb0, 0x40, 0x00, 0x01, 0x40, 0x7f, 0x83, 0x45, 
  0x90, 0x2d, 0x00, 0x19, 0x34, 0x50, 0x81, 0x63, 0x34, 0x00, 0x0d, 0x39, 0x50, 0x83, 0x47, 0x39, 
  0x00, 0x19, 0x34, 0x50, 0x81, 0x63, 0x34, 0x00, 0x0d, 0x3d, 0x50, 0x83, 0x47, 0x3d, 0x00, 0x19, 
  0x2c, 0x50, 0x01, 0xb0, 0x40, 0x00, 0x01, 0x40, 0x7f, 0x83, 0x45, 0x90, 0x2c, 0x00, 0x19, 0x36, 
  0x50, 0x81, 0x63, 0x36, 0x00, 0x0d, 0x3b, 0x50, 0x83, 0x47, 0x3b, 0x00, 0x19, 0x36, 0x50, 0x81, 
  0x63, 0x36, 0x00, 0x0d, 0x3d, 0x50, 0x83, 0x47, 0x3d, 0x00, 0x19, 0x2a, 0x50, 0x01, 0xb0, 0x40, 
  0x00, 0x00, 0x40, 0x00, 0x01, 0x40, 0x7f, 0x00, 0x40, 0x7f, 0x83, 0x45, 0x90, 0x2a, 0x00, 0x19, 
  0x31, 0x50, 0x81, 0x63, 0x31, 0x00, 0x0d, 0x36, 0x50, 0x83, 0x47, 0x36, 0x00, 0x19, 0x31, 0x50, 
  0x81, 0x63, 0x31, 0x00, 0x0d, 0x39, 0x50, 0x83, 0x47, 0x39, 0x00, 0x19, 0x26, 0x50, 0x01, 0xb0, 
  0x40, 0x00, 0x01, 0x40, 0x7f, 0x87, 0x0d, 0x90, 0x26, 0x00, 0x31, 0x32, 0x50, 0x87, 0x0f, 0x32, 
  0x00, 0x31, 0x2d, 0x50, 0x01, 0xb0, 0x40, 0x00, 0x01, 0x40, 0x7f, 0x83, 0x45, 0x90, 0x2d, 0x00, 
  0x19, 0x34, 0x50, 0x81, 0x63, 0x34, 0x00, 0x0d, 0x39, 0x50, 0x83, 0x47, 0x39, 0x00, 0x19, 0x34, 
  0x50, 0x81, 0x63, 0x34, 0x00, 0x0d, 0x3b, 0x50, 0x83, 0x47, 0x3b, 0x00, 0x19, 0x2c, 0x50, 0x01, 
  0xb0, 0x40, 0x00, 0x01, 0x40, 0x7f, 0x83, 0x45, 0x90, 0x2c, 0x00, 0x19, 0x34, 0x50, 0x83, 0x47, 
  0x34, 0x00, 0x19, 0x38, 0x50, 0x87, 0x0f, 0x38, 0x00, 0x31, 0x26, 0x50, 0x01, 0xb0, 0x40, 0x00, 
  0x01, 0x40, 0x7f, 0x83, 0x45, 0x90, 0x26, 0x00, 0x19, 0x2d, 0x50, 0x83, 0x47, 0x2d, 0x00, 0x19, 
  0x32, 0x50, 0x83, 0x47, 0x32, 0x00, 0x19, 0x36, 0x50, 0x83, 0x47, 0x36, 0x00, 0x19, 0x28, 0x50, 
  0x00, 0x34, 0x50, 0x01, 0xb0, 0x40, 0x00, 0x01, 0x40, 0x7f, 0x8e, 0x1d, 0x90, 0x28, 0x00, 0x00, 
  0x34, 0x00, 0x61, 0x2f, 0x50, 0x01, 0xb0, 0x40, 0x00, 0x01, 0x40, 0x7f, 0x83, 0x45, 0x90, 0x2f, 
  0x00, 0x19, 0x36, 0x50, 0x83, 0x47, 0x36, 0x00, 0x19, 0x3e, 0x50, 0x87, 0x0f, 0x3e, 0x00, 0x31, 
  0x2c, 0x50, 0x01, 0xb0, 0x40, 0x00, 0x01, 0x40, 0x7f, 0x83, 0x45, 0x90, 0x2c, 0x00, 0x19, 0x34, 
  0x50, 0x83, 0x47, 0x34, 0x00, 0x19, 0x3b, 0x50, 0x87, 0x0f, 0x3b, 0x00, 0x31, 0x2a, 0x50, 0x01, 
  0xb0, 0x40, 0x00, 0x01, 0x40, 0x7f, 0x83, 0x45, 0x90, 0x2a, 0x00, 0x19, 0x31, 0x50, 0x83, 0x47, 
  0x31, 0x00, 0x19, 0x39, 0x50, 0x87, 0x0f, 0x39, 0x00, 0x31, 0x2a, 0x50, 0x00, 0x31, 0x50, 0x00, 
  0x36, 0x50, 0x01, 0xb0, 0x40, 0x00, 0x01, 0x40, 0x7f, 0x87, 0x0d, 0x90, 0x2a, 0x00, 0x00, 0x31, 
  0x00, 0x00, 0x36, 0x00, 0x31, 0x2c, 0x50, 0x00, 0x34, 0x50, 0x00, 0x38, 0x50, 0x01, 0xb0, 0x40, 
  0x00, 0x01, 0x40, 0x7f, 0x87, 0x0d, 0x90, 0x2c, 0x00, 0x00, 0x34, 0x00, 0x00, 0x38, 0x00, 0x31, 
  0x2f, 0x50, 0x01, 0xb0, 0x40, 0x00, 0x00, 0x40, 0x00, 0x00, 0x40, 0x00, 0x01, 0x40, 0x7f, 0x00, 
  0x40, 0x7f, 0x00, 0x40, 0x7f, 0x83, 0x45, 0x90, 0x2f, 0x00, 0x19, 0x36, 0x50, 0x83, 0x47, 0x36, 
  0x00, 0x19, 0x3e, 0x50, 0x87, 0x0f, 0x3e, 0x00, 0x31, 0x2c, 0x50, 0x01, 0xb0, 0x40, 0x00, 0x01, 
  0x40, 0x7f, 0x83, 0x45, 0x90, 0x2c, 0x00, 0x19, 0x34, 0x50, 0x83, 0x47, 0x34, 0x00, 0x19, 0x3b, 
  0x50, 0x87, 0x0f, 0x3b, 0x00, 0x31, 0x2a, 0x50, 0x01, 0xb0, 0x40, 0x00, 0x01, 0x40, 0x7f, 0x83, 
  0x45, 0x90, 0x2a, 0x00, 0x19, 0x31, 0x50, 0x83, 0x47, 0x31, 0x00, 0x19, 0x39, 0x50, 0x87, 0x0f, 
  0x39, 0x00, 0x31, 0x2a, 0x50, 0x00, 0x31, 0x50, 0x01, 0xb0, 0x40, 0x00, 0x01, 0x40, 0x7f, 0x87, 
  0x0d, 0x90, 0x2a, 0x00, 0x00, 0x31, 0x00, 0x31, 0x2c, 0x50, 0x00, 0x34, 0x50, 0x00, 0x38, 0x50, 
  0x01, 0xb0, 0x40, 0x00, 0x01, 0x40, 0x7f, 0x87, 0x0d, 0x90, 0x2c, 0x00, 0x00, 0x34, 0x00, 0x00, 
  0x38, 0x00, 0x31, 0x2f, 0x50, 0x01, 0xb0, 0x40, 0x00, 0x01, 0x40, 0x7f, 0x83, 0x45, 0x90, 0x2f, 
  0x00, 0x19, 0x36, 0x50, 0x83, 0x47, 0x36, 0x00, 0x19, 0x3e, 0x50, 0x87, 0x0f, 0x3e, 0x00, 0x31, 
  0x2c, 0x50, 0x01, 0xb0, 0x40, 0x00, 0x01, 0x40, 0x7f, 0x83, 0x45, 0x90, 0x2c, 0x00, 0x19, 0x34, 
  0x50, 0x83, 0x47, 0x34, 0x00, 0x19, 0x3b, 0x50, 0x87, 0x0f, 0x3b, 0x00, 0x31, 0x2a, 0x50, 0x01, 
  0xb0, 0x40, 0x00, 0x01, 0x40, 0x7f, 0x83, 0x45, 0x90, 0x2a, 0x00, 0x19, 0x31, 0x50, 0x83, 0x47, 
  0x31, 0x00, 0x19, 0x36, 0x50, 0x83, 0x47, 0x36, 0x00, 0x19, 0x31, 0x50, 0x83, 0x47, 0x31, 0x00, 
  0x19, 0x26, 0x50, 0x01, 0xb0, 0x40, 0x00, 0x01, 0x40, 0x7f, 0x83, 0x45, 0x90, 0x26, 0x00, 0x19, 
  0x2d, 0x50, 0x83, 0x47, 0x2d, 0x00, 0x19, 0x32, 0x50, 0x87, 0x0f, 0x32, 0x00, 0x31, 0x21, 0x50, 
  0x01, 0xb0, 0x40, 0x00, 0x01, 0x40, 0x7f, 0x83, 0x45, 0x90, 0x21, 0x00, 0x19, 0x2d, 0x50, 0x81, 
  0x63, 0x2d, 0x00, 0x0d, 0x31, 0x50, 0x83, 0x47, 0x31, 0x00, 0x19, 0x34, 0x50, 0x81, 0x63, 0x34, 
  0x00, 0x0d, 0x39, 0x50, 0x83, 0x47, 0x39, 0x00, 0x19, 0x2c, 0x50, 0x01, 0xb0, 0x40, 0x00, 0x01, 
  0x40, 0x7f, 0x83, 0x45, 0x90, 0x2c, 0x00, 0x19, 0x34, 0x50, 0x81, 0x63, 0x34, 0x00, 0x0d, 0x38, 
  0x50, 0x83, 0x47, 0x38, 0x00, 0x19, 0x3b, 0x50, 0x85, 0x2b, 0x3b, 0x00, 0x25, 0x2a, 0x50, 0x01, 
  0xb0, 0x40, 0x00, 0x01, 0x40, 0x7f, 0x83, 0x45, 0x90, 0x2a, 0x00, 0x19, 0x31, 0x50, 0x81, 0x63, 
  0x31, 0x00, 0x0d, 0x36, 0x50, 0x87, 0x0f, 0x36, 0x00, 0x31, 0x31, 0x50, 0x81, 0x63, 0x31, 0x00, 
  0x0d, 0x2a, 0x50, 0x01, 0xb0, 0x40, 0x00, 0x01, 0x40, 0x7f, 0x83, 0x45, 0x90, 0x2a, 0x00, 0x19, 
  0x36, 0x50, 0x83, 0x47, 0x36, 0x00, 0x19, 0x2c, 0x50, 0x00, 0x34, 0x50, 0x87, 0x0f, 0x2c, 0x00, 
  0x00, 0x34, 0x00, 0x31, 0x2d, 0x50, 0x01, 0xb0, 0x40, 0x00, 0x01, 0x40, 0x7f, 0x83, 0x45, 0x90, 
  0x2d, 0x00, 0x19, 0x34, 0x50, 0x81, 0x63, 0x34, 0x00, 0x0d, 0x39, 0x50, 0x83, 0x47, 0x39, 0x00, 
  0x19, 0x34, 0x50, 0x81, 0x63, 0x34, 0x00, 0x0d, 0x3b, 0x50, 0x83, 0x47, 0x3b, 0x00, 0x19, 0x2c, 
  0x50, 0x01, 0xb0, 0x40, 0x00, 0x01, 0x40, 0x7f, 0x83, 0x45, 0x90, 0x2c, 0x00, 0x19, 0x34, 0x50, 
  0x81, 0x63, 0x34, 0x00, 0x0d, 0x38, 0x50, 0x83, 0x47, 0x38, 0x00, 0x19, 0x34, 0x50, 0x81, 0x63, 
  0x34, 0x00, 0x0d, 0x3b, 0x50, 0x83, 0x47, 0x3b, 0x00, 0x19, 0x2a, 0x50, 0x01, 0xb0, 0x40, 0x00, 
  0x00, 0x40, 0x00, 0x01, 0x40, 0x7f, 0x00, 0x40, 0x7f, 0x83, 0x45, 0x90, 0x2a, 0x00, 0x19, 0x31, 
  0x50, 0x81, 0x63, 0x31, 0x00, 0x0d, 0x36, 0x50, 0x83, 0x47, 0x36, 0x00, 0x19, 0x31, 0x50, 0x81, 
  0x63, 0x31, 0x00, 0x0d, 0x38, 0x50, 0x83, 0x47, 0x38, 0x00, 0x19, 0x26, 0x50, 0x01, 0xb0, 0x40, 
  0x00, 0x01, 0x40, 0x7f, 0x83, 0x45, 0x90, 0x26, 0x00, 0x19, 0x2d, 0x50, 0x83, 0x47, 0x2d, 0x00, 
  0x83, 0x79, 0x2a, 0x50, 0x00, 0x32, 0x50, 0x83, 0x47, 0x2a, 0x00, 0x00, 0x32, 0x00, 0x19, 0x2d, 
  0x50, 0x01, 0xb0, 0x40, 0x00, 0x01, 0x40, 0x7f, 0x83, 0x45, 0x90, 0x2d, 0x00, 0x19, 0x34, 0x50, 
  0x81, 0x63, 0x34, 0x00, 0x0d, 0x39, 0x50, 0x83, 0x47, 0x39, 0x00, 0x19, 0x34, 0x50, 0x81, 0x63, 
  0x34, 0x00, 0x0d, 0x3b, 0x50, 0x83, 0x47, 0x3b, 0x00, 0x19, 0x2c, 0x50, 0x01, 0xb0, 0x40, 0x00, 
  0x01, 0x40, 0x7f, 0x83, 0x45, 0x90, 0x2c, 0x00, 0x19, 0x36, 0x50, 0x81, 0x63, 0x36, 0x00, 0x0d, 
  0x3b, 0x50, 0x83, 0x47, 0x3b, 0x00, 0x19, 0x36, 0x50, 0x81, 0x63, 0x36, 0x00, 0x0d, 0x3d, 0x50, 
  0x83, 0x47, 0x3d, 0x00, 0x19, 0x2a, 0x50, 0x01, 0xb0, 0x40, 0x00, 0x00, 0x40, 0x00, 0x01, 0x40, 
  0x7f, 0x00, 0x40, 0x7f, 0x83, 0x45, 0x90, 0x2a, 0x00, 0x19, 0x31, 0x50, 0x83, 0x47, 0x31, 0x00, 
  0x19, 0x36, 0x50, 0x87, 0x0f, 0x36, 0x00, 0x31, 0x26, 0x50, 0x01, 0xb0, 0x40, 0x00, 0x01, 0x40, 
  0x7f, 0x87, 0x0d, 0x90, 0x26, 0x00, 0x31, 0x32, 0x50, 0x87, 0x0f, 0x32, 0x00, 0x31, 0x2d, 0x50, 
  0x01, 0xb0, 0x40, 0x00, 0x01, 0x40, 0x7f, 0x83, 0x45, 0x90, 0x2d, 0x00, 0x19, 0x34, 0x50, 0x81, 
  0x63, 0x34, 0x00, 0x0d, 0x39, 0x50, 0x83, 0x47, 0x39, 0x00, 0x19, 0x34, 0x50, 0x81, 0x63, 0x34, 
  0x00, 0x0d, 0x3b, 0x50, 0x83, 0x47, 0x3b, 0x00, 0x19, 0x2c, 0x50, 0x01, 0xb0, 0x40, 0x00, 0x01, 
  0x40, 0x7f, 0x83, 0x45, 0x90, 0x2c, 0x00, 0x19, 0x34, 0x50, 0x83, 0x47, 0x34, 0x00, 0x19, 0x38, 
  0x50, 0x87, 0x0f, 0x38, 0x00, 0x31, 0x26, 0x50, 0x01, 0xb0, 0x40, 0x00, 0x01, 0x40, 0x7f, 0x83, 
  0x45, 0x90, 0x26, 0x00, 0x19, 0x2d, 0x50, 0x83, 0x47, 0x2d, 0x00, 0x19, 0x32, 0x50, 0x83, 0x47, 
  0x32, 0x00, 0x19, 0x36, 0x50, 0x83, 0x47, 0x36, 0x00, 0x19, 0x28, 0x50, 0x00, 0x34, 0x50, 0x01, 
  0xb0, 0x40, 0x00, 0x01, 0x40, 0x7f, 0x8e, 0x1d, 0x90, 0x28, 0x00, 0x00, 0x34, 0x00, 0x61, 0x3b, 
  0x50, 0x01, 0xb0, 0x40, 0x00, 0x01, 0x40, 0x7f, 0x83, 0x45, 0x90, 0x3b, 0x00, 0x19, 0x42, 0x50, 
  0x83, 0x47, 0x42, 0x00, 0x19, 0x45, 0x50, 0x83, 0x47, 0x45, 0x00, 0x19, 0x42, 0x50, 0x83, 0x47, 
  0x42, 0x00, 0x19, 0x38, 0x50, 0x01, 0xb0, 0x40, 0x00, 0x01, 0x40, 0x7f, 0x83, 0x45, 0x90, 0x38, 
  0x00, 0x19, 0x40, 0x50, 0x83, 0x47, 0x40, 0x00, 0x19, 0x44, 0x50, 0x83, 0x47, 0x44, 0x00, 0x19, 
  0x40, 0x50, 0x83, 0x47, 0x40, 0x00, 0x19, 0x39, 0x50, 0x01, 0xb0, 0x40, 0x00, 0x01, 0x40, 0x7f, 
  0x83, 0x45, 0x90, 0x39, 0x00, 0x19, 0x40, 0x50, 0x83, 0x47, 0x40, 0x00, 0x19, 0x45, 0x50, 0x83, 
  0x47, 0x45, 0x00, 0x19, 0x40, 0x50, 0x83, 0x47, 0x40, 0x00, 0x19, 0x3e, 0x50, 0x01, 0xb0, 0x40, 
  0x00, 0x01, 0x40, 0x7f, 0x87, 0x0d, 0x90, 0x3e, 0x00, 0x31, 0x3d, 0x50, 0x87, 0x0f, 0x3d, 0x00, 
  0x31, 0x3b, 0x50, 0x01, 0xb0, 0x40, 0x00, 0x01, 0x40, 0x7f, 0x83, 0x45, 0x90, 0x3b, 0x00, 0x19, 
  0x3e, 0x50, 0x83, 0x47, 0x3e, 0x00, 0x19, 0x42, 0x50, 0x83, 0x47, 0x42, 0x00, 0x19, 0x3b, 0x50, 
  0x83, 0x47, 0x3b, 0x00, 0x19, 0x38, 0x50, 0x01, 0xb0, 0x40, 0x00, 0x01, 0x40, 0x7f, 0x83, 0x45, 
  0x90, 0x38, 0x00, 0x19, 0x40, 0x50, 0x83, 0x47, 0x40, 0x00, 0x19, 0x44, 0x50, 0x83, 0x47, 0x44, 
  0x00, 0x19, 0x40, 0x50, 0x83, 0x47, 0x40, 0x00, 0x19, 0x39, 0x50, 0x01, 0xb0, 0x40, 0x00, 0x01, 
  0x40, 0x7f, 0x83, 0x45, 0x90, 0x39, 0x00, 0x19, 0x40, 0x50, 0x83, 0x47, 0x40, 0x00, 0x19, 0x45, 
  0x50, 0x83, 0x47, 0x45, 0x00, 0x19, 0x40, 0x50, 0x83, 0x47, 0x40, 0x00, 0x19, 0x32, 0x50, 0x01, 
  0xb0, 0x40, 0x00, 0x01, 0x40, 0x7f, 0x83, 0x45, 0x90, 0x32, 0x00, 0x19, 0x3e, 0x50, 0x83, 0x47, 
  0x3e, 0x00, 0x19, 0x31, 0x50, 0x83, 0x47, 0x31, 0x00, 0x19, 0x3d, 0x50, 0x83, 0x47, 0x3d, 0x00, 
  0x19, 0x2f, 0x50, 0x01, 0xb0, 0x40, 0x00, 0x01, 0x40, 0x7f, 0x83, 0x45, 0x90, 0x2f, 0x00, 0x19, 
  0x36, 0x50, 0x83, 0x47, 0x36, 0x00, 0x19, 0x3b, 0x50, 0x83, 0x47, 0x3b, 0x00, 0x19, 0x36, 0x50, 
  0x83, 0x47, 0x36, 0x00, 0x19, 0x2c, 0x50, 0x01, 0xb0, 0x40, 0x00, 0x01, 0x40, 0x7f, 0x83, 0x45, 
  0x90, 0x2c, 0x00, 0x19, 0x34, 0x50, 0x83, 0x47, 0x34, 0x00, 0x19, 0x38, 0x50, 0x83, 0x47, 0x38, 
  0x00, 0x19, 0x34, 0x50, 0x83, 0x47, 0x34, 0x00, 0x19, 0x2f, 0x50, 0x01, 0xb0, 0x40, 0x00, 0x01, 
  0x40, 0x7f, 0x83, 0x45, 0x90, 0x2f, 0x00, 0x19, 0x36, 0x50, 0x83, 0x47, 0x36, 0x00, 0x19, 0x3b, 
  0x50, 0x83, 0x47, 0x3b, 0x00, 0x19, 0x36, 0x50, 0x83, 0x47, 0x36, 0x00, 0x19, 0x2c, 0x50, 0x01, 
  0xb0, 0x40, 0x00, 0x01, 0x40, 0x7f, 0x83, 0x45, 0x90, 0x2c, 0x00, 0x19, 0x34, 0x50, 0x83, 0x47, 
  0x34, 0x00, 0x19, 0x38, 0x50, 0x87, 0x0f, 0x38, 0x00, 0x31, 0x2f, 0x50, 0x01, 0xb0, 0x40, 0x00, 
  0x01, 0x40, 0x7f, 0x83, 0x45, 0x90, 0x2f, 0x00, 0x19, 0x36, 0x50, 0x83, 0x47, 0x36, 0x00, 0x19, 
  0x3e, 0x50, 0x83, 0x47, 0x3e, 0x00, 0x19, 0x36, 0x50, 0x83, 0x47, 0x36, 0x00, 0x19, 0x2c, 0x50, 
  0x01, 0xb0, 0x40, 0x00, 0x01, 0x40, 0x7f, 0x83, 0x45, 0x90, 0x2c, 0x00, 0x19, 0x34, 0x50, 0x83, 
  0x47, 0x34, 0x00, 0x19, 0x3b, 0x50, 0x87, 0x0f, 0x3b, 0x00, 0x31, 0x2a, 0x50, 0x01, 0xb0, 0x40, 
  0x00, 0x01, 0x40, 0x7f, 0x83, 0x45, 0x90, 0x2a, 0x00, 0x19, 0x31, 0x50, 0x83, 0x47, 0x31, 0x00, 
  0x19, 0x36, 0x50, 0x83, 0x47, 0x36, 0x00, 0x19, 0x31, 0x50, 0x83, 0x47, 0x31, 0x00, 0x19, 0x2a, 
  0x50, 0x00, 0x31, 0x50, 0x00, 0x36, 0x50, 0x01, 0xb0, 0x40, 0x00, 0x01, 0x40, 0x7f, 0x83, 0x45, 
  0x90, 0x2a, 0x00, 0x00, 0x31, 0x00, 0x00, 0x36, 0x00, 0x19, 0x36, 0x50, 0x83, 0x47, 0x36, 0x00, 
  0x19, 0x2c, 0x50, 0x00, 0x34, 0x50, 0x00, 0x38, 0x50, 0x01, 0xb0, 0x40, 0x00, 0x01, 0x40, 0x7f, 
  0x85, 0x29, 0x90, 0x2c, 0x00, 0x00, 0x34, 0x00, 0x00, 0x38, 0x00, 0x25, 0x38, 0x50, 0x81, 0x63, 
  0x38, 0x00, 0x0d, 0x2f, 0x50, 0x01, 0xb0, 0x40, 0x00, 0x01, 0x40, 0x7f, 0x83, 0x45, 0x90, 0x2f, 
  0x00, 0x19, 0x36, 0x50, 0x83, 0x47, 0x36, 0x00, 0x19, 0x3b, 0x50, 0x87, 0x0f, 0x3b, 0x00, 0x31, 
  0x2c, 0x50, 0x01, 0xb0, 0x40, 0x00, 0x01, 0x40, 0x7f, 0x83, 0x45, 0x90, 0x2c, 0x00, 0x19, 0x34, 
  0x50, 0x83, 0x47, 0x34, 0x00, 0x19, 0x3e, 0x50, 0x87, 0x0f, 0x3e, 0x00, 0x31, 0x2a, 0x50, 0x01, 
  0xb0, 0x40, 0x00, 0x01, 0x40, 0x7f, 0x83, 0x45, 0x90, 0x2a, 0x00, 0x19, 0x31, 0x50, 0x83, 0x47, 
  0x31, 0x00, 0x19, 0x39, 0x50, 0x83, 0x47, 0x39, 0x00, 0x19, 0x31, 0x50, 0x83, 0x47, 0x31, 0x00, 
  0x19, 0x2a, 0x50, 0x00, 0x31, 0x50, 0x00, 0x36, 0x50, 0x01, 0xb0, 0x40, 0x00, 0x01, 0x40, 0x7f, 
  0x87, 0x0d, 0x90, 0x2a, 0x00, 0x00, 0x31, 0x00, 0x00, 0x36, 0x00, 0x31, 0x2c, 0x50, 0x00, 0x34, 
  0x50, 0x00, 0x38, 0x50, 0x01, 0xb0, 0x40, 0x00, 0x01, 0x40, 0x7f, 0x87, 0x0d, 0x90, 0x2c, 0x00, 
  0x00, 0x34, 0x00, 0x00, 0x38, 0x00, 0x31, 0x2f, 0x50, 0x01, 0xb0, 0x40, 0x00, 0x01, 0x40, 0x7f, 
  0x83, 0x45, 0x90, 0x2f, 0x00, 0x19, 0x36, 0x50, 0x8a, 0x57, 0x36, 0x00, 0x49, 0x2c, 0x50, 0x01, 
  0xb0, 0x40, 0x00, 0x01, 0x40, 0x7f, 0x83, 0x45, 0x90, 0x2c, 0x00, 0x19, 0x34, 0x50, 0x83, 0x47, 
  0x34, 0x00, 0x19, 0x3b, 0x50, 0x87, 0x0f, 0x3b, 0x00, 0x31, 0x2a, 0x50, 0x01, 0xb0, 0x40, 0x00, 
  0x01, 0x40, 0x7f, 0x83, 0x45, 0x90, 0x2a, 0x00, 0x19, 0x31, 0x50, 0x83, 0x47, 0x31, 0x00, 0x19, 
  0x36, 0x50, 0x83, 0x47, 0x36, 0x00, 0x19, 0x31, 0x50, 0x83, 0x47, 0x31, 0x00, 0x19, 0x26, 0x50, 
  0x01, 0xb0, 0x40, 0x00, 0x01, 0x40, 0x7f, 0x83, 0x45, 0x90, 0x26, 0x00, 0x19, 0x2d, 0x50, 0x83, 
  0x47, 0x2d, 0x00, 0x19, 0x32, 0x50, 0x87, 0x0f, 0x32, 0x00, 0x31, 0x21, 0x50, 0x01, 0xb0, 0x40, 
  0x00, 0x01, 0x40, 0x7f, 0x83, 0x45, 0x90, 0x21, 0x00, 0x19, 0x2d, 0x50, 0x81, 0x63, 0x2d, 0x00, 
  0x0d, 0x31, 0x50, 0x83, 0x47, 0x31, 0x00, 0x19, 0x34, 0x50, 0x81, 0x63, 0x34, 0x00, 0x0d, 0x39, 
  0x50, 0x81, 0x63, 0x39, 0x00, 0x0d, 0x34, 0x50, 0x81, 0x63, 0x34, 0x00, 0x0d, 0x2c, 0x50, 0x01, 
  0xb0, 0x40, 0x00, 0x01, 0x40, 0x7f, 0x83, 0x45, 0x90, 0x2c, 0x00, 0x19, 0x34, 0x50, 0x81, 0x63, 
  0x34, 0x00, 0x0d, 0x38, 0x50, 0x83, 0x47, 0x38, 0x00, 0x19, 0x3b, 0x50, 0x81, 0x63, 0x3b, 0x00, 
  0x0d, 0x34, 0x50, 0x83, 0x47, 0x34, 0x00, 0x19, 0x2a, 0x50, 0x01, 0xb0, 0x40, 0x00, 0x01, 0x40, 
  0x7f, 0x83, 0x45, 0x90, 0x2a, 0x00, 0x19, 0x31, 0x50, 0x81, 0x63, 0x31, 0x00, 0x0d, 0x36, 0x50, 
  0x85, 0x2b, 0x36, 0x00, 0x25, 0x31, 0x50, 0x81, 0x63, 0x31, 0x00, 0x0d, 0x36, 0x50, 0x81, 0x63, 
  0x36, 0x00, 0x0d, 0x2a, 0x50, 0x01, 0xb0, 0x40, 0x00, 0x01, 0x40, 0x7f, 0x83, 0x45, 0x90, 0x2a, 
  0x00, 0x19, 0x31, 0x50, 0x83, 0x47, 0x31, 0x00, 0x19, 0x2c, 0x50, 0x01, 0xb0, 0x40, 0x00, 0x01, 
  0x40, 0x7f, 0x83, 0x45, 0x90, 0x2c, 0x00, 0x19, 0x34, 0x50, 0x83, 0x47, 0x34, 0x00, 0x19, 0x2d, 
  0x50, 0x01, 0xb0, 0x40, 0x00, 0x01, 0x40, 0x7f, 0x83, 0x45, 0x90, 0x2d, 0x00, 0x19, 0x34, 0x50, 
  0x81, 0x63, 0x34, 0x00, 0x0d, 0x39, 0x50, 0x83, 0x47, 0x39, 0x00, 0x19, 0x34, 0x50, 0x81, 0x63, 
  0x34, 0x00, 0x0d, 0x3d, 0x50, 0x83, 0x47, 0x3d, 0x00, 0x19, 0x2c, 0x50, 0x01, 0xb0, 0x40, 0x00, 
  0x01, 0x40, 0x7f, 0x83, 0x45, 0x90, 0x2c, 0x00, 0x19, 0x34, 0x50, 0x81, 0x63, 0x34, 0x00, 0x0d, 
  0x38, 0x50, 0x83, 0x47, 0x38, 0x00, 0x19, 0x34, 0x50, 0x81, 0x63, 0x34, 0x00, 0x0d, 0x3b, 0x50, 
  0x83, 0x47, 0x3b, 0x00, 0x19, 0x2a, 0x50, 0x01, 0xb0, 0x40, 0x00, 0x00, 0x40, 0x00, 0x01, 0x40, 
  0x7f, 0x00, 0x40, 0x7f, 0x83, 0x45, 0x90, 0x2a, 0x00, 0x19, 0x31, 0x50, 0x81, 0x63, 0x31, 0x00, 
  0x0d, 0x36, 0x50, 0x83, 0x47, 0x36, 0x00, 0x19, 0x31, 0x50, 0x81, 0x63, 0x31, 0x00, 0x0d, 0x38, 
  0x50, 0x83, 0x47, 0x38, 0x00, 0x19, 0x26, 0x50, 0x01, 0xb0, 0x40, 0x00, 0x01, 0x40, 0x7f, 0x83, 
  0x45, 0x90, 0x26, 0x00, 0x19, 0x2d, 0x50, 0x83, 0x47, 0x2d, 0x00, 0x19, 0x32, 0x50, 0x83, 0x47, 
  0x32, 0x00, 0x19, 0x2a, 0x50, 0x81, 0x63, 0x2a, 0x00, 0x0d, 0x32, 0x50, 0x81, 0x63, 0x32, 0x00, 
  0x0d, 0x2d, 0x50, 0x01, 0xb0, 0x40, 0x00, 0x01, 0x40, 0x7f, 0x83, 0x45, 0x90, 0x2d, 0x00, 0x19, 
  0x34, 0x50, 0x81, 0x63, 0x34, 0x00, 0x0d, 0x39, 0x50, 0x83, 0x47, 0x39, 0x00, 0x19, 0x34, 0x50, 
  0x81, 0x63, 0x34, 0x00, 0x0d, 0x3d, 0x50, 0x83, 0x47, 0x3d, 0x00, 0x19, 0x2c, 0x50, 0x01, 0xb0, 
  0x40, 0x00, 0x01, 0x40, 0x7f, 0x83, 0x45, 0x90, 0x2c, 0x00, 0x19, 0x36, 0x50, 0x81, 0x63, 0x36, 
  0x00, 0x0d, 0x3b, 0x50, 0x83, 0x47, 0x3b, 0x00, 0x19, 0x36, 0x50, 0x81, 0x63, 0x36, 0x00, 0x0d, 
  0x3d, 0x50, 0x83, 0x47, 0x3d, 0x00, 0x19, 0x2a, 0x50, 0x01, 0xb0, 0x40, 0x00, 0x00, 0x40, 0x00, 
  0x01, 0x40, 0x7f, 0x00, 0x40, 0x7f, 0x83, 0x45, 0x90, 0x2a, 0x00, 0x19, 0x31, 0x50, 0x81, 0x63, 
  0x31, 0x00, 0x0d, 0x36, 0x50, 0x83, 0x47, 0x36, 0x00, 0x19, 0x31, 0x50, 0x81, 0x63, 0x31, 0x00, 
  0x0d, 0x39, 0x50, 0x83, 0x47, 0x39, 0x00, 0x19, 0x26, 0x50, 0x01, 0xb0, 0x40, 0x00, 0x01, 0x40, 
  0x7f, 0x87, 0x0d, 0x90, 0x26, 0x00, 0x31, 0x32, 0x50, 0x87, 0x0f, 0x32, 0x00, 0x31, 0x2d, 0x50, 
  0x01, 0xb0, 0x40, 0x00, 0x01, 0x40, 0x7f, 0x83, 0x45, 0x90, 0x2d, 0x00, 0x19, 0x34, 0x50, 0x81, 
  0x63, 0x34, 0x00, 0x0d, 0x39, 0x50, 0x83, 0x47, 0x39, 0x00, 0x19, 0x34, 0x50, 0x81, 0x63, 0x34, 
  0x00, 0x0d, 0x3b, 0x50, 0x83, 0x47, 0x3b, 0x00, 0x19, 0x2c, 0x50, 0x01, 0xb0, 0x40, 0x00, 0x01, 
  0x40, 0x7f, 0x83, 0x45, 0x90, 0x2c, 0x00, 0x19, 0x34, 0x50, 0x81, 0x63, 0x34, 0x00, 0x0d, 0x38, 
  0x50, 0x85, 0x2b, 0x38, 0x00, 0x25, 0x34, 0x50, 0x83, 0x47, 0x34, 0x00, 0x19, 0x2a, 0x50, 0x01, 
  0xb0, 0x40, 0x00, 0x00, 0x40, 0x00, 0x01, 0x40, 0x7f, 0x00, 0x40, 0x7f, 0x83, 0x45, 0x90, 0x2a, 
  0x00, 0x19, 0x31, 0x50, 0x81, 0x63, 0x31, 0x00, 0x0d, 0x36, 0x50, 0x83, 0x47, 0x36, 0x00, 0x19, 
  0x39, 0x50, 0x81, 0x63, 0x39, 0x00, 0x0d, 0x31, 0x50, 0x83, 0x47, 0x31, 0x00, 0x19, 0x26, 0x50, 
  0x01, 0xb0, 0x40, 0x00, 0x01, 0x40, 0x7f, 0x83, 0x45, 0x90, 0x26, 0x00, 0x19, 0x2d, 0x50, 0x81, 
  0x63, 0x2d, 0x00, 0x0d, 0x32, 0x50, 0x81, 0x63, 0x32, 0x00, 0x0d, 0x32, 0x50, 0x83, 0x47, 0x32, 
  0x00, 0x19, 0x2a, 0x50, 0x83, 0x47, 0x2a, 0x00, 0x19, 0x2d, 0x50, 0x01, 0xb0, 0x40, 0x00, 0x01, 
  0x40, 0x7f, 0x83, 0x45, 0x90, 0x2d, 0x00, 0x19, 0x34, 0x50, 0x81, 0x63, 0x34, 0x00, 0x0d, 0x39, 
  0x50, 0x83, 0x47, 0x39, 0x00, 0x19, 0x34, 0x50, 0x81, 0x63, 0x34, 0x00, 0x0d, 0x3d, 0x50, 0x83, 
  0x47, 0x3d, 0x00, 0x19, 0x2c, 0x50, 0x01, 0xb0, 0x40, 0x00, 0x01, 0x40, 0x7f, 0x83, 0x45, 0x90, 
  0x2c, 0x00, 0x19, 0x36, 0x50, 0x81, 0x63, 0x36, 0x00, 0x0d, 0x3b, 0x50, 0x83, 0x47, 0x3b, 0x00, 
  0x19, 0x36, 0x50, 0x81, 0x63, 0x36, 0x00, 0x0d, 0x3d, 0x50, 0x83, 0x47, 0x3d, 0x00, 0x19, 0x2a, 
  0x50, 0x01, 0xb0, 0x40, 0x00, 0x00, 0x40, 0x00, 0x01, 0x40, 0x7f, 0x00, 0x40, 0x7f, 0x83, 0x45, 
  0x90, 0x2a, 0x00, 0x19, 0x31, 0x50, 0x83, 0x47, 0x31, 0x00, 0x82, 0x09, 0x36, 0x50, 0x85, 0x2b, 
  0x36, 0x00, 0x25, 0x26, 0x50, 0x01, 0xb0, 0x40, 0x00, 0x01, 0x40, 0x7f, 0x87, 0x0d, 0x90, 0x26, 
  0x00, 0x31, 0x32, 0x50, 0x87, 0x0f, 0x32, 0x00, 0x31, 0x2d, 0x50, 0x01, 0xb0, 0x40, 0x00, 0x01, 
  0x40, 0x7f, 0x83, 0x45, 0x90, 0x2d, 0x00, 0x19, 0x34, 0x50, 0x81, 0x63, 0x34, 0x00, 0x0d, 0x39, 
  0x50, 0x83, 0x47, 0x39, 0x00, 0x19, 0x34, 0x50, 0x81, 0x63, 0x34, 0x00, 0x0d, 0x3b, 0x50, 0x83, 
  0x47, 0x3b, 0x00, 0x19, 0x2c, 0x50, 0x01, 0xb0, 0x40, 0x00, 0x01, 0x40, 0x7f, 0x83, 0x45, 0x90, 
  0x2c, 0x00, 0x19, 0x34, 0x50, 0x83, 0x47, 0x34, 0x00, 0x19, 0x38, 0x50, 0x87, 0x0f, 0x38, 0x00, 
  0x31, 0x2a, 0x50, 0x01, 0xb0, 0x40, 0x00, 0x01, 0x40, 0x7f, 0x83, 0x45, 0x90, 0x2a, 0x00, 0x19, 
  0x31, 0x50, 0x83, 0x47, 0x31, 0x00, 0x19, 0x39, 0x50, 0x83, 0x47, 0x39, 0x00, 0x19, 0x36, 0x50, 
  0x83, 0x47, 0x36, 0x00, 0x19, 0x26, 0x50, 0x01, 0xb0, 0x40, 0x00, 0x01, 0x40, 0x7f, 0x8e, 0x1d, 
  0x90, 0x26, 0x00, 0x61, 0x2d, 0x50, 0x01, 0xb0, 0x40, 0x00, 0x01, 0x40, 0x7f, 0x83, 0x45, 0x90, 
  0x2d, 0x00, 0x19, 0x34, 0x50, 0x83, 0x47, 0x34, 0x00, 0x82, 0x09, 0x39, 0x50, 0x81, 0x63, 0x39, 
  0x00, 0x0d, 0x34, 0x50, 0x83, 0x47, 0x34, 0x00, 0x19, 0x2c, 0x50, 0x01, 0xb0, 0x40, 0x00, 0x01, 
  0x40, 0x7f, 0x83, 0x45, 0x90, 0x2c, 0x00, 0x19, 0x34, 0x50, 0x83, 0x47, 0x34, 0x00, 0x19, 0x38, 
  0x50, 0x83, 0x47, 0x38, 0x00, 0x19, 0x3b, 0x50, 0x83, 0x47, 0x3b, 0x00, 0x19, 0x26, 0x50, 0x01, 
  0xb0, 0x40, 0x00, 0x8e, 0x1e, 0x90, 0x26, 0x00, 0x61, 0x28, 0x50, 0x8e, 0x1f, 0x28, 0x00, 0x61, 
  0x21, 0x50, 0x00, 0x2d, 0x50, 0x8e, 0x1f, 0x21, 0x00, 0x00, 0x2d, 0x00, 0x01, 0xff, 0x2f, 0x00
};