// array size is 912
static const char bytes[]  = {
  0x4d, 0x54, 0x68, 0x64, 0x00, 0x00, 0x00, 0x06, 0x00, 0x01, 0x00, 0x02, 0x01, 0x00, 0x4d, 0x54, 
  0x72, 0x6b, 0x00, 0x00, 0x00, 0x48, 0x00, 0xff, 0x58, 0x04, 0x04, 0x02, 0x18, 0x08, 0x00, 0xff, 
  0x59, 0x02, 0x00, 0x00, 0x00, 0xff, 0x51, 0x03, 0x09, 0xa3, 0x19, 0x00, 0xff, 0x03, 0x0c, 0x47, 
  0x72, 0x65, 0x65, 0x6e, 0x73, 0x6c, 0x65, 0x65, 0x76, 0x65, 0x73, 0x00, 0xff, 0x01, 0x0b, 0x54, 
  0x72, 0x61, 0x64, 0x69, 0x74, 0x69, 0x6f, 0x6e, 0x61, 0x6c, 0x00, 0xff, 0x02, 0x0c, 0x4a, 0x69, 
  0x6d, 0x20, 0x50, 0x61, 0x74, 0x65, 0x72, 0x73, 0x6f, 0x6e, 0x01, 0xff, 0x2f, 0x00, 0x4d, 0x54, 
  0x72, 0x6b, 0x00, 0x00, 0x03, 0x2a, 0x00, 0xc0, 0x00, 0x00, 0xb0, 0x79, 0x00, 0x00, 0xb0, 0x40, 
  0x00, 0x00, 0xb0, 0x0a, 0x3f, 0x00, 0xb0, 0x07, 0x5f, 0x00, 0x90, 0x3c, 0x4d, 0x00, 0x90, 0x34, 
  0x3f, 0x00, 0xb0, 0x79, 0x00, 0x00, 0xb0, 0x40, 0x00, 0x00, 0xb0, 0x0a, 0x3f, 0x00, 0xb0, 0x07, 
  0x5f, 0x00, 0xff, 0x03, 0x05, 0x50, 0x69, 0x61, 0x6e, 0x6f, 0x00, 0x90, 0x30, 0x40, 0x81, 0x74, 
  0x80, 0x3c, 0x00, 0x0c, 0x90, 0x3c, 0x53, 0x81, 0x67, 0x80, 0x34, 0x00, 0x00, 0x80, 0x30, 0x00, 
  0x0d, 0x80, 0x3c, 0x00, 0x0c, 0x90, 0x43, 0x5a, 0x00, 0x90, 0x3c, 0x4d, 0x00, 0x90, 0x30, 0x47, 
  0x81, 0x74, 0x80, 0x43, 0x00, 0x0c, 0x90, 0x43, 0x57, 0x81, 0x67, 0x80, 0x3c, 0x00, 0x00, 0x80, 
  0x30, 0x00, 0x0d, 0x80, 0x43, 0x00, 0x0c, 0x90, 0x45, 0x56, 0x00, 0x90, 0x3c, 0x49, 0x00, 0x90, 
  0x29, 0x42, 0x81, 0x74, 0x80, 0x45, 0x00, 0x0c, 0x90, 0x45, 0x53, 0x81, 0x67, 0x80, 0x3c, 0x00, 
  0x00, 0x80, 0x29, 0x00, 0x0d, 0x80, 0x45, 0x00, 0x0c, 0x90, 0x43, 0x51, 0x00, 0x90, 0x3c, 0x4b, 
  0x00, 0x90, 0x30, 0x47, 0x83, 0x67, 0x80, 0x43, 0x00, 0x00, 0x80, 0x3c, 0x00, 0x00, 0x80, 0x30, 
  0x00, 0x19, 0x90, 0x41, 0x50, 0x00, 0x90, 0x39, 0x46, 0x00, 0x90, 0x29, 0x44, 0x81, 0x74, 0x80, 
  0x41, 0x00, 0x0c, 0x90, 0x41, 0x55, 0x81, 0x67, 0x80, 0x39, 0x00, 0x00, 0x80, 0x29, 0x00, 0x0d, 
  0x80, 0x41, 0x00, 0x0c, 0x90, 0x40, 0x52, 0x00, 0x90, 0x37, 0x45, 0x00, 0x90, 0x30, 0x4c, 0x81, 
  0x74, 0x80, 0x40, 0x00, 0x0c, 0x90, 0x40, 0x54, 0x81, 0x67, 0x80, 0x37, 0x00, 0x00, 0x80, 0x30, 
  0x00, 0x0d, 0x80, 0x40, 0x00, 0x0c, 0x90, 0x3e, 0x51, 0x00, 0x90, 0x37, 0x47, 0x00, 0x90, 0x2b, 
  0x45, 0x81, 0x74, 0x80, 0x3e, 0x00, 0x0c, 0x90, 0x3e, 0x53, 0x81, 0x67, 0x80, 0x37, 0x00, 0x00, 
  0x80, 0x2b, 0x00, 0x0d, 0x80, 0x3e, 0x00, 0x0c, 0x90, 0x3c, 0x51, 0x00, 0x90, 0x34, 0x47, 0x00, 
  0x90, 0x30, 0x4b, 0x83, 0x67, 0x80, 0x3c, 0x00, 0x00, 0x80, 0x34, 0x00, 0x00, 0x80, 0x30, 0x00, 
  0x19, 0x90, 0x43, 0x5e, 0x00, 0x90, 0x3c, 0x50, 0x00, 0x90, 0x30, 0x48, 0x81, 0x74, 0x80, 0x43, 
  0x00, 0x0c, 0x90, 0x43, 0x53, 0x81, 0x67, 0x80, 0x3c, 0x00, 0x00, 0x80, 0x30, 0x00, 0x0d, 0x80, 
  0x43, 0x00, 0x0c, 0x90, 0x41, 0x51, 0x00, 0x90, 0x39, 0x47, 0x00, 0x90, 0x29, 0x44, 0x81, 0x74, 
  0x80, 0x41, 0x00, 0x0c, 0x90, 0x41, 0x54, 0x81, 0x67, 0x80, 0x39, 0x00, 0x00, 0x80, 0x29, 0x00, 
  0x0d, 0x80, 0x41, 0x00, 0x0c, 0x90, 0x40, 0x52, 0x00, 0x90, 0x37, 0x46, 0x00, 0x90, 0x2b, 0x49, 
  0x81, 0x74, 0x80, 0x40, 0x00, 0x0c, 0x90, 0x40, 0x54, 0x81, 0x67, 0x80, 0x37, 0x00, 0x00, 0x80, 
  0x2b, 0x00, 0x0d, 0x80, 0x40, 0x00, 0x0c, 0x90, 0x3e, 0x52, 0x00, 0x90, 0x37, 0x43, 0x00, 0x90, 
  0x2b, 0x48, 0x83, 0x67, 0x80, 0x3e, 0x00, 0x00, 0x80, 0x37, 0x00, 0x00, 0x80, 0x2b, 0x00, 0x19, 
  0x90, 0x43, 0x5a, 0x00, 0x90, 0x3c, 0x4c, 0x00, 0x90, 0x30, 0x49, 0x81, 0x74, 0x80, 0x43, 0x00, 
  0x0c, 0x90, 0x43, 0x54, 0x81, 0x67, 0x80, 0x3c, 0x00, 0x00, 0x80, 0x30, 0x00, 0x0d, 0x80, 0x43, 
  0x00, 0x0c, 0x90, 0x41, 0x54, 0x00, 0x90, 0x39, 0x47, 0x00, 0x90, 0x29, 0x44, 0x81, 0x74, 0x80, 
  0x41, 0x00, 0x0c, 0x90, 0x41, 0x55, 0x81, 0x67, 0x80, 0x39, 0x00, 0x00, 0x80, 0x29, 0x00, 0x0d, 
  0x80, 0x41, 0x00, 0x0c, 0x90, 0x40, 0x52, 0x00, 0x90, 0x37, 0x46, 0x00, 0x90, 0x2b, 0x49, 0x81, 
  0x74, 0x80, 0x40, 0x00, 0x0c, 0x90, 0x40, 0x52, 0x81, 0x67, 0x80, 0x37, 0x00, 0x00, 0x80, 0x2b, 
  0x00, 0x0d, 0x80, 0x40, 0x00, 0x0c, 0x90, 0x3e, 0x53, 0x00, 0x90, 0x37, 0x46, 0x00, 0x90, 0x2b, 
  0x45, 0x83, 0x67, 0x80, 0x3e, 0x00, 0x00, 0x80, 0x37, 0x00, 0x00, 0x80, 0x2b, 0x00, 0x19, 0x90, 
  0x3c, 0x52, 0x00, 0x90, 0x34, 0x45, 0x00, 0x90, 0x30, 0x49, 0x81, 0x74, 0x80, 0x3c, 0x00, 0x0c, 
  0x90, 0x3c, 0x53, 0x81, 0x67, 0x80, 0x34, 0x00, 0x00, 0x80, 0x30, 0x00, 0x0d, 0x80, 0x3c, 0x00, 
  0x0c, 0x90, 0x43, 0x5a, 0x00, 0x90, 0x3c, 0x50, 0x00, 0x90, 0x30, 0x48, 0x81, 0x74, 0x80, 0x43, 
  0x00, 0x0c, 0x90, 0x43, 0x53, 0x81, 0x67, 0x80, 0x3c, 0x00, 0x00, 0x80, 0x30, 0x00, 0x0d, 0x80, 
  0x43, 0x00, 0x0c, 0x90, 0x45, 0x57, 0x00, 0x90, 0x3c, 0x45, 0x00, 0x90, 0x29, 0x44, 0x81, 0x74, 
  0x80, 0x45, 0x00, 0x0c, 0x90, 0x45, 0x51, 0x81, 0x67, 0x80, 0x3c, 0x00, 0x00, 0x80, 0x29, 0x00, 
  0x0d, 0x80, 0x45, 0x00, 0x0c, 0x90, 0x43, 0x4f, 0x00, 0x90, 0x3c, 0x48, 0x00, 0x90, 0x30, 0x49, 
  0x83, 0x67, 0x80, 0x43, 0x00, 0x00, 0x80, 0x3c, 0x00, 0x00, 0x80, 0x30, 0x00, 0x19, 0x90, 0x41, 
  0x51, 0x00, 0x90, 0x39, 0x45, 0x00, 0x90, 0x29, 0x44, 0x81, 0x74, 0x80, 0x41, 0x00, 0x0c, 0x90, 
  0x41, 0x53, 0x81, 0x67, 0x80, 0x39, 0x00, 0x00, 0x80, 0x29, 0x00, 0x0d, 0x80, 0x41, 0x00, 0x0c, 
  0x90, 0x40, 0x51, 0x00, 0x90, 0x37, 0x46, 0x00, 0x90, 0x30, 0x4b, 0x81, 0x74, 0x80, 0x40, 0x00, 
  0x0c, 0x90, 0x40, 0x54, 0x81, 0x67, 0x80, 0x37, 0x00, 0x00, 0x80, 0x30, 0x00, 0x0d, 0x80, 0x40, 
  0x00, 0x0c, 0x90, 0x3e, 0x52, 0x00, 0x90, 0x37, 0x47, 0x00, 0x90, 0x2b, 0x45, 0x81, 0x74, 0x80, 
  0x3e, 0x00, 0x0c, 0x90, 0x3e, 0x53, 0x81, 0x67, 0x80, 0x37, 0x00, 0x00, 0x80, 0x2b, 0x00, 0x0d, 
  0x80, 0x3e, 0x00, 0x0c, 0x90, 0x3c, 0x50, 0x00, 0x90, 0x34, 0x46, 0x00, 0x90, 0x30, 0x4a, 0x83, 
  0x67, 0x80, 0x3c, 0x00, 0x00, 0x80, 0x34, 0x00, 0x00, 0x80, 0x30, 0x00, 0x01, 0xff, 0x2f, 0x00
};