// array size is 3640
static const char bytes[]  = {
  0x4d, 0x54, 0x68, 0x64, 0x00, 0x00, 0x00, 0x06, 0x00, 0x01, 0x00, 0x02, 0x01, 0xe0, 0x4d, 0x54, 
  0x72, 0x6b, 0x00, 0x00, 0x06, 0x8d, 0x00, 0xff, 0x58, 0x04, 0x04, 0x02, 0x18, 0x08, 0x00, 0xff, 
  0x59, 0x02, 0x01, 0x00, 0x00, 0xff, 0x59, 0x02, 0x00, 0x00, 0x00, 0xff, 0x59, 0x02, 0x00, 0x00, 
  0x00, 0xff, 0x51, 0x03, 0x07, 0xa1, 0x20, 0x00, 0xb0, 0x79, 0x00, 0x00, 0xc0, 0x00, 0x00, 0xb0, 
  0x07, 0x64, 0x00, 0x0a, 0x40, 0x00, 0x5b, 0x00, 0x00, 0x5d, 0x00, 0x00, 0xff, 0x21, 0x01, 0x00, 
  0x83, 0x60, 0x90, 0x48, 0x60, 0x85, 0x43, 0x48, 0x00, 0x0d, 0x47, 0x60, 0x85, 0x37, 0x47, 0x00, 
  0x19, 0x45, 0x60, 0x85, 0x43, 0x45, 0x00, 0x0d, 0x43, 0x60, 0x88, 0x7f, 0x43, 0x00, 0x84, 0x11, 
  0x45, 0x60, 0x85, 0x43, 0x45, 0x00, 0x0d, 0x43, 0x60, 0x85, 0x37, 0x43, 0x00, 0x19, 0x42, 0x60, 
  0x85, 0x43, 0x42, 0x00, 0x0d, 0x40, 0x60, 0x88, 0x7f, 0x40, 0x00, 0x84, 0x11, 0x4a, 0x60, 0x85, 
  0x43, 0x4a, 0x00, 0x0d, 0x48, 0x60, 0x85, 0x37, 0x48, 0x00, 0x19, 0x47, 0x60, 0x85, 0x43, 0x47, 
  0x00, 0x0d, 0x45, 0x60, 0x88, 0x7f, 0x45, 0x00, 0x84, 0x11, 0x43, 0x60, 0x85, 0x43, 0x43, 0x00, 
  0x0d, 0x42, 0x60, 0x85, 0x37, 0x42, 0x00, 0x19, 0x40, 0x60, 0x85, 0x43, 0x40, 0x00, 0x0d, 0x3e, 
  0x60, 0x88, 0x7f, 0x3e, 0x00, 0x84, 0x11, 0x48, 0x60, 0x85, 0x43, 0x48, 0x00, 0x0d, 0x47, 0x60, 
  0x85, 0x37, 0x47, 0x00, 0x19, 0x45, 0x60, 0x85, 0x43, 0x45, 0x00, 0x0d, 0x43, 0x60, 0x85, 0x37, 
  0x43, 0x00, 0x19, 0x42, 0x60, 0x83, 0x5f, 0x42, 0x00, 0x83, 0x61, 0x45, 0x60, 0x85, 0x43, 0x45, 
  0x00, 0x0d, 0x43, 0x60, 0x85, 0x37, 0x43, 0x00, 0x19, 0x42, 0x60, 0x85, 0x43, 0x42, 0x00, 0x0d, 
  0x40, 0x60, 0x85, 0x37, 0x40, 0x00, 0x19, 0x3e, 0x60, 0x83, 0x5f, 0x3e, 0x00, 0x83, 0x61, 0x4a, 
  0x60, 0x85, 0x43, 0x4a, 0x00, 0x0d, 0x48, 0x60, 0x85, 0x37, 0x48, 0x00, 0x19, 0x47, 0x60, 0x85, 
  0x43, 0x47, 0x00, 0x0d, 0x45, 0x60, 0x88, 0x7f, 0x45, 0x00, 0x84, 0x11, 0x43, 0x60, 0x85, 0x43, 
  0x43, 0x00, 0x0d, 0x42, 0x60, 0x85, 0x37, 0x42, 0x00, 0x19, 0x40, 0x60, 0x85, 0x43, 0x40, 0x00, 
  0x0d, 0x3e, 0x60, 0x90, 0x70, 0x3e, 0x50, 0x81, 0x63, 0x3e, 0x00, 0x0d, 0x40, 0x50, 0x81, 0x63, 
  0x40, 0x00, 0x0d, 0x42, 0x50, 0x81, 0x63, 0x42, 0x00, 0x0d, 0x43, 0x50, 0x5f, 0x3e, 0x00, 0x81, 
  0x04, 0x43, 0x00, 0x0d, 0x3b, 0x50, 0x8a, 0x57, 0x3b, 0x00, 0x8b, 0x69, 0x3b, 0x50, 0x81, 0x63, 
  0x3b, 0x00, 0x0d, 0x3c, 0x50, 0x81, 0x63, 0x3c, 0x00, 0x0d, 0x3e, 0x50, 0x82, 0x55, 0x3e, 0x00, 
  0x13, 0x40, 0x50, 0x71, 0x40, 0x00, 0x07, 0x40, 0x50, 0x00, 0x39, 0x50, 0x83, 0x47, 0x40, 0x00, 
  0x19, 0x3e, 0x50, 0x86, 0x77, 0x39, 0x00, 0x18, 0x3e, 0x00, 0x8b, 0x51, 0x3e, 0x50, 0x00, 0x39, 
  0x50, 0x81, 0x63, 0x3e, 0x00, 0x0d, 0x3c, 0x50, 0x81, 0x63, 0x3c, 0x00, 0x0d, 0x3b, 0x50, 0x81, 
  0x63, 0x3b, 0x00, 0x0d, 0x39, 0x50, 0x81, 0x3f, 0x39, 0x00, 0x24, 0x39, 0x00, 0x0d, 0x3c, 0x50, 
  0x8e, 0x1f, 0x3c, 0x00, 0x88, 0x21, 0x3e, 0x50, 0x00, 0x39, 0x50, 0x81, 0x63, 0x3e, 0x00, 0x0d, 
  0x3c, 0x50, 0x81, 0x63, 0x3c, 0x00, 0x0d, 0x3b, 0x50, 0x81, 0x63, 0x3b, 0x00, 0x0d, 0x39, 0x50, 
  0x81, 0x3f, 0x39, 0x00, 0x24, 0x39, 0x00, 0x0d, 0x3c, 0x50, 0x8e, 0x1f, 0x3c, 0x00, 0x88, 0x21, 
  0x3e, 0x50, 0x81, 0x63, 0x3e, 0x00, 0x0d, 0x40, 0x50, 0x81, 0x63, 0x40, 0x00, 0x0d, 0x42, 0x50, 
  0x82, 0x55, 0x42, 0x00, 0x13, 0x43, 0x50, 0x71, 0x43, 0x00, 0x07, 0x3b, 0x50, 0x8a, 0x57, 0x3b, 
  0x00, 0x8b, 0x69, 0x3b, 0x50, 0x81, 0x63, 0x3b, 0x00, 0x0d, 0x3c, 0x50, 0x81, 0x63, 0x3c, 0x00, 
  0x0d, 0x3e, 0x50, 0x82, 0x55, 0x3e, 0x00, 0x13, 0x40, 0x50, 0x71, 0x40, 0x00, 0x07, 0x40, 0x50, 
  0x00, 0x39, 0x50, 0x83, 0x47, 0x40, 0x00, 0x19, 0x3e, 0x50, 0x86, 0x77, 0x39, 0x00, 0x18, 0x3e, 
  0x00, 0x8b, 0x51, 0x3e, 0x50, 0x00, 0x39, 0x50, 0x81, 0x63, 0x3e, 0x00, 0x0d, 0x3c, 0x50, 0x81, 
  0x63, 0x3c, 0x00, 0x0d, 0x3b, 0x50, 0x81, 0x63, 0x3b, 0x00, 0x0d, 0x39, 0x50, 0x81, 0x3f, 0x39, 
  0x00, 0x24, 0x39, 0x00, 0x0d, 0x3c, 0x50, 0x8e, 0x1f, 0x3c, 0x00, 0x88, 0x21, 0x3e, 0x50, 0x00, 
  0x39, 0x50, 0x81, 0x63, 0x3e, 0x00, 0x0d, 0x3c, 0x50, 0x81, 0x63, 0x3c, 0x00, 0x0d, 0x3b, 0x50, 
  0x81, 0x63, 0x3b, 0x00, 0x0d, 0x39, 0x50, 0x81, 0x3f, 0x39, 0x00, 0x24, 0x39, 0x00, 0x0d, 0x3c, 
  0x50, 0x8e, 0x1f, 0x3c, 0x00, 0x86, 0x31, 0x3e, 0x50, 0x81, 0x63, 0x3e, 0x00, 0x0d, 0x3e, 0x50, 
  0x81, 0x63, 0x3e, 0x00, 0x0d, 0x48, 0x50, 0x81, 0x63, 0x48, 0x00, 0x0d, 0x48, 0x50, 0x82, 0x55, 
  0x48, 0x00, 0x13, 0x47, 0x50, 0x71, 0x47, 0x00, 0x07, 0x47, 0x50, 0x8e, 0x1f, 0x47, 0x00, 0x86, 
  0x31, 0x3b, 0x50, 0x81, 0x63, 0x3b, 0x00, 0x0d, 0x3b, 0x50, 0x81, 0x63, 0x3b, 0x00, 0x0d, 0x45, 
  0x50, 0x81, 0x63, 0x45, 0x00, 0x0d, 0x45, 0x50, 0x82, 0x55, 0x45, 0x00, 0x13, 0x43, 0x50, 0x71, 
  0x43, 0x00, 0x07, 0x43, 0x50, 0x8e, 0x1f, 0x43, 0x00, 0x86, 0x31, 0x40, 0x50, 0x81, 0x63, 0x40, 
  0x00, 0x0d, 0x40, 0x50, 0x81, 0x63, 0x40, 0x00, 0x0d, 0x4a, 0x50, 0x81, 0x63, 0x4a, 0x00, 0x0d, 
  0x4a, 0x50, 0x82, 0x55, 0x4a, 0x00, 0x13, 0x48, 0x50, 0x71, 0x48, 0x00, 0x07, 0x48, 0x50, 0x8e, 
  0x1f, 0x48, 0x00, 0x88, 0x21, 0x48, 0x50, 0x81, 0x63, 0x48, 0x00, 0x0d, 0x47, 0x50, 0x81, 0x63, 
  0x47, 0x00, 0x0d, 0x45, 0x50, 0x82, 0x55, 0x45, 0x00, 0x13, 0x47, 0x50, 0x71, 0x47, 0x00, 0x07, 
  0x48, 0x50, 0x8e, 0x1f, 0x48, 0x00, 0x86, 0x31, 0x3e, 0x50, 0x81, 0x63, 0x3e, 0x00, 0x0d, 0x3e, 
  0x50, 0x81, 0x63, 0x3e, 0x00, 0x0d, 0x48, 0x50, 0x81, 0x63, 0x48, 0x00, 0x0d, 0x48, 0x50, 0x82, 
  0x55, 0x48, 0x00, 0x13, 0x47, 0x50, 0x71, 0x47, 0x00, 0x07, 0x47, 0x50, 0x8e, 0x1f, 0x47, 0x00, 
  0x86, 0x31, 0x3b, 0x50, 0x81, 0x63, 0x3b, 0x00, 0x0d, 0x3b, 0x50, 0x81, 0x63, 0x3b, 0x00, 0x0d, 
  0x45, 0x50, 0x81, 0x63, 0x45, 0x00, 0x0d, 0x45, 0x50, 0x82, 0x55, 0x45, 0x00, 0x13, 0x43, 0x50, 
  0x71, 0x43, 0x00, 0x07, 0x43, 0x50, 0x8e, 0x1f, 0x43, 0x00, 0x86, 0x31, 0x40, 0x50, 0x81, 0x63, 
  0x40, 0x00, 0x0d, 0x40, 0x50, 0x81, 0x63, 0x40, 0x00, 0x0d, 0x4a, 0x50, 0x81, 0x63, 0x4a, 0x00, 
  0x0d, 0x4a, 0x50, 0x82, 0x55, 0x4a, 0x00, 0x13, 0x48, 0x50, 0x71, 0x48, 0x00, 0x07, 0x48, 0x50, 
  0x8e, 0x1f, 0x48, 0x00, 0x86, 0x31, 0x48, 0x50, 0x81, 0x63, 0x48, 0x00, 0x0d, 0x48, 0x50, 0x81, 
  0x63, 0x48, 0x00, 0x0d, 0x47, 0x50, 0x81, 0x63, 0x47, 0x00, 0x0d, 0x45, 0x50, 0x82, 0x55, 0x45, 
  0x00, 0x13, 0x47, 0x50, 0x71, 0x47, 0x00, 0x07, 0x48, 0x50, 0x8e, 0x1f, 0x48, 0x00, 0x88, 0x21, 
  0x3e, 0x50, 0x81, 0x63, 0x3e, 0x00, 0x0d, 0x40, 0x50, 0x81, 0x63, 0x40, 0x00, 0x0d, 0x42, 0x50, 
  0x82, 0x55, 0x42, 0x00, 0x13, 0x43, 0x50, 0x71, 0x43, 0x00, 0x07, 0x3b, 0x50, 0x8a, 0x57, 0x3b, 
  0x00, 0x8b, 0x69, 0x3b, 0x50, 0x81, 0x63, 0x3b, 0x00, 0x0d, 0x3c, 0x50, 0x81, 0x63, 0x3c, 0x00, 
  0x0d, 0x3e, 0x50, 0x82, 0x55, 0x3e, 0x00, 0x13, 0x40, 0x50, 0x71, 0x40, 0x00, 0x07, 0x40, 0x50, 
  0x00, 0x39, 0x50, 0x83, 0x47, 0x40, 0x00, 0x19, 0x3e, 0x50, 0x86, 0x77, 0x39, 0x00, 0x18, 0x3e, 
  0x00, 0x8b, 0x51, 0x3e, 0x50, 0x00, 0x39, 0x50, 0x81, 0x63, 0x3e, 0x00, 0x0d, 0x3c, 0x50, 0x81, 
  0x63, 0x3c, 0x00, 0x0d, 0x3b, 0x50, 0x81, 0x63, 0x3b, 0x00, 0x0d, 0x39, 0x50, 0x81, 0x3f, 0x39, 
  0x00, 0x24, 0x39, 0x00, 0x0d, 0x3c, 0x50, 0x8e, 0x1f, 0x3c, 0x00, 0x88, 0x21, 0x3e, 0x50, 0x00, 
  0x39, 0x50, 0x81, 0x63, 0x3e, 0x00, 0x0d, 0x3c, 0x50, 0x81, 0x63, 0x3c, 0x00, 0x0d, 0x3b, 0x50, 
  0x81, 0x63, 0x3b, 0x00, 0x0d, 0x39, 0x50, 0x81, 0x3f, 0x39, 0x00, 0x24, 0x39, 0x00, 0x0d, 0x3c, 
  0x50, 0x8e, 0x1f, 0x3c, 0x00, 0x88, 0x21, 0x3e, 0x50, 0x81, 0x63, 0x3e, 0x00, 0x0d, 0x40, 0x50, 
  0x81, 0x63, 0x40, 0x00, 0x0d, 0x42, 0x50, 0x82, 0x55, 0x42, 0x00, 0x13, 0x43, 0x50, 0x71, 0x43, 
  0x00, 0x07, 0x3b, 0x50, 0x8a, 0x57, 0x3b, 0x00, 0x8b, 0x69, 0x3b, 0x50, 0x81, 0x63, 0x3b, 0x00, 
  0x0d, 0x3c, 0x50, 0x81, 0x63, 0x3c, 0x00, 0x0d, 0x3e, 0x50, 0x82, 0x55, 0x3e, 0x00, 0x13, 0x40, 
  0x50, 0x71, 0x40, 0x00, 0x07, 0x40, 0x50, 0x00, 0x39, 0x50, 0x83, 0x47, 0x40, 0x00, 0x19, 0x3e, 
  0x50, 0x86, 0x77, 0x39, 0x00, 0x18, 0x3e, 0x00, 0x8b, 0x51, 0x3e, 0x50, 0x00, 0x39, 0x50, 0x81, 
  0x63, 0x3e, 0x00, 0x0d, 0x3c, 0x50, 0x81, 0x63, 0x3c, 0x00, 0x0d, 0x3b, 0x50, 0x81, 0x63, 0x3b, 
  0x00, 0x0d, 0x39, 0x50, 0x81, 0x3f, 0x39, 0x00, 0x24, 0x39, 0x00, 0x0d, 0x3c, 0x50, 0x8e, 0x1f, 
  0x3c, 0x00, 0x88, 0x21, 0x3e, 0x50, 0x00, 0x39, 0x50, 0x81, 0x63, 0x3e, 0x00, 0x0d, 0x3c, 0x50, 
  0x81, 0x63, 0x3c, 0x00, 0x0d, 0x3b, 0x50, 0x81, 0x63, 0x3b, 0x00, 0x0d, 0x39, 0x50, 0x81, 0x3f, 
  0x39, 0x00, 0x24, 0x39, 0x00, 0x0d, 0x3c, 0x50, 0x8e, 0x1f, 0x3c, 0x00, 0x86, 0x31, 0x3e, 0x50, 
  0x81, 0x63, 0x3e, 0x00, 0x0d, 0x3e, 0x50, 0x81, 0x63, 0x3e, 0x00, 0x0d, 0x48, 0x50, 0x81, 0x63, 
  0x48, 0x00, 0x0d, 0x48, 0x50, 0x82, 0x55, 0x48, 0x00, 0x13, 0x47, 0x50, 0x71, 0x47, 0x00, 0x07, 
  0x47, 0x50, 0x8e, 0x1f, 0x47, 0x00, 0x86, 0x31, 0x3b, 0x50, 0x81, 0x63, 0x3b, 0x00, 0x0d, 0x3b, 
  0x50, 0x81, 0x63, 0x3b, 0x00, 0x0d, 0x45, 0x50, 0x81, 0x63, 0x45, 0x00, 0x0d, 0x45, 0x50, 0x82, 
  0x55, 0x45, 0x00, 0x13, 0x43, 0x50, 0x71, 0x43, 0x00, 0x07, 0x43, 0x50, 0x8e, 0x1f, 0x43, 0x00, 
  0x86, 0x31, 0x40, 0x50, 0x81, 0x63, 0x40, 0x00, 0x0d, 0x40, 0x50, 0x81, 0x63, 0x40, 0x00, 0x0d, 
  0x4a, 0x50, 0x81, 0x63, 0x4a, 0x00, 0x0d, 0x4a, 0x50, 0x82, 0x55, 0x4a, 0x00, 0x13, 0x48, 0x50, 
  0x71, 0x48, 0x00, 0x07, 0x48, 0x50, 0x8e, 0x1f, 0x48, 0x00, 0x88, 0x21, 0x48, 0x50, 0x81, 0x63, 
  0x48, 0x00, 0x0d, 0x47, 0x50, 0x81, 0x63, 0x47, 0x00, 0x0d, 0x45, 0x50, 0x82, 0x55, 0x45, 0x00, 
  0x13, 0x47, 0x50, 0x71, 0x47, 0x00, 0x07, 0x48, 0x50, 0x8e, 0x1f, 0x48, 0x00, 0x86, 0x31, 0x3e, 
  0x50, 0x81, 0x63, 0x3e, 0x00, 0x0d, 0x3e, 0x50, 0x81, 0x63, 0x3e, 0x00, 0x0d, 0x48, 0x50, 0x81, 
  0x63, 0x48, 0x00, 0x0d, 0x48, 0x50, 0x82, 0x55, 0x48, 0x00, 0x13, 0x47, 0x50, 0x71, 0x47, 0x00, 
  0x07, 0x47, 0x50, 0x8e, 0x1f, 0x47, 0x00, 0x86, 0x31, 0x3b, 0x50, 0x81, 0x63, 0x3b, 0x00, 0x0d, 
  0x3b, 0x50, 0x81, 0x63, 0x3b, 0x00, 0x0d, 0x45, 0x50, 0x81, 0x63, 0x45, 0x00, 0x0d, 0x45, 0x50, 
  0x82, 0x55, 0x45, 0x00, 0x13, 0x43, 0x50, 0x71, 0x43, 0x00, 0x07, 0x43, 0x50, 0x8e, 0x1f, 0x43, 
  0x00, 0x86, 0x31, 0x40, 0x50, 0x81, 0x63, 0x40, 0x00, 0x0d, 0x40, 0x50, 0x81, 0x63, 0x40, 0x00, 
  0x0d, 0x4a, 0x50, 0x81, 0x63, 0x4a, 0x00, 0x0d, 0x4a, 0x50, 0x82, 0x55, 0x4a, 0x00, 0x13, 0x48, 
  0x50, 0x71, 0x48, 0x00, 0x07, 0x48, 0x50, 0x8e, 0x1f, 0x48, 0x00, 0x86, 0x31, 0x48, 0x50, 0x81, 
  0x63, 0x48, 0x00, 0x0d, 0x48, 0x50, 0x81, 0x63, 0x48, 0x00, 0x0d, 0x47, 0x50, 0x81, 0x63, 0x47, 
  0x00, 0x0d, 0x45, 0x50, 0x82, 0x55, 0x45, 0x00, 0x13, 0x47, 0x50, 0x71, 0x47, 0x00, 0x07, 0x48, 
  0x50, 0x8e, 0x1f, 0x48, 0x00, 0x86, 0x31, 0x3e, 0x50, 0x81, 0x63, 0x3e, 0x00, 0x0d, 0x3e, 0x50, 
  0x81, 0x63, 0x3e, 0x00, 0x0d, 0x48, 0x50, 0x81, 0x63, 0x48, 0x00, 0x0d, 0x48, 0x50, 0x82, 0x55, 
  0x48, 0x00, 0x13, 0x47, 0x50, 0x71, 0x47, 0x00, 0x07, 0x47, 0x50, 0x95, 0x2f, 0x47, 0x00, 0x01, 
  0xff, 0x2f, 0x00, 0x4d, 0x54, 0x72, 0x6b, 0x00, 0x00, 0x07, 0x8d, 0x00, 0xff, 0x59, 0x02, 0x01, 
  0x00, 0x00, 0xff, 0x59, 0x02, 0x00, 0x00, 0x00, 0xff, 0x59, 0x02, 0x00, 0x00, 0x00, 0xff, 0x21, 
  0x01, 0x00, 0x00, 0x90, 0x3e, 0x50, 0x81, 0x63, 0x3e, 0x00, 0x0d, 0x3b, 0x50, 0x81, 0x63, 0x3b, 
  0x00, 0x0d, 0x37, 0x50, 0x95, 0x2f, 0x37, 0x00, 0x81, 0x11, 0x27, 0x50, 0x83, 0x47, 0x27, 0x00, 
  0x19, 0x28, 0x50, 0x81, 0x63, 0x28, 0x00, 0x0d, 0x2f, 0x50, 0x81, 0x63, 0x2f, 0x00, 0x0d, 0x34, 
  0x50, 0x95, 0x2f, 0x34, 0x00, 0x81, 0x11, 0x2c, 0x50, 0x83, 0x47, 0x2c, 0x00, 0x19, 0x2d, 0x50, 
  0x81, 0x63, 0x2d, 0x00, 0x0d, 0x34, 0x50, 0x81, 0x63, 0x34, 0x00, 0x0d, 0x39, 0x50, 0x95, 0x2f, 
  0x39, 0x00, 0x81, 0x11, 0x2d, 0x50, 0x83, 0x47, 0x2d, 0x00, 0x19, 0x26, 0x50, 0x81, 0x63, 0x26, 
  0x00, 0x0d, 0x2d, 0x50, 0x81, 0x63, 0x2d, 0x00, 0x0d, 0x32, 0x50, 0x95, 0x2f, 0x32, 0x00, 0x81, 
  0x11, 0x2a, 0x50, 0x83, 0x47, 0x2a, 0x00, 0x19, 0x2b, 0x50, 0x81, 0x63, 0x2b, 0x00, 0x0d, 0x32, 
  0x50, 0x81, 0x63, 0x32, 0x00, 0x0d, 0x37, 0x50, 0x95, 0x2f, 0x37, 0x00, 0x81, 0x11, 0x27, 0x50, 
  0x83, 0x47, 0x27, 0x00, 0x19, 0x28, 0x50, 0x81, 0x63, 0x28, 0x00, 0x0d, 0x2f, 0x50, 0x81, 0x63, 
  0x2f, 0x00, 0x0d, 0x34, 0x50, 0x95, 0x2f, 0x34, 0x00, 0x81, 0x11, 0x2c, 0x50, 0x83, 0x47, 0x2c, 
  0x00, 0x19, 0x2d, 0x50, 0x81, 0x63, 0x2d, 0x00, 0x0d, 0x34, 0x50, 0x81, 0x63, 0x34, 0x00, 0x0d, 
  0x39, 0x50, 0x95, 0x2f, 0x39, 0x00, 0x81, 0x11, 0x2d, 0x50, 0x83, 0x47, 0x2d, 0x00, 0x19, 0x26, 
  0x50, 0x81, 0x63, 0x26, 0x00, 0x0d, 0x2d, 0x50, 0x81, 0x63, 0x2d, 0x00, 0x0d, 0x32, 0x50, 0x98, 
  0x77, 0x32, 0x00, 0x81, 0x29, 0x26, 0x50, 0x8e, 0x1f, 0x26, 0x00, 0x61, 0x2b, 0x50, 0x83, 0x47, 
  0x2b, 0x00, 0x19, 0x32, 0x50, 0x83, 0x47, 0x32, 0x00, 0x19, 0x37, 0x50, 0x83, 0x47, 0x37, 0x00, 
  0x19, 0x32, 0x50, 0x83, 0x47, 0x32, 0x00, 0x19, 0x2b, 0x50, 0x83, 0x47, 0x2b, 0x00, 0x19, 0x32, 
  0x50, 0x83, 0x47, 0x32, 0x00, 0x19, 0x37, 0x50, 0x83, 0x47, 0x37, 0x00, 0x19, 0x32, 0x50, 0x83, 
  0x47, 0x32, 0x00, 0x19, 0x2a, 0x50, 0x83, 0x47, 0x2a, 0x00, 0x19, 0x32, 0x50, 0x83, 0x47, 0x32, 
  0x00, 0x19, 0x36, 0x50, 0x83, 0x47, 0x36, 0x00, 0x19, 0x32, 0x50, 0x83, 0x47, 0x32, 0x00, 0x19, 
  0x2a, 0x50, 0x83, 0x47, 0x2a, 0x00, 0x19, 0x32, 0x50, 0x83, 0x47, 0x32, 0x00, 0x19, 0x36, 0x50, 
  0x83, 0x47, 0x36, 0x00, 0x19, 0x32, 0x50, 0x83, 0x47, 0x32, 0x00, 0x19, 0x2d, 0x50, 0x83, 0x47, 
  0x2d, 0x00, 0x19, 0x34, 0x50, 0x83, 0x47, 0x34, 0x00, 0x19, 0x39, 0x50, 0x83, 0x47, 0x39, 0x00, 
  0x19, 0x34, 0x50, 0x83, 0x47, 0x34, 0x00, 0x19, 0x2d, 0x50, 0x83, 0x47, 0x2d, 0x00, 0x19, 0x34, 
  0x50, 0x83, 0x47, 0x34, 0x00, 0x19, 0x39, 0x50, 0x83, 0x47, 0x39, 0x00, 0x19, 0x34, 0x50, 0x83, 
  0x47, 0x34, 0x00, 0x19, 0x26, 0x50, 0x83, 0x47, 0x26, 0x00, 0x19, 0x2d, 0x50, 0x83, 0x47, 0x2d, 
  0x00, 0x19, 0x32, 0x50, 0x83, 0x47, 0x32, 0x00, 0x19, 0x2d, 0x50, 0x83, 0x47, 0x2d, 0x00, 0x19, 
  0x26, 0x50, 0x83, 0x47, 0x26, 0x00, 0x19, 0x2d, 0x50, 0x83, 0x47, 0x2d, 0x00, 0x19, 0x32, 0x50, 
  0x83, 0x47, 0x32, 0x00, 0x19, 0x2d, 0x50, 0x83, 0x47, 0x2d, 0x00, 0x19, 0x2b, 0x50, 0x83, 0x47, 
  0x2b, 0x00, 0x19, 0x32, 0x50, 0x83, 0x47, 0x32, 0x00, 0x19, 0x37, 0x50, 0x83, 0x47, 0x37, 0x00, 
  0x19, 0x32, 0x50, 0x83, 0x47, 0x32, 0x00, 0x19, 0x2b, 0x50, 0x83, 0x47, 0x2b, 0x00, 0x19, 0x32, 
  0x50, 0x83, 0x47, 0x32, 0x00, 0x19, 0x37, 0x50, 0x83, 0x47, 0x37, 0x00, 0x19, 0x32, 0x50, 0x83, 
  0x47, 0x32, 0x00, 0x19, 0x2a, 0x50, 0x83, 0x47, 0x2a, 0x00, 0x19, 0x32, 0x50, 0x83, 0x47, 0x32, 
  0x00, 0x19, 0x36, 0x50, 0x83, 0x47, 0x36, 0x00, 0x19, 0x32, 0x50, 0x83, 0x47, 0x32, 0x00, 0x19, 
  0x2a, 0x50, 0x83, 0x47, 0x2a, 0x00, 0x19, 0x32, 0x50, 0x83, 0x47, 0x32, 0x00, 0x19, 0x36, 0x50, 
  0x83, 0x47, 0x36, 0x00, 0x19, 0x32, 0x50, 0x83, 0x47, 0x32, 0x00, 0x19, 0x2d, 0x50, 0x83, 0x47, 
  0x2d, 0x00, 0x19, 0x34, 0x50, 0x83, 0x47, 0x34, 0x00, 0x19, 0x39, 0x50, 0x83, 0x47, 0x39, 0x00, 
  0x19, 0x34, 0x50, 0x83, 0x47, 0x34, 0x00, 0x19, 0x2d, 0x50, 0x83, 0x47, 0x2d, 0x00, 0x19, 0x34, 
  0x50, 0x83, 0x47, 0x34, 0x00, 0x19, 0x39, 0x50, 0x83, 0x47, 0x39, 0x00, 0x19, 0x34, 0x50, 0x83, 
  0x47, 0x34, 0x00, 0x19, 0x26, 0x50, 0x83, 0x47, 0x26, 0x00, 0x19, 0x2d, 0x50, 0x83, 0x47, 0x2d, 
  0x00, 0x19, 0x32, 0x50, 0x83, 0x47, 0x32, 0x00, 0x19, 0x2d, 0x50, 0x83, 0x47, 0x2d, 0x00, 0x19, 
  0x26, 0x50, 0x83, 0x47, 0x26, 0x00, 0x19, 0x2d, 0x50, 0x83, 0x47, 0x2d, 0x00, 0x19, 0x32, 0x50, 
  0x83, 0x47, 0x32, 0x00, 0x19, 0x2d, 0x50, 0x83, 0x47, 0x2d, 0x00, 0x19, 0x2b, 0x50, 0x83, 0x47, 
  0x2b, 0x00, 0x19, 0x32, 0x50, 0x83, 0x47, 0x32, 0x00, 0x19, 0x37, 0x50, 0x83, 0x47, 0x37, 0x00, 
  0x19, 0x32, 0x50, 0x83, 0x47, 0x32, 0x00, 0x19, 0x2b, 0x50, 0x83, 0x47, 0x2b, 0x00, 0x19, 0x32, 
  0x50, 0x83, 0x47, 0x32, 0x00, 0x19, 0x27, 0x50, 0x83, 0x47, 0x27, 0x00, 0x19, 0x2f, 0x50, 0x83, 
  0x47, 0x2f, 0x00, 0x19, 0x28, 0x50, 0x83, 0x47, 0x28, 0x00, 0x19, 0x2f, 0x50, 0x83, 0x47, 0x2f, 
  0x00, 0x19, 0x34, 0x50, 0x83, 0x47, 0x34, 0x00, 0x19, 0x2f, 0x50, 0x83, 0x47, 0x2f, 0x00, 0x19, 
  0x28, 0x50, 0x83, 0x47, 0x28, 0x00, 0x19, 0x2f, 0x50, 0x83, 0x47, 0x2f, 0x00, 0x19, 0x2c, 0x50, 
  0x83, 0x47, 0x2c, 0x00, 0x19, 0x34, 0x50, 0x83, 0x47, 0x34, 0x00, 0x19, 0x2d, 0x50, 0x83, 0x47, 
  0x2d, 0x00, 0x19, 0x34, 0x50, 0x83, 0x47, 0x34, 0x00, 0x19, 0x39, 0x50, 0x83, 0x47, 0x39, 0x00, 
  0x19, 0x34, 0x50, 0x83, 0x47, 0x34, 0x00, 0x19, 0x2d, 0x50, 0x83, 0x47, 0x2d, 0x00, 0x19, 0x34, 
  0x50, 0x83, 0x47, 0x34, 0x00, 0x19, 0x39, 0x50, 0x83, 0x47, 0x39, 0x00, 0x19, 0x34, 0x50, 0x83, 
  0x47, 0x34, 0x00, 0x19, 0x26, 0x50, 0x83, 0x47, 0x26, 0x00, 0x19, 0x2d, 0x50, 0x83, 0x47, 0x2d, 
  0x00, 0x19, 0x32, 0x50, 0x83, 0x47, 0x32, 0x00, 0x19, 0x2d, 0x50, 0x83, 0x47, 0x2d, 0x00, 0x19, 
  0x26, 0x50, 0x83, 0x47, 0x26, 0x00, 0x19, 0x2d, 0x50, 0x83, 0x47, 0x2d, 0x00, 0x19, 0x32, 0x50, 
  0x83, 0x47, 0x32, 0x00, 0x19, 0x2d, 0x50, 0x83, 0x47, 0x2d, 0x00, 0x19, 0x2b, 0x50, 0x83, 0x47, 
  0x2b, 0x00, 0x19, 0x3c, 0x60, 0x85, 0x43, 0x3c, 0x00, 0x0d, 0x3b, 0x60, 0x85, 0x37, 0x3b, 0x00, 
  0x19, 0x39, 0x60, 0x87, 0x3f, 0x39, 0x00, 0x01, 0x37, 0x60, 0x87, 0x3f, 0x37, 0x00, 0x01, 0x28, 
  0x50, 0x83, 0x47, 0x28, 0x00, 0x19, 0x39, 0x60, 0x85, 0x43, 0x39, 0x00, 0x0d, 0x37, 0x60, 0x85, 
  0x37, 0x37, 0x00, 0x19, 0x36, 0x60, 0x87, 0x3f, 0x36, 0x00, 0x01, 0x34, 0x60, 0x87, 0x3f, 0x34, 
  0x00, 0x01, 0x2d, 0x50, 0x83, 0x47, 0x2d, 0x00, 0x19, 0x3e, 0x60, 0x85, 0x43, 0x3e, 0x00, 0x0d, 
  0x3c, 0x60, 0x85, 0x37, 0x3c, 0x00, 0x19, 0x3b, 0x60, 0x87, 0x3f, 0x3b, 0x00, 0x01, 0x39, 0x60, 
  0x87, 0x3f, 0x39, 0x00, 0x01, 0x26, 0x50, 0x83, 0x47, 0x26, 0x00, 0x19, 0x37, 0x60, 0x85, 0x43, 
  0x37, 0x00, 0x0d, 0x36, 0x60, 0x85, 0x37, 0x36, 0x00, 0x19, 0x34, 0x60, 0x87, 0x3f, 0x34, 0x00, 
  0x01, 0x32, 0x60, 0x87, 0x3f, 0x32, 0x00, 0x01, 0x2b, 0x50, 0x83, 0x47, 0x2b, 0x00, 0x19, 0x32, 
  0x50, 0x83, 0x47, 0x32, 0x00, 0x19, 0x37, 0x50, 0x83, 0x47, 0x37, 0x00, 0x19, 0x32, 0x50, 0x83, 
  0x47, 0x32, 0x00, 0x19, 0x2b, 0x50, 0x83, 0x47, 0x2b, 0x00, 0x19, 0x32, 0x50, 0x83, 0x47, 0x32, 
  0x00, 0x19, 0x37, 0x50, 0x83, 0x47, 0x37, 0x00, 0x19, 0x32, 0x50, 0x83, 0x47, 0x32, 0x00, 0x19, 
  0x2a, 0x50, 0x83, 0x47, 0x2a, 0x00, 0x19, 0x32, 0x50, 0x83, 0x47, 0x32, 0x00, 0x19, 0x36, 0x50, 
  0x83, 0x47, 0x36, 0x00, 0x19, 0x32, 0x50, 0x83, 0x47, 0x32, 0x00, 0x19, 0x2a, 0x50, 0x83, 0x47, 
  0x2a, 0x00, 0x19, 0x32, 0x50, 0x83, 0x47, 0x32, 0x00, 0x19, 0x36, 0x50, 0x83, 0x47, 0x36, 0x00, 
  0x19, 0x32, 0x50, 0x83, 0x47, 0x32, 0x00, 0x19, 0x2d, 0x50, 0x83, 0x47, 0x2d, 0x00, 0x19, 0x34, 
  0x50, 0x83, 0x47, 0x34, 0x00, 0x19, 0x39, 0x50, 0x83, 0x47, 0x39, 0x00, 0x19, 0x34, 0x50, 0x83, 
  0x47, 0x34, 0x00, 0x19, 0x2d, 0x50, 0x83, 0x47, 0x2d, 0x00, 0x19, 0x34, 0x50, 0x83, 0x47, 0x34, 
  0x00, 0x19, 0x39, 0x50, 0x83, 0x47, 0x39, 0x00, 0x19, 0x34, 0x50, 0x83, 0x47, 0x34, 0x00, 0x19, 
  0x26, 0x50, 0x83, 0x47, 0x26, 0x00, 0x19, 0x2d, 0x50, 0x83, 0x47, 0x2d, 0x00, 0x19, 0x32, 0x50, 
  0x83, 0x47, 0x32, 0x00, 0x19, 0x2d, 0x50, 0x83, 0x47, 0x2d, 0x00, 0x19, 0x26, 0x50, 0x83, 0x47, 
  0x26, 0x00, 0x19, 0x2d, 0x50, 0x83, 0x47, 0x2d, 0x00, 0x19, 0x32, 0x50, 0x83, 0x47, 0x32, 0x00, 
  0x19, 0x2d, 0x50, 0x83, 0x47, 0x2d, 0x00, 0x19, 0x2b, 0x50, 0x83, 0x47, 0x2b, 0x00, 0x19, 0x32, 
  0x50, 0x83, 0x47, 0x32, 0x00, 0x19, 0x37, 0x50, 0x83, 0x47, 0x37, 0x00, 0x19, 0x32, 0x50, 0x83, 
  0x47, 0x32, 0x00, 0x19, 0x2b, 0x50, 0x83, 0x47, 0x2b, 0x00, 0x19, 0x32, 0x50, 0x83, 0x47, 0x32, 
  0x00, 0x19, 0x37, 0x50, 0x83, 0x47, 0x37, 0x00, 0x19, 0x32, 0x50, 0x83, 0x47, 0x32, 0x00, 0x19, 
  0x2a, 0x50, 0x83, 0x47, 0x2a, 0x00, 0x19, 0x32, 0x50, 0x83, 0x47, 0x32, 0x00, 0x19, 0x36, 0x50, 
  0x83, 0x47, 0x36, 0x00, 0x19, 0x32, 0x50, 0x83, 0x47, 0x32, 0x00, 0x19, 0x2a, 0x50, 0x83, 0x47, 
  0x2a, 0x00, 0x19, 0x32, 0x50, 0x83, 0x47, 0x32, 0x00, 0x19, 0x36, 0x50, 0x83, 0x47, 0x36, 0x00, 
  0x19, 0x32, 0x50, 0x83, 0x47, 0x32, 0x00, 0x19, 0x2d, 0x50, 0x83, 0x47, 0x2d, 0x00, 0x19, 0x34, 
  0x50, 0x83, 0x47, 0x34, 0x00, 0x19, 0x39, 0x50, 0x83, 0x47, 0x39, 0x00, 0x19, 0x34, 0x50, 0x83, 
  0x47, 0x34, 0x00, 0x19, 0x2d, 0x50, 0x83, 0x47, 0x2d, 0x00, 0x19, 0x34, 0x50, 0x83, 0x47, 0x34, 
  0x00, 0x19, 0x39, 0x50, 0x83, 0x47, 0x39, 0x00, 0x19, 0x34, 0x50, 0x83, 0x47, 0x34, 0x00, 0x19, 
  0x26, 0x50, 0x83, 0x47, 0x26, 0x00, 0x19, 0x2d, 0x50, 0x83, 0x47, 0x2d, 0x00, 0x19, 0x32, 0x50, 
  0x83, 0x47, 0x32, 0x00, 0x19, 0x2d, 0x50, 0x83, 0x47, 0x2d, 0x00, 0x19, 0x26, 0x50, 0x83, 0x47, 
  0x26, 0x00, 0x19, 0x2d, 0x50, 0x83, 0x47, 0x2d, 0x00, 0x19, 0x32, 0x50, 0x83, 0x47, 0x32, 0x00, 
  0x19, 0x2d, 0x50, 0x83, 0x47, 0x2d, 0x00, 0x19, 0x2b, 0x50, 0x83, 0x47, 0x2b, 0x00, 0x19, 0x32, 
  0x50, 0x83, 0x47, 0x32, 0x00, 0x19, 0x37, 0x50, 0x83, 0x47, 0x37, 0x00, 0x19, 0x32, 0x50, 0x83, 
  0x47, 0x32, 0x00, 0x19, 0x2b, 0x50, 0x83, 0x47, 0x2b, 0x00, 0x19, 0x32, 0x50, 0x83, 0x47, 0x32, 
  0x00, 0x19, 0x27, 0x50, 0x83, 0x47, 0x27, 0x00, 0x19, 0x2f, 0x50, 0x83, 0x47, 0x2f, 0x00, 0x19, 
  0x28, 0x50, 0x83, 0x47, 0x28, 0x00, 0x19, 0x2f, 0x50, 0x83, 0x47, 0x2f, 0x00, 0x19, 0x34, 0x50, 
  0x83, 0x47, 0x34, 0x00, 0x19, 0x2f, 0x50, 0x83, 0x47, 0x2f, 0x00, 0x19, 0x28, 0x50, 0x83, 0x47, 
  0x28, 0x00, 0x19, 0x2f, 0x50, 0x83, 0x47, 0x2f, 0x00, 0x19, 0x2c, 0x50, 0x83, 0x47, 0x2c, 0x00, 
  0x19, 0x34, 0x50, 0x83, 0x47, 0x34, 0x00, 0x19, 0x2d, 0x50, 0x83, 0x47, 0x2d, 0x00, 0x19, 0x34, 
  0x50, 0x83, 0x47, 0x34, 0x00, 0x19, 0x39, 0x50, 0x83, 0x47, 0x39, 0x00, 0x19, 0x34, 0x50, 0x83, 
  0x47, 0x34, 0x00, 0x19, 0x2d, 0x50, 0x83, 0x47, 0x2d, 0x00, 0x19, 0x34, 0x50, 0x83, 0x47, 0x34, 
  0x00, 0x19, 0x39, 0x50, 0x83, 0x47, 0x39, 0x00, 0x19, 0x34, 0x50, 0x83, 0x47, 0x34, 0x00, 0x19, 
  0x26, 0x50, 0x83, 0x47, 0x26, 0x00, 0x19, 0x2d, 0x50, 0x83, 0x47, 0x2d, 0x00, 0x19, 0x32, 0x50, 
  0x83, 0x47, 0x32, 0x00, 0x19, 0x2d, 0x50, 0x83, 0x47, 0x2d, 0x00, 0x19, 0x26, 0x50, 0x83, 0x47, 
  0x26, 0x00, 0x19, 0x2d, 0x50, 0x83, 0x47, 0x2d, 0x00, 0x19, 0x32, 0x50, 0x83, 0x47, 0x32, 0x00, 
  0x19, 0x2d, 0x50, 0x83, 0x47, 0x2d, 0x00, 0x19, 0x2b, 0x50, 0x83, 0x47, 0x2b, 0x00, 0x19, 0x3c, 
  0x60, 0x85, 0x43, 0x3c, 0x00, 0x0d, 0x3b, 0x60, 0x85, 0x37, 0x3b, 0x00, 0x19, 0x39, 0x60, 0x87, 
  0x3f, 0x39, 0x00, 0x01, 0x37, 0x60, 0x87, 0x3f, 0x37, 0x00, 0x01, 0x28, 0x50, 0x83, 0x47, 0x28, 
  0x00, 0x19, 0x39, 0x60, 0x85, 0x43, 0x39, 0x00, 0x0d, 0x37, 0x60, 0x85, 0x37, 0x37, 0x00, 0x19, 
  0x36, 0x60, 0x87, 0x3f, 0x36, 0x00, 0x01, 0x34, 0x60, 0x87, 0x3f, 0x34, 0x00, 0x01, 0x2d, 0x50, 
  0x83, 0x47, 0x2d, 0x00, 0x19, 0x3e, 0x60, 0x85, 0x43, 0x3e, 0x00, 0x0d, 0x3c, 0x60, 0x85, 0x37, 
  0x3c, 0x00, 0x19, 0x3b, 0x60, 0x87, 0x3f, 0x3b, 0x00, 0x01, 0x39, 0x60, 0x87, 0x3f, 0x39, 0x00, 
  0x01, 0x26, 0x50, 0x83, 0x47, 0x26, 0x00, 0x19, 0x37, 0x60, 0x85, 0x43, 0x37, 0x00, 0x0d, 0x36, 
  0x60, 0x85, 0x37, 0x36, 0x00, 0x19, 0x34, 0x60, 0x87, 0x3f, 0x34, 0x00, 0x01, 0x32, 0x60, 0x87, 
  0x3f, 0x32, 0x00, 0x01, 0x2b, 0x50, 0x81, 0x63, 0x2b, 0x00, 0x0d, 0x32, 0x50, 0x81, 0x63, 0x32, 
  0x00, 0x0d, 0x37, 0x50, 0x81, 0x63, 0x37, 0x00, 0x0d, 0x39, 0x50, 0x81, 0x63, 0x39, 0x00, 0x0d, 
  0x3b, 0x50, 0x81, 0x63, 0x3b, 0x00, 0x0d, 0x3e, 0x50, 0x81, 0x63, 0x3e, 0x00, 0x0d, 0x43, 0x50, 
  0x8a, 0x57, 0x43, 0x00, 0x01, 0xff, 0x2f, 0x00
};